<?xml version="1.0" encoding="UTF-8"?>
<!DOCTYPE svg PUBLIC "-//W3C//DTD SVG 1.1//EN" "http://www.w3.org/Graphics/SVG/1.1/DTD/svg11.dtd">
<!-- Creator: CorelDRAW -->
<svg xmlns="http://www.w3.org/2000/svg" xml:space="preserve" width="542px" height="614px" version="1.1" shape-rendering="geometricPrecision" text-rendering="geometricPrecision" image-rendering="optimizeQuality" fill-rule="evenodd" clip-rule="evenodd"
viewBox="0 0 418.28 473.68"
 xmlns:xlink="http://www.w3.org/1999/xlink"
 xmlns:xodm="http://www.corel.com/coreldraw/odm/2003">
 <g id="Layer_x0020_1">
  <metadata id="CorelCorpID_0Corel-Layer"/>
  <path fill="#5F4AEF" d="M62.45 315.09l47.84 0 0 120.37c7.73,-1.63 22.24,-11.12 30.86,-15.43l0 -169.76 47.85 0 0 141.98c7.97,-0.18 25.38,-17.52 32.41,-20.06 0,-19.52 -3.25,-185.91 1.05,-188.01 4.27,-1.18 35.3,-0.28 43.7,-0.28l0 162.05c4.05,0 157.43,-76.15 151.98,-108.07 -7.28,-42.68 -314.55,-214.25 -369.02,-235.11 -26.38,-10.1 -45.33,8.61 -45.32,36.83 0,54.4 -8.89,375.25 0.53,404.59 10.76,22.63 20.94,35.17 47.52,26.97 6.52,-2 8.4,-6.41 10.29,-12.08 1.32,-5 0.31,-140.63 0.31,-143.99z"/>
 </g>
</svg>
