<?xml version="1.0" encoding="UTF-8"?>
<!DOCTYPE svg PUBLIC "-//W3C//DTD SVG 1.1//EN" "http://www.w3.org/Graphics/SVG/1.1/DTD/svg11.dtd">
<!-- Creator: CorelDRAW -->
<svg xmlns="http://www.w3.org/2000/svg" xml:space="preserve" width="4080px" height="1175px" version="1.1" shape-rendering="geometricPrecision" text-rendering="geometricPrecision" image-rendering="optimizeQuality" fill-rule="evenodd" clip-rule="evenodd"
viewBox="0 0 11591.42 3337.86"
 xmlns:xlink="http://www.w3.org/1999/xlink"
 xmlns:xodm="http://www.corel.com/coreldraw/odm/2003">
 <g id="Layer_x0020_1">
  <metadata id="CorelCorpID_0Corel-Layer"/>
  <g id="_2336759688352">
   <path fill="#8AA2FD" stroke="#303791" stroke-width="142.04" stroke-linecap="round" stroke-linejoin="round" stroke-miterlimit="2.61313" d="M426.11 71.02l2130.54 0c196.09,0 355.1,159.02 355.1,355.09l0 2485.64c0,196.07 -159.01,355.08 -355.09,355.08l-2130.55 0.01c-196.07,-0.01 -355.09,-159.02 -355.09,-355.1l0 -2485.63c0,-196.07 159.02,-355.09 355.09,-355.09z"/>
   <circle fill="none" stroke="#303791" stroke-width="142.04" stroke-linecap="round" stroke-linejoin="round" stroke-miterlimit="2.61313" cx="639.16" cy="781.2" r="88.77"/>
   <line fill="none" stroke="#303791" stroke-width="142.04" stroke-linecap="round" stroke-linejoin="round" stroke-miterlimit="2.61313" x1="923.23" y1="781.2" x2="2485.64" y2= "781.2" />
   <circle fill="none" stroke="#303791" stroke-width="142.04" stroke-linecap="round" stroke-linejoin="round" stroke-miterlimit="2.61313" cx="639.16" cy="1491.38" r="88.77"/>
   <line fill="none" stroke="#303791" stroke-width="142.04" stroke-linecap="round" stroke-linejoin="round" stroke-miterlimit="2.61313" x1="923.23" y1="1491.39" x2="2485.64" y2= "1491.39" />
   <circle fill="none" stroke="#303791" stroke-width="142.04" stroke-linecap="round" stroke-linejoin="round" stroke-miterlimit="2.61313" cx="639.16" cy="2201.57" r="88.77"/>
   <line fill="none" stroke="#303791" stroke-width="142.04" stroke-linecap="round" stroke-linejoin="round" stroke-miterlimit="2.61313" x1="923.23" y1="2201.57" x2="2485.64" y2= "2201.57" />
   <circle fill="none" stroke="#303791" stroke-width="142.04" stroke-linecap="round" stroke-linejoin="round" stroke-miterlimit="2.61313" cx="781.2" cy="2840.73" r="106.53"/>
   <circle fill="none" stroke="#303791" stroke-width="142.04" stroke-linecap="round" stroke-linejoin="round" stroke-miterlimit="2.61313" cx="1491.38" cy="3124.8" r="106.53"/>
   <circle fill="none" stroke="#303791" stroke-width="142.04" stroke-linecap="round" stroke-linejoin="round" stroke-miterlimit="2.61313" cx="2201.56" cy="2840.73" r="106.53"/>
   <line fill="none" stroke="#303791" stroke-width="142.04" stroke-linecap="round" stroke-linejoin="round" stroke-miterlimit="2.61313" x1="887.73" y1="2876.24" x2="1384.85" y2= "3089.3" />
   <line fill="none" stroke="#303791" stroke-width="142.04" stroke-linecap="round" stroke-linejoin="round" stroke-miterlimit="2.61313" x1="1597.91" y1="3089.3" x2="2095.04" y2= "2876.24" />
   <polygon fill="#303791" fill-rule="nonzero" points="3316.91,2272.59 3316.91,1001.36 4190.43,1001.36 4190.43,1216.19 3574.35,1216.19 3574.35,1518.02 4106.99,1518.02 4106.99,1732.85 3574.35,1732.85 3574.35,2272.59 "/>
   <path id="_1" fill="#303791" fill-rule="nonzero" d="M4360.58 1800.61c0,-81.08 19.83,-159.5 59.77,-235.25 39.95,-76.05 96.47,-133.75 169.56,-173.7 73.09,-39.94 154.46,-60.07 244.72,-60.07 139.37,0 253.3,45.28 342.36,135.83 89.07,90.84 133.46,205.06 133.46,343.55 0,139.66 -44.98,255.36 -134.64,347.1 -89.96,91.73 -202.99,137.6 -339.41,137.6 -84.33,0 -164.82,-19.24 -241.46,-57.41 -76.34,-38.17 -134.64,-94.1 -174.59,-168.08 -39.94,-73.68 -59.77,-163.64 -59.77,-269.57zm250.34 13.02c0,91.43 21.6,161.57 64.8,210.09 43.5,48.83 96.76,73.09 160.39,73.09 63.32,0 116.59,-24.26 159.49,-73.09 42.91,-48.52 64.51,-119.25 64.51,-211.87 0,-90.25 -21.6,-159.79 -64.51,-208.32 -42.9,-48.82 -96.17,-73.09 -159.49,-73.09 -63.63,0 -116.89,24.27 -160.39,73.09 -43.2,48.53 -64.8,118.66 -64.8,210.1z"/>
   <path id="_2" fill="#303791" fill-rule="nonzero" d="M5752.24 2272.59l-243.24 0 0 -921.47 225.49 0 0 130.79c38.76,-61.84 73.68,-102.38 104.75,-121.61 31.07,-19.24 66.28,-28.71 105.64,-28.71 55.63,0 109.19,15.39 160.68,45.87l-75.46 212.46c-41.13,-26.63 -79.31,-39.95 -114.52,-39.95 -34.32,0 -63.32,9.47 -87,28.12 -23.67,18.93 -42.31,52.67 -55.92,101.79 -13.61,49.12 -20.42,152.09 -20.42,308.63l0 284.08z"/>
   <path id="_3" fill="#303791" fill-rule="nonzero" d="M6210.6 1351.12l223.71 0 0 125.76c80.19,-96.76 175.77,-145.29 286.74,-145.29 58.89,0 110.08,12.13 153.28,36.4 43.5,24.26 79.01,60.96 106.53,110.08 40.54,-49.12 84.33,-85.82 131.09,-110.08 46.75,-24.27 96.76,-36.4 150.02,-36.4 67.47,0 124.58,13.61 171.63,41.14 46.75,27.52 81.67,67.76 104.75,121.02 16.87,39.06 25.15,102.68 25.15,190.57l0 588.27 -243.23 0 0 -525.84c0,-91.43 -8.29,-150.32 -25.16,-176.65 -22.49,-34.62 -57.41,-52.08 -104.16,-52.08 -34.03,0 -66.28,10.35 -96.46,31.07 -29.89,21.01 -51.79,51.48 -65.1,91.43 -13.32,40.25 -19.83,103.57 -19.83,190.27l0 441.8 -243.24 0 0 -504.23c0,-89.37 -4.43,-147.37 -13.02,-173.11 -8.58,-26.04 -21.89,-45.57 -40.24,-58.3 -18.05,-12.72 -42.91,-18.93 -73.98,-18.93 -37.58,0 -71.31,10.06 -101.2,30.18 -30.18,20.42 -51.49,49.41 -64.51,87.59 -13.02,38.17 -19.53,101.49 -19.53,189.68l0 447.12 -243.24 0 0 -921.47z"/>
   <path id="_4" fill="#303791" fill-rule="nonzero" d="M7826.57 2272.59l0 -1271.23 411.61 0c155.94,0 257.44,6.21 304.78,18.94 72.8,19.23 133.76,60.66 182.88,124.58 49.12,63.91 73.68,146.47 73.68,247.67 0,78.12 -14.21,143.52 -42.32,196.78 -28.4,53.26 -64.21,94.99 -107.71,125.46 -43.5,30.19 -87.88,50.31 -132.86,60.08 -61.26,12.13 -149.73,18.34 -265.73,18.34l-166.89 0 0 479.38 -257.44 0zm257.44 -1056.4l0 362.19 139.96 0c100.91,0 168.08,-6.8 202.11,-20.12 34.03,-13.32 60.66,-34.03 79.9,-62.73 19.23,-28.41 29,-61.26 29,-99.13 0,-46.46 -13.62,-84.63 -40.54,-114.81 -27.23,-30.19 -61.26,-49.13 -102.98,-56.82 -30.48,-5.62 -91.73,-8.58 -184.05,-8.58l-123.4 0z"/>
   <path id="_5" fill="#303791" fill-rule="nonzero" d="M9026.77 1226.84l0 -225.48 243.24 0 0 225.48 -243.24 0zm0 1045.75l0 -921.47 243.24 0 0 921.47 -243.24 0z"/>
   <polygon id="_6" fill="#303791" fill-rule="nonzero" points="9537.81,2272.59 9537.81,1001.36 9781.05,1001.36 9781.05,2272.59 "/>
   <path id="_7" fill="#303791" fill-rule="nonzero" d="M9992.03 1800.61c0,-81.08 19.83,-159.5 59.77,-235.25 39.95,-76.05 96.47,-133.75 169.56,-173.7 73.09,-39.94 154.47,-60.07 244.72,-60.07 139.37,0 253.3,45.28 342.36,135.83 89.07,90.84 133.46,205.06 133.46,343.55 0,139.66 -44.98,255.36 -134.64,347.1 -89.96,91.73 -202.99,137.6 -339.41,137.6 -84.33,0 -164.82,-19.24 -241.46,-57.41 -76.34,-38.17 -134.64,-94.1 -174.59,-168.08 -39.94,-73.68 -59.77,-163.64 -59.77,-269.57zm250.34 13.02c0,91.43 21.6,161.57 64.8,210.09 43.5,48.83 96.77,73.09 160.39,73.09 63.32,0 116.59,-24.26 159.49,-73.09 42.91,-48.52 64.51,-119.25 64.51,-211.87 0,-90.25 -21.6,-159.79 -64.51,-208.32 -42.9,-48.82 -96.17,-73.09 -159.49,-73.09 -63.62,0 -116.89,24.27 -160.39,73.09 -43.2,48.53 -64.8,118.66 -64.8,210.1z"/>
   <path id="_8" fill="#303791" fill-rule="nonzero" d="M11571.89 1351.12l0 193.53 -166.89 0 0 373.14c0,75.75 1.48,119.84 4.73,132.27 3.26,12.43 10.36,22.79 21.9,31.07 11.24,7.99 24.86,12.13 41.13,12.13 22.78,0 55.34,-7.69 98.24,-23.37l20.42 189.38c-56.52,24.26 -120.44,36.4 -192.05,36.4 -43.79,0 -83.14,-7.4 -118.36,-22.2 -35.21,-14.79 -60.96,-34.03 -77.23,-57.4 -16.57,-23.68 -27.82,-55.34 -34.33,-95.58 -5.03,-28.41 -7.69,-85.81 -7.69,-172.52l0 -403.32 -111.85 0 0 -193.53 111.85 0 0 -182.87 243.24 -143.81 0 326.68 166.89 0z"/>
  </g>
 </g>
</svg>
