<?xml version="1.0" encoding="UTF-8"?>
<!DOCTYPE svg PUBLIC "-//W3C//DTD SVG 1.1//EN" "http://www.w3.org/Graphics/SVG/1.1/DTD/svg11.dtd">
<!-- Creator: CorelDRAW -->
<svg xmlns="http://www.w3.org/2000/svg" xml:space="preserve" width="3603px" height="3274px" version="1.1" shape-rendering="geometricPrecision" text-rendering="geometricPrecision" image-rendering="optimizeQuality" fill-rule="evenodd" clip-rule="evenodd"
viewBox="0 0 3672.67 3337.18"
 xmlns:xlink="http://www.w3.org/1999/xlink"
 xmlns:xodm="http://www.corel.com/coreldraw/odm/2003">
 <g id="Layer_x0020_1">
  <metadata id="CorelCorpID_0Corel-Layer"/>
  <g id="_2108816434832">
   <path fill="#303791" d="M323.01 1593.3c1.28,2 3.56,10.13 4.61,13.13 117.5,335.24 163.33,347.54 440.48,550.53 318.61,214.63 667,610.96 1074.78,366.29 103.36,-75.72 478.43,-376.56 528.07,-386.29 381.09,-74.76 730.36,72.9 935.28,-374.32 20.65,-45.39 43.03,-131.46 43.03,-181.14 192.59,4.3 250.93,1459.96 -133.87,1529.68 -23.85,7.88 -2667.53,28.13 -2752.61,0 -355.36,-144.24 -311.63,-1495.78 -139.77,-1517.88zm2003.69 334.23c-290.89,114.19 -454.83,341.87 -712.78,490.76 -75.62,15.47 -607.07,-354.29 -701,-423.85l-238.93 -168.11c-7.81,-8 -9.81,-9.79 -17.71,-17.69 -30.92,-30.94 -61.79,-61.03 -82.12,-100.75 -9.51,-18.58 -33.27,-138.64 -33.22,-155.54 0.18,-1521.5 -72.93,-1256.86 1534.11,-1256.86 1121.98,0 1154.15,49.99 1062.28,1262.85 -37.08,489.54 -513.89,274.82 -810.63,369.19zm-1997.79 -593.79c-414.88,0 -386.98,1567.77 -191.92,1831.87 140.18,138.08 233.85,162.03 427.88,162.03 317.15,0 2627.99,25.9 2705.96,-7.64 101.93,-32.86 118.91,-39.77 211.36,-95.4 69.24,-69.24 89.49,-88.25 140.85,-171.8 0.61,-1.21 1.34,-2.74 1.91,-3.99 0.57,-1.27 1.24,-2.81 1.78,-4.12 0.54,-1.33 1.14,-2.89 1.64,-4.25 80.06,-280.17 26.96,-1026.47 27.99,-1359l-16.46 -72.02c-0.49,-1.41 -1.09,-2.92 -1.58,-4.33l-19.46 -51.32c-0.67,-1.09 -1.59,-2.56 -2.29,-3.61l-19.55 -27.65c-0.66,-1.12 -1.4,-2.71 -2.08,-3.82l-23.5 -35.49c-5.17,-8.69 -0.27,-2.33 -6.88,-10.82l-32.33 -32.56c-0.52,-0.52 -8.38,-8.68 -8.7,-8.99l-60.1 -40.19c-1.1,-0.67 -2.65,-1.48 -3.72,-2.17l-61.8 -32.59c-1.45,-0.47 -3,-0.98 -4.43,-1.47l-12.72 -4.98c-15.63,-4.87 -12.61,-3.89 -31.5,-3.89 0,-252.04 51.33,-637.07 -27.92,-868.76 -307.49,-573.4 -2717.63,-723.13 -2986.65,78.16 -15.06,44.72 -5.78,713.13 -5.78,778.8z"/>
   <path fill="#303791" d="M1850.88 1015.18c-207.89,0 -206.98,56.89 -373.89,-132.91 -25.69,-56.2 12.19,-83.27 -62.53,-203.45 -120.3,-119.31 -268.96,-58.16 -336.7,76.47 -144.48,358.73 254.01,240.87 320.75,263.06 323.37,107.48 113.8,250.05 15.84,409.77 -754.45,-113.18 70.79,908.42 70.79,94.39 30.11,-10.9 126,-112.29 153.38,-141.58 112.88,30.32 242.96,49.94 306.75,-82.59 120.19,0 249.5,79.53 389.34,82.59 0,174.89 199.08,204.14 329.98,135.31 289.73,-206.96 -202.13,-576.67 -306.38,-288.69 -87.12,0 -269.55,-53.54 -377.54,-70.79 -51.42,-141.97 135.65,-178.02 165.17,-259.56 661.23,0 51.75,-736.05 -110.78,-264.16 -24.75,71.99 23.37,155.78 0.94,189.28 -31.06,31.32 -175.52,166.37 -185.12,192.86z"/>
   <path fill="#8AA2FD" stroke="#303791" stroke-width="8.49" stroke-miterlimit="2.61313" d="M3215.39 3111.18c384.8,-69.72 326.46,-1525.38 133.87,-1529.68 0,49.68 -22.38,135.75 -43.03,181.14 -204.92,447.22 -554.19,299.56 -935.28,374.32 -49.64,9.73 -424.71,310.57 -528.07,386.29 -407.78,244.67 -756.17,-151.66 -1074.78,-366.29 -277.15,-202.99 -322.98,-215.29 -440.48,-550.53 -1.05,-3 -3.33,-11.13 -4.61,-13.13 -171.86,22.1 -215.59,1373.64 139.77,1517.88 85.08,28.13 2728.76,7.88 2752.61,0z"/>
   <path fill="#8AA2FD" stroke="#303791" stroke-width="8.49" stroke-miterlimit="2.61313" d="M1485.14 1522.51c0,814.03 -825.24,-207.57 -70.79,-94.39 97.96,-159.72 307.53,-302.29 -15.84,-409.77 -66.74,-22.19 -465.23,95.67 -320.75,-263.06 67.74,-134.63 216.4,-195.78 336.7,-76.47 74.72,120.18 36.84,147.25 62.53,203.45 166.91,189.8 166,132.91 373.89,132.91 9.6,-26.49 154.06,-161.54 185.12,-192.86 22.43,-33.5 -25.69,-117.29 -0.94,-189.28 162.53,-471.89 772.01,264.16 110.78,264.16 -29.52,81.54 -216.59,117.59 -165.17,259.56 107.99,17.25 290.42,70.79 377.54,70.79 104.25,-287.98 596.11,81.73 306.38,288.69 -130.9,68.83 -329.98,39.58 -329.98,-135.31 -139.84,-3.06 -269.15,-82.59 -389.34,-82.59 -63.79,132.53 -193.87,112.91 -306.75,82.59 -27.38,29.29 -123.27,130.68 -153.38,141.58zm128.78 895.78c257.95,-148.89 421.89,-376.57 712.78,-490.76 296.74,-94.37 773.55,120.35 810.63,-369.19 91.87,-1212.86 59.7,-1262.85 -1062.28,-1262.85 -1607.04,0 -1533.93,-264.64 -1534.11,1256.86 -0.05,16.9 23.71,136.96 33.22,155.54 20.33,39.72 51.2,69.81 82.12,100.75 7.9,7.9 9.9,9.69 17.71,17.69l238.93 168.11c93.93,69.56 625.38,439.32 701,423.85z"/>
  </g>
 </g>
</svg>
