<?xml version="1.0" encoding="UTF-8"?>
<!DOCTYPE svg PUBLIC "-//W3C//DTD SVG 1.1//EN" "http://www.w3.org/Graphics/SVG/1.1/DTD/svg11.dtd">
<!-- Creator: CorelDRAW -->
<svg xmlns="http://www.w3.org/2000/svg" xml:space="preserve" width="2984px" height="1124px" version="1.1" shape-rendering="geometricPrecision" text-rendering="geometricPrecision" image-rendering="optimizeQuality" fill-rule="evenodd" clip-rule="evenodd"
viewBox="0 0 2979.61 1121.97"
 xmlns:xlink="http://www.w3.org/1999/xlink"
 xmlns:xodm="http://www.corel.com/coreldraw/odm/2003">
 <g id="Layer_x0020_1">
  <metadata id="CorelCorpID_0Corel-Layer"/>
  <path fill="#FEFEFE" d="M2633.16 938.35c2.29,0.8 37.26,0.44 43.03,0.44 14.64,0.01 29.3,0.16 43.93,0.16 14.48,0.01 28.96,0 43.43,0 13.12,0 31.34,-2.73 31.06,12.78 -0.27,14.44 -19.55,11.49 -31.55,11.22 -14.15,-0.32 -29.41,-0.31 -43.54,0.2 -29.02,1.04 -58.07,0.42 -87.1,0.22l0.7 50.67c9.23,3.87 135.28,-4.13 155.45,1.99 7.24,2.2 9.08,12.64 3.07,17.2 -5.79,4.4 -16.07,3.02 -24.09,3.03l-322.01 0c-35.63,0 -71.77,-0.6 -107.34,0.01 -12.36,0.21 -40.7,3.71 -46.55,-6.05 -4.65,-7.74 2.61,-13.94 9.17,-15.05 7.92,-1.35 69.23,0.12 78.82,0.44 12.85,0.44 41.47,1.32 52.64,-1.31 3.99,-11.87 1.71,-37.37 1.41,-51.2 -6.31,-0.05 -12.7,0.37 -19.1,0.27 -6.32,-0.1 -12.71,-0.65 -18.97,-0.72 -12.95,-0.15 -25.99,0.21 -38.94,0.29 -12.77,0.07 -25.7,-0.11 -38.44,0.33 -11.83,0.41 -26.62,1.51 -27.26,-11.59 -0.65,-13.26 14.35,-12.98 25.76,-12.79 17.86,0.31 103.89,1.63 115.46,-0.98 2.58,-9.69 2.81,-37.58 0.63,-45.36 -8.77,-1.21 -43.67,-0.88 -55.18,-1.1 -18.14,-0.35 -37.94,-0.31 -55.9,0.85 -8.19,0.53 -18.79,0.51 -25.81,-2.66 -8.49,-3.83 -6.56,-12.85 -0.96,-18.09 5.41,-5.06 16.58,-3.91 24.75,-3.9l453.81 -0.3c9.31,-0.2 17.11,0.78 19.96,8.5 1.25,3.4 1.38,8.3 -0.78,11.17 -2.4,3.18 -6.11,3.39 -10.65,3.87 -35.63,3.71 -101.16,0.94 -139.33,0.92 -12.72,-0.01 -9.9,-3.31 -9.9,18.47 0,4.88 -0.73,25.31 0.32,28.07zm-22.21 -174.85c-0.59,-5.66 2.93,-10.22 7.45,-11.36 10.7,-2.71 79.81,-2.22 94.19,-1.95 11.22,0.2 26,0.37 27.96,10.88 0.96,5.14 -1.97,12.12 -6.04,12.67l-95.76 0.89c-5.05,-0.05 -14.09,0.14 -18.53,-1.06 -4.34,-1.18 -8.77,-5.28 -9.27,-10.07zm146.56 -86.13c13.57,-0.71 39.29,-2.13 36.81,15.1 -2,13.94 -28.49,9.65 -41.29,9.41 -17.19,-0.31 -35.22,-0.58 -52.38,-0.13 -17.25,0.45 -34.71,-0.21 -51.92,0.29 -10.42,0.3 -40.81,3.95 -37.81,-14.83 2,-12.48 30.08,-9.2 42.3,-9.21 34.75,-0.01 69.6,1.19 104.29,-0.63zm-189.64 -2.23c-1.79,20.31 -6.95,39.25 -15.22,55.18 -15.27,29.36 -40.29,56.58 -71.54,69.24 -45.66,18.49 -99.18,8.93 -136.19,-21.79 -3.31,-2.74 -6.29,-5.41 -8.99,-8.51l-8.41 -9.54c-19.48,-23.62 -36.33,-66.67 -33.11,-107.94 2.1,-26.96 11.92,-57.05 27.82,-77.48 17,-21.84 33.01,-36.32 59.35,-46.49 17.98,-6.95 39.29,-11.04 60.8,-8.69 42.46,4.63 73.6,26.35 92.06,49.15 19.69,24.3 37.18,64.14 33.43,106.87zm191.06 -67.7c9.28,-0.48 41.31,-2.35 35.55,15.25 -2.67,8.16 -7.43,9.18 -16.95,9.17 -42.86,-0.05 -88,-0.78 -130.3,0.02 -13.5,0.25 -41.2,2.72 -35.5,-16.21 2.55,-8.45 8.46,-7.96 18.03,-7.96 41.55,0.02 89.13,1.81 129.17,-0.27zm-138.19 -69.3c5.47,-1.08 43.51,-0.72 51.45,-0.52 17.12,0.42 34.76,0.06 51.93,0.04 17.29,-0.02 34.61,0.09 51.92,0.09 9.63,0 15.42,-0.13 18.01,8.06 1.99,6.31 -0.82,13.3 -9.87,14.56 -14.62,2.03 -85.06,1.51 -103,0.95 -17.01,-0.53 -34.77,0.59 -51.63,-0.28 -7.19,-0.37 -15.99,-2.19 -18.12,-7.87 -1.62,-4.29 0.16,-13.24 9.31,-15.03zm-315.37 -102.8c10.42,-0.73 22.22,-0.26 32.84,-0.26l428.34 -0.33c9.86,0 22.78,-1.24 26.75,6.47 2,3.88 1.62,10.19 -0.97,13.07 -2.84,3.17 -6.76,4.01 -12.3,4.38 -10.4,0.7 -22.82,0.11 -33.45,0.11l-428.34 0c-10.27,0 -22.12,0.86 -26.56,-6.7 -2.33,-3.97 -2.28,-9.81 0.87,-12.81 3.09,-2.94 7.61,-3.57 12.82,-3.93zm42.09 -133.35c1.29,-1.3 2.2,-2.63 3.48,-4.03 5.68,-6.18 32.01,-35.3 37.74,-40.63l44.63 -48.21c1.22,-1.3 2,-2.52 3.28,-3.73 3.67,-3.47 11.63,-8.27 17.65,-10.82 14.83,-6.29 36.56,1.77 44.71,9.3 8.55,7.9 15.71,17.63 23.78,26.13l17.63 18.34c5.25,4.69 8.92,9.81 13.71,14.75 1.4,1.44 2.46,2.19 3.79,3.67l6.84 7.15c1.17,1.06 2.25,2.4 3.36,3.63l10.77 10.71c6.65,5.83 9.97,12.82 21.74,14.19 8.67,1.01 16.2,-3.79 20.32,-7.61 2.68,-2.49 3.91,-4.72 6.88,-7.58l13.52 -14.96c1.19,-1.41 2.26,-2.15 3.47,-3.49l24.33 -26.1c6.69,-7.24 14.05,-14.35 20.65,-21.8 1.23,-1.39 2.45,-2.38 3.7,-3.77 1.31,-1.47 1.71,-2.33 3.22,-3.78l27.43 -29.97c1.16,-1.36 2.01,-2.5 3.22,-3.8 1.3,-1.4 2.22,-2.01 3.47,-3.5 4.24,-5.08 9.45,-9.82 13.67,-14.79 1.44,-1.7 1.78,-2.07 3.66,-3.82 1.51,-1.41 9.11,-10.17 9.43,-11.38 -9.45,-1.02 -20.65,1.56 -24.61,-5.97 -4.62,-8.78 1.63,-17.04 9.27,-18.55 10.67,-2.11 48.94,-3 53.71,5.01 4.92,8.26 4.71,44.37 2,54.71 -2.29,8.75 -7.02,15.32 -16.79,9.51 -9.33,-5.55 -2.8,-17.99 -6.58,-23.75 -3.46,1.42 -12.5,10.55 -15.13,13.7l-90.94 97.27c-1.75,1.61 -2.19,2.24 -3.58,3.91 -1.32,1.6 -1.87,1.98 -3.44,3.53 -1.33,1.3 -2.18,2.64 -3.47,4.05 -4.6,5.01 -9.56,9.8 -13.79,15.15 -1.23,1.55 -2.15,2.1 -3.51,3.47l-7.45 7.05c-12.25,9.12 -25.16,14.81 -43.66,8.75 -6.91,-2.26 -14.04,-6.72 -18.52,-10.44l-35.76 -36.63c-2.23,-2.43 -4.63,-4.65 -6.8,-7.18l-10.58 -11.37c-1.27,-1.41 -1.83,-2.48 -3.2,-3.8 -2.57,-2.48 -4.39,-5.32 -6.78,-7.71 -3.78,-3.77 -18.21,-18.81 -21.76,-21.66 -4.59,-3.67 -10.79,-9.59 -19.97,-8.58 -12.84,1.41 -25.85,18.49 -31.72,26.17 -5.5,7.2 -11.37,12.92 -16.73,19.71 -1.22,1.54 -2.14,2.11 -3.43,3.54l-31.39 34.04c-3.49,3.64 -6.7,7.62 -10.53,10.92 -2.63,2.27 -4.46,4.99 -6.95,7.54l-7.09 7.38c-2.26,2.52 -4.87,4.79 -7.04,7.44l-33.79 38.6c-2.57,2.28 -4.67,5.05 -7.54,6.94 -8.58,5.63 -19.04,-3.34 -19.37,-4.74 0.05,-9.37 3.89,-15.8 8.42,-20.69l14.01 -14.46c2.5,-2.77 4.63,-4.63 6.98,-7.49l20.38 -22.06c2.87,-2.82 4.23,-4.54 7.05,-7.41zm-69.91 -277.44c-13.44,0.78 -29.76,-0.85 -35.26,17.45 -5.84,19.45 -2.43,77.19 -2.44,100.45 0,17.48 -0.07,34.96 -0.29,52.42 -0.87,70.06 -0.12,140.58 -0.12,210.68 0,140.29 0,280.57 0,420.86 0,69.91 0.47,139.77 0.47,209.68 0,12.47 -1.2,39.03 3.2,49.16 6.35,14.66 24.43,12.82 39.68,13.25 17.17,0.47 35.15,-0.03 52.42,-0.04 17.64,0 35.28,0 52.92,0l368.44 0c8.69,0 17.42,-0.01 26.06,0.24 14.24,0.41 34.94,2.43 47.95,-3.08 6.39,-2.71 10.18,-6.84 12.13,-14.32 6,-23.12 2.5,-74.71 2.28,-100.63 -0.14,-17.64 -0.07,-35.28 -0.01,-52.92 0.22,-70.21 0.03,-140.46 0.03,-210.67 0,-140.29 0,-280.58 0,-420.86 0,-34.78 0.48,-69.56 0.57,-104.34 0.09,-35 0.67,-70.38 -0.18,-105.35 -0.31,-12.91 1.06,-38.61 -3.72,-48.67 -6.28,-13.23 -25.49,-13.64 -39.18,-13.54 -139.77,1.11 -280.91,0.42 -420.86,0.42 -17.31,0 -34.67,0.05 -51.92,-0.37 -16.51,-0.41 -35.85,-0.77 -52.17,0.18z"/>
  <path fill="#DBCFFF" d="M1674.87 769.75c-2.92,-1.86 -2.22,-2.04 -4.38,-4 -9.06,-8.24 -6.58,-7.03 -12.47,-13.01 -1.71,-1.74 -2.51,-3.19 -3.96,-4.53 -5.6,-5.15 -8.39,-8.78 -17.8,-7.16 -11.81,2.04 -18.92,2.23 -30.37,-1.09 -5.3,-1.53 -6.83,-4.29 -5.75,-10.65 0.89,-5.26 2.93,-9.05 7.16,-10.25 7.5,-2.14 24.13,-1.17 32.54,-0.79 17.5,0.77 16.37,-1.17 25.71,8.98l9.93 11.04c0.78,0.92 1.39,1.33 2.22,2.26l12.24 13.71c4.24,4.93 3.85,5.02 12.24,4.18 11.02,-1.11 19.39,1.3 26.3,6.71 15.27,11.97 21.59,29.73 13.06,48.7 -3.55,7.89 -9.81,14.02 -16.6,17.85 -30.77,17.32 -70.08,-16.25 -54.8,-48.81 1.72,-3.66 5.04,-8.34 4.73,-13.14zm-340.09 -36.7c-2.51,8.6 -15.38,9.17 -25.04,8.15 -20.34,-2.14 -19.95,1.34 -33.15,16.58l-8.4 8.57c-0.73,0.83 -1.1,1.38 -1.84,2.17 -0.83,0.89 -1.52,1.3 -2.32,2.17 -1.85,2.03 -1.11,3.05 0.18,5.92 1.86,4.11 4.17,6.82 5.54,11.48 4.45,15.21 -4.7,36.7 -22.3,44.37 -17.85,7.78 -37.14,2.18 -48.63,-12.42 -17.42,-22.14 -3.64,-56.12 25.53,-61.59 5.47,-1.03 9.94,-1.09 15.5,-0.44 6.2,0.73 5.69,2.52 10.62,-4.39 5.81,-8.15 16.28,-20.17 23.65,-27.28 2.85,-2.75 5.38,-5.36 10.05,-6.9 4.63,-1.52 26.29,-1.42 32.6,-1.32 9.88,0.16 21.44,3.12 18.01,14.93zm-85.41 -58.53l-22.47 -0.63c-4.08,13.55 -11.14,25.03 -25.01,29.66 -36.77,12.29 -60.53,-22.46 -47.83,-51.32 9.81,-22.29 38.7,-26.38 55.9,-15.57 6.15,3.87 8.46,7.4 12.31,13.58 20.36,2.14 46.86,-7.8 45.88,13.42l-0.26 6.08c-5.35,3.42 -10.65,4.79 -18.52,4.78zm392.05 -9.37c-3.01,-9.17 5.52,-13.88 12.93,-14.91 9.08,-1.26 17.84,-0.17 26.87,0.18 9.42,0.38 17.44,1.06 26.94,0.23 5.84,-0.51 7.27,-0.16 9.93,-4.04 10.19,-14.88 33.1,-21.2 50.05,-11.97 27.07,14.75 29.02,56.17 -2.84,68.67 -15.2,5.96 -30.69,2.01 -41.67,-9.19 -10.12,-10.32 -7.65,-19.99 -14.92,-20.19 -2.22,-0.06 -4.79,0.13 -7.03,0.23 -4.7,0.21 -9.3,0.58 -14,0.69 -13.51,0.32 -42.29,2.38 -46.26,-9.7zm-204.64 -26.1c-11.52,0.56 -64.28,-0.46 -69.69,1.1 -12.23,3.53 -12.64,37.9 -22.34,48.52 -12.07,13.21 -50.28,7.7 -50.73,-5.09 -0.44,-12.66 11.08,-43.59 15.21,-55.43 11.47,-32.93 24.38,-73.05 34.71,-106.56 5.54,-17.96 11.93,-35.68 17.32,-53.58 2.67,-8.85 5.64,-18.11 8.59,-26.82 3.32,-9.8 5.12,-18.13 13.11,-22.37 7.45,-3.96 21.38,-4.08 31.16,-3.98 13.41,0.14 20,1.66 25.11,10.54 3.87,6.73 7.27,17.84 9.74,25.7 14.15,45 28.08,89.32 43.15,134.07 2.69,7.97 27.61,85.65 29.03,94.17 1.15,6.92 -0.95,9.63 -5.41,12.07 -7.55,4.12 -20.45,5.4 -30.08,4.13 -11.61,-1.53 -15.9,-6.19 -19.29,-16.23 -2.96,-8.78 -4.84,-18.55 -7.92,-27.5 -4.11,-11.92 -7.69,-13.41 -21.67,-12.74zm-254.64 -211.15c12.96,-1.96 31.54,4.45 38.51,17.35 8.07,14.93 2.67,14.64 12.71,15.7 18.55,1.97 42.21,-2.2 54.62,-0.1 10.34,1.75 12.56,8.69 9.31,16.57 -2.97,7.21 -12.9,7.03 -21.46,7.03l-42.44 -0.15c-5.2,-0.09 -9.04,-1.11 -12,2.11 -5.42,5.92 -5.79,8.82 -14.88,13.57 -33.53,17.54 -63.37,-17.1 -54.74,-45.73 3.75,-12.45 15.95,-24.17 30.37,-26.35zm563.53 0.47c15.5,-2.94 29.82,4.82 38.05,17.45 13.77,21.14 -1.21,49.91 -17.7,55.53 -6.47,2.21 -18.34,3.04 -25.48,1.56 -17.44,-3.62 -9.67,-17.66 -36.86,-18.83 -11.45,-0.49 -47.21,1.83 -54.89,-0.72 -6.86,-2.27 -10.27,-10.1 -6.25,-18.13 1.63,-3.24 4.35,-4.52 9.22,-4.67l41.93 0.14c10.88,0 17.15,1.51 21.46,-6.74 4.27,-8.19 4.96,-12.28 10.9,-17.06 5.39,-4.33 11.24,-6.94 19.62,-8.53zm-196.17 259.3c-0.55,-12.58 -0.06,-26.29 -0.06,-38.99l0 -195.7c0,-9.76 -1.68,-9.21 6.59,-12.86 4.71,-2.08 10.22,-3.19 15.83,-3.49 9.38,-0.49 25.76,-0.02 29.71,9.62 2.12,5.19 0.86,29.62 0.86,37.18l0.39 116.82c0.11,12.97 -0.08,25.99 0.11,38.94 0.17,11.77 0.95,28.13 -0.04,39.46 -1.21,13.82 -8.25,16.42 -22.01,17.07 -12.03,0.56 -24.54,-1.83 -31.38,-8.05zm127.02 -325.62c-2.06,-5.89 -9.96,-9.89 -9.93,-24.89 0.06,-32.76 33.8,-49.22 59.37,-34.26 24.95,14.6 25.07,52.76 1.95,68.47 -8.49,5.76 -15.47,7.42 -27.48,6.02 -8.76,-1.02 -7.49,-1.42 -12.31,3.62 -8.9,9.32 -16.01,17.93 -24.18,28.25 -3.02,3.82 -4.63,5.19 -10.43,7.01 -10.96,3.44 -38.06,4.13 -47.7,0.77 -4.12,-1.43 -6.26,-6.24 -4.99,-11.5 4.59,-19.01 27.86,-8.24 38.94,-10.47 8.65,-1.74 16.44,-10.19 20.27,-14.7l16.49 -18.32zm-451.92 -63.93c20.7,-3.13 37.18,10.21 42.75,24.06 9.7,24.12 -7.25,29.92 -0.53,41.47 2.95,5.07 7.7,9.79 11.82,13.63l11.94 13.51c3.86,3.92 5.65,4.26 12.7,4.32 5.67,0.04 11.34,-0.22 16.98,-0.14 10.29,0.15 9.87,-1.08 12.86,4.21 2.12,3.77 4.08,8.88 1.58,13.31 -4.36,7.74 -16.62,6.58 -27.45,6.09 -5.3,-0.24 -11.25,0.01 -16.45,-0.55 -2.41,-0.26 -4.82,-0.64 -6.89,-1.59 -5.15,-2.36 -16.34,-17.3 -20.18,-22.25 -2.53,-3.26 -4.88,-6.56 -7.16,-9.81 -8,-11.44 -10.11,-6.79 -25.17,-6.73 -19.53,0.08 -33.33,-11.75 -38.51,-29.43 -4.11,-14.05 -0.54,-29.26 9.33,-38.74 6.79,-6.53 12.18,-9.82 22.38,-11.36zm-113.98 280.25c-1.05,6.23 -0.46,21.35 -0.4,28.37 0.45,47.15 1.1,95.23 0.09,142.31 -1.1,51.36 -5.08,103.13 24.29,145.7 14.01,20.31 35.1,39.25 65.34,48.99 15.02,4.84 34.68,5.28 51.43,5.28l398.89 0.25c36.73,0 69.36,3.44 102.31,-11.56 8.72,-3.97 24.66,-14.55 31.76,-21.18 11.71,-10.94 19.47,-18.48 28.05,-33.33 16.24,-28.09 15.44,-63.44 14.85,-99.24 -0.94,-55.74 0.88,-113.67 0.24,-170.23 -0.11,-9.39 -0.13,-18.55 -0.73,-27.94 -0.48,-7.67 0.44,-6.65 -7.24,-6.95 -4.67,-0.18 -9.24,-0.39 -13.98,-0.42 -37.97,-0.26 -75.86,-0.55 -113.83,-0.56 -14.29,0 -29.46,3.4 -32.69,-8.79 -1.44,-5.4 1.7,-7.73 4.44,-9.56 6.55,-4.37 16.58,-3.12 25.26,-3.13 35.42,-0.04 77.96,2.55 112.34,0.89 4.69,-0.23 9.19,-0.51 13.97,-0.63 4.91,-0.13 9.02,0.22 10.64,-3.66 2.66,-6.4 0.79,-45.05 0.79,-55.07l0.3 -171.24c0,-40.3 -3.12,-64.03 -22.7,-91.87 -3.4,-4.83 -8.34,-12.54 -12.2,-16.25l-15.7 -12.76c-41.15,-30.87 -94.15,-24.85 -145.35,-24.06 -38,0.59 -76.3,0.15 -114.33,0.15 -38.11,0 -76.21,-0.15 -114.32,-0.15 -37.89,0 -76.03,0.46 -113.85,-0.57 -30.79,-0.83 -75.78,-0.02 -101.73,11.31 -39.32,17.16 -68.59,53.47 -73.91,97.27 -5.1,41.95 -2.44,69.33 -2.08,110.32 0.16,19.12 0,38.29 0,57.41l0.03 85.37c-0.07,15.61 -1.52,13.98 14.96,14 37.66,0.03 75.76,-0.4 113.33,-0.93 9.77,-0.13 32.16,-2.42 36.72,5.63 2.04,3.59 2.7,7.94 0.45,11.47 -4.16,6.54 -14.18,5.35 -23.19,5.17 -25.68,-0.5 -60.85,-1.07 -85.37,-0.44 -18.6,0.48 -38.52,-0.56 -56.88,0.63z"/>
  <path fill="#5E70F8" d="M2957.04 179.4c0.02,38.06 -0.66,73.26 -0.98,110.83l0 686.95c-0.02,13.77 -0.8,27.98 -11.34,33.39 -9.02,4.63 -26.52,5.33 -37.88,5.34 -5.63,0 -37.82,-1.24 -39.2,-2.4 -0.83,-0.96 -0.37,0.6 -0.61,-1.87 -0.03,-0.24 0,-1.65 0.01,-1.99 0.02,-1.51 0.02,-3.01 0.02,-4.52l-0.15 -630.03c-0.03,-78.31 -0.47,-158.98 -0.05,-237.14l-0.43 -24.96c-0.04,-7.31 1.89,-6.65 8.95,-6.65l47.43 0c8.01,0 16.35,1.07 22.65,4.47 6.24,3.37 8.52,7.56 9.8,16.66 1.45,10.34 1.77,40.37 1.78,51.92zm-679.49 -154.85c16.32,-0.95 35.66,-0.59 52.17,-0.18 17.25,0.42 34.61,0.37 51.92,0.37 139.95,0 281.09,0.69 420.86,-0.42 13.69,-0.1 32.9,0.31 39.18,13.54 4.78,10.06 3.41,35.76 3.72,48.67 0.85,34.97 0.27,70.35 0.18,105.35 -0.09,34.78 -0.57,69.56 -0.57,104.34 0,140.28 0,280.57 0,420.86 0,70.21 0.19,140.46 -0.03,210.67 -0.06,17.64 -0.13,35.28 0.01,52.92 0.22,25.92 3.72,77.51 -2.28,100.63 -1.95,7.48 -5.74,11.61 -12.13,14.32 -13.01,5.51 -33.71,3.49 -47.95,3.08 -8.64,-0.25 -17.37,-0.24 -26.06,-0.24l-368.44 0c-17.64,0 -35.28,0 -52.92,0 -17.27,0.01 -35.25,0.51 -52.42,0.04 -15.25,-0.43 -33.33,1.41 -39.68,-13.25 -4.4,-10.13 -3.2,-36.69 -3.2,-49.16 0,-69.91 -0.47,-139.77 -0.47,-209.68 0,-140.29 0,-280.57 0,-420.86 0,-70.1 -0.75,-140.62 0.12,-210.68 0.22,-17.46 0.29,-34.94 0.29,-52.42 0.01,-23.26 -3.4,-81 2.44,-100.45 5.5,-18.3 21.82,-16.67 35.26,-17.45zm701.8 136.87c1.59,-38.58 -3.29,-71.9 -40.08,-77.43 -8.25,-1.24 -19.85,-0.35 -28.44,-0.08 -9.64,0.31 -19.28,0.78 -28.97,0.42 -12.93,-0.49 -15,-0.97 -15.02,-7.26 -0.01,-9.54 0.23,-27.93 -0.79,-35.57 -1.03,-7.66 -4.29,-16.69 -7.98,-21.52 -17.06,-22.32 -38.7,-19.31 -69.05,-19.31l-471.78 -0.25c-37,-0.02 -78.1,-5.52 -93.14,23.93 -7.3,14.29 -6.32,35.83 -6.31,53.2 0.07,137.33 -0.45,275.22 0.06,412.37 0.6,157.09 -0.55,314.22 -0.38,471.28 0.04,38.54 -0.93,79.04 1.01,117.32 0.47,9.31 2.26,15.99 6.82,22.54 15.25,21.96 41.79,20.75 67.47,20.75l471.28 -0.27c22.28,0 62.36,3.08 81.23,-7.23 6.66,-3.64 10.67,-8.63 14.71,-14.75 10.65,-16.12 6.41,-35.96 6.93,-58.5 0.08,-3.77 -0.62,-4.23 2.92,-4.31 14.63,-0.3 29.55,0.35 43.99,0.07 40.81,-0.76 64.21,-9.16 65.18,-53.15 0.43,-19.47 0.06,-38.96 -0.17,-58.41 -0.22,-19.59 -0.01,-39.31 -0.01,-58.91 0,-78.55 0,-157.1 0,-235.64 0,-117.67 -1,-235.33 -1.02,-352.96 0,-38.88 -0.05,-77.55 1.54,-116.33z"/>
  <path fill="#FEFEFE" d="M2866.43 113l0.43 24.96c-0.42,78.16 0.02,158.83 0.05,237.14l0.15 630.03c0,1.51 0,3.01 -0.02,4.52 -0.01,0.34 -0.04,1.75 -0.01,1.99 0.24,2.47 -0.22,0.91 0.61,1.87 1.38,1.16 33.57,2.4 39.2,2.4 11.36,-0.01 28.86,-0.71 37.88,-5.34 10.54,-5.41 11.32,-19.62 11.34,-33.39l0 -686.95c0.32,-37.57 1,-72.77 0.98,-110.83 -0.01,-11.55 -0.33,-41.58 -1.78,-51.92 -1.28,-9.1 -3.56,-13.29 -9.8,-16.66 -6.3,-3.4 -14.64,-4.47 -22.65,-4.47l-47.43 0c-7.06,0 -8.99,-0.66 -8.95,6.65z"/>
  <path fill="#7063F2" stroke="#7063F2" stroke-width="0.9" stroke-miterlimit="2.61313" d="M1110.62 578.37c18.36,-1.19 38.28,-0.15 56.88,-0.63 24.52,-0.63 59.69,-0.06 85.37,0.44 9.01,0.18 19.03,1.37 23.19,-5.17 2.25,-3.53 1.59,-7.88 -0.45,-11.47 -4.56,-8.05 -26.95,-5.76 -36.72,-5.63 -37.57,0.53 -75.67,0.96 -113.33,0.93 -16.48,-0.02 -15.03,1.61 -14.96,-14l-0.03 -85.37c0,-19.12 0.16,-38.29 0,-57.41 -0.36,-40.99 -3.02,-68.37 2.08,-110.32 5.32,-43.8 34.59,-80.11 73.91,-97.27 25.95,-11.33 70.94,-12.14 101.73,-11.31 37.82,1.03 75.96,0.57 113.85,0.57 38.11,0 76.21,0.15 114.32,0.15 38.03,0 76.33,0.44 114.33,-0.15 51.2,-0.79 104.2,-6.81 145.35,24.06l15.7 12.76c3.86,3.71 8.8,11.42 12.2,16.25 19.58,27.84 22.7,51.57 22.7,91.87l-0.3 171.24c0,10.02 1.87,48.67 -0.79,55.07 -1.62,3.88 -5.73,3.53 -10.64,3.66 -4.78,0.12 -9.28,0.4 -13.97,0.63 -34.38,1.66 -76.92,-0.93 -112.34,-0.89 -8.68,0.01 -18.71,-1.24 -25.26,3.13 -2.74,1.83 -5.88,4.16 -4.44,9.56 3.23,12.19 18.4,8.79 32.69,8.79 37.97,0.01 75.86,0.3 113.83,0.56 4.74,0.03 9.31,0.24 13.98,0.42 7.68,0.3 6.76,-0.72 7.24,6.95 0.6,9.39 0.62,18.55 0.73,27.94 0.64,56.56 -1.18,114.49 -0.24,170.23 0.59,35.8 1.39,71.15 -14.85,99.24 -8.58,14.85 -16.34,22.39 -28.05,33.33 -7.1,6.63 -23.04,17.21 -31.76,21.18 -32.95,15 -65.58,11.56 -102.31,11.56l-398.89 -0.25c-16.75,0 -36.41,-0.44 -51.43,-5.28 -30.24,-9.74 -51.33,-28.68 -65.34,-48.99 -29.37,-42.57 -25.39,-94.34 -24.29,-145.7 1.01,-47.08 0.36,-95.16 -0.09,-142.31 -0.06,-7.02 -0.65,-22.14 0.4,-28.37zm738.08 -187.3c0.87,-32.19 0.36,-63.5 -2.1,-95.46 -2.24,-29.14 -11.49,-54.08 -24.78,-73.6 -3.51,-5.16 -7.48,-9.34 -11.11,-13.86 -1.48,-1.85 -4.3,-4.77 -6.09,-6.38 -1.19,-1.07 -2.2,-1.62 -3.33,-2.68 -1.34,-1.25 -1.71,-1.79 -3.09,-2.89 -36.41,-28.85 -60.4,-34.49 -110.5,-36.69 -32.32,-1.42 -64.55,-0.99 -96.86,0.4 -32.06,1.38 -65.16,-0.12 -97.34,-0.12 -32.79,0 -65.57,0 -98.35,0 -32.3,0 -65.93,0.88 -98.01,-0.09 -55.98,-1.68 -97.38,-3.81 -143.79,27.02 -2.66,1.76 -4.76,3.45 -7.15,5.33 -7.18,5.66 -19.47,17.1 -25.05,24.37 -1.73,2.26 -3.52,4.25 -5.25,6.74 -26.1,37.51 -26.64,73.6 -26.64,120.49l0 295.05c0,32.64 0.55,65.76 -0.02,98.34 -0.55,31.69 -0.8,65.61 1.24,97.08 0.92,14.31 4.29,28.23 8.62,40.72 6.78,19.56 14.27,28.68 25.07,42.82l21.38 21.56c29.21,24.69 63.49,31.05 103.82,31.05 65.57,0 131.13,0 196.7,0 65.42,0 131.34,-0.8 196.7,0.05 28.06,0.37 66.89,1.9 93.17,-4.33 35.85,-8.49 67.33,-30.25 87.42,-60.34 26.23,-39.27 24.61,-75.57 24.61,-122.68 0,-65.56 -0.02,-131.13 0,-196.69 0.02,-65.28 -1.05,-129.85 0.73,-195.21z"/>
  <path fill="#5E70F8" d="M2455.87 963.52c3.81,-1.51 99.17,-1.15 115.98,-0.87l33.96 0.49c1.84,0.07 3.24,-0.14 4.27,0.8 0.73,0.96 1.73,46.88 0.94,50.9 -12.29,0.84 -26.68,0.44 -39.17,0.49 -12.97,0.06 -25.91,0.58 -38.94,0.58 -13.18,-0.01 -26.29,-0.17 -39.46,-0.29 -9.45,-0.09 -29.24,0.12 -37.78,-1.62l0.2 -50.48zm-0.03 -72.19l154.46 0.47c1.38,4.92 0.52,29.75 0.56,38.45 0.03,4.41 0.91,8.52 -4.03,9.15 -14.82,1.9 -34.56,1.21 -49.96,1.21 -22.47,0 -79.55,-0.07 -99.33,-3.39l-1.7 -45.89zm177.32 47.02c-1.05,-2.76 -0.32,-23.19 -0.32,-28.07 0,-21.78 -2.82,-18.48 9.9,-18.47 38.17,0.02 103.7,2.79 139.33,-0.92 4.54,-0.48 8.25,-0.69 10.65,-3.87 2.16,-2.87 2.03,-7.77 0.78,-11.17 -2.85,-7.72 -10.65,-8.7 -19.96,-8.5l-453.81 0.3c-8.17,-0.01 -19.34,-1.16 -24.75,3.9 -5.6,5.24 -7.53,14.26 0.96,18.09 7.02,3.17 17.62,3.19 25.81,2.66 17.96,-1.16 37.76,-1.2 55.9,-0.85 11.51,0.22 46.41,-0.11 55.18,1.1 2.18,7.78 1.95,35.67 -0.63,45.36 -11.57,2.61 -97.6,1.29 -115.46,0.98 -11.41,-0.19 -26.41,-0.47 -25.76,12.79 0.64,13.1 15.43,12 27.26,11.59 12.74,-0.44 25.67,-0.26 38.44,-0.33 12.95,-0.08 25.99,-0.44 38.94,-0.29 6.26,0.07 12.65,0.62 18.97,0.72 6.4,0.1 12.79,-0.32 19.1,-0.27 0.3,13.83 2.58,39.33 -1.41,51.2 -11.17,2.63 -39.79,1.75 -52.64,1.31 -9.59,-0.32 -70.9,-1.79 -78.82,-0.44 -6.56,1.11 -13.82,7.31 -9.17,15.05 5.85,9.76 34.19,6.26 46.55,6.05 35.57,-0.61 71.71,-0.01 107.34,-0.01l322.01 0c8.02,-0.01 18.3,1.37 24.09,-3.03 6.01,-4.56 4.17,-15 -3.07,-17.2 -20.17,-6.12 -146.22,1.88 -155.45,-1.99l-0.7 -50.67c29.03,0.2 58.08,0.82 87.1,-0.22 14.13,-0.51 29.39,-0.52 43.54,-0.2 12,0.27 31.28,3.22 31.55,-11.22 0.28,-15.51 -17.94,-12.78 -31.06,-12.78 -14.47,0 -28.95,0.01 -43.43,0 -14.63,0 -29.29,-0.15 -43.93,-0.16 -5.77,0 -40.74,0.36 -43.03,-0.44z"/>
  <path fill="#5E70F8" d="M1406.13 491.33c4.18,2.18 8.07,19.13 9.13,22.91 2.3,8.22 5.21,16.66 7.74,24.68 2.2,6.98 15.33,45.44 14.97,49.69l-62.63 -0.29c-0.1,-7.12 12.35,-39.6 15.1,-48.7 2.61,-8.65 11.82,-44.25 15.69,-48.29zm30.65 147.72c13.98,-0.67 17.56,0.82 21.67,12.74 3.08,8.95 4.96,18.72 7.92,27.5 3.39,10.04 7.68,14.7 19.29,16.23 9.63,1.27 22.53,-0.01 30.08,-4.13 4.46,-2.44 6.56,-5.15 5.41,-12.07 -1.42,-8.52 -26.34,-86.2 -29.03,-94.17 -15.07,-44.75 -29,-89.07 -43.15,-134.07 -2.47,-7.86 -5.87,-18.97 -9.74,-25.7 -5.11,-8.88 -11.7,-10.4 -25.11,-10.54 -9.78,-0.1 -23.71,0.02 -31.16,3.98 -7.99,4.24 -9.79,12.57 -13.11,22.37 -2.95,8.71 -5.92,17.97 -8.59,26.82 -5.39,17.9 -11.78,35.62 -17.32,53.58 -10.33,33.51 -23.24,73.63 -34.71,106.56 -4.13,11.84 -15.65,42.77 -15.21,55.43 0.45,12.79 38.66,18.3 50.73,5.09 9.7,-10.62 10.11,-44.99 22.34,-48.52 5.41,-1.56 58.17,-0.54 69.69,-1.1z"/>
  <path fill="#FEFEFE" d="M2520.38 737.11c-13.62,-6.55 -32.09,-20.21 -44.9,-29.01 -7.25,-4.99 -14.39,-9.87 -22.04,-14.9 -3.8,-2.49 -7.49,-4.82 -11.1,-7.37 -13.79,-9.73 -21.45,-14.5 -23.02,-32.93 -1.02,-12.07 -0.48,-24.99 -0.48,-37.17 0,-4.99 1.89,-68.02 -0.63,-72.61 -8.98,-2.47 -23.87,2.43 -31,5.78 -23.18,10.89 -45.36,32.78 -56.69,55.65 -21.18,42.73 -18.37,93.8 8.8,132.38 5.57,7.9 15.09,18.5 22.55,24.39 35.38,27.96 79.72,35.89 120.12,12.68 9.92,-5.7 37.14,-27.43 38.39,-36.89z"/>
  <path fill="#5E70F8" d="M2520.38 737.11c-1.25,9.46 -28.47,31.19 -38.39,36.89 -40.4,23.21 -84.74,15.28 -120.12,-12.68 -7.46,-5.89 -16.98,-16.49 -22.55,-24.39 -27.17,-38.58 -29.98,-89.65 -8.8,-132.38 11.33,-22.87 33.51,-44.76 56.69,-55.65 7.13,-3.35 22.02,-8.25 31,-5.78 2.52,4.59 0.63,67.62 0.63,72.61 0,12.18 -0.54,25.1 0.48,37.17 1.57,18.43 9.23,23.2 23.02,32.93 3.61,2.55 7.3,4.88 11.1,7.37 7.65,5.03 14.79,9.91 22.04,14.9 12.81,8.8 31.28,22.46 44.9,29.01zm-81.06 -174.3c0,-7 0.43,-13.03 1.16,-19.72 15.85,-0.42 32.18,6.04 43.75,12.49 14.75,8.22 26.7,20.03 36.52,33.37 27.81,37.79 32.66,86.09 11.55,128.52 -4.31,-0.76 -42.71,-26.96 -49.43,-31.23 -8.07,-5.15 -16.42,-10.8 -24.19,-16.25 -4.04,-2.84 -7.53,-5.34 -11.74,-8.23 -4.49,-3.07 -7.16,-5.57 -7.16,-13.08l0.13 -20.97c0.15,-22.12 -0.58,-43.08 -0.59,-64.9zm128.55 112.33c3.75,-42.73 -13.74,-82.57 -33.43,-106.87 -18.46,-22.8 -49.6,-44.52 -92.06,-49.15 -21.51,-2.35 -42.82,1.74 -60.8,8.69 -26.34,10.17 -42.35,24.65 -59.35,46.49 -15.9,20.43 -25.72,50.52 -27.82,77.48 -3.22,41.27 13.63,84.32 33.11,107.94l8.41 9.54c2.7,3.1 5.68,5.77 8.99,8.51 37.01,30.72 90.53,40.28 136.19,21.79 31.25,-12.66 56.27,-39.88 71.54,-69.24 8.27,-15.93 13.43,-34.87 15.22,-55.18z"/>
  <path fill="#201D21" d="M1997.73 616.33c12.76,0 49.41,-4.07 50.44,9.89 1.01,13.52 -20.42,25.6 -24.74,35.68 -3.89,9.09 1.8,17.02 9.97,17.95 10.23,1.16 13.97,-7.38 18.51,-11.43 1.46,-1.3 2.5,-2.64 3.81,-4.19l14.37 -15.59c1.29,-1.43 2.45,-2.28 3.71,-3.76 6.13,-7.2 15.44,-16.15 21.81,-23.63l18.33 -19.6c3.13,-3.67 7.43,-7.4 11.22,-11.26 14.39,-14.66 17.17,-23.78 2.82,-38.51l-25.9 -27.52c-6.94,-7.82 -19,-20.37 -25.04,-27.9 -1.18,-1.48 -2.32,-2.72 -3.46,-4.01 -1.2,-1.35 -2.13,-3 -3.23,-4.26 -2.66,-3.08 -5.39,-3.81 -7.99,-6.97 -6.31,-7.67 -14.16,-18.78 -23.56,-21.89 -5.35,-1.76 -17.37,1.88 -14.99,14.12 1.3,6.69 8.68,14.52 12.14,18.18 1.08,1.14 2.43,2.82 3.68,4.31 1.15,1.37 2.29,2.84 3.3,4.2 4.21,5.62 5.5,10.76 4.49,18.24 -0.34,2.49 -2.4,1.81 -5.27,2.01 -14.73,0.99 -28.67,0.92 -43.43,0.47 -17.47,-0.52 -41.53,-1.53 -58.41,0.91 -9.89,1.44 -12.4,6.74 -13.64,16.83 -1.15,9.3 -0.81,19.31 -0.51,28.7 0.33,10.22 0.06,20.37 0.39,30.45 0.34,10.44 3.12,15.61 12.43,17.86 9.86,2.38 46,0.72 58.75,0.72z"/>
  <path fill="#201D21" d="M807.56 602.75c1.56,9.42 6.51,12.36 16.06,13.86 17.45,2.73 72.93,-1.56 87.96,0.39 8.28,1.07 15.47,6.66 11.11,16.01 -4.88,10.46 -24.07,24.57 -24.74,34.67 -0.48,7.1 9.18,14.61 17.26,12.28 5.76,-1.67 13.01,-9.9 16.06,-13.89l49.72 -54.64c6.13,-5.88 15.64,-16.73 21.46,-23.46 2.09,-2.41 4.69,-5.62 6.61,-8.36 1.91,-2.75 4.2,-6.07 3.48,-10.58 -1.91,-12 -20.43,-31.46 -27.71,-39.73 -4.98,-5.66 -13.76,-13.83 -18.57,-18.86 -4.29,-4.48 -6.07,-7.07 -10.76,-11.2 -2.36,-2.08 -7.08,-7.96 -10.93,-11.54l-13.93 -15.53c-3.58,-4.08 -9.43,-11.26 -17.28,-12.68 -8.66,-1.56 -16.38,6.28 -14.25,14.96 1.75,7.13 8.5,13.2 11.94,17.8 6.08,8.13 13.07,10.98 11.7,25.63 -0.25,2.7 0.18,1.72 -1.76,2.18l-17.61 1.13c-9.51,0.33 -19.38,0.53 -28.94,0.42 -12.18,-0.14 -49.24,-1.99 -57.96,1.71 -7.28,3.1 -8.53,10.88 -9.22,20.57 -0.57,8.04 -0.77,52.43 0.3,58.86z"/>
  <path fill="#5E70F8" d="M2757.54 146.09c-0.32,1.21 -7.92,9.97 -9.43,11.38 -1.88,1.75 -2.22,2.12 -3.66,3.82 -4.22,4.97 -9.43,9.71 -13.67,14.79 -1.25,1.49 -2.17,2.1 -3.47,3.5 -1.21,1.3 -2.06,2.44 -3.22,3.8l-27.43 29.97c-1.51,1.45 -1.91,2.31 -3.22,3.78 -1.25,1.39 -2.47,2.38 -3.7,3.77 -6.6,7.45 -13.96,14.56 -20.65,21.8l-24.33 26.1c-1.21,1.34 -2.28,2.08 -3.47,3.49l-13.52 14.96c-2.97,2.86 -4.2,5.09 -6.88,7.58 -4.12,3.82 -11.65,8.62 -20.32,7.61 -11.77,-1.37 -15.09,-8.36 -21.74,-14.19l-10.77 -10.71c-1.11,-1.23 -2.19,-2.57 -3.36,-3.63l-6.84 -7.15c-1.33,-1.48 -2.39,-2.23 -3.79,-3.67 -4.79,-4.94 -8.46,-10.06 -13.71,-14.75l-17.63 -18.34c-8.07,-8.5 -15.23,-18.23 -23.78,-26.13 -8.15,-7.53 -29.88,-15.59 -44.71,-9.3 -6.02,2.55 -13.98,7.35 -17.65,10.82 -1.28,1.21 -2.06,2.43 -3.28,3.73l-44.63 48.21c-5.73,5.33 -32.06,34.45 -37.74,40.63 -1.28,1.4 -2.19,2.73 -3.48,4.03 -2.82,2.87 -4.18,4.59 -7.05,7.41l-20.38 22.06c-2.35,2.86 -4.48,4.72 -6.98,7.49l-14.01 14.46c-4.53,4.89 -8.37,11.32 -8.42,20.69 0.33,1.4 10.79,10.37 19.37,4.74 2.87,-1.89 4.97,-4.66 7.54,-6.94l33.79 -38.6c2.17,-2.65 4.78,-4.92 7.04,-7.44l7.09 -7.38c2.49,-2.55 4.32,-5.27 6.95,-7.54 3.83,-3.3 7.04,-7.28 10.53,-10.92l31.39 -34.04c1.29,-1.43 2.21,-2 3.43,-3.54 5.36,-6.79 11.23,-12.51 16.73,-19.71 5.87,-7.68 18.88,-24.76 31.72,-26.17 9.18,-1.01 15.38,4.91 19.97,8.58 3.55,2.85 17.98,17.89 21.76,21.66 2.39,2.39 4.21,5.23 6.78,7.71 1.37,1.32 1.93,2.39 3.2,3.8l10.58 11.37c2.17,2.53 4.57,4.75 6.8,7.18l35.76 36.63c4.48,3.72 11.61,8.18 18.52,10.44 18.5,6.06 31.41,0.37 43.66,-8.75l7.45 -7.05c1.36,-1.37 2.28,-1.92 3.51,-3.47 4.23,-5.35 9.19,-10.14 13.79,-15.15 1.29,-1.41 2.14,-2.75 3.47,-4.05 1.57,-1.55 2.12,-1.93 3.44,-3.53 1.39,-1.67 1.83,-2.3 3.58,-3.91l90.94 -97.27c2.63,-3.15 11.67,-12.28 15.13,-13.7 3.78,5.76 -2.75,18.2 6.58,23.75 9.77,5.81 14.5,-0.76 16.79,-9.51 2.71,-10.34 2.92,-46.45 -2,-54.71 -4.77,-8.01 -43.04,-7.12 -53.71,-5.01 -7.64,1.51 -13.89,9.77 -9.27,18.55 3.96,7.53 15.16,4.95 24.61,5.97z"/>
  <path fill="#7063F2" d="M1549.5 687.67c6.84,6.22 19.35,8.61 31.38,8.05 13.76,-0.65 20.8,-3.25 22.01,-17.07 0.99,-11.33 0.21,-27.69 0.04,-39.46 -0.19,-12.95 0,-25.97 -0.11,-38.94l-0.39 -116.82c0,-7.56 1.26,-31.99 -0.86,-37.18 -3.95,-9.64 -20.33,-10.11 -29.71,-9.62 -5.61,0.3 -11.12,1.41 -15.83,3.49 -8.27,3.65 -6.59,3.1 -6.59,12.86l0 195.7c0,12.7 -0.49,26.41 0.06,38.99z"/>
  <path fill="#FEFEFE" d="M2439.32 562.81c0.01,21.82 0.74,42.78 0.59,64.9l-0.13 20.97c0,7.51 2.67,10.01 7.16,13.08 4.21,2.89 7.7,5.39 11.74,8.23 7.77,5.45 16.12,11.1 24.19,16.25 6.72,4.27 45.12,30.47 49.43,31.23 21.11,-42.43 16.26,-90.73 -11.55,-128.52 -9.82,-13.34 -21.77,-25.15 -36.52,-33.37 -11.57,-6.45 -27.9,-12.91 -43.75,-12.49 -0.73,6.69 -1.16,12.72 -1.16,19.72z"/>
  <path fill="#5E70F8" d="M2305.37 435.34c-5.21,0.36 -9.73,0.99 -12.82,3.93 -3.15,3 -3.2,8.84 -0.87,12.81 4.44,7.56 16.29,6.7 26.56,6.7l428.34 0c10.63,0 23.05,0.59 33.45,-0.11 5.54,-0.37 9.46,-1.21 12.3,-4.38 2.59,-2.88 2.97,-9.19 0.97,-13.07 -3.97,-7.71 -16.89,-6.47 -26.75,-6.47l-428.34 0.33c-10.62,0 -22.42,-0.47 -32.84,0.26z"/>
  <path fill="#8261F6" d="M352.19 457.22c-10.11,0.69 -19.34,3.96 -26.98,9.16 -2.09,1.43 -7.24,4.93 -8.49,6.5 -9.95,12.62 -19.08,28.28 -17.81,48.51 1.83,29.24 28.5,58.86 62.02,55.06 32.23,-3.66 55.82,-27.93 53.18,-64.08 -1.39,-19.07 -9.31,-31.17 -19.17,-39.67 -10.57,-9.11 -22.64,-16.84 -42.75,-15.48z"/>
  <path fill="#8261F6" d="M268.68 913.77c0.19,7.2 0.05,16.18 2.83,22.32 2.87,6.32 8.15,8.31 16.32,9.01l50.94 0.13c20.23,-1.28 23.73,-6.2 24.54,-26.48 0.63,-15.82 0.84,-34.09 0.37,-49.91 -0.6,-19.91 -0.21,-29.93 -19.87,-31.18l-50.48 -0.29c-21.25,0.51 -24.92,4.74 -25,25.98 -0.07,16.54 -0.08,33.92 0.35,50.42z"/>
  <path fill="#8261F6" d="M610.17 848.87c1.01,20.66 3.34,24.38 23.65,26.32 15.36,1.47 33.12,0.46 48.65,-0.06 19.19,-0.65 24.63,-5.73 24.87,-25.26 0.21,-16.5 0.21,-33.44 -0.25,-49.93 -0.55,-19.44 -3.18,-26.32 -23.34,-26.78 -16.4,-0.37 -33.28,-0.73 -49.62,0.02 -20.24,0.94 -24.07,5.56 -24.39,25.77 -0.25,16.53 -0.38,33.42 0.43,49.92z"/>
  <path fill="#8261F6" d="M402.98 769.21c-0.61,-13.55 -0.52,-28.02 -0.67,-41.65 -0.09,-7.84 -1.64,-35.7 1.06,-40.73 1.75,-3.27 3.81,-2.59 7.78,-2.57l53.42 -0.23c3.54,-0.01 6.97,0.21 10.49,0.22 4.69,0.01 6.45,-1.24 7.72,3.16 5.49,19.06 2.06,40.72 2.09,60.62 0.03,21.92 8.04,25.04 -40.62,22.59 -6.16,-0.31 -38.15,-0.27 -41.27,-1.41zm104.33 -28.17c0.31,-13.25 0.88,-52.67 -1.81,-63.87 -4.98,-20.74 -26.47,-16.19 -48.94,-17.16 -15.97,-0.68 -48.54,-2.9 -62.27,1.76 -18.52,6.28 -14.75,30.32 -14.81,50.81 -0.05,16.94 -2.83,49 1.3,63.85 5.59,20.08 26.99,17.1 48.31,17.66 15.96,0.42 49.44,2.19 63.43,-1.66 9.26,-2.55 12.41,-8.87 13.46,-19.48 1.02,-10.43 1.09,-21.39 1.33,-31.91z"/>
  <path fill="#8261F6" d="M505.22 450.48c-0.18,-6.97 -0.45,-14.2 0.11,-21.15 1.37,-16.83 7.5,-12.43 29.64,-12.43 15.87,0 24.36,-1.28 41.91,0.14 9.1,0.73 10.28,1.53 10.84,10.67 0.47,7.55 0.76,54.98 0.06,64.22 -0.81,10.66 1.35,11.02 -9.38,12.08 -12.94,1.28 -47.97,0.54 -63.42,-0.11 -6.75,-0.28 -8.76,-2.78 -9.55,-11.94 -0.62,-7.21 -0.2,-13.31 0.04,-20.5 0.23,-7 -0.06,-13.98 -0.25,-20.98zm10.46 -57.3c-23.76,1.93 -31.83,5.41 -32.21,33.34 -0.29,21.78 0.13,43.63 -0.2,65.4 -0.42,27.65 4.84,34.14 30.22,35.35 20.96,1 43.82,1.12 64.91,0.68 26.79,-0.57 30.19,-8.08 31.47,-34.01 0.52,-10.61 0.44,-21.35 0.27,-31.97 -0.17,-11 0.45,-21.95 0.41,-32.95 -0.08,-26.1 -3.78,-34.44 -30.14,-35.21 -14.92,-0.43 -51.86,-1.68 -64.73,-0.63z"/>
  <path fill="#8261F6" d="M658.13 189.85c5.65,-0.38 11.99,-0.67 17.43,0.73 5.87,1.5 7.46,4.74 7.79,11.27 0.64,12.41 -0.35,25.47 -0.17,37.96 0.26,17.67 3.1,25.16 -11.47,26.26 -12.72,0.96 -24.63,-0.31 -36.9,0.29 -17.9,0.88 -25.02,1.81 -25.98,-12.57 -0.82,-12.11 -0.18,-24.75 0.25,-36.95 0.71,-20.48 -3.19,-24.48 11.2,-26.56 12.36,-1.78 25.39,0.41 37.85,-0.43zm-36.96 -24.25c-22.2,1.24 -30.96,5.21 -32.93,27.61 -0.87,9.9 -1.87,49.89 -1.35,59.58 0.48,8.83 1.51,18.12 5.09,25.35 3.79,7.66 8.11,10.56 18.92,11.54 14.12,1.28 72.67,4 84.69,-4.07 6.59,-4.43 7.41,-12.72 7.81,-22.66 0.4,-9.97 0.08,-20.12 0.38,-30.14 0.29,-9.81 1.19,-19.7 1.19,-29.45 0.01,-41.52 -19.6,-36.09 -54.43,-37.13 -9.63,-0.29 -19.85,-1.16 -29.37,-0.63z"/>
  <path fill="#FEFEFE" d="M2455.67 1014c8.54,1.74 28.33,1.53 37.78,1.62 13.17,0.12 26.28,0.28 39.46,0.29 13.03,0 25.97,-0.52 38.94,-0.58 12.49,-0.05 26.88,0.35 39.17,-0.49 0.79,-4.02 -0.21,-49.94 -0.94,-50.9 -1.03,-0.94 -2.43,-0.73 -4.27,-0.8l-33.96 -0.49c-16.81,-0.28 -112.17,-0.64 -115.98,0.87l-0.2 50.48z"/>
  <path fill="#8261F6" d="M469.44 59.79c-16.76,1.75 -19.53,8.06 -20.25,24.76 -0.55,12.74 -1.04,35.1 0.48,47.35l1.38 7.11c3.75,10.8 12.87,10.59 24,10.58 14.56,-0.02 30.58,1.4 44.84,0.24 16.6,-1.34 19.47,-8.34 19.77,-24.95 0.25,-14.4 1.16,-31.2 0.13,-45.34 -1.22,-16.73 -9.57,-18.62 -25.77,-19.44 -12.73,-0.64 -32.33,-1.58 -44.58,-0.31z"/>
  <path fill="#8261F6" d="M172.67 658.17c1.62,27.23 23.2,48.79 52.76,45.76 26.02,-2.68 44.68,-26.28 43.05,-55.76 -1.62,-29.24 -25.26,-48.28 -53.02,-45.81 -14.51,1.29 -25.98,9.66 -31.89,17.43 -7.74,10.17 -11.88,21.93 -10.9,38.38z"/>
  <path fill="#8261F6" d="M101.26 474.45c0,-6.36 0.39,-21.13 8.83,-21 2.87,0.04 5.73,0.52 7.98,1.54 5.83,2.61 28.07,18.93 35.21,23.71 16.9,11.34 28.5,16.18 10.51,29.45 -7.02,5.18 -15.96,10.58 -23.86,15.59 -4.07,2.58 -7.83,5.23 -11.55,7.92 -3.68,2.67 -7.65,5.18 -12.7,6.74 -7.6,2.33 -9.13,1.68 -11.81,-4.8 -2.1,-5.06 -1.9,-11.93 -1.9,-17.72l-0.71 -41.43zm95.53 25.96c2.84,-12.6 -7.35,-26.21 -11,-28.25 -7.09,-3.96 -25.06,-17.64 -32.87,-23.05 -6.03,-4.17 -12.32,-8.4 -19.42,-12.03 -3.37,-1.72 -7.13,-3.59 -11.03,-4.94l-11.98 -3.89c-4.1,-0.57 -18.12,2.09 -23.23,7.87 -9.6,10.89 -8.56,37.71 -8.82,54.8 -0.17,10.77 0.03,21.2 0.39,31.96 0.34,10.12 0.7,18.69 5.41,26.36 3.7,6.01 10.03,11.51 18.19,13.71 19.53,5.28 51.51,-18.23 64.93,-28.26 6.8,-5.08 11.86,-8.99 17.44,-14.51 5.12,-5.07 9.74,-9.77 11.99,-19.77z"/>
  <path fill="#8261F6" d="M508.84 969.69c-0.28,-8.66 -0.63,-33.62 0.65,-41.97 0.4,-2.63 0.07,-1.79 6.6,-2.36 8.7,-0.76 55.56,-3.29 57.65,-0.35 2.07,2.89 2.45,55.22 2.32,58.67 -0.47,12.08 -7.74,10.72 -23.62,11.49 -10.76,0.53 -22.79,0.17 -33.35,-1.14 -13.11,-1.62 -9.81,-10.75 -10.25,-24.34zm89.1 -1.5c0.58,-15.67 1.03,-38.72 -3.55,-52.93 -2.98,-9.27 -5.4,-11.51 -15.53,-13.41 -9.71,-1.83 -15.55,-2.52 -25.92,-2.6 -64.6,-0.51 -64.89,0.57 -65.6,48.97 -0.23,15.33 -1.1,40.16 3.06,54.08 5.27,17.67 23.42,14.95 42.57,14.78 15.38,-0.14 40.72,2.8 52.92,-3.46 14.22,-7.29 11.38,-27.36 12.05,-45.43z"/>
  <path fill="#FEFEFE" d="M2457.54 937.22c19.78,3.32 76.86,3.39 99.33,3.39 15.4,0 35.14,0.69 49.96,-1.21 4.94,-0.63 4.06,-4.74 4.03,-9.15 -0.04,-8.7 0.82,-33.53 -0.56,-38.45l-154.46 -0.47 1.7 45.89z"/>
  <path fill="#8261F6" d="M328.18 109.24c4.36,-0.57 12.95,-0.16 17.54,0.29 7.65,0.76 16.65,9.04 20.65,15.31 9.2,14.4 5.92,28.04 -2.79,40.94 -12.08,17.88 -35.25,18.23 -50.8,7.64 -24.6,-16.76 -16.96,-59.91 15.4,-64.18zm2.26 -25.33c-9.02,1 -15.77,3.72 -23.4,6.85 -20.04,8.22 -33.01,33.4 -32.51,57.21 0.35,16.42 7.62,30.93 19.21,40.51 10.33,8.54 26.87,16.18 45.1,14.68 13.85,-1.15 22.67,-4.39 33.17,-11.97 13.45,-9.72 24.63,-32.26 22.6,-52.23 -1.75,-17.26 -10.76,-32.47 -19.59,-40.26 -10.45,-9.21 -30.79,-16.31 -44.58,-14.79z"/>
  <path fill="#8261F6" d="M306.48 346.14c-1.61,11.87 -4.26,9.01 -18.94,10.18 -8.51,0.68 -19.54,1.15 -27.92,-0.01 -5.19,-0.71 -6.8,-1.42 -7.99,-6.42 -1.47,-6.13 -0.61,-36.4 -0.43,-43.71 0.22,-8.49 0.95,-8.08 5.05,-9.09 8.89,-2.17 18.52,-1.36 27.6,-1.2 14.29,0.23 20.9,-1.93 21.93,7.29 0.5,4.5 0.24,9.83 0.28,14.51 0.08,8.53 1.53,20.25 0.42,28.45zm-44.06 -73.61c-18.34,0.95 -28.99,2.98 -32.78,19.9 -2.98,13.3 -2.12,35.49 -1.88,49.71 0.3,17.76 1.05,31.69 16.37,36.26 10.84,3.23 37.26,2.26 49.68,1.55 17.99,-1.03 30.27,-1.42 33.61,-18.73 2.45,-12.73 1.89,-37.36 1.47,-51.02 -0.56,-17.77 -1.71,-31.1 -16.8,-35.78 -10.41,-3.22 -37.59,-2.52 -49.67,-1.89z"/>
  <path fill="#8261F6" d="M166.74 846.38c-2.82,20.01 -19.19,30.16 -38.54,28.76 -29.17,-2.11 -36.8,-45.27 -15.23,-61.35 5.8,-4.33 17.01,-8.9 26.37,-7.07 15.87,3.12 30.23,19.61 27.4,39.66zm23.55 -1.5c2.93,-33 -23.25,-57.73 -51.81,-61.36 -31.66,-4.02 -57.36,20.83 -60.41,52.72 -6.99,73.27 105.23,87.39 112.22,8.64z"/>
  <path fill="#8261F6" d="M617.53 626.21c-3.81,-43.36 59.94,-54.2 65.49,-8.33 5.63,46.52 -61.72,51.27 -65.49,8.33zm87.99 0.5c2.61,-16.2 -3.7,-31.02 -12.83,-42.9 -8.82,-11.48 -22.56,-17.47 -37.07,-18.77 -16.52,-1.48 -29.89,4.91 -41.44,14.08 -10.04,7.97 -17.39,22.99 -19.08,36.92 -2.16,17.8 4.16,32.82 12.37,43.51 3.69,4.8 9.03,9.4 15.08,12.88 6.79,3.91 13.3,5.33 22.24,5.76 36.76,1.73 55.45,-18.68 60.73,-51.48z"/>
  <path fill="#7063F2" stroke="#7063F2" stroke-width="0.9" stroke-miterlimit="2.61313" d="M1706.09 318.43c19.58,-3.76 27.28,37.86 -0.44,36.22 -22.47,-1.32 -25.53,-31.22 0.44,-36.22zm-29.57 43.62l-16.49 18.32c-3.83,4.51 -11.62,12.96 -20.27,14.7 -11.08,2.23 -34.35,-8.54 -38.94,10.47 -1.27,5.26 0.87,10.07 4.99,11.5 9.64,3.36 36.74,2.67 47.7,-0.77 5.8,-1.82 7.41,-3.19 10.43,-7.01 8.17,-10.32 15.28,-18.93 24.18,-28.25 4.82,-5.04 3.55,-4.64 12.31,-3.62 12.01,1.4 18.99,-0.26 27.48,-6.02 23.12,-15.71 23,-53.87 -1.95,-68.47 -25.57,-14.96 -59.31,1.5 -59.37,34.26 -0.03,15 7.87,19 9.93,24.89z"/>
  <path fill="#7063F2" d="M1230.2 317.88c8.25,-1.74 17.92,7.98 18.56,18.36 1.68,26.82 -38.85,23.19 -37.01,0.4 0.78,-9.73 10.2,-17.03 18.45,-18.76zm-5.6 -19.76c-10.2,1.54 -15.59,4.83 -22.38,11.36 -9.87,9.48 -13.44,24.69 -9.33,38.74 5.18,17.68 18.98,29.51 38.51,29.43 15.06,-0.06 17.17,-4.71 25.17,6.73 2.28,3.25 4.63,6.55 7.16,9.81 3.84,4.95 15.03,19.89 20.18,22.25 2.07,0.95 4.48,1.33 6.89,1.59 5.2,0.56 11.15,0.31 16.45,0.55 10.83,0.49 23.09,1.65 27.45,-6.09 2.5,-4.43 0.54,-9.54 -1.58,-13.31 -2.99,-5.29 -2.57,-4.06 -12.86,-4.21 -5.64,-0.08 -11.31,0.18 -16.98,0.14 -7.05,-0.06 -8.84,-0.4 -12.7,-4.32l-11.94 -13.51c-4.12,-3.84 -8.87,-8.56 -11.82,-13.63 -6.72,-11.55 10.23,-17.35 0.53,-41.47 -5.57,-13.85 -22.05,-27.19 -42.75,-24.06z"/>
  <path fill="#7063F2" stroke="#DBCFFF" stroke-width="0.9" stroke-miterlimit="2.61313" d="M1704.06 779.72c11.1,-2.54 19.19,6.21 20.34,15.78 1.25,10.52 -7.69,18.07 -16.53,19.59 -19.23,3.32 -32.14,-28.91 -3.81,-35.37zm-29.19 -9.97c0.31,4.8 -3.01,9.48 -4.73,13.14 -15.28,32.56 24.03,66.13 54.8,48.81 6.79,-3.83 13.05,-9.96 16.6,-17.85 8.53,-18.97 2.21,-36.73 -13.06,-48.7 -6.91,-5.41 -15.28,-7.82 -26.3,-6.71 -8.39,0.84 -8,0.75 -12.24,-4.18l-12.24 -13.71c-0.83,-0.93 -1.44,-1.34 -2.22,-2.26l-9.93 -11.04c-9.34,-10.15 -8.21,-8.21 -25.71,-8.98 -8.41,-0.38 -25.04,-1.35 -32.54,0.79 -4.23,1.2 -6.27,4.99 -7.16,10.25 -1.08,6.36 0.45,9.12 5.75,10.65 11.45,3.32 18.56,3.13 30.37,1.09 9.41,-1.62 12.2,2.01 17.8,7.16 1.45,1.34 2.25,2.79 3.96,4.53 5.89,5.98 3.41,4.77 12.47,13.01 2.16,1.96 1.46,2.14 4.38,4z"/>
  <path fill="#7063F2" d="M1212.52 799.95c-2.03,-11.86 6.33,-17.69 15.38,-20.46 11.23,-3.44 18.72,5.3 20.31,14.59 4.42,25.77 -31.96,27.77 -35.69,5.87zm122.26 -66.9c3.43,-11.81 -8.13,-14.77 -18.01,-14.93 -6.31,-0.1 -27.97,-0.2 -32.6,1.32 -4.67,1.54 -7.2,4.15 -10.05,6.9 -7.37,7.11 -17.84,19.13 -23.65,27.28 -4.93,6.91 -4.42,5.12 -10.62,4.39 -5.56,-0.65 -10.03,-0.59 -15.5,0.44 -29.17,5.47 -42.95,39.45 -25.53,61.59 11.49,14.6 30.78,20.2 48.63,12.42 17.6,-7.67 26.75,-29.16 22.3,-44.37 -1.37,-4.66 -3.68,-7.37 -5.54,-11.48 -1.29,-2.87 -2.03,-3.89 -0.18,-5.92 0.8,-0.87 1.49,-1.28 2.32,-2.17 0.74,-0.79 1.11,-1.34 1.84,-2.17l8.4 -8.57c13.2,-15.24 12.81,-18.72 33.15,-16.58 9.66,1.02 22.53,0.45 25.04,-8.15z"/>
  <path fill="#8261F6" d="M449.47 261.78c-13.36,1.56 -15.96,7.22 -16.96,20.95 -0.83,11.41 -0.84,25.56 0.11,36.97 1.14,13.71 6.53,17.07 20.48,17.63 12.11,0.49 24.93,0.89 37.01,0.05 14.61,-1.02 15.85,-6.98 16.58,-20.95 0.6,-11.51 0.76,-25.77 -0.2,-37.17 -1.81,-21.51 -16.92,-17.81 -38.92,-17.82 -5.34,0 -13.13,-0.24 -18.1,0.34z"/>
  <path fill="#7063F2" d="M1185.28 449.02c9.73,-2.33 18.49,4.6 19.64,12.97 1.36,9.87 -4.99,19.07 -12.62,20.81 -10.28,2.34 -19.05,-5.08 -20.38,-13.35 -1.4,-8.76 3.3,-18.02 13.36,-20.43zm-3.14 -21.12c-14.42,2.18 -26.62,13.9 -30.37,26.35 -8.63,28.63 21.21,63.27 54.74,45.73 9.09,-4.75 9.46,-7.65 14.88,-13.57 2.96,-3.22 6.8,-2.2 12,-2.11l42.44 0.15c8.56,0 18.49,0.18 21.46,-7.03 3.25,-7.88 1.03,-14.82 -9.31,-16.57 -12.41,-2.1 -36.07,2.07 -54.62,0.1 -10.04,-1.06 -4.64,-0.77 -12.71,-15.7 -6.97,-12.9 -25.55,-19.31 -38.51,-17.35z"/>
  <path fill="#7063F2" d="M1752.79 449.39c17.99,-2.55 21.8,34.53 -2.71,33.19 -10.58,-0.58 -15.63,-7.23 -15.58,-18.13 0.05,-11.51 7.98,-13.6 18.29,-15.06zm-7.12 -21.02c-8.38,1.59 -14.23,4.2 -19.62,8.53 -5.94,4.78 -6.63,8.87 -10.9,17.06 -4.31,8.25 -10.58,6.74 -21.46,6.74l-41.93 -0.14c-4.87,0.15 -7.59,1.43 -9.22,4.67 -4.02,8.03 -0.61,15.86 6.25,18.13 7.68,2.55 43.44,0.23 54.89,0.72 27.19,1.17 19.42,15.21 36.86,18.83 7.14,1.48 19.01,0.65 25.48,-1.56 16.49,-5.62 31.47,-34.39 17.7,-55.53 -8.23,-12.63 -22.55,-20.39 -38.05,-17.45z"/>
  <path fill="#7063F2" d="M1748.3 652.07c10.52,-1.98 17.88,4.26 18.71,13.57 2.48,27.85 -32.17,21.31 -33.4,4.99 -0.78,-10.34 6.08,-16.93 14.69,-18.56zm-106.88 13.08c3.97,12.08 32.75,10.02 46.26,9.7 4.7,-0.11 9.3,-0.48 14,-0.69 2.24,-0.1 4.81,-0.29 7.03,-0.23 7.27,0.2 4.8,9.87 14.92,20.19 10.98,11.2 26.47,15.15 41.67,9.19 31.86,-12.5 29.91,-53.92 2.84,-68.67 -16.95,-9.23 -39.86,-2.91 -50.05,11.97 -2.66,3.88 -4.09,3.53 -9.93,4.04 -9.5,0.83 -17.52,0.15 -26.94,-0.23 -9.03,-0.35 -17.79,-1.44 -26.87,-0.18 -7.41,1.03 -15.94,5.74 -12.93,14.91z"/>
  <path fill="#8261F6" d="M127.37 164.32c-12.75,0.4 -22.65,0.95 -25.66,12.15 -2.24,8.35 -1.9,27.08 -1.52,36.39 0.54,13.03 1.62,21.31 13.5,24.36 8.65,2.22 26.21,2.4 35.86,2.35 13.08,-0.07 21.35,-1.5 24.71,-12.99 2.64,-9.03 2.25,-26.38 1.65,-36.21 -0.79,-12.88 -2.91,-20.79 -13.52,-24.3 -8.64,-2.85 -25.29,-2.05 -35.02,-1.75z"/>
  <path fill="#8261F6" d="M417.5 1084.01c0.37,-9.72 0.7,-26.49 -1.14,-35.63 -2.62,-13.06 -11.24,-13.04 -24.68,-13.03 -32.44,0.01 -46.82,-2.3 -47.06,27.7 -0.4,50.39 3.13,50.4 44.06,47.86 23.42,-1.46 27.68,3.04 28.82,-26.9z"/>
  <path fill="#8261F6" d="M1.43 688.12c2.45,20.04 19.55,37.39 42.71,34.4 22.24,-2.87 34.38,-21.62 33.08,-43.91 -2.87,-49.32 -82.51,-45.48 -75.79,9.51z"/>
  <path fill="#7063F2" d="M1171 670.15c-3.03,-19.57 32.67,-27.43 33.86,-2.48 0.46,9.48 -6.74,17.34 -15.45,17.79 -9.23,0.47 -17.17,-7.31 -18.41,-15.31zm78.37 4.37c7.87,0.01 13.17,-1.36 18.52,-4.78l0.26 -6.08c0.98,-21.22 -25.52,-11.28 -45.88,-13.42 -3.85,-6.18 -6.16,-9.71 -12.31,-13.58 -17.2,-10.81 -46.09,-6.72 -55.9,15.57 -12.7,28.86 11.06,63.61 47.83,51.32 13.87,-4.63 20.93,-16.11 25.01,-29.66l22.47 0.63z"/>
  <path fill="#5E70F8" d="M2757.51 677.37c-34.69,1.82 -69.54,0.62 -104.29,0.63 -12.22,0.01 -40.3,-3.27 -42.3,9.21 -3,18.78 27.39,15.13 37.81,14.83 17.21,-0.5 34.67,0.16 51.92,-0.29 17.16,-0.45 35.19,-0.18 52.38,0.13 12.8,0.24 39.29,4.53 41.29,-9.41 2.48,-17.23 -23.24,-15.81 -36.81,-15.1z"/>
  <path fill="#5E70F8" d="M2758.93 607.44c-40.04,2.08 -87.62,0.29 -129.17,0.27 -9.57,0 -15.48,-0.49 -18.03,7.96 -5.7,18.93 22,16.46 35.5,16.21 42.3,-0.8 87.44,-0.07 130.3,-0.02 9.52,0.01 14.28,-1.01 16.95,-9.17 5.76,-17.6 -26.27,-15.73 -35.55,-15.25z"/>
  <path fill="#5E70F8" d="M2620.74 538.14c-9.15,1.79 -10.93,10.74 -9.31,15.03 2.13,5.68 10.93,7.5 18.12,7.87 16.86,0.87 34.62,-0.25 51.63,0.28 17.94,0.56 88.38,1.08 103,-0.95 9.05,-1.26 11.86,-8.25 9.87,-14.56 -2.59,-8.19 -8.38,-8.06 -18.01,-8.06 -17.31,0 -34.63,-0.11 -51.92,-0.09 -17.17,0.02 -34.81,0.38 -51.93,-0.04 -7.94,-0.2 -45.98,-0.56 -51.45,0.52z"/>
  <path fill="#DBCFFF" d="M1406.13 491.33c-3.87,4.04 -13.08,39.64 -15.69,48.29 -2.75,9.1 -15.2,41.58 -15.1,48.7l62.63 0.29c0.36,-4.25 -12.77,-42.71 -14.97,-49.69 -2.53,-8.02 -5.44,-16.46 -7.74,-24.68 -1.06,-3.78 -4.95,-20.73 -9.13,-22.91z"/>
  <path fill="#8261F6" d="M29.13 309.92c-41.89,4.27 -37.21,65.93 5.12,62.79 42.08,-3.11 36.16,-67 -5.12,-62.79z"/>
  <path fill="#5E70F8" d="M2610.95 763.5c0.5,4.79 4.93,8.89 9.27,10.07 4.44,1.2 13.48,1.01 18.53,1.06l95.76 -0.89c4.07,-0.55 7,-7.53 6.04,-12.67 -1.96,-10.51 -16.74,-10.68 -27.96,-10.88 -14.38,-0.27 -83.49,-0.76 -94.19,1.95 -4.52,1.14 -8.04,5.7 -7.45,11.36z"/>
  <path fill="#8261F6" d="M190.52 11.97c-9.46,1.9 -14.53,4.98 -18.94,10.74 -14.14,18.48 -0.47,53.84 29.17,48.64 38.38,-6.73 29.2,-67.28 -10.23,-59.38z"/>
  <path fill="#8261F6" d="M712.83 378.45c-35.32,4.27 -31.27,56.27 5.3,53.05 14.32,-1.25 25.73,-12.82 23.63,-29.11 -1.9,-14.68 -12.35,-25.95 -28.93,-23.94z"/>
  <path fill="#8261F6" d="M171.23 1022.61c3.67,28.77 49.85,25.05 46.67,-6.93 -1.23,-12.43 -12.57,-21.33 -26.7,-19.33 -12.64,1.8 -21.84,11.65 -19.97,26.26z"/>
  <path fill="#DBCFFF" stroke="#DBCFFF" stroke-width="2.08" stroke-miterlimit="2.61313" d="M1212.52 799.95c3.73,21.9 40.11,19.9 35.69,-5.87 -1.59,-9.29 -9.08,-18.03 -20.31,-14.59 -9.05,2.77 -17.41,8.6 -15.38,20.46z"/>
  <path fill="#DBCFFF" stroke="#DBCFFF" stroke-width="2.08" stroke-miterlimit="2.61313" d="M1189.41 685.46c8.71,-0.45 15.91,-8.31 15.45,-17.79 -1.19,-24.95 -36.89,-17.09 -33.86,2.48 1.24,8 9.18,15.78 18.41,15.31z"/>
  <path fill="#DBCFFF" stroke="#DBCFFF" stroke-width="2.08" stroke-miterlimit="2.61313" d="M1171.92 469.45c1.33,8.27 10.1,15.69 20.38,13.35 7.63,-1.74 13.98,-10.94 12.62,-20.81 -1.15,-8.37 -9.91,-15.3 -19.64,-12.97 -10.06,2.41 -14.76,11.67 -13.36,20.43z"/>
  <path fill="#DBCFFF" stroke="#DBCFFF" stroke-width="2.08" stroke-miterlimit="2.61313" d="M1211.75 336.64c-1.84,22.79 38.69,26.42 37.01,-0.4 -0.64,-10.38 -10.31,-20.1 -18.56,-18.36 -8.25,1.73 -17.67,9.03 -18.45,18.76z"/>
  <path fill="#DBCFFF" stroke="#DBCFFF" stroke-width="2.08" stroke-miterlimit="2.61313" d="M1704.06 779.72c-28.33,6.46 -15.42,38.69 3.81,35.37 8.84,-1.52 17.78,-9.07 16.53,-19.59 -1.15,-9.57 -9.24,-18.32 -20.34,-15.78z"/>
  <path fill="#DBCFFF" stroke="#DBCFFF" stroke-width="2.08" stroke-miterlimit="2.61313" d="M1733.61 670.63c1.23,16.32 35.88,22.86 33.4,-4.99 -0.83,-9.31 -8.19,-15.55 -18.71,-13.57 -8.61,1.63 -15.47,8.22 -14.69,18.56z"/>
  <path fill="#DBCFFF" stroke="#DBCFFF" stroke-width="2.08" stroke-miterlimit="2.61313" d="M1750.08 482.58c24.51,1.34 20.7,-35.74 2.71,-33.19 -10.31,1.46 -18.24,3.55 -18.29,15.06 -0.05,10.9 5,17.55 15.58,18.13z"/>
  <path fill="#DBCFFF" stroke="#DBCFFF" stroke-width="2.08" stroke-miterlimit="2.61313" d="M1705.65 354.65c27.72,1.64 20.02,-39.98 0.44,-36.22 -25.97,5 -22.91,34.9 -0.44,36.22z"/>
  <path fill="#7063F2" stroke="#7063F2" stroke-width="2.08" stroke-miterlimit="2.61313" d="M1437.97 588.61l-62.63 -0.29c-0.1,-7.12 12.35,-39.6 15.1,-48.7 2.61,-8.65 11.82,-44.25 15.69,-48.29 4.18,2.18 8.07,19.13 9.13,22.91 2.3,8.22 5.21,16.66 7.74,24.68 2.2,6.98 15.33,45.44 14.97,49.69zm54.15 -3.46c-15.07,-44.75 -29,-89.07 -43.15,-134.07 -2.47,-7.86 -5.87,-18.97 -9.74,-25.7 -5.11,-8.88 -11.7,-10.4 -25.11,-10.54 -9.78,-0.1 -23.71,0.02 -31.16,3.98 -7.99,4.24 -9.79,12.57 -13.11,22.37 -2.95,8.71 -5.92,17.97 -8.59,26.82 -5.39,17.9 -11.78,35.62 -17.32,53.58 -10.33,33.51 -23.24,73.63 -34.71,106.56 -4.13,11.84 -15.65,42.77 -15.21,55.43 0.45,12.79 38.66,18.3 50.73,5.09 9.7,-10.62 10.11,-44.99 22.34,-48.52 5.41,-1.56 58.17,-0.54 69.69,-1.1 13.98,-0.67 17.56,0.82 21.67,12.74 3.08,8.95 4.96,18.72 7.92,27.5 3.39,10.04 7.68,14.7 19.29,16.23 9.63,1.27 22.53,-0.01 30.08,-4.13 4.46,-2.44 6.56,-5.15 5.41,-12.07 -1.42,-8.52 -26.34,-86.2 -29.03,-94.17z"/>
  <path fill="#A994FF" stroke="#8261F6" stroke-width="24.96" stroke-miterlimit="2.61313" d="M1012.54 569.03c-1.91,-12 -20.43,-31.46 -27.71,-39.73 -4.98,-5.66 -13.76,-13.83 -18.57,-18.86 -4.29,-4.48 -6.07,-7.07 -10.76,-11.2 -2.36,-2.08 -7.08,-7.96 -10.93,-11.54l-13.93 -15.53c-3.58,-4.08 -9.43,-11.26 -17.28,-12.68 -8.66,-1.56 -16.38,6.28 -14.25,14.96 1.75,7.13 8.5,13.2 11.94,17.8 6.08,8.13 13.07,10.98 11.7,25.63 -0.25,2.7 0.18,1.72 -1.76,2.18l-17.61 1.13c-9.51,0.33 -19.38,0.53 -28.94,0.42 -12.18,-0.14 -49.24,-1.99 -57.96,1.71 -7.28,3.1 -8.53,10.88 -9.22,20.57 -0.57,8.04 -0.77,52.43 0.3,58.86 1.56,9.42 6.51,12.36 16.06,13.86 17.45,2.73 72.93,-1.56 87.96,0.39 8.28,1.07 15.47,6.66 11.11,16.01 -4.88,10.46 -24.07,24.57 -24.74,34.67 -0.48,7.1 9.18,14.61 17.26,12.28 5.76,-1.67 13.01,-9.9 16.06,-13.89l49.72 -54.64c6.13,-5.88 15.64,-16.73 21.46,-23.46 2.09,-2.41 4.69,-5.62 6.61,-8.36 1.91,-2.75 4.2,-6.07 3.48,-10.58z"/>
  <path fill="#959CFF" stroke="#566CF4" stroke-width="24.96" stroke-miterlimit="2.61313" d="M1926.16 567.3c0.33,10.22 0.06,20.37 0.39,30.45 0.34,10.44 3.12,15.61 12.43,17.86 9.86,2.38 46,0.72 58.75,0.72 12.76,0 49.41,-4.07 50.44,9.89 1.01,13.52 -20.42,25.6 -24.74,35.68 -3.89,9.09 1.8,17.02 9.97,17.95 10.23,1.16 13.97,-7.38 18.51,-11.43 1.46,-1.3 2.5,-2.64 3.81,-4.19l14.37 -15.59c1.29,-1.43 2.45,-2.28 3.71,-3.76 6.13,-7.2 15.44,-16.15 21.81,-23.63l18.33 -19.6c3.13,-3.67 7.43,-7.4 11.22,-11.26 14.39,-14.66 17.17,-23.78 2.82,-38.51l-25.9 -27.52c-6.94,-7.82 -19,-20.37 -25.04,-27.9 -1.18,-1.48 -2.32,-2.72 -3.46,-4.01 -1.2,-1.35 -2.13,-3 -3.23,-4.26 -2.66,-3.08 -5.39,-3.81 -7.99,-6.97 -6.31,-7.67 -14.16,-18.78 -23.56,-21.89 -5.35,-1.76 -17.37,1.88 -14.99,14.12 1.3,6.69 8.68,14.52 12.14,18.18 1.08,1.14 2.43,2.82 3.68,4.31 1.15,1.37 2.29,2.84 3.3,4.2 4.21,5.62 5.5,10.76 4.49,18.24 -0.34,2.49 -2.4,1.81 -5.27,2.01 -14.73,0.99 -28.67,0.92 -43.43,0.47 -17.47,-0.52 -41.53,-1.53 -58.41,0.91 -9.89,1.44 -12.4,6.74 -13.64,16.83 -1.15,9.3 -0.81,19.31 -0.51,28.7z"/>
  <path fill="#DBCFFF" stroke="#DBCFFF" stroke-width="8.32" stroke-miterlimit="2.61313" d="M2330.52 604.55c-21.18,42.73 -18.37,93.8 8.8,132.38 5.57,7.9 15.09,18.5 22.55,24.39 35.38,27.96 79.72,35.89 120.12,12.68 9.92,-5.7 37.14,-27.43 38.39,-36.89 -13.62,-6.55 -32.09,-20.21 -44.9,-29.01 -7.25,-4.99 -14.39,-9.87 -22.04,-14.9 -3.8,-2.49 -7.49,-4.82 -11.1,-7.37 -13.79,-9.73 -21.45,-14.5 -23.02,-32.93 -1.02,-12.07 -0.48,-24.99 -0.48,-37.17 0,-4.99 1.89,-68.02 -0.63,-72.61 -8.98,-2.47 -23.87,2.43 -31,5.78 -23.18,10.89 -45.36,32.78 -56.69,55.65z"/>
 </g>
</svg>
