<?xml version="1.0" encoding="UTF-8"?>
<!DOCTYPE svg PUBLIC "-//W3C//DTD SVG 1.1//EN" "http://www.w3.org/Graphics/SVG/1.1/DTD/svg11.dtd">
<!-- Creator: CorelDRAW -->
<svg xmlns="http://www.w3.org/2000/svg" xml:space="preserve" width="5828px" height="2194px" version="1.1" shape-rendering="geometricPrecision" text-rendering="geometricPrecision" image-rendering="optimizeQuality" fill-rule="evenodd" clip-rule="evenodd"
viewBox="0 0 5467.6 2058.16"
 xmlns:xlink="http://www.w3.org/1999/xlink"
 xmlns:xodm="http://www.corel.com/coreldraw/odm/2003">
 <g id="Layer_x0020_1">
  <metadata id="CorelCorpID_0Corel-Layer"/>
  <path fill="#D6CFFE" d="M2990.41 1364.68c-19.06,0.21 -44.85,4.16 -53.95,-9.9 -5.13,-7.91 -7.44,-16.91 -2.44,-26.34 12.58,-23.69 40.6,-17.17 77.91,-17.18 27.9,0 32.37,1.81 47.29,16.44 19.47,19.1 32.22,39.26 45.63,52.23 13.94,13.5 46.52,-6.2 72.18,19.59 5.06,5.09 11.82,9.87 16.47,16.76 21.71,32.19 21.28,70.71 -4.24,96.97 -58.96,60.65 -154.16,4.36 -131.89,-73.26 2.86,-9.96 6.78,-14.17 10.03,-21.95 -3.11,-7.47 -20.78,-25.97 -29.23,-36.09 -16.4,-19.64 -14.39,-17.64 -47.76,-17.27zm-665.04 53.36c6.98,20.07 14.6,25.63 11.7,51.88 -6.34,57.18 -66.17,85.41 -116.09,59.08 -70.08,-36.96 -40.46,-139.89 32.46,-144.59 9.11,-0.59 24.6,3.07 32.05,-0.85 1.25,-0.66 13.65,-14.16 15.2,-16.12 26.31,-33.27 38,-52.53 72.55,-55.83 10.85,-1.04 51.39,-1.54 60.77,0.52 16.42,3.6 27.36,23.28 17.78,40.11 -9.31,16.34 -30.7,12.82 -51.67,12.67 -34.48,-0.25 -23.95,-3.84 -44.65,20.17l-30.1 32.96zm541.37 -621.06c17.52,-2.95 52.44,-2.81 66.28,5.93 16.89,10.67 12.86,37.49 13.16,61.97 0.58,48.51 0.33,98.06 -0.04,146.6l0.05 222.83c-0.22,19.63 0.54,39.91 -28.78,44.37 -17.29,2.63 -53.81,1.77 -67.16,-5.64 -18.69,-10.38 -11.71,-38.09 -12.53,-62.19 -1.64,-48.33 -0.41,-98.09 -0.56,-146.6 -0.16,-49.19 1.64,-99.5 0.68,-148.54 -0.48,-24.93 -0.1,-49.42 -0.45,-74.29 -0.36,-26.25 3.36,-40.05 29.35,-44.44zm272.76 444.42c-67.3,-4.29 -131.87,14.98 -132.03,-26.63 -0.2,-49.28 70.95,-16.93 133.1,-28.09 8.89,-1.6 9.88,-7.58 14.58,-12.41 3.45,-3.54 10.87,-8.37 15.99,-11.41 84,-49.86 155.09,59.71 93.84,117.32 -20,18.83 -45.31,24.95 -73.37,16.87 -32.45,-9.34 -41.59,-30.3 -52.11,-55.65zm-962.28 -90.32c31.1,-3.68 53.41,12.94 64.56,28.5 5.15,7.2 3.45,7.83 15.48,7.94 18.6,0.17 54.44,-3.83 66.23,4.02 8.82,5.88 14.49,20.48 9.52,34.08 -5.4,14.77 -13.72,16.35 -32.56,15.31 -69.22,-3.82 -33.99,2.35 -60.35,32.75 -37.12,42.85 -102.89,32.24 -125.89,-13.36 -25.92,-51.37 9.62,-102.92 63.01,-109.24zm380.01 -394.53c14.58,-1.68 47.2,-1.49 61.17,0.98 20.11,3.54 27.44,14.27 33.97,33.07l24.89 74.77c2.89,8.33 3.58,15.24 7.01,24.29 11.67,30.89 20.47,66.39 31.73,99.2 11.2,32.63 20.9,65.46 32,98.94 11.08,33.41 21.57,67.34 32.68,100.41 9.86,29.35 33.43,81.9 -7.67,90.96 -10.39,2.29 -56.41,1.3 -63.98,-1.65 -16.76,-6.55 -19.71,-21.09 -25.19,-39.61 -20.69,-69.91 -12.82,-57.93 -72.62,-58.54 -20.82,-0.21 -45.94,-0.6 -66.46,0.06 -31.6,1.01 -35.95,-10.1 -46.98,19.53 -17.22,46.23 -14.33,77.38 -50.83,79.92 -116.53,8.09 -75.78,-32.89 -42.3,-147.4 19.23,-65.8 43.27,-134 64.87,-199.17 10.68,-32.23 20.63,-66.33 31.79,-99.13 15.64,-45.96 9.8,-71.33 55.92,-76.63zm-307.61 136.48c-13.15,12.53 -16.31,22.54 -36.08,31.55 -16.09,7.34 -41.12,7.99 -58.19,1.54 -75.68,-28.6 -60.81,-146.02 25.88,-146.94 44.45,-0.47 61.44,27.04 75.91,58.69 17.32,2.78 61.61,0.14 82.4,0.46 25.7,0.41 51.11,-0.43 48.42,30.01 -2.65,30 -31.43,25.07 -58.2,25.02 -26.5,-0.04 -53.78,0.86 -80.14,-0.33zm952.89 -112.9c112.9,-13.6 114.37,157.92 3.45,149.11 -47.24,-3.76 -40.07,-36.54 -70.8,-36.07 -23.48,0.36 -90.17,3.23 -109.26,-0.95 -24.37,-5.35 -32.75,-54.3 17.2,-54.55 18.19,-0.09 36.65,-0.3 54.82,-0.08 14.49,0.18 38.69,4.99 44.81,-7.99 11.99,-25.41 26.33,-45.44 59.78,-49.47zm-958.67 -238.85c21.78,-2.95 36,0.04 53.19,8.29 11.18,5.37 9.78,7.4 18.56,14.86 5.92,5.03 8.62,9.64 13.01,18.28 21.06,41.39 -3.87,70.44 1.44,80.51 6.38,12.08 13.96,13.54 23.21,25.71 2.95,3.88 4.32,4.82 7.28,8.36 30.88,36.93 18.43,16.93 72.91,22.43 16.93,1.71 29.65,20.27 20.75,38.7 -8.62,17.86 -29.93,13.01 -50.16,13.24 -20.39,0.23 -43.52,3.68 -56.84,-8.31 -19.23,-17.3 -48.4,-65.24 -62.35,-66.66 -23.62,-2.4 -32.07,8.13 -58.82,-5.29 -74.59,-37.41 -48.07,-141.2 17.82,-150.12zm872.56 -0.8c38.73,-5.02 68.87,12.09 85.18,44.96 17.63,35.52 1.22,76.78 -19.17,94.09 -37.23,31.6 -67.81,10.35 -79.02,20.58l-28.86 35.93c-15.45,21.66 -31.39,35.83 -60.64,35.4 -14.29,-0.2 -54.82,1.74 -65.68,-1.03 -19.11,-4.88 -21.38,-28.53 -9.88,-41.65 18.95,-21.63 66.18,1.57 86.06,-15.5l13.46 -13.99c10.62,-14.06 29.36,-30.51 28.89,-37.43 -0.06,-0.83 -26.04,-42.91 -5.54,-79.92 2.45,-4.44 3.46,-5.85 6.19,-9.48 10.03,-13.39 27.86,-29.22 49.01,-31.96zm232.18 523.79c-30.8,-1.9 -73.86,0.25 -106.02,0.55l-156.37 0.21c-17.38,0.31 -31.61,2.25 -40.74,-10.87 -8.56,-12.29 -5.75,-27.57 5.43,-34.98 11.98,-7.95 29.95,-5.42 45.08,-5.4 69.67,0.1 139.51,-0.29 209.15,0.13 39.33,0.24 42.07,7.2 43.91,-5.98l-0.13 -363.91c-0.58,-71.11 4.89,-119.62 -25.45,-182.68 -22.61,-47 -59.91,-82.9 -105.89,-102.99 -58.01,-25.34 -121.84,-19.3 -188.04,-19.17 -207.71,0.41 -418.47,-1.17 -625.48,0.36 -58.4,0.43 -145.28,-6.25 -197.82,9.14 -48.13,14.1 -65.42,30.29 -98.16,59.92l-23.02 27.76c-14.78,19.96 -27.32,45.97 -32.94,70.64 -7.38,32.36 -7.57,61.78 -7.14,95.97 0.61,48.48 -3.81,396.48 2.24,411.54 23.13,1.24 56.51,-0.84 81.24,-0.9l164.19 0c24.83,0.15 55.44,-3.72 56.71,25.32 1.49,33.75 -38.2,26.04 -58.66,26.13 -13.64,0.06 -241.67,-1.97 -244.48,1.22 -4.42,5 -2.04,352.95 -1.44,414.31 0.65,66.2 5.7,105.35 43.22,161.66 20.84,31.27 74.66,72.86 121.58,85.5 50.19,13.52 103.91,8.42 157.35,8.88 221.28,1.89 441.78,-1.64 662.61,0.24 80.47,0.69 145.88,7.21 212.41,-36.02 15.02,-9.76 33.59,-24.69 44.84,-37.31l9.77 -11.71c8.84,-12.17 16.9,-20.65 25.28,-37.32 37.34,-74.31 27.44,-130.78 27.13,-219.93 -0.19,-55.37 0.26,-110.74 -0.15,-166.14 -0.18,-25.56 1.99,-151.23 -0.21,-164.17z"/>
  <path fill="#5B74FE" d="M4110.4 1977.06l-0.01 -1872.52c-0.02,-3.65 -0.27,-8.37 -0.13,-11.87 0.08,-2.05 0.11,-3.34 0.51,-5.35l6.02 -17.44c2.74,-6.15 9.17,-13.34 14.44,-16.83l5.03 -2.79c11.94,-5.59 140.72,-2.4 157.88,-2.4l865.89 0c16.64,0 25.97,-2.52 37.3,3.74l12.99 14.38c4.22,6.46 5.67,5.21 9.52,19.8 2.79,10.58 0.78,758.83 0.78,767.38 0,366.39 -2.18,738.05 0.01,1104.36 0.11,19.91 -0.35,22.97 -10.29,38.57 -9.28,14.55 0.2,5.61 -14.44,12.93 -9.83,4.91 -5.1,4.56 -14.28,5.26l-1034.03 -0.14c-4.05,-0.54 -1.97,-0.19 -4.7,-1.16 -0.45,-0.16 -0.94,-0.41 -1.36,-0.59l-2.58 -1.34c-1.21,-0.62 -3.2,-1.72 -3.82,-2.03 -0.4,-0.21 -0.91,-0.45 -1.31,-0.65 -0.4,-0.2 -0.92,-0.43 -1.32,-0.63 -0.54,-0.27 -2.12,-0.99 -2.65,-1.27l-11.78 -11.68c-4.69,-8.86 -2.1,-9.63 -6.75,-16.7 -0.16,-0.24 -0.77,-0.6 -0.92,-1.03zm1153.22 -115.33l0 -1665.32c20.57,0 109.57,-2.62 122.36,0.78l26.34 12.75 6.4 11.19c0.2,0.4 0.46,0.9 0.66,1.3l2.06 3.8c4.78,10.04 2.46,46.69 2.46,58.14l0 1489.41c0,9.77 -0.07,19.56 0.02,29.33 0.19,22.35 -6.31,46.13 -31.68,54.33 -2.87,0.93 -3.67,1.09 -5.93,1.89 -6.91,2.46 3.51,0.15 -5.78,2.03l-116.91 0.37zm-23.46 172.01c0.18,-7.76 4.18,-9.11 8.79,-14.67 2.35,-2.84 0.6,-0.49 2.36,-3.51 10.21,-17.5 5.26,-17.87 10.36,-32.63 4.67,-13.49 1.95,-63.57 1.95,-82.1 26.71,0 122.13,3.35 138.33,-2.41 2.21,-0.78 3.14,-0.98 5.92,-1.89l18.65 -8.72c12.43,-6.05 21.25,-14.8 27.36,-27.36l7.75 -15.71c0.18,-0.46 0.35,-0.98 0.51,-1.45 8.17,-23.46 4.76,-47.18 4.76,-73.42l0 -1514.82c0,-16.72 -0.48,-31.63 -5.19,-45.63l-7.15 -14.35c-0.22,-0.37 -0.52,-0.86 -0.75,-1.21l-6.44 -9.19c-0.22,-0.38 -0.46,-0.91 -0.68,-1.28 -0.22,-0.37 -0.46,-0.9 -0.69,-1.26l-32.72 -23.97c-29.92,-10.19 -43.1,-4.75 -81.25,-4.75 -22.8,0 -45.61,0 -68.41,0 0,-18.53 1.39,-63.44 -2.53,-75.65 -1.7,-5.31 -0.87,-2.28 -1.37,-8.41 -0.31,-3.74 0.26,-3.16 -0.76,-7.06 -0.13,-0.51 -0.32,-1 -0.48,-1.47l-7.23 -14.27c-0.2,-0.4 -0.45,-0.91 -0.65,-1.31l-12.38 -16.93c-4.85,-4.76 -10.27,-11.6 -16.23,-15.05l-29.11 -11.94c-13.77,-2.79 -919.22,-0.28 -1031.66,-0.37 -5.6,0 -12.3,-0.37 -17.73,-0.14 -7.54,0.31 -14.37,3.05 -21.43,5.94l-26.32 18.63c-6.9,7.04 -11.55,12.17 -15.97,21.17l-3.27 6.5c-5.13,9.92 -9.24,23.94 -9.21,35.74 1.58,575.34 0.11,1150.7 0.11,1726.03 0,47.56 0.09,95.13 0,142.69 -0.01,5.09 -0.49,12.93 -0.07,17.66l4.15 21.26c0.97,7.59 0.17,2.96 2.29,7.48l11.76 19.52c7.1,11.13 15.46,17.39 27.42,23.4l19.4 7.96c16.17,5.74 101.42,2.4 122.69,2.4 95.62,0 919.67,2.2 936.17,-0.08 8.27,-1.15 8.12,-2.32 14.88,-4.67l9.35 -4.34c0.4,-0.2 0.91,-0.44 1.31,-0.64 0.4,-0.2 0.92,-0.43 1.32,-0.63 5.96,-2.96 10.95,-10.32 16.99,-12.33 2.94,-0.98 1.8,-0.69 5.1,-0.76z"/>
  <path fill="#5B74FE" d="M4790.6 1842.19l0 7.82c-5.24,2.11 -1.93,-1.2 -3.57,4.24 -0.59,1.96 -0.33,5.35 -0.33,7.48l-277.56 0 0 -93.82 281.46 0c-0.34,15.57 -3.28,-0.55 -4.05,17.45 -0.85,20.1 2.27,47.17 2.26,47.21 -0.22,9.64 -6.83,6.14 1.79,9.62zm0.82 -121.19c-8.67,7.19 -254.86,3.04 -284.32,2.08 -1.76,-7.84 -2.71,-78.03 -0.38,-84.27 1.74,-1.59 0.19,-1.03 3.55,-2.41 5.74,-2.35 116.08,-0.87 129.83,-0.82 44.39,0.14 90.68,1.4 134.87,-0.1l2.49 1.17c4.38,1.3 -1.67,1.01 3.37,0.81 4.63,-0.19 -1.58,0.24 5.87,-2.46l3.9 11.73c-5.11,2.06 -2.76,-0.13 -3.96,5.82 -1.41,6.97 0.47,14.94 1.92,21.45 0.49,2.2 0.73,-0.3 0.3,3.03l-2.24 24.5c0.95,10.9 1.12,5.02 2.56,9.11 1.47,4.15 1.41,5.25 2.24,10.36zm-587.2 -117.27l0 23.45c7.01,2.54 1.67,3.95 15.11,8.35l2.92 0.99c14.8,5.11 87.07,2.39 107.07,2.39 45.6,0 91.21,0 136.82,0l0 82.09 -205.23 0c-10.86,0 -30.54,-2.02 -39.85,1.2l-6.49 3.29c-0.36,0.22 -0.84,0.53 -1.19,0.76 -7.23,4.88 -2.65,4.12 -9.16,6.48l0 23.46c3.4,1.23 1.96,0.78 3.79,2.07l5.86 5.87c1.2,1.74 0.88,0.46 2.08,3.78l248.38 3.77c3.02,7.28 2.55,64.55 2.06,76.63 -0.45,11.28 1.33,7.3 -4.16,9.51l-250.19 3.91c-5.31,14.67 -18.06,14 -3.03,34.3 2.23,3.02 1.54,0.66 3.03,4.8l906.94 0c1.78,-4.94 6.78,-9.94 11.73,-11.73l0 -15.64c-4.35,-1.75 -5.98,-6.65 -7.82,-11.73l-289.28 0 0 -93.82 240.41 0c9.03,0 31.02,1.28 38.4,-0.69l2.84 -1.07c0.43,-0.18 0.92,-0.43 1.33,-0.62 0.55,-0.25 2.09,-1.02 2.61,-1.31 4.25,-2.33 2.56,-0.52 5.6,-4.17 0.26,-0.32 0.57,-0.81 0.81,-1.15 4.75,-6.74 6.05,-9.18 4.55,-15.55 -0.12,-0.48 -0.35,-0.99 -0.5,-1.46 -3.76,-11.21 -13.96,-19.48 -24.42,-20.83l-271.63 -0.06 0 -86c14.27,5.16 -0.69,3.96 29.31,3.91l222.98 0.15c14.35,0.19 12.06,-0.41 13.53,-4.06l19.55 0c5.4,-14.92 19.58,-12.99 7.25,-32.64 -0.23,-0.37 -0.53,-0.85 -0.77,-1.2 -0.23,-0.35 -0.57,-0.81 -0.81,-1.15 -5.93,-8.2 -3.01,-0.67 -5.67,-8.01l-903.03 0 -7.94 9.65c-1.75,1.19 -0.47,0.87 -3.79,2.08z"/>
  <path fill="#866AF6" d="M2089.31 1709.27c4,-4.85 3.81,-1.5 7.19,0.38 6.93,3.87 21.69,16.68 38.69,24.08 10.02,4.35 10.27,6.66 16.51,8.56 -0.85,-6.35 -0.31,-2.84 -2.05,-5.41 -0.21,-0.3 -0.58,-0.78 -0.83,-1.08l-4.16 -3.62c-3.8,-3.27 -6.76,-5.99 -8.57,-11.27 8.9,2.21 2.5,3 11.71,3.83 -2.47,-9.84 -7.4,-9.7 -12.28,-20.95 -38.02,-29.48 -61.8,-54.46 -82.51,-103.03 -23.46,-55.01 -18.89,-102.37 -18.79,-167.08 0.19,-122.49 -2.59,-247.26 0.02,-369.43 2.53,-1.69 -3.57,-5.39 4.56,-0.56l1.11 -4.33 5.52 -0.3c-1.56,-4.73 -1.69,-1.3 0.91,-5.02 71.77,-2.5 161.23,-0.12 236.51,-0.34 16.88,-0.04 66.34,7.9 54.85,-19.05 -5.72,-13.42 -44.89,-8.84 -68.54,-9.12 -34.54,-0.41 -227.26,2.98 -232.55,-2.6 -5.18,-5.47 -2.52,-346.45 -2.27,-400.42 0.3,-65.34 -4.34,-115.16 29.34,-172.11 9.52,-16.11 18.28,-25.74 27.79,-38.77 4.41,-6.03 10.1,-11.06 16.03,-17.26 42.25,-44.16 103.62,-64.97 167.53,-64.82 44.28,0.09 88.6,-0.44 132.91,-0.35l670.43 -0.07c43.98,0.08 81.45,-3.1 122.22,10.49 64.07,21.36 114.89,71.15 137.54,128.73l6.64 -2.27c3.5,-9.33 5.08,18.94 5.08,19.61l9.98 3.92 0.05 11.63c4.57,0.11 2.94,-0.57 6.5,1.14 10.13,4.86 -2.18,0.02 6.18,5.74 1.53,1.05 3.72,2.15 4.74,2.88l-4.97 -18.35c-2.58,-4.98 1.44,2.93 -1.48,-2.49 -5.63,-10.49 -1.44,-4.98 -2.05,-11.97l-9.97 -33.54c3.3,-2.31 -1.25,-1.73 4.91,-0.01l-17.04 -31.81c-1.09,-1.69 -3.91,-5.05 -5,-6.73 -1.55,-2.41 -0.78,-1.6 -2.1,-3.77l-5.72 -7.96c-0.22,-0.36 -0.49,-0.87 -0.71,-1.24l-56.69 -52.78c-0.36,-0.22 -0.87,-0.48 -1.23,-0.71l-5.53 -4.25c-0.34,-0.24 -0.81,-0.57 -1.16,-0.8 -0.35,-0.23 -0.84,-0.52 -1.21,-0.74l-53.18 -25c-0.48,-0.16 -0.98,-0.35 -1.45,-0.51 -0.47,-0.16 -0.97,-0.36 -1.43,-0.52l-42.6 -10.18c-11.54,-2.34 2.85,-0.65 -8.61,-3.11 -9.71,-2.08 -18.95,0.22 -28.34,-2.94l-371.97 -1.36c-35.62,0 -457.1,-2.88 -469.7,1.36l-20.89 2.57c-11,-0.1 -23.94,-1.96 -34.81,0.37 -11.43,2.45 2.84,0.75 -8.67,3.06l-52.91 13.54c-0.45,0.17 -0.96,0.38 -1.39,0.56 -0.43,0.18 -0.93,0.43 -1.34,0.62l-12.96 6.59c-0.4,0.2 -0.9,0.45 -1.3,0.65l-14.34 7.17c-15.29,7.64 -22.43,12.68 -35.53,23.11l-23.42 19.57c-4.58,4.58 -7.14,7.16 -11.73,11.73 -2.79,2.78 -3.13,3.02 -5.94,5.79l-59.02 116.89c-1.3,4.09 -1.65,-1.85 -2.48,9.25 -1.19,15.91 -1.55,10.78 -3.52,19.93 -2.45,11.37 -0.65,1000.9 0,1003.89 1.97,9.16 2.32,4.04 3.52,19.94 0.86,11.44 1.21,5.06 2.53,9.19 1.91,5.99 0.81,3.87 1.45,10.28 0.32,3.27 -0.08,1.81 0.75,5.12l16.17 44.41c0.17,0.45 0.38,0.96 0.56,1.4l26.33 42.08c11.05,15.26 13.59,16.98 27.46,31.19 3.56,3.65 5.47,6.87 10.72,8.78z"/>
  <path fill="#866AF6" d="M2567.61 943.96c2.4,-8.1 4.52,-15.09 6.5,-22.88 1.66,-6.54 2,-17.86 8.43,-20.93l57.46 178.96c-38.9,0.74 -78.22,-2.29 -117.15,0.62l44.76 -135.77zm-15.02 -175.25c-31.46,7.13 -26.75,24.21 -45.02,80.23l-92.14 285.04c-9.79,31.8 -20.77,62.89 -30.97,94.01 -6.21,18.94 -9.75,37.88 15.61,39.08 11.5,0.54 54.14,2.04 60.93,-3.37 12.01,-9.58 23.19,-74.83 35.71,-89.08 10.18,-11.59 99.6,-5.96 122.33,-5.87 65.93,0.26 50.45,-9.71 71.66,55.22 3.53,10.83 9.41,38.06 19.35,42.04 4.34,1.74 52.08,2.51 58.69,1.61 20.54,-2.78 18.63,-19.41 13.24,-38.06 -12.47,-43.13 -32.47,-98.18 -46.33,-143.2 -29.13,-94.59 -63.08,-191.67 -91.61,-285.56 -5.53,-18.19 -9.93,-29.5 -29.57,-32.32 -16.02,-2.3 -47.7,-2.99 -61.88,0.23z"/>
  <path fill="#5B74FE" d="M3338.13 468.35c31.63,79.76 20.36,178.15 21.53,267.53 0.55,41.89 2.43,262.01 -1.6,287.37 -18.42,5.44 -198.21,2.62 -242.55,2.66 -18.54,0.01 -64.21,-6.6 -64.81,13.13 -0.66,22.08 48.23,14.17 66.76,14.16 67.93,-0.06 180.61,-2.13 239.52,2.07 5.84,32.18 2.3,309.75 2.48,366.68 0.35,114.24 7.41,190.51 -93.99,275.15 -58.66,48.98 -122.8,49.54 -192.96,50.66 -81.47,1.3 -164.66,0.27 -246.28,0.12 -81.41,-0.15 -162.95,0.32 -244.33,-0.23 -64.85,-0.44 -309.88,4.76 -362.26,-6.24 -37.91,-7.97 -56.17,-21.39 -84.12,-37.62 4.88,11.25 9.81,11.11 12.28,20.95 -9.21,-0.83 -2.81,-1.62 -11.71,-3.83 1.81,5.28 4.77,8 8.57,11.27l4.16 3.62c0.25,0.3 0.62,0.78 0.83,1.08 1.74,2.57 1.2,-0.94 2.05,5.41 -6.24,-1.9 -6.49,-4.21 -16.51,-8.56 -17,-7.4 -31.76,-20.21 -38.69,-24.08 -3.38,-1.88 -3.19,-5.23 -7.19,-0.38 2.49,6.72 -0.56,0.8 3.88,5.93l36.6 27.9c0.36,0.23 0.85,0.52 1.21,0.74l22.19 11.04c1.1,0.55 2.42,1.21 3.91,1.96l7.75 3.98c0.4,0.2 0.88,0.47 1.3,0.65l2.74 1.17c0.45,0.18 0.97,0.35 1.45,0.51 13.21,4.45 13.86,5.98 27.92,9.21l23.99 5.33c14.77,5.11 119.48,1.95 138.78,1.95 67.13,0 786.36,2.33 799.05,-0.39 11.43,-2.45 -2.84,-0.74 8.66,-3.06 3.55,-0.71 5.72,-0.19 9.11,-0.66l8.96 -2.78c3.77,-1.04 4.67,-0.63 8.32,-1.44 0.55,-0.12 1.05,-0.24 1.58,-0.38l13.14 -4.45c0.47,-0.16 0.97,-0.36 1.44,-0.52l37.79 -16.94c2.65,-1.32 -0.06,0.01 2.61,-1.3l23.49 -13.65c0.4,-0.19 0.93,-0.41 1.33,-0.61l37.46 -30.96c9.45,-9.49 10.7,-13.95 21.51,-25.4l27.42 -42.94c0.87,-1.15 2.39,-2.83 2.63,-3.24l3.01 -8.72c0.16,-0.47 0.32,-1 0.49,-1.46 0.16,-0.46 0.37,-0.97 0.55,-1.41 0.17,-0.43 0.42,-0.92 0.61,-1.34l14.53 -40.2c0.14,-0.47 0.4,-0.93 0.55,-1.4 0.42,-1.28 0.4,1.07 1.47,-4.39 0.54,-2.74 0.24,-2.92 0.46,-5.41 0.54,-6.07 -0.33,-3.07 1.38,-8.4 3.18,-9.92 2.53,-17.93 2.53,-30.69l0 -983.17c0.03,-8.2 0.65,-15.95 -1.95,-23.46 -0.64,-1.86 -0.27,1.74 -1.5,-4.36 -0.81,-4.04 -0.12,-6.76 -0.92,-10.82 -0.11,-0.55 -0.26,-1.03 -0.39,-1.56l-3.95 -15.59c-0.14,-0.51 -0.32,-1 -0.47,-1.49l-3.47 -10.21c-0.16,-0.47 -0.35,-0.97 -0.51,-1.44l-3.33 -10.36c-1.43,-4.15 -0.07,-0.66 -1.68,-4.18l-7.24 -13.87c-0.26,-0.38 -1.56,-1.84 -1.96,-2.35 -6.16,-1.72 -1.61,-2.3 -4.91,0.01l9.97 33.54c0.61,6.99 -3.58,1.48 2.05,11.97 2.92,5.42 -1.1,-2.49 1.48,2.49l4.97 18.35c-1.02,-0.73 -3.21,-1.83 -4.74,-2.88 -8.36,-5.72 3.95,-0.88 -6.18,-5.74 -3.56,-1.71 -1.93,-1.03 -6.5,-1.14l-0.05 -11.63 -9.98 -3.92c0,-0.67 -1.58,-28.94 -5.08,-19.61l-6.64 2.27z"/>
  <path fill="#D6CFFE" d="M4616.18 1357.45c-7.49,-8.69 -27.6,-21.25 -38.74,-29.24 -20.49,-14.72 -67.13,-43.01 -81.61,-55.16 -32.63,-27.37 -60.48,-25.41 -60.9,-73.88l1.27 -199.37c-9.64,-0.86 -42.98,8.6 -52.84,12.99 -7.46,3.32 -15.57,7.18 -21.78,11.48 -34.61,23.99 -28.76,17.81 -53.2,46.39 -8.61,10.06 -18.87,26.41 -25.82,40.53 -49.79,101.14 -25.04,218.53 61.15,286.52 4.11,3.24 5.39,5.13 9.86,7.79 62.76,37.45 124.5,45.83 192.99,12.75 19.17,-9.26 61.4,-45.91 69.62,-60.8z"/>
  <path fill="#5B74FE" d="M4435.09 994.01l4.86 1.15 0.6 203.98c0.25,33.55 3.67,30 23.16,45.6l141.33 97.04c12.09,8.52 16.97,7.8 20.21,13.71l-2.62 5.82c8.97,0.16 -25.02,34.1 -26.96,35.75 -12.3,10.45 -23.71,20.06 -40.89,29.63 -65.76,36.63 -162.22,25.66 -216.68,-19.3 -34.64,-28.61 -18.03,-14.58 -43.87,-44.35l-20.66 -31.96c-37.85,-75.28 -36.2,-152.11 -0.97,-225.62 7.34,-15.31 32.52,-51.86 43.88,-61.83 6.25,-5.47 12.52,-10.15 19.43,-15.92 19.07,-15.9 75.86,-40.47 93.23,-37.81 6.17,0.94 4.79,-1.72 5.95,4.11zm42.78 3.79l39.63 7.28c0.56,0.13 1.08,0.18 1.66,0.29 3.15,0.62 3.26,0.11 6.75,1.07 8.01,2.18 12.55,6.02 19.72,9.6l48.16 30.03c11.87,7.45 21.49,20.5 25.48,27.29l11.75 15.61c0.22,0.37 0.49,0.88 0.72,1.23l5.05 6.69c0.23,0.35 0.52,0.84 0.74,1.21 0.14,0.23 1.9,3.75 1.97,3.89l17.8 36.93c0.16,0.49 0.27,1.03 0.43,1.53l7.99 35.01c2.03,14.26 1.54,-2.13 3.61,12.03 1.89,12.99 0.79,37.85 0.23,50.87l-2.09 9.63c-2.37,6.69 -1.08,12.46 -2.35,19.16l-9.35 27.79c-0.17,0.42 -0.42,0.92 -0.61,1.34l-7.24 14.26c-0.79,1.57 -0.22,-0.9 -1.96,3.9l-7.82 0c-2.36,-6.53 -11.19,-10.45 -17.04,-14.22l-57.23 -36.6c-0.37,-0.22 -0.9,-0.46 -1.26,-0.69 -0.37,-0.22 -0.88,-0.49 -1.24,-0.72l-2.29 -1.61c-2.23,-1.62 -3.17,-2.57 -4.44,-3.38 -2.73,-1.76 -2.27,-1.07 -4.99,-2.83l-37.86 -26.64c-0.37,-0.22 -0.88,-0.49 -1.24,-0.72 -0.35,-0.23 -0.83,-0.54 -1.17,-0.78 -0.34,-0.23 -0.79,-0.59 -1.12,-0.84l-17.71 -13.56c-5.48,-5.47 -10.85,-11.17 -12.37,-18.9 -2.19,-11.19 1.88,-24.9 1.85,-33.03l-1.24 -5.61c0.1,-4.84 5.22,-13.86 2.46,-27.26 -0.11,-0.53 -0.31,-1.04 -0.43,-1.52l-1.21 -3.61c-0.03,-0.23 -0.1,-0.76 -0.1,-0.98l0.84 -3.24c2.01,-7.84 3.54,-80.57 1.04,-92.15 -3.1,-14.39 -3.52,-5.12 -3.52,-27.75zm-54.73 -44.96c-3.83,2.43 -16.88,3 -19.58,3.88 -0.46,0.15 -0.92,0.41 -1.39,0.56l-17.13 4.37c-2.45,0.82 -3.58,0.96 -6.01,1.81 -0.46,0.17 -0.99,0.34 -1.44,0.51l-66.46 35.18c-11.9,7.56 -24.64,24.05 -34.59,33.82l-11.13 14.29c-2.94,4.63 -7.49,7.38 -10.46,13l-21.44 39.14c-0.19,0.44 -0.39,0.95 -0.56,1.4l-2.72 9c-0.17,0.45 -0.38,0.96 -0.57,1.39 -0.18,0.43 -0.43,0.93 -0.62,1.34 -0.19,0.41 -0.47,0.89 -0.67,1.29 -0.08,0.17 -1.3,2.34 -1.39,2.51 -0.2,0.4 -0.48,0.88 -0.67,1.29l-12.93 45.71c-2.24,7.01 -0.13,14.11 -1.73,21.72 -0.11,0.54 -0.29,1.02 -0.43,1.52 -3.88,13.79 -2.97,22.87 -3.11,37.98l2.57 20.89c2.72,8.11 1.09,18.66 3.89,27.38 0.16,0.48 0.39,0.94 0.52,1.44l2.17 15.42c0.14,0.48 0.38,0.95 0.54,1.41l4.54 13.06c0.16,0.47 0.35,0.97 0.51,1.45l8.69 24.53c0.19,0.4 0.47,0.89 0.67,1.29l1.98 3.88c0.78,1.53 1.84,3.67 2.61,5.21 0.04,0.07 1.27,2.53 1.3,2.6l3.91 7.82c0.2,0.4 0.45,0.9 0.65,1.3 1.32,2.66 -0.01,-0.05 1.3,2.62 0.2,0.4 0.45,0.9 0.64,1.31l30.98 43.3c11.7,11.67 29.02,30.95 36.81,35.5 0.38,0.22 0.91,0.45 1.29,0.67 5.85,3.33 4.24,4.73 13.04,10.42 1.48,0.96 3.67,1.94 5.15,2.67 0.54,0.26 2.1,1 2.64,1.26 0.92,0.44 2.58,1.27 3.93,1.94l3.91 1.95c0.4,0.2 0.9,0.45 1.3,0.65l25.99 13.11c0.4,0.2 0.89,0.47 1.3,0.65l65.99 14.16c13.57,-0.12 21.1,7.61 35.67,2.65 5.4,-1.84 -3.55,-0.18 5.66,-2.16 9.75,-2.1 22.58,0.24 32.31,-2.87l11.36 -2.32c0.51,-0.14 1,-0.32 1.49,-0.47 0.48,-0.14 0.96,-0.36 1.43,-0.52l32.51 -12.45c1.53,-0.78 3.67,-1.84 5.21,-2.61l15.65 -7.8c15.62,-7.62 20.48,-14.75 30.01,-20.81 15.83,-10.05 28.26,-25.39 41.67,-38.47 2.39,-2.32 1.92,-1.52 3.94,-3.88l6.04 -9.59c7.12,-10.41 16.19,-21.48 21.99,-32.74 0.21,-0.4 0.43,-0.92 0.63,-1.33l25.55 -72.17c1.27,-6.44 -0.27,-7.25 1.84,-13.81 4.95,-15.42 5.28,-69.85 1.17,-82.11l-1.72 -4.14c-1.04,-3.77 -0.7,-2.94 -0.86,-6.96 -0.1,-2.52 0.23,-5.19 -0.1,-7.72l-3.54 -12.09c-0.62,-3.09 -0.24,-3.29 -1.13,-6.69 -0.13,-0.51 -0.32,-1 -0.47,-1.49 -0.14,-0.48 -0.36,-0.96 -0.52,-1.43l-11.13 -29.92c-2.93,-5.71 1.59,3.17 -1.32,-2.59l-20.23 -36.45c-0.3,-0.5 -1.07,-2.04 -1.34,-2.57 -0.2,-0.4 -0.42,-0.93 -0.62,-1.33 -0.2,-0.41 -0.42,-0.94 -0.61,-1.35l-1.23 -2.68c-3.62,-7.29 -9.5,-12.54 -13.82,-19.41l-14.28 -15.04c-2.6,-2.61 -5.21,-5.21 -7.81,-7.82l-33.77 -26.83c-0.35,-0.22 -0.84,-0.53 -1.18,-0.77l-27.6 -15.4c-0.4,-0.2 -0.9,-0.45 -1.3,-0.65l-20.2 -9.12c-6.55,-2 -11.4,-6.2 -17.98,-7.44l-28 -5.23c-20.69,-5.79 -39.49,-2.83 -61.6,-3.04 -5.44,-0.06 -11.5,-0.55 -15.56,2.02z"/>
  <path fill="#5B74FE" d="M5056.43 270.69l0 3.9c-6.77,2.46 -0.74,-0.62 -5.92,3.85l-68.39 72.34c-0.3,0.28 -0.73,0.66 -1.03,0.94 -4.82,4.59 -6.53,2.63 -6.75,12.79l-7.82 0c-0.24,10.65 -12.7,18.56 -19.55,25.41 -7.41,7.41 -17.39,14.87 -22.79,24.12l-3.6 6.17c-2.28,2.93 -1.36,1.5 -2.84,3.02l-48.98 48.75c-1.9,1.85 -4.04,3.68 -5.68,6.05l-3.47 6.3c-9.71,15.48 -27.53,25.09 -38.7,39.48l-4.3 7.43c-0.65,1.04 -2,2.8 -2.49,3.38l-16.8 14.47c-0.4,0.2 -0.89,0.47 -1.3,0.66l-36.87 0.63c-0.43,-0.18 -0.92,-0.44 -1.33,-0.63 -0.54,-0.26 -2.05,-1.06 -2.56,-1.35 -0.38,-0.21 -0.88,-0.48 -1.25,-0.71 -0.36,-0.22 -0.86,-0.5 -1.21,-0.73 -10.08,-6.69 -19.18,-18.58 -27.67,-27.07 -14.51,-14.51 -46.93,-42.75 -56.38,-58.94 -6.94,-11.9 -35.52,-36.92 -46.24,-47.58l-13.09 -16.23c-0.64,-1.03 -2,-2.81 -2.49,-3.38 -7.68,-8.93 -22.04,-24.68 -32.55,-29.99 -25.83,-13.04 -12.46,-5.66 -33.93,-12.99l-15.21 -1.6c-0.56,0.13 -1.03,0.31 -1.57,0.46 -0.5,0.15 -0.95,0.39 -1.44,0.55l-30.16 8.97c-0.42,0.19 -0.92,0.43 -1.33,0.63 -12.52,6.14 -47.66,45.39 -58.8,56.52 -2.6,2.6 -3.27,3.26 -5.88,5.85l-8.63 8.96c-0.24,0.34 -0.53,0.84 -0.75,1.2 -0.23,0.37 -0.48,0.89 -0.69,1.26 -0.22,0.38 -0.45,0.91 -0.67,1.29 -0.22,0.38 -0.45,0.91 -0.67,1.29 -9.2,15.78 -34.81,32.89 -43,46.91 -4.16,7.13 -11.17,12.51 -16.92,18.26 -9.73,9.72 -19.49,18.31 -26.77,29.91 -4.59,7.32 -12.19,12.96 -18.19,18.95l-39.76 42.34c-0.21,0.37 -0.46,0.9 -0.69,1.26l-15.26 16.01c-7.03,7.03 -16.78,14.54 -21.81,23.15l-1.33 2.58c-0.22,0.37 -0.46,0.9 -0.69,1.26l-15.32 15.96c-1.79,1.75 -4.18,4.21 -5.47,6.25 -1.43,2.27 -0.7,1.17 -2,3.87 -0.2,0.41 -0.4,0.94 -0.6,1.36 -0.26,0.54 -0.92,2.18 -1.2,2.7 -4.04,7.64 1.88,3.5 -5.33,6.4l0 7.82c5.71,2.31 7.63,6.95 7.82,15.64 6.68,0 5.09,-0.39 10.44,1.43 2.48,0.85 -0.01,4.27 10.22,1.92 9.05,-2.07 16.1,-10.81 22.35,-17.03 1.06,-1.07 1.22,-1.26 2.93,-2.93l6.68 -7c0.24,-0.34 0.53,-0.85 0.75,-1.2 10.46,-16.67 26.2,-29.64 40.49,-43.57l14.56 -18.66c14.87,-14.65 30.57,-27.11 41.49,-44.51 2.03,-3.23 4.17,-5.05 6.43,-7.26 2.5,-2.44 3.95,-3.91 6.86,-6.82l19.64 -19.45c0.95,-1.03 2.35,-2.68 2.7,-3.17l7.89 -11.66c11.1,-11.26 36.12,-32.24 43.68,-44.27l27.75 -30.89c0.95,-0.93 2.94,-2.79 3,-2.86 1.49,-1.51 0.57,-0.08 2.85,-3.02l11.73 -15.63c2.84,-2.78 4.53,-4.49 6.84,-6.84l16.91 -12.41c5.87,-2.97 10.21,-5.95 18.22,-5.42 9.48,0.62 7.04,0.91 13.16,4.73 0.36,0.22 0.85,0.53 1.19,0.76l3.31 2.56c1.71,1.3 1.93,1.59 3.36,2.5l17.46 15.77c14.75,25.3 58.85,54.21 76.3,82.02 2.03,3.22 4.17,5.05 6.43,7.25 20.79,20.27 62.5,68.17 84.69,79.5 0.53,0.28 2,1.1 2.54,1.37l13.91 3.69c4.55,1.05 3.56,1.17 4.4,1.45 10.84,3.65 38.27,1.8 40.38,1.21 0.5,-0.13 0.99,-0.34 1.45,-0.5 0.45,-0.16 0.93,-0.41 1.36,-0.6l7.68 -4.05c11.61,-5.95 15.16,-7.23 24.44,-16.61 11.9,-12.04 25.01,-22.12 35.16,-35.2l2.27 -3.59c0.22,-0.38 0.45,-0.91 0.67,-1.29 11.62,-20.44 46.58,-41.74 57.97,-61.26l11.4 -14c2.88,-2.84 4.48,-4.46 6.86,-6.83l26.39 -26.38c2.92,-2.91 4.37,-4.38 6.87,-6.82l17.55 -21.54c4.59,-4.5 9.14,-9.12 13.69,-13.67 9.08,-9.09 22.95,-19.59 29.91,-30.68 0.23,-0.36 0.48,-0.89 0.7,-1.26 0.22,-0.38 0.45,-0.91 0.66,-1.29 0.22,-0.38 0.45,-0.91 0.67,-1.29l5.12 -6.61c7.78,-7.9 33.02,-36.08 41.12,-39.01 0,7.97 -1.22,21.5 0.7,28.62 1.92,7.08 8.47,11.21 11.03,18.29l19.55 0c2.12,-5.25 0.27,-1.74 5.1,-4.67 0.36,-0.23 0.9,-0.46 1.28,-0.67l5.34 -2.48c0,-22.44 3.92,-3.32 3.91,-50.82 0,-9.12 -0.02,-18.25 0.01,-27.37 0.03,-9.11 0.5,-16.56 -2.39,-24.97 -1.98,-5.74 -2.71,-10.62 -7.1,-14.4l-3.51 -2.36c-0.44,-0.19 -0.95,-0.37 -1.43,-0.52 -4.5,-1.43 -6.34,-0.56 -11.51,-2.18 -12.49,-3.91 -25.2,-2.45 -38.57,-2.48 -4.59,-0.01 -9.4,-0.23 -13.9,-0.21 -5.78,0.02 -9.63,-0.54 -11.51,4.13l-15.63 -3.91c-2.35,5.8 0.87,1.1 -4.37,3.45 -2.7,1.2 -2.06,0.07 -5.95,1.87 -5.26,2.43 -8.46,7.84 -10.81,12.79 -1.58,3.33 -3.05,1.14 -2.11,8.84 0.68,5.57 1.85,6.03 4.95,10.87l32.81 10.94c0.27,0.04 0.82,0.2 1.12,0.26l7.81 1.8z"/>
  <path fill="#866AF6" d="M1524.45 1087.72c-5.99,-4.45 -3.04,-30.15 -3.15,-39.1 -0.62,-52.72 -4.37,-49.31 12.73,-48.98l150.72 0.16c46.57,-0.7 38.04,-27.84 44.94,-41.69 8.09,3.38 6.9,4.26 11.54,10.63l30.96 31.53c12.91,13.04 6.62,1.25 20.28,20.77 6.93,9.88 12.17,9.01 20.61,21.71l-31.64 38.1c-19.01,11.84 -26.3,26.18 -43.45,44.43 -5.69,6.04 -4.48,6.34 -8.31,13.24 -5.85,-5.41 -3.15,-1.83 -4.33,-9.74 -0.02,-0.14 0.11,-6.24 0.03,-7.55 -0.79,-12.28 -7.92,-22.43 -19.68,-27.54 -16.16,-7.01 -98.88,-4.02 -122.6,-4.02 -7.82,0 -55.66,2.06 -58.65,-1.95zm166.15 -136.83c-2.37,5.87 4.28,2.9 -7.6,4.13 -17.36,1.79 -139.07,-0.21 -166.47,-0.34 -3.84,-0.01 -7.37,-0.14 -10.92,0.82 -4.45,1.2 -0.48,-0.02 -4.16,1.7 -0.09,0.04 -4.44,2.4 -5.02,2.79l-9.29 8.31c-4.26,4.99 -3.19,10.06 -5.16,16.34l-1.14 2.77c-4.61,14.42 -1.18,87.25 -1.41,108.19 -0.03,3.08 -0.17,8.5 0.39,11.34l2.75 7.03c3.54,6.87 9.97,9.55 12.57,16.74l27.37 0c3.04,7.91 2.61,0.45 9.62,0.34 11.69,-0.18 1.34,-0.06 5.89,1.51 2.95,1.02 17.84,3.67 35.38,2.13l38.05 -1.82c23.82,-3.11 15.32,-2.01 42.02,-2.17l17.22 0.38c9.2,1.85 -0.8,-0.26 5.8,2.02l8.79 2.93c7.58,3.84 2.32,3.91 9.23,6.41l0 19.55c-8.94,3.6 0.01,-1.35 -5.34,6.38 -7.88,11.39 -19.67,18.19 -26.6,30.09l-6.05 7.62c-0.29,0.29 -0.7,0.69 -0.99,0.97 -1.4,1.35 -0.35,0.74 -3.05,2.82 -3.01,2.33 -0.79,1.45 -4.88,2.94l0 19.54c5.18,2.09 3.65,-4.02 3.91,7.82l6.62 1.2c0.37,0.18 0.9,0.47 1.25,0.71l3.86 5.91 23.45 0c1.69,-4.66 4.05,-6.16 7.79,-9.81l25.6 -29.13c0.33,-0.47 1.36,-1.74 1.74,-2.17l25.47 -25.34c0.63,-0.62 1.62,-1.52 2.99,-2.88 6.66,-6.55 9.96,-14.01 20.46,-24.49 11.42,-11.4 25.63,-22.31 33.9,-36.47 0.21,-0.38 0.46,-0.9 0.69,-1.27l2.49 -3.37c2.28,-2.65 0.14,-0.19 2.93,-2.94l47.65 -53.98c0.56,-1.56 0.63,-2.53 1.34,-4.61 0.17,-0.49 0.38,-0.97 0.55,-1.46 3.91,-11.07 0.86,-11.54 -3,-19.58l-2.5 -9.24 -7.82 0 -1.97 -7.8c-4.9,-8.28 -16.54,-16.3 -23.52,-23.39l-11.57 -15.8c-10.91,-11.07 -22.57,-20.7 -30.75,-33.74l-41.65 -42.4c-13.05,-12.99 -12.07,-16 -30.28,-34.22l-12.75 -12.66c-3.74,-3.66 -6.1,-5.16 -7.79,-9.81l-23.45 0c-2.57,6.36 -6.84,3.22 -11.26,10.24 -3.17,5.05 -5.4,10.29 -4.21,16.66 0.1,0.57 0.27,1.07 0.42,1.61 2.66,9.73 9.59,12.86 14.38,21.02 0.22,0.38 0.45,0.91 0.67,1.29l30.1 40.31c6.94,19.52 -2.45,18.21 -2.74,18.33z"/>
  <path fill="#5B74FE" d="M3789.08 1137.84c1.16,-28.19 -1.93,-48.17 -32.46,-48.17 -55.54,0 -126.18,-1.41 -179.99,0.61 -1.2,-1.92 -0.68,0.22 -1.7,-4.67 -0.41,-1.96 -0.75,-5.53 -0.87,-7.58 -1.01,-16.58 -2.4,-67.67 0.88,-78.28 23.24,-0.06 185.12,2.01 198.69,-2.21 19.11,-5.92 13.48,-22.98 17.28,-39.66 5.52,1.74 8.49,3.7 11.77,7.64 11.49,13.78 18.81,19.68 32.95,33.4 12.72,12.34 19.67,24.03 30.74,33.68 9.62,8.38 13.67,12.35 0.16,26.3 -5.35,5.53 -5.55,2.6 -11.59,9.82 -3.74,4.48 -5.67,8.79 -8.92,12.64 -6.57,7.78 -5.15,1.01 -13.26,10.12l-29.95 34.56c-6.67,8.17 -3.11,9.07 -13.73,11.8zm-77.42 -284.68l0 19.54c4.05,1.64 19.56,25.63 25.41,31.28l8.42 9.17c1.8,2.84 0.95,2.2 2.77,5.05l10.37 22.67c-1.58,14.6 -3.59,-2.99 -3.97,13.93l-199.37 0c-2.68,6.65 1.28,1.7 -6.25,5.47 -5.04,2.52 -0.11,2.14 -9.38,2.35 -0.3,13.16 -4.06,7.5 -4.02,21.38 0.06,23.43 -2.9,120.73 2.5,132.6 0.25,0.55 1.01,2.09 1.3,2.6 0.21,0.39 0.46,0.91 0.68,1.28 3.8,6.21 9.38,8.73 15.49,9.92 17.03,3.32 153.42,-2.92 177.47,0.4 6.41,0.88 16.17,3.82 19.54,7.81l1.46 2.46c2.76,3.98 -0.36,3.32 4.49,5.28l0 15.64c-4.33,1.56 -3.91,1.28 -6.54,5.17l-30.56 33.95c-3.65,3.74 -5.15,6.1 -9.81,7.79l0 27.36c3.4,1.23 1.96,0.79 3.79,2.08l7.94 9.65 23.46 0c3.01,-8.33 -2.97,3.13 1.21,-2.69 2.93,-4.08 5.64,-5.02 10.51,-5.13 0.06,-2.42 -0.18,-1.58 0.39,-3.52 2.52,-8.53 13.11,-15.83 19.16,-21.89l20.59 -20.46c2.79,-2.75 0.64,-0.28 2.93,-2.93l5.2 -8.48c0.23,-0.36 0.51,-0.86 0.75,-1.21l26.24 -26.53c16.19,-16.18 11.86,-15.87 26.38,-30.3l17.59 -17.59c2.03,-2.02 3.82,-3.81 5.9,-5.84 1.9,-1.85 4.03,-3.68 5.68,-6.05l1.44 -2.46c5.64,-9.67 14.4,-16.76 22.25,-24.66 8.26,-8.32 12.06,-17.98 9.4,-31.03l-32.34 -41.97c-7,-11.15 -24.23,-25.17 -33.86,-34.56l-12.59 -16.72c-12.93,-13.87 -29.31,-24.91 -38.86,-41.28 -8.82,-15.1 -26.25,-23.78 -35.18,-39.09 -1.74,-2.98 -0.05,-0.73 -2.28,-3.59l-8.82 -8.78c-0.23,-0.22 -2.79,-2.68 -2.98,-2.88 -3.49,-3.73 -3.08,-2.15 -4.8,-6.92l-27.37 0c-1.85,5.11 -6.6,9.87 -11.73,11.73z"/>
  <path fill="#866AF6" d="M2849.08 1251.9c2.82,20.85 34.08,15.8 53.39,15.78 30.37,-0.04 33.43,-5.29 33.22,-35.33l-0.26 -273.64c1.13,-145.69 15.76,-154.11 -54.56,-151.57 -27.81,1 -32.31,7.24 -32.28,34.25l0.49 410.51z"/>
  <path fill="#5B74FE" d="M4200.31 814.07l0 7.81c7.13,2.88 -0.81,1.88 8.65,14.81 2.2,3.01 1.58,0.58 3.08,4.74l903.03 0c2.23,-5.52 -0.09,-0.82 4.04,-3.78 6.53,-4.69 13.88,-12.32 10.55,-22.24 -2.34,-6.96 -8.44,-10.78 -10.68,-16.98l-906.94 0c-1.21,3.34 -7.96,14.11 -11.73,15.64z"/>
  <path fill="#866AF6" d="M728.94 1032.98c0.24,-10.89 3.87,-9.69 9.84,-15.56l17.76 -36.97c1.44,-7.38 3.82,-13.42 3.71,-23.66 -0.25,-23.42 1.11,-28.1 -4.87,-46.03l-2.47 -7.3c-2.52,-8.05 -8.02,-15 -13.13,-22.06 -0.24,-0.33 -0.6,-0.77 -0.83,-1.11 -0.24,-0.35 -0.55,-0.83 -0.78,-1.18 -9.18,-14.41 -12.44,-14.9 -25.07,-23.79l-12.83 -6.73c-0.4,-0.2 -0.9,-0.45 -1.3,-0.65 -0.4,-0.2 -0.9,-0.45 -1.3,-0.65 -0.39,-0.21 -0.9,-0.46 -1.29,-0.67l-33.76 -9.24c-9.3,-0.14 -19.76,-0.56 -27.54,2.06 -0.46,0.15 -0.93,0.41 -1.39,0.56l-24.64 8.59c-8.48,4.25 -25.11,12.37 -30.49,20.33l-3.44 6.33c-0.23,0.36 -0.52,0.86 -0.76,1.2l-12.9 18.37c-4.9,9.77 -6.48,19.39 -9.37,29.73 -0.14,0.49 -0.34,0.97 -0.5,1.45 -0.15,0.47 -0.4,0.93 -0.56,1.39 -0.15,0.46 -0.43,0.92 -0.58,1.38 -3.94,12.28 -2.73,30.96 1.14,43.09 1.42,4.44 0.49,1.35 1.43,6.4l16.94 37.78 12.38 13.03c1.07,1.07 1.26,1.23 2.93,2.94l34.14 20.59c6.64,3.43 12.61,3.49 19.58,5.83 0.46,0.15 0.91,0.43 1.38,0.58 9.04,2.9 24.47,1.06 31.36,-1.14l40.26 -14.47c4,-2.59 4.6,-4.48 7.03,-6.65l9.92 -3.77z"/>
  <path fill="#F7F5FF" d="M3348.58 1064.27c2.2,12.94 0.03,138.61 0.21,164.17 0.41,55.4 -0.04,110.77 0.15,166.14 0.31,89.15 10.21,145.62 -27.13,219.93 -8.38,16.67 -16.44,25.15 -25.28,37.32l-9.77 11.71c-11.25,12.62 -29.82,27.55 -44.84,37.31 -66.53,43.23 -131.94,36.71 -212.41,36.02 -220.83,-1.88 -441.33,1.65 -662.61,-0.24 -53.44,-0.46 -107.16,4.64 -157.35,-8.88 -46.92,-12.64 -100.74,-54.23 -121.58,-85.5 -37.52,-56.31 -42.57,-95.46 -43.22,-161.66 -0.6,-61.36 -2.98,-409.31 1.44,-414.31 2.81,-3.19 230.84,-1.16 244.48,-1.22 20.46,-0.09 60.15,7.62 58.66,-26.13 -1.27,-29.04 -31.88,-25.17 -56.71,-25.32l-164.19 0c-24.73,0.06 -58.11,2.14 -81.24,0.9 -6.05,-15.06 -1.63,-363.06 -2.24,-411.54 -0.43,-34.19 -0.24,-63.61 7.14,-95.97 5.62,-24.67 18.16,-50.68 32.94,-70.64l23.02 -27.76c32.74,-29.63 50.03,-45.82 98.16,-59.92 52.54,-15.39 139.42,-8.71 197.82,-9.14 207.01,-1.53 417.77,0.05 625.48,-0.36 66.2,-0.13 130.03,-6.17 188.04,19.17 45.98,20.09 83.28,55.99 105.89,102.99 30.34,63.06 24.87,111.57 25.45,182.68l0.13 363.91c-1.84,13.18 -4.58,6.22 -43.91,5.98 -69.64,-0.42 -139.48,-0.03 -209.15,-0.13 -15.13,-0.02 -33.1,-2.55 -45.08,5.4 -11.18,7.41 -13.99,22.69 -5.43,34.98 9.13,13.12 23.36,11.18 40.74,10.87l156.37 -0.21c32.16,-0.3 75.22,-2.45 106.02,-0.55zm-1303.15 -5.21l-5.52 0.3 -1.11 4.33c-3.53,109.75 0.05,224.43 -0.28,334.8 -0.37,128.79 -11.78,178.68 63.6,270.66 17.16,20.93 64.15,52.64 104,64.12 46.42,13.36 108.46,8.22 158.82,8.33l668.48 0.01c52.56,-0.2 109.68,4.59 158.39,-10.74 43.62,-13.73 83.34,-41.55 110.66,-77.01 3.55,-4.6 5.69,-7.31 9.29,-12.17 5.5,-7.41 10.48,-16.2 15.44,-25.63 9.85,-18.76 17.52,-39.47 22.32,-61.57 9.05,-41.57 4.67,-116.21 4.68,-161.86 0.02,-56.03 0.13,-112.07 0.02,-168.1 -0.09,-52.82 2.85,-114.09 -0.3,-165.82l-246.23 0.37c-23.88,-0.08 -62.83,7.99 -62.11,-20.21 0.65,-25.66 41.21,-18.6 64.07,-18.52 27.36,0.09 54.72,-0.16 82.09,-0.06 53.87,0.21 108.45,0.94 162.19,0.74l0.4 -169.83c-0.07,-65.87 4.18,-281.88 -5.13,-331.41 -9.48,-50.43 -27.03,-77.32 -54.99,-113.16 -4.9,-6.28 -6.21,-5.16 -11.12,-10.31l-10.94 -10.62c-7.68,-6.41 -14.11,-12.2 -23.04,-17.95 -18.88,-12.14 -34.22,-18.79 -57.92,-26.15 -41.98,-13.03 -113.45,-8.28 -159.73,-8.34l-672.38 -0.02c-105.55,-0.11 -181.96,-9.74 -260.03,76.19 -73.39,80.77 -60.51,149.17 -60.49,275.63 0.01,112.07 0.86,224.54 -0.31,336.55 53.68,-1.17 106.85,-0.84 160.55,-1.04 26.71,-0.09 53.43,-0.14 80.14,-0.07 22.95,0.06 61.5,-7.53 64.82,16.58 1.86,13.51 -7.51,21.61 -19.69,22.3 -12.19,0.7 -26.74,-0.35 -39.27,-0.32 -37.94,0.08 -218.76,-1.77 -239.37,0z"/>
  <path fill="#866AF6" d="M932.22 767.16l134.91 -0.05c5.95,1.2 3.75,-1.17 5.82,3.95 4.15,1.68 4.29,-0.27 4,15.55l0 117.46c0.29,15.78 0.14,13.87 -4,15.54 -1.08,2.68 1.68,4.27 -13.53,4.07l-117.48 -0.11c-5.94,-1.21 -3.75,1.17 -5.82,-3.96 -4.15,-1.67 -4.29,0.28 -3.99,-15.54l0.09 -136.91zm-23.46 199.37l19.55 0c2.21,5.49 -1.77,3.71 9.52,4.16 19.19,0.77 138.56,0.65 145.56,-1.54l11.6 -4.04c0.34,-0.17 2.9,-2.01 3.45,-2.41 13.25,-9.65 9.18,-1.53 18.96,-22.09 0.19,-0.4 0.48,-0.88 0.65,-1.3l1.96 -9.77c0.62,-17.12 2.33,-165.45 -1.99,-178.14 -0.15,-0.46 -0.39,-0.94 -0.55,-1.4l-7.27 -14.23c-0.29,-0.29 -0.72,-0.67 -1.01,-0.95l-14.62 -10.79c-7.95,-2.59 -8.27,-3.81 -17.57,-3.93l-133.07 0.13c-13.8,-0.13 -11.37,-1.02 -21.04,2.42 -12.42,4.4 -18.05,5.13 -26.85,16.15 -2.06,2.57 -1.35,1.64 -3.08,4.74 -7.36,13.17 -0.11,6.62 -6.83,30.3 -1.87,6.56 -2.93,141.68 1.09,153.63 4.86,14.46 -0.49,15.57 14.75,30.21l6.79 8.85z"/>
  <path fill="#866AF6" d="M740.66 1412.17l-0.04 -146.64c1.2,-5.94 -1.17,-3.75 3.95,-5.81 2.13,-5.26 -1.16,-1.89 4.23,-3.6 1.22,-0.39 7.69,-0.49 9.31,-0.47l111.65 0.07c15.78,-0.3 13.87,-0.15 15.55,4 4.15,1.67 4.29,-0.28 4,15.54l-0.05 127.19c-1.2,5.94 1.17,3.75 -3.95,5.82 -1.08,2.67 1.68,4.26 -13.53,4.06l-131.12 -0.16zm179.83 35.19c0.2,-9.23 0.15,-5.11 3.8,-9.88l5.52 -8.16c5.52,-11.62 2.41,-70.19 2.41,-91.42 0,-27.68 3.97,-78.25 -4.21,-101.34 -2.89,-8.17 -5.51,-7.8 -13.35,-15.98l-1.88 -2.02c-5.74,-5.82 -6.45,-4.71 -15.63,-7.83 -0.46,-0.16 -0.93,-0.4 -1.4,-0.55 -0.48,-0.15 -0.95,-0.37 -1.45,-0.51 -7.7,-2.03 -156.68,-1.81 -164.08,0.51l-4.24 1.62c-8.41,2.8 -5.86,-0.1 -15.64,9.78 -2.78,2.81 -4.68,4.22 -6.7,6.98 -0.24,0.33 -0.55,0.82 -0.78,1.17l-2.79 5.02c-5.33,11.39 -2.41,135.03 -2.41,155.92 0,8.85 -0.73,21.01 -0.09,29.42 0.39,5.13 -0.12,2.44 1.29,6.53 3.4,9.88 10.54,14.71 17.29,21.8l6.25 5.47c21.5,9.62 122.79,5.05 149.23,5.2 9.47,0.06 12.45,1.12 20.15,-1.34l5.81 -2.02c2.9,-0.65 4.31,-0.28 6.87,-0.94 4.93,-1.27 1.71,-0.04 5.26,-2.57 8.2,-5.86 -3.44,-4.55 10.77,-4.86z"/>
  <path fill="#866AF6" d="M494.38 1549l0 23.45c-4.67,1.89 -4.41,-1.11 -4.41,9.78 0,10.88 -0.26,7.88 4.41,9.77l0 125.09c4.11,1.49 1.87,0.57 4.89,2.94 3.75,2.93 9,7.87 10.75,12.7l23.46 0c0.16,0.41 -1.31,5.28 11.58,4.2 15.64,-1.31 -9.36,-4.2 45.1,-4.2l48.96 0.09c5.13,-0.39 2.45,0.12 6.53,-1.28l18.34 -16.85c5.4,-11.57 0.21,-19.41 3.22,-30.01l2.27 -5.54c5.68,-19.98 -3.05,-30.74 -3.23,-44 -0.08,-5.77 0.14,-11.89 0.14,-17.73 0,-14.05 2.36,-52.83 -1.19,-63.31 -2.65,-7.81 -5.48,-11.06 -12.92,-14.45 -11.05,-5.02 -88.27,-2.38 -103.17,-2.38l-36.44 0.7 -12.43 7.11c-5.23,3.97 1.4,1.29 -5.86,3.92z"/>
  <path fill="#866AF6" d="M1147.22 1418.04l-7.52 2.25c-3.91,1.36 -1.66,0.25 -4.12,1.74l-4.14 3.68c-0.28,0.28 -0.69,0.7 -0.97,0.99l-8.21 11.33c-5.14,10.98 -2.4,32.06 -2.4,44.51 0,19.36 -2.97,80.8 0.78,95 0.13,0.5 0.35,0.97 0.5,1.45l1.1 2.8c0.16,0.47 0.37,0.97 0.53,1.44 2.64,7.93 0.82,6.87 7.68,13.81l3.93 3.9c5.95,4.32 6.69,1.52 15.32,4.22l101.15 2.51c12.82,0.14 10.04,0.77 19.06,-2.44l11.68 -3.96c0.42,-0.19 0.93,-0.42 1.34,-0.61l7.72 -5.96c0.24,-0.35 0.5,-0.88 0.71,-1.25l1.88 -3.98c0.2,-0.41 0.43,-0.93 0.63,-1.33 0.19,-0.41 0.44,-0.92 0.64,-1.32 0.26,-0.53 1.06,-2.04 1.34,-2.57l3.83 -43.07c0,-19.41 2.63,-78.58 -0.37,-93.45l-4.32 -13.27c-0.18,-0.44 -0.37,-0.97 -0.57,-1.38 -0.2,-0.4 -0.46,-0.91 -0.69,-1.28l-19.89 -13.33c-12.98,-4.46 -96.41,-3.41 -116.99,-2.53l-9.63 2.1z"/>
  <path fill="#322CF4" d="M2045.43 1059.06c20.61,-1.77 201.43,0.08 239.37,0 12.53,-0.03 27.08,1.02 39.27,0.32 12.18,-0.69 21.55,-8.79 19.69,-22.3 -3.32,-24.11 -41.87,-16.52 -64.82,-16.58 -26.71,-0.07 -53.43,-0.02 -80.14,0.07 -53.7,0.2 -106.87,-0.13 -160.55,1.04 1.17,-112.01 0.32,-224.48 0.31,-336.55 -0.02,-126.46 -12.9,-194.86 60.49,-275.63 78.07,-85.93 154.48,-76.3 260.03,-76.19l672.38 0.02c46.28,0.06 117.75,-4.69 159.73,8.34 23.7,7.36 39.04,14.01 57.92,26.15 8.93,5.75 15.36,11.54 23.04,17.95l10.94 10.62c4.91,5.15 6.22,4.03 11.12,10.31 27.96,35.84 45.51,62.73 54.99,113.16 9.31,49.53 5.06,265.54 5.13,331.41l-0.4 169.83c-53.74,0.2 -108.32,-0.53 -162.19,-0.74 -27.37,-0.1 -54.73,0.15 -82.09,0.06 -22.86,-0.08 -63.42,-7.14 -64.07,18.52 -0.72,28.2 38.23,20.13 62.11,20.21l246.23 -0.37c3.15,51.73 0.21,113 0.3,165.82 0.11,56.03 0,112.07 -0.02,168.1 -0.01,45.65 4.37,120.29 -4.68,161.86 -4.8,22.1 -12.47,42.81 -22.32,61.57 -4.96,9.43 -9.94,18.22 -15.44,25.63 -3.6,4.86 -5.74,7.57 -9.29,12.17 -27.32,35.46 -67.04,63.28 -110.66,77.01 -48.71,15.33 -105.83,10.54 -158.39,10.74l-668.48 -0.01c-50.36,-0.11 -112.4,5.03 -158.82,-8.33 -39.85,-11.48 -86.84,-43.19 -104,-64.12 -75.38,-91.98 -63.97,-141.87 -63.6,-270.66 0.33,-110.37 -3.25,-225.05 0.28,-334.8 -8.13,-4.83 -2.03,-1.13 -4.56,0.56 -2.61,122.17 0.17,246.94 -0.02,369.43 -0.1,64.71 -4.67,112.07 18.79,167.08 20.71,48.57 44.49,73.55 82.51,103.03 27.95,16.23 46.21,29.65 84.12,37.62 52.38,11 297.41,5.8 362.26,6.24 81.38,0.55 162.92,0.08 244.33,0.23 81.62,0.15 164.81,1.18 246.28,-0.12 70.16,-1.12 134.3,-1.68 192.96,-50.66 101.4,-84.64 94.34,-160.91 93.99,-275.15 -0.18,-56.93 3.36,-334.5 -2.48,-366.68 -58.91,-4.2 -171.59,-2.13 -239.52,-2.07 -18.53,0.01 -67.42,7.92 -66.76,-14.16 0.6,-19.73 46.27,-13.12 64.81,-13.13 44.34,-0.04 224.13,2.78 242.55,-2.66 4.03,-25.36 2.15,-245.48 1.6,-287.37 -1.17,-89.38 10.1,-187.77 -21.53,-267.53 -22.65,-57.58 -73.47,-107.37 -137.54,-128.73 -40.77,-13.59 -78.24,-10.41 -122.22,-10.49l-670.43 0.07c-44.31,-0.09 -88.63,0.44 -132.91,0.35 -63.91,-0.15 -125.28,20.66 -167.53,64.82 -5.93,6.2 -11.62,11.23 -16.03,17.26 -9.51,13.03 -18.27,22.66 -27.79,38.77 -33.68,56.95 -29.04,106.77 -29.34,172.11 -0.25,53.97 -2.91,394.95 2.27,400.42 5.29,5.58 198.01,2.19 232.55,2.6 23.65,0.28 62.82,-4.3 68.54,9.12 11.49,26.95 -37.97,19.01 -54.85,19.05 -75.28,0.22 -164.74,-2.16 -236.51,0.34 -2.6,3.72 -2.47,0.29 -0.91,5.02z"/>
  <path fill="#866AF6" d="M1123.77 356.69c0.97,-2.41 -1.7,-4.08 11.51,-4.13l107.77 0.17c5.94,1.21 3.74,-1.16 5.81,3.96 5.26,2.12 1.89,-1.17 3.6,4.22 0.3,0.97 0.52,6.05 0.53,7.29l-0.22 84.26c0,5.3 0.08,10.51 0.15,15.79 0.01,0.57 -0.09,7.67 -0.1,7.72 -1.21,5.94 1.16,3.75 -3.96,5.81l-125.09 3.91c-0.17,-7.65 -1.83,-4.02 -3.53,-12.11 -0.85,-4.04 -0.42,-12.68 -0.39,-17.2l-0.04 -93.88c1.21,-5.94 -1.17,-3.74 3.96,-5.81zm-31.28 -43l-1.93 7.83c-0.21,0.37 -0.56,0.82 -0.8,1.16l-8.99 6.64 0 19.55c-5.88,2.37 -2.9,-4.28 -4.13,7.6l1.56 131.79c0.15,0.47 0.42,0.92 0.57,1.38 3.21,9.53 1.32,14.2 7.97,23.3l6.71 6.98c7.44,7.45 4.29,5.71 11.88,9.62 0.39,0.2 0.89,0.47 1.29,0.66 10.83,5.07 88.71,2.4 101.2,2.4 19.85,0 42.93,2.87 58.2,-2.38 13.78,-4.74 12.01,-3.72 22.01,-17.09 2.98,-4 -1.6,-1.79 3.83,-3.98l0 -179.83c-9.48,-3.43 -6.12,-9.5 -13.45,-15.86l-9.46 -4.22c-0.49,-0.15 -1.01,-0.3 -1.5,-0.46l-153.4 -2.86c-9.72,1.29 -11.27,7.54 -21.56,7.77z"/>
  <path fill="#929AFE" d="M3789.08 1137.84c10.62,-2.73 7.06,-3.63 13.73,-11.8l29.95 -34.56c8.11,-9.11 6.69,-2.34 13.26,-10.12 3.25,-3.85 5.18,-8.16 8.92,-12.64 6.04,-7.22 6.24,-4.29 11.59,-9.82 13.51,-13.95 9.46,-17.92 -0.16,-26.3 -11.07,-9.65 -18.02,-21.34 -30.74,-33.68 -14.14,-13.72 -21.46,-19.62 -32.95,-33.4 -3.28,-3.94 -6.25,-5.9 -11.77,-7.64 -3.8,16.68 1.83,33.74 -17.28,39.66 -13.57,4.22 -175.45,2.15 -198.69,2.21 -3.28,10.61 -1.89,61.7 -0.88,78.28 0.12,2.05 0.46,5.62 0.87,7.58 1.02,4.89 0.5,2.75 1.7,4.67 53.81,-2.02 124.45,-0.61 179.99,-0.61 30.53,0 33.62,19.98 32.46,48.17z"/>
  <path fill="#866AF6" d="M209.01 989.98l-13.03 -2.6c-0.14,-0.28 -0.48,-0.96 -0.66,-1.3l-1.33 -2.58c-7.82,-14.86 -4.52,-46.56 -4.52,-69.75l-0.15 -62.69c0.77,-18 3.71,-1.88 4.06,-17.45l23.45 0c1.73,4.79 -1.26,2.21 5.12,6.61l2.55 1.36c0.4,0.2 0.94,0.41 1.35,0.61l19.64 11.63c9.04,5.41 3.23,4.59 14.33,11.08 0.37,0.22 0.9,0.46 1.27,0.68l46.92 31.27c10.85,6.64 2.61,4.28 10.46,7.13l0 11.73c-6.77,2.44 -0.74,-0.64 -5.92,3.84 -2.62,2.26 -0.21,0.15 -2.94,2.93l-18.27 14.96c-0.34,0.24 -0.78,0.6 -1.11,0.84l-14.85 8.61c-0.39,0.21 -0.9,0.46 -1.28,0.67l-8.37 7.27c-4.52,4.08 -0.45,1.13 -5.81,3.96l-17.14 10.23c-0.35,0.23 -0.86,0.5 -1.23,0.72l-26.15 14.9c-7.57,4.11 -3.45,-1.93 -6.39,5.34zm-31.27 -201.32l-21.38 17.71c-0.24,0.34 -0.55,0.83 -0.77,1.18l-3.3 6.48c-2.7,5.42 -5.46,9.34 -5.91,15.58 -0.48,6.62 1.06,14.45 -0.73,20.77 -0.14,0.49 -0.39,0.95 -0.54,1.42 -0.16,0.46 -0.44,0.91 -0.6,1.36 -0.16,0.45 -0.44,0.9 -0.59,1.36 -2.55,7.55 -3.2,85.53 0,95.01 1.78,5.3 0.18,-3.53 2.16,5.66 1.25,5.81 0.3,22.17 0.27,29.04 -0.02,5.6 -0.33,7.68 1.33,12.36l8.68 16.72c4.81,6.78 11.55,10.91 18.74,14.49l10.85 4.79c16.6,5.45 24.63,4.91 40.08,-2.14l40.28 -22.26c13.1,-6.32 13.17,-9.86 28.79,-18.12 6.87,-3.63 10.59,-8.78 16.81,-12.51l28.66 -20.21c0.36,-0.23 0.86,-0.51 1.2,-0.75 0.35,-0.24 3.68,-3.17 4.18,-3.64l14.31 -22.83c4.14,-11.66 3.53,-37.05 -4.04,-48.27l-1.67 -2.24c-1.16,-1.55 -2.93,-3.73 -3.38,-4.44 -3.06,-4.91 -2.16,-6.27 -7.87,-9.72l-28.5 -18.4c-0.12,-0.08 -4.27,-3.36 -4.38,-3.44l-37.6 -24.95c-0.8,-0.5 -1.72,-0.89 -2.52,-1.39l-26.1 -16.9c-0.41,-0.19 -0.94,-0.41 -1.35,-0.61 -0.4,-0.2 -0.93,-0.42 -1.33,-0.62l-22.06 -11.16c-5.49,-1.73 -7.77,-1.42 -14.29,-1.36 -4.66,0.04 -9.22,-0.03 -13.86,-0.04 -1.83,-0.01 -5.97,-0.03 -7.61,0.2l-5.96 1.87z"/>
  <path fill="#866AF6" d="M1057.31 1771.82l0 43c-4.61,1.67 -6.08,3.01 -7.82,7.82l-109.46 0c-2.59,-7.16 -1.5,-1.72 -2.69,-5.12 -2.08,-5.93 -1.34,-109.86 -1.26,-110.25 1.2,-5.94 -1.17,-3.75 3.95,-5.81 2.66,-6.58 -0.17,-3.97 25.41,-3.91l87.96 0 -0.13 52.92c0.59,12.29 3.63,7.16 2.56,16.25 -0.2,1.61 -8.01,4.05 1.48,5.1zm-160.28 -97.73l0 19.55c-5.87,2.37 -2.89,-4.28 -4.12,7.6l1.57 116.14c5.6,16.94 -0.38,11.52 5.7,23.62l5.89 11.7c5.94,8.62 10.65,2.52 14.42,12.94l148.55 0c3.87,-9.59 -0.66,3.04 13.71,-11.7l13.65 -11.75 0 -164.19c-5.55,-2.24 -0.09,1.22 -5.34,-6.39 -0.24,-0.34 -0.5,-0.86 -0.75,-1.2l-17.32 -13.95c-0.4,-0.2 -0.91,-0.44 -1.31,-0.65l-10.78 -4.86c-2.08,-0.41 -127.04,-3.05 -138.01,2.09 -7.75,3.63 -6.02,2.89 -13.16,10.3 -4.14,4.29 -6.99,8.68 -12.7,10.75z"/>
  <path fill="#929AFE" d="M1524.45 1087.72c2.99,4.01 50.83,1.95 58.65,1.95 23.72,0 106.44,-2.99 122.6,4.02 11.76,5.11 18.89,15.26 19.68,27.54 0.08,1.31 -0.05,7.41 -0.03,7.55 1.18,7.91 -1.52,4.33 4.33,9.74 3.83,-6.9 2.62,-7.2 8.31,-13.24 17.15,-18.25 24.44,-32.59 43.45,-44.43l31.64 -38.1c-8.44,-12.7 -13.68,-11.83 -20.61,-21.71 -13.66,-19.52 -7.37,-7.73 -20.28,-20.77l-30.96 -31.53c-4.64,-6.37 -3.45,-7.25 -11.54,-10.63 -6.9,13.85 1.63,40.99 -44.94,41.69l-150.72 -0.16c-17.1,-0.33 -13.35,-3.74 -12.73,48.98 0.11,8.95 -2.84,34.65 3.15,39.1z"/>
  <path fill="#866AF6" d="M830.58 118.23c-0.13,5.48 -7.84,25.64 -7.97,35.03l0.53 85.77c0.12,0.54 0.29,1.01 0.43,1.53 0.13,0.49 0.38,0.95 0.53,1.42l3.92 15.62c3.68,7.76 6.18,0.1 6.47,13.09 11.83,0.26 5.73,-1.27 7.81,3.9l132.92 0c2.88,-7.94 5.36,-5.45 10.44,-13.01 1.31,-1.95 0.86,-1.26 2.13,-3.73 0.21,-0.39 0.47,-0.89 0.66,-1.29 0.26,-0.55 1,-2.11 1.21,-2.71 1.62,-4.71 1.33,-6.77 1.31,-12.37 -0.09,-19.55 3.28,-101.73 -3.18,-114.33 -7.61,-14.87 -13.77,-10.01 -16.48,-16.74l-129.01 0c-3.01,8.32 2.97,-3.13 -1.21,2.69 -0.46,0.64 -2.17,2.9 -2.65,3.22 -0.34,0.24 -0.85,0.52 -1.24,0.71l-6.62 1.2z"/>
  <path fill="#866AF6" d="M384.93 1105.3l-15.69 5.81c-0.4,0.2 -0.89,0.48 -1.28,0.68 -11.83,6.05 -16.84,7.71 -27.08,17.88l-19.95 34.78 -6.66 32.72 10.03 43.04c0.18,0.42 0.42,0.92 0.61,1.34l4.55 9.13c4.06,7.98 -0.75,1.07 4.58,7.15l35.56 28.94 25.7 5.62c0.48,0.15 -2.84,1.49 7.45,2.56 7.77,0.8 8.03,-2.3 13.91,-3.5l25.6 -7.63 23.77 -17.27c2.79,-2.79 3.13,-3.03 5.94,-5.79l11.99 -19.28c11.86,-23.44 14.52,-49.83 5.59,-76.62 -0.15,-0.47 -0.34,-0.97 -0.5,-1.45l-1.97 -5.85c-0.76,-2.43 -0.3,-2.1 -1.33,-4.54l-33 -37.36 -46.32 -12.33c-6.48,0 -16.04,-1.5 -21.5,1.97z"/>
  <path fill="#866AF6" d="M678.12 276.55c-0.16,0.46 0.1,6.52 -0.06,7.76l-5.19 12.4c-0.23,0.34 -0.57,0.81 -0.81,1.15l-6.25 9.39c-0.22,0.36 -0.45,0.91 -0.69,1.26 -2.96,4.35 -18.43,13.09 -23.45,15.64l-9.21 4.47c-14.32,3.96 -32.8,0.55 -43.94,-3.52 -4.18,-1.52 -1.96,-0.41 -5.2,-2.62 -3.74,-2.56 -1.97,-1.89 -4.36,-3.45 -7,-4.58 -14.29,-9.39 -19.96,-17.19 -0.24,-0.33 -0.55,-0.82 -0.78,-1.17l-3.31 -6.46c-0.18,-0.44 -0.38,-0.96 -0.55,-1.41l-3.96 -11.67c-3.8,-11.95 -2.46,-24.9 1.65,-36.82l18.5 -28.42 11.12 -6.46c16.61,-8.08 26.49,-13.33 49.17,-8.74 9.29,1.88 -1.13,-0.42 5.78,2.03 13.46,4.78 21.25,7.9 30.74,20.08l9.42 14.04 5.56 26.05c0.14,16.67 -2.46,8.55 -4.22,13.66zm-86 -121.19l-22.18 7.15c-3.58,1.86 1.03,-0.51 -2.59,1.32 -1.48,0.75 -3.71,1.86 -5.22,2.59l-8.98 4.71c-3.44,2.51 -3.45,3.87 -6.99,6.69 -10.69,8.51 -15.71,8.25 -22.46,22.5 -0.19,0.41 -0.41,0.93 -0.61,1.34l-9.29 14.17c-0.21,0.38 -0.47,0.88 -0.67,1.28l-2.72 7.05c-4.05,12.52 -2.42,9.9 -4.43,24.89 -1.9,14.21 -1.14,-1.4 -3.53,10.44 -1.92,9.45 2.96,7.22 3.63,24.91 0.09,2.42 -0.04,2.99 0.42,5.44l4.37 13.23c0.16,0.46 0.33,0.99 0.51,1.44l1.17 2.74c0.25,0.55 1.06,2.05 1.33,2.58l2.65 5.16c0.63,1.25 1.13,2.23 1.95,3.92l25.68 31c4.05,4.12 -0.84,0.03 3.97,3.86l37.45 17.27c8.7,2.76 16.85,0.01 25.84,1.82l12.22 0c0.57,-0.11 1.07,-0.23 1.69,-0.32 7.79,-1.1 14.45,0.44 21.63,-2.06l25.89 -11.24c0.35,-0.23 0.82,-0.56 1.16,-0.8l9.31 -6.32c9.83,-5.85 15.54,-15.94 22.17,-24.74l2.54 -3.32c0.23,-0.36 0.53,-0.85 0.75,-1.22l9.19 -18.17c0.19,-0.4 0.49,-0.87 0.67,-1.28 0.25,-0.55 0.99,-2.11 1.2,-2.71l4.38 -17.12c2.47,-9.02 2.2,-33.35 0,-41.38l-1.67 -4.2c-1.43,-4.5 -0.49,-1.21 -1.41,-6.4 -0.48,-2.68 0.03,-1.85 -0.84,-5.03l-1.66 -4.21c-0.18,-0.41 -0.48,-0.88 -0.67,-1.28l-5.31 -10.32c-0.2,-0.41 -0.45,-0.91 -0.65,-1.31l-1.89 -3.98c-2.95,-5.85 -8.03,-9.41 -11.08,-14.33 -0.23,-0.36 -0.46,-0.89 -0.68,-1.27 -5.68,-9.94 -11.58,-10.48 -17.28,-15.94 -6.46,-6.18 -0.68,-1.83 -8.09,-5.6l-39.91 -14.82c-6.85,-0.94 -35.05,-1.88 -40.96,1.87z"/>
  <path fill="#866AF6" d="M490.48 653.79l-7.82 0c-2.37,-5.88 4.27,-2.9 -7.6,-4.13 -2.21,-0.23 -9.15,0.22 -11.95,0.22l-0.25 -92.12c0.45,-11.29 -1.33,-7.3 4.16,-9.52 1.96,-4.87 -5.99,-4.24 19.52,-3.93l60.87 -0.23c11.29,0.45 7.31,-1.33 9.52,4.16 5.08,2.05 4.14,-6.43 3.92,21.49l-0.01 52.79c0.11,24.85 2.33,20.93 -3.91,23.45 -1.08,2.67 1.69,4.26 -13.53,4.06l-47.11 -0.2c-5.94,1.21 -3.75,-1.16 -5.81,3.96zm-46.92 43l132.92 0c1.98,-4.91 0.55,-1.38 5.17,-4.6l17.99 -19.15c0.17,-0.49 0.25,-1.05 0.41,-1.54l1.41 -140.42c-9.73,-28.17 -8.92,-2.99 -9.34,-21.93 -10.58,-0.24 -5.01,-0.51 -9.24,-2.5 -0.04,-0.01 -2.81,-1.62 -3.76,-2.1l-11.45 -4.19c-5.66,-1.96 -3.77,-2.95 -14.5,-3.09l-78.41 0.08c-14.19,1.23 1.82,1.23 -21.26,4.15 -3.97,0.5 -1.48,-0.05 -4.81,1.04 -7.2,2.36 -9.66,5.16 -14.94,10.48l-3.95 3.86c-1.38,1.4 -0.75,0.38 -2.86,3.01 -2.09,2.58 -1.35,1.62 -3.08,4.73l-7.73 43.09c0.19,19.38 -2.78,59.61 2.62,75.71 4.78,14.25 -3.99,11.99 5.87,31.26l4.52 9.17c4.9,7.1 6.25,2.91 11.46,8.08 2.96,2.93 1.44,0.66 2.96,4.86z"/>
  <path fill="#866AF6" d="M185.56 1554.86c-1.52,-4.4 -0.12,-15.99 2.4,-23l9.87 -27.27c3.8,-6.54 18.94,-16.26 23.22,-17.83l7.39 -2.39c10.81,-3.68 25.61,-3.4 36.81,0.57 6.82,2.42 13.06,3.51 19.08,8.28 3.13,2.48 1.17,0.74 3.01,2.86l10.24 15.17c0.23,0.35 0.54,0.83 0.76,1.19 0.3,0.5 1.12,1.99 1.39,2.53 0.2,0.4 0.44,0.91 0.63,1.32l5.1 14.45c4.45,13.98 -0.04,25.14 -3.47,35 -0.17,0.47 -0.34,0.99 -0.51,1.45l-7.75 15.7c-0.23,0.36 -0.52,0.86 -0.76,1.2 -3.59,5.16 -8.18,7.25 -13.55,9.9l-2.61 1.3c-0.53,0.27 -2.03,1.08 -2.57,1.34l-5.48 2.34c-14.52,5.05 -25.12,8.24 -41.71,2.35 -11.88,-4.21 -14.4,-3.48 -23.04,-12.13l-10.02 -15.4c-0.27,-0.53 -1.08,-2.02 -1.34,-2.57 -0.19,-0.4 -0.47,-0.89 -0.65,-1.3l-4.69 -12.91c-0.18,-0.31 -0.68,-0.87 -0.84,-1.11 -0.15,-0.24 -0.76,-0.6 -0.91,-1.04zm39.09 -117.28l-40.39 18.25c-0.37,0.22 -0.89,0.47 -1.26,0.7 -13.12,8.34 -20.7,20.22 -28.13,32.46l-8.64 26.54c-3.26,16.24 -7.37,27.28 -1.2,46.63l6.7 24.57c0.17,0.45 0.38,0.96 0.56,1.4l3.26 6.51c0.21,0.4 0.45,0.9 0.65,1.31 0.2,0.4 0.43,0.92 0.63,1.32l13.09 16.23c6.9,6.87 13.48,15.93 22.08,20.92l5.25 2.57c0.4,0.2 0.91,0.45 1.31,0.65 0.75,0.37 2.44,1.31 3.86,2 0.41,0.19 0.89,0.46 1.3,0.65 0.42,0.19 0.92,0.43 1.35,0.61l7.37 2.4c0.48,0.16 0.99,0.32 1.47,0.49l4.21 1.65c10.72,3.41 38.57,1.91 51.64,1.44 1.81,-0.07 3.61,-0.11 5.39,-0.47l27.72 -13.33c0.4,-0.2 0.92,-0.43 1.32,-0.63l27.42 -27.31c1.01,-1.57 4.07,-5.18 5.05,-6.68l10.14 -23.08c4.78,-13.85 5.32,-49.63 0.54,-63.07 -0.16,-0.46 -0.38,-0.96 -0.54,-1.42l-6.79 -16.66c-0.2,-0.4 -0.43,-0.92 -0.63,-1.32l-58.57 -50.89c-11.05,-5.07 -46.48,-10.58 -56.16,-4.44z"/>
  <path fill="#866AF6" d="M1151.13 1095.53c10.93,-0.24 4.53,-1.15 14.28,-7.23l6.61 -3.16c0.46,-0.17 0.98,-0.34 1.45,-0.5l7.43 -2.35c6.87,-2.43 17.06,-4.47 27.58,-1.11l2.8 1.11c0.46,0.17 0.95,0.38 1.41,0.54 2.48,0.86 3.52,0.96 6.01,1.81l5.56 2.26c0.54,0.27 2.04,1.07 2.55,1.36l2.39 1.52c0.38,0.28 3.59,3.2 4.11,3.71 6.29,6.21 10.93,10.11 14.21,19.02 8.37,22.68 7.12,35.03 0.5,54.5l-21.24 25.67c-0.51,0.29 -2.06,1.04 -2.59,1.31l-9.06 4.63c-3.26,1.55 -1.26,1.26 -5.68,2.14 -14.06,2.81 -30.8,0.61 -37.58,-2.83 -0.54,-0.27 -2.01,-1.09 -2.54,-1.37l-9.08 -4.6c-9.96,-6.38 -16.35,-16.87 -21.61,-27.25 -0.2,-0.4 -0.5,-0.87 -0.69,-1.27l-1.75 -4.11c-0.31,-1.14 -3.04,-27.82 1.75,-37.89l8.45 -15.01c4.03,-5.22 4.54,-2.17 4.73,-10.9zm19.55 -56.68l-41.08 21.46c-6.52,6.7 -15.07,12.99 -20.11,20.94l-7.83 11.71c-0.24,0.35 -0.54,0.84 -0.76,1.2l-8.04 21.28c-1.57,7.77 0.08,22.33 -1.8,29.62l13.81 49.51c0.19,0.4 0.44,0.91 0.64,1.31l4.7 8.98c7.5,10.51 22.41,24.16 34.37,30.13 0.4,0.2 0.9,0.46 1.3,0.66 0.86,0.43 3.8,1.96 3.87,1.99l8.72 3.01c15.08,4.99 47,7.21 63.14,1.59 0.46,-0.16 0.94,-0.4 1.39,-0.56l38.63 -20.01c1.79,-1.82 2.24,-2.34 3.86,-3.96l9.38 -10.17c1.8,-2.84 0.95,-2.2 2.77,-5.05l12.34 -24.79c0.16,-0.48 0.38,-0.95 0.52,-1.44l2.79 -12.84c2.92,-9.13 2.77,-22.61 2.63,-32.85 -0.12,-8.66 -3.13,-18.27 -5.42,-25.86l-5.02 -14.52c-6.45,-14.25 -20.79,-30.45 -33.97,-38.36 -2.73,-1.64 -0.82,-0.35 -3.53,-2.33l-5.57 -4.21c-0.5,-0.3 -1.98,-1.11 -2.52,-1.38 -17.79,-8.91 -35.99,-7.46 -57.63,-7.16l-11.58 2.1z"/>
  <path fill="#866AF6" d="M795.39 493.51l0 23.46c-5.25,2.12 -1.88,-1.17 -3.59,4.22l-0.39 58.4c0.62,7.15 1.65,5.59 3.05,10.63l6.84 20.52c3.04,3.66 1.35,1.85 5.6,4.18 14.52,7.95 68.1,3.67 96.11,3.8 19.89,0.09 22.57,-5.2 26.31,-16.7 6.57,-20.21 3.36,-64.31 3.04,-89.11l-0.92 -8.85c-0.14,-0.5 -0.36,-0.97 -0.51,-1.45 -0.15,-0.47 -0.39,-0.94 -0.55,-1.4l-11.23 -18.09 -11.67 -3.96c-0.48,-0.15 -0.95,-0.37 -1.45,-0.51l-57.86 -0.78c-5.26,0 -10.51,-0.09 -15.75,-0.11 -15.49,-0.05 -11.83,1.38 -15.09,2.5 -23.17,7.97 -8.93,8.54 -21.94,13.25z"/>
  <path fill="#866AF6" d="M302.83 301.96l-101.64 0c-2.55,7.06 -7.15,6.24 -12.57,16.74l-1.29 2.62c-0.18,0.44 -0.42,0.92 -0.58,1.38l-1.14 90.62c0.92,7.09 5.89,15.34 11.76,19.52l6.23 3.54c10.11,4.72 94.34,2.31 96.58,1.7l5.46 -2.36c0.53,-0.27 2.01,-1.09 2.51,-1.39 16.68,-10.1 13.99,-18.77 14.78,-22.36 5.95,-26.88 3.07,-12.91 3.38,-47.48 0.26,-29.58 -2.01,-11.94 -3.8,-25.53 -0.57,-4.3 0.34,-8.82 -0.46,-13.21l-4.12 -9.57c-3.85,-6.47 -3.27,-5.23 -8.69,-8.9 -7.56,-5.09 -4.24,0.05 -6.41,-5.32z"/>
  <path fill="#866AF6" d="M693.75 1900.83l-43 0c-2.19,6.06 -6.9,7.21 -11.18,14.22l-2.05 3.81c-0.19,0.42 -0.46,0.9 -0.63,1.33 -0.18,0.44 -0.42,0.92 -0.58,1.38 -3.71,10.8 1.33,25.01 -2.55,36.54 -3.3,9.79 -3.95,31.19 -2.24,36.22 1.82,5.35 -1.72,2.08 3.6,4.23l0 23.45c5.36,1.94 13.72,10.35 15.63,15.64l101.64 0c3.06,-8.46 3.93,-4.12 8.87,-10.68l2.98 -6.79c0.65,-2 0.81,-2.75 1.4,-4.46 3.93,-11.42 3.38,-82.01 1.61,-88.7l-5.18 -14.37c-3.32,-5.35 -6.79,-3.85 -9.68,-11.82l-27.36 0c-2.06,-5.11 0.13,-2.78 -5.82,-3.96l-19.64 0c-6.65,1.36 -2.49,0.2 -5.82,3.96z"/>
  <path fill="#866AF6" d="M76.1 1177.62l-7.82 0c-2.15,5.33 1.2,1.89 -4.29,3.52 -2.59,0.78 -6.21,0.26 -9.19,0.6l-17.89 7.52c-5.18,2.77 -1.45,0.09 -5.83,3.93l-8.74 8.86c-1.22,1.19 -3.41,3.23 -3.98,3.83 -4.92,5.21 -6.5,10.4 -10.02,17.35l-4.06 7.67c-1.76,3.69 -0.51,-0.38 -1.75,4.11l-0.62 26.57c1.69,12.16 8.06,24.88 14.85,35.98l1.36 2.54c0.22,0.37 0.47,0.9 0.7,1.26 5.74,9.05 24.71,19.93 35.03,23.6l35.15 0.43 18.52 -6.89c5.16,-2.78 1.52,-0.23 5.79,-3.99 2.26,-1.99 1.64,-1.66 3.87,-3.94 2.02,-2.08 2.33,-2.44 4.86,-4.91 1.22,-1.2 3.41,-3.23 3.98,-3.84l14.08 -25.02c5.83,-12.21 3.57,-42.7 -4.56,-58.93 -2.88,-5.75 -1.02,-2.24 -3.81,-5.97l-30.83 -25.85c-19.43,-10.19 -21.04,0.9 -24.8,-8.43z"/>
  <path fill="#5B74FE" d="M4790.6 1126.8l0 19.55c12.2,4.41 1.29,6.53 19.09,12.33l5.8 2.02c2.57,0.56 0.53,0.56 3.84,0.24l4.39 -1.11c5.59,-0.03 -0.45,2.35 21.59,2.17 37.8,-0.3 248.12,2.89 262.06,-1.85 0.46,-0.16 0.94,-0.39 1.4,-0.55 0.47,-0.16 0.97,-0.37 1.44,-0.52 0.48,-0.16 1,-0.31 1.49,-0.47 4.13,-1.33 1.9,0.08 5.94,-1.87 1.58,-0.77 6.36,-5.47 7.13,-6.56l2.91 -4.98c0.22,-0.41 0.49,-0.9 0.7,-1.33 1,-2.11 4.01,-3.7 1.28,-11.81l-3.43 -6.63c-0.23,-0.36 -0.53,-0.84 -0.77,-1.19 -0.23,-0.35 -0.57,-0.81 -0.81,-1.15 -5,-6.92 -3.15,-1.06 -5.67,-8.02l-316.65 0 -7.94 9.66c-1.74,1.19 -0.47,0.87 -3.79,2.07z"/>
  <path fill="#5B74FE" d="M4794.51 1247.99c-0.26,11.84 1.27,5.73 -3.91,7.82l0 19.54c4.94,1.79 9.94,6.79 11.73,11.73l19.55 0c4.45,11.02 13.45,0.32 21.61,0.3 5.61,-0.01 5.33,1.54 6.74,1.7l2.15 -0.07c7.41,-0.79 -5.18,-2.76 4.63,-1.06 5.29,0.91 1.84,-2.22 3.96,3.04l7.82 0c3.83,-9.5 12.91,-0.4 25.27,0.14l38.25 -2.3c3.46,-0.46 4.81,2.34 20.49,2.2 27.97,-0.25 83.95,4.14 105.13,-2.74 20.21,-6.56 -4.45,8.31 31.29,0.17 14.36,-3.27 -2.99,1.14 7.27,0.64 5.47,-0.27 1.05,2.89 2.94,-2.02l19.55 0c5.4,-14.92 19.58,-12.99 7.25,-32.64 -0.23,-0.37 -0.53,-0.85 -0.77,-1.2 -0.23,-0.35 -0.57,-0.81 -0.81,-1.15 -5.93,-8.2 -3.01,-0.67 -5.67,-8.01l-316.65 0c-1.95,4.83 3.94,3.91 -7.82,3.91z"/>
  <path fill="#866AF6" d="M2254.65 579.52c5.99,-0.46 10.71,-0.48 16.58,1.37 10.2,3.23 17.16,9.99 21.4,18.5 10.1,20.26 3.37,54.16 -29.26,57.41 -54.82,5.47 -57.44,-73.49 -8.72,-77.28zm69.82 50.81c5.81,-32.14 -12.66,-63.97 -42.44,-75.03 -61.65,-22.88 -128.15,54.1 -65.43,115.74 9.27,9.11 24.48,17.79 42.22,16.59 24.62,-1.65 31.81,-9.86 45.25,7.56l27.38 33.14c31.18,43.27 31.38,31.69 88.26,32.07 9.02,0.06 18.98,0.82 23.76,-4.56 4.8,-5.39 3.33,-15.73 -1.52,-20.71 -8.95,-9.16 -40.75,-4.2 -55.6,-5.01 -17.8,-0.97 -25.92,-13.67 -34.23,-24.44l-22.46 -24.5c-24.56,-25.22 -9.32,-27.98 -5.19,-50.85z"/>
  <path fill="#5B74FE" d="M3124.05 580.83c22.22,-4.03 39.7,11.07 43.11,28.98 4.58,24.1 -8.7,42.13 -28.48,45.65 -50.66,9.02 -62.51,-65.94 -14.63,-74.63zm-12.46 -25.97c-28.2,10.58 -53.09,33.99 -46.11,73.09 3.57,20.01 20.9,29.05 11.96,42.32 -8.28,12.29 -24.67,27.89 -28.29,32.46 -8.31,10.49 -17.34,24.99 -33.54,26.99 -16.8,2.07 -45.68,-2.2 -59.8,1 -17.73,4.02 -20.82,28.79 1.24,29.63 18.84,0.72 41.51,-0.61 60.83,-0.81 22.81,-0.23 26.18,-6.29 36.91,-19.77l40.84 -49.16c14.38,-15.39 38.8,9.73 72.82,-15.44 19.26,-14.25 40.87,-49.15 22.55,-85.42 -10.9,-21.6 -41.83,-48.99 -79.41,-34.89z"/>
  <path fill="#5B74FE" d="M3122.64 1426.7c51.14,-14.79 61.88,63.58 17.93,71.18 -52.92,9.14 -64.05,-57.84 -17.93,-71.18zm-169.22 -102.78c-15.32,6.38 -19,28.23 5.57,29.61 18.29,1.03 43.58,-2.45 60.61,-0.05 11.71,1.65 25.35,18.17 31.99,27l27.7 33.06c4.76,15.17 -36.01,37.93 0,87.81 43.91,60.82 143.77,6.13 113.59,-63.51 -5.29,-12.2 -17.23,-25.09 -25.92,-31.94 -13.35,-10.54 -32.63,-9.83 -51.6,-8.94 -12.52,0.58 -13.47,-3.72 -19.4,-10.28 -2.68,-2.97 -3.9,-3.71 -6.87,-6.84 -3.4,-3.59 -3.76,-5.24 -6.83,-8.78l-13.8 -15.59c-5.52,-6.37 -6.17,-9.21 -14.8,-16.39 -17.23,-14.35 -8.75,-16.52 -41.74,-16.57 -11.66,-0.02 -50.58,-1.89 -58.5,1.41z"/>
  <path fill="#5B74FE" d="M2221.08 1466.9c-5.39,-52.79 70.48,-58.58 75.94,-9.56 1.23,11.05 -2.74,21.65 -7.53,29.67 -11.88,19.87 -64.17,21.43 -68.41,-20.11zm139.18 -142.52c-12.55,4.47 -23.84,17.72 -31.71,27.95l-13.63 15.71c-3.9,5.02 -9.38,11.69 -13.29,15.88 -27.97,29.95 -40.05,-4.55 -80.2,23.65 -11.89,8.36 -25.03,26.56 -28.5,44.97 -8.98,47.56 46.23,92.17 95.02,69.79 23.7,-10.88 45.96,-41.22 36.04,-77.23 -5.14,-18.69 -20.38,-22.86 -4.13,-38.85 9.83,-9.67 20.45,-19.42 29.36,-31.19 14.7,-19.42 19.66,-21.71 37.16,-21.61 13.05,0.06 47.07,3.03 53.88,-4.66 31.58,-35.71 -70.73,-27.71 -80,-24.41z"/>
  <path fill="#5B74FE" d="M4794.51 989.98c-0.26,11.84 1.27,5.73 -3.91,7.82l0 19.54 9.66 7.95c1.19,1.74 0.87,0.46 2.07,3.78l316.65 0c1.5,-4.14 0.77,-1.77 3.03,-4.79l6.36 -9.41c2.16,-4.48 5.61,-2.96 0,-14.59l-2.14 -3.85c-4.42,-7.05 -4.89,-3.83 -7.25,-10.36l-316.65 0c-1.95,4.83 3.94,3.91 -7.82,3.91z"/>
  <path fill="#5B74FE" d="M3201.71 1192.96c49.74,-17.23 61.13,58.28 23.03,66.82 -32.04,7.17 -58.03,-24.8 -43.22,-51.13 4.96,-8.82 10.1,-12.2 20.19,-15.69zm-174.78 41.13l116.66 2.18 4.84 10.75c3.02,-3.3 -1.19,-8.91 5.42,3.36 1.65,3.06 2.44,5.26 4.07,8.04 2.82,4.84 6.6,9.63 10.17,13.22 30.2,30.37 77.17,21.98 96.17,-5.8 32.32,-47.25 0.65,-108.59 -58.91,-104.31 -38.43,2.76 -44.87,32.71 -60.8,35.38 -54.88,9.2 -122.92,-13.36 -127.13,14.09 -2.71,17.68 10.16,21.36 25.69,21.21l-16.18 1.88z"/>
  <path fill="#5B74FE" d="M3208.58 820.04c46.13,-11.66 53.89,63.55 12.56,68.63 -22.23,2.73 -38.93,-8.96 -42.52,-28.13 -4.48,-23.9 11.55,-35.85 29.96,-40.5zm-10.16 -27.5c-28.07,8.25 -37.54,22.89 -48.81,47.68 -6.03,13.28 -11.75,9.63 -39.96,9.48 -16.29,-0.08 -32.58,0 -48.87,0 -12.13,0.01 -35.81,-3.16 -41.27,7.13 -2.74,5.15 -2.11,13.76 1.09,19.18 3.8,6.44 8.72,6.53 18.58,6.4 32.62,-0.41 65.31,-0.13 97.86,-0.67 35.56,-0.59 25.3,26.89 60.78,35.11 31.67,7.34 55.13,-5.8 67.52,-25.04 14.07,-21.87 17.1,-52.68 0.65,-73.89 -11.85,-15.27 -34.98,-34.95 -67.57,-25.38z"/>
  <path fill="#866AF6" d="M2215.18 864.88c-14.08,47.31 -80.88,26.13 -69.26,-21.14 10.65,-43.33 84.31,-29.43 69.26,21.14zm34.99 -16.1c-6.48,-8.14 -9.88,-23.05 -16.88,-32.18 -31.23,-40.74 -81.46,-27.69 -99.6,-5.14 -15.41,19.15 -24.84,44.14 -9.29,73.38 13.07,24.59 35.04,35.79 62.76,34.77 42.27,-1.57 40.02,-32.87 62.17,-35.85 59.6,-8 126.07,11.73 128.48,-17.4 2.48,-30.05 -68.8,-10.64 -127.64,-17.58z"/>
  <path fill="#866AF6" d="M2144.57 1230.4c-6.44,-46.94 69.26,-57.29 72.83,-7.8 3.48,48.1 -66.45,54.35 -72.83,7.8zm101.84 16.82l4.48 -10.89c16.02,0.1 52.06,4.4 63.18,-2.2l-59.34 -2.21c19.3,-0.37 63.65,5.54 67.81,-12.27 6.88,-29.48 -37.8,-21.27 -57.29,-21.17 -20.54,0.1 -20.72,2.02 -32.06,-10.4 -23.77,-26.01 -48.83,-36.56 -86.1,-15.04 -37.14,21.45 -42.22,75.81 -3.65,104.66 26.68,19.96 76.32,16.4 93.65,-22.4 4.32,-9.68 2.05,-8.89 5.57,-9.48 5.68,-0.95 -4.08,-5.34 3.75,1.4z"/>
  <path fill="#866AF6" d="M40.92 569.74c-0.41,0.26 -1.11,0.07 -1.31,0.65l-32.61 26.03c-8.99,17.78 -2.5,7.65 -6.63,24.79 -1.59,6.63 2.32,21.52 4.36,27.71l1.3 4.57c1.88,5.3 3.33,6.13 7.48,10.11l13.07 12.34c2.26,1.44 1.24,0.72 3.83,2.04l11.72 5.87c0.46,0.17 0.95,0.37 1.45,0.51l18.94 0.82c12.26,-0.01 8.79,0.17 13.73,-1.92 0.42,-0.18 0.9,-0.46 1.3,-0.66 15.76,-7.5 11.8,-5.13 23.97,-17.08 12.73,-12.5 10.04,-13.55 14.22,-30.76 0.14,-0.55 0.27,-1.05 0.42,-1.58l1.75 -4.33c1.59,-5.15 -2.95,-21.97 -4.53,-26.02 -0.17,-0.44 -0.42,-0.93 -0.61,-1.35l-10.28 -13.18c-21.54,-21.01 -16.78,-20.6 -48,-20.63 -3.96,0 -10.02,-0.19 -13.57,2.07z"/>
  <path fill="#F7F5FF" d="M2668.53 1173.72c-42.55,0.28 -85.12,-0.18 -127.67,-0.01 -48.23,0.18 -36.52,-13.61 -62.97,66.01 -6.25,18.81 -8.43,31.9 -28.88,33.12 -96.48,5.72 -80.57,-13.02 -52.27,-96.69 21.55,-63.73 42.06,-128.8 62.57,-193.54l62.3 -195.58c5.56,-16.41 17.95,-23 38.71,-24.42 14.67,-1 49.81,-1.36 62.69,2.58 25.49,7.82 28.23,46.91 42.31,86.76 30.02,84.97 64.67,198.94 93.38,289.57 10.21,32.24 22.61,65.03 31.48,97.61 6.33,23.26 -6.77,34.55 -28.36,35.13 -87.09,2.33 -54.46,-6.31 -93.29,-100.54zm-111.3 -417.17c-46.12,5.3 -40.28,30.67 -55.92,76.63 -11.16,32.8 -21.11,66.9 -31.79,99.13 -21.6,65.17 -45.64,133.37 -64.87,199.17 -33.48,114.51 -74.23,155.49 42.3,147.4 36.5,-2.54 33.61,-33.69 50.83,-79.92 11.03,-29.63 15.38,-18.52 46.98,-19.53 20.52,-0.66 45.64,-0.27 66.46,-0.06 59.8,0.61 51.93,-11.37 72.62,58.54 5.48,18.52 8.43,33.06 25.19,39.61 7.57,2.95 53.59,3.94 63.98,1.65 41.1,-9.06 17.53,-61.61 7.67,-90.96 -11.11,-33.07 -21.6,-67 -32.68,-100.41 -11.1,-33.48 -20.8,-66.31 -32,-98.94 -11.26,-32.81 -20.06,-68.31 -31.73,-99.2 -3.43,-9.05 -4.12,-15.96 -7.01,-24.29l-24.89 -74.77c-6.53,-18.8 -13.86,-29.53 -33.97,-33.07 -13.97,-2.47 -46.59,-2.66 -61.17,-0.98z"/>
  <path fill="#5B74FE" d="M4790.6 1388.72l0 19.55c4.94,1.78 9.94,6.78 11.73,11.72l218.92 0c1.67,-4.61 3,-6.07 7.82,-7.82l0 -27.36c-6.73,-0.15 -9.55,-1.79 -11.73,-7.82l-215.01 0 -7.94 9.65c-1.74,1.2 -0.47,0.88 -3.79,2.08z"/>
  <path fill="#866AF6" d="M400.56 32.22c-14.33,-0.31 -9.14,-11.14 -29.17,-11.87 -26.6,-0.98 -44.46,2.23 -59.45,24.89 -6.21,9.38 -4.13,12.17 -6.14,19.29 -1.93,6.82 -6.31,2.13 -0.51,19.93 1.51,4.63 0.48,1.09 1.43,6.42 2.46,13.78 12.84,25.28 23.59,33.1 2.04,1.47 0.04,0.27 3.65,2.21l9.88 3.8c0.49,0.16 1.03,0.29 1.52,0.45 9.76,3.25 0.23,2.49 10.47,3.48 6.39,0.62 8.17,-2.3 17.39,-3.95l6.53 -1.28c7.95,-2.61 21.96,-12.32 25.49,-19.47l1.23 -2.68c0.2,-0.4 0.45,-0.91 0.64,-1.31l6.15 -15.35c0.16,-0.47 0.38,-0.96 0.54,-1.42 5.58,-15.67 1.77,-20.75 -1.47,-30.87l-2.52 -7.25c-0.25,-0.55 -1.01,-2.09 -1.3,-2.61 -5.87,-10.46 -7.7,-4.58 -7.95,-15.51z"/>
  <path fill="#322CF4" d="M2552.59 768.71c14.18,-3.22 45.86,-2.53 61.88,-0.23 19.64,2.82 24.04,14.13 29.57,32.32 28.53,93.89 62.48,190.97 91.61,285.56 13.86,45.02 33.86,100.07 46.33,143.2 5.39,18.65 7.3,35.28 -13.24,38.06 -6.61,0.9 -54.35,0.13 -58.69,-1.61 -9.94,-3.98 -15.82,-31.21 -19.35,-42.04 -21.21,-64.93 -5.73,-54.96 -71.66,-55.22 -22.73,-0.09 -112.15,-5.72 -122.33,5.87 -12.52,14.25 -23.7,79.5 -35.71,89.08 -6.79,5.41 -49.43,3.91 -60.93,3.37 -25.36,-1.2 -21.82,-20.14 -15.61,-39.08 10.2,-31.12 21.18,-62.21 30.97,-94.01l92.14 -285.04c18.27,-56.02 13.56,-73.1 45.02,-80.23zm115.94 405.01c38.83,94.23 6.2,102.87 93.29,100.54 21.59,-0.58 34.69,-11.87 28.36,-35.13 -8.87,-32.58 -21.27,-65.37 -31.48,-97.61 -28.71,-90.63 -63.36,-204.6 -93.38,-289.57 -14.08,-39.85 -16.82,-78.94 -42.31,-86.76 -12.88,-3.94 -48.02,-3.58 -62.69,-2.58 -20.76,1.42 -33.15,8.01 -38.71,24.42l-62.3 195.58c-20.51,64.74 -41.02,129.81 -62.57,193.54 -28.3,83.67 -44.21,102.41 52.27,96.69 20.45,-1.22 22.63,-14.31 28.88,-33.12 26.45,-79.62 14.74,-65.83 62.97,-66.01 42.55,-0.17 85.12,0.29 127.67,0.01z"/>
  <path fill="#D6CFFE" d="M2532.7 1072.25c20.81,1.79 78.45,2.73 97.97,-0.38 -0.24,-9.09 -44.1,-143.18 -48.77,-150.15 -7.47,4.26 -9.28,26.04 -12.9,35.69 -4.79,12.76 -8.4,24.29 -12.41,38.31 -5.08,17.78 -23.22,62.46 -23.89,76.53z"/>
  <path fill="#866AF6" d="M1299.68 694.83c-0.21,0.14 -16.23,2 -29.99,22.79 -0.23,0.35 -0.52,0.85 -0.74,1.22l-5.13 16.65c-0.12,0.53 -0.28,1.07 -0.4,1.55l-1.1 5.7c0.03,0.27 0.22,0.8 0.28,1.09 0.06,0.33 0.31,0.87 0.39,1.23 0.1,0.4 0.33,0.94 0.43,1.39l14.65 32.55 11.03 8.51c0.41,0.2 0.91,0.44 1.33,0.63 19.4,8.67 22.71,7.71 37.1,2.95 13.36,-4.41 14.88,-5.18 26.04,-16.96l3.39 -4.42c8.94,-17.95 9.92,-43.33 -6.43,-59.27 -0.62,-0.6 -1.85,-1.82 -2.95,-2.92l-6.78 -6.89c-9.48,-8.36 -22.4,-9.52 -35.16,-7.66 -0.6,0.09 -1.11,0.18 -1.66,0.3l-2.94 0.97c-0.32,0.1 -0.94,0.33 -1.36,0.59z"/>
  <path fill="#F7F5FF" d="M4616.18 1357.45c-8.22,14.89 -50.45,51.54 -69.62,60.8 -68.49,33.08 -130.23,24.7 -192.99,-12.75 -4.47,-2.66 -5.75,-4.55 -9.86,-7.79 -86.19,-67.99 -110.94,-185.38 -61.15,-286.52 6.95,-14.12 17.21,-30.47 25.82,-40.53 24.44,-28.58 18.59,-22.4 53.2,-46.39 6.21,-4.3 14.32,-8.16 21.78,-11.48 9.86,-4.39 43.2,-13.85 52.84,-12.99l-1.27 199.37c0.42,48.47 28.27,46.51 60.9,73.88 14.48,12.15 61.12,40.44 81.61,55.16 11.14,7.99 31.25,20.55 38.74,29.24zm6.45 3.86l2.62 -5.82c-3.24,-5.91 -8.12,-5.19 -20.21,-13.71l-141.33 -97.04c-19.49,-15.6 -22.91,-12.05 -23.16,-45.6l-0.6 -203.98 -4.86 -1.15c-42.09,2.47 -81.14,24.67 -105.83,44.85l-25.38 27.3c-60.85,75.01 -68.66,175.77 -27.08,261.77 28.88,59.75 88.88,103.59 156.77,114.62 41.74,6.78 82.58,-2.37 116.31,-19 44.04,-21.7 66.25,-59.58 72.75,-62.24z"/>
  <path fill="#F7F5FF" d="M2939.8 1255.81c-6.15,20.74 -29.78,17.51 -52.98,17.42 -25.56,-0.1 -42.12,0.22 -43.03,-27.08 -2.68,-81.32 0.74,-198.45 0.27,-285.49 -0.86,-156.14 -15.27,-158.79 54.52,-158.47 24.07,0.11 40.8,3.48 41.97,28.31 2.14,45.7 0.22,95.71 0.25,141.89 0.02,32.07 2.01,273.25 -1,283.42zm-73.06 -458.83c-25.99,4.39 -29.71,18.19 -29.35,44.44 0.35,24.87 -0.03,49.36 0.45,74.29 0.96,49.04 -0.84,99.35 -0.68,148.54 0.15,48.51 -1.08,98.27 0.56,146.6 0.82,24.1 -6.16,51.81 12.53,62.19 13.35,7.41 49.87,8.27 67.16,5.64 29.32,-4.46 28.56,-24.74 28.78,-44.37l-0.05 -222.83c0.37,-48.54 0.62,-98.09 0.04,-146.6 -0.3,-24.48 3.73,-51.3 -13.16,-61.97 -13.84,-8.74 -48.76,-8.88 -66.28,-5.93z"/>
  <path fill="#866AF6" d="M314.56 1850.01l0 35.18c7.17,2.89 1.32,-1.26 5.32,6.4l1.19 2.72c7.84,16.99 12.53,6.05 16.95,18.24l35.18 0c2.3,-5.69 -1.35,0.08 2.77,-3.08 0.76,-0.59 1.42,-1.04 2.34,-1.58l2.64 -1.27c16.7,-7.98 8.1,-6.63 15.69,-17.54 2.87,-4.13 -1.36,-1.76 3.92,-3.89l0 -35.18c-4.19,-1.52 -1.95,0.03 -4.86,-2.96 -4.29,-4.41 -5.21,-15.48 -21.24,-19.8 -5.17,-1.39 -11.46,-0.78 -16.95,-0.79 -15.32,-0.03 -11.86,0.25 -23.45,5.91 -20.4,9.96 -6.12,12.79 -19.5,17.64z"/>
  <path fill="#322CF4" d="M2849.08 1251.9l-0.49 -410.51c-0.03,-27.01 4.47,-33.25 32.28,-34.25 70.32,-2.54 55.69,5.88 54.56,151.57l0.26 273.64c0.21,30.04 -2.85,35.29 -33.22,35.33 -19.31,0.02 -50.57,5.07 -53.39,-15.78zm90.72 3.91c3.01,-10.17 1.02,-251.35 1,-283.42 -0.03,-46.18 1.89,-96.19 -0.25,-141.89 -1.17,-24.83 -17.9,-28.2 -41.97,-28.31 -69.79,-0.32 -55.38,2.33 -54.52,158.47 0.47,87.04 -2.95,204.17 -0.27,285.49 0.91,27.3 17.47,26.98 43.03,27.08 23.2,0.09 46.83,3.32 52.98,-17.42z"/>
  <path fill="#F7F5FF" d="M3077.39 663.56c-19.47,-28.78 -27.84,-59.63 -2.32,-91.19 46.91,-58.01 147.51,-14.13 124.24,69.38 -4.47,16.02 -16.77,28.62 -26.13,36.55 -31.98,27.09 -61.5,4.02 -72.71,15.09l-27.9 34.76c-6.33,7.28 -9.28,10.8 -15.26,17.85 -11.77,13.91 -16.79,19.17 -43.42,19.64 -10.85,0.2 -56.84,1.46 -64.19,-0.55 -18.34,-5.03 -13.84,-32.35 0.53,-38.14 9.21,-3.71 48.9,-1.36 61.82,-1.79 16.33,-0.55 26.02,-16.6 35.21,-28.24l30.13 -33.36zm39.01 -123.08c-21.15,2.74 -38.98,18.57 -49.01,31.96 -2.73,3.63 -3.74,5.04 -6.19,9.48 -20.5,37.01 5.48,79.09 5.54,79.92 0.47,6.92 -18.27,23.37 -28.89,37.43l-13.46 13.99c-19.88,17.07 -67.11,-6.13 -86.06,15.5 -11.5,13.12 -9.23,36.77 9.88,41.65 10.86,2.77 51.39,0.83 65.68,1.03 29.25,0.43 45.19,-13.74 60.64,-35.4l28.86 -35.93c11.21,-10.23 41.79,11.02 79.02,-20.58 20.39,-17.31 36.8,-58.57 19.17,-94.09 -16.31,-32.87 -46.45,-49.98 -85.18,-44.96z"/>
  <path fill="#F7F5FF" d="M2292.68 689.04c-20.53,-0.65 -32.73,7.7 -55.34,0.51 -50.3,-16 -65.3,-81.76 -32.46,-119.55 50.1,-57.65 147.4,-2.41 122.87,70.03 -2.6,7.66 -9.53,14.56 -7.04,22.38l22.05 25.37c38.36,46.34 31.88,37.35 73.04,37.4 18.86,0.02 39.65,2.59 34.87,25.77 -4.12,19.94 -27.49,14.7 -48.59,14.96 -23.05,0.28 -39.82,4 -53.85,-9.4l-55.55 -67.47zm-48.84 -147.76c-65.89,8.92 -92.41,112.71 -17.82,150.12 26.75,13.42 35.2,2.89 58.82,5.29 13.95,1.42 43.12,49.36 62.35,66.66 13.32,11.99 36.45,8.54 56.84,8.31 20.23,-0.23 41.54,4.62 50.16,-13.24 8.9,-18.43 -3.82,-36.99 -20.75,-38.7 -54.48,-5.5 -42.03,14.5 -72.91,-22.43 -2.96,-3.54 -4.33,-4.48 -7.28,-8.36 -9.25,-12.17 -16.83,-13.63 -23.21,-25.71 -5.31,-10.07 19.62,-39.12 -1.44,-80.51 -4.39,-8.64 -7.09,-13.25 -13.01,-18.28 -8.78,-7.46 -7.38,-9.49 -18.56,-14.86 -17.19,-8.25 -31.41,-11.24 -53.19,-8.29z"/>
  <path fill="#F7F5FF" d="M2315.94 1418.04l5.54 8.34c6.75,9.79 10.23,24.34 9.82,36.58 -2.04,60.49 -63.82,85.54 -107.38,60.98 -45.17,-25.47 -49.58,-86.4 -7.25,-119.34 11.93,-9.27 29.1,-15.34 48.65,-14.37 9.99,0.5 18.34,4.23 24.44,-0.35l21.35 -25.61c3.24,-3.56 3.79,-5.13 6.84,-8.92l14.71 -16.55c12.42,-16.13 21.24,-20 42.01,-20.78 10.64,-0.4 54.3,-1.73 61.78,1.11 15.3,5.83 16.88,31.93 2.4,38 -8.7,3.64 -46.57,0.99 -58.39,0.95 -11.93,-0.04 -13.73,5.04 -19.53,10.98l-44.99 48.98zm9.43 0l30.1 -32.96c20.7,-24.01 10.17,-20.42 44.65,-20.17 20.97,0.15 42.36,3.67 51.67,-12.67 9.58,-16.83 -1.36,-36.51 -17.78,-40.11 -9.38,-2.06 -49.92,-1.56 -60.77,-0.52 -34.55,3.3 -46.24,22.56 -72.55,55.83 -1.55,1.96 -13.95,15.46 -15.2,16.12 -7.45,3.92 -22.94,0.26 -32.05,0.85 -72.92,4.7 -102.54,107.63 -32.46,144.59 49.92,26.33 109.75,-1.9 116.09,-59.08 2.9,-26.25 -4.72,-31.81 -11.7,-51.88z"/>
  <path fill="#F7F5FF" d="M3075.85 1418.04l-35.91 -41.73c-8.1,-8.77 -10.04,-18.27 -29.9,-18 -13.42,0.18 -49.98,2.53 -60.96,-0.74 -18.21,-5.43 -14.61,-32.29 1.31,-38.15 8.64,-3.19 49.49,-1.63 61.53,-1.7 45.46,-0.28 42.48,15.74 67.72,42.42 4.54,4.8 3.47,3.23 7.17,8.45 4.02,5.66 2.49,3.17 7.35,8.24 17.99,18.78 2.88,17.5 29.21,13.84 71.72,-9.96 114.1,90.99 43.27,133.36 -52.99,31.7 -127.11,-22.67 -102.22,-86.66 3.92,-10.1 6.66,-12.29 11.43,-19.33zm-8.45 0c-3.25,7.78 -7.17,11.99 -10.03,21.95 -22.27,77.62 72.93,133.91 131.89,73.26 25.52,-26.26 25.95,-64.78 4.24,-96.97 -4.65,-6.89 -11.41,-11.67 -16.47,-16.76 -25.66,-25.79 -58.24,-6.09 -72.18,-19.59 -13.41,-12.97 -26.16,-33.13 -45.63,-52.23 -14.92,-14.63 -19.39,-16.44 -47.29,-16.44 -37.31,0.01 -65.33,-6.51 -77.91,17.18 -5,9.43 -2.69,18.43 2.44,26.34 9.1,14.06 34.89,10.11 53.95,9.9 33.37,-0.37 31.36,-2.37 47.76,17.27 8.45,10.12 26.12,28.62 29.23,36.09z"/>
  <path fill="#F7F5FF" d="M3142.83 844.81c8.37,-16.08 14.09,-44.16 47.27,-55.84 30.17,-10.63 60.65,2.55 74.76,18.48 40.38,45.56 8.31,120.92 -55.62,116.38 -22.07,-1.57 -39.25,-12.81 -50.59,-27.83 -4.96,-6.57 -3.87,-9.37 -14.72,-9.28 -33.54,0.28 -67.2,0.63 -100.81,0.83 -17.32,0.11 -29.88,-2.65 -30.53,-20.88 -0.65,-18.05 12.06,-21.95 28.61,-22.04 33.76,-0.2 67.96,0.67 101.63,0.18zm59.68 -64.68c-33.45,4.03 -47.79,24.06 -59.78,49.47 -6.12,12.98 -30.32,8.17 -44.81,7.99 -18.17,-0.22 -36.63,-0.01 -54.82,0.08 -49.95,0.25 -41.57,49.2 -17.2,54.55 19.09,4.18 85.78,1.31 109.26,0.95 30.73,-0.47 23.56,32.31 70.8,36.07 110.92,8.81 109.45,-162.71 -3.45,-149.11z"/>
  <path fill="#F7F5FF" d="M2251.16 845.26c25.6,-0.2 51.05,-0.23 76.64,-0.2 22.66,0.03 57.72,-5.96 54.65,23.57 -2.58,24.91 -38.22,18.49 -60.51,18.51 -25.34,0.03 -52.17,-0.59 -77.28,0.01 -11.67,13.29 -14.19,22.32 -31.55,31.17 -14.51,7.4 -38.71,8.55 -54.83,2.79 -74.26,-26.53 -53.46,-140 26.66,-135.7 39.3,2.1 55,26.48 66.22,59.85zm-1.54 47.77c26.36,1.19 53.64,0.29 80.14,0.33 26.77,0.05 55.55,4.98 58.2,-25.02 2.69,-30.44 -22.72,-29.6 -48.42,-30.01 -20.79,-0.32 -65.08,2.32 -82.4,-0.46 -14.47,-31.65 -31.46,-59.16 -75.91,-58.69 -86.69,0.92 -101.56,118.34 -25.88,146.94 17.07,6.45 42.1,5.8 58.19,-1.54 19.77,-9.01 22.93,-19.02 36.08,-31.55z"/>
  <path fill="#322CF4" d="M3111.59 554.86c37.58,-14.1 68.51,13.29 79.41,34.89 18.32,36.27 -3.29,71.17 -22.55,85.42 -34.02,25.17 -58.44,0.05 -72.82,15.44l-40.84 49.16c-10.73,13.48 -14.1,19.54 -36.91,19.77 -19.32,0.2 -41.99,1.53 -60.83,0.81 -22.06,-0.84 -18.97,-25.61 -1.24,-29.63 14.12,-3.2 43,1.07 59.8,-1 16.2,-2 25.23,-16.5 33.54,-26.99 3.62,-4.57 20.01,-20.17 28.29,-32.46 8.94,-13.27 -8.39,-22.31 -11.96,-42.32 -6.98,-39.1 17.91,-62.51 46.11,-73.09zm-64.33 142.06c-9.19,11.64 -18.88,27.69 -35.21,28.24 -12.92,0.43 -52.61,-1.92 -61.82,1.79 -14.37,5.79 -18.87,33.11 -0.53,38.14 7.35,2.01 53.34,0.75 64.19,0.55 26.63,-0.47 31.65,-5.73 43.42,-19.64 5.98,-7.05 8.93,-10.57 15.26,-17.85l27.9 -34.76c11.21,-11.07 40.73,12 72.71,-15.09 9.36,-7.93 21.66,-20.53 26.13,-36.55 23.27,-83.51 -77.33,-127.39 -124.24,-69.38 -25.52,31.56 -17.15,62.41 2.32,91.19l-30.13 33.36z"/>
  <path fill="#322CF4" d="M3166.96 1405.9c8.69,6.85 20.63,19.74 25.92,31.94 30.18,69.64 -69.68,124.33 -113.59,63.51 -36.01,-49.88 4.76,-72.64 0,-87.81l-27.7 -33.06c-6.64,-8.83 -20.28,-25.35 -31.99,-27 -17.03,-2.4 -42.32,1.08 -60.61,0.05 -24.57,-1.38 -20.89,-23.23 -5.57,-29.61 7.92,-3.3 46.84,-1.43 58.5,-1.41 32.99,0.05 24.51,2.22 41.74,16.57 8.63,7.18 9.28,10.02 14.8,16.39l13.8 15.59c3.07,3.54 3.43,5.19 6.83,8.78 2.97,3.13 4.19,3.87 6.87,6.84 5.93,6.56 6.88,10.86 19.4,10.28 18.97,-0.89 38.25,-1.6 51.6,8.94zm-80.15 -37.31c-3.7,-5.22 -2.63,-3.65 -7.17,-8.45 -25.24,-26.68 -22.26,-42.7 -67.72,-42.42 -12.04,0.07 -52.89,-1.49 -61.53,1.7 -15.92,5.86 -19.52,32.72 -1.31,38.15 10.98,3.27 47.54,0.92 60.96,0.74 19.86,-0.27 21.8,9.23 29.9,18l35.91 41.73c-4.77,7.04 -7.51,9.23 -11.43,19.33 -24.89,63.99 49.23,118.36 102.22,86.66 70.83,-42.37 28.45,-143.32 -43.27,-133.36 -26.33,3.66 -11.22,4.94 -29.21,-13.84 -4.86,-5.07 -3.33,-2.58 -7.35,-8.24z"/>
  <path fill="#F7F5FF" d="M3148.43 1247.02l-4.84 -10.75 -116.66 -2.18c-10.25,-1.89 -16.54,-13.76 -13.25,-25.44 3.87,-13.75 11.83,-15.35 27.51,-15.34 28.66,0.02 57.41,-0.22 86.06,0.04 22.19,0.21 19.78,1.34 31.14,-11.88 41.41,-48.22 119.19,-20.47 123.62,39.09 3.7,49.66 -43.8,87.56 -93.21,69.38 -17.37,-6.39 -35.42,-23.99 -40.37,-42.92zm-8.93 -5.62c10.52,25.35 19.66,46.31 52.11,55.65 28.06,8.08 53.37,1.96 73.37,-16.87 61.25,-57.61 -9.84,-167.18 -93.84,-117.32 -5.12,3.04 -12.54,7.87 -15.99,11.41 -4.7,4.83 -5.69,10.81 -14.58,12.41 -62.15,11.16 -133.3,-21.19 -133.1,28.09 0.16,41.61 64.73,22.34 132.03,26.63z"/>
  <path fill="#322CF4" d="M4622.63 1361.31c-6.5,2.66 -28.71,40.54 -72.75,62.24 -33.73,16.63 -74.57,25.78 -116.31,19 -67.89,-11.03 -127.89,-54.87 -156.77,-114.62 -41.58,-86 -33.77,-186.76 27.08,-261.77l25.38 -27.3c24.69,-20.18 63.74,-42.38 105.83,-44.85 -1.16,-5.83 0.22,-3.17 -5.95,-4.11 -17.37,-2.66 -74.16,21.91 -93.23,37.81 -6.91,5.77 -13.18,10.45 -19.43,15.92 -11.36,9.97 -36.54,46.52 -43.88,61.83 -35.23,73.51 -36.88,150.34 0.97,225.62l20.66 31.96c25.84,29.77 9.23,15.74 43.87,44.35 54.46,44.96 150.92,55.93 216.68,19.3 17.18,-9.57 28.59,-19.18 40.89,-29.63 1.94,-1.65 35.93,-35.59 26.96,-35.75z"/>
  <path fill="#322CF4" d="M2324.47 630.33c-4.13,22.87 -19.37,25.63 5.19,50.85l22.46 24.5c8.31,10.77 16.43,23.47 34.23,24.44 14.85,0.81 46.65,-4.15 55.6,5.01 4.85,4.98 6.32,15.32 1.52,20.71 -4.78,5.38 -14.74,4.62 -23.76,4.56 -56.88,-0.38 -57.08,11.2 -88.26,-32.07l-27.38 -33.14c-13.44,-17.42 -20.63,-9.21 -45.25,-7.56 -17.74,1.2 -32.95,-7.48 -42.22,-16.59 -62.72,-61.64 3.78,-138.62 65.43,-115.74 29.78,11.06 48.25,42.89 42.44,75.03zm-31.79 58.71l55.55 67.47c14.03,13.4 30.8,9.68 53.85,9.4 21.1,-0.26 44.47,4.98 48.59,-14.96 4.78,-23.18 -16.01,-25.75 -34.87,-25.77 -41.16,-0.05 -34.68,8.94 -73.04,-37.4l-22.05 -25.37c-2.49,-7.82 4.44,-14.72 7.04,-22.38 24.53,-72.44 -72.77,-127.68 -122.87,-70.03 -32.84,37.79 -17.84,103.55 32.46,119.55 22.61,7.19 34.81,-1.16 55.34,-0.51z"/>
  <path fill="#322CF4" d="M2360.26 1324.38c9.27,-3.3 111.58,-11.3 80,24.41 -6.81,7.69 -40.83,4.72 -53.88,4.66 -17.5,-0.1 -22.46,2.19 -37.16,21.61 -8.91,11.77 -19.53,21.52 -29.36,31.19 -16.25,15.99 -1.01,20.16 4.13,38.85 9.92,36.01 -12.34,66.35 -36.04,77.23 -48.79,22.38 -104,-22.23 -95.02,-69.79 3.47,-18.41 16.61,-36.61 28.5,-44.97 40.15,-28.2 52.23,6.3 80.2,-23.65 3.91,-4.19 9.39,-10.86 13.29,-15.88l13.63 -15.71c7.87,-10.23 19.16,-23.48 31.71,-27.95zm0.67 44.68c5.8,-5.94 7.6,-11.02 19.53,-10.98 11.82,0.04 49.69,2.69 58.39,-0.95 14.48,-6.07 12.9,-32.17 -2.4,-38 -7.48,-2.84 -51.14,-1.51 -61.78,-1.11 -20.77,0.78 -29.59,4.65 -42.01,20.78l-14.71 16.55c-3.05,3.79 -3.6,5.36 -6.84,8.92l-21.35 25.61c-6.1,4.58 -14.45,0.85 -24.44,0.35 -19.55,-0.97 -36.72,5.1 -48.65,14.37 -42.33,32.94 -37.92,93.87 7.25,119.34 43.56,24.56 105.34,-0.49 107.38,-60.98 0.41,-12.24 -3.07,-26.79 -9.82,-36.58l-5.54 -8.34 44.99 -48.98z"/>
  <path fill="#F7F5FF" d="M2291.36 626.42c12.8,-42.26 -55.04,-60 -65.55,-17.99 -10.21,40.83 35.68,52.08 51.98,38.31 7.05,-5.96 10.81,-11.23 13.57,-20.32z"/>
  <path fill="#F7F5FF" d="M3123.81 584.95c-21.08,5.06 -29.46,21.63 -25.58,41.09 3.25,16.32 21.08,29.58 41.77,25.05 38.63,-8.47 28.06,-76.75 -16.19,-66.14z"/>
  <path fill="#F7F5FF" d="M3122.37 1430.39c-15.47,4.26 -28.49,19.41 -23.6,39.61 4.62,19.08 19.69,28.67 41.8,23.97 38.01,-8.08 29.02,-76.6 -18.2,-63.58z"/>
  <path fill="#F7F5FF" d="M2252.36 1429.48c-42.54,9.47 -31.75,74.34 16.81,65 14.39,-2.77 27.26,-24.02 22.07,-42.01 -4.05,-14.02 -19.72,-27.26 -38.88,-22.99z"/>
  <path fill="#322CF4" d="M3198.42 792.54c32.59,-9.57 55.72,10.11 67.57,25.38 16.45,21.21 13.42,52.02 -0.65,73.89 -12.39,19.24 -35.85,32.38 -67.52,25.04 -35.48,-8.22 -25.22,-35.7 -60.78,-35.11 -32.55,0.54 -65.24,0.26 -97.86,0.67 -9.86,0.13 -14.78,0.04 -18.58,-6.4 -3.2,-5.42 -3.83,-14.03 -1.09,-19.18 5.46,-10.29 29.14,-7.12 41.27,-7.13 16.29,0 32.58,-0.08 48.87,0 28.21,0.15 33.93,3.8 39.96,-9.48 11.27,-24.79 20.74,-39.43 48.81,-47.68zm-55.59 52.27c-33.67,0.49 -67.87,-0.38 -101.63,-0.18 -16.55,0.09 -29.26,3.99 -28.61,22.04 0.65,18.23 13.21,20.99 30.53,20.88 33.61,-0.2 67.27,-0.55 100.81,-0.83 10.85,-0.09 9.76,2.71 14.72,9.28 11.34,15.02 28.52,26.26 50.59,27.83 63.93,4.54 96,-70.82 55.62,-116.38 -14.11,-15.93 -44.59,-29.11 -74.76,-18.48 -33.18,11.68 -38.9,39.76 -47.27,55.84z"/>
  <path fill="#F7F5FF" d="M2314.07 1234.13c-11.12,6.6 -47.16,2.3 -63.18,2.2l-4.48 10.89c-10.8,29.81 -32.05,50.81 -72.8,46.82 -77.77,-7.63 -82.15,-111.99 -13.2,-133.35 27.02,-8.37 51.2,-3.02 70.12,16.49 3.36,3.47 10.46,13.81 15.18,16.03 14.15,-0.03 56.65,-1.91 67.67,0.79 20.68,5.06 20.34,36.97 0.69,40.13zm-136.85 -83.05c-53.39,6.32 -88.93,57.87 -63.01,109.24 23,45.6 88.77,56.21 125.89,13.36 26.36,-30.4 -8.87,-36.57 60.35,-32.75 18.84,1.04 27.16,-0.54 32.56,-15.31 4.97,-13.6 -0.7,-28.2 -9.52,-34.08 -11.79,-7.85 -47.63,-3.85 -66.23,-4.02 -12.03,-0.11 -10.33,-0.74 -15.48,-7.94 -11.15,-15.56 -33.46,-32.18 -64.56,-28.5z"/>
  <path fill="#322CF4" d="M2250.17 848.78c58.84,6.94 130.12,-12.47 127.64,17.58 -2.41,29.13 -68.88,9.4 -128.48,17.4 -22.15,2.98 -19.9,34.28 -62.17,35.85 -27.72,1.02 -49.69,-10.18 -62.76,-34.77 -15.55,-29.24 -6.12,-54.23 9.29,-73.38 18.14,-22.55 68.37,-35.6 99.6,5.14 7,9.13 10.4,24.04 16.88,32.18zm0.99 -3.52c-11.22,-33.37 -26.92,-57.75 -66.22,-59.85 -80.12,-4.3 -100.92,109.17 -26.66,135.7 16.12,5.76 40.32,4.61 54.83,-2.79 17.36,-8.85 19.88,-17.88 31.55,-31.17 25.11,-0.6 51.94,0.02 77.28,-0.01 22.29,-0.02 57.93,6.4 60.51,-18.51 3.07,-29.53 -31.99,-23.54 -54.65,-23.57 -25.59,-0.03 -51.04,0 -76.64,0.2z"/>
  <path fill="#F7F5FF" d="M3182.63 860.98c3.2,15.82 18.45,27.63 38.56,24.39 15.55,-2.51 28.15,-19.63 23.27,-39.8 -9.35,-38.55 -69.99,-25 -61.83,15.41z"/>
  <path fill="#F7F5FF" d="M2170.05 825.31c-38.76,12.85 -17.73,73.36 21.8,60.06 33.24,-11.18 23.98,-75.24 -21.8,-60.06z"/>
  <path fill="#F7F5FF" d="M2210.81 1236.26c14.75,-41.13 -48.33,-57.36 -60.04,-20.67 -13.43,42.09 46.72,57.82 60.04,20.67z"/>
  <path fill="#F7F5FF" d="M3182.38 1232.35c8.46,35.37 67.63,34.04 60.61,-13.76 -5.66,-38.55 -70.76,-28.72 -60.61,13.76z"/>
  <path fill="#322CF4" d="M2246.41 1247.22c-7.83,-6.74 1.93,-2.35 -3.75,-1.4 -3.52,0.59 -1.25,-0.2 -5.57,9.48 -17.33,38.8 -66.97,42.36 -93.65,22.4 -38.57,-28.85 -33.49,-83.21 3.65,-104.66 37.27,-21.52 62.33,-10.97 86.1,15.04 11.34,12.42 11.52,10.5 32.06,10.4 19.49,-0.1 64.17,-8.31 57.29,21.17 -4.16,17.81 -48.51,11.9 -67.81,12.27l59.34 2.21c19.65,-3.16 19.99,-35.07 -0.69,-40.13 -11.02,-2.7 -53.52,-0.82 -67.67,-0.79 -4.72,-2.22 -11.82,-12.56 -15.18,-16.03 -18.92,-19.51 -43.1,-24.86 -70.12,-16.49 -68.95,21.36 -64.57,125.72 13.2,133.35 40.75,3.99 62,-17.01 72.8,-46.82z"/>
  <path fill="#F7F5FF" d="M2532.7 1072.25c0.67,-14.07 18.81,-58.75 23.89,-76.53 4.01,-14.02 7.62,-25.55 12.41,-38.31 3.62,-9.65 5.43,-31.43 12.9,-35.69 4.67,6.97 48.53,141.06 48.77,150.15 -19.52,3.11 -77.16,2.17 -97.97,0.38zm-9.85 7.48c38.93,-2.91 78.25,0.12 117.15,-0.62l-57.46 -178.96c-6.43,3.07 -6.77,14.39 -8.43,20.93 -1.98,7.79 -4.1,14.78 -6.5,22.88l-44.76 135.77z"/>
  <path fill="#120FF6" d="M3026.93 1234.09l16.18 -1.88c-15.53,0.15 -28.4,-3.53 -25.69,-21.21 4.21,-27.45 72.25,-4.89 127.13,-14.09 15.93,-2.67 22.37,-32.62 60.8,-35.38 59.56,-4.28 91.23,57.06 58.91,104.31 -19,27.78 -65.97,36.17 -96.17,5.8 -3.57,-3.59 -7.35,-8.38 -10.17,-13.22 -1.63,-2.78 -2.42,-4.98 -4.07,-8.04 -6.61,-12.27 -2.4,-6.66 -5.42,-3.36 4.95,18.93 23,36.53 40.37,42.92 49.41,18.18 96.91,-19.72 93.21,-69.38 -4.43,-59.56 -82.21,-87.31 -123.62,-39.09 -11.36,13.22 -8.95,12.09 -31.14,11.88 -28.65,-0.26 -57.4,-0.02 -86.06,-0.04 -15.68,-0.01 -23.64,1.59 -27.51,15.34 -3.29,11.68 3,23.55 13.25,25.44z"/>
  <path fill="#929AFE" d="M4791.42 1721l-284.23 0 1.95 0 0 -82.09 265.83 0 0 -3.43c-44.19,1.5 -90.48,0.24 -134.87,0.1 -13.75,-0.05 -124.09,-1.53 -129.83,0.82 -3.36,1.38 -1.81,0.82 -3.55,2.41 -2.33,6.24 -1.38,76.43 0.38,84.27 29.46,0.96 275.65,5.11 284.32,-2.08z"/>
  <path fill="#322CF4" d="M2252.36 1429.48c19.16,-4.27 34.83,8.97 38.88,22.99 5.19,17.99 -7.68,39.24 -22.07,42.01 -48.56,9.34 -59.35,-55.53 -16.81,-65zm-31.28 37.42c4.24,41.54 56.53,39.98 68.41,20.11 4.79,-8.02 8.76,-18.62 7.53,-29.67 -5.46,-49.02 -81.33,-43.23 -75.94,9.56z"/>
  <path fill="#322CF4" d="M2291.36 626.42c-2.76,9.09 -6.52,14.36 -13.57,20.32 -16.3,13.77 -62.19,2.52 -51.98,-38.31 10.51,-42.01 78.35,-24.27 65.55,17.99zm-36.71 -46.9c-48.72,3.79 -46.1,82.75 8.72,77.28 32.63,-3.25 39.36,-37.15 29.26,-57.41 -4.24,-8.51 -11.2,-15.27 -21.4,-18.5 -5.87,-1.85 -10.59,-1.83 -16.58,-1.37z"/>
  <path fill="#322CF4" d="M2170.05 825.31c45.78,-15.18 55.04,48.88 21.8,60.06 -39.53,13.3 -60.56,-47.21 -21.8,-60.06zm45.13 39.57c15.05,-50.57 -58.61,-64.47 -69.26,-21.14 -11.62,47.27 55.18,68.45 69.26,21.14z"/>
  <path fill="#322CF4" d="M2210.81 1236.26c-13.32,37.15 -73.47,21.42 -60.04,-20.67 11.71,-36.69 74.79,-20.46 60.04,20.67zm-66.24 -5.86c6.38,46.55 76.31,40.3 72.83,-7.8 -3.57,-49.49 -79.27,-39.14 -72.83,7.8z"/>
  <path fill="#120FF6" d="M3123.81 584.95c44.25,-10.61 54.82,57.67 16.19,66.14 -20.69,4.53 -38.52,-8.73 -41.77,-25.05 -3.88,-19.46 4.5,-36.03 25.58,-41.09zm0.24 -4.12c-47.88,8.69 -36.03,83.65 14.63,74.63 19.78,-3.52 33.06,-21.55 28.48,-45.65 -3.41,-17.91 -20.89,-33.01 -43.11,-28.98z"/>
  <path fill="#120FF6" d="M3122.37 1430.39c47.22,-13.02 56.21,55.5 18.2,63.58 -22.11,4.7 -37.18,-4.89 -41.8,-23.97 -4.89,-20.2 8.13,-35.35 23.6,-39.61zm0.27 -3.69c-46.12,13.34 -34.99,80.32 17.93,71.18 43.95,-7.6 33.21,-85.97 -17.93,-71.18z"/>
  <path fill="#120FF6" d="M3182.38 1232.35c-10.15,-42.48 54.95,-52.31 60.61,-13.76 7.02,47.8 -52.15,49.13 -60.61,13.76zm19.33 -39.39c-10.09,3.49 -15.23,6.87 -20.19,15.69 -14.81,26.33 11.18,58.3 43.22,51.13 38.1,-8.54 26.71,-84.05 -23.03,-66.82z"/>
  <path fill="#120FF6" d="M3182.63 860.98c-8.16,-40.41 52.48,-53.96 61.83,-15.41 4.88,20.17 -7.72,37.29 -23.27,39.8 -20.11,3.24 -35.36,-8.57 -38.56,-24.39zm25.95 -40.94c-18.41,4.65 -34.44,16.6 -29.96,40.5 3.59,19.17 20.29,30.86 42.52,28.13 41.33,-5.08 33.57,-80.29 -12.56,-68.63z"/>
 </g>
</svg>
