<?xml version="1.0" encoding="UTF-8"?>
<!DOCTYPE svg PUBLIC "-//W3C//DTD SVG 1.1//EN" "http://www.w3.org/Graphics/SVG/1.1/DTD/svg11.dtd">
<!-- Creator: CorelDRAW -->
<svg xmlns="http://www.w3.org/2000/svg" xml:space="preserve" width="19.4257in" height="7.31237in" version="1.1" style="shape-rendering:geometricPrecision; text-rendering:geometricPrecision; image-rendering:optimizeQuality; fill-rule:evenodd; clip-rule:evenodd"
viewBox="0 0 18224.4 6860.18"
 xmlns:xlink="http://www.w3.org/1999/xlink"
 xmlns:xodm="http://www.corel.com/coreldraw/odm/2003">
 <defs>
  <style type="text/css">
   <![CDATA[
    .fil6 {fill:#120FF6}
    .fil4 {fill:#322CF4}
    .fil1 {fill:#5B74FE}
    .fil2 {fill:#866AF6}
    .fil5 {fill:#929AFE}
    .fil0 {fill:#D6CFFE}
    .fil3 {fill:#F7F5FF}
   ]]>
  </style>
 </defs>
 <g id="Layer_x0020_1">
  <metadata id="CorelCorpID_0Corel-Layer"/>
  <g id="_1905212055264">
   <path class="fil0" d="M9967.53 4548.7c-63.54,0.7 -149.5,13.87 -179.85,-32.98 -17.09,-26.38 -24.78,-56.39 -8.1,-87.82 41.9,-78.97 135.29,-57.24 259.69,-57.25 92.98,-0.01 107.89,6.01 157.61,54.78 64.91,63.67 107.4,130.88 152.08,174.11 46.49,44.99 155.07,-20.69 240.62,65.29 16.86,16.95 39.38,32.89 54.87,55.85 72.38,107.29 70.95,235.7 -14.14,323.22 -196.52,202.14 -513.82,14.54 -439.6,-244.18 9.53,-33.21 22.6,-47.25 33.42,-73.18 -10.36,-24.91 -69.26,-86.54 -97.44,-120.29 -54.66,-65.47 -47.95,-58.79 -159.16,-57.56zm-2216.71 177.85c23.29,66.9 48.69,85.42 39,172.92 -21.11,190.61 -220.54,284.71 -386.93,196.94 -233.58,-123.21 -134.87,-466.28 108.2,-481.97 30.34,-1.96 82,10.26 106.82,-2.82 4.18,-2.2 45.51,-47.21 50.65,-53.72 87.7,-110.92 126.67,-175.1 241.82,-186.11 36.2,-3.46 171.29,-5.12 202.58,1.75 54.72,12 91.19,77.58 59.25,133.68 -31.01,54.46 -102.34,42.73 -172.2,42.24 -114.93,-0.82 -79.84,-12.79 -148.84,67.24l-100.34 109.85zm1804.5 -2070.08c58.4,-9.85 174.77,-9.36 220.9,19.76 56.32,35.55 42.89,124.95 43.86,206.57 1.93,161.67 1.11,326.85 -0.13,488.63l0.17 742.72c-0.73,65.42 1.81,133.04 -95.92,147.89 -57.64,8.76 -179.37,5.91 -223.86,-18.8 -62.31,-34.6 -39.02,-126.95 -41.76,-207.28 -5.48,-161.09 -1.36,-326.96 -1.88,-488.63 -0.53,-163.99 5.48,-331.67 2.28,-495.14 -1.63,-83.08 -0.34,-164.7 -1.5,-247.59 -1.23,-87.51 11.18,-133.52 97.83,-148.13zm909.15 1481.31c-224.33,-14.31 -439.55,49.95 -440.1,-88.76 -0.65,-164.26 236.49,-56.43 443.64,-93.62 29.66,-5.33 32.93,-25.29 48.62,-41.38 11.5,-11.8 36.23,-27.89 53.29,-38.02 279.97,-166.21 516.94,199 312.79,391.06 -66.68,62.73 -151.04,83.16 -244.56,56.23 -108.18,-31.16 -138.64,-101.02 -173.68,-185.51zm-3207.46 -301.04c103.68,-12.28 178.03,43.12 215.19,95 17.19,23.99 11.51,26.09 51.61,26.45 61.99,0.55 181.45,-12.76 220.74,13.41 29.41,19.59 48.29,68.25 31.73,113.58 -17.98,49.24 -45.73,54.49 -108.53,51.02 -230.72,-12.74 -113.29,7.82 -201.13,109.18 -123.75,142.8 -342.98,107.45 -419.64,-44.53 -86.37,-171.23 32.07,-343.05 210.03,-364.12zm1266.64 -1315.05c48.62,-5.59 157.32,-4.95 203.91,3.27 67.03,11.82 91.43,47.59 113.21,110.23l82.98 249.22c9.62,27.77 11.93,50.81 23.34,80.97 38.93,102.97 68.25,221.29 105.79,330.66 37.32,108.75 69.65,218.17 106.66,329.79 36.93,111.36 71.9,224.44 108.92,334.69 32.85,97.83 111.44,272.98 -25.57,303.17 -34.65,7.63 -188.03,4.35 -213.25,-5.51 -55.86,-21.83 -65.71,-70.29 -83.97,-132 -68.97,-233.05 -42.72,-193.12 -242.05,-195.13 -69.4,-0.7 -153.15,-2.01 -221.51,0.18 -105.35,3.37 -119.84,-33.65 -156.62,65.11 -57.38,154.08 -47.75,257.91 -169.4,266.37 -388.44,26.99 -252.59,-109.61 -141.01,-491.3 64.12,-219.32 144.24,-446.62 216.23,-663.85 35.61,-107.43 68.75,-221.09 105.96,-330.44 52.12,-153.2 32.68,-237.74 186.39,-255.42zm-1025.31 454.92c-43.84,41.77 -54.35,75.15 -120.25,105.17 -53.65,24.44 -137.08,26.64 -193.96,5.14 -252.26,-95.35 -202.68,-486.72 86.24,-489.78 148.17,-1.57 204.8,90.1 253.03,195.61 57.72,9.28 205.37,0.46 274.64,1.55 85.69,1.34 170.38,-1.45 161.41,100.03 -8.83,99.97 -104.76,83.55 -194,83.39 -88.33,-0.15 -179.24,2.86 -267.11,-1.12zm3176.13 -376.31c376.31,-45.33 381.24,526.37 11.52,496.99 -157.48,-12.51 -133.58,-121.79 -236.01,-120.21 -78.27,1.21 -300.56,10.77 -364.17,-3.18 -81.22,-17.81 -109.16,-180.99 57.31,-181.8 60.64,-0.3 122.16,-1.02 182.73,-0.28 48.29,0.59 128.95,16.65 149.37,-26.63 39.97,-84.72 87.76,-151.47 199.25,-164.89zm-3195.39 -796.11c72.58,-9.83 120,0.12 177.28,27.62 37.27,17.9 32.61,24.67 61.86,49.52 19.75,16.77 28.75,32.15 43.39,60.93 70.18,137.98 -12.89,234.81 4.81,268.35 21.26,40.28 46.51,45.14 77.35,85.71 9.84,12.94 14.39,16.07 24.27,27.88 102.91,123.07 61.43,56.4 243,74.75 56.44,5.71 98.85,67.56 69.19,129 -28.73,59.52 -99.76,43.34 -167.19,44.12 -67.98,0.78 -145.06,12.26 -189.48,-27.7 -64.09,-57.65 -161.31,-217.45 -207.8,-222.18 -78.75,-8.01 -106.89,27.09 -196.08,-17.64 -248.6,-124.68 -160.22,-470.63 59.41,-500.36zm2908.37 -2.67c129.11,-16.73 229.58,40.3 283.94,149.84 58.74,118.39 4.05,255.93 -63.9,313.62 -124.08,105.35 -226.02,34.52 -263.39,68.62l-96.2 119.76c-51.5,72.18 -104.62,119.42 -202.11,118 -47.64,-0.69 -182.72,5.78 -218.92,-3.46 -63.68,-16.25 -71.25,-95.09 -32.92,-138.83 63.15,-72.07 220.57,5.24 286.82,-51.64l44.88 -46.64c35.38,-46.87 97.87,-101.68 96.29,-124.76 -0.19,-2.77 -86.8,-143.04 -18.48,-266.39 8.19,-14.79 11.56,-19.49 20.64,-31.59 33.45,-44.63 92.86,-97.37 163.36,-106.51zm773.91 1745.88c-102.66,-6.35 -246.18,0.84 -353.39,1.82l-521.2 0.71c-57.93,1.01 -105.35,7.49 -135.8,-36.25 -28.52,-40.97 -19.15,-91.88 18.12,-116.6 39.94,-26.49 99.82,-18.07 150.26,-17.99 232.22,0.35 464.98,-0.96 697.11,0.45 131.11,0.8 140.25,24 146.39,-19.94l-0.44 -1212.99c-1.93,-237.02 16.3,-398.7 -84.82,-608.89 -75.36,-156.64 -199.7,-276.31 -352.96,-343.26 -193.36,-84.48 -406.11,-64.34 -626.78,-63.9 -692.33,1.37 -1394.82,-3.92 -2084.8,1.17 -194.67,1.44 -484.25,-20.82 -659.38,30.49 -160.41,47 -218.06,100.94 -327.18,199.7l-76.72 92.54c-49.28,66.55 -91.07,153.24 -109.81,235.47 -24.58,107.86 -25.23,205.9 -23.79,319.87 2.04,161.61 -12.69,1321.54 7.48,1371.75 77.09,4.12 188.35,-2.83 270.79,-3.03l547.26 0.01c82.77,0.51 184.77,-12.38 189.04,84.39 4.96,112.52 -127.35,86.79 -195.55,87.11 -45.44,0.21 -805.51,-6.56 -814.89,4.06 -14.72,16.67 -6.78,1176.45 -4.79,1380.96 2.15,220.66 18.99,351.16 144.07,538.84 69.46,104.22 248.86,242.88 405.23,284.99 167.28,45.05 346.34,28.08 524.46,29.6 737.58,6.29 1472.53,-5.47 2208.59,0.8 268.23,2.28 486.26,24.04 708.02,-120.07 50.04,-32.52 111.94,-82.28 149.45,-124.35l32.56 -39.05c29.47,-40.55 56.34,-68.81 84.27,-124.4 124.45,-247.68 91.46,-435.89 90.43,-733.04 -0.65,-184.58 0.86,-369.12 -0.49,-553.77 -0.62,-85.22 6.63,-504.07 -0.71,-547.21z"/>
   <path class="fil1" d="M13700.63 6589.84l-0.03 -6241.41c-0.07,-12.16 -0.93,-27.89 -0.45,-39.54 0.28,-6.83 0.35,-11.14 1.71,-17.84l20.04 -58.14c9.15,-20.48 30.59,-44.46 48.15,-56.09l16.76 -9.3c39.81,-18.63 469.04,-8.01 526.22,-8.01l2886.15 0c55.47,-0 86.57,-8.39 124.34,12.47l43.3 47.91c14.07,21.56 18.89,17.37 31.72,66 9.3,35.27 2.6,2529.32 2.6,2557.8 0,1221.25 -7.25,2460.06 0.03,3681.01 0.4,66.37 -1.15,76.58 -34.3,128.58 -30.91,48.49 0.68,18.68 -48.13,43.08 -32.76,16.38 -16.99,15.21 -47.6,17.56l-3446.57 -0.49c-13.51,-1.78 -6.57,-0.62 -15.69,-3.86 -1.5,-0.53 -3.11,-1.37 -4.54,-1.98l-8.57 -4.46c-4.06,-2.06 -10.69,-5.73 -12.76,-6.78 -1.33,-0.67 -3.03,-1.49 -4.36,-2.16 -1.34,-0.66 -3.07,-1.44 -4.41,-2.11 -1.79,-0.89 -7.06,-3.3 -8.81,-4.23l-39.26 -38.91c-15.64,-29.56 -7.01,-32.12 -22.51,-55.68 -0.52,-0.79 -2.56,-2 -3.06,-3.45zm3843.85 -384.38l0 -5550.79c68.56,0 365.2,-8.75 407.84,2.6l87.8 42.5 21.33 37.3c0.67,1.32 1.53,2.99 2.21,4.3l6.86 12.69c15.93,33.47 8.19,155.63 8.19,193.77l0 4964.44c0,32.57 -0.23,65.22 0.06,97.79 0.66,74.47 -21.02,153.75 -105.59,181.07 -9.57,3.09 -12.22,3.64 -19.75,6.31 -23.05,8.18 11.68,0.51 -19.28,6.77l-389.67 1.23zm-78.18 573.32c0.58,-25.85 13.93,-30.35 29.29,-48.9 7.85,-9.48 1.99,-1.63 7.86,-11.69 34.06,-58.35 17.54,-59.58 34.55,-108.78 15.55,-44.97 6.49,-211.87 6.49,-273.66 89.02,0 407.08,11.17 461.07,-8 7.38,-2.62 10.47,-3.28 19.74,-6.32l62.16 -29.05c41.44,-20.16 70.84,-49.34 91.21,-91.21l25.83 -52.35c0.58,-1.52 1.15,-3.26 1.7,-4.82 27.22,-78.21 15.85,-157.26 15.85,-244.75l0 -5049.13c0.01,-55.72 -1.58,-105.42 -17.3,-152.09l-23.83 -47.83c-0.73,-1.22 -1.71,-2.86 -2.48,-4.04l-21.48 -30.64c-0.73,-1.25 -1.51,-3.03 -2.25,-4.27 -0.74,-1.23 -1.56,-2.98 -2.32,-4.19l-109.04 -79.9c-99.73,-33.95 -143.66,-15.83 -270.83,-15.83 -76.01,0 -152.02,0 -228.02,0 0,-61.76 4.63,-211.45 -8.44,-252.16 -5.67,-17.67 -2.87,-7.6 -4.56,-28.01 -1.03,-12.48 0.86,-10.55 -2.51,-23.55 -0.44,-1.68 -1.08,-3.31 -1.62,-4.9l-24.11 -47.56c-0.66,-1.34 -1.49,-3.03 -2.14,-4.37l-41.29 -56.43c-16.16,-15.87 -34.21,-38.64 -54.09,-50.15l-97.01 -39.81c-45.91,-9.29 -3063.92,-0.92 -3438.69,-1.23 -18.69,-0.01 -40.99,-1.22 -59.11,-0.47 -25.12,1.03 -47.9,10.18 -71.42,19.79l-87.75 62.1c-22.98,23.48 -38.49,40.58 -53.21,70.58l-10.9 21.68c-17.13,33.04 -30.83,79.79 -30.72,119.13 5.29,1917.68 0.38,3835.44 0.38,5753.13 0,158.53 0.28,317.08 -0,475.6 -0.03,16.95 -1.62,43.08 -0.24,58.88l13.83 70.86c3.24,25.28 0.58,9.85 7.65,24.93l39.2 65.04c23.65,37.1 51.54,57.97 91.4,77.99l64.66 26.55c53.9,19.14 338.05,8.01 408.95,8.01 318.72,0 3065.39,7.33 3120.41,-0.28 27.57,-3.82 27.04,-7.73 49.58,-15.57l31.16 -14.45c1.33,-0.66 3.03,-1.48 4.37,-2.15 1.34,-0.66 3.07,-1.44 4.41,-2.11 19.86,-9.85 36.51,-34.38 56.63,-41.1 9.81,-3.27 5.99,-2.29 17.01,-2.53z"/>
   <path class="fil1" d="M15967.85 6140.31l0 26.06c-17.5,7.06 -6.46,-3.97 -11.91,14.15 -1.96,6.52 -1.12,17.81 -1.12,24.94l-925.13 0 0 -312.72 938.16 0c-1.16,51.89 -10.94,-1.85 -13.5,58.16 -2.86,67 7.54,157.23 7.53,157.34 -0.75,32.14 -22.77,20.47 5.97,32.07zm2.73 -403.93c-28.91,23.96 -849.51,10.12 -947.7,6.91 -5.87,-26.11 -9.04,-260.08 -1.26,-280.88 5.79,-5.27 0.64,-3.41 11.84,-8.01 19.1,-7.85 386.9,-2.9 432.73,-2.75 147.95,0.47 302.25,4.68 449.54,-0.32l8.32 3.91c14.58,4.32 -5.58,3.37 11.22,2.69 15.44,-0.62 -5.29,0.79 19.55,-8.2l13.03 39.09c-17.04,6.88 -9.22,-0.41 -13.22,19.41 -4.69,23.23 1.57,49.81 6.39,71.49 1.63,7.32 2.45,-0.99 1,10.11l-7.47 81.65c3.19,36.33 3.74,16.75 8.56,30.37 4.9,13.84 4.69,17.5 7.47,34.55zm-1957.24 -390.9l0 78.18c23.34,8.45 5.56,13.15 50.34,27.84l9.73 3.3c49.33,17.02 290.22,7.95 356.89,7.95 152.02,0 304.03,0 456.05,0l0 273.63 -684.07 0c-36.2,0 -101.78,-6.73 -132.83,3.98l-21.61 10.97c-1.2,0.74 -2.81,1.76 -3.97,2.54 -24.11,16.26 -8.82,13.74 -30.53,21.59l0 78.18c11.34,4.1 6.53,2.62 12.62,6.92l19.55 19.55c3.99,5.82 2.92,1.55 6.93,12.62l827.88 12.55c10.06,24.29 8.5,215.17 6.89,255.41 -1.51,37.62 4.42,24.34 -13.88,31.73l-833.92 13.03c-17.69,48.87 -60.21,46.66 -10.11,114.33 7.45,10.06 5.12,2.19 10.11,15.97l3022.96 0c5.95,-16.45 22.61,-33.12 39.09,-39.09l0 -52.12c-14.48,-5.84 -19.93,-22.16 -26.06,-39.09l-964.22 0 0 -312.72 801.35 0c30.09,0 103.4,4.24 127.97,-2.32l9.47 -3.56c1.44,-0.58 3.06,-1.44 4.45,-2.07 1.84,-0.84 6.96,-3.4 8.69,-4.34 14.18,-7.77 8.54,-1.74 18.66,-13.92 0.88,-1.06 1.9,-2.69 2.7,-3.83 15.83,-22.46 20.17,-30.59 15.17,-51.82 -0.38,-1.59 -1.15,-3.31 -1.66,-4.86 -12.51,-37.38 -46.51,-64.93 -81.38,-69.45l-905.41 -0.18 0 -286.66c47.57,17.22 -2.29,13.22 97.72,13.03l743.22 0.5c47.82,0.64 40.19,-1.37 45.1,-13.53l65.15 0c18,-49.73 65.25,-43.3 24.17,-108.81 -0.76,-1.21 -1.77,-2.82 -2.56,-3.99 -0.78,-1.16 -1.89,-2.7 -2.7,-3.82 -19.75,-27.34 -10.04,-2.23 -18.9,-26.72l-3009.93 0 -26.47 32.17c-5.82,3.99 -1.55,2.92 -12.62,6.92z"/>
   <path class="fil2" d="M6964 5697.28c13.33,-16.17 12.69,-5.02 23.97,1.27 23.11,12.89 72.3,55.59 128.98,80.23 33.39,14.52 34.22,22.23 55,28.56 -2.82,-21.19 -1.03,-9.48 -6.84,-18.04 -0.69,-1.03 -1.93,-2.62 -2.74,-3.62l-13.89 -12.05c-12.64,-10.92 -22.53,-19.99 -28.56,-37.57 29.66,7.36 8.35,10 39.05,12.75 -8.23,-32.79 -24.68,-32.32 -40.93,-69.83 -126.74,-98.24 -206,-181.52 -275.04,-343.4 -78.19,-183.36 -62.95,-341.23 -62.62,-556.92 0.62,-408.27 -8.65,-824.13 0.07,-1231.34 8.43,-5.64 -11.92,-17.99 15.2,-1.87l3.69 -14.45 18.4 -0.99c-5.2,-15.76 -5.63,-4.33 3.03,-16.75 239.22,-8.31 537.39,-0.39 788.32,-1.11 56.27,-0.16 221.12,26.31 182.84,-63.5 -19.07,-44.75 -149.63,-29.48 -228.45,-30.42 -115.14,-1.37 -757.51,9.94 -775.13,-8.66 -17.29,-18.24 -8.41,-1154.76 -7.58,-1334.65 1.01,-217.8 -14.46,-383.86 97.79,-573.69 31.75,-53.7 60.92,-85.8 92.63,-129.21 14.7,-20.12 33.65,-36.87 53.45,-57.55 140.82,-147.18 345.37,-216.55 558.39,-216.07 147.61,0.33 295.32,-1.46 443.02,-1.14l2234.64 -0.25c146.57,0.26 271.48,-10.32 407.39,34.99 213.55,71.19 382.94,237.14 458.44,429.06l22.14 -7.56c11.66,-31.09 16.92,63.11 16.93,65.37l33.24 13.06 0.18 38.78c15.24,0.35 9.79,-1.93 21.68,3.78 33.75,16.21 -7.27,0.06 20.58,19.12 5.12,3.51 12.4,7.17 15.82,9.63l-16.6 -61.18c-8.58,-16.58 4.81,9.77 -4.91,-8.3 -18.79,-34.97 -4.8,-16.58 -6.85,-39.87l-33.23 -111.83c11,-7.67 -4.16,-5.74 16.38,-0.03l-56.83 -106.02c-3.63,-5.62 -13.02,-16.82 -16.65,-22.44 -5.17,-8.01 -2.59,-5.32 -7,-12.54l-19.05 -26.56c-0.76,-1.2 -1.65,-2.9 -2.39,-4.13l-188.94 -175.91c-1.22,-0.74 -2.93,-1.63 -4.12,-2.39l-18.42 -14.15c-1.13,-0.79 -2.69,-1.91 -3.85,-2.66 -1.18,-0.77 -2.81,-1.75 -4.04,-2.48l-177.26 -83.33c-1.59,-0.52 -3.26,-1.15 -4.83,-1.68 -1.56,-0.53 -3.22,-1.2 -4.78,-1.74l-141.98 -33.93c-38.48,-7.79 9.5,-2.19 -28.71,-10.38 -32.35,-6.93 -63.14,0.75 -94.44,-9.8l-1239.84 -4.53c-118.74,0 -1523.59,-9.62 -1565.58,4.53l-69.62 8.56c-36.67,-0.33 -79.82,-6.53 -116.04,1.23 -38.1,8.17 9.47,2.49 -28.88,10.21l-176.37 45.14c-1.49,0.57 -3.19,1.26 -4.65,1.87 -1.43,0.6 -3.08,1.41 -4.47,2.04l-43.18 21.97c-1.33,0.66 -3.01,1.5 -4.34,2.17l-47.78 23.89c-50.98,25.47 -74.79,42.28 -118.43,77.02l-78.07 65.25c-15.26,15.26 -23.81,23.85 -39.09,39.09 -9.31,9.28 -10.43,10.08 -19.79,19.3l-196.74 389.61c-4.34,13.64 -5.51,-6.16 -8.27,30.82 -3.97,53.05 -5.16,35.96 -11.73,66.45 -8.17,37.91 -2.15,3336.16 0,3346.13 6.57,30.52 7.72,13.46 11.73,66.45 2.88,38.14 4.04,16.87 8.44,30.65 6.38,19.95 2.7,12.88 4.82,34.27 1.08,10.88 -0.24,6.04 2.5,17.04l53.92 148.05c0.56,1.5 1.26,3.19 1.86,4.65l87.76 140.27c36.81,50.87 45.28,56.59 91.51,103.94 11.9,12.19 18.24,22.9 35.74,29.29z"/>
   <path class="fil2" d="M8558.27 3146.36c8,-27 15.05,-50.3 21.65,-76.26 5.54,-21.78 6.66,-59.52 28.12,-69.76l191.52 596.51c-129.68,2.46 -260.72,-7.65 -390.47,2.08l149.19 -452.57zm-50.07 -584.14c-104.85,23.79 -89.15,80.72 -150.06,267.42l-307.11 950.09c-32.62,106 -69.24,209.62 -103.23,313.35 -20.69,63.14 -32.48,126.26 52.02,130.26 38.34,1.82 180.46,6.82 203.1,-11.22 40.05,-31.92 77.32,-249.41 119.05,-296.92 33.93,-38.63 331.98,-19.87 407.73,-19.57 219.77,0.88 168.17,-32.36 238.85,184.07 11.78,36.08 31.38,126.84 64.51,140.13 14.48,5.8 173.57,8.35 195.62,5.37 68.47,-9.26 62.09,-64.7 44.12,-126.86 -41.57,-143.78 -108.21,-327.26 -154.42,-477.32 -97.09,-315.28 -210.25,-638.85 -305.36,-951.82 -18.42,-60.61 -33.08,-98.32 -98.56,-107.73 -53.39,-7.66 -158.98,-9.96 -206.24,0.76z"/>
   <path class="fil1" d="M11126.53 1561.09c105.41,265.86 67.87,593.82 71.77,891.73 1.82,139.61 8.1,873.3 -5.35,957.84 -61.41,18.12 -660.68,8.74 -808.46,8.86 -61.8,0.05 -214.03,-21.97 -216.01,43.78 -2.22,73.61 160.74,47.25 222.53,47.2 226.43,-0.19 602,-7.08 798.34,6.89 19.48,107.28 7.68,1032.46 8.27,1222.21 1.19,380.79 24.72,635.01 -313.27,917.14 -195.54,163.23 -409.32,165.09 -643.18,168.83 -271.53,4.33 -548.82,0.9 -820.89,0.41 -271.33,-0.49 -543.13,1.06 -814.38,-0.76 -216.15,-1.45 -1032.87,15.86 -1207.47,-20.82 -126.35,-26.55 -187.23,-71.28 -280.38,-125.39 16.25,37.51 32.7,37.04 40.93,69.83 -30.7,-2.75 -9.4,-5.39 -39.05,-12.75 6.02,17.58 15.92,26.65 28.56,37.57l13.89 12.05c0.81,1 2.05,2.59 2.74,3.62 5.81,8.56 4.02,-3.15 6.84,18.04 -20.79,-6.33 -21.61,-14.04 -55,-28.56 -56.67,-24.65 -105.86,-67.34 -128.98,-80.23 -11.28,-6.29 -10.63,-17.44 -23.97,-1.27 8.31,22.4 -1.85,2.66 12.94,19.75l121.99 92.99c1.18,0.77 2.82,1.75 4.04,2.48l73.96 36.8c3.67,1.84 8.04,4.01 13.03,6.52l25.81 13.27c1.34,0.65 2.97,1.55 4.34,2.18l9.13 3.9c1.53,0.57 3.26,1.15 4.83,1.68 44.05,14.86 46.21,19.95 93.09,30.7l79.94 17.78c49.25,17.03 398.26,6.49 462.59,6.49 223.76,0 2621.07,7.77 2663.35,-1.29 38.1,-8.17 -9.47,-2.49 28.88,-10.2 11.83,-2.38 19.06,-0.63 30.36,-2.22l29.85 -9.24c12.58,-3.48 15.58,-2.11 27.76,-4.82 1.81,-0.41 3.49,-0.81 5.25,-1.26l43.81 -14.83c1.55,-0.53 3.22,-1.2 4.78,-1.74l125.96 -56.46c8.83,-4.39 -0.17,0.03 8.71,-4.32l78.29 -45.5c1.36,-0.65 3.11,-1.39 4.46,-2.05l124.85 -103.18c31.51,-31.63 35.68,-46.51 71.7,-84.66l91.41 -143.14c2.88,-3.82 7.95,-9.43 8.76,-10.79l10.03 -29.06c0.52,-1.59 1.06,-3.34 1.63,-4.89 0.55,-1.51 1.24,-3.21 1.84,-4.68 0.59,-1.44 1.4,-3.09 2.03,-4.49l48.43 -133.98c0.49,-1.57 1.35,-3.1 1.86,-4.65 1.39,-4.27 1.32,3.55 4.89,-14.66 1.79,-9.12 0.78,-9.73 1.52,-18.02 1.81,-20.24 -1.11,-10.24 4.59,-27.99 10.63,-33.08 8.45,-59.78 8.44,-102.31l0.01 -3277.06c0.1,-27.33 2.17,-53.14 -6.5,-78.2 -2.14,-6.19 -0.91,5.82 -5.01,-14.54 -2.7,-13.44 -0.41,-22.53 -3.05,-36.03 -0.36,-1.84 -0.86,-3.45 -1.31,-5.2l-13.17 -51.98c-0.45,-1.69 -1.06,-3.32 -1.55,-4.96l-11.58 -34.03c-0.53,-1.57 -1.16,-3.25 -1.7,-4.82l-11.08 -34.52c-4.77,-13.84 -0.26,-2.19 -5.6,-13.95l-24.14 -46.23c-0.85,-1.26 -5.2,-6.11 -6.52,-7.83 -20.54,-5.71 -5.37,-7.64 -16.38,0.03l33.23 111.83c2.05,23.29 -11.94,4.9 6.85,39.87 9.71,18.08 -3.67,-8.27 4.91,8.3l16.6 61.18c-3.42,-2.46 -10.7,-6.12 -15.82,-9.63 -27.85,-19.06 13.16,-2.91 -20.58,-19.12 -11.89,-5.71 -6.44,-3.43 -21.68,-3.78l-0.18 -38.78 -33.24 -13.06c-0.01,-2.26 -5.26,-96.46 -16.93,-65.37l-22.14 7.56z"/>
   <path class="fil0" d="M15386.48 4524.58c-24.96,-28.96 -92.02,-70.82 -129.13,-97.46 -68.3,-49.04 -223.75,-143.35 -272.01,-183.83 -108.78,-91.23 -201.6,-84.71 -203,-246.27l4.22 -664.54c-32.1,-2.86 -143.26,28.65 -176.09,43.29 -24.87,11.08 -51.91,23.96 -72.6,38.29 -115.36,79.96 -95.88,59.34 -177.34,154.59 -28.68,33.54 -62.9,88.04 -86.07,135.11 -165.94,337.12 -83.46,728.4 203.85,955.02 13.67,10.79 17.95,17.09 32.86,25.98 209.2,124.81 414.97,152.76 643.26,42.48 63.9,-30.87 204.65,-153.02 232.06,-202.67z"/>
   <path class="fil1" d="M14782.86 3313.2l16.2 3.83 2.02 679.9c0.83,111.83 12.24,99.97 77.2,151.97l471.06 323.45c40.32,28.42 56.56,25.99 67.36,45.71l-8.74 19.39c29.9,0.53 -83.38,113.65 -89.86,119.16 -40.98,34.84 -79.03,66.86 -136.3,98.76 -219.18,122.09 -540.69,85.54 -722.2,-64.34 -115.47,-95.35 -60.12,-48.59 -146.23,-147.81l-68.88 -106.54c-126.16,-250.91 -120.63,-507 -3.22,-752.01 24.45,-51.02 108.39,-172.86 146.27,-206.08 20.82,-18.25 41.72,-33.85 64.75,-53.06 63.56,-53.02 252.86,-134.89 310.76,-126.05 20.57,3.14 15.95,-5.71 19.82,13.72zm142.6 12.62l132.08 24.27c1.88,0.43 3.6,0.6 5.54,0.98 10.52,2.04 10.88,0.37 22.52,3.54 26.68,7.28 41.8,20.07 65.71,32.02l160.52 100.08c39.57,24.84 71.64,68.35 84.93,90.97l39.19 52.02c0.74,1.23 1.63,2.93 2.39,4.13l16.81 22.27c0.77,1.18 1.75,2.82 2.48,4.04 0.47,0.79 6.34,12.51 6.57,12.98l59.33 123.09c0.54,1.64 0.9,3.44 1.43,5.09l26.62 116.71c6.79,47.53 5.15,-7.11 12.03,40.09 6.31,43.29 2.65,126.17 0.78,169.55l-6.98 32.11c-7.89,22.31 -3.58,41.53 -7.81,63.85l-31.16 92.63c-0.59,1.43 -1.41,3.08 -2.04,4.47l-24.14 47.52c-2.63,5.26 -0.72,-2.99 -6.52,13.03l-26.06 0c-7.89,-21.8 -37.31,-34.84 -56.83,-47.41l-190.74 -121.98c-1.23,-0.74 -2.99,-1.55 -4.21,-2.3 -1.22,-0.74 -2.92,-1.64 -4.11,-2.4l-7.65 -5.39c-7.43,-5.4 -10.58,-8.55 -14.8,-11.27 -9.09,-5.87 -7.55,-3.55 -16.65,-9.41l-126.19 -88.8c-1.21,-0.74 -2.92,-1.64 -4.11,-2.4 -1.17,-0.76 -2.78,-1.8 -3.93,-2.59 -1.13,-0.78 -2.61,-1.99 -3.72,-2.8l-59.03 -45.21c-18.25,-18.25 -36.17,-37.23 -41.23,-63.01 -7.31,-37.29 6.28,-82.97 6.15,-110.09l-4.12 -18.69c0.35,-16.14 17.39,-46.21 8.19,-90.87 -0.36,-1.76 -1.04,-3.47 -1.43,-5.07l-4.01 -12.01c-0.1,-0.78 -0.36,-2.53 -0.36,-3.28l2.79 -10.8c6.71,-26.11 11.8,-268.53 3.48,-307.14 -10.34,-47.96 -11.73,-17.07 -11.73,-92.5zm-182.42 -149.85c-12.77,8.1 -56.25,9.99 -65.25,12.93 -1.55,0.51 -3.08,1.37 -4.65,1.86l-57.08 14.58c-8.16,2.73 -11.92,3.19 -20.03,6.04 -1.55,0.54 -3.3,1.12 -4.82,1.7l-221.52 117.26c-39.67,25.19 -82.11,80.15 -115.3,112.72l-37.09 47.61c-9.8,15.43 -24.95,24.61 -34.85,43.33l-71.49 130.47c-0.61,1.46 -1.3,3.15 -1.87,4.65l-9.07 30.02c-0.57,1.49 -1.27,3.19 -1.88,4.64 -0.6,1.41 -1.43,3.07 -2.07,4.45 -0.63,1.36 -1.57,2.96 -2.22,4.29 -0.29,0.59 -4.35,7.8 -4.64,8.39 -0.66,1.33 -1.6,2.94 -2.23,4.29l-43.11 152.34c-7.48,23.39 -0.43,47.03 -5.77,72.41 -0.38,1.8 -0.95,3.39 -1.43,5.09 -12.93,45.93 -9.91,76.2 -10.36,126.58l8.56 69.62c9.06,27.03 3.64,62.2 12.97,91.27 0.51,1.58 1.29,3.13 1.73,4.78l7.21 51.42c0.48,1.59 1.29,3.15 1.81,4.7l15.12 43.52c0.54,1.57 1.17,3.24 1.7,4.82l28.96 81.79c0.66,1.32 1.57,2.95 2.25,4.27l6.61 12.93c2.59,5.12 6.13,12.24 8.69,17.36 0.13,0.25 4.22,8.44 4.34,8.69l13.03 26.06c0.66,1.33 1.51,3.01 2.17,4.35 4.39,8.83 -0.03,-0.17 4.32,8.71 0.66,1.34 1.49,3.03 2.15,4.37l103.23 144.33c39,38.89 96.75,103.16 122.72,118.34 1.25,0.74 3.03,1.5 4.3,2.22 19.49,11.11 14.12,15.77 43.44,34.74 4.96,3.21 12.25,6.47 17.18,8.88 1.8,0.88 7.02,3.34 8.82,4.21 3.05,1.48 8.58,4.23 13.08,6.47l13.03 6.51c1.33,0.66 3.01,1.51 4.34,2.17l86.62 43.68c1.34,0.65 2.97,1.55 4.34,2.18l219.94 47.17c45.24,-0.39 70.34,25.37 118.9,8.86 18.02,-6.13 -11.82,-0.61 18.86,-7.22 32.5,-7.01 75.28,0.8 107.71,-9.56l37.86 -7.75c1.69,-0.44 3.32,-1.05 4.96,-1.55 1.6,-0.48 3.21,-1.22 4.78,-1.74l108.35 -41.5c5.11,-2.59 12.24,-6.13 17.36,-8.7l52.17 -26.01c52.08,-25.4 68.26,-49.17 100.04,-69.35 52.77,-33.5 94.2,-84.63 138.9,-128.22 7.96,-7.76 6.37,-5.09 13.13,-12.93l20.13 -31.99c23.73,-34.68 53.97,-71.6 73.31,-109.12 0.68,-1.33 1.43,-3.07 2.1,-4.41l85.17 -240.58c4.21,-21.47 -0.9,-24.15 6.12,-46.01 16.51,-51.4 17.62,-232.82 3.91,-273.69l-5.74 -13.8c-3.45,-12.57 -2.32,-9.8 -2.86,-23.2 -0.34,-8.4 0.76,-17.29 -0.34,-25.72l-11.8 -40.32c-2.06,-10.29 -0.79,-10.95 -3.77,-22.29 -0.44,-1.7 -1.05,-3.32 -1.55,-4.96 -0.48,-1.6 -1.22,-3.21 -1.74,-4.78l-37.11 -99.7c-9.77,-19.06 5.33,10.55 -4.38,-8.65l-67.45 -121.48c-0.99,-1.68 -3.55,-6.8 -4.45,-8.58 -0.68,-1.34 -1.41,-3.08 -2.07,-4.44 -0.66,-1.36 -1.39,-3.1 -2.04,-4.47l-4.1 -8.93c-12.06,-24.3 -31.66,-41.81 -46.04,-64.71l-47.59 -50.14c-8.68,-8.68 -17.39,-17.37 -26.06,-26.06l-112.55 -89.41c-1.18,-0.75 -2.78,-1.8 -3.93,-2.59l-92 -51.33c-1.33,-0.66 -3.01,-1.51 -4.34,-2.17l-67.32 -30.4c-21.84,-6.64 -38,-20.67 -59.93,-24.77l-93.32 -17.43c-68.98,-19.31 -131.62,-9.44 -205.31,-10.16 -18.14,-0.18 -38.35,-1.84 -51.88,6.75z"/>
   <path class="fil1" d="M16853.89 902.24l0 13.03c-22.57,8.17 -2.46,-2.1 -19.75,12.83l-227.95 241.13c-0.97,0.92 -2.43,2.19 -3.41,3.11 -16.09,15.29 -21.77,8.78 -22.52,42.63l-26.06 0c-0.79,35.51 -42.33,61.87 -65.15,84.7 -24.71,24.72 -57.96,49.56 -75.96,80.4l-12.02 20.56c-7.59,9.78 -4.51,5.03 -9.48,10.06l-163.25 162.5c-6.34,6.18 -13.44,12.27 -18.93,20.16l-11.56 21.02c-32.37,51.59 -91.76,83.62 -129,131.59l-14.32 24.77c-2.16,3.44 -6.66,9.33 -8.3,11.25l-56.01 48.23c-1.31,0.68 -2.96,1.57 -4.31,2.2l-122.9 2.09c-1.43,-0.58 -3.05,-1.46 -4.42,-2.09 -1.82,-0.85 -6.84,-3.52 -8.55,-4.48 -1.26,-0.7 -2.93,-1.62 -4.16,-2.36 -1.21,-0.74 -2.88,-1.69 -4.05,-2.46 -33.57,-22.29 -63.91,-61.93 -92.2,-90.22 -48.37,-48.37 -156.43,-142.49 -187.93,-196.46 -23.14,-39.64 -118.42,-123.05 -154.15,-158.58l-43.61 -54.11c-2.15,-3.42 -6.68,-9.36 -8.3,-11.25 -25.62,-29.79 -73.46,-82.27 -108.51,-99.97 -86.07,-43.47 -41.51,-18.87 -113.1,-43.32l-50.7 -5.31c-1.87,0.41 -3.43,1.02 -5.2,1.53 -1.68,0.48 -3.19,1.3 -4.82,1.83l-100.52 29.9c-1.39,0.62 -3.07,1.43 -4.42,2.09 -41.73,20.47 -158.87,151.29 -195.98,188.4 -8.67,8.67 -10.9,10.86 -19.61,19.48l-28.77 29.87c-0.8,1.15 -1.75,2.82 -2.5,4.01 -0.76,1.22 -1.58,2.96 -2.31,4.21 -0.73,1.26 -1.5,3.03 -2.22,4.3 -0.72,1.27 -1.48,3.04 -2.22,4.3 -30.69,52.58 -116.05,109.63 -143.33,156.36 -13.88,23.78 -37.25,41.7 -56.42,60.85 -32.42,32.4 -64.95,61.03 -89.23,99.71 -15.31,24.4 -40.64,43.17 -60.62,63.16l-132.52 141.11c-0.73,1.24 -1.55,2.99 -2.31,4.21l-50.88 53.36c-23.43,23.43 -55.92,48.47 -72.67,77.17l-4.44 8.59c-0.73,1.24 -1.55,2.99 -2.31,4.2l-51.06 53.18c-5.97,5.86 -13.93,14.04 -18.23,20.86 -4.77,7.57 -2.33,3.9 -6.67,12.87 -0.66,1.37 -1.33,3.15 -1.98,4.53 -0.86,1.82 -3.08,7.28 -4.01,9.02 -13.47,25.45 6.26,11.65 -17.75,21.34l0 26.06c19.03,7.68 25.42,23.16 26.06,52.12 22.26,0 16.96,-1.28 34.79,4.78 8.27,2.81 -0.05,14.22 34.07,6.39 30.17,-6.91 53.65,-36.05 74.47,-56.77 3.56,-3.55 4.1,-4.2 9.79,-9.75l22.27 -23.34c0.8,-1.15 1.75,-2.82 2.5,-4.02 34.86,-55.56 87.32,-98.78 134.93,-145.21l48.54 -62.21c49.56,-48.83 101.9,-90.34 138.3,-148.36 6.74,-10.75 13.88,-16.83 21.43,-24.18 8.33,-8.12 13.17,-13.03 22.87,-22.73l65.45 -64.85c3.19,-3.42 7.85,-8.91 8.99,-10.55l26.3 -38.85c37,-37.53 120.42,-107.48 145.58,-147.59l92.5 -102.94c3.18,-3.1 9.8,-9.3 10.02,-9.53 4.96,-5.04 1.89,-0.28 9.48,-10.06l39.09 -52.12c9.47,-9.25 15.1,-14.96 22.8,-22.8l56.37 -41.35c19.55,-9.9 34.02,-19.82 60.74,-18.06 31.6,2.08 23.46,3.02 43.87,15.75 1.19,0.75 2.81,1.77 3.97,2.54l11.01 8.54c5.7,4.32 6.43,5.29 11.2,8.34l58.22 52.54c49.15,84.34 196.15,180.71 254.32,273.4 6.75,10.75 13.89,16.82 21.43,24.18 69.28,67.56 208.33,227.19 282.27,264.99 1.77,0.9 6.69,3.66 8.48,4.55l46.35 12.29c15.2,3.51 11.87,3.91 14.69,4.86 36.11,12.14 127.57,5.98 134.59,4.03 1.65,-0.46 3.28,-1.13 4.83,-1.68 1.5,-0.53 3.11,-1.37 4.54,-1.98l25.59 -13.5c38.69,-19.84 50.55,-24.11 81.45,-55.36 39.69,-40.13 83.37,-73.75 117.21,-117.33l7.58 -11.97c0.74,-1.25 1.5,-3.03 2.22,-4.3 38.73,-68.12 155.27,-139.14 193.23,-204.18l38.01 -46.68c9.58,-9.47 14.92,-14.84 22.84,-22.76l87.98 -87.92c9.71,-9.7 14.55,-14.61 22.88,-22.73l58.51 -71.8c15.28,-15 30.46,-30.4 45.63,-45.58 30.28,-30.29 76.51,-65.28 99.71,-102.26 0.76,-1.21 1.58,-2.96 2.31,-4.2 0.73,-1.26 1.5,-3.03 2.22,-4.3 0.72,-1.27 1.49,-3.04 2.22,-4.3l17.06 -22.03c25.94,-26.32 110.06,-120.25 137.09,-130.03 0,26.58 -4.09,71.67 2.33,95.4 6.38,23.62 28.23,37.38 36.76,60.97l65.15 0c7.07,-17.51 0.9,-5.81 17,-15.58 1.22,-0.74 3.01,-1.54 4.28,-2.23l17.8 -8.26c0,-74.8 13.03,-11.05 13.03,-169.39 0,-30.4 -0.1,-60.82 0.01,-91.22 0.11,-30.39 1.67,-55.21 -7.96,-83.25 -6.58,-19.14 -9.01,-35.4 -23.67,-48l-11.68 -7.86c-1.47,-0.63 -3.19,-1.23 -4.78,-1.74 -14.99,-4.76 -21.13,-1.86 -38.35,-7.25 -41.64,-13.04 -83.99,-8.16 -128.57,-8.26 -15.29,-0.03 -31.32,-0.77 -46.32,-0.72 -19.29,0.07 -32.1,-1.79 -38.37,13.75l-52.12 -13.03c-7.81,19.36 2.93,3.68 -14.56,11.5 -8.99,4.01 -6.84,0.24 -19.82,6.23 -17.54,8.11 -28.21,26.15 -36.03,42.63 -5.27,11.11 -10.16,3.81 -7.03,29.49 2.26,18.54 6.15,20.09 16.5,36.22l109.34 36.47c0.92,0.14 2.76,0.66 3.76,0.87l26.02 5.98z"/>
   <path class="fil2" d="M5081.24 3625.55c-19.96,-14.83 -10.15,-100.5 -10.5,-130.33 -2.07,-175.73 -14.58,-164.35 42.44,-163.25l502.35 0.54c155.25,-2.33 126.8,-92.82 149.82,-138.97 26.94,11.27 22.98,14.19 38.45,35.42l103.19 105.11c43.04,43.48 22.06,4.17 67.62,69.22 23.07,32.95 40.56,30.05 68.69,72.39l-105.48 127c-63.34,39.45 -87.64,87.25 -144.82,148.07 -18.96,20.16 -14.91,21.14 -27.67,44.14 -19.51,-18.03 -10.5,-6.1 -14.44,-32.48 -0.07,-0.44 0.37,-20.78 0.09,-25.14 -2.63,-40.95 -26.39,-74.78 -65.59,-91.8 -53.86,-23.38 -329.59,-13.39 -408.65,-13.39 -26.06,0 -185.52,6.86 -195.48,-6.51zm553.81 -456.08c-7.9,19.58 14.25,9.65 -25.33,13.75 -57.87,5.99 -463.54,-0.69 -554.88,-1.1 -12.8,-0.06 -24.55,-0.48 -36.39,2.71 -14.83,4 -1.61,-0.06 -13.87,5.68 -0.33,0.15 -14.8,8.01 -16.76,9.3l-30.94 27.69c-14.21,16.63 -10.65,33.53 -17.21,54.46l-3.79 9.24c-15.37,48.07 -3.96,290.8 -4.7,360.61 -0.11,10.26 -0.57,28.34 1.28,37.81l9.16 23.41c11.81,22.89 33.23,31.83 41.91,55.81l91.21 0c10.15,26.37 8.72,1.49 32.07,1.12 38.97,-0.61 4.47,-0.18 19.65,5.05 9.83,3.39 59.47,12.21 117.92,7.1l126.82 -6.07c79.4,-10.38 51.08,-6.7 140.08,-7.23l57.38 1.26c30.68,6.18 -2.67,-0.87 19.34,6.73l29.31 9.78c25.25,12.78 7.74,13.02 30.76,21.36l0 65.15c-29.8,12.03 0.03,-4.48 -17.8,21.29 -26.28,37.97 -65.55,60.63 -88.66,100.28l-20.18 25.42c-0.95,0.95 -2.32,2.3 -3.28,3.23 -4.66,4.48 -1.18,2.46 -10.16,9.39 -10.06,7.75 -2.63,4.84 -16.27,9.78l0 65.15c17.25,6.96 12.15,-13.4 13.03,26.06l22.07 3.99c1.24,0.63 3.01,1.57 4.15,2.37l12.87 19.71 78.18 0c5.61,-15.52 13.47,-20.51 25.95,-32.68l85.31 -97.11c1.1,-1.58 4.56,-5.79 5.8,-7.23l84.92 -84.47c2.1,-2.06 5.39,-5.07 9.96,-9.58 22.18,-21.85 33.21,-46.73 68.19,-81.65 38.07,-38 85.41,-74.34 112.97,-121.57 0.72,-1.24 1.55,-2.99 2.31,-4.2l8.3 -11.25c7.61,-8.85 0.47,-0.63 9.76,-9.79l158.85 -179.95c1.86,-5.2 2.07,-8.41 4.45,-15.34 0.56,-1.63 1.28,-3.27 1.85,-4.89 13.03,-36.88 2.85,-38.48 -10.02,-65.26l-8.33 -30.78 -26.06 0 -6.55 -26.02c-16.35,-27.6 -55.13,-54.34 -78.41,-77.95l-38.55 -52.66c-36.38,-36.9 -75.26,-69.01 -102.53,-112.47l-138.8 -141.34c-43.51,-43.28 -40.23,-53.33 -100.95,-114.05l-42.48 -42.21c-12.48,-12.17 -20.34,-17.17 -25.95,-32.68l-78.18 0c-8.55,21.19 -22.8,10.72 -37.53,34.15 -10.57,16.82 -18.01,34.27 -14.04,55.53 0.35,1.88 0.9,3.55 1.4,5.34 8.89,32.45 31.97,42.88 47.95,70.08 0.74,1.25 1.5,3.03 2.22,4.29l100.33 134.36c23.15,65.05 -8.17,60.71 -9.12,61.09z"/>
   <path class="fil1" d="M12629.6 3792.61c3.87,-93.96 -6.43,-160.55 -108.18,-160.55 -185.13,0 -420.59,-4.72 -599.92,2.01 -4,-6.39 -2.29,0.73 -5.69,-15.55 -1.37,-6.54 -2.49,-18.44 -2.9,-25.27 -3.35,-55.25 -7.97,-225.55 2.95,-260.91 77.47,-0.2 617.02,6.68 662.26,-7.36 63.69,-19.76 44.95,-76.61 57.58,-132.2 18.41,5.81 28.31,12.31 39.25,25.44 38.28,45.95 62.68,65.6 109.83,111.33 42.39,41.13 65.55,80.09 102.46,112.27 32.05,27.94 45.54,41.18 0.54,87.66 -17.85,18.44 -18.5,8.67 -38.63,32.72 -12.49,14.93 -18.93,29.32 -29.75,42.14 -21.91,25.94 -17.16,3.37 -44.18,33.73l-99.85 115.21c-22.21,27.21 -10.34,30.23 -45.77,39.33zm-258.03 -948.89l0 65.15c13.48,5.44 65.17,85.42 84.7,104.24l28.06 30.58c6.01,9.46 3.16,7.33 9.23,16.82l34.57 75.58c-5.27,48.66 -11.97,-9.99 -13.22,46.41l-664.53 0c-8.95,22.17 4.24,5.69 -20.85,18.24 -16.78,8.39 -0.35,7.14 -31.27,7.83 -0.98,43.87 -13.53,25 -13.4,71.29 0.21,78.08 -9.65,402.4 8.33,441.96 0.83,1.84 3.39,6.96 4.34,8.69 0.7,1.28 1.52,3.01 2.27,4.24 12.67,20.72 31.25,29.1 51.62,33.07 56.77,11.07 511.38,-9.74 591.54,1.33 21.37,2.95 53.92,12.74 65.15,26.06l4.86 8.17c9.19,13.27 -1.2,11.08 14.97,17.6l0 52.12c-14.45,5.23 -13.04,4.28 -21.83,17.26l-101.85 113.14c-12.17,12.48 -17.16,20.34 -32.68,25.95l0 91.21c11.34,4.1 6.53,2.62 12.62,6.93l26.47 32.17 78.18 0c10.04,-27.75 -9.89,10.44 4.06,-8.98 9.75,-13.58 18.8,-16.72 35.04,-17.09 0.18,-8.05 -0.62,-5.27 1.29,-11.73 8.39,-28.42 43.68,-52.77 63.86,-72.96l68.63 -68.19c9.29,-9.16 2.15,-0.94 9.76,-9.78l17.36 -28.25c0.75,-1.2 1.7,-2.87 2.5,-4.02l87.47 -88.43c53.96,-53.93 39.53,-52.9 87.92,-101.01l58.64 -58.63c6.74,-6.73 12.72,-12.68 19.65,-19.44 6.33,-6.18 13.44,-12.27 18.93,-20.17l4.81 -8.22c18.81,-32.23 47.99,-55.85 74.16,-82.2 27.54,-27.73 40.22,-59.91 31.32,-103.41l-107.79 -139.91c-23.33,-37.17 -80.77,-83.9 -112.85,-115.18l-41.98 -55.75c-43.11,-46.21 -97.68,-83.02 -129.53,-137.59 -29.38,-50.34 -87.48,-79.25 -117.27,-130.3 -5.8,-9.93 -0.16,-2.42 -7.58,-11.97l-29.4 -29.24c-0.79,-0.76 -9.33,-8.95 -9.94,-9.61 -11.62,-12.45 -10.26,-7.17 -16.02,-23.07l-91.21 0c-6.17,17.04 -22.02,32.91 -39.09,39.09z"/>
   <path class="fil1" d="M9496.43 4172.77c9.42,69.51 113.61,52.67 177.96,52.6 101.24,-0.12 111.44,-17.62 110.74,-117.74l-0.87 -912.11c3.77,-485.61 52.54,-513.65 -181.85,-505.2 -92.69,3.34 -107.7,24.13 -107.59,114.15l1.62 1368.3z"/>
   <path class="fil1" d="M14000.32 2713.41l0 26.06c23.74,9.58 -2.7,6.25 28.82,49.36 7.32,10.02 5.25,1.94 10.27,15.79l3009.93 0c7.43,-18.4 -0.31,-2.72 13.46,-12.61 21.77,-15.64 46.29,-41.06 35.17,-74.13 -7.8,-23.2 -28.12,-35.95 -35.6,-56.6l-3022.96 0c-4.03,11.13 -26.53,47.05 -39.09,52.12z"/>
   <path class="fil2" d="M2429.66 3443.09c0.81,-36.31 12.92,-32.31 32.82,-51.88l59.2 -123.22c4.79,-24.61 12.72,-44.74 12.35,-78.86 -0.84,-78.06 3.69,-93.67 -16.23,-153.42l-8.24 -24.33c-8.38,-26.83 -26.73,-50.01 -43.74,-73.53 -0.8,-1.11 -2.02,-2.59 -2.79,-3.72 -0.79,-1.15 -1.83,-2.75 -2.59,-3.93 -30.61,-48.02 -41.46,-49.67 -83.57,-79.3l-42.75 -22.41c-1.33,-0.66 -3.01,-1.5 -4.34,-2.18 -1.32,-0.67 -3.01,-1.51 -4.33,-2.19 -1.31,-0.67 -3,-1.53 -4.31,-2.21l-112.51 -30.83c-31,-0.45 -65.87,-1.85 -91.82,6.87 -1.54,0.52 -3.08,1.38 -4.64,1.88l-82.1 28.65c-28.28,14.16 -83.7,41.21 -101.65,67.74l-11.46 21.11c-0.75,1.19 -1.71,2.86 -2.52,4l-43.02 61.22c-16.33,32.55 -21.59,64.64 -31.21,99.09 -0.46,1.65 -1.15,3.25 -1.66,4.85 -0.5,1.56 -1.36,3.1 -1.88,4.64 -0.51,1.53 -1.42,3.05 -1.92,4.59 -13.15,40.93 -9.12,103.2 3.79,143.63 4.73,14.8 1.63,4.47 4.76,21.3l56.47 125.95 41.26 43.44c3.55,3.56 4.18,4.08 9.75,9.79l113.81 68.62c22.14,11.43 42.03,11.63 65.25,19.45 1.53,0.51 3.05,1.42 4.6,1.92 30.13,9.67 81.59,3.53 104.54,-3.8l134.21 -48.21c13.33,-8.66 15.31,-14.93 23.43,-22.18l33.05 -12.56z"/>
   <path class="fil3" d="M11161.36 3547.39c7.34,43.14 0.09,461.99 0.71,547.21 1.36,184.66 -0.15,369.2 0.49,553.77 1.04,297.15 34.02,485.36 -90.43,733.04 -27.93,55.59 -54.8,83.85 -84.27,124.4l-32.56 39.05c-37.52,42.07 -99.42,91.83 -149.45,124.35 -221.76,144.11 -439.79,122.35 -708.02,120.07 -736.06,-6.26 -1471.01,5.5 -2208.59,-0.8 -178.12,-1.52 -357.18,15.45 -524.46,-29.6 -156.37,-42.11 -335.77,-180.77 -405.23,-284.99 -125.08,-187.68 -141.91,-318.18 -144.07,-538.84 -1.99,-204.5 -9.93,-1364.29 4.79,-1380.96 9.37,-10.61 769.44,-3.84 814.89,-4.06 68.2,-0.32 200.51,25.41 195.55,-87.11 -4.26,-96.77 -106.27,-83.88 -189.04,-84.39l-547.26 -0.01c-82.44,0.2 -193.7,7.15 -270.79,3.03 -20.17,-50.21 -5.43,-1210.14 -7.48,-1371.75 -1.44,-113.96 -0.79,-212.01 23.79,-319.87 18.74,-82.23 60.54,-168.92 109.81,-235.47l76.72 -92.54c109.12,-98.75 166.77,-152.69 327.18,-199.7 175.13,-51.31 464.71,-29.06 659.38,-30.49 689.98,-5.09 1392.47,0.2 2084.8,-1.17 220.67,-0.44 433.42,-20.58 626.78,63.9 153.26,66.96 277.6,186.62 352.96,343.26 101.12,210.19 82.89,371.87 84.82,608.89l0.44 1212.99c-6.14,43.94 -15.28,20.74 -146.39,19.94 -232.12,-1.41 -464.88,-0.1 -697.11,-0.45 -50.44,-0.07 -110.32,-8.5 -150.26,17.99 -37.27,24.72 -46.64,75.63 -18.12,116.6 30.45,43.74 77.87,37.26 135.8,36.25l521.2 -0.71c107.21,-0.98 250.73,-8.17 353.39,-1.82zm-4343.6 -17.37l-18.4 0.99 -3.69 14.45c-11.78,365.82 0.14,748.04 -0.93,1115.94 -1.26,429.28 -39.28,595.57 211.99,902.13 57.2,69.78 213.82,175.48 346.65,213.72 154.7,44.54 361.49,27.41 529.36,27.78l2228.13 0.04c175.22,-0.68 365.58,15.3 527.96,-35.82 145.39,-45.77 277.78,-138.47 368.86,-256.66 11.82,-15.34 18.95,-24.37 30.97,-40.57 18.32,-24.7 34.92,-54.01 51.44,-85.45 32.85,-62.52 58.4,-131.53 74.42,-205.2 30.14,-138.56 15.54,-387.36 15.59,-539.52 0.06,-186.74 0.41,-373.55 0.07,-560.29 -0.33,-176.08 9.49,-380.3 -1.03,-552.72l-820.71 1.24c-79.59,-0.28 -209.43,26.63 -207.03,-67.37 2.18,-85.53 137.38,-61.98 213.55,-61.73 91.2,0.3 182.4,-0.54 273.63,-0.19 179.57,0.68 361.48,3.12 540.62,2.45l1.33 -566.05c-0.25,-219.57 13.94,-939.57 -17.11,-1104.66 -31.61,-168.09 -90.08,-257.71 -183.3,-377.19 -16.34,-20.94 -20.69,-17.19 -37.04,-34.34l-36.5 -35.41c-25.57,-21.35 -47.01,-40.67 -76.78,-59.83 -62.92,-40.48 -114.05,-62.64 -193.07,-87.17 -139.91,-43.44 -378.16,-27.59 -532.4,-27.8l-2241.16 -0.05c-351.81,-0.39 -606.5,-32.48 -866.72,253.94 -244.6,269.22 -201.66,497.2 -201.62,918.73 0.04,373.53 2.88,748.41 -1.04,1121.77 178.92,-3.89 356.16,-2.8 535.15,-3.46 89.03,-0.33 178.1,-0.46 267.12,-0.23 76.49,0.2 205,-25.11 216.07,55.25 6.21,45.04 -25.05,72.04 -65.65,74.35 -40.61,2.31 -89.1,-1.19 -130.87,-1.1 -126.47,0.28 -729.18,-5.87 -797.86,0.02z"/>
   <path class="fil2" d="M3107.23 2557.05l449.7 -0.16c19.81,4.03 12.49,-3.88 19.38,13.19 13.85,5.59 14.3,-0.92 13.33,51.82l0 391.51c0.97,52.59 0.48,46.24 -13.33,51.82 -3.6,8.91 5.62,14.22 -45.1,13.54l-391.57 -0.34c-19.81,-4.03 -12.49,3.88 -19.38,-13.19 -13.85,-5.59 -14.3,0.92 -13.33,-51.82l0.3 -456.35zm-78.18 664.53l65.15 0c7.39,18.3 -5.89,12.37 31.73,13.88 63.98,2.56 461.85,2.19 485.19,-5.13l38.67 -13.46c1.13,-0.57 9.64,-6.7 11.49,-8.05 44.16,-32.17 30.59,-5.09 63.2,-73.62 0.64,-1.35 1.58,-2.94 2.18,-4.34l6.52 -32.58c2.08,-57.05 7.78,-551.47 -6.61,-593.77 -0.52,-1.54 -1.31,-3.14 -1.84,-4.67l-24.24 -47.43c-0.95,-0.95 -2.4,-2.22 -3.36,-3.16l-48.74 -35.96c-26.51,-8.66 -27.57,-12.71 -58.56,-13.11l-443.57 0.42c-45.98,-0.41 -37.87,-3.37 -70.11,8.07 -41.39,14.69 -60.16,17.1 -89.49,53.83 -6.86,8.58 -4.51,5.47 -10.27,15.79 -24.52,43.91 -0.37,22.07 -22.78,101 -6.21,21.87 -9.75,472.23 3.65,512.08 16.21,48.2 -1.64,51.89 49.15,100.69l22.64 29.48z"/>
   <path class="fil2" d="M2468.75 4707l-0.16 -488.79c4.02,-19.81 -3.88,-12.49 13.19,-19.38 7.08,-17.53 -3.88,-6.28 14.08,-11.98 4.09,-1.3 25.63,-1.63 31.02,-1.55l372.16 0.21c52.59,-0.97 46.24,-0.48 51.82,13.33 13.85,5.59 14.3,-0.92 13.33,51.82l-0.14 423.94c-4.03,19.8 3.88,12.49 -13.19,19.38 -3.59,8.91 5.62,14.22 -45.1,13.53l-437.01 -0.51zm599.38 117.27c0.69,-30.75 0.49,-17.02 12.68,-32.92l18.39 -27.21c18.41,-38.7 8.02,-233.93 8.02,-304.7 0,-92.26 13.23,-260.82 -14.02,-337.79 -9.64,-27.23 -18.36,-26 -44.48,-53.24l-6.27 -6.76c-19.15,-19.4 -21.5,-15.68 -52.09,-26.09 -1.54,-0.53 -3.11,-1.34 -4.68,-1.83 -1.6,-0.5 -3.17,-1.24 -4.83,-1.68 -25.68,-6.77 -522.25,-6.04 -546.9,1.68l-14.13 5.41c-28.02,9.34 -19.55,-0.35 -52.13,32.57 -9.29,9.39 -15.6,14.07 -22.34,23.27 -0.81,1.11 -1.84,2.74 -2.62,3.9l-9.3 16.75c-17.76,37.94 -8.01,450.06 -8.01,519.71 0,29.47 -2.43,70.01 -0.31,98.03 1.3,17.12 -0.39,8.16 4.29,21.77 11.33,32.95 35.15,49.03 57.63,72.67l20.84 18.25c71.67,32.04 409.27,16.81 497.41,17.33 31.55,0.19 41.48,3.72 67.17,-4.49l19.34 -6.73c9.69,-2.16 14.37,-0.93 22.93,-3.13 16.44,-4.23 5.7,-0.11 17.51,-8.55 27.35,-19.55 -11.46,-15.16 35.9,-16.21z"/>
   <path class="fil2" d="M1647.86 5163.06l0 78.18c-15.59,6.3 -14.73,-3.7 -14.73,32.58 0,36.27 -0.87,26.28 14.73,32.57l0 416.96c13.68,4.95 6.21,1.9 16.28,9.78 12.5,9.78 30.01,26.22 35.85,42.34l78.18 0c0.55,1.37 -4.35,17.59 38.62,13.99 52.14,-4.35 -31.2,-13.99 150.32,-13.99l163.18 0.31c17.12,-1.3 8.16,0.38 21.77,-4.29l61.13 -56.14c17.99,-38.58 0.71,-64.7 10.74,-100.02l7.57 -18.49c18.94,-66.58 -10.17,-102.43 -10.78,-146.63 -0.27,-19.25 0.48,-39.66 0.48,-59.12 0.01,-46.83 7.86,-176.09 -3.97,-211.02 -8.82,-26.03 -18.27,-36.87 -43.07,-48.14 -36.83,-16.74 -294.19,-7.95 -343.86,-7.95l-121.45 2.33 -41.45 23.7c-17.44,13.23 4.67,4.3 -19.52,13.06z"/>
   <path class="fil2" d="M3823.88 4726.55l-25.06 7.52c-13.04,4.53 -5.55,0.83 -13.75,5.79l-13.79 12.27c-0.95,0.94 -2.29,2.33 -3.23,3.28l-27.37 37.78c-17.13,36.6 -8.01,106.84 -8.01,148.35 0,64.52 -9.88,269.32 2.6,316.64 0.44,1.67 1.18,3.23 1.68,4.83l3.67 9.36c0.54,1.55 1.22,3.21 1.74,4.78 8.81,26.44 2.74,22.92 25.62,46.04l13.08 12.99c19.86,14.43 22.33,5.07 51.07,14.08l337.17 8.38c42.72,0.47 33.45,2.54 63.53,-8.14l38.91 -13.22c1.41,-0.61 3.11,-1.39 4.48,-2.04l25.74 -19.87c0.79,-1.17 1.64,-2.91 2.36,-4.15l6.26 -13.28c0.66,-1.36 1.42,-3.08 2.08,-4.44 0.65,-1.34 1.47,-3.04 2.14,-4.38 0.89,-1.78 3.56,-6.8 4.47,-8.56l12.78 -143.58c0,-64.69 8.75,-261.92 -1.23,-311.49l-14.4 -44.23c-0.59,-1.46 -1.24,-3.23 -1.92,-4.6 -0.66,-1.32 -1.53,-3.01 -2.28,-4.24l-66.31 -44.44c-43.27,-14.88 -321.36,-11.38 -389.93,-8.43l-32.1 6.99z"/>
   <path class="fil4" d="M6817.76 3530.02c68.68,-5.89 671.39,0.26 797.86,-0.02 41.77,-0.09 90.26,3.41 130.87,1.1 40.6,-2.31 71.85,-29.3 65.65,-74.35 -11.07,-80.36 -139.58,-55.06 -216.07,-55.25 -89.02,-0.23 -178.09,-0.09 -267.12,0.23 -178.99,0.65 -356.23,-0.44 -535.15,3.46 3.92,-373.36 1.07,-748.24 1.04,-1121.77 -0.04,-421.53 -42.98,-649.5 201.62,-918.73 260.22,-286.42 514.91,-254.33 866.72,-253.94l2241.16 0.05c154.24,0.21 392.48,-15.64 532.4,27.8 79.01,24.53 130.15,46.68 193.07,87.17 29.77,19.16 51.21,38.48 76.78,59.83l36.5 35.41c16.35,17.15 20.71,13.4 37.04,34.34 93.21,119.48 151.68,209.1 183.3,377.19 31.05,165.08 16.86,885.09 17.11,1104.66l-1.33 566.05c-179.14,0.66 -361.06,-1.77 -540.62,-2.45 -91.23,-0.35 -182.43,0.49 -273.63,0.19 -76.17,-0.25 -211.37,-23.8 -213.55,61.73 -2.4,94 127.45,67.09 207.03,67.37l820.71 -1.24c10.52,172.42 0.7,376.64 1.03,552.72 0.34,186.73 -0.01,373.55 -0.07,560.29 -0.05,152.16 14.55,400.96 -15.59,539.52 -16.02,73.66 -41.57,142.67 -74.42,205.2 -16.52,31.44 -33.12,60.75 -51.44,85.45 -12.02,16.2 -19.15,25.23 -30.97,40.57 -91.07,118.19 -223.47,210.9 -368.86,256.66 -162.37,51.12 -352.74,35.14 -527.96,35.82l-2228.13 -0.04c-167.88,-0.37 -374.66,16.76 -529.36,-27.78 -132.83,-38.24 -289.45,-143.94 -346.65,-213.72 -251.27,-306.56 -213.25,-472.86 -211.99,-902.13 1.08,-367.89 -10.85,-750.12 0.93,-1115.94 -27.11,-16.13 -6.77,-3.77 -15.2,1.87 -8.72,407.21 0.55,823.06 -0.07,1231.34 -0.33,215.69 -15.58,373.57 62.62,556.92 69.03,161.88 148.3,245.16 275.04,343.4 93.15,54.11 154.02,98.85 280.38,125.39 174.6,36.68 991.32,19.37 1207.47,20.82 271.25,1.82 543.04,0.27 814.38,0.76 272.07,0.49 549.36,3.92 820.89,-0.41 233.86,-3.73 447.64,-5.6 643.18,-168.83 337.99,-282.13 314.46,-536.35 313.27,-917.14 -0.59,-189.75 11.21,-1114.93 -8.27,-1222.21 -196.34,-13.98 -571.91,-7.08 -798.34,-6.89 -61.79,0.05 -224.75,26.41 -222.53,-47.2 1.98,-65.75 154.22,-43.72 216.01,-43.78 147.78,-0.12 747.05,9.26 808.46,-8.86 13.45,-84.54 7.17,-818.23 5.35,-957.84 -3.9,-297.91 33.64,-625.86 -71.77,-891.73 -75.5,-191.92 -244.89,-357.88 -458.44,-429.06 -135.91,-45.31 -260.81,-34.72 -407.39,-34.99l-2234.64 0.25c-147.71,-0.32 -295.41,1.47 -443.02,1.14 -213.02,-0.48 -417.57,68.88 -558.39,216.07 -19.79,20.68 -38.75,37.43 -53.45,57.55 -31.71,43.4 -60.88,75.5 -92.63,129.21 -112.25,189.83 -96.78,355.88 -97.79,573.69 -0.83,179.89 -9.71,1316.41 7.58,1334.65 17.63,18.59 660,7.29 775.13,8.66 78.82,0.94 209.38,-14.33 228.45,30.42 38.28,89.81 -126.57,63.34 -182.84,63.5 -250.93,0.72 -549.1,-7.21 -788.32,1.11 -8.65,12.42 -8.22,0.99 -3.03,16.75z"/>
   <path class="fil2" d="M3745.7 1188.9c3.24,-8.02 -5.67,-13.58 38.37,-13.75l359.21 0.56c19.8,4.03 12.49,-3.88 19.38,13.19 17.53,7.08 6.28,-3.88 11.98,14.08 1.02,3.22 1.75,20.17 1.77,24.29l-0.72 280.87c0.01,17.65 0.27,35.02 0.51,52.63 0.03,1.88 -0.31,25.57 -0.34,25.72 -4.03,19.8 3.88,12.49 -13.19,19.38l-416.96 13.03c-0.57,-25.51 -6.08,-13.41 -11.75,-40.37 -2.83,-13.46 -1.4,-42.26 -1.31,-57.32l-0.13 -312.91c4.03,-19.81 -3.88,-12.49 13.19,-19.38zm-104.24 -143.33l-6.45 26.12c-0.69,1.21 -1.87,2.72 -2.67,3.84l-29.97 22.16 0 65.15c-19.58,7.9 -9.66,-14.25 -13.76,25.33l5.2 439.28c0.49,1.55 1.4,3.06 1.92,4.59 10.68,31.76 4.39,47.33 26.57,77.67l22.35 23.26c24.82,24.81 14.31,19.03 39.6,32.06 1.31,0.68 2.96,1.57 4.31,2.2 36.09,16.88 295.68,8 337.29,8 66.19,0 143.11,9.55 194.01,-7.95 45.93,-15.79 40.03,-12.38 73.34,-56.96 9.96,-13.33 -5.31,-5.96 12.79,-13.27l0 -599.38c-31.61,-11.44 -20.42,-31.66 -44.86,-52.87l-31.53 -14.07c-1.62,-0.52 -3.36,-1.02 -4.97,-1.55l-511.33 -9.51c-32.38,4.28 -37.57,25.12 -71.85,25.88z"/>
   <path class="fil5" d="M12629.6 3792.61c35.42,-9.1 23.55,-12.12 45.77,-39.33l99.85 -115.21c27.02,-30.35 22.27,-7.78 44.18,-33.73 10.82,-12.81 17.26,-27.2 29.75,-42.14 20.12,-24.06 20.77,-14.29 38.63,-32.72 45.01,-46.48 31.51,-59.71 -0.54,-87.66 -36.91,-32.18 -60.07,-71.15 -102.46,-112.27 -47.14,-45.74 -71.55,-65.39 -109.83,-111.33 -10.94,-13.13 -20.84,-19.63 -39.25,-25.44 -12.64,55.59 6.11,112.44 -57.58,132.2 -45.24,14.04 -584.79,7.16 -662.26,7.36 -10.93,35.36 -6.3,205.66 -2.95,260.91 0.41,6.83 1.53,18.72 2.9,25.27 3.4,16.28 1.7,9.16 5.69,15.55 179.33,-6.73 414.79,-2.01 599.92,-2.01 101.75,0 112.05,66.59 108.18,160.55z"/>
   <path class="fil2" d="M696.67 3299.76l-43.44 -8.68c-0.47,-0.91 -1.61,-3.2 -2.19,-4.33l-4.44 -8.58c-26.07,-49.55 -15.07,-155.21 -15.07,-232.5l-0.47 -208.96c2.56,-60.01 12.35,-6.28 13.5,-58.16l78.18 0c5.78,15.97 -4.22,7.37 17.08,22.01l8.5 4.53c1.33,0.69 3.11,1.39 4.47,2.04l65.48 38.76c30.12,18.04 10.78,15.3 47.75,36.95 1.25,0.73 3.01,1.53 4.24,2.27l156.38 104.21c36.18,22.12 8.71,14.29 34.88,23.76l0 39.09c-22.56,8.16 -2.46,-2.12 -19.75,12.83 -8.71,7.53 -0.68,0.48 -9.78,9.76l-60.89 49.86c-1.13,0.78 -2.61,1.99 -3.72,2.8l-49.49 28.7c-1.3,0.68 -3.01,1.52 -4.27,2.25l-27.89 24.23c-15.09,13.57 -1.52,3.77 -19.37,13.2l-57.12 34.09c-1.19,0.77 -2.9,1.66 -4.11,2.41l-87.17 49.64c-25.21,13.71 -11.51,-6.42 -21.29,17.8zm-104.24 -671.04l-71.26 59.04c-0.81,1.13 -1.82,2.76 -2.58,3.94l-10.99 21.58c-9,18.07 -18.19,31.14 -19.71,51.96 -1.6,22.05 3.55,48.16 -2.43,69.23 -0.46,1.61 -1.27,3.16 -1.8,4.72 -0.51,1.52 -1.45,3.03 -1.99,4.53 -0.53,1.5 -1.47,3.01 -1.98,4.53 -8.48,25.16 -10.64,285.09 0,316.69 5.96,17.68 0.61,-11.76 7.21,18.86 4.18,19.37 1.02,73.92 0.92,96.81 -0.08,18.67 -1.12,25.59 4.41,41.19l28.94 55.75c16.05,22.6 38.5,36.34 62.47,48.29l36.15 15.97c55.36,18.16 82.11,16.37 133.6,-7.13l134.26 -74.21c43.67,-21.07 43.91,-32.86 95.97,-60.39 22.9,-12.11 35.27,-29.25 56.02,-41.71l95.52 -67.36c1.2,-0.75 2.87,-1.7 4.02,-2.5 1.15,-0.79 12.25,-10.55 13.92,-12.14l47.71 -76.08c13.8,-38.88 11.76,-123.48 -13.46,-160.89l-5.56 -7.47c-3.88,-5.16 -9.79,-12.43 -11.27,-14.8 -10.21,-16.37 -7.2,-20.89 -26.24,-32.4l-95.02 -61.34c-0.38,-0.26 -14.21,-11.21 -14.59,-11.47l-125.31 -83.18c-2.67,-1.64 -5.75,-2.97 -8.43,-4.6l-86.99 -56.33c-1.37,-0.65 -3.11,-1.39 -4.47,-2.05 -1.36,-0.66 -3.11,-1.4 -4.44,-2.08l-73.55 -37.2c-18.3,-5.74 -25.88,-4.72 -47.6,-4.52 -15.55,0.14 -30.74,-0.1 -46.22,-0.14 -6.09,-0.01 -19.88,-0.1 -25.37,0.69l-19.85 6.21z"/>
   <path class="fil2" d="M3524.18 5905.77l0 143.33c-15.38,5.57 -20.25,10.01 -26.06,26.06l-364.84 0c-8.64,-23.86 -5,-5.75 -8.98,-17.08 -6.94,-19.75 -4.47,-366.18 -4.21,-367.47 4.03,-19.8 -3.88,-12.49 13.19,-19.38 8.84,-21.91 -0.57,-13.22 84.69,-13.03l293.18 0 -0.45 176.41c1.99,40.96 12.12,23.85 8.52,54.15 -0.64,5.37 -26.69,13.5 4.95,17.02zm-534.23 -325.75l0 65.15c-19.59,7.91 -9.66,-14.25 -13.76,25.33l5.24 387.11c18.67,56.47 -1.26,38.41 18.99,78.74l19.63 39.01c19.81,28.71 35.5,8.39 48.07,43.13l495.14 0c12.9,-31.96 -2.18,10.12 45.7,-38.99l45.5 -39.19 0 -547.26c-18.5,-7.46 -0.32,4.06 -17.8,-21.29 -0.79,-1.15 -1.69,-2.88 -2.5,-4.02l-57.74 -46.49c-1.34,-0.66 -3.04,-1.48 -4.36,-2.15l-35.92 -16.2c-6.94,-1.39 -423.45,-10.16 -460.02,6.95 -25.84,12.09 -20.05,9.65 -43.85,34.33 -13.81,14.32 -23.3,28.95 -42.33,35.84z"/>
   <path class="fil5" d="M5081.24 3625.55c9.97,13.37 169.42,6.51 195.48,6.51 79.06,0 354.79,-9.99 408.65,13.39 39.2,17.02 62.95,50.85 65.59,91.8 0.28,4.36 -0.16,24.7 -0.09,25.14 3.94,26.38 -5.07,14.45 14.44,32.48 12.76,-23 8.72,-23.99 27.67,-44.14 57.18,-60.81 81.48,-108.62 144.82,-148.07l105.48 -127c-28.13,-42.34 -45.62,-39.44 -68.69,-72.39 -45.56,-65.04 -24.57,-25.74 -67.62,-69.22l-103.19 -105.11c-15.46,-21.23 -11.51,-24.15 -38.45,-35.42 -23.01,46.15 5.43,136.64 -149.82,138.97l-502.35 -0.54c-57.02,-1.1 -44.51,-12.48 -42.44,163.25 0.35,29.84 -9.47,115.5 10.5,130.33z"/>
   <path class="fil2" d="M2768.44 394.07c-0.41,18.29 -26.11,85.49 -26.54,116.79l1.77 285.86c0.38,1.8 0.95,3.39 1.42,5.09 0.45,1.64 1.26,3.17 1.76,4.75l13.09 52.06c12.26,25.87 20.57,0.32 21.54,43.61 39.46,0.88 19.1,-4.22 26.06,13.03l443.02 0c9.59,-26.5 17.88,-18.19 34.8,-43.38 4.37,-6.5 2.86,-4.19 7.11,-12.43 0.68,-1.31 1.57,-2.96 2.2,-4.32 0.85,-1.82 3.34,-7.01 4.02,-9 5.4,-15.72 4.45,-22.57 4.36,-41.24 -0.3,-65.15 10.93,-339.08 -10.58,-381.08 -25.37,-49.56 -45.89,-33.37 -54.95,-55.81l-429.99 0c-10.04,27.75 9.89,-10.44 -4.06,8.98 -1.53,2.12 -7.24,9.66 -8.82,10.73 -1.16,0.79 -2.84,1.74 -4.15,2.37l-22.07 3.99z"/>
   <path class="fil2" d="M1283.02 3684.15l-52.3 19.37c-1.32,0.66 -2.96,1.57 -4.27,2.25 -39.43,20.19 -56.13,25.7 -90.25,59.6l-66.49 115.93 -22.2 109.07 33.42 143.45c0.6,1.43 1.41,3.08 2.04,4.47l15.18 30.43c13.52,26.6 -2.5,3.56 15.25,23.83l118.54 96.45 85.63 18.73c1.6,0.53 -9.45,4.99 24.86,8.54 25.88,2.68 26.74,-7.66 46.34,-11.65l85.35 -25.42 79.23 -57.59c9.3,-9.3 10.41,-10.08 19.79,-19.3l39.97 -64.27c39.52,-78.1 48.39,-166.09 18.63,-255.37 -0.52,-1.58 -1.16,-3.25 -1.69,-4.82l-6.55 -19.51c-2.53,-8.12 -1.01,-7 -4.42,-15.12l-109.99 -124.55 -154.41 -41.09c-21.59,0 -53.45,-4.99 -71.67,6.57z"/>
   <path class="fil2" d="M2260.27 921.78c-0.52,1.52 0.34,21.74 -0.2,25.85l-17.29 41.35c-0.77,1.15 -1.89,2.7 -2.7,3.82l-20.82 31.3c-0.75,1.23 -1.5,3.04 -2.3,4.22 -9.89,14.5 -61.45,43.61 -78.19,52.11l-30.7 14.91c-47.73,13.22 -109.33,1.84 -146.45,-11.72 -13.91,-5.08 -6.54,-1.37 -17.32,-8.74 -12.47,-8.53 -6.57,-6.29 -14.55,-11.51 -23.32,-15.27 -47.62,-31.27 -66.51,-57.27 -0.81,-1.12 -1.85,-2.74 -2.61,-3.91l-11.04 -21.54c-0.6,-1.47 -1.26,-3.18 -1.82,-4.69l-13.2 -38.92c-12.66,-39.81 -8.2,-82.97 5.51,-122.73l61.64 -94.72 37.09 -21.54c55.34,-26.92 88.29,-44.42 163.87,-29.12 30.97,6.27 -3.76,-1.41 19.28,6.77 44.87,15.92 70.82,26.32 102.46,66.94l31.4 46.79 18.52 86.81c0.49,55.57 -8.18,28.51 -14.06,45.54zm-286.66 -403.93l-73.9 23.83c-11.93,6.18 3.41,-1.7 -8.64,4.39 -4.95,2.5 -12.37,6.19 -17.42,8.65l-29.92 15.69c-11.49,8.36 -11.5,12.89 -23.31,22.29 -35.62,28.36 -52.36,27.49 -74.85,74.99 -0.65,1.37 -1.39,3.11 -2.05,4.47l-30.96 47.22c-0.71,1.28 -1.58,2.95 -2.24,4.27l-9.07 23.51c-13.49,41.73 -8.07,32.99 -14.76,82.97 -6.34,47.36 -3.79,-4.68 -11.78,34.79 -6.38,31.51 9.87,24.05 12.12,83.02 0.31,8.08 -0.16,9.99 1.39,18.15l14.56 44.08c0.54,1.55 1.11,3.3 1.69,4.82l3.91 9.12c0.84,1.84 3.53,6.83 4.42,8.61l8.85 17.21c2.09,4.14 3.74,7.42 6.5,13.04l85.59 103.35c13.49,13.73 -2.81,0.08 13.22,12.84l124.85 57.57c28.98,9.21 56.15,0.04 86.11,6.07l40.73 0.01c1.92,-0.38 3.57,-0.78 5.65,-1.07 25.97,-3.67 48.15,1.47 72.08,-6.85l86.3 -37.48c1.17,-0.76 2.72,-1.87 3.85,-2.66l31.06 -21.06c32.75,-19.49 51.8,-53.12 73.88,-82.47l8.48 -11.07c0.77,-1.18 1.75,-2.81 2.48,-4.04l30.63 -60.57c0.66,-1.33 1.63,-2.91 2.25,-4.27 0.84,-1.84 3.31,-7.05 3.98,-9.05l14.6 -57.07c8.26,-30.07 7.35,-111.14 0,-137.92l-5.56 -13.99c-4.78,-15.01 -1.62,-4.05 -4.71,-21.35 -1.6,-8.92 0.1,-6.13 -2.79,-16.76l-5.53 -14.02c-0.62,-1.36 -1.59,-2.94 -2.25,-4.26l-17.7 -34.42c-0.66,-1.34 -1.49,-3.03 -2.15,-4.37l-6.29 -13.25c-9.86,-19.5 -26.79,-31.35 -36.94,-47.75 -0.76,-1.22 -1.54,-2.99 -2.26,-4.25 -18.92,-33.12 -38.6,-34.94 -57.62,-53.14 -21.51,-20.59 -2.26,-6.08 -26.96,-18.65l-133.03 -49.39c-22.82,-3.16 -116.83,-6.27 -136.53,6.23z"/>
   <path class="fil2" d="M1634.83 2179.18l-26.06 0c-7.9,-19.58 14.25,-9.66 -25.33,-13.75 -7.36,-0.76 -30.49,0.73 -39.82,0.73l-0.85 -307.06c1.51,-37.62 -4.43,-24.34 13.88,-31.72 6.55,-16.23 -19.98,-14.15 65.08,-13.1l202.89 -0.78c37.62,1.51 24.34,-4.42 31.73,13.88 16.94,6.83 13.78,-21.42 13.06,71.63l-0.02 175.95c0.36,82.83 7.74,69.78 -13.04,78.17 -3.59,8.91 5.62,14.22 -45.1,13.53l-157.03 -0.66c-19.8,4.03 -12.49,-3.88 -19.38,13.19zm-156.36 143.33l443.02 0c6.6,-16.37 1.83,-4.61 17.23,-15.35l59.96 -63.82c0.57,-1.61 0.86,-3.48 1.4,-5.12l4.67 -468.05c-32.43,-93.89 -29.73,-9.95 -31.14,-73.1 -35.24,-0.79 -16.67,-1.68 -30.78,-8.31 -0.12,-0.06 -9.35,-5.41 -12.53,-7.02l-38.15 -13.97c-18.87,-6.52 -12.57,-9.82 -48.35,-10.28l-261.33 0.24c-47.3,4.12 6.06,4.11 -70.86,13.83 -13.25,1.67 -4.94,-0.15 -16.06,3.49 -23.99,7.87 -32.19,17.18 -49.78,34.92l-13.18 12.88c-4.58,4.64 -2.49,1.27 -9.54,10.01 -6.95,8.61 -4.48,5.41 -10.28,15.78l-25.76 143.64c0.63,64.6 -9.26,198.68 8.74,252.34 15.93,47.48 -13.31,39.96 19.58,104.21l15.06 30.54c16.33,23.66 20.82,9.7 38.21,26.94 9.85,9.77 4.79,2.18 9.87,16.19z"/>
   <path class="fil2" d="M618.49 5182.6c-5.06,-14.65 -0.4,-53.31 8.02,-76.68l32.89 -90.89c12.65,-21.8 63.12,-54.19 77.41,-59.41l24.61 -7.96c36.03,-12.28 85.37,-11.35 122.7,1.89 22.74,8.07 43.54,11.69 63.61,27.6 10.43,8.27 3.9,2.46 10.02,9.52l34.14 50.56c0.77,1.16 1.8,2.78 2.53,3.99 1.01,1.67 3.73,6.63 4.62,8.41 0.67,1.34 1.48,3.03 2.1,4.41l17 48.16c14.86,46.61 -0.13,83.81 -11.57,116.67 -0.54,1.56 -1.11,3.3 -1.69,4.82l-25.83 52.35c-0.74,1.2 -1.73,2.84 -2.53,3.99 -11.96,17.2 -27.28,24.17 -45.17,33.01l-8.69 4.34c-1.78,0.89 -6.76,3.6 -8.56,4.47l-18.28 7.78c-48.4,16.84 -83.72,27.47 -139.01,7.85 -39.59,-14.05 -48,-11.62 -76.82,-40.45l-33.39 -51.31c-0.89,-1.78 -3.6,-6.75 -4.47,-8.56 -0.65,-1.35 -1.55,-2.97 -2.17,-4.35l-15.62 -43.02c-0.61,-1.03 -2.27,-2.92 -2.8,-3.72 -0.52,-0.79 -2.56,-2 -3.06,-3.45zm130.3 -390.9l-134.62 60.83c-1.23,0.74 -2.98,1.56 -4.19,2.33 -43.75,27.78 -69,67.4 -93.78,108.18l-28.79 88.48c-10.86,54.12 -24.57,90.93 -3.98,155.4l22.32 81.92c0.57,1.49 1.27,3.19 1.87,4.64l10.88 21.7c0.67,1.34 1.49,3.03 2.15,4.37 0.66,1.34 1.44,3.07 2.11,4.41l43.62 54.1c23.01,22.89 44.92,53.11 73.61,69.72l17.47 8.59c1.34,0.66 3.03,1.48 4.37,2.15 2.5,1.24 8.14,4.38 12.88,6.66 1.34,0.65 2.97,1.55 4.34,2.18 1.39,0.63 3.05,1.44 4.47,2.04l24.58 7.99c1.59,0.52 3.31,1.09 4.88,1.63l14.04 5.51c35.75,11.37 128.58,6.38 172.12,4.79 6.05,-0.22 12.05,-0.37 17.99,-1.55l92.37 -44.44c1.36,-0.66 3.07,-1.43 4.42,-2.09l91.4 -91.02c3.36,-5.25 13.56,-17.27 16.81,-22.27l33.82 -76.94c15.93,-46.14 17.71,-165.4 1.79,-210.22 -0.54,-1.53 -1.26,-3.18 -1.79,-4.72l-22.65 -55.53c-0.66,-1.34 -1.44,-3.07 -2.11,-4.41l-195.21 -169.63c-36.83,-16.89 -154.91,-35.25 -187.19,-14.77z"/>
   <path class="fil2" d="M3836.91 3651.57c36.43,-0.81 15.1,-3.83 47.58,-24.08l22.04 -10.54c1.54,-0.57 3.28,-1.13 4.85,-1.67l24.75 -7.82c22.9,-8.13 56.86,-14.9 91.94,-3.72l9.32 3.72c1.53,0.54 3.18,1.26 4.72,1.79 8.27,2.85 11.71,3.21 20.03,6.03l18.53 7.53c1.8,0.88 6.81,3.55 8.49,4.54l7.97 5.05c1.26,0.92 11.96,10.66 13.69,12.37 20.99,20.71 36.44,33.71 47.38,63.38 27.88,75.6 23.72,116.79 1.67,181.67l-70.81 85.55c-1.7,0.98 -6.86,3.49 -8.64,4.4l-30.19 15.42c-10.87,5.17 -4.2,4.2 -18.92,7.14 -46.88,9.37 -102.67,2.04 -125.29,-9.42 -1.77,-0.9 -6.69,-3.66 -8.46,-4.57l-30.25 -15.35c-33.2,-21.24 -54.51,-56.23 -72.05,-90.83 -0.66,-1.31 -1.64,-2.89 -2.28,-4.23l-5.84 -13.7c-1.05,-3.77 -10.15,-92.7 5.84,-126.27l28.14 -50.04c13.43,-17.39 15.14,-7.24 15.78,-36.34zm65.15 -188.93l-136.92 71.56c-21.74,22.32 -50.22,43.29 -67.04,69.77l-26.1 39.05c-0.78,1.16 -1.8,2.78 -2.53,3.99l-26.77 70.95c-5.23,25.88 0.25,74.43 -6.01,98.72l46.01 165.01c0.66,1.34 1.49,3.03 2.14,4.37l15.66 29.94c25.02,35.01 74.7,80.53 114.58,100.41 1.33,0.66 3,1.53 4.32,2.19 2.87,1.44 12.65,6.53 12.9,6.64l29.06 10.03c50.26,16.63 156.67,24.03 210.46,5.29 1.53,-0.53 3.12,-1.33 4.64,-1.87l128.75 -66.7c5.94,-6.05 7.45,-7.79 12.86,-13.2l31.26 -33.89c6.01,-9.46 3.16,-7.33 9.24,-16.82l41.14 -82.65c0.52,-1.57 1.25,-3.17 1.74,-4.78l9.3 -42.83c9.71,-30.41 9.22,-75.36 8.75,-109.49 -0.4,-28.85 -10.42,-60.89 -18.04,-86.2l-16.76 -48.39c-21.5,-47.48 -69.3,-101.47 -113.2,-127.85 -9.11,-5.47 -2.74,-1.16 -11.77,-7.78l-18.57 -14.01c-1.66,-1.01 -6.63,-3.73 -8.41,-4.62 -59.3,-29.69 -119.95,-24.86 -192.09,-23.87l-38.61 7z"/>
   <path class="fil2" d="M2651.17 1644.95l0 78.18c-17.53,7.08 -6.28,-3.88 -11.98,14.08l-1.3 194.65c2.06,23.84 5.51,18.64 10.16,35.44l22.81 68.4c10.11,12.18 4.48,6.15 18.66,13.91 48.39,26.51 226.99,12.25 320.35,12.68 66.29,0.3 75.22,-17.34 87.68,-55.65 21.91,-67.37 11.22,-214.36 10.15,-297.02l-3.08 -29.49c-0.44,-1.67 -1.18,-3.23 -1.68,-4.83 -0.49,-1.57 -1.31,-3.14 -1.83,-4.68l-37.43 -60.29 -38.92 -13.21c-1.6,-0.5 -3.17,-1.24 -4.83,-1.68l-192.85 -2.6c-17.51,-0 -35.03,-0.32 -52.49,-0.37 -51.62,-0.16 -39.43,4.59 -50.31,8.33 -77.22,26.55 -29.76,28.48 -73.11,44.17z"/>
   <path class="fil2" d="M1009.39 1006.48l-338.78 0c-8.51,23.52 -23.84,20.79 -41.91,55.81l-4.3 8.73c-0.59,1.45 -1.4,3.07 -1.93,4.59l-3.8 302.04c3.07,23.63 19.64,51.13 39.19,65.05l20.76 11.81c33.7,15.72 314.45,7.69 321.93,5.68l18.18 -7.87c1.77,-0.91 6.73,-3.63 8.39,-4.64 55.58,-33.67 46.61,-62.57 49.26,-74.52 19.82,-89.58 10.23,-43.03 11.25,-158.26 0.87,-98.6 -6.69,-39.78 -12.65,-85.07 -1.89,-14.36 1.14,-29.41 -1.54,-44.06l-13.72 -31.89c-12.84,-21.55 -10.9,-17.44 -28.99,-29.65 -25.18,-16.98 -14.12,0.14 -21.34,-17.75z"/>
   <path class="fil2" d="M2312.39 6335.75l-143.33 0c-7.31,20.2 -23.01,24.06 -37.27,47.43l-6.84 12.7c-0.64,1.37 -1.51,3 -2.1,4.42 -0.59,1.45 -1.4,3.07 -1.92,4.59 -12.38,36.01 4.43,83.36 -8.51,121.79 -11,32.64 -13.17,103.97 -7.45,120.75 6.07,17.82 -5.75,6.92 11.98,14.08l0 78.18c17.88,6.47 45.74,34.49 52.12,52.12l338.78 0c10.2,-28.19 13.08,-13.72 29.55,-35.6l9.94 -22.63c2.18,-6.65 2.7,-9.14 4.67,-14.87 13.08,-38.04 11.24,-273.34 5.36,-295.65l-17.25 -47.9c-11.07,-17.81 -22.65,-12.81 -32.27,-39.4l-91.21 0c-6.87,-17.02 0.43,-9.26 -19.38,-13.19l-65.47 0c-22.16,4.55 -8.3,0.69 -19.39,13.19z"/>
   <path class="fil2" d="M253.65 3925.2l-26.06 0c-7.17,17.75 3.99,6.28 -14.32,11.74 -8.62,2.57 -20.7,0.84 -30.6,1.98l-59.63 25.07c-17.29,9.26 -4.85,0.31 -19.46,13.11l-29.12 29.52c-4.07,3.98 -11.38,10.76 -13.28,12.78 -16.38,17.36 -21.67,34.65 -33.4,57.82l-13.51 25.58c-5.87,12.29 -1.7,-1.26 -5.84,13.7l-2.07 88.57c5.63,40.5 26.87,82.91 49.49,119.9l4.54 8.49c0.74,1.23 1.56,2.98 2.33,4.19 19.15,30.17 82.37,66.44 116.79,78.67l117.15 1.43 61.72 -22.97c17.22,-9.26 5.08,-0.77 19.29,-13.29 7.55,-6.65 5.48,-5.53 12.91,-13.15 6.74,-6.91 7.79,-8.14 16.2,-16.37 4.07,-3.99 11.38,-10.77 13.28,-12.78l46.91 -83.39c19.45,-40.72 11.9,-142.33 -15.2,-196.45 -9.59,-19.16 -3.4,-7.47 -12.7,-19.87l-102.77 -86.17c-64.76,-33.99 -70.11,2.97 -82.65,-28.1z"/>
   <path class="fil1" d="M15967.85 3755.81l0 65.15c40.64,14.71 4.27,21.77 63.61,41.11l19.33 6.74c8.57,1.84 1.78,1.84 12.81,0.79l14.63 -3.7c18.65,-0.1 -1.48,7.84 71.98,7.25 125.99,-1 827.01,9.64 873.48,-6.17 1.54,-0.52 3.14,-1.31 4.67,-1.84 1.55,-0.54 3.21,-1.22 4.78,-1.74 1.61,-0.53 3.35,-1.03 4.97,-1.55 13.79,-4.44 6.35,0.26 19.8,-6.25 5.27,-2.55 21.22,-18.21 23.76,-21.85l9.72 -16.59c0.72,-1.38 1.63,-3.01 2.31,-4.43 3.35,-7.06 13.37,-12.35 4.27,-39.4l-11.43 -22.08c-0.76,-1.21 -1.77,-2.81 -2.56,-3.99 -0.78,-1.16 -1.89,-2.7 -2.7,-3.82 -16.65,-23.06 -10.51,-3.54 -18.9,-26.72l-1055.43 0 -26.47 32.17c-5.82,3.99 -1.56,2.92 -12.62,6.93z"/>
   <path class="fil1" d="M15980.88 4159.74c-0.88,39.46 4.22,19.1 -13.03,26.06l0 65.15c16.45,5.95 33.12,22.61 39.09,39.09l65.15 0c14.83,36.74 44.83,1.06 72.04,1 18.69,-0.04 17.77,5.15 22.47,5.67l7.16 -0.24c24.69,-2.62 -17.26,-9.2 15.43,-3.54 17.63,3.05 6.12,-7.39 13.2,10.14l26.06 0c12.78,-31.67 43.04,-1.31 84.22,0.47l127.49 -7.68c11.55,-1.51 16.03,7.8 68.3,7.33 93.22,-0.84 279.84,13.81 350.44,-9.11 67.34,-21.86 -14.84,27.68 104.29,0.55 47.85,-10.9 -9.97,3.79 24.23,2.13 18.22,-0.88 3.49,9.63 9.79,-6.73l65.15 0c18,-49.73 65.25,-43.29 24.17,-108.8 -0.76,-1.21 -1.77,-2.82 -2.56,-3.99 -0.78,-1.16 -1.89,-2.7 -2.7,-3.82 -19.75,-27.34 -10.04,-2.23 -18.9,-26.71l-1055.43 0c-6.5,16.1 13.13,13.03 -26.06,13.03z"/>
   <path class="fil2" d="M7515.12 1931.64c19.95,-1.55 35.68,-1.62 55.24,4.57 34.01,10.76 57.2,33.3 71.34,61.66 33.66,67.51 11.22,180.5 -97.52,191.35 -182.72,18.22 -191.47,-244.95 -29.06,-257.58zm232.73 169.36c19.36,-107.15 -42.22,-213.24 -141.48,-250.09 -205.49,-76.28 -427.14,180.32 -218.08,385.78 30.9,30.36 81.58,59.28 140.71,55.3 82.05,-5.52 106.02,-32.88 150.84,25.18l91.24 110.45c103.95,144.24 104.6,105.65 294.21,106.9 30.07,0.2 63.25,2.74 79.2,-15.2 16,-17.98 11.1,-52.44 -5.08,-69.01 -29.82,-30.55 -135.84,-14 -185.31,-16.7 -59.35,-3.24 -86.4,-45.57 -114.09,-81.46l-74.88 -81.68c-81.87,-84.07 -31.06,-93.25 -17.29,-169.48z"/>
   <path class="fil1" d="M10412.96 1936c74.07,-13.45 132.32,36.9 143.68,96.59 15.29,80.34 -28.97,140.41 -94.92,152.16 -168.85,30.06 -208.35,-219.77 -48.77,-248.75zm-41.53 -86.57c-94,35.27 -176.96,113.31 -153.7,243.62 11.91,66.71 69.66,96.82 39.86,141.08 -27.58,40.97 -82.24,92.96 -94.29,108.17 -27.69,34.99 -57.81,83.31 -111.81,89.98 -55.97,6.91 -152.24,-7.35 -199.31,3.32 -59.09,13.4 -69.4,95.98 4.13,98.78 62.81,2.39 138.37,-2.06 202.76,-2.71 76.02,-0.76 87.25,-20.96 123.03,-65.89l136.14 -163.86c47.9,-51.3 129.3,32.4 242.7,-51.48 64.2,-47.49 136.25,-163.81 75.19,-284.72 -36.36,-72 -139.44,-163.29 -264.7,-116.29z"/>
   <path class="fil1" d="M10408.25 4755.43c170.46,-49.3 206.28,211.92 59.78,237.23 -176.4,30.47 -213.5,-192.77 -59.78,-237.23zm-564.02 -342.6c-51.07,21.27 -63.34,94.1 18.56,98.71 60.95,3.43 145.26,-8.16 202.03,-0.17 39.01,5.49 84.48,60.57 106.6,89.99l92.36 110.21c15.85,50.55 -120.03,126.41 -0,292.67 146.36,202.74 479.19,20.44 378.59,-211.69 -17.62,-40.65 -57.42,-83.6 -86.37,-106.45 -44.51,-35.13 -108.77,-32.75 -171.99,-29.8 -41.74,1.95 -44.92,-12.39 -64.68,-34.27 -8.94,-9.9 -13,-12.37 -22.89,-22.79 -11.35,-11.96 -12.55,-17.45 -22.79,-29.25l-45.98 -51.99c-18.39,-21.23 -20.57,-30.68 -49.33,-54.63 -57.43,-47.81 -29.17,-55.06 -139.12,-55.22 -38.87,-0.06 -168.6,-6.29 -194.98,4.69z"/>
   <path class="fil1" d="M7403.22 4889.42c-17.97,-175.97 234.92,-195.28 253.11,-31.88 4.1,36.85 -9.13,72.16 -25.1,98.89 -39.59,66.24 -213.87,71.43 -228.01,-67.01zm463.91 -475.06c-41.83,14.9 -79.48,59.06 -105.7,93.18l-45.44 52.36c-13,16.75 -31.25,38.98 -44.27,52.93 -93.23,99.84 -133.5,-15.17 -267.34,78.85 -39.62,27.83 -83.42,88.5 -95,149.89 -29.93,158.52 154.11,307.21 316.72,232.6 79.01,-36.25 153.22,-137.38 120.15,-257.42 -17.15,-62.27 -67.94,-76.19 -13.78,-129.49 32.75,-32.23 68.15,-64.72 97.85,-103.96 49,-64.73 65.52,-72.34 123.88,-72.03 43.49,0.23 156.87,10.13 179.56,-15.52 105.28,-119.02 -235.75,-92.37 -266.64,-81.37z"/>
   <path class="fil1" d="M15980.88 3299.76c-0.88,39.46 4.22,19.1 -13.03,26.06l0 65.15 32.17 26.47c3.99,5.82 2.92,1.56 6.92,12.62l1055.43 0c5,-13.81 2.58,-5.89 10.1,-15.96l21.21 -31.39c7.19,-14.92 18.7,-9.85 0,-48.64l-7.15 -12.82c-14.73,-23.48 -16.29,-12.75 -24.17,-34.52l-1055.43 0c-6.5,16.1 13.13,13.03 -26.06,13.03z"/>
   <path class="fil1" d="M10671.8 3976.33c165.81,-57.42 203.75,194.27 76.78,222.71 -106.79,23.92 -193.44,-82.65 -144.06,-170.42 16.52,-29.37 33.65,-40.64 67.28,-52.28zm-582.55 137.09l388.85 7.26 16.14 35.85c10.05,-10.99 -3.98,-29.7 18.06,11.19 5.5,10.2 8.13,17.53 13.56,26.8 9.41,16.11 21.99,32.09 33.9,44.06 100.67,101.23 257.2,73.25 320.56,-19.35 107.73,-157.47 2.15,-361.94 -196.38,-347.67 -128.07,9.2 -149.54,109.02 -202.66,117.92 -182.9,30.67 -409.71,-44.53 -423.73,46.97 -9.03,58.94 33.88,71.21 85.63,70.69l-53.93 6.28z"/>
   <path class="fil1" d="M10694.71 2733.32c153.76,-38.86 179.62,211.81 41.88,228.75 -74.12,9.12 -129.76,-29.85 -141.74,-93.76 -14.93,-79.67 38.51,-119.48 99.86,-134.99zm-33.85 -91.66c-93.57,27.49 -125.14,76.28 -162.69,158.92 -20.12,44.27 -39.18,32.11 -133.22,31.61 -54.29,-0.29 -108.59,-0.02 -162.88,-0 -40.42,0.01 -119.35,-10.54 -137.56,23.75 -9.12,17.16 -7.04,45.86 3.63,63.93 12.68,21.47 29.09,21.76 61.93,21.35 108.72,-1.37 217.71,-0.45 326.19,-2.24 118.54,-1.95 84.34,89.62 202.58,117.02 105.57,24.46 183.78,-19.32 225.06,-83.45 46.9,-72.89 57.01,-175.59 2.18,-246.27 -39.51,-50.93 -116.6,-116.52 -225.21,-84.61z"/>
   <path class="fil2" d="M7383.56 2882.8c-46.93,157.66 -269.61,87.09 -230.87,-70.47 35.51,-144.44 281.04,-98.12 230.87,70.47zm116.61 -53.67c-21.6,-27.15 -32.91,-76.83 -56.24,-107.26 -104.1,-135.8 -271.53,-92.29 -332.01,-17.15 -51.36,63.83 -82.79,147.14 -30.97,244.58 43.58,81.96 116.8,119.31 209.21,115.89 140.9,-5.22 133.38,-109.55 207.21,-119.46 198.67,-26.67 420.2,39.09 428.23,-58.01 8.28,-100.15 -229.3,-35.47 -425.44,-58.59z"/>
   <path class="fil2" d="M7148.18 4101.11c-21.44,-156.45 230.87,-190.94 242.78,-26 11.59,160.34 -221.51,181.18 -242.78,26zm339.47 56.06l14.94 -36.29c53.38,0.32 173.52,14.65 210.58,-7.35l-197.8 -7.37c64.33,-1.21 212.16,18.48 226.02,-40.88 22.95,-98.27 -125.99,-70.89 -190.93,-70.57 -68.47,0.35 -69.06,6.72 -106.88,-34.67 -79.22,-86.7 -162.74,-121.87 -286.99,-50.12 -123.8,71.5 -140.7,252.67 -12.17,348.82 88.94,66.54 254.4,54.68 312.15,-74.67 14.4,-32.24 6.86,-29.63 18.59,-31.58 18.93,-3.15 -13.63,-17.79 12.49,4.66z"/>
   <path class="fil2" d="M136.38 1899.03c-1.37,0.87 -3.68,0.22 -4.34,2.17l-108.7 86.75c-29.97,59.27 -8.35,25.51 -22.09,82.64 -5.32,22.1 7.72,71.72 14.53,92.38l4.33 15.22c6.25,17.66 11.1,20.43 24.94,33.7l43.56 41.13c7.51,4.81 4.13,2.4 12.75,6.79l39.06 19.58c1.55,0.55 3.18,1.23 4.83,1.68l63.15 2.76c40.85,-0.06 29.28,0.57 45.76,-6.42 1.4,-0.59 2.98,-1.53 4.34,-2.18 52.54,-25.02 39.31,-17.1 79.89,-56.93 42.45,-41.67 33.47,-45.18 47.41,-102.56 0.45,-1.83 0.89,-3.48 1.4,-5.25l5.81 -14.44c5.3,-17.17 -9.82,-73.24 -15.08,-86.74 -0.57,-1.46 -1.4,-3.09 -2.03,-4.48l-34.25 -43.92c-71.79,-70.02 -55.93,-68.67 -160.01,-68.76 -13.19,-0.01 -33.39,-0.62 -45.23,6.89z"/>
   <path class="fil3" d="M8894.64 3912.18c-141.85,0.95 -283.72,-0.57 -425.57,-0.03 -160.75,0.61 -121.72,-45.36 -209.89,220.02 -20.84,62.72 -28.08,106.34 -96.25,110.39 -321.6,19.08 -268.57,-43.38 -174.24,-322.26 71.85,-212.42 140.19,-429.33 208.57,-645.09l207.64 -651.9c18.56,-54.72 59.85,-76.68 129.03,-81.4 48.9,-3.34 166.03,-4.56 208.97,8.61 84.97,26.05 94.1,156.36 141.02,289.17 100.07,283.23 215.56,663.1 311.24,965.17 34.04,107.46 75.38,216.77 104.93,325.35 21.1,77.52 -22.58,115.16 -94.52,117.09 -290.28,7.77 -181.53,-21.04 -310.95,-335.12zm-370.99 -1390.5c-153.71,17.68 -134.27,102.23 -186.39,255.42 -37.21,109.34 -70.35,223 -105.96,330.44 -71.99,217.22 -152.11,444.53 -216.23,663.85 -111.59,381.7 -247.43,518.3 141.01,491.3 121.65,-8.45 112.02,-112.28 169.4,-266.37 36.78,-98.77 51.27,-61.74 156.62,-65.11 68.36,-2.19 152.11,-0.88 221.51,-0.18 199.32,2.01 173.08,-37.93 242.05,195.13 18.26,61.71 28.1,110.17 83.97,132 25.22,9.85 178.61,13.14 213.25,5.51 137.01,-30.19 58.42,-205.34 25.57,-303.17 -37.02,-110.25 -71.99,-223.33 -108.92,-334.69 -37.01,-111.61 -69.34,-221.04 -106.66,-329.79 -37.53,-109.37 -66.86,-227.69 -105.79,-330.66 -11.4,-30.16 -13.72,-53.2 -23.34,-80.97l-82.98 -249.22c-21.78,-62.64 -46.18,-98.41 -113.21,-110.23 -46.59,-8.21 -155.29,-8.86 -203.91,-3.27z"/>
   <path class="fil1" d="M15967.85 4628.83l0 65.15c16.45,5.95 33.12,22.61 39.09,39.09l729.68 0c5.57,-15.38 10.01,-20.25 26.06,-26.06l0 -91.21c-22.41,-0.5 -31.82,-5.98 -39.09,-26.06l-716.65 0 -26.47 32.17c-5.82,3.99 -1.56,2.92 -12.62,6.93z"/>
   <path class="fil2" d="M1335.14 107.41c-47.78,-1.06 -30.49,-37.15 -97.23,-39.59 -88.69,-3.24 -148.22,7.45 -198.18,82.96 -20.69,31.27 -13.75,40.58 -20.45,64.3 -6.42,22.75 -21.03,7.1 -1.69,66.42 5.03,15.45 1.6,3.64 4.77,21.42 8.2,45.94 42.77,84.24 78.63,110.31 6.79,4.93 0.13,0.91 12.16,7.38l32.93 12.68c1.64,0.53 3.42,0.93 5.05,1.48 32.54,10.83 0.78,8.31 34.92,11.61 21.29,2.05 27.21,-7.67 57.94,-13.16l21.78 -4.29c26.51,-8.68 73.18,-41.05 84.96,-64.89l4.11 -8.92c0.65,-1.35 1.47,-3.04 2.13,-4.38l20.49 -51.17c0.54,-1.55 1.25,-3.19 1.79,-4.73 18.59,-52.23 5.92,-69.15 -4.89,-102.88l-8.39 -24.19c-0.83,-1.84 -3.39,-6.96 -4.35,-8.68 -19.55,-34.87 -25.67,-15.29 -26.48,-51.7z"/>
   <path class="fil4" d="M8508.19 2562.22c47.26,-10.72 152.85,-8.43 206.24,-0.76 65.48,9.4 80.14,47.12 98.56,107.73 95.11,312.97 208.27,636.54 305.36,951.82 46.21,150.06 112.85,333.54 154.42,477.32 17.97,62.16 24.35,117.6 -44.12,126.86 -22.05,2.98 -181.15,0.44 -195.62,-5.37 -33.13,-13.29 -52.73,-104.05 -64.51,-140.13 -70.67,-216.42 -19.07,-183.19 -238.85,-184.07 -75.75,-0.3 -373.8,-19.06 -407.73,19.57 -41.73,47.5 -78.99,264.99 -119.05,296.92 -22.63,18.04 -164.76,13.04 -203.1,11.22 -84.5,-4 -72.71,-67.12 -52.02,-130.26 33.99,-103.73 70.62,-207.34 103.23,-313.35l307.11 -950.09c60.91,-186.7 45.21,-243.63 150.06,-267.42zm386.45 1349.96c129.42,314.08 20.67,342.9 310.95,335.12 71.94,-1.93 115.62,-39.57 94.52,-117.09 -29.56,-108.58 -70.89,-217.9 -104.93,-325.35 -95.68,-302.07 -211.17,-681.95 -311.24,-965.17 -46.92,-132.82 -56.05,-263.12 -141.02,-289.17 -42.94,-13.16 -160.07,-11.94 -208.97,-8.61 -69.18,4.72 -110.48,26.67 -129.03,81.4l-207.64 651.9c-68.38,215.77 -136.72,432.68 -208.57,645.09 -94.33,278.88 -147.36,341.35 174.24,322.26 68.16,-4.04 75.41,-47.67 96.25,-110.39 88.17,-265.38 49.13,-219.41 209.89,-220.02 141.85,-0.54 283.72,0.98 425.57,0.03z"/>
   <path class="fil0" d="M8441.91 3573.97c69.36,5.98 261.49,9.13 326.55,-1.26 -0.8,-30.31 -146.99,-477.25 -162.56,-500.48 -24.92,14.21 -30.93,86.81 -43,118.98 -15.96,42.51 -28,80.96 -41.36,127.7 -16.93,59.24 -77.41,208.18 -79.63,255.06z"/>
   <path class="fil2" d="M4332.05 2316c-0.69,0.44 -54.11,6.66 -99.96,75.95 -0.78,1.17 -1.73,2.84 -2.46,4.05l-17.12 55.51c-0.38,1.75 -0.93,3.55 -1.31,5.18l-3.69 19c0.1,0.9 0.75,2.66 0.94,3.62 0.22,1.1 1.04,2.88 1.32,4.09 0.32,1.35 1.08,3.15 1.43,4.63l48.81 108.5 36.78 28.38c1.35,0.66 3.03,1.47 4.42,2.09 64.68,28.91 75.7,25.7 123.66,9.85 44.55,-14.72 49.61,-17.27 86.81,-56.53l11.31 -14.74c29.77,-59.81 33.05,-144.43 -21.44,-197.55 -2.07,-2.02 -6.18,-6.06 -9.83,-9.72l-22.62 -22.98c-31.59,-27.86 -74.67,-31.71 -117.19,-25.52 -2,0.29 -3.71,0.61 -5.53,0.99l-9.8 3.24c-1.07,0.34 -3.14,1.1 -4.52,1.98z"/>
   <path class="fil3" d="M15386.48 4524.58c-27.41,49.65 -168.16,171.8 -232.06,202.67 -228.29,110.28 -434.07,82.33 -643.26,-42.48 -14.91,-8.89 -19.19,-15.19 -32.86,-25.98 -287.3,-226.61 -369.78,-617.89 -203.85,-955.02 23.17,-47.07 57.39,-101.57 86.07,-135.11 81.46,-95.26 61.98,-74.64 177.34,-154.59 20.69,-14.34 47.72,-27.21 72.6,-38.29 32.84,-14.63 143.99,-46.15 176.09,-43.29l-4.22 664.54c1.4,161.56 94.23,155.03 203,246.27 48.26,40.47 203.7,134.79 272.01,183.83 37.11,26.64 104.17,68.5 129.13,97.46zm21.48 12.88l8.74 -19.39c-10.79,-19.72 -27.04,-17.29 -67.36,-45.71l-471.06 -323.45c-64.96,-52 -76.36,-40.14 -77.2,-151.97l-2.02 -679.9 -16.2 -3.83c-140.28,8.23 -270.45,82.22 -352.73,149.5l-84.62 90.98c-202.81,250.02 -228.83,585.86 -90.25,872.53 96.28,199.16 296.27,345.28 522.53,382.04 139.13,22.6 275.25,-7.88 387.7,-63.32 146.77,-72.35 220.8,-198.59 242.46,-207.47z"/>
   <path class="fil3" d="M9798.82 4185.8c-20.5,69.14 -99.25,58.37 -176.6,58.08 -85.18,-0.33 -140.4,0.74 -143.41,-90.28 -8.96,-271.04 2.46,-661.46 0.87,-951.57 -2.85,-520.46 -50.87,-529.28 181.74,-528.2 80.23,0.37 136,11.6 139.89,94.35 7.14,152.33 0.75,319.02 0.85,472.94 0.06,106.91 6.7,910.8 -3.34,944.68zm-243.5 -1529.33c-86.64,14.61 -99.05,60.62 -97.83,148.13 1.16,82.89 -0.13,164.51 1.5,247.59 3.2,163.47 -2.81,331.15 -2.28,495.14 0.52,161.67 -3.6,327.54 1.88,488.63 2.73,80.33 -20.55,172.68 41.76,207.28 44.49,24.7 166.22,27.56 223.86,18.8 97.72,-14.86 95.19,-82.47 95.92,-147.89l-0.17 -742.72c1.24,-161.78 2.06,-326.96 0.13,-488.63 -0.98,-81.62 12.45,-171.02 -43.86,-206.57 -46.13,-29.12 -162.5,-29.61 -220.9,-19.76z"/>
   <path class="fil2" d="M1048.48 6166.36l0 117.27c23.88,9.64 4.38,-4.2 17.74,21.35l3.96 9.07c26.11,56.63 41.77,20.16 56.47,60.8l117.27 0c7.66,-18.98 -4.51,0.27 9.25,-10.29 2.52,-1.94 4.71,-3.44 7.78,-5.25l8.81 -4.22c55.65,-26.62 26.99,-22.09 52.29,-58.47 9.57,-13.77 -4.52,-5.86 13.09,-12.97l0 -117.27c-13.99,-5.06 -6.5,0.12 -16.2,-9.85 -14.29,-14.69 -17.36,-51.58 -70.82,-66 -17.21,-4.64 -38.18,-2.6 -56.49,-2.63 -51.07,-0.08 -39.52,0.82 -78.16,19.69 -68,33.21 -20.39,42.65 -64.99,58.79z"/>
   <path class="fil4" d="M9496.43 4172.77l-1.62 -1368.3c-0.11,-90.02 14.91,-110.81 107.59,-114.15 234.39,-8.45 185.62,19.59 181.85,505.2l0.87 912.11c0.71,100.12 -9.49,117.62 -110.74,117.74 -64.35,0.07 -168.54,16.91 -177.96,-52.6zm302.39 13.03c10.04,-33.88 3.4,-837.77 3.34,-944.68 -0.1,-153.92 6.3,-320.61 -0.85,-472.94 -3.88,-82.75 -59.65,-93.98 -139.89,-94.35 -232.6,-1.08 -184.59,7.75 -181.74,528.2 1.59,290.1 -9.83,680.52 -0.87,951.57 3.01,91.02 58.23,89.95 143.41,90.28 77.35,0.3 156.1,11.06 176.6,-58.08z"/>
   <path class="fil3" d="M10257.42 2211.76c-64.9,-95.93 -92.77,-198.76 -7.72,-303.95 156.35,-193.36 491.67,-47.1 414.11,231.23 -14.88,53.41 -55.9,95.42 -87.08,121.83 -106.62,90.31 -205,13.42 -242.36,50.32l-93.01 115.83c-21.07,24.29 -30.93,36 -50.84,59.53 -39.25,46.37 -55.99,63.88 -144.74,65.46 -36.17,0.64 -189.45,4.86 -213.95,-1.85 -61.14,-16.75 -46.14,-107.83 1.74,-127.11 30.7,-12.36 163,-4.53 206.07,-5.97 54.42,-1.82 86.71,-55.34 117.34,-94.13l100.43 -111.19zm130.02 -410.25c-70.5,9.14 -129.91,61.88 -163.36,106.51 -9.07,12.1 -12.44,16.81 -20.64,31.59 -68.32,123.36 18.29,263.62 18.48,266.39 1.58,23.08 -60.91,77.89 -96.29,124.76l-44.88 46.64c-66.25,56.88 -223.67,-20.43 -286.82,51.64 -38.33,43.75 -30.76,122.58 32.92,138.83 36.21,9.24 171.29,2.76 218.92,3.46 97.49,1.43 150.62,-45.82 202.11,-118l96.2 -119.76c37.36,-34.1 139.3,36.73 263.39,-68.62 67.95,-57.69 122.64,-195.23 63.9,-313.62 -54.35,-109.55 -154.83,-166.58 -283.94,-149.84z"/>
   <path class="fil3" d="M7641.87 2296.69c-68.43,-2.17 -109.08,25.67 -184.47,1.69 -167.64,-53.33 -217.65,-272.5 -108.17,-398.47 166.99,-192.15 491.3,-8.02 409.52,233.42 -8.64,25.52 -31.76,48.51 -23.44,74.61l73.5 84.56c127.83,154.45 106.26,124.47 243.44,124.64 62.86,0.07 132.17,8.65 116.22,85.9 -13.72,66.45 -91.61,48.99 -161.95,49.85 -76.82,0.95 -132.73,13.34 -179.48,-31.31l-185.16 -224.89zm-162.79 -492.51c-219.63,29.73 -308.01,375.68 -59.41,500.36 89.18,44.73 117.32,9.63 196.08,17.64 46.49,4.73 143.71,164.53 207.8,222.18 44.42,39.96 121.49,28.48 189.48,27.7 67.43,-0.78 138.46,15.4 167.19,-44.12 29.66,-61.45 -12.75,-123.29 -69.19,-129 -181.57,-18.35 -140.09,48.32 -243,-74.75 -9.88,-11.81 -14.43,-14.94 -24.27,-27.88 -30.84,-40.57 -56.1,-45.43 -77.35,-85.71 -17.7,-33.54 65.38,-130.37 -4.81,-268.35 -14.64,-28.78 -23.64,-44.16 -43.39,-60.93 -29.25,-24.85 -24.59,-31.63 -61.86,-49.52 -57.28,-27.5 -104.7,-37.45 -177.28,-27.62z"/>
   <path class="fil3" d="M7719.38 4726.55l18.48 27.81c22.52,32.61 34.1,81.13 32.72,121.93 -6.79,201.6 -212.7,285.12 -357.89,203.25 -150.58,-84.91 -165.27,-288 -24.17,-397.78 39.74,-30.92 96.99,-51.13 162.14,-47.9 33.33,1.65 61.14,14.1 81.47,-1.19l71.15 -85.35c10.82,-11.85 12.65,-17.09 22.82,-29.73l49.01 -55.14c41.39,-53.78 70.81,-66.67 140.03,-69.28 35.48,-1.34 180.99,-5.77 205.92,3.71 51.02,19.42 56.29,106.42 8.02,126.64 -29.01,12.16 -155.25,3.32 -194.63,3.18 -39.76,-0.14 -45.76,16.78 -65.11,36.6l-149.97 163.24zm31.44 0l100.34 -109.85c69,-80.04 33.9,-68.06 148.84,-67.24 69.87,0.5 141.19,12.23 172.2,-42.24 31.94,-56.1 -4.53,-121.67 -59.25,-133.68 -31.29,-6.86 -166.38,-5.2 -202.58,-1.75 -115.15,11 -154.12,75.19 -241.82,186.11 -5.15,6.51 -46.48,51.51 -50.65,53.72 -24.82,13.08 -76.47,0.86 -106.82,2.82 -243.06,15.69 -341.78,358.76 -108.2,481.97 166.38,87.76 365.82,-6.33 386.93,-196.94 9.69,-87.5 -15.71,-106.02 -39,-172.92z"/>
   <path class="fil3" d="M10252.31 4726.55l-119.69 -139.08c-27.01,-29.25 -33.46,-60.91 -99.66,-60.02 -44.74,0.61 -166.6,8.45 -203.2,-2.46 -60.69,-18.1 -48.69,-107.61 4.35,-127.17 28.79,-10.62 164.96,-5.41 205.08,-5.66 151.54,-0.94 141.61,52.48 225.73,141.41 15.13,15.99 11.55,10.74 23.91,28.16 13.39,18.87 8.29,10.57 24.47,27.47 59.97,62.61 9.61,58.33 97.37,46.13 239.05,-33.22 380.31,303.27 144.23,444.49 -176.64,105.66 -423.68,-75.54 -340.72,-288.85 13.08,-33.63 22.21,-40.93 38.11,-64.42zm-28.18 0c-10.82,25.93 -23.89,39.96 -33.42,73.18 -74.22,258.72 243.08,446.32 439.6,244.18 85.09,-87.53 86.51,-215.93 14.14,-323.22 -15.49,-22.96 -38.01,-38.9 -54.87,-55.85 -85.55,-85.99 -194.13,-20.31 -240.62,-65.29 -44.68,-43.24 -87.16,-110.44 -152.08,-174.11 -49.72,-48.77 -64.63,-54.79 -157.61,-54.78 -124.39,0.01 -217.79,-21.72 -259.69,57.25 -16.68,31.43 -8.99,61.43 8.1,87.82 30.35,46.86 116.31,33.68 179.85,32.98 111.21,-1.23 104.5,-7.9 159.16,57.56 28.17,33.74 87.08,95.38 97.44,120.29z"/>
   <path class="fil3" d="M10475.54 2815.88c27.92,-53.6 46.99,-147.17 157.56,-186.13 100.56,-35.43 202.16,8.52 249.21,61.61 134.57,151.86 27.67,403.04 -185.41,387.91 -73.58,-5.22 -130.83,-42.71 -168.61,-92.76 -16.54,-21.91 -12.89,-31.24 -49.09,-30.94 -111.78,0.93 -223.98,2.09 -335.99,2.79 -57.74,0.36 -99.6,-8.84 -101.78,-69.62 -2.16,-60.15 40.21,-73.15 95.37,-73.47 112.53,-0.64 226.54,2.25 338.74,0.61zm198.93 -215.58c-111.49,13.43 -159.28,80.18 -199.25,164.89 -20.41,43.27 -101.07,27.22 -149.37,26.63 -60.56,-0.75 -122.09,-0.02 -182.73,0.28 -166.47,0.81 -138.53,163.99 -57.31,181.8 63.61,13.95 285.9,4.39 364.17,3.18 102.42,-1.58 78.52,107.69 236.01,120.21 369.71,29.38 364.78,-542.33 -11.52,-496.99z"/>
   <path class="fil3" d="M7503.48 2817.39c85.31,-0.69 170.16,-0.77 255.46,-0.66 75.52,0.1 192.37,-19.88 182.16,78.56 -8.61,83.03 -127.39,61.63 -201.7,61.7 -84.46,0.08 -173.88,-1.99 -257.58,0.03 -38.88,44.28 -47.3,74.38 -105.16,103.87 -48.38,24.67 -129.02,28.5 -182.77,9.29 -247.51,-88.43 -178.17,-466.64 88.86,-452.31 131,7.03 183.34,88.27 220.74,199.51zm-5.14 159.21c87.87,3.98 178.79,0.96 267.11,1.12 89.24,0.16 185.16,16.57 194,-83.39 8.97,-101.48 -75.73,-98.68 -161.41,-100.03 -69.27,-1.09 -216.92,7.73 -274.64,-1.55 -48.23,-105.51 -104.86,-197.18 -253.03,-195.61 -288.92,3.05 -338.5,394.43 -86.24,489.78 56.88,21.5 140.31,19.31 193.96,-5.14 65.9,-30.02 76.41,-63.4 120.25,-105.17z"/>
   <path class="fil4" d="M10371.43 1849.43c125.26,-47 228.34,44.29 264.7,116.29 61.06,120.91 -10.98,237.23 -75.19,284.72 -113.4,83.88 -194.79,0.18 -242.7,51.48l-136.14 163.86c-35.78,44.92 -47.02,65.12 -123.03,65.89 -64.39,0.65 -139.95,5.1 -202.76,2.71 -73.53,-2.8 -63.21,-85.38 -4.13,-98.78 47.06,-10.67 143.34,3.58 199.31,-3.32 54,-6.67 84.12,-54.99 111.81,-89.98 12.05,-15.22 66.7,-67.2 94.29,-108.17 29.79,-44.25 -27.96,-74.37 -39.86,-141.08 -23.27,-130.3 59.7,-208.35 153.7,-243.62zm-214.44 473.51c-30.63,38.79 -62.92,92.31 -117.34,94.13 -43.07,1.44 -175.37,-6.39 -206.07,5.97 -47.88,19.28 -62.88,110.36 -1.74,127.11 24.5,6.71 177.77,2.49 213.95,1.85 88.74,-1.58 105.48,-19.09 144.74,-65.46 19.92,-23.53 29.77,-35.23 50.84,-59.53l93.01 -115.83c37.36,-36.9 135.74,39.99 242.36,-50.32 31.18,-26.41 72.19,-68.42 87.08,-121.83 77.56,-278.34 -257.76,-424.6 -414.11,-231.23 -85.05,105.18 -57.18,208.01 7.72,303.95l-100.43 111.19z"/>
   <path class="fil4" d="M10556 4686.08c28.95,22.85 68.75,65.8 86.37,106.45 100.6,232.13 -232.23,414.43 -378.59,211.69 -120.03,-166.26 15.85,-242.12 0,-292.67l-92.36 -110.21c-22.13,-29.41 -67.6,-84.5 -106.6,-89.99 -56.77,-7.99 -141.08,3.6 -202.03,0.17 -81.9,-4.61 -69.63,-77.44 -18.56,-98.71 26.38,-10.98 156.11,-4.75 194.98,-4.69 109.96,0.16 81.7,7.41 139.12,55.22 28.77,23.95 30.94,33.4 49.33,54.63l45.98 51.99c10.23,11.8 11.43,17.29 22.79,29.25 9.89,10.42 13.95,12.89 22.89,22.79 19.75,21.87 22.94,36.22 64.68,34.27 63.22,-2.95 127.48,-5.33 171.99,29.8zm-267.15 -124.35c-12.36,-17.42 -8.78,-12.16 -23.91,-28.16 -84.12,-88.93 -74.2,-142.35 -225.73,-141.41 -40.12,0.25 -176.29,-4.96 -205.08,5.66 -53.04,19.56 -65.04,109.07 -4.35,127.17 36.59,10.91 158.45,3.07 203.2,2.46 66.2,-0.9 72.65,30.77 99.66,60.02l119.69 139.08c-15.9,23.49 -25.03,30.79 -38.11,64.42 -82.96,213.32 164.08,394.52 340.72,288.85 236.08,-141.22 94.82,-477.71 -144.23,-444.49 -87.76,12.2 -37.4,16.47 -97.37,-46.13 -16.18,-16.89 -11.09,-8.6 -24.47,-27.47z"/>
   <path class="fil3" d="M10494.24 4156.52l-16.14 -35.85 -388.85 -7.26c-34.17,-6.29 -55.12,-45.86 -44.17,-84.78 12.9,-45.84 39.44,-51.17 91.69,-51.14 95.53,0.07 191.36,-0.75 286.85,0.14 73.96,0.69 65.95,4.45 103.81,-39.62 138.04,-160.7 397.27,-68.22 412.05,130.3 12.32,165.52 -146,291.85 -310.68,231.26 -57.9,-21.3 -118.06,-79.97 -134.55,-143.05zm-29.77 -18.74c35.04,84.49 65.5,154.35 173.68,185.51 93.52,26.93 177.88,6.51 244.56,-56.23 204.15,-192.05 -32.82,-557.27 -312.79,-391.06 -17.06,10.13 -41.79,26.22 -53.29,38.02 -15.69,16.09 -18.97,36.06 -48.62,41.38 -207.16,37.19 -444.29,-70.64 -443.64,93.62 0.55,138.7 215.77,74.45 440.1,88.76z"/>
   <path class="fil4" d="M15407.96 4537.46c-21.66,8.88 -95.7,135.12 -242.46,207.47 -112.45,55.44 -248.57,85.92 -387.7,63.32 -226.27,-36.75 -426.26,-182.88 -522.53,-382.04 -138.58,-286.67 -112.56,-622.51 90.25,-872.53l84.62 -90.98c82.28,-67.28 212.45,-141.27 352.73,-149.5 -3.87,-19.43 0.75,-10.58 -19.82,-13.72 -57.9,-8.84 -247.2,73.03 -310.76,126.05 -23.03,19.21 -43.93,34.81 -64.75,53.06 -37.88,33.22 -121.82,155.06 -146.27,206.08 -117.41,245.01 -122.94,501.1 3.22,752.01l68.88 106.54c86.11,99.22 30.76,52.47 146.23,147.81 181.51,149.88 503.03,186.44 722.2,64.34 57.27,-31.9 95.32,-63.92 136.3,-98.76 6.48,-5.51 119.76,-118.64 89.86,-119.16z"/>
   <path class="fil4" d="M7747.85 2101c-13.77,76.23 -64.58,85.42 17.29,169.48l74.88 81.68c27.69,35.89 54.74,78.22 114.09,81.46 49.47,2.7 155.49,-13.85 185.31,16.7 16.18,16.58 21.08,51.04 5.08,69.01 -15.96,17.93 -49.13,15.39 -79.2,15.2 -189.6,-1.25 -190.25,37.33 -294.21,-106.9l-91.24 -110.45c-44.82,-58.06 -68.78,-30.7 -150.84,-25.18 -59.13,3.97 -109.81,-24.94 -140.71,-55.3 -209.06,-205.46 12.59,-462.06 218.08,-385.78 99.26,36.85 160.84,142.93 141.48,250.09zm-105.98 195.69l185.16 224.89c46.75,44.65 102.66,32.25 179.48,31.31 70.34,-0.86 148.23,16.6 161.95,-49.85 15.95,-77.25 -53.36,-85.83 -116.22,-85.9 -137.17,-0.17 -115.61,29.81 -243.44,-124.64l-73.5 -84.56c-8.31,-26.09 14.8,-49.09 23.44,-74.61 81.78,-241.44 -242.53,-425.57 -409.52,-233.42 -109.48,125.97 -59.47,345.14 108.17,398.47 75.39,23.98 116.04,-3.86 184.47,-1.69z"/>
   <path class="fil4" d="M7867.13 4414.36c30.89,-11 371.92,-37.65 266.64,81.37 -22.69,25.65 -136.07,15.75 -179.56,15.52 -58.36,-0.31 -74.88,7.3 -123.88,72.03 -29.7,39.24 -65.1,71.73 -97.85,103.96 -54.16,53.31 -3.37,67.22 13.78,129.49 33.06,120.04 -41.15,221.17 -120.15,257.42 -162.61,74.61 -346.65,-74.07 -316.72,-232.6 11.59,-61.39 55.38,-122.06 95,-149.89 133.84,-94.02 174.11,20.99 267.34,-78.85 13.02,-13.95 31.27,-36.18 44.27,-52.93l45.44 -52.36c26.22,-34.11 63.87,-78.28 105.7,-93.18zm2.23 148.95c19.35,-19.82 25.34,-36.75 65.11,-36.6 39.38,0.14 165.62,8.97 194.63,-3.18 48.26,-20.22 43,-107.22 -8.02,-126.64 -24.92,-9.49 -170.44,-5.05 -205.92,-3.71 -69.22,2.61 -98.64,15.5 -140.03,69.28l-49.01 55.14c-10.17,12.64 -12,17.88 -22.82,29.73l-71.15 85.35c-20.34,15.29 -48.15,2.84 -81.47,1.19 -65.14,-3.23 -122.4,16.98 -162.14,47.9 -141.1,109.78 -126.41,312.87 24.17,397.78 145.19,81.87 351.11,-1.65 357.89,-203.25 1.37,-40.8 -10.21,-89.32 -32.72,-121.93l-18.48 -27.81 149.97 -163.24z"/>
   <path class="fil3" d="M7637.46 2087.97c42.69,-140.86 -183.45,-199.99 -218.47,-59.98 -34.04,136.09 118.91,173.59 173.24,127.7 23.51,-19.86 36.05,-37.43 45.23,-67.72z"/>
   <path class="fil3" d="M10412.16 1949.74c-70.27,16.85 -98.2,72.08 -85.26,136.96 10.84,54.37 70.26,98.58 139.22,83.47 128.77,-28.21 93.55,-255.81 -53.96,-220.43z"/>
   <path class="fil3" d="M10407.36 4767.7c-51.55,14.21 -94.97,64.71 -78.66,132.06 15.4,63.59 65.62,95.54 139.34,79.87 126.7,-26.92 96.73,-255.31 -60.67,-211.93z"/>
   <path class="fil3" d="M7507.48 4764.69c-141.8,31.58 -105.82,247.79 56.04,216.64 47.96,-9.23 90.85,-80.04 73.54,-140 -13.5,-46.75 -65.72,-90.86 -129.58,-76.64z"/>
   <path class="fil4" d="M10660.86 2641.67c108.61,-31.91 185.7,33.68 225.21,84.61 54.83,70.68 44.73,173.38 -2.18,246.27 -41.28,64.13 -119.49,107.91 -225.06,83.45 -118.24,-27.4 -84.04,-118.97 -202.58,-117.02 -108.48,1.79 -217.47,0.87 -326.19,2.24 -32.84,0.41 -49.25,0.13 -61.93,-21.35 -10.67,-18.07 -12.75,-46.76 -3.63,-63.93 18.21,-34.29 97.14,-23.73 137.56,-23.75 54.29,-0.02 108.59,-0.29 162.88,0 94.04,0.5 113.1,12.65 133.22,-31.61 37.56,-82.64 69.12,-131.43 162.69,-158.92zm-185.32 174.21c-112.21,1.64 -226.22,-1.25 -338.74,-0.61 -55.16,0.31 -97.52,13.32 -95.37,73.47 2.18,60.78 44.05,69.98 101.78,69.62 112.01,-0.7 224.21,-1.86 335.99,-2.79 36.19,-0.3 32.55,9.03 49.09,30.94 37.78,50.05 95.04,87.54 168.61,92.76 213.08,15.13 319.98,-236.05 185.41,-387.91 -47.05,-53.09 -148.64,-97.04 -249.21,-61.61 -110.57,38.96 -129.64,132.53 -157.56,186.13z"/>
   <path class="fil3" d="M7713.17 4113.54c-37.06,22 -157.2,7.66 -210.58,7.35l-14.94 36.29c-36,99.38 -106.83,169.36 -242.66,156.05 -259.21,-25.4 -273.81,-373.26 -44,-444.45 90.08,-27.91 170.68,-10.08 233.73,54.96 11.2,11.55 34.87,46.02 50.6,53.42 47.15,-0.1 188.83,-6.36 225.54,2.63 68.94,16.88 67.81,123.23 2.32,133.75zm-456.16 -276.8c-177.95,21.07 -296.4,192.88 -210.03,364.12 76.67,151.98 295.89,187.33 419.64,44.53 87.84,-101.36 -29.59,-121.92 201.13,-109.18 62.8,3.46 90.55,-1.78 108.53,-51.02 16.56,-45.33 -2.32,-94 -31.73,-113.58 -39.3,-26.18 -158.75,-12.86 -220.74,-13.41 -40.11,-0.35 -34.43,-2.46 -51.61,-26.45 -37.16,-51.88 -111.51,-107.28 -215.19,-95z"/>
   <path class="fil4" d="M7500.17 2829.13c196.14,23.12 433.72,-41.57 425.44,58.59 -8.03,97.1 -229.57,31.34 -428.23,58.01 -73.83,9.91 -66.31,114.25 -207.21,119.46 -92.4,3.42 -165.62,-33.93 -209.21,-115.89 -51.82,-97.44 -20.39,-180.75 30.97,-244.58 60.47,-75.15 227.9,-118.66 332.01,17.15 23.33,30.43 34.64,80.11 56.24,107.26zm3.31 -11.73c-37.4,-111.24 -89.74,-192.48 -220.74,-199.51 -267.02,-14.32 -336.36,363.88 -88.86,452.31 53.75,19.21 134.39,15.37 182.77,-9.29 57.86,-29.5 66.27,-59.59 105.16,-103.87 83.71,-2.02 173.12,0.05 257.58,-0.03 74.31,-0.07 193.09,21.33 201.7,-61.7 10.21,-98.44 -106.64,-78.46 -182.16,-78.56 -85.3,-0.11 -170.15,-0.03 -255.46,0.66z"/>
   <path class="fil3" d="M10608.22 2869.77c10.66,52.74 61.49,92.12 128.52,81.3 51.82,-8.37 93.83,-65.43 77.55,-132.65 -31.13,-128.51 -233.28,-83.34 -206.07,51.35z"/>
   <path class="fil3" d="M7233.14 2750.88c-129.21,42.85 -59.11,244.52 72.65,200.19 110.78,-37.27 79.92,-250.78 -72.65,-200.19z"/>
   <path class="fil3" d="M7368.99 4120.65c49.16,-137.08 -161.11,-191.18 -200.13,-68.88 -44.75,140.27 155.72,192.72 200.13,68.88z"/>
   <path class="fil3" d="M10607.38 4107.62c28.18,117.9 225.41,113.45 202.02,-45.88 -18.86,-128.48 -235.87,-95.71 -202.02,45.88z"/>
   <path class="fil4" d="M7487.65 4157.17c-26.12,-22.45 6.44,-7.81 -12.49,-4.66 -11.73,1.96 -4.2,-0.66 -18.59,31.58 -57.76,129.35 -223.21,141.2 -312.15,74.67 -128.53,-96.15 -111.62,-277.33 12.17,-348.82 124.24,-71.75 207.77,-36.58 286.99,50.12 37.82,41.39 38.41,35.01 106.88,34.67 64.94,-0.33 213.88,-27.7 190.93,70.57 -13.86,59.36 -161.69,39.67 -226.02,40.88l197.8 7.37c65.49,-10.52 66.62,-116.88 -2.32,-133.75 -36.71,-8.99 -178.39,-2.73 -225.54,-2.63 -15.73,-7.4 -39.4,-41.86 -50.6,-53.42 -63.05,-65.04 -143.65,-82.87 -233.73,-54.96 -229.8,71.19 -215.21,419.05 44,444.45 135.83,13.31 206.66,-56.67 242.66,-156.05z"/>
   <path class="fil3" d="M8441.91 3573.97c2.21,-46.88 62.69,-195.82 79.63,-255.06 13.36,-46.74 25.4,-85.19 41.36,-127.7 12.07,-32.17 18.08,-104.77 43,-118.98 15.57,23.24 161.76,470.17 162.56,500.48 -65.06,10.38 -257.19,7.24 -326.55,1.26zm-32.83 24.96c129.76,-9.73 260.79,0.38 390.47,-2.08l-191.52 -596.51c-21.46,10.24 -22.57,47.98 -28.12,69.76 -6.6,25.96 -13.65,49.26 -21.65,76.26l-149.19 452.57z"/>
   <path class="fil6" d="M10089.25 4113.42l53.93 -6.28c-51.76,0.52 -94.67,-11.75 -85.63,-70.69 14.02,-91.49 240.83,-16.3 423.73,-46.97 53.12,-8.91 74.59,-108.72 202.66,-117.92 198.53,-14.26 304.1,190.21 196.38,347.67 -63.35,92.6 -219.88,120.58 -320.56,19.35 -11.91,-11.97 -24.49,-27.95 -33.9,-44.06 -5.42,-9.28 -8.06,-16.6 -13.56,-26.8 -22.04,-40.89 -8.02,-22.18 -18.06,-11.19 16.49,63.09 76.65,121.75 134.55,143.05 164.68,60.59 323,-65.74 310.68,-231.26 -14.77,-198.52 -274.01,-291 -412.05,-130.3 -37.86,44.08 -29.85,40.32 -103.81,39.62 -95.49,-0.89 -191.32,-0.07 -286.85,-0.14 -52.25,-0.04 -78.79,5.29 -91.69,51.14 -10.95,38.92 10.01,78.48 44.17,84.78z"/>
   <path class="fil5" d="M15970.59 5736.38l-947.41 0 6.52 0 0 -273.63 886.04 0 0 -11.42c-147.29,4.99 -301.59,0.79 -449.54,0.32 -45.83,-0.14 -413.63,-5.09 -432.73,2.75 -11.21,4.6 -6.05,2.74 -11.84,8.01 -7.78,20.8 -4.61,254.77 1.26,280.88 98.19,3.21 918.79,17.05 947.7,-6.91z"/>
   <path class="fil4" d="M7507.48 4764.69c63.87,-14.22 116.08,29.88 129.58,76.64 17.31,59.96 -25.58,130.77 -73.54,140 -161.87,31.16 -197.84,-185.06 -56.04,-216.64zm-104.26 124.73c14.14,138.45 188.42,133.25 228.01,67.01 15.97,-26.72 29.2,-62.04 25.1,-98.89 -18.19,-163.4 -271.08,-144.1 -253.11,31.88z"/>
   <path class="fil4" d="M7637.46 2087.97c-9.18,30.29 -21.72,47.86 -45.23,67.72 -54.33,45.89 -207.28,8.4 -173.24,-127.7 35.02,-140.01 261.16,-80.88 218.47,59.98zm-122.34 -156.33c-162.41,12.62 -153.66,275.8 29.06,257.58 108.74,-10.84 131.17,-123.83 97.52,-191.35 -14.14,-28.36 -37.33,-50.9 -71.34,-61.66 -19.56,-6.19 -35.29,-6.12 -55.24,-4.57z"/>
   <path class="fil4" d="M7233.14 2750.88c152.57,-50.59 183.43,162.92 72.65,200.19 -131.76,44.33 -201.86,-157.35 -72.65,-200.19zm150.42 131.92c50.17,-168.58 -195.36,-214.91 -230.87,-70.47 -38.74,157.55 183.94,228.13 230.87,70.47z"/>
   <path class="fil4" d="M7368.99 4120.65c-44.4,123.84 -244.88,71.39 -200.13,-68.88 39.01,-122.3 249.28,-68.2 200.13,68.88zm-220.81 -19.54c21.27,155.18 254.37,134.35 242.78,-26 -11.92,-164.95 -264.22,-130.45 -242.78,26z"/>
   <path class="fil6" d="M10412.16 1949.74c147.5,-35.38 182.73,192.22 53.96,220.43 -68.95,15.11 -128.38,-29.1 -139.22,-83.47 -12.94,-64.88 14.99,-120.1 85.26,-136.96zm0.8 -13.74c-159.58,28.98 -120.08,278.81 48.77,248.75 65.94,-11.74 110.21,-71.81 94.92,-152.16 -11.36,-59.7 -69.61,-110.05 -143.68,-96.59z"/>
   <path class="fil6" d="M10407.36 4767.7c157.4,-43.38 187.37,185.01 60.67,211.93 -73.71,15.66 -123.93,-16.28 -139.34,-79.87 -16.31,-67.34 27.11,-117.85 78.66,-132.06zm0.89 -12.27c-153.73,44.46 -116.63,267.7 59.78,237.23 146.5,-25.31 110.69,-286.53 -59.78,-237.23z"/>
   <path class="fil6" d="M10607.38 4107.62c-33.85,-141.6 183.17,-174.37 202.02,-45.88 23.38,159.34 -173.84,163.78 -202.02,45.88zm64.42 -131.3c-33.63,11.65 -50.75,22.91 -67.28,52.28 -49.38,87.77 37.27,194.34 144.06,170.42 126.97,-28.43 89.03,-280.12 -76.78,-222.71z"/>
   <path class="fil6" d="M10608.22 2869.77c-27.21,-134.69 174.94,-179.86 206.07,-51.35 16.28,67.22 -25.73,124.28 -77.55,132.65 -67.03,10.82 -117.86,-28.56 -128.52,-81.3zm86.49 -136.45c-61.35,15.51 -114.78,55.32 -99.86,134.99 11.97,63.91 67.62,102.88 141.74,93.76 137.74,-16.94 111.88,-267.61 -41.88,-228.75z"/>
  </g>
 </g>
</svg>
