<?xml version="1.0" encoding="UTF-8"?>
<!DOCTYPE svg PUBLIC "-//W3C//DTD SVG 1.1//EN" "http://www.w3.org/Graphics/SVG/1.1/DTD/svg11.dtd">
<!-- Creator: CorelDRAW -->
<svg xmlns="http://www.w3.org/2000/svg" xml:space="preserve" width="1.53498in" height="1.5347in" version="1.1" style="shape-rendering:geometricPrecision; text-rendering:geometricPrecision; image-rendering:optimizeQuality; fill-rule:evenodd; clip-rule:evenodd"
viewBox="0 0 558.9 558.8"
 xmlns:xlink="http://www.w3.org/1999/xlink"
 xmlns:xodm="http://www.corel.com/coreldraw/odm/2003">
 <defs>
  <style type="text/css">
   <![CDATA[
    .fil5 {fill:#017CF6}
    .fil1 {fill:#017EF9}
    .fil0 {fill:#01B1F9}
    .fil4 {fill:#01B1FA}
    .fil2 {fill:#038BFB}
    .fil3 {fill:#0493F5}
    .fil6 {fill:#0593F5}
   ]]>
  </style>
 </defs>
 <g id="Layer_x0020_1">
  <metadata id="CorelCorpID_0Corel-Layer"/>
  <g id="_2866623822192">
   <path class="fil0" d="M81.94 552.54c48.51,-3.76 114.1,0.04 166.81,-2.04 51.72,-2.04 109.85,-4.86 161.12,-3.92l-85.41 -3.47c-3.04,-6.36 -2.8,6.18 3.65,-2.68 10.32,-14.16 4.91,9.65 1.67,-3.83l-58.52 -18.01 19.54 -11.59c-40.25,-6.24 -165.62,7.52 -193.68,-11.47 -49.41,-7.7 -42.66,-80.98 -39.6,-120.44 121.61,-9.44 83.24,18.5 172.26,-70.37 12.1,-12.08 33.72,-27.64 34.34,-41.7 5.61,-21.11 0.59,-17.14 12.66,-22.88l-17.97 -11.95c-19.9,17 -13.94,17.11 -40.41,29.75 -15.57,3.13 -40.39,42.39 -57.55,53.68 -27.83,18.3 -70.17,12.06 -104.2,12.06 0,-36.48 -4.9,-204.52 5.26,-232.31 12.44,-34.02 27.12,-21.61 40.27,-35.59 26.08,-17.62 91.75,-7.74 125.33,-11.43 -30.16,-12.82 -6.5,6.54 -29.61,-18.63 -23.15,-25.21 -61.09,-16.29 -115.98,-17.78 -43.48,-6.23 -77.98,57.46 -80.8,93.41l0 353.67c3.31,42.12 34.41,91.49 80.8,97.53z"/>
   <path class="fil1" d="M429.53 287.66c-9.51,8.39 -73.68,65.35 -77.83,66.73 -19.69,6.57 -81.31,-16.44 -87.57,50.76 -6.69,71.76 93.89,81.93 112.8,16.06 14.88,-51.84 -39.24,5.15 55.24,-80.92 57.77,-52.62 59.35,3.75 101.27,-35.2 82.2,-76.37 -57.3,-164.07 -99.46,-79.21 -15.99,32.2 -3.95,35.5 -4.45,61.78z"/>
   <path class="fil2" d="M102.2 55.77c79.18,0 158.35,0.02 237.53,0 124.7,-0.03 119.7,8.26 127.24,105.28l49.68 0.94c0,-106.92 -0.06,-162.15 -136.47,-161.83l-282.83 0.38c-14.75,3.26 -6.32,-1.54 -15.4,7.39 54.89,1.48 92.83,-7.43 115.98,17.78 23.11,25.17 -0.55,5.81 29.61,18.63 -33.57,3.69 -99.25,-6.19 -125.33,11.43z"/>
   <path class="fil3" d="M97.13 495.53c28.06,18.99 153.43,5.23 193.68,11.47l-19.54 11.59 58.52 18.01c3.23,13.48 8.65,-10.33 -1.67,3.83 -6.46,8.86 -6.69,-3.68 -3.65,2.68l85.41 3.47c-51.27,-0.94 -109.4,1.89 -161.12,3.92 -52.71,2.08 -118.3,-1.72 -166.81,2.04 25.3,11.68 259.03,3.36 308.41,3.71 143.8,1.01 126.3,-104.11 126.3,-192.15 -23.29,-0.49 -23.17,-6.3 -49.68,-4.19 -12.7,163.55 33.29,138.76 -304.21,140.73 -28.24,0.17 -41.17,-3.59 -65.63,-5.12z"/>
   <path class="fil1" d="M218.42 257.93c26.47,-12.64 20.51,-12.74 40.41,-29.75l17.97 11.95c-12.07,5.74 -7.05,1.77 -12.66,22.88 12.94,-5.29 16.55,-10.45 22.81,-12.17 12.63,-3.46 43,8.6 69.19,-21.98 61.93,-72.32 -68,-146.04 -103.51,-63 -15.45,36.14 16.28,36.78 -16.19,69.06 -11.27,11.2 -10.25,9.6 -18.02,23z"/>
  </g>
  <g id="_2866623823824">
   <path class="fil4" d="M82.41 556.18l242.15 -12.89c-5.47,-7.67 -5.64,9.84 2.64,-1.65 7.34,-10.19 6.57,5.65 2.42,-6.2 -13.74,-1.98 -14.65,-4.44 -27.11,-8.58 -11.61,-3.85 -20.41,-5.39 -28.49,-8.59 2.67,-11.34 15.33,7.37 5.05,-13.11 -35.1,0.83 -158.41,7.04 -181.94,-9.66 -52.31,-7.48 -40.46,-86.17 -40.46,-121.31 28.78,0 61.6,2.98 88.34,-2.64 20.77,-4.37 46.79,-16.49 49.94,-37.8 8.5,-19.06 15.02,-19.03 14.35,-47.14l-21.21 6.67c-18.68,0.46 -13.9,18.48 -48.32,27.52 -24.24,6.37 -56.4,2.83 -83.1,2.83 0,-45.49 0,-90.99 0,-136.48 -0,-54.94 -7,-89.01 20.22,-119.33 -9.79,-9.33 -2.36,-19.01 -3.26,-26.29 -0.1,-0.82 -0.24,-2.36 -0.44,-3.17 -0.21,-0.82 -0.6,-2.27 -0.93,-3.07l-20.61 -20c-12.7,16.41 -51.26,24.19 -50.7,111.08 0.33,51.29 -3.41,315.47 2.08,341.89 15.03,72.39 72.94,81.42 79.39,87.88z"/>
   <path class="fil5" d="M425.66 257.96c0,19.04 3.33,9.56 5.05,30.33 -18.14,12.15 -23.25,15.29 -39.21,31.55 -9.05,9.22 -28.85,30.9 -39.79,34.55 -15,5.01 -35.96,-6.42 -57.7,4.41 -41.05,20.45 -46.9,106.4 30.55,106.4 26.57,0 55.6,-33.61 55.6,-55.6 0,-29.18 -27.32,4.7 49.36,-66.9 4.77,-4.45 6.36,-5.62 10.8,-9.54 29.31,-25.87 16.82,-16.64 41.02,-14.98 19.83,1.36 27.42,2.12 40.52,-4.43 54.71,-27.33 46.34,-121.5 -30.5,-121.5 -39.31,0 -65.71,27.67 -65.71,65.71z"/>
   <path class="fil6" d="M97.13 495.53c23.54,16.7 146.84,10.49 181.94,9.66 10.27,20.47 -2.39,1.77 -5.05,13.11 8.08,3.2 16.88,4.73 28.49,8.59 12.46,4.13 13.37,6.6 27.11,8.58 4.15,11.85 4.91,-3.99 -2.42,6.2 -8.28,11.49 -8.11,-6.03 -2.64,1.65l-242.15 12.89c104.3,0 208.76,-0.56 313.04,0.13 140.41,0.93 121.19,-110.88 121.19,-192.2 -22.27,-0.5 -23.63,-5.05 -50.55,-5.05 0,169.63 5.83,139.79 -303.34,141.6 -30.79,0.18 -41.22,-3.69 -65.63,-5.12z"/>
   <path class="fil5" d="M110.62 55.77c76.37,0 152.74,0.02 229.11,0 104.55,-0.03 126.37,-1.09 126.37,106.15l50.55 0c0,-81.11 2.82,-161.75 -116.23,-161.75 -6.25,10.04 -91.85,5.92 -117.87,7.14l31.91 1.35c4.32,6.29 2.69,1.11 5.77,11.71 0.1,0.36 0.65,12.11 0.69,13.61 44.31,0.67 5.63,12.45 90.81,9.75l-301.1 12.04z"/>
   <path class="fil6" d="M51.64 15.33l20.61 20c0.33,0.8 0.73,2.25 0.93,3.07 0.2,0.81 0.34,2.34 0.44,3.17 0.9,7.28 -6.54,16.96 3.26,26.29 14.09,-5.93 20.6,-7.55 33.74,-12.09l301.1 -12.04c-85.19,2.7 -46.5,-9.08 -90.81,-9.75 -0.04,-1.51 -0.58,-13.26 -0.69,-13.61 -3.08,-10.6 -1.44,-5.42 -5.77,-11.71l-31.91 -1.35c26.01,-1.22 111.62,2.9 117.87,-7.14 -58.98,0 -117.96,0 -176.94,0 -30.33,0 -60.69,0.14 -91.02,-0.03 -44.55,-0.26 -47.53,-1.6 -80.82,15.2z"/>
   <path class="fil5" d="M258.83 212.46l0.01 -11.17c13.35,17.9 3.38,9.48 8.59,22.12l10.02 11.73c12.16,9.12 3.01,6.32 21.69,9.62 7.72,1.36 20.92,1.62 30.47,3.06 64.2,-32.21 42.32,-95.31 10.34,-111.42 -47.68,-24.02 -97.72,18.31 -91.97,55.65 4.44,28.84 -4.02,10.56 10.84,20.41z"/>
   <path class="fil6" d="M258.83 212.46c-21.83,19.49 -60.47,55.63 -70.74,80.85l21.21 -6.67c0.67,28.11 -5.85,28.08 -14.35,47.14 16.94,-8.01 19.22,-13.11 32.36,-26.53 11.18,-11.41 19.02,-18.95 30.28,-30.35 39.64,-40.12 17.12,-21 72.04,-29.08 -9.55,-1.44 -22.75,-1.7 -30.47,-3.06 -18.68,-3.3 -9.54,-0.5 -21.69,-9.62l-10.02 -11.73c-5.2,-12.64 4.76,-4.22 -8.59,-22.12l-0.01 11.17z"/>
  </g>
 </g>
</svg>
