<?xml version="1.0" encoding="UTF-8"?>
<!DOCTYPE svg PUBLIC "-//W3C//DTD SVG 1.1//EN" "http://www.w3.org/Graphics/SVG/1.1/DTD/svg11.dtd">
<!-- Creator: CorelDRAW -->
<svg xmlns="http://www.w3.org/2000/svg" xml:space="preserve" width="426px" height="459px" version="1.1" shape-rendering="geometricPrecision" text-rendering="geometricPrecision" image-rendering="optimizeQuality" fill-rule="evenodd" clip-rule="evenodd"
viewBox="0 0 143.94 155.26"
 xmlns:xlink="http://www.w3.org/1999/xlink"
 xmlns:xodm="http://www.corel.com/coreldraw/odm/2003">
 <g id="Layer_x0020_1">
  <metadata id="CorelCorpID_0Corel-Layer"/>
  <g id="_2614799011424">
   <path fill="none" stroke="#017CF6" stroke-width="11.26" stroke-miterlimit="2.61313" d="M20.08 94.24c3.07,-0.11 14.71,-0.63 20.17,-1.51 13.43,-2.18 20.32,-12.17 28.45,-22.13 1.36,-1.65 4.15,-5.2 5.9,-7.05"/>
   <path fill="none" stroke="#017CF6" stroke-width="22.53" stroke-miterlimit="2.61313" d="M131.47 97.16l0 25.73c0,11.61 -9.5,21.11 -21.11,21.11l-77.99 0c-11.61,0 -21.11,-9.5 -21.11,-21.11l0 -90.52c0,-11.61 9.5,-21.11 21.11,-21.11l77.99 0c11.61,0 21.11,9.5 21.11,21.11l0 16.18"/>
   <line fill="none" stroke="#017CF6" stroke-width="11.26" stroke-miterlimit="2.61313" x1="96.09" y1="100.52" x2="118.15" y2= "80.74" />
   <path fill="#017CF6" stroke="#017CF6" stroke-width="0.7" stroke-miterlimit="2.61313" d="M86.11 94.35c7.86,0 14.23,6.19 14.23,13.82 0,7.62 -6.37,13.81 -14.23,13.81 -7.86,0 -14.23,-6.19 -14.23,-13.81 0,-7.63 6.37,-13.82 14.23,-13.82z"/>
   <path fill="#017CF6" stroke="#017CF6" stroke-width="0.7" stroke-miterlimit="2.61313" d="M83.2 39.04c8.49,0 15.38,6.68 15.38,14.93 0,8.24 -6.89,14.92 -15.38,14.92 -8.49,0 -15.38,-6.68 -15.38,-14.92 0,-8.25 6.89,-14.93 15.38,-14.93z"/>
   <path fill="#017CF6" stroke="#017CF6" stroke-width="0.7" stroke-miterlimit="2.61313" d="M127.5 55.71c8.89,0 16.09,7 16.09,15.62 0,8.62 -7.2,15.62 -16.09,15.62 -8.88,0 -16.08,-7 -16.08,-15.62 0,-8.62 7.2,-15.62 16.08,-15.62z"/>
   <path fill="#017CF6" d="M97.2 99.52c-2.6,-3.15 -6.6,-5.17 -11.09,-5.17 -7.86,0 -14.23,6.19 -14.23,13.82 0,7.62 6.37,13.81 14.23,13.81 7.86,0 14.23,-6.19 14.23,-13.81 0,-3.28 -1.17,-6.29 -3.14,-8.65z"/>
  </g>
 </g>
</svg>
