<?xml version="1.0" encoding="UTF-8"?>
<!DOCTYPE svg PUBLIC "-//W3C//DTD SVG 1.1//EN" "http://www.w3.org/Graphics/SVG/1.1/DTD/svg11.dtd">
<!-- Creator: CorelDRAW -->
<svg xmlns="http://www.w3.org/2000/svg" xml:space="preserve" width="460px" height="460px" version="1.1" shape-rendering="geometricPrecision" text-rendering="geometricPrecision" image-rendering="optimizeQuality" fill-rule="evenodd" clip-rule="evenodd"
viewBox="0 0 167.49 167.46"
 xmlns:xlink="http://www.w3.org/1999/xlink"
 xmlns:xodm="http://www.corel.com/coreldraw/odm/2003">
 <g id="Layer_x0020_1">
  <metadata id="CorelCorpID_0Corel-Layer"/>
  <g id="_2087189917904">
   <path fill="#01B1F9" d="M24.55 165.58c14.54,-1.12 34.2,0.02 49.99,-0.61 15.5,-0.61 32.92,-1.45 48.29,-1.17l-25.6 -1.04c-0.91,-1.91 -0.84,1.85 1.1,-0.81 3.09,-4.24 1.47,2.9 0.5,-1.14l-17.54 -5.4 5.86 -3.48c-12.06,-1.86 -49.64,2.26 -58.04,-3.43 -14.81,-2.31 -12.79,-24.27 -11.87,-36.1 36.45,-2.83 24.95,5.55 51.62,-21.08 3.63,-3.62 10.11,-8.29 10.29,-12.5 1.69,-6.33 0.18,-5.14 3.8,-6.86l-5.39 -3.58c-5.96,5.1 -4.17,5.13 -12.11,8.92 -4.66,0.93 -12.1,12.7 -17.24,16.08 -8.34,5.49 -21.03,3.62 -31.23,3.62 0,-10.94 -1.47,-61.29 1.58,-69.62 3.72,-10.2 8.12,-6.48 12.07,-10.67 7.81,-5.28 27.49,-2.32 37.55,-3.42 -9.03,-3.84 -1.94,1.96 -8.87,-5.59 -6.94,-7.55 -18.31,-4.88 -34.76,-5.32 -13.02,-1.87 -23.36,17.22 -24.21,27.99l0 105.99c0.99,12.62 10.31,27.41 24.21,29.22z"/>
   <path fill="#017EF9" d="M128.72 86.2c-2.85,2.52 -22.08,19.59 -23.32,20 -5.9,1.97 -24.37,-4.92 -26.24,15.21 -2.01,21.51 28.13,24.56 33.8,4.81 4.46,-15.53 -11.76,1.55 16.55,-24.25 17.31,-15.77 17.79,1.13 30.35,-10.54 24.64,-22.89 -17.17,-49.17 -29.8,-23.74 -4.8,9.65 -1.19,10.64 -1.34,18.51z"/>
   <path fill="#038BFB" d="M30.63 16.71c23.72,0 47.45,0.01 71.18,0 37.37,-0.01 35.87,2.48 38.13,31.55l14.89 0.28c0,-32.04 -0.02,-48.59 -40.9,-48.49l-84.76 0.11c-4.42,0.98 -1.89,-0.46 -4.62,2.22 16.45,0.44 27.82,-2.23 34.76,5.32 6.93,7.55 -0.16,1.75 8.87,5.59 -10.06,1.1 -29.74,-1.86 -37.55,3.42z"/>
   <path fill="#0493F5" d="M29.11 148.5c8.4,5.69 45.98,1.57 58.04,3.43l-5.86 3.48 17.54 5.4c0.97,4.04 2.59,-3.1 -0.5,1.14 -1.94,2.66 -2.01,-1.1 -1.1,0.81l25.6 1.04c-15.37,-0.28 -32.79,0.56 -48.29,1.17 -15.79,0.63 -35.45,-0.51 -49.99,0.61 7.59,3.5 77.63,1.01 92.43,1.12 43.09,0.3 37.85,-31.2 37.85,-57.59 -6.98,-0.14 -6.95,-1.88 -14.89,-1.25 -3.81,49.01 9.97,41.58 -91.17,42.17 -8.46,0.05 -12.33,-1.07 -19.66,-1.53z"/>
   <path fill="#017EF9" d="M65.45 77.3c7.94,-3.79 6.15,-3.82 12.11,-8.92l5.39 3.58c-3.62,1.72 -2.11,0.53 -3.8,6.86 3.88,-1.59 4.96,-3.13 6.84,-3.65 3.78,-1.04 12.89,2.58 20.73,-6.58 18.56,-21.68 -20.38,-43.77 -31.01,-18.88 -4.63,10.83 4.87,11.02 -4.86,20.69 -3.37,3.36 -3.07,2.88 -5.4,6.9z"/>
  </g>
  <g id="_2087189919728">
   <path fill="#01B1FA" d="M24.7 166.68l72.56 -3.87c-1.64,-2.3 -1.69,2.95 0.79,-0.49 2.2,-3.05 1.97,1.69 0.73,-1.86 -4.12,-0.59 -4.39,-1.33 -8.13,-2.57 -3.48,-1.15 -6.11,-1.61 -8.53,-2.57 0.8,-3.4 4.59,2.21 1.51,-3.93 -10.52,0.25 -47.47,2.11 -54.52,-2.89 -15.68,-2.24 -12.13,-25.83 -12.13,-36.36 8.63,0 18.46,0.9 26.48,-0.79 6.22,-1.31 14.02,-4.94 14.96,-11.32 2.55,-5.72 4.5,-5.71 4.3,-14.13l-6.35 2c-5.6,0.14 -4.17,5.54 -14.48,8.25 -7.27,1.91 -16.91,0.85 -24.91,0.85 0,-13.64 0,-27.27 0,-40.9 0,-16.47 -2.1,-26.68 6.06,-35.76 -2.93,-2.8 -0.71,-5.7 -0.98,-7.88 -0.03,-0.25 -0.07,-0.71 -0.13,-0.95 -0.06,-0.25 -0.18,-0.68 -0.28,-0.92l-6.18 -6c-3.8,4.92 -15.36,7.25 -15.19,33.29 0.1,15.37 -1.02,94.54 0.62,102.46 4.51,21.69 21.86,24.4 23.8,26.34z"/>
   <path fill="#017CF6" d="M127.56 77.3c0,5.71 1,2.87 1.51,9.09 -5.43,3.64 -6.96,4.58 -11.75,9.46 -2.71,2.76 -8.64,9.26 -11.92,10.35 -4.5,1.5 -10.78,-1.92 -17.29,1.32 -12.3,6.13 -14.06,31.89 9.15,31.89 7.97,0 16.67,-10.07 16.67,-16.66 0,-8.75 -8.19,1.41 14.79,-20.05 1.43,-1.34 1.91,-1.69 3.24,-2.86 8.78,-7.75 5.04,-4.99 12.29,-4.49 5.94,0.41 8.22,0.63 12.14,-1.33 16.4,-8.19 13.89,-36.41 -9.14,-36.41 -11.78,0 -19.69,8.29 -19.69,19.69z"/>
   <path fill="#0593F5" d="M29.11 148.5c7.05,5 44,3.14 54.52,2.89 3.08,6.14 -0.71,0.53 -1.51,3.93 2.42,0.96 5.05,1.42 8.53,2.57 3.74,1.24 4.01,1.98 8.13,2.57 1.24,3.55 1.47,-1.19 -0.73,1.86 -2.48,3.44 -2.43,-1.81 -0.79,0.49l-72.56 3.87c31.25,0 62.56,-0.17 93.81,0.03 42.08,0.28 36.32,-33.22 36.32,-57.6 -6.68,-0.14 -7.09,-1.51 -15.15,-1.51 0,50.83 1.74,41.89 -90.91,42.43 -9.22,0.06 -12.35,-1.1 -19.66,-1.53z"/>
   <path fill="#017CF6" d="M33.15 16.71c22.89,0 45.77,0.01 68.66,0 31.33,-0.01 37.87,-0.32 37.87,31.81l15.15 0c0,-24.3 0.84,-48.47 -34.84,-48.47 -1.87,3.01 -27.52,1.77 -35.32,2.14l9.56 0.4c1.3,1.89 0.81,0.34 1.73,3.51 0.03,0.11 0.2,3.63 0.21,4.08 13.28,0.2 1.69,3.73 27.21,2.92l-90.23 3.61z"/>
   <path fill="#0593F5" d="M15.47 4.59l6.18 6c0.1,0.24 0.22,0.67 0.28,0.92 0.06,0.24 0.1,0.7 0.13,0.95 0.27,2.18 -1.95,5.08 0.98,7.88 4.22,-1.78 6.17,-2.27 10.11,-3.63l90.23 -3.61c-25.52,0.81 -13.93,-2.72 -27.21,-2.92 -0.01,-0.45 -0.18,-3.97 -0.21,-4.08 -0.92,-3.17 -0.43,-1.62 -1.73,-3.51l-9.56 -0.4c7.8,-0.37 33.45,0.87 35.32,-2.14 -17.67,0 -35.35,0 -53.02,0 -9.09,0 -18.19,0.04 -27.28,-0.01 -13.35,-0.08 -14.24,-0.48 -24.22,4.55z"/>
   <path fill="#017CF6" d="M77.56 63.67l0.01 -3.35c4,5.37 1.01,2.84 2.57,6.63l3.01 3.52c3.64,2.73 0.9,1.89 6.5,2.88 2.31,0.41 6.27,0.49 9.13,0.92 19.24,-9.65 12.68,-28.57 3.1,-33.39 -14.29,-7.2 -29.29,5.48 -27.56,16.68 1.33,8.64 -1.21,3.16 3.24,6.11z"/>
   <path fill="#0593F5" d="M77.56 63.67c-6.54,5.84 -18.12,16.67 -21.19,24.23l6.35 -2c0.2,8.42 -1.75,8.41 -4.3,14.13 5.08,-2.4 5.76,-3.93 9.7,-7.95 3.35,-3.42 5.7,-5.68 9.07,-9.1 11.88,-12.02 5.13,-6.29 21.59,-8.71 -2.86,-0.43 -6.82,-0.51 -9.13,-0.92 -5.6,-0.99 -2.86,-0.15 -6.5,-2.88l-3.01 -3.52c-1.56,-3.79 1.43,-1.26 -2.57,-6.63l-0.01 3.35z"/>
  </g>
 </g>
</svg>
