<?xml version="1.0" encoding="UTF-8"?>
<!DOCTYPE svg PUBLIC "-//W3C//DTD SVG 1.1//EN" "http://www.w3.org/Graphics/SVG/1.1/DTD/svg11.dtd">
<!-- Creator: CorelDRAW -->
<svg xmlns="http://www.w3.org/2000/svg" xml:space="preserve" width="2044px" height="2017px" version="1.1" shape-rendering="geometricPrecision" text-rendering="geometricPrecision" image-rendering="optimizeQuality" fill-rule="evenodd" clip-rule="evenodd"
viewBox="0 0 1981.74 1955.47"
 xmlns:xlink="http://www.w3.org/1999/xlink"
 xmlns:xodm="http://www.corel.com/coreldraw/odm/2003">
 <g id="Layer_x0020_1">
  <metadata id="CorelCorpID_0Corel-Layer"/>
  <g id="_2578592661552">
   <path fill="#4E75F3" d="M700.23 280.1c1.94,6.18 14.85,13.59 20.84,18.32l16.2 13.25c1.86,1.44 3.09,2.39 5.53,4.36l44.21 35.6c2.01,12.38 -1.96,40.37 -2.6,53.92 -0.83,17.86 -2.96,37.34 -2.46,54.44 8.7,0.29 59.5,-18.22 72.49,-22.04 10.82,-3.18 27.14,-6.43 38.25,-8.09 75.97,-11.37 141.64,-17.49 219.18,-1.04 63.8,13.54 60.2,15.7 111.24,31.26 9.54,2.9 18.73,-8.4 29.28,-17.08 16.81,-13.82 35.08,-28.08 52.6,-42.19 13.11,-10.56 6.58,-15.78 5.55,-37.47l-4.25 -68.63c-0.4,-18.92 -0.46,-15.6 -40.78,-29.98 -98.42,-35.08 -204.78,-50.46 -310.21,-41.67 -8.42,0.7 -17.54,0.68 -23.41,1.06 -47.34,3.08 -114.73,16.54 -161.16,30.56 -19.65,5.94 -54.6,16.87 -70.5,25.42z"/>
   <path fill="#4E75F3" d="M1330.71 400.12l-83.59 68.23c4.33,6.09 39.78,21.61 47.06,25.83 80.8,46.76 140.18,101.75 192.16,177.06 10.92,15.83 19.4,28.45 28.39,44.37 6.35,11.22 20.3,41.66 26.07,48.25 18.66,0.9 33.32,2.92 50.6,4.68 13.39,1.37 41.89,5.14 53.94,3.22 0.89,-3.81 4.49,-5.94 8.05,-9.41l44.67 -50.18c6.33,-7.03 13.72,-13.46 19.1,-20.61 11.22,-31.83 -125.15,-209.84 -156.79,-240.36l-51.47 -47.74c-17.59,-15.59 -37.01,-29.23 -56.06,-43.15 -18.65,-13.64 -39.46,-26.55 -60.76,-38.27 -13.29,-7.31 -56.73,-30.79 -69.7,-32.4l8.33 110.48z"/>
   <path fill="#4E75F3" d="M1649.73 792.26l-51.05 -6.05c-15.96,-1.46 -33.97,-3.75 -50.33,-5.63 -0.63,6.16 11.14,37.75 13.54,47.03 29.65,114.55 27.06,237.01 -17.95,347.41 -12.63,30.96 -11.34,18.86 7.84,44.88l49.8 60.64 104.78 0.4 15.58 -31.5c0.4,-0.8 1.18,-2.87 1.6,-3.88 1.1,-2.61 2.26,-5.24 3.56,-8.18 61.63,-139.99 64.05,-319.98 21.97,-465.85l-16.67 -48.97c-4.74,-11.23 -2.31,-10.85 -8.27,-12.82 -3.88,3.64 -5.8,6.56 -8.73,9.55 -15.84,16.18 -57.09,65.78 -65.67,72.97z"/>
   <path fill="#4E75F3" d="M1123.05 1715.56c32.72,1.8 160.01,-37.15 195.8,-53.54 81.48,-37.3 142.74,-77.12 207.56,-133.78 15.16,-13.25 34.75,-31.23 46.92,-46.46 4.75,-5.95 10.03,-10.1 14.87,-15.93 22.57,-27.23 48.1,-56.49 66.52,-88.08 6.18,-10.6 42.7,-70.75 42.75,-80.32l-106.54 -0.12c-8.01,-12.44 -61.33,-74.05 -62.3,-80.21 -5.32,1.52 -2.27,-2.53 -8.47,8.71 -10.34,18.73 -32.15,51.86 -44.06,68.15 -9.95,13.61 -18.51,23.96 -28.37,35.9 -16.95,20.51 -19.26,18.86 -31.58,32.67 -10.9,12.23 -20.75,20.1 -33.77,30.43 -54.2,42.97 -98.18,69.01 -161.49,93.8 -28.74,11.25 -69.15,22.44 -99.79,28.41 -8.28,1.61 -20.22,1.69 -23.76,8.36l-26.11 68.89c-10.78,27.5 -10.87,23.39 3.01,45.22 4.65,7.31 44.39,73.9 48.81,77.9z"/>
   <path fill="#4E75F3" d="M511.97 1383.31c-10.05,2.65 -21.89,2.21 -25.7,10.74l-28.43 81.3c-4.42,13.97 -8.06,16.26 2.07,25.25l18.99 17.48c58,49.83 80.04,68.76 146.37,107.43 62.82,36.61 131.03,62.36 210.42,80.04 89.58,19.94 174.44,21.4 267.05,14.36 -1.6,-8.04 -57.54,-92.9 -58.77,-97.54 -1,-3.76 30.3,-85.46 34.66,-100.7 -13.5,-0.32 -25.56,2.08 -39.41,2.44 -13.55,0.37 -26.64,0.43 -40.18,0.31l-70.2 -5.43c-54.6,-10.97 -76,-12.99 -130.54,-34.52 -56.62,-22.34 -108.21,-49.9 -154.46,-87.55l-44.55 -36.74 -87.32 23.13z"/>
   <path fill="#794DF1" d="M250.4 835.49c-25.04,133.31 -14.66,255.9 30.28,384.62 25.42,72.79 61.96,136.45 106.85,198.29 3.43,4.73 5.48,7.77 9.4,12.47 6.49,7.79 12.94,16.39 19.57,24.14 7.03,8.23 15.55,20.18 23.29,22.47l36.53 -104.39c18.65,-7.21 87.35,-16.77 111.08,-25.08 -2.57,-6.08 -13.02,-16.66 -17.8,-21.31 -8.25,-8.03 -12.2,-13.08 -19.3,-21.57 -34.24,-40.92 -71.32,-104.11 -86.95,-156.54 -18.96,-63.55 -19.31,-67.37 -28.31,-133.92 -3.44,-25.45 -1.96,-90.37 2.45,-118.72 7.18,-46.05 8.47,-33.8 -16.51,-49.44l-64.29 -37.75c-8.37,-3.92 -41.45,8.35 -53.12,11.33 -14.46,3.7 -41.64,10.26 -53.17,15.4z"/>
   <path fill="#794FEA" d="M769.3 376.03c3.19,-20.15 -2.44,-18.91 -27.88,-39.73l-47.94 -38c-4.4,-3.49 -6.4,-5.65 -9.57,-7.79 -14.66,3.14 -62.33,31.14 -77.74,40.34 -26.13,15.61 -48.45,30.51 -71.35,48.2 -5.12,3.96 -11.77,8.59 -16.5,12.7l-84.65 80.19c-41.86,51.86 -56.14,63.43 -95.01,129.73 -31.24,53.27 -54.95,108.58 -72.34,167.06 -1.11,3.71 -2.13,7.84 -3.09,11.05 -2.53,8.52 -9.04,29.06 -9.41,35.48 18.69,0.01 57.86,-15.19 79.89,-19.88 8.04,-1.72 19.3,-8.94 27.56,-4.32l63.9 38.11c5.66,3.65 15.4,12.71 22.39,12.44 19.89,-55.87 18.55,-65.16 49.49,-121.11 19.33,-34.94 29.36,-48.57 50.85,-77.39 39.43,-52.88 103.86,-110.23 159.57,-142.4l48.58 -25.91c10.96,-5.08 6.37,-3.07 9.98,-34.47l3.27 -64.3z"/>
   <path fill="#FEFEFE" fill-rule="nonzero" d="M539.56 1501.68l40.7 -50.66 15.37 12.34 -18.68 41.85 36.73 -27.35 15.4 12.38 -40.7 50.66 -9.48 -7.62 32.01 -39.91 -42.03 31.86 -9.86 -7.92 22.1 -47.87 -32.08 39.86 -9.48 -7.62zm75.67 17.3c3.62,-5.56 7.5,-9.68 11.62,-12.37 3.03,-1.98 6.36,-3.36 9.94,-4.17 3.58,-0.81 6.99,-0.92 10.24,-0.34 4.33,0.78 8.71,2.61 13.15,5.5 8.04,5.24 12.82,11.91 14.41,20.04 1.56,8.13 -0.55,16.63 -6.34,25.52 -5.74,8.81 -12.63,14.14 -20.64,16 -8.03,1.86 -16.05,0.18 -24.04,-5.03 -8.1,-5.28 -12.94,-11.95 -14.49,-20.02 -1.56,-8.06 0.49,-16.44 6.15,-25.13zm11.57 7.01c-4.02,6.17 -5.63,11.78 -4.86,16.83 0.78,5.04 3.36,9 7.75,11.86 4.39,2.87 9.02,3.63 13.91,2.31 4.88,-1.33 9.37,-5.16 13.49,-11.48 4.07,-6.25 5.74,-11.81 4.99,-16.66 -0.73,-4.87 -3.37,-8.77 -7.92,-11.74 -4.53,-2.95 -9.21,-3.78 -14.01,-2.48 -4.81,1.31 -9.26,5.09 -13.35,11.36zm33.33 58.29l30.24 -57.52 11.28 5.93 3.41 50.99 20.26 -38.55 10.77 5.66 -30.24 57.52 -11.64 -6.11 -3.43 -50.07 -19.88 37.81 -10.77 -5.66zm58.31 28.91l24.12 -60.34 12.22 4.89 -24.12 60.34 -12.22 -4.89zm37.43 14.88l17.5 -51.09 -18.2 -6.23 3.56 -10.39 48.77 16.7 -3.56 10.39 -18.12 -6.2 -17.5 51.09 -12.45 -4.27zm43.7 -19.03c1.89,-6.35 4.44,-11.4 7.63,-15.15 2.35,-2.76 5.14,-5.03 8.34,-6.83 3.21,-1.79 6.45,-2.86 9.73,-3.22 4.37,-0.48 9.1,0.03 14.17,1.54 9.19,2.74 15.68,7.78 19.5,15.12 3.81,7.36 4.2,16.11 1.17,26.27 -3,10.08 -8.09,17.14 -15.25,21.2 -7.17,4.07 -15.33,4.73 -24.48,2 -9.26,-2.76 -15.8,-7.79 -19.58,-15.08 -3.78,-7.29 -4.19,-15.9 -1.23,-25.85zm13.09 3.45c-2.11,7.06 -2.06,12.89 0.11,17.52 2.18,4.61 5.78,7.67 10.79,9.17 5.03,1.5 9.69,0.91 14,-1.73 4.3,-2.67 7.52,-7.61 9.68,-14.85 2.13,-7.14 2.15,-12.95 0.06,-17.39 -2.09,-4.46 -5.72,-7.45 -10.93,-9 -5.19,-1.55 -9.91,-1.02 -14.14,1.59 -4.24,2.62 -7.43,7.51 -9.57,14.69zm48.59 46.07l11.83 -63.9 27.18 5.03c6.82,1.27 11.68,2.77 14.57,4.49 2.89,1.72 4.98,4.21 6.3,7.49 1.32,3.29 1.63,6.81 0.93,10.59 -0.89,4.8 -3.02,8.5 -6.41,11.1 -3.39,2.6 -7.94,3.79 -13.69,3.57 2.48,2.14 4.44,4.35 5.88,6.63 1.46,2.28 3.25,6.2 5.4,11.74l5.48 13.91 -15.42 -2.86 -6.67 -15.67c-2.4,-5.56 -4.1,-9.11 -5.09,-10.63 -0.98,-1.51 -2.11,-2.64 -3.39,-3.37 -1.3,-0.73 -3.43,-1.37 -6.4,-1.92l-2.62 -0.49 -4.94 26.69 -12.94 -2.4zm19.76 -34.46l9.56 1.77c6.18,1.14 10.08,1.59 11.73,1.36 1.63,-0.24 3.01,-0.92 4.11,-2.04 1.12,-1.12 1.85,-2.65 2.2,-4.56 0.4,-2.16 0.14,-3.99 -0.76,-5.55 -0.9,-1.53 -2.36,-2.66 -4.38,-3.39 -1.03,-0.35 -4.16,-1 -9.38,-1.97l-10.07 -1.86 -3.01 16.24z"/>
   <polygon fill="#FEFEFE" fill-rule="nonzero" points="461.5,1318.17 413.19,1348.14 392.64,1315.01 400.82,1309.94 415.3,1333.31 426.75,1326.22 414.23,1306.05 422.41,1300.98 434.91,1321.15 455.45,1308.42 "/>
   <polygon id="_1" fill="#FEFEFE" fill-rule="nonzero" points="435.71,1277.14 385.02,1302.77 366.01,1265.18 374.59,1260.85 388.41,1288.21 399.66,1282.51 386.79,1257.07 395.33,1252.75 408.19,1278.2 421.99,1271.23 407.67,1242.91 416.21,1238.58 "/>
   <polygon id="_2" fill="#FEFEFE" fill-rule="nonzero" points="412.05,1229.74 360.14,1252.87 343.01,1214.39 351.78,1210.47 364.26,1238.48 375.76,1233.35 364.16,1207.31 372.91,1203.4 384.51,1229.46 398.63,1223.17 385.72,1194.17 394.46,1190.28 "/>
   <path id="_3" fill="#FEFEFE" fill-rule="nonzero" d="M337.29 1198.38l-6.42 -19.96c-1.44,-4.51 -2.2,-8.05 -2.27,-10.63 -0.08,-3.48 0.71,-6.73 2.37,-9.76 1.66,-3.03 4.02,-5.69 7.1,-7.98 3.08,-2.3 7.16,-4.26 12.22,-5.88 4.46,-1.44 8.47,-2.12 12.05,-2.04 4.37,0.09 8.18,0.99 11.42,2.73 2.46,1.29 4.72,3.39 6.78,6.28 1.54,2.17 2.96,5.27 4.25,9.31l6.61 20.55 -54.11 17.38zm5.65 -13.86l35.84 -11.52 -2.63 -8.15c-0.97,-3.04 -1.85,-5.2 -2.64,-6.44 -1,-1.63 -2.23,-2.85 -3.66,-3.69 -1.44,-0.82 -3.48,-1.22 -6.14,-1.19 -2.66,0.05 -6.09,0.75 -10.27,2.09 -4.19,1.34 -7.27,2.74 -9.28,4.2 -2,1.45 -3.42,3.05 -4.24,4.78 -0.83,1.74 -1.14,3.7 -0.92,5.88 0.14,1.63 0.93,4.68 2.35,9.13l1.59 4.91z"/>
   <path id="_4" fill="#FEFEFE" fill-rule="nonzero" d="M319.23 1138.9l-5.13 -22.13c-1.01,-4.38 -1.59,-7.68 -1.72,-9.92 -0.13,-2.24 0.18,-4.34 0.95,-6.3 0.76,-1.98 1.98,-3.75 3.64,-5.33 1.66,-1.58 3.69,-2.65 6.08,-3.2 2.6,-0.6 5.14,-0.44 7.62,0.45 2.5,0.89 4.56,2.4 6.2,4.55 0.2,-3.6 1.27,-6.58 3.21,-8.94 1.95,-2.36 4.52,-3.92 7.73,-4.66 2.5,-0.58 5.1,-0.55 7.74,0.06 2.66,0.62 4.92,1.78 6.82,3.47 1.89,1.7 3.34,4 4.36,6.9 0.63,1.82 1.79,6.29 3.49,13.4l4.36 18.84 -55.35 12.81zm6.62 -13.31l12.81 -2.96 -1.7 -7.33c-1.01,-4.35 -1.7,-7.04 -2.07,-8.08 -0.67,-1.86 -1.68,-3.2 -3.02,-4.05 -1.36,-0.84 -2.92,-1.05 -4.71,-0.64 -1.71,0.39 -3,1.19 -3.84,2.39 -0.86,1.18 -1.18,2.74 -0.98,4.65 0.13,1.14 0.81,4.35 2.02,9.6l1.49 6.42zm22.01 -5.09l14.82 -3.43 -2.41 -10.34c-0.93,-4.03 -1.63,-6.57 -2.11,-7.59 -0.69,-1.59 -1.73,-2.78 -3.14,-3.55 -1.42,-0.78 -3.11,-0.94 -5.07,-0.49 -1.66,0.4 -2.98,1.11 -3.95,2.19 -0.97,1.08 -1.54,2.44 -1.73,4.08 -0.17,1.65 0.33,5.02 1.51,10.1l2.08 9.03z"/>
   <path id="_5" fill="#FEFEFE" fill-rule="nonzero" d="M355.3 1019.37l1.71 12.36 -12.11 6.67 3.1 22.51 13.44 2.87 1.65 12.06 -59.31 -14.15 -1.65 -12.02 53.17 -30.3zm-19.38 23.99l-19.81 10.64 21.94 4.73 -2.13 -15.37z"/>
   <path id="_6" fill="#FEFEFE" fill-rule="nonzero" d="M333.47 977.13l3.35 -11.18c6.23,1.6 10.89,4.37 13.95,8.3 3.08,3.92 4.66,8.92 4.76,15.03 0.12,7.55 -2.37,13.8 -7.45,18.74 -5.08,4.94 -12.1,7.47 -21.04,7.61 -9.46,0.15 -16.85,-2.18 -22.16,-7 -5.31,-4.8 -8.02,-11.18 -8.15,-19.15 -0.11,-6.95 1.86,-12.63 5.91,-17.03 2.39,-2.63 5.85,-4.62 10.38,-5.98l2.89 11.32c-2.95,0.71 -5.25,2.15 -6.91,4.32 -1.68,2.16 -2.49,4.76 -2.45,7.81 0.07,4.22 1.64,7.61 4.69,10.19 3.07,2.57 7.99,3.81 14.76,3.7 7.19,-0.1 12.29,-1.48 15.3,-4.12 3.01,-2.63 4.49,-6 4.41,-10.15 -0.04,-3.04 -1.05,-5.65 -3.02,-7.82 -1.97,-2.17 -5.04,-3.7 -9.22,-4.59z"/>
   <polygon id="_7" fill="#FEFEFE" fill-rule="nonzero" points="353.57,955.61 296.94,950.74 297.93,939.31 323.07,941.47 299.92,916.21 301.23,900.83 321.45,924.05 357.97,904.54 356.69,919.34 328.77,932.62 337.45,942.7 354.56,944.17 "/>
   <polygon fill="#FEFEFE" fill-rule="nonzero" points="401.55,735.81 349,714.22 363.8,678.19 372.69,681.84 362.24,707.25 374.68,712.37 383.7,690.43 392.59,694.1 383.57,716.03 405.9,725.21 "/>
   <polygon id="_1_0" fill="#FEFEFE" fill-rule="nonzero" points="421.85,691.86 372.09,664.33 392.51,627.44 400.93,632.1 386.08,658.95 397.11,665.05 410.93,640.07 419.31,644.7 405.49,669.69 419.02,677.18 434.4,649.39 442.78,654.02 "/>
   <polygon id="_2_1" fill="#FEFEFE" fill-rule="nonzero" points="447.56,645.54 400.3,613.93 423.74,578.89 431.74,584.24 414.68,609.74 425.16,616.75 441.03,593.03 449,598.35 433.12,622.07 445.99,630.68 463.65,604.27 471.61,609.6 "/>
   <path id="_3_2" fill="#FEFEFE" fill-rule="nonzero" d="M433.57 564.7l13.55 -15.98c3.07,-3.61 5.68,-6.12 7.83,-7.54 2.9,-1.92 6.08,-2.96 9.52,-3.15 3.46,-0.19 6.96,0.41 10.53,1.81 3.57,1.41 7.38,3.83 11.44,7.28 3.57,3.02 6.26,6.07 8.08,9.15 2.24,3.75 3.48,7.46 3.72,11.12 0.18,2.77 -0.39,5.8 -1.76,9.08 -1.03,2.45 -2.91,5.29 -5.64,8.51l-13.96 16.46 -43.31 -36.74zm14.74 -2.53l28.69 24.34 5.53 -6.53c2.07,-2.45 3.44,-4.32 4.08,-5.65 0.85,-1.72 1.25,-3.4 1.19,-5.05 -0.05,-1.66 -0.8,-3.6 -2.24,-5.84 -1.44,-2.23 -3.83,-4.77 -7.17,-7.61 -3.35,-2.84 -6.18,-4.73 -8.47,-5.66 -2.3,-0.93 -4.39,-1.29 -6.29,-1.07 -1.91,0.21 -3.74,0.98 -5.47,2.32 -1.32,0.97 -3.49,3.26 -6.52,6.81l-3.33 3.94z"/>
   <path id="_4_3" fill="#FEFEFE" fill-rule="nonzero" d="M472.36 519.19l15.4 -16.69c3.05,-3.29 5.47,-5.63 7.24,-7 1.78,-1.37 3.69,-2.3 5.75,-2.76 2.05,-0.48 4.2,-0.48 6.44,0 2.24,0.49 4.27,1.56 6.07,3.23 1.96,1.81 3.27,3.98 3.93,6.56 0.66,2.55 0.57,5.11 -0.29,7.67 3.09,-1.86 6.15,-2.65 9.21,-2.37 3.04,0.28 5.77,1.52 8.19,3.75 1.89,1.75 3.32,3.91 4.3,6.44 0.98,2.55 1.31,5.06 0.97,7.59 -0.33,2.51 -1.42,5.01 -3.23,7.47 -1.15,1.55 -4.18,5.03 -9.11,10.44l-13.11 14.21 -41.76 -38.54zm14.73 -2.01l9.66 8.9 5.1 -5.51c3.03,-3.28 4.87,-5.38 5.51,-6.26 1.16,-1.6 1.71,-3.2 1.65,-4.79 -0.07,-1.58 -0.78,-3 -2.12,-4.24 -1.29,-1.19 -2.66,-1.8 -4.13,-1.84 -1.47,-0.03 -2.93,0.58 -4.41,1.82 -0.86,0.75 -3.12,3.11 -6.79,7.08l-4.47 4.84zm16.61 15.32l11.17 10.31 7.2 -7.8c2.8,-3.04 4.49,-5.05 5.08,-6.02 0.92,-1.47 1.31,-3 1.16,-4.61 -0.16,-1.6 -0.98,-3.08 -2.46,-4.46 -1.26,-1.14 -2.6,-1.82 -4.03,-2.01 -1.43,-0.21 -2.89,0.08 -4.35,0.86 -1.44,0.79 -3.94,3.09 -7.49,6.92l-6.28 6.81z"/>
   <path id="_5_4" fill="#FEFEFE" fill-rule="nonzero" d="M592.59 482.89l-9.36 8.27 -12.25 -6.4 -17.03 15.02 5.02 12.78 -9.12 8.05 -21 -57.23 9.1 -8.02 54.64 27.53zm-30.71 -2.88l-19.8 -10.61 8.18 20.87 11.62 -10.26z"/>
   <path id="_6_5" fill="#FEFEFE" fill-rule="nonzero" d="M614.77 441.08l11.08 -3.7c2.26,6.02 2.69,11.42 1.25,16.19 -1.44,4.76 -4.63,8.95 -9.57,12.54 -6.1,4.43 -12.64,5.99 -19.6,4.69 -6.96,-1.33 -13.08,-5.6 -18.34,-12.84 -5.56,-7.65 -7.9,-15.02 -7.03,-22.13 0.87,-7.11 4.54,-13.01 10.97,-17.69 5.62,-4.09 11.41,-5.74 17.34,-4.98 3.52,0.45 7.13,2.13 10.85,5.06l-7.59 8.87c-2.28,-1.99 -4.78,-3.05 -7.51,-3.18 -2.73,-0.12 -5.32,0.72 -7.8,2.51 -3.4,2.47 -5.28,5.72 -5.62,9.7 -0.34,3.98 1.47,8.72 5.46,14.2 4.22,5.81 8.27,9.2 12.17,10.14 3.87,0.95 7.5,0.21 10.84,-2.23 2.47,-1.79 4.02,-4.12 4.65,-6.98 0.65,-2.86 0.13,-6.24 -1.55,-10.17z"/>
   <polygon id="_7_6" fill="#FEFEFE" fill-rule="nonzero" points="644.71,446.32 616.23,397.12 626.16,391.38 638.8,413.22 646.23,379.76 659.59,372.02 652.16,401.91 689.07,420.63 676.23,428.07 649.33,412.82 646.03,425.7 654.64,440.57 "/>
   <path fill="#FEFEFE" fill-rule="nonzero" d="M933.12 325.49l11.47 2.21c-0.97,6.36 -3.25,11.26 -6.84,14.71 -3.59,3.46 -8.42,5.54 -14.48,6.26 -7.5,0.86 -13.96,-0.97 -19.39,-5.53 -5.43,-4.56 -8.66,-11.27 -9.7,-20.16 -1.1,-9.41 0.47,-16.99 4.72,-22.75 4.24,-5.77 10.32,-9.12 18.23,-10.05 6.9,-0.79 12.75,0.58 17.55,4.17 2.85,2.11 5.17,5.35 6.99,9.72l-10.98 4.02c-0.99,-2.86 -2.66,-5 -4.98,-6.45 -2.32,-1.45 -4.99,-1.99 -8.03,-1.64 -4.18,0.49 -7.39,2.39 -9.65,5.7 -2.25,3.3 -2.99,8.32 -2.2,15.06 0.84,7.14 2.71,12.06 5.64,14.8 2.92,2.73 6.43,3.85 10.54,3.37 3.03,-0.35 5.53,-1.62 7.48,-3.81 1.96,-2.17 3.17,-5.39 3.63,-9.63z"/>
   <path id="_1_7" fill="#FEFEFE" fill-rule="nonzero" d="M954.26 315.02c0.04,-5.8 0.93,-10.66 2.68,-14.57 1.32,-2.9 3.1,-5.47 5.34,-7.77 2.26,-2.29 4.71,-3.97 7.39,-5.07 3.55,-1.48 7.64,-2.2 12.26,-2.18 8.38,0.05 15.07,2.69 20.06,7.92 5.01,5.22 7.48,12.47 7.41,21.72 -0.05,9.18 -2.59,16.34 -7.61,21.49 -5.01,5.17 -11.71,7.72 -20.06,7.66 -8.44,-0.05 -15.15,-2.66 -20.11,-7.85 -4.96,-5.19 -7.41,-12.31 -7.36,-21.35zm11.83 -0.32c-0.04,6.43 1.42,11.32 4.38,14.66 2.95,3.35 6.71,5.02 11.29,5.05 4.58,0.02 8.34,-1.59 11.29,-4.87 2.96,-3.29 4.45,-8.22 4.49,-14.81 0.05,-6.52 -1.36,-11.39 -4.19,-14.61 -2.84,-3.21 -6.62,-4.85 -11.36,-4.88 -4.73,-0.02 -8.56,1.57 -11.46,4.8 -2.92,3.23 -4.39,8.11 -4.44,14.66z"/>
   <path id="_2_8" fill="#FEFEFE" fill-rule="nonzero" d="M1019.93 286.66l20.96 0.65c4.72,0.15 8.31,0.62 10.78,1.42 3.29,1.1 6.09,2.93 8.4,5.51 2.29,2.57 4.01,5.69 5.12,9.37 1.14,3.67 1.61,8.17 1.45,13.47 -0.15,4.69 -0.86,8.69 -2.12,12.04 -1.56,4.09 -3.68,7.37 -6.41,9.85 -2.04,1.87 -4.77,3.3 -8.19,4.27 -2.56,0.72 -5.96,1.02 -10.19,0.88l-21.58 -0.67 1.78 -56.79zm11.17 9.96l-1.19 37.62 8.57 0.28c3.2,0.1 5.52,-0.01 6.96,-0.33 1.86,-0.4 3.44,-1.15 4.69,-2.22 1.27,-1.08 2.33,-2.87 3.18,-5.38 0.86,-2.53 1.36,-5.99 1.49,-10.37 0.14,-4.39 -0.14,-7.78 -0.85,-10.15 -0.69,-2.38 -1.73,-4.25 -3.08,-5.61 -1.35,-1.36 -3.09,-2.31 -5.22,-2.83 -1.59,-0.41 -4.73,-0.7 -9.4,-0.85l-5.15 -0.16z"/>
   <polygon id="_3_9" fill="#FEFEFE" fill-rule="nonzero" points="1075.42,347.07 1083.44,290.78 1125.19,296.72 1123.83,306.25 1093.45,301.92 1091.68,314.41 1119.93,318.43 1118.58,327.91 1090.31,323.88 1088.14,339.2 1119.59,343.68 1118.23,353.17 "/>
   <path fill="#FEFEFE" fill-rule="nonzero" d="M1444.31 441.58l17.65 14.29c3.48,2.82 5.98,5.08 7.46,6.76 1.48,1.68 2.52,3.53 3.13,5.55 0.6,2.02 0.74,4.16 0.4,6.44 -0.35,2.26 -1.28,4.35 -2.83,6.26 -1.67,2.06 -3.76,3.51 -6.27,4.34 -2.52,0.81 -5.08,0.9 -7.68,0.21 2.05,2.96 3.04,5.97 2.95,9.03 -0.08,3.06 -1.15,5.85 -3.21,8.42 -1.63,1.99 -3.68,3.58 -6.14,4.71 -2.48,1.14 -4.98,1.62 -7.52,1.45 -2.53,-0.18 -5.09,-1.09 -7.67,-2.75 -1.62,-1.03 -5.27,-3.84 -10.99,-8.4l-15.03 -12.17 35.75 -44.14zm2.97 14.56l-8.27 10.21 5.83 4.73c3.49,2.82 5.68,4.51 6.6,5.1 1.68,1.04 3.3,1.49 4.89,1.32 1.58,-0.15 2.95,-0.96 4.1,-2.38 1.09,-1.37 1.62,-2.78 1.56,-4.24 -0.06,-1.47 -0.76,-2.89 -2.1,-4.28 -0.8,-0.81 -3.31,-2.91 -7.5,-6.31l-5.11 -4.15zm-14.23 17.56l-9.55 11.8 8.25 6.68c3.21,2.61 5.33,4.17 6.33,4.69 1.53,0.82 3.07,1.11 4.66,0.85 1.59,-0.25 3.02,-1.17 4.29,-2.73 1.07,-1.33 1.66,-2.71 1.77,-4.16 0.11,-1.44 -0.28,-2.87 -1.15,-4.27 -0.88,-1.41 -3.35,-3.75 -7.39,-7.04l-7.21 -5.82z"/>
   <path id="_1_10" fill="#FEFEFE" fill-rule="nonzero" d="M1491.38 481.74l8.29 7.93 -21.25 22.24c-3.38,3.53 -5.46,5.91 -6.27,7.16 -1.25,2.01 -1.69,4.17 -1.33,6.46 0.37,2.3 1.7,4.55 4.02,6.76 2.36,2.26 4.58,3.47 6.7,3.65 2.12,0.18 3.97,-0.31 5.54,-1.48 1.59,-1.17 3.94,-3.37 7.04,-6.63l21.71 -22.72 8.3 7.93 -20.62 21.57c-4.71,4.94 -8.27,8.2 -10.66,9.8 -2.39,1.61 -4.86,2.55 -7.41,2.79 -2.54,0.25 -5.21,-0.18 -8.03,-1.27 -2.81,-1.1 -5.84,-3.19 -9.09,-6.31 -3.92,-3.74 -6.46,-7.04 -7.62,-9.89 -1.16,-2.84 -1.63,-5.54 -1.43,-8.12 0.2,-2.57 0.88,-4.82 2.03,-6.77 1.69,-2.86 4.75,-6.59 9.15,-11.19l20.93 -21.91z"/>
   <polygon id="_2_11" fill="#FEFEFE" fill-rule="nonzero" points="1492.3,563.33 1535.26,526.18 1542.76,534.86 1499.8,571.99 "/>
   <polygon id="_3_12" fill="#FEFEFE" fill-rule="nonzero" points="1507.62,580.14 1551.58,544.93 1558.75,553.88 1522.26,583.12 1540.08,605.37 1532.61,611.35 "/>
   <path id="_4_13" fill="#FEFEFE" fill-rule="nonzero" d="M1584.14 586.2l11.8 17.34c2.66,3.91 4.39,7.1 5.18,9.55 1.07,3.32 1.23,6.66 0.49,10.04 -0.73,3.37 -2.25,6.59 -4.54,9.66 -2.31,3.07 -5.67,6.11 -10.07,9.1 -3.87,2.63 -7.53,4.43 -10.98,5.37 -4.22,1.15 -8.13,1.35 -11.73,0.61 -2.72,-0.56 -5.48,-1.92 -8.29,-4.11 -2.08,-1.64 -4.31,-4.23 -6.7,-7.72l-12.16 -17.86 47 -31.98zm-1.5 14.9l-31.12 21.18 4.82 7.09c1.8,2.65 3.26,4.46 4.35,5.43 1.44,1.28 2.95,2.11 4.57,2.5 1.61,0.38 3.67,0.19 6.22,-0.61 2.55,-0.79 5.63,-2.42 9.26,-4.89 3.64,-2.48 6.21,-4.7 7.72,-6.66 1.51,-1.96 2.41,-3.89 2.71,-5.78 0.3,-1.9 0.05,-3.87 -0.77,-5.91 -0.6,-1.52 -2.22,-4.22 -4.86,-8.09l-2.9 -4.26z"/>
   <polygon fill="#FEFEFE" fill-rule="nonzero" points="1648.34,943.82 1695.44,940.64 1694.3,923.82 1703.9,923.18 1706.94,968.21 1697.34,968.86 1696.21,952.08 1649.12,955.27 "/>
   <polygon id="_1_14" fill="#FEFEFE" fill-rule="nonzero" points="1649.48,979.51 1706.27,981.26 1704.97,1023.35 1695.37,1023.07 1696.31,992.43 1683.72,992.04 1682.85,1020.54 1673.28,1020.26 1674.16,991.75 1658.7,991.27 1657.72,1022.99 1648.16,1022.7 "/>
   <path id="_2_15" fill="#FEFEFE" fill-rule="nonzero" d="M1666.79 1031.98l-0.35 11.21c-3.8,0.2 -6.71,1.2 -8.72,3.01 -2,1.82 -3.23,4.46 -3.67,7.92 -0.48,3.67 -0.05,6.52 1.26,8.58 1.31,2.07 3,3.22 5.08,3.5 1.34,0.16 2.52,-0.08 3.56,-0.74 1.04,-0.67 2.03,-1.93 2.97,-3.79 0.64,-1.28 1.83,-4.21 3.63,-8.8 2.29,-5.91 4.7,-9.95 7.23,-12.12 3.55,-3.07 7.55,-4.31 12.02,-3.73 2.86,0.36 5.45,1.52 7.74,3.47 2.29,1.95 3.89,4.54 4.8,7.77 0.92,3.23 1.09,7.01 0.54,11.34 -0.91,7.09 -3.15,12.22 -6.7,15.39 -3.57,3.17 -7.95,4.53 -13.16,4.04l0.97 -11.45c2.95,-0.11 5.17,-0.9 6.64,-2.33 1.49,-1.44 2.43,-3.77 2.84,-6.97 0.43,-3.3 0.08,-5.99 -1.04,-8.03 -0.71,-1.32 -1.8,-2.07 -3.26,-2.26 -1.34,-0.17 -2.55,0.25 -3.65,1.26 -1.39,1.28 -3.09,4.6 -5.11,9.97 -2.02,5.38 -3.91,9.3 -5.64,11.77 -1.74,2.47 -3.91,4.31 -6.52,5.5 -2.63,1.19 -5.71,1.56 -9.28,1.09 -3.23,-0.42 -6.14,-1.69 -8.73,-3.86 -2.6,-2.15 -4.36,-4.96 -5.31,-8.42 -0.95,-3.45 -1.11,-7.63 -0.48,-12.54 0.92,-7.12 3.26,-12.38 7.05,-15.78 3.78,-3.4 8.88,-5.06 15.29,-5z"/>
   <polygon id="_3_16" fill="#FEFEFE" fill-rule="nonzero" points="1638.12,1097.5 1684.41,1106.92 1687.78,1090.39 1697.21,1092.3 1688.19,1136.6 1678.76,1134.67 1682.13,1118.18 1635.82,1108.75 "/>
   <path fill="#FEFEFE" fill-rule="nonzero" d="M1277.08 1565.6l18.91 -8.99c4.27,-2.03 7.68,-3.26 10.22,-3.66 3.42,-0.54 6.76,-0.19 9.98,1.06 3.22,1.23 6.17,3.23 8.86,5.99 2.67,2.74 5.15,6.53 7.44,11.33 2.01,4.23 3.22,8.12 3.62,11.68 0.5,4.35 0.11,8.24 -1.17,11.68 -0.96,2.61 -2.74,5.13 -5.32,7.56 -1.93,1.81 -4.81,3.62 -8.64,5.44l-19.47 9.26 -24.43 -51.35zm14.53 3.74l16.17 33.99 7.71 -3.67c2.88,-1.37 4.88,-2.53 6.01,-3.46 1.49,-1.22 2.53,-2.59 3.15,-4.12 0.64,-1.53 0.75,-3.61 0.35,-6.23 -0.39,-2.63 -1.54,-5.94 -3.42,-9.91 -1.89,-3.97 -3.68,-6.84 -5.4,-8.63 -1.7,-1.8 -3.47,-2.99 -5.29,-3.58 -1.82,-0.59 -3.8,-0.65 -5.93,-0.14 -1.59,0.36 -4.5,1.54 -8.71,3.54l-4.64 2.21zm61.42 22.44l-27.01 -50.04 37.04 -20 4.57 8.46 -26.91 14.52 6 11.12 25.02 -13.51 4.56 8.46 -25.02 13.5 7.32 13.56 27.89 -15.05 4.56 8.45 -38.02 20.53zm46.14 -26.02l-31.34 -47.45 15.37 -10.15c5.82,-3.84 9.76,-6.11 11.84,-6.8 3.19,-1.08 6.49,-1.04 9.9,0.14 3.41,1.17 6.36,3.65 8.85,7.43 1.93,2.91 3.01,5.7 3.27,8.38 0.26,2.69 -0.05,5.13 -0.92,7.34 -0.88,2.2 -2.04,4.05 -3.48,5.52 -1.99,1.96 -5.14,4.38 -9.47,7.24l-6.23 4.11 11.82 17.89 -9.61 6.35zm-16.43 -45.78l8.93 13.52 5.22 -3.45c3.77,-2.49 6.11,-4.4 7.05,-5.73 0.94,-1.34 1.42,-2.77 1.43,-4.31 0.02,-1.54 -0.42,-3 -1.36,-4.42 -1.14,-1.73 -2.59,-2.82 -4.34,-3.28 -1.76,-0.46 -3.5,-0.33 -5.24,0.41 -1.28,0.55 -3.64,1.94 -7.09,4.22l-4.6 3.04zm60.47 15.79l-33.28 -45.51 9.3 -6.8 27.61 37.76 23.01 -16.83 5.67 7.76 -32.31 23.62zm17.54 -48.96c-3.86,-4.32 -6.45,-8.54 -7.78,-12.64 -0.97,-3.01 -1.39,-6.14 -1.25,-9.35 0.13,-3.21 0.82,-6.11 2.06,-8.72 1.65,-3.48 4.2,-6.77 7.65,-9.85 6.26,-5.59 13,-8.11 20.22,-7.58 7.23,0.54 13.93,4.27 20.11,11.19 6.12,6.86 9.05,13.9 8.78,21.09 -0.26,7.21 -3.51,13.59 -9.74,19.15 -6.31,5.64 -13.06,8.2 -20.23,7.66 -7.16,-0.53 -13.77,-4.17 -19.82,-10.95zm8.58 -8.17c4.29,4.81 8.66,7.46 13.1,7.97 4.44,0.49 8.37,-0.78 11.79,-3.83 3.42,-3.06 5.13,-6.8 5.13,-11.22 -0.01,-4.43 -2.21,-9.1 -6.61,-14.03 -4.34,-4.87 -8.65,-7.55 -12.93,-8.03 -4.27,-0.49 -8.17,0.84 -11.72,4.01 -3.54,3.15 -5.3,6.91 -5.31,11.26 0.01,4.36 2.18,8.99 6.55,13.87zm67.68 -25.07l-17.64 -16.18 -38.36 -6.9 9.1 -9.92 25.68 5.31 -7.74 -24.87 8.93 -9.73 10.23 37.68 17.58 16.12 -7.78 8.49z"/>
   <path fill="none" d="M253.82 815.26c18.69,0.01 57.86,-15.19 79.89,-19.88 8.04,-1.72 19.3,-8.94 27.56,-4.32l63.9 38.11c5.66,3.65 15.4,12.71 22.39,12.44 19.89,-55.87 18.55,-65.16 49.49,-121.11 19.33,-34.94 29.36,-48.57 50.85,-77.39 39.43,-52.88 103.86,-110.23 159.57,-142.4l48.58 -25.91c10.96,-5.08 6.37,-3.07 9.98,-34.47l3.27 -64.3c3.19,-20.15 -2.44,-18.91 -27.88,-39.73l-47.94 -38c-4.4,-3.49 -6.4,-5.65 -9.57,-7.79 -14.66,3.14 -62.33,31.14 -77.74,40.34 -26.13,15.61 -48.45,30.51 -71.35,48.2 -5.12,3.96 -11.77,8.59 -16.5,12.7l-84.65 80.19c-41.86,51.86 -56.14,63.43 -95.01,129.73 -31.24,53.27 -54.95,108.58 -72.34,167.06 -1.11,3.71 -2.13,7.84 -3.09,11.05 -2.53,8.52 -9.04,29.06 -9.41,35.48"/>
   <path fill="#73B9EE" d="M320.23 1511.69c1.02,12.79 1.07,40.89 -0.27,53.55 -1.74,16.34 -10.62,25.43 -20.08,33.4 -4.96,4.19 -10.14,7.69 -16.32,11.43 -7.78,4.71 -11.16,4.04 -18.74,-0.51 -38.26,-23 -35.44,-39.16 -35.46,-70.35 -0.01,-28.95 -6.04,-26.54 16.72,-36.49 15.62,-6.83 20.95,-14.46 38.29,-7.38 10.65,4.35 27.76,11.09 35.86,16.35zm-100.94 59.62c1.59,14.32 15.21,30.05 25.28,38.12 6.78,5.42 11.74,7.8 19.73,12.41 10.68,6.17 14.56,3.62 23.45,-1.76 15.77,-9.54 24.77,-15.57 34.42,-29.71 12.16,-17.8 8.59,-32.12 8.42,-55.54 -0.24,-33.53 4.1,-29.38 -22.68,-41.14 -22.43,-9.84 -31.37,-17.26 -48.31,-9.64 -9.44,4.25 -38.68,16.57 -40.33,23.51 -0.95,3.98 -0.65,57.69 0.02,63.75z"/>
   <path fill="#73B9EE" d="M218.78 1308.7c-8.72,62.77 -86.87,71.4 -114.31,32.36 -41.15,-58.54 12.12,-114.25 59.13,-105.77 32.91,5.94 60.53,34.88 55.18,73.41zm-78.43 -84.57c-21.91,5.16 -37.5,16.42 -46.75,29.7 -41.68,59.88 11.52,136.47 76.47,121.47 35.87,-8.29 68.84,-41.88 58.94,-90.57 -7.26,-35.73 -43.65,-71.21 -88.66,-60.6z"/>
   <rect fill="#1E2350" stroke="#2B2A29" stroke-width="2.02" stroke-miterlimit="2.61313" x="560.8" y="627.24" width="893.64" height="655.88" rx="75.18" ry="73.52"/>
   <rect fill="#222B63" stroke="#222B63" stroke-width="2.02" stroke-miterlimit="2.61313" x="1014.83" y="1104.92" width="204.47" height="122.88" rx="11.22" ry="9.49"/>
   <rect fill="#222B63" stroke="#222B63" stroke-width="2.02" stroke-miterlimit="2.61313" x="1231.31" y="1106.29" width="196.65" height="121.39" rx="10.79" ry="9.38"/>
   <rect fill="#222B63" stroke="#222B63" stroke-width="2.02" stroke-miterlimit="2.61313" x="1231.31" y="961.97" width="196.65" height="122.88" rx="10.79" ry="9.49"/>
   <rect fill="#222B63" stroke="#222B63" stroke-width="2.02" stroke-miterlimit="2.61313" x="1014.83" y="961.97" width="204.47" height="122.88" rx="11.22" ry="9.49"/>
   <rect fill="#222B63" stroke="#222B63" stroke-width="2.02" stroke-miterlimit="2.61313" x="1014.83" y="676.05" width="413.13" height="264.36" rx="22.66" ry="20.42"/>
   <rect fill="#222B63" stroke="#222B63" stroke-width="2.02" stroke-miterlimit="2.61313" x="594.13" y="676.05" width="388.61" height="264.36" rx="21.32" ry="20.42"/>
   <rect fill="#222B63" stroke="#222B63" stroke-width="2.02" stroke-miterlimit="2.61313" x="594.13" y="961.97" width="388.61" height="264.36" rx="21.32" ry="20.42"/>
   <path fill="#794DF1" d="M852.78 1179.54c-2.08,-6.93 -51.94,-63.4 -59.93,-72.35 -5.05,-5.66 -11.64,-11.29 -12.01,-22.2 -0.95,-27.58 0.88,-68.72 0.23,-100.26 -11.15,-1.85 -39.59,9.19 -48.57,14.73 -82.59,50.97 -64.59,168.27 18.66,195.87 40.07,13.28 68.66,4.96 101.62,-15.79z"/>
   <path fill="#73B9EE" d="M1003.12 39.04c2.53,-8.94 -1.43,-17.47 6.13,-23.56 8.25,3.13 5.69,12.66 6.11,22.56 5.26,2.52 12.07,3.77 17.84,6.7 5.27,2.69 9.48,6.66 15.44,8.66 5.81,-3.05 16.94,-13.31 24.16,-11.07 3.48,8.53 -9.52,12.81 -15.69,18.97 -0.35,6.08 2.75,11.55 4.01,17.87 1.33,6.64 1.17,12.08 1.94,18.74 8.14,1.33 16.13,0.5 20.6,5.7 -2.19,3.25 -0.21,2.26 -5.94,4.09 -10.83,3.45 -14.93,-2.42 -21.12,8.33 -8.87,15.41 -12.87,14.31 -18.49,21.13 2.15,9.21 8.19,14.91 -1.14,19.96 -5.82,-3.43 -6.07,-8.28 -8.31,-15.74 -6.49,-0.48 -12.48,1.91 -19.39,1.97 -7.62,0.07 -12.58,-1.57 -19.29,-1.78 -2.64,7.52 -3.82,15.49 -12.69,15.76 -2.33,-8.02 3.05,-14.17 5.14,-21.62l-13.05 -12.67c-4.28,-4.52 -6.28,-8.39 -10.1,-13.08 -4.49,-2.82 -20.35,2.51 -24.32,-6.35 6.26,-5 14.33,-2.14 21.77,-6.21 0.15,-0.33 6.99,-34.09 7.05,-34.64 -6.71,-7.73 -18.7,-8.57 -15.53,-20.37 12.58,-1.75 14.92,14.16 26.36,7.72 11.11,-6.25 21.45,-7.09 28.51,-11.07zm-3.12 -38.69c-19.82,2.29 -48.37,20.45 -60.03,29.6 -9.9,7.76 -20.38,54.95 -21.36,69.24 -1.62,23.54 16.84,40.92 31.55,59.11 20.2,24.98 25.61,22.89 69.3,21.71 38.71,-1.05 40.13,-10.43 57.72,-31.86 16.33,-19.91 27.58,-30.86 20.01,-64.62 -8.56,-38.18 -2.55,-46.47 -29.7,-61.57 -17.53,-9.75 -43.33,-24.4 -67.49,-21.61z"/>
   <path fill="#86CEFA" d="M1323.52 191.14c-2.15,-13.68 18,-18.58 20.9,-3.98 2.9,14.64 -18.92,16.62 -20.9,3.98zm-45.82 16.05c0.44,-1.69 -1.41,-5.19 8.61,-6.23 28.1,-2.92 29.46,8.12 46.8,19.4 4.02,2.62 12.94,9.97 15.58,10.48l-11.87 0.23c4.81,4.39 26,1.12 31.99,0.05 54.66,-9.8 76.86,-35.37 105.35,-76.94 11.46,-16.73 40.59,-11.27 44.66,-27.61 -9.94,-2.44 -22.37,-4.28 -30.23,-9.18 -16.67,-10.4 -8.68,-16.87 -20.6,-18.81 -4.91,13.43 -0.7,32.96 -4.4,47.83 -53.79,5.89 -159.36,-4.09 -213.88,2.2 -1.57,24.37 13.9,50.56 27.99,58.58z"/>
   <path fill="#86CEFA" d="M933.94 1887.5l147.4 0.18c0.32,-17.24 2.2,-73.12 -1.85,-83.29 -0.35,-0.13 -0.87,-0.74 -1.04,-0.42l-4.34 -1.37c-2.14,-0.42 -4.23,-0.44 -6.45,-0.48l-125.83 0.82c-7.61,1.51 -8.1,6.32 -8.56,14.87 -0.4,7.5 -0.05,15.79 -0.09,23.4 -0.06,11.98 -1.42,35.68 0.76,46.29z"/>
   <path fill="#86CEFA" d="M116.38 1326.78c-13.91,-6.13 -0.11,-18.09 17.26,-40.24 16.35,-20.85 17.46,10.54 35.26,23.58 6.49,-2.92 17.44,-23.63 24.8,-29.85 5.07,0.77 4.95,1.75 7.94,5.08 -1.55,4.89 -27.87,40.43 -32.74,44.37 -9.68,-5.21 -15.95,-25.66 -26.26,-32.65 -8.23,3.05 -17.34,23.98 -26.26,29.71zm102.4 -18.08c5.35,-38.53 -22.27,-67.47 -55.18,-73.41 -47.01,-8.48 -100.28,47.23 -59.13,105.77 27.44,39.04 105.59,30.41 114.31,-32.36z"/>
   <path fill="#73B9EE" d="M1364.07 116.09l22.52 0.2 -0.03 22.17 -22.99 -0.29 0.5 -22.08zm-59.47 -0.05l21.35 0.07 -0.75 21.98 -20.75 0.18 0.15 -22.23zm-7.72 0.95l-0.35 21.24 -17.28 -0.24c-5.09,-0.44 -2.03,0.07 -4.9,-0.83l0.03 -19.72 22.5 -0.45zm96.26 0.2c7.49,-0.78 15.1,-1.65 22.38,0.4 2.19,21.31 1.2,22.65 -21.87,20.4l-0.51 -20.8zm-56.32 113.88c-11.4,-0.37 -24.33,-4.44 -33.49,-8.65 -4.63,-2.12 -8.15,-3.82 -13.37,-7.03 -4.24,-2.6 -8.7,-7.32 -12.26,-8.2 -14.09,-8.02 -29.56,-34.21 -27.99,-58.58 54.52,-6.29 160.09,3.69 213.88,-2.2 3.7,-14.87 -0.51,-34.4 4.4,-47.83 11.92,1.94 3.93,8.41 20.6,18.81 7.86,4.9 20.29,6.74 30.23,9.18 -4.07,16.34 -33.2,10.88 -44.66,27.61 -28.49,41.57 -50.69,67.14 -105.35,76.94 -5.99,1.07 -27.18,4.34 -31.99,-0.05zm19.28 -114.8l-0.3 21.92 -22.54 -0.23 -0.64 -21.82 23.48 0.13zm8.12 -31.22l21.72 0.02 -1.1 26.04c-5.47,-1.87 -14.06,-0.64 -21.14,-1l0.52 -25.06zm-31.96 3.01c3.98,-0.94 20.47,-2.61 22.74,-0.38 2.34,2.29 1.13,-2.55 1.21,5.54 0.01,1.45 -0.21,4.3 -0.25,6 -0.09,3.91 0.14,6.83 -0.37,10.94l-23.18 -0.26 -0.15 -21.84zm-28.04 -1.13l21.47 0.78 -0.56 23.47c-6.22,-2.22 -14.11,-1.05 -21.38,-0.6l0.47 -23.65zm60.24 -30.82l20.91 -0.01 -0.22 21.37 -21.72 -0.31 1.03 -21.05zm-6.52 -5.11c-6.56,9.52 5.43,28.23 -8.64,29.21 -8.72,0.6 -47.63,-1.22 -50.62,0.68 -5.56,7.78 -2.88,18.39 -3.73,29.84 -9.55,0.75 -18.91,-1.33 -26.52,2.56l-0.47 23.86c-10.71,0.58 -20.96,-1.07 -24.08,4.28 -6.64,15.08 1.82,41.71 8.11,52.18 40.65,67.63 163.06,72.71 224.61,-25.34 4.96,-7.91 5,-12.11 16.31,-15.8 8.29,-2.71 15.55,-5.56 22.36,-9.67 6.15,-3.72 14.46,-8.58 13.4,-18.77 -6.55,-6.39 -20.22,-6.71 -28.8,-10.58 -12.69,-5.72 -12.51,-11.81 -19.75,-21.09 -9.07,-11.63 -18.08,-2.74 -22.14,6.14 -4.63,10.13 -1.73,27.42 -1.69,39.31l-34.7 -0.24 0 -25.54c-5.94,-4.12 -15.1,-1.25 -29.09,-1.9 -0.17,-13.2 2.38,-52.07 -1.98,-60.91l-25.36 -0.47c-7.14,0.14 -6.32,1.97 -7.22,2.25z"/>
   <path fill="#73B9EE" d="M245.53 414.36c-2.61,-11.14 6.15,-20.85 13.69,-23.33 11.96,-3.94 22.27,5.16 24.08,12.29 7.23,28.38 -32.84,32.07 -37.77,11.04zm-69.03 -97.79c22.52,-10.58 31.87,25.08 12.26,31.74 -20,6.8 -35.86,-20.65 -12.26,-31.74zm159.92 -3.46c17.78,-7.4 24.5,16.75 10.54,22.63 -15.39,6.48 -24.52,-16.82 -10.54,-22.63zm-85.31 -68.05c27.04,-11.16 39.03,27.32 15.22,37.65 -11.45,4.97 -23.52,-3.12 -26.91,-11.77 -3.94,-10.05 -0.72,-20.77 11.69,-25.88zm-0.92 52.59l0.09 27.09 -37.59 0.44c-7.68,-12.76 -10.29,-26.48 -33.6,-23.54 -14.79,1.87 -26.96,15.23 -27.11,31.02 -0.15,15.61 15.12,28.27 27.37,29.9 24.1,3.21 28.92,-16.92 33.81,-23.48 49.55,-3 34.05,-5.38 39.29,40.27 -5.4,6 -20.71,11.62 -19.33,32.12 1.82,27.14 39.76,43.05 59.26,15.49 10.51,-14.87 3.99,-26.85 -2.45,-38.86 3.37,-5.81 12.36,-13.16 17.8,-20.18 4.82,-6.21 12.9,-15.35 18.74,-20.36 14.62,1.14 22.72,6.74 34.34,-6.83 18.62,-21.75 -11.66,-54.05 -34.96,-34.94 -13.92,11.42 -9.79,21.84 -6.55,31.25 -4.06,4.46 -7.99,7.4 -11.9,11.58 -4.02,4.29 -7.98,8.2 -11.86,12.93 -17.65,21.48 -17.68,17.76 -31.74,14.89l0.2 -79.78c12.28,-5.12 30.72,-11.67 29.62,-33.92 -1.19,-24.03 -31.83,-44.73 -57,-24.32 -13.8,11.19 -15.7,30.34 -5.21,44.9 7.21,9.99 9.87,7.33 18.78,14.33z"/>
   <path fill="#73B9EE" d="M1080.01 1898.89c4.73,20.97 -10.45,20.05 -26.99,20.01 -15.56,-0.05 -31.13,0.02 -46.69,0 -15.56,-0.01 -31.13,-0.05 -46.69,0.02 -16.28,0.07 -29.54,-0.33 -25.4,-20.27l145.77 0.24zm-146.07 -11.39c-2.18,-10.61 -0.82,-34.31 -0.76,-46.29 0.04,-7.61 -0.31,-15.9 0.09,-23.4 0.46,-8.55 0.95,-13.36 8.56,-14.87l125.83 -0.82c2.22,0.04 4.31,0.06 6.45,0.48l4.34 1.37c0.17,-0.32 0.69,0.29 1.04,0.42 4.05,10.17 2.17,66.05 1.85,83.29l-147.4 -0.18zm81.36 55.55c-0.81,-9.97 -1.58,-11.08 8.45,-10.99 14,0.12 45.79,1.75 55.86,-3.14 10.75,-5.22 12.92,-11.11 13,-26.43l-0.01 -78.79c0.18,-43.06 -20.04,-32.87 -83.35,-33.15 -18.71,-0.08 -61.53,-3.66 -74.76,3.63 -18.06,9.94 -13.07,39.37 -13.02,64.54 0.03,13.14 -0.03,26.25 -0.12,39.39 -0.36,51.75 46.07,29.27 81.89,35.29l-0.35 9.3c-10.31,0.74 -24.56,-1.56 -33.91,1.23 -7.03,13.66 9.05,11.02 19.85,11.16 11.67,0.16 23.42,-0.27 35.01,0.03 7.06,0.18 31.39,2.79 24.15,-9.56 -3.18,-5.44 -25.69,-2.21 -32.69,-2.51z"/>
   <path fill="#73B9EE" d="M1800 623.14c-5.16,-6.15 -4.03,-22.65 -2.86,-29.53 1.79,-10.51 5.21,-19.71 13.38,-21.99l15.76 33.71c-3,2.33 -3.46,2.63 -6.18,4.22l-20.1 13.59zm121.09 -51.27c13.14,6.55 13.29,33.59 13.25,49.46 -6.76,-2.49 -10.46,-7.33 -14.47,-11.71 -6.82,-7.44 -5.18,-6.33 -14.75,-11.04 1.53,-10.24 8.59,-23.83 15.97,-26.71zm-2.33 -45.17c-5.42,25.88 -27.68,84.06 -45.71,90.5 -18.63,6.65 -26.71,-5.44 -32.15,-16.07 -2.58,-5.04 -4.31,-5.86 -7.21,-10.3 -5.89,-9.04 -16.3,-36.52 -19.61,-48.84 -10.86,-40.41 4.95,-80.61 41.82,-86.42 40.02,-6.31 71.26,31.03 62.86,71.13zm-114.29 32.1c-10.22,13.71 -15.17,13.98 -18.56,38.11 -2.15,15.33 -0.29,39.03 8.25,48.06 1.74,-0.96 28.21,-29.74 35.02,-32.59 4.96,4.98 8.43,20.99 38.02,19.61 18.43,-0.85 27.65,-7.27 35.78,-22.62 6.11,2.53 5.33,3.73 9.29,7.88 5.92,6.23 17.74,23.23 26.33,23.04 4.94,-5.89 3.57,-10.36 3.58,-18.76 0.01,-11.9 1.28,-25.63 -1.61,-37 -3.42,-13.45 -4.42,-17.13 -15.75,-23.42 1.24,-8.38 4,-11.18 5.9,-19.1 5.28,-21.97 5.79,-43.3 -4.51,-62.69 -38.22,-71.91 -132.76,-38.65 -130.08,38.68 0.57,16.6 7.65,29.04 8.34,40.8z"/>
   <path fill="#73B9EE" d="M1852.71 964.11c15.64,3.83 12.75,11.84 56.71,12.84 41.29,0.95 43.77,-8.97 60.16,-11.88 0.39,26.26 9.23,50.3 -58.71,50.5 -15.81,0.05 -32.39,-3.38 -44.74,-9.31 -18.2,-8.73 -13.19,-18.8 -13.42,-42.15zm0.24 -43.28c7.01,1.38 15.14,6.39 24.08,8.6 15.25,3.77 50.23,4.13 65.23,0.55 8.82,-2.11 18.8,-6.48 27.04,-7.99l0.31 27.81c-5.15,12.9 -71.65,24.76 -107.32,6.2 -5.75,-2.99 -9.25,-3.73 -9.59,-11.94 -0.28,-6.63 -0.19,-16.62 0.25,-23.23zm42.84 -42.39c51.34,-9.61 120.55,30.98 33.9,41.71 -23.11,2.86 -54.37,-0.58 -70.51,-10.53 -25.53,-15.75 21.98,-28.44 36.61,-31.18zm-6 -11.28c-64.19,11.56 -48.33,29.34 -48.71,101.6 -0.16,31.29 -2.03,39.38 24.15,49.93 35.65,14.36 103.02,12.32 114.65,-18.82 2.93,-7.84 1.54,-62.29 1.48,-74.88 -0.15,-31.56 3.85,-40.66 -23.39,-51.46 -18.15,-7.19 -46.8,-10.22 -68.18,-6.37z"/>
   <path fill="#5A6FF7" d="M897.47 1082.59c-1.95,-51.3 -49.61,-101.59 -105.35,-99.36l-0.11 76.86c0.05,6.62 -2.29,21.04 3.06,22.87 3.16,1.08 96.44,0.82 102.4,-0.37z"/>
   <path fill="#73B9EE" d="M1776.84 1577.03c14.49,-7.31 25.43,14.36 11.85,20.98 -11.89,5.8 -30.35,-11.64 -11.85,-20.98zm-104.79 -1.46c14.29,-6.21 21.16,15.92 8.7,21.06 -13.6,5.61 -24.98,-13.99 -8.7,-21.06zm148.26 -77.55c15.04,-8.23 24.11,13.18 11.31,20.31 -13.62,7.57 -25.41,-12.6 -11.31,-20.31zm-98.44 -15.69c30.1,-11.88 41.35,31.07 14.94,41.98 -26,10.73 -46,-29.71 -14.94,-41.98zm29.5 48.13c3.8,-7.52 8.14,-5.9 11.86,-17.87 12.59,-40.57 -47.31,-65.71 -67.29,-22.2 -7.84,17.1 1.97,31.43 9.06,41.53 -1.69,3.25 -19.6,27.57 -26.69,30.03 -9.01,3.12 -14.86,4.04 -19.58,9.6 -24.04,28.33 31.07,60.98 40.44,18.37 2.31,-10.52 -3.25,-14.41 -5.64,-21.53 4.19,-7.33 14.86,-21.33 20.41,-26.22l28.57 -2.29c5.73,9.82 18.13,19.27 23.88,28.51 -4.59,6.55 -13.24,13.86 -7.05,27.78 9.58,21.54 40.27,18.83 45.7,-0.88 4.77,-17.3 -4.93,-19.46 -8.75,-28.36 3.1,-6.81 14.07,-19.74 21.79,-35.8 14.73,-0.79 23.51,-0.8 29.6,-12.84 14.19,-28 -25.88,-45.14 -40.08,-25.46 -10.99,15.24 1.02,29.38 1.03,30.33 -2.76,7 -22.43,34.82 -29.06,37.84 -4.21,0.34 -26.53,-27.59 -28.2,-30.54z"/>
   <path fill="#86CEFA" d="M157.23 551.24c7.42,3.91 30.25,27.35 30.8,38.2 -1.9,1.54 -0.63,0.61 -2.61,1.84l-34.03 20c-9.49,-4.6 -14.63,-8.44 -22.62,-13.87 -13.72,-9.34 -17.55,-7.54 -20.25,-15.27l48.71 -30.9zm-26.52 -33.88l5.51 -0.33c6.97,12.69 6.2,11.38 -13.76,25.93 -13.93,10.15 -26.12,6.26 -17.76,-11.32 -17.94,4.66 -15.09,1.56 -15.78,34.45 -0.3,14.55 -0.94,33.83 0.17,48.02 5.58,4.14 45.06,30.08 52.09,30.12 12.71,0.07 40.58,-26.2 52.57,-27.9l-0.49 -77.96c-6.79,-6.85 -19.93,-12.85 -29.77,-17.82 -10.96,-5.53 -21.01,-14.11 -29.61,-7.01 -2.67,2.21 -1.27,0.57 -3.17,3.82z"/>
   <path fill="#73B9EE" d="M1420.24 1744.32c10.48,2.96 18.83,8.13 30.83,10.9 21.76,5.02 51.91,4.31 73.28,-1.47 23.01,-6.22 20.17,-8.81 27.02,-11.25l-0.11 38.9c-0.14,35.39 4.67,41.48 -22.03,50.15 -27.91,9.05 -63.76,10.39 -90.55,-1.04 -18.7,-7.97 -17.31,-10.54 -17.32,-33.07l-1.12 -53.12zm1.44 -16.91c6.4,-15.29 42.41,-20.23 63.19,-20.45 15.69,-0.18 62.41,5.96 64.18,19.2 2.98,22.31 -111.41,30.63 -127.37,1.25zm140.69 90.46c2.81,-15.7 0.71,-58.52 0.67,-77.35 -0.06,-27.9 -12.27,-33.42 -36.47,-40.41 -21.02,-6.07 -47.25,-7.13 -70.55,-2.98 -18.78,3.35 -45.96,12.17 -47.22,30.2 -1.62,23.26 0.2,54.7 0.25,78.87 0.07,27.03 12.07,33.12 37.37,40.04 36.86,10.09 109.82,5.78 115.95,-28.37z"/>
   <path fill="#86CEFA" stroke="#24346A" stroke-width="0.87" stroke-miterlimit="2.61313" d="M242.13 1546.85l8.4 -0.51c2.08,7.08 2.66,28.57 1.04,36.05l-10.17 0.18c-0.69,-9.19 -1.2,-28.71 0.73,-35.72zm28.74 -19.14c10.84,0.08 8.11,10.07 8.18,20.24 0.04,7.59 0.87,20.23 -0.73,27.19 -5.02,3.05 -4.06,2.59 -8.75,-0.34 -1.14,-10.59 -3.09,-39.46 1.3,-47.09zm27.08 48.94c-1.03,-7.38 -1.91,-29.93 0.24,-36.25 8.59,-0.55 10.21,8.64 10.31,17.76 0.1,9.74 0.8,20.61 -10.55,18.49zm22.28 -64.96c-8.1,-5.26 -25.21,-12 -35.86,-16.35 -17.34,-7.08 -22.67,0.55 -38.29,7.38 -22.76,9.95 -16.73,7.54 -16.72,36.49 0.02,31.19 -2.8,47.35 35.46,70.35 7.58,4.55 10.96,5.22 18.74,0.51 6.18,-3.74 11.36,-7.24 16.32,-11.43 9.46,-7.97 18.34,-17.06 20.08,-33.4 1.34,-12.66 1.29,-40.76 0.27,-53.55z"/>
   <path fill="#73B9EE" d="M1860.33 513.79c11.52,-7.47 22.93,11.7 12.18,19.79 -5.58,4.2 -13.38,2.06 -15.91,-3.69 -3.3,-7.51 -1,-13.04 3.73,-16.1zm-4.03 -40.58c-34.08,11.01 -29.65,70.66 -19.13,95.46l0.84 1.87c7.93,21.47 1.08,30.78 11.93,36.26 10.88,5.5 32.04,4.71 35.31,-9.73 3.7,-16.36 12.26,-52.45 12.46,-65.94 0.44,-28.2 -9.26,-68.31 -41.41,-57.92z"/>
   <path fill="#73B9EE" d="M1689.99 332.19c0.93,-15.47 -12.4,-7.19 -24.24,-7.22 -7.62,-0.01 -13.23,-1.65 -18.39,-4.57 -30.9,-17.52 -28.97,-47.92 -15.19,-62.11 13.33,-13.72 24.92,-8.63 32.95,-15.07 1.04,-17.64 2.23,-26.26 12.63,-37.2 28.82,-30.33 71.97,-11.16 79.5,16.19 1.88,6.83 1.34,17.08 4.46,21.76 9.26,7.31 17.75,0.09 29.04,16.28 17.99,25.82 -1.44,65.86 -38.94,64.87 -8.3,-0.21 -14.33,-4.1 -20.38,0.05 -8.86,15.58 28.87,14.91 40.37,11.32 34.09,-10.61 47.83,-47.44 34.44,-77.13 -6.66,-14.76 -16.61,-21.45 -33.67,-26.16 -11.1,-83.79 -113.79,-65.46 -119.41,-6.93 -1.75,18.23 -16.79,0.59 -36.28,29.74 -19.27,28.83 -0.76,74.07 36.77,81.26 9.18,1.76 19.89,2.26 28.82,-1.09l7.52 -3.99z"/>
   <path fill="#73B9EE" d="M447.1 109.05c-14.71,3.48 -24.13,5.37 -33.99,21.29 -7.31,11.8 -7.21,35.01 -0.82,48.1 19.28,39.52 74.87,30.4 77.44,22.92 -0.38,-9.07 -2.1,-2.43 -2.79,-8.28 -8.77,-0.85 -52.06,9.28 -63.58,-24.71 -4.71,-13.92 -2.76,-25.14 5.36,-35.43 10.11,-12.81 23.49,-7.59 31.29,-13.81 0.89,-1.49 -0.66,-48.22 38.55,-50.85 16.48,-1.11 25.87,1.9 34.84,10.77 13.06,12.92 9.62,22.65 14.82,30.05 17.74,2.63 26.56,-0.68 38.03,10.45 19.8,19.21 16.69,51.16 -6.17,67.06 -11.65,8.11 -25.58,6.03 -42.19,7.48l-4.22 5.45c5.06,15.73 64.6,12.46 76.72,-33.79 5,-19.09 0.59,-37.27 -8.75,-49.89 -9.07,-12.24 -21.19,-18.71 -42.58,-20.32 -7.82,-9.53 -6.45,-21.11 -19.98,-30.9 -29.23,-21.16 -83.37,-15.9 -91.98,44.41z"/>
   <path fill="#73B9EE" d="M450.15 1741.88c2.08,-18.03 2.26,-24.31 12.84,-34.06 6.93,-6.39 19.97,-12.31 32.72,-12.33 31.34,-0.07 41.85,21.29 46.86,45.09 2.94,13.94 16.44,2.72 32.68,13.78 23.21,15.8 16.4,45.16 -2.72,57.21 -15.54,9.81 -26.43,3.39 -36.57,8.78l-0.06 6.26c2.1,-0.02 3.59,2.8 8.48,4.03 43.99,11.09 77.81,-49.6 47.49,-79.76 -15.16,-15.1 -21.95,-12.6 -32.1,-15.45 -11.67,-3.28 -2.47,-18.52 -22.67,-37.78 -9.29,-8.86 -22.16,-14.62 -38.48,-15.36 -22.52,-1.02 -44.22,9.37 -54.13,27.38 -11.42,20.75 2.86,16.38 -17.92,23.2 -20.99,6.89 -36.92,32.14 -30.81,56.96 6.01,24.47 31.49,47.25 62.18,36.92 0.07,-5.49 -1.35,-7.12 -3.39,-9.98 -15.84,-1.99 -20.23,-0.38 -31.95,-8.96 -18.42,-13.48 -18.36,-40.1 -2.56,-55.3 11.14,-10.72 19.48,-4.33 30.11,-10.63z"/>
   <path fill="#73B9EE" d="M1863.94 1218.99c28.1,-7.05 52.79,16.31 55.43,40.52 3.16,29.01 -18.49,52.51 -40.93,56.04 -40.88,6.41 -74.85,-39.38 -45.08,-78.53 7.57,-9.95 15.28,-14.19 30.58,-18.03zm45.48 96.83l22.09 24.79c4.26,4.26 18.05,25.29 25.44,10.4 -1.89,-7.47 -30.46,-34.56 -37.24,-42.31 1.25,-7.02 15.13,-23.59 12.96,-46.63 -5.58,-59.34 -70.09,-72.91 -105.04,-39.57 -40.2,38.34 -11.65,103.98 35.07,106.87 31.3,1.93 34.18,-8.51 46.72,-13.55z"/>
   <path fill="#73B9EE" d="M104.7 531.64l26.01 -14.28c1.9,-3.25 0.5,-1.61 3.17,-3.82 8.6,-7.1 18.65,1.48 29.61,7.01 9.84,4.97 22.98,10.97 29.77,17.82l0.49 77.96c-11.99,1.7 -39.86,27.97 -52.57,27.9 -7.03,-0.04 -46.51,-25.98 -52.09,-30.12 -1.11,-14.19 -0.47,-33.47 -0.17,-48.02 0.69,-32.89 -2.16,-29.79 15.78,-34.45zm33.79 -32.96c-12.39,3.72 -34.63,16.55 -48.6,23.51 -16.48,8.23 -11.66,29.99 -11.6,59.95 0.02,8.26 -1.15,28 0.26,34.86 1.89,9.21 29.6,22.88 41.54,29.92 23.89,14.09 20.4,12.35 48.39,-3.86l22.78 -13.62c18.73,-11.62 13.77,-15.29 13.72,-57.51 -0.05,-45.88 6.92,-37.26 -41.8,-64.25 -5.86,-3.23 -16.94,-11.32 -24.69,-9z"/>
   <path fill="#5A6FF7" d="M861.9 1171.85c12.12,-4.24 28.26,-34.24 32.58,-52.74 1.11,-4.74 5.42,-19.88 1.65,-23.4 -4.93,-3.74 -85.11,-0.31 -99.82,-1.67 2.18,4.92 58.36,68 65.59,77.81z"/>
   <polygon fill="#FEFEFE" points="1333.96,887.27 1358.26,886.61 1358.43,742.4 1333.76,742.39 "/>
   <path fill="#73B9EE" d="M1324.38 1848.65c4.58,1.94 4.79,2.04 6.02,7.16l-12.77 0.03c2.55,-4.19 2.34,-4.38 6.75,-7.19zm-15.87 -0.38c-20.33,-1.78 -18.19,-46.26 9.95,-48.19 31.53,-2.17 38.89,30.69 21.97,45.07 -5.24,-3.72 -7.41,-11.84 -17.5,-13.91 -8.6,3.98 -8.32,11.34 -14.42,17.03zm53.52 -12.89c3,-13.25 -0.71,-22.66 -6.83,-32.04 -22.45,-34.42 -66.32,-16.62 -72.43,14.01 -2.64,13.19 0.38,25.8 6.48,34.2 4.07,5.6 13.6,15.05 23.81,17.13 27.09,5.51 44.34,-12.87 48.97,-33.3z"/>
   <polygon fill="#FEFEFE" points="1182.43,886.62 1206.49,886.53 1206.58,757.43 1182.29,757.41 "/>
   <polygon fill="#FEFEFE" points="1281.89,887.23 1305.89,886.6 1306.11,781.05 1281.83,781.06 "/>
   <path fill="#FEFEFE" d="M1130.09 886.6l24.13 0.12 0.11 -102.81 -23.36 0.23c-3.81,19.31 -0.85,78.91 -0.88,102.46z"/>
   <path fill="#73B9EE" d="M478.67 167.58l5.09 3.51c9.17,-3.25 12.07,-14 20.26,-17.67l0.39 59.61c0.02,11.01 -2.02,20.29 5.88,24.21 12.42,1.99 8.19,-28.51 8.19,-35.88l0.02 -45.59c8.55,4.39 10.43,18.03 21.57,15.58 1.54,-2.61 2.14,-5.06 1.8,-9.38 -6.53,-6.99 -23.22,-30.46 -33.04,-32.93 -5.89,0.44 -19.64,21.16 -25.34,26.53 -4.37,4.13 -5.68,4.38 -4.82,12.01z"/>
   <path fill="#73B9EE" d="M1679.03 297.65l4.13 3.84c9.24,-2.5 12.27,-15.31 19.75,-16.27l1.39 74.87c3.4,5.61 10.14,0.73 10.15,0.73 3.25,-13.46 0.98,-58.98 1.4,-75.89 8.99,2.25 13.22,15.05 24.64,15.77 6.55,-8.96 3.72,-9.62 -7.87,-21.77 -20.06,-21.04 -19.23,-28.23 -40.41,-4.48 -4.66,5.21 -14.38,13.25 -13.18,23.2z"/>
   <path fill="#73B9EE" d="M461.21 1800.36c0.31,7.29 31.66,45.53 39.76,43.21 0.01,0 43.29,-36.6 33.71,-45.74 -8.05,-5.78 -19.12,17.91 -30.12,21.57 -0.19,-14.61 3.26,-45.69 -2.76,-55.68l-7.68 0.26c-5.88,10.67 -2.83,39.04 -2.63,54.06 -9.91,-5.4 -15.47,-20.83 -26.54,-21.79l-3.74 4.11z"/>
   <polygon fill="#FEFEFE" points="1232.03,831.04 1232.08,887.25 1256.14,886.44 1256.51,810.29 1232.01,810.3 "/>
   <path fill="#73B9EE" d="M1867.11 677.02c-7.23,-8.58 -5.26,-29.38 -14.48,-36.62 -2.79,-2.19 -1.69,-0.5 -4.77,-3.86 -4.08,-4.45 0.52,-2.27 -5.97,-3.91 -0.52,30.57 -3.2,25.23 12.68,55.48 3.33,6.33 6.25,9.43 14,8.89l3.34 -2.04c8.86,-7.06 18.1,-31.14 18.12,-47.17 0.02,-11.53 2.26,-15.96 -8.33,-17.24l-1.44 2.67c-0.67,2.3 -0.55,2.01 -0.91,4.37 -1.35,9.01 -3.66,7.2 -8.03,27.55 -1.19,5.56 -0.96,8.18 -4.21,11.88z"/>
   <polygon fill="#FEFEFE" points="1080.33,886.61 1104.62,886.57 1104.68,818.73 1080.32,818.87 "/>
   <path fill="#86CEFA" d="M1820.1 609.55c2.72,-1.59 3.18,-1.89 6.18,-4.22l-15.76 -33.71c-8.17,2.28 -11.59,11.48 -13.38,21.99 -1.17,6.88 -2.3,23.38 2.86,29.53l20.1 -13.59z"/>
   <path fill="#73B9EE" d="M1446.18 1771.81c-3.06,8.56 -0.77,24.07 -0.53,34.45 0.32,13.86 -0.26,20.21 15.54,17.29 0.78,-10.04 5,-47.42 -3.76,-51.18 -1.65,-0.7 -1.26,-0.66 -3.46,-1 -4.47,-0.69 -4.78,-0.42 -7.79,0.44z"/>
   <path fill="#86CEFA" d="M1921.09 571.87c-7.38,2.88 -14.44,16.47 -15.97,26.71 9.57,4.71 7.93,3.6 14.75,11.04 4.01,4.38 7.71,9.22 14.47,11.71 0.04,-15.87 -0.11,-42.91 -13.25,-49.46z"/>
   <path fill="#86CEFA" d="M128.2 583.6c2.04,3.51 16.67,13.77 21.86,13.97 5.55,0.21 19.21,-10.58 21.88,-13.97 -0.73,-3.23 -9.51,-21.32 -20.35,-16.1 -4.76,2.3 -20.75,12.78 -23.39,16.1z"/>
   <path fill="#73B9EE" d="M1524.02 1803.28l-0.47 -32.86c-16.84,-7.07 -15.04,4.86 -15.05,16.8 0,10.13 -0.87,23.14 0.43,33.34l14.49 -0.98 0.6 -16.3z"/>
   <path fill="#73B9EE" d="M1477.46 1825.16c1.02,3.18 -0.68,1.61 4.74,2.79 12.64,2.75 10.19,-7.46 10.16,-9.94 -0.21,-18.19 2.7,-35.59 -11.44,-30.57 -4.78,1.69 -3.65,3.53 -3.64,9.87 0,3.65 -0.33,26.25 0.18,27.85z"/>
   <path fill="#86CEFA" d="M1332.26 88.06l0.15 21.84 23.18 0.26c0.51,-4.11 0.28,-7.03 0.37,-10.94 0.04,-1.7 0.26,-4.55 0.25,-6 -0.08,-8.09 1.13,-3.25 -1.21,-5.54 -2.27,-2.23 -18.76,-0.56 -22.74,0.38z"/>
   <path fill="#86CEFA" d="M1363.7 110.11c7.08,0.36 15.67,-0.87 21.14,1l1.1 -26.04 -21.72 -0.02 -0.52 25.06z"/>
   <polygon fill="#86CEFA" points="1363.57,138.17 1386.56,138.46 1386.59,116.29 1364.07,116.09 "/>
   <polygon fill="#86CEFA" points="1333.26,137.96 1355.8,138.19 1356.1,116.27 1332.62,116.14 "/>
   <path fill="#86CEFA" d="M1303.75 110.58c7.27,-0.45 15.16,-1.62 21.38,0.6l0.56 -23.47 -21.47 -0.78 -0.47 23.65z"/>
   <path fill="#86CEFA" d="M1393.65 137.99c23.07,2.25 24.06,0.91 21.87,-20.4 -7.28,-2.05 -14.89,-1.18 -22.38,-0.4l0.51 20.8z"/>
   <polygon fill="#86CEFA" points="1304.45,138.27 1325.2,138.09 1325.95,116.11 1304.6,116.04 "/>
   <path fill="#86CEFA" d="M1274.38 117.44l-0.03 19.72c2.87,0.9 -0.19,0.39 4.9,0.83l17.28 0.24 0.35 -21.24 -22.5 0.45z"/>
   <polygon fill="#86CEFA" points="1363.43,77.16 1385.15,77.47 1385.37,56.1 1364.46,56.11 "/>
   <path fill="#73B9EE" d="M1023.23 85.11c2.64,6.3 -3.04,1.47 5.14,5.27 0.03,0.01 6.25,1.81 6.9,1.99 6.36,1.8 9.8,2.65 16.78,2.94 0.48,-8.71 -1.58,-17.84 -6.33,-24.02 -6.99,0.67 -14.84,8.29 -22.49,13.82z"/>
   <path fill="#73B9EE" d="M1009.25 108.32c-3.61,3.42 -12.38,19.06 -13.01,22.84 12.57,4.27 15.71,2.4 27.96,0.26 -0.36,-2.73 -8.86,-21.5 -14.95,-23.1z"/>
   <path fill="#73B9EE" d="M1048.66 106.53c-4.01,-2.31 -24.47,-7.27 -27.96,-7.48 0.72,6.06 9.13,21.47 14.81,25.89 5.55,-2.93 12.98,-10.89 13.15,-18.41z"/>
   <path fill="#73B9EE" d="M968.74 94.54c6.8,-0.19 23.24,-3.85 27.18,-6.93 -6.48,-4.59 -16.59,-15.11 -23.14,-16.31 -4.02,5.74 -4.96,15.75 -4.04,23.24z"/>
   <path fill="#73B9EE" d="M1015.04 77.09c7.46,-1.22 20.15,-11.76 22.28,-17.25 -3.53,-4.52 -14.3,-10.72 -21.86,-7.93l-0.42 25.18z"/>
   <path fill="#73B9EE" d="M971.38 106.27c1.11,6.55 10.22,17.68 16.52,14.31 4.2,-2.24 11,-16.16 11.56,-21.44 -6.39,0.16 -22.88,4.41 -28.08,7.13z"/>
   <path fill="#73B9EE" d="M981.86 61.3c2.54,4.38 14.3,14.68 21.48,15.97l0.73 -25.46c-7.41,-0.58 -19.05,5.23 -22.21,9.49z"/>
   <path fill="#4E75F3" d="M1562.83 284.52c0.98,5.65 4.25,8.57 9.57,9.97l4.43 -5.35c-2.47,-5.2 -5.65,-6.53 -10.26,-8.94 -3.04,2.46 -1.7,1.18 -3.74,4.32z"/>
   <path fill="#4E75F3" d="M1534.47 259.64c-0.06,5.3 -0.57,6.09 3.7,9.57 1.42,1.15 5.82,4.32 8.06,2.2 5.65,-5.36 -3.66,-12.16 -11.76,-11.77z"/>
   <path fill="#4E75F3" d="M435.29 286.68c7.9,1.77 13.18,-4.24 13.24,-11.97 -7.18,0.01 -14.05,3.63 -13.24,11.97z"/>
   <path fill="#4E75F3" d="M1550.84 1680.21c6.71,-0.25 7.48,-1.91 10.98,-5.32 0.21,-3.96 -0.24,-5.73 -1.61,-8.11 -6.27,0.21 -10.67,5.88 -9.37,13.43z"/>
   <path fill="#4E75F3" d="M128.33 1142.53c-1.61,1.4 -1.58,-2.4 -1.73,4.23 -0.08,3.68 3.49,13.89 8.43,8.61 3.22,-3.45 -1.65,-17.26 -6.7,-12.84z"/>
   <path fill="#4E75F3" d="M698.39 132.79c1.58,3.34 2.47,5.48 8.73,4.5 5.2,-0.82 6.31,-3.48 5.05,-7.8 -0.02,-0.01 -0.19,-2.48 -7.54,-1.04 -5.63,1.11 -4.67,1.88 -6.24,4.34z"/>
   <path fill="#4E75F3" d="M640.52 155.84c7.33,4.23 17.76,0.47 13.7,-6.3 -2.23,-3.7 -5.7,-1.67 -7.91,-0.43 -3.86,2.16 -4.88,3.08 -5.79,6.73z"/>
   <path fill="#4E75F3" d="M865.77 92.4l-8.97 -1.45c-2.34,3.02 -6.93,8.34 0.76,9.94 7.67,1.59 9.63,-1.88 8.21,-8.49z"/>
   <path fill="#4E75F3" d="M117.6 1077.87c-1.69,3.28 -2.22,5.6 -1.21,10.5 1.03,4.95 1.47,5.37 6.43,4.93 3.28,-7.35 0.47,-16.77 -5.22,-15.43z"/>
   <path fill="#4E75F3" d="M1258.73 1830.6c1.35,-2.44 3.9,-1.71 3.97,-5.52 0.14,-7.2 -13.74,-6 -13.4,5.56l9.43 -0.04z"/>
   <path fill="#4E75F3" d="M257.07 498.37c5.34,-0.53 11.91,-8.05 10.5,-14.7 -7.5,-0.69 -12.36,5.82 -10.5,14.7z"/>
   <path fill="#4E75F3" d="M397.3 320.21c8.9,0.72 12.73,-3.19 12.32,-12.24 -7.06,-0.16 -12.91,5.49 -12.32,12.24z"/>
   <path fill="#4E75F3" d="M1495 231.75c-0.29,-7.32 -5.8,-10.49 -14.31,-9.67 -0.38,8.03 5.85,10.71 14.31,9.67z"/>
   <path fill="#4E75F3" d="M1751.62 489.81c1.04,-7.94 -3.85,-17.44 -9.82,-11.12 -4.1,4.34 2.94,11 9.82,11.12z"/>
   <path fill="#4E75F3" d="M149.88 713.35c-13.12,9.48 3.48,19.16 5.63,4.05 0.57,-3.99 -0.82,-7.54 -5.63,-4.05z"/>
   <path fill="#4E75F3" d="M1874.73 1174.12c10.44,0.88 10.37,-7.01 6.52,-13.64 -7.23,0.79 -7.75,6.07 -6.52,13.64z"/>
   <path fill="#4E75F3" d="M1614.09 1627.55c-5.76,0.08 -16.67,7.07 -12.72,11.09 4.27,4.35 13.19,-2.85 12.72,-11.09z"/>
   <path fill="#4E75F3" d="M1520.94 250.66c1.17,-7.72 -3.84,-13.05 -12.09,-10.87 -0.11,6.74 4.67,11.79 12.09,10.87z"/>
   <path fill="#4E75F3" d="M1824.18 1342.87c-10.4,-3 -12.28,7.48 -9.91,10 5.83,6.17 10.19,-3.77 9.91,-10z"/>
   <path fill="#4E75F3" d="M431.78 1651.71c5.05,-4.76 -4.63,-11.05 -12.62,-9.47 -0.7,5.67 8.8,13.08 12.62,9.47z"/>
   <path fill="#4E75F3" d="M742.7 1828.83c-1.28,-6.57 -5.93,-10.59 -14.08,-10.01 -3.27,8.66 7.85,10.26 14.08,10.01z"/>
   <path fill="#4E75F3" d="M789.77 111.44c3.87,0.99 5.05,1.54 9.19,0.76 5.02,-0.96 5.05,-2.08 5.9,-5.67 -5.54,-5.4 -15.31,-2.21 -15.09,4.91z"/>
   <path fill="#4E75F3" d="M1770.03 517.26c0.39,-7.13 -4.12,-11.82 -10.99,-12.49 -0.22,8.42 1.61,14.83 10.99,12.49z"/>
   <path fill="#4E75F3" d="M130.14 788.66l6.76 -0.62c7.06,-16.27 -9.79,-18.75 -6.76,0.62z"/>
   <path fill="#4E75F3" d="M1657.53 385.18c2.52,4.14 7.68,7.47 14.03,7.33 0.31,-9.53 -10.79,-15.16 -14.03,-7.33z"/>
   <path fill="#4E75F3" d="M1709.8 436.46c0.08,-0.17 4.08,-3.34 -1.43,-9.27 -2.1,-2.25 -4.01,-3.37 -7.94,-2.96 -0.41,4.26 0.43,6.04 2.23,8.73 5.32,7.95 7.08,3.53 7.14,3.5z"/>
   <path fill="#4E75F3" d="M794.16 1844.71c3.63,0.77 5.15,0.08 7.34,-1.01 -0.73,-7.91 -9.55,-11.85 -14.39,-3.95 2.22,2.18 0.84,3.65 7.05,4.96z"/>
   <path fill="#4E75F3" d="M1575.91 1661.25c7.7,0.46 13.99,-4.78 14.72,-10.53 -8.88,-2.12 -13.76,3.67 -14.72,10.53z"/>
   <path fill="#4E75F3" d="M759.49 117.1c6.45,2.28 8.96,2.97 14.58,-1.82 -0.83,-3.62 -1.28,-5.46 -6.84,-5.25 -5.05,0.19 -6.72,2 -7.74,7.07z"/>
   <path fill="#4E75F3" d="M1199.93 1844.92c3.16,-3.18 4.33,-1.75 3.9,-8.63 -5.76,-0.77 -11.05,0.19 -13.73,4.92 2.78,4.28 3.17,4.41 9.83,3.71z"/>
   <path fill="#4E75F3" d="M155.24 695.09c5.72,-0.17 8.96,-4.84 8.49,-11.67l-4.73 -3.26c-4.23,5 -5.27,7.27 -3.76,14.93z"/>
   <path fill="#4E75F3" d="M669.96 144.46c5.36,5.41 13.62,2.82 14.14,-6.19 -5.87,-1.2 -12.49,-0.06 -14.14,6.19z"/>
   <path fill="#4E75F3" d="M1165.7 106.44c4.55,2.59 7.29,2.98 13.48,0.88 0.74,-4.55 -0.61,-6.12 -5.19,-6.9 -6.55,-1.12 -7.93,0.33 -8.29,6.02z"/>
   <path fill="#4E75F3" d="M1733.9 462.23c-0.97,-3.34 -8.61,-14.13 -12.21,-7.87 -3.23,5.62 4.74,12.1 12.21,7.87z"/>
   <path fill="#4E75F3" d="M145.03 743.1c-10.81,-2.02 -9.36,9.99 -6.61,12.64 4.99,4.8 7.22,-7.44 6.61,-12.64z"/>
   <path fill="#4E75F3" d="M1783 1400.86l0.32 7.59c12.73,1.36 13.82,-22.86 -0.32,-7.59z"/>
   <path fill="#4E75F3" d="M728.27 126.27c7.8,1.54 14.9,1.79 15.11,-6.22 -7,-1.9 -14.35,-1.2 -15.11,6.22z"/>
   <path fill="#4E75F3" d="M240.5 526.44c5.92,-1.42 8.98,-5.57 7.83,-13.48 -8.83,-1.79 -10.23,6.59 -7.83,13.48z"/>
   <path fill="#4E75F3" d="M1209.04 113.82c0.28,-5.14 0.13,-5.79 -4.15,-7.46 -3.1,-1.22 -6.36,-1.19 -7.76,1.21 -3.04,5.24 5.92,9.22 11.91,6.25z"/>
   <path fill="#4E75F3" d="M1220.62 1836.84c5.33,4.62 13.73,0.66 12.68,-3.96 -0.68,-3 -3.7,-3.95 -7.51,-2.87 -4.31,1.22 -4.81,2.89 -5.17,6.83z"/>
   <path fill="#4E75F3" d="M128.07 1124.6c2.33,-4.95 3.73,-13.47 -6.04,-14.51 -0.63,3.1 -1.05,5.97 0.05,9.12 1.55,4.45 1.8,4.61 5.99,5.39z"/>
   <path fill="#4E75F3" d="M1131.68 1852.88c5.64,5.12 11.56,1.1 14.74,-2.91 -4.97,-6.6 -12.03,-4.1 -14.74,2.91z"/>
   <path fill="#4E75F3" d="M1625.54 1616.01c5.93,1.5 10.18,-1.07 11.7,-4.79 2.77,-6.76 0.23,-2.78 -0.18,-4.09 -7.05,-1.61 -11.87,1.81 -11.52,8.88z"/>
   <path fill="#4E75F3" d="M1881.62 1143.95c7.74,-0.86 11.6,-8.24 5.92,-14.21 -6.28,1.54 -6.08,6.28 -5.92,14.21z"/>
   <path fill="#4E75F3" d="M1798.92 1381.47c8.32,0.76 10.59,-3.99 11.38,-11.55 -7.82,0 -11.16,3.75 -11.38,11.55z"/>
   <path fill="#4E75F3" d="M864.2 1855.8c-3.86,-4.9 -7.38,-7.3 -15.11,-4.03 1.25,3.59 0.74,5.1 6.02,6.38 4.82,1.18 6.11,0.26 9.09,-2.35z"/>
   <path fill="#4E75F3" d="M1161.09 1848.51c6.4,4.36 12.54,1.16 14.11,-4.24 -5.3,-3.09 -13.45,-4 -14.11,4.24z"/>
   <path fill="#4E75F3" d="M822.44 102.15c3.85,6.98 15.5,4.82 13.2,-2.79 -4.53,-2.58 -10.25,-2.15 -13.2,2.79z"/>
   <path fill="#4E75F3" d="M273.31 473.3c6.39,0.48 13.5,-6.61 9.36,-10.76 -4.21,-4.24 -10.2,3.71 -9.36,10.76z"/>
   <path fill="#4E75F3" d="M354.15 1571.52c-3.02,7.13 3.93,13.57 9.34,13.5 0.63,-7.45 -3.39,-12.45 -9.34,-13.5z"/>
   <path fill="#4E75F3" d="M226.49 1404.22c1.91,-7.73 -1.88,-12.66 -7.99,-13.71 -3.24,6.72 2.79,13.23 7.99,13.71z"/>
   <path fill="#4E75F3" d="M653.13 1791.51c4.08,-4.39 -6.58,-8.57 -12.38,-8.02 -0.84,6.34 8.53,12.16 12.38,8.02z"/>
   <path fill="#4E75F3" d="M1890.45 1083.74c4.43,-0.01 5.98,-0.61 6.58,-6.03 0.55,-4.85 -1.19,-5.84 -5.12,-6.66 -3.51,3.74 -4.81,6.46 -1.46,12.69z"/>
   <path fill="#4E75F3" d="M456.67 266.79c6.72,2.91 11.88,-1.61 11.52,-9.87 -6.73,0.19 -11.36,3.62 -11.52,9.87z"/>
   <path fill="#4E75F3" d="M682.12 1807.47c0.12,-7.52 -4.55,-10.03 -12.38,-9.69 -0.2,7.09 5.39,10.24 12.38,9.69z"/>
   <path fill="#4E75F3" d="M1689.12 417.09l3.7 -2.62c-0.79,-5.9 -4.29,-9.45 -10.81,-9.89 0.07,6.89 2.04,10.06 7.11,12.51z"/>
   <path fill="#4E75F3" d="M135.08 1184.45c6.24,-0.15 5.74,-0.98 8.29,-4.14 -0.81,-5.15 -3.23,-8.47 -8.91,-8.24l0.62 12.38z"/>
   <path fill="#4E75F3" d="M408.82 1631.67c0.63,-6.07 -4.75,-11.22 -11.71,-10.15 -0.79,6.41 4.99,10.55 11.71,10.15z"/>
   <path fill="#4E75F3" d="M1885.01 792.72c0.63,-6.62 0.01,-9.75 -4.77,-12.29 -6.11,3.92 -4.19,14.56 4.77,12.29z"/>
   <path fill="#4E75F3" d="M1888.13 1115.46c5.78,-2.15 6.16,-7.5 4.55,-14.77 -7.6,-0.2 -7.55,9.18 -4.55,14.77z"/>
   <path fill="#4E75F3" d="M413.93 304.95c8.12,0.75 12.61,-3.15 10.04,-9.91 -6.75,-0.45 -9.9,3.11 -10.04,9.91z"/>
   <path fill="#4E75F3" d="M772.28 1833.92c-2.14,-5.72 -9.08,-7.41 -13.38,-2.92 0.95,1.32 -0.53,4.22 5.65,5.41 4.67,0.9 5.21,0.1 7.73,-2.49z"/>
   <path fill="#4E75F3" d="M827.64 1844.73c-5.95,-2.02 -5.53,-0.6 -8.12,2.32 1.06,1.19 -0.09,3.28 4.63,4.61 7.3,2.06 7.61,-1.26 7.62,-1.27 0.59,-2.57 1.03,-3.9 -4.13,-5.66z"/>
   <path fill="#4E75F3" d="M1871.99 735.76c3.21,-5.07 2.77,-12.8 -6.03,-11.83 -0.8,6.77 -0.19,11.85 6.03,11.83z"/>
   <path fill="#4E75F3" d="M1135.16 100.67c5.09,4.06 14.62,4.13 11.62,-1.86 -1.46,-2.9 -9.89,-7.13 -11.62,1.86z"/>
   <path fill="#4E75F3" d="M1765.3 1428.33l-0.04 7.1c6.05,-0.63 9.31,-4.55 9.27,-10.98 -5.44,-0.49 -6.03,0.81 -9.23,3.88z"/>
   <path fill="#4E75F3" d="M384.86 1607.97c3.64,-4.02 -4.34,-8.89 -9.91,-8.64 -0.59,5.03 5.54,13.47 9.91,8.64z"/>
   <path fill="#4E75F3" d="M710.92 1815.84c-1.94,-4.97 -6.47,-7.35 -12.38,-5.41 0.43,4.79 0.41,5.71 4.87,6.69 3.66,0.8 5.48,-0.15 7.51,-1.28z"/>
   <path fill="#4E75F3" d="M242.42 1428.88c1.04,-6.71 -1.24,-9.04 -4.95,-11.83 -8.32,4.35 0.52,11.73 4.95,11.83z"/>
   <path fill="#4E75F3" d="M260.29 1452.61c0.84,-6.6 -2.14,-9.11 -8.18,-9.66 -0.02,6.72 1.59,10.36 8.18,9.66z"/>
   <path fill="#4E75F3" d="M1877.32 762.67l1.03 -7.61c-2.48,-1.88 -2.43,-2.71 -6.21,-2.9 -1.04,6.15 -0.42,9.29 5.18,10.51z"/>
   <path fill="#4E75F3" d="M1886.08 826.38c3.93,-3.81 3.06,-10.05 -2.45,-11.63 -0.45,6.38 -1.16,8.42 2.45,11.63z"/>
   <polyline fill="none" stroke="#794FEA" stroke-width="6.06" stroke-miterlimit="2.61313" points="629.66,876.81 677.44,828.06 720.04,850.78 760.55,800.61 801.64,827.87 863.74,758.39 898.38,778.27 943.82,724.69 "/>
   <path fill="#FEFEFE" fill-rule="nonzero" d="M1051.34 1031.1l6.04 -0.66c0.14,1.23 0.53,2.15 1.14,2.74 0.61,0.59 1.43,0.89 2.44,0.89 1.28,0 2.36,-0.6 3.25,-1.79 0.89,-1.18 1.46,-3.65 1.71,-7.38 -1.57,1.82 -3.52,2.72 -5.87,2.72 -2.55,0 -4.76,-0.98 -6.61,-2.95 -1.85,-1.98 -2.78,-4.54 -2.78,-7.7 0,-3.3 0.98,-5.96 2.94,-7.97 1.96,-2.02 4.45,-3.02 7.48,-3.02 3.29,0 6,1.28 8.11,3.82 2.11,2.56 3.17,6.76 3.17,12.61 0,5.95 -1.1,10.24 -3.29,12.88 -2.2,2.64 -5.06,3.95 -8.58,3.95 -2.54,0 -4.58,-0.68 -6.14,-2.04 -1.56,-1.35 -2.57,-3.39 -3.01,-6.1zm14.03 -13.63c0,-2 -0.47,-3.56 -1.39,-4.66 -0.91,-1.11 -1.98,-1.66 -3.19,-1.66 -1.15,0 -2.1,0.45 -2.86,1.36 -0.76,0.91 -1.14,2.39 -1.14,4.45 0,2.09 0.42,3.63 1.24,4.61 0.82,0.98 1.85,1.47 3.09,1.47 1.2,0 2.2,-0.47 3.02,-1.41 0.82,-0.95 1.23,-2.33 1.23,-4.16z"/>
   <path id="_1_17" fill="#FEFEFE" fill-rule="nonzero" d="M1076.58 1031.1l6.04 -0.66c0.14,1.23 0.53,2.15 1.14,2.74 0.61,0.59 1.43,0.89 2.44,0.89 1.28,0 2.36,-0.6 3.25,-1.79 0.89,-1.18 1.46,-3.65 1.71,-7.38 -1.57,1.82 -3.52,2.72 -5.87,2.72 -2.55,0 -4.76,-0.98 -6.61,-2.95 -1.85,-1.98 -2.78,-4.54 -2.78,-7.7 0,-3.3 0.98,-5.96 2.94,-7.97 1.96,-2.02 4.45,-3.02 7.48,-3.02 3.29,0 6,1.28 8.11,3.82 2.11,2.56 3.17,6.76 3.17,12.61 0,5.95 -1.1,10.24 -3.29,12.88 -2.2,2.64 -5.06,3.95 -8.58,3.95 -2.54,0 -4.58,-0.68 -6.14,-2.04 -1.56,-1.35 -2.57,-3.39 -3.01,-6.1zm14.03 -13.63c0,-2 -0.47,-3.56 -1.39,-4.66 -0.91,-1.11 -1.98,-1.66 -3.19,-1.66 -1.15,0 -2.1,0.45 -2.86,1.36 -0.76,0.91 -1.14,2.39 -1.14,4.45 0,2.09 0.42,3.63 1.24,4.61 0.82,0.98 1.85,1.47 3.09,1.47 1.2,0 2.2,-0.47 3.02,-1.41 0.82,-0.95 1.23,-2.33 1.23,-4.16z"/>
   <polygon id="_2_18" fill="#FEFEFE" fill-rule="nonzero" points="1102.91,1038.65 1102.91,1032.43 1109.13,1032.43 1109.13,1038.65 "/>
   <path id="_3_19" fill="#FEFEFE" fill-rule="nonzero" d="M1114.43 1031.1l6.04 -0.66c0.14,1.23 0.53,2.15 1.14,2.74 0.61,0.59 1.43,0.89 2.44,0.89 1.27,0 2.35,-0.6 3.25,-1.79 0.89,-1.18 1.46,-3.65 1.71,-7.38 -1.57,1.82 -3.52,2.72 -5.87,2.72 -2.55,0 -4.76,-0.98 -6.61,-2.95 -1.86,-1.98 -2.78,-4.54 -2.78,-7.7 0,-3.3 0.98,-5.96 2.94,-7.97 1.95,-2.02 4.45,-3.02 7.48,-3.02 3.29,0 5.99,1.28 8.1,3.82 2.11,2.56 3.17,6.76 3.17,12.61 0,5.95 -1.09,10.24 -3.29,12.88 -2.19,2.64 -5.05,3.95 -8.57,3.95 -2.54,0 -4.58,-0.68 -6.15,-2.04 -1.55,-1.35 -2.56,-3.39 -3,-6.1zm14.02 -13.63c0,-2 -0.46,-3.56 -1.38,-4.66 -0.91,-1.11 -1.98,-1.66 -3.19,-1.66 -1.15,0 -2.1,0.45 -2.86,1.36 -0.76,0.91 -1.14,2.39 -1.14,4.45 0,2.09 0.41,3.63 1.24,4.61 0.82,0.98 1.85,1.47 3.09,1.47 1.2,0 2.2,-0.47 3.02,-1.41 0.82,-0.95 1.22,-2.33 1.22,-4.16z"/>
   <path id="_4_20" fill="#FEFEFE" fill-rule="nonzero" d="M1139.67 1031.1l6.04 -0.66c0.14,1.23 0.53,2.15 1.14,2.74 0.61,0.59 1.43,0.89 2.44,0.89 1.27,0 2.35,-0.6 3.25,-1.79 0.89,-1.18 1.46,-3.65 1.71,-7.38 -1.57,1.82 -3.52,2.72 -5.87,2.72 -2.55,0 -4.76,-0.98 -6.61,-2.95 -1.86,-1.98 -2.78,-4.54 -2.78,-7.7 0,-3.3 0.98,-5.96 2.94,-7.97 1.95,-2.02 4.45,-3.02 7.48,-3.02 3.29,0 5.99,1.28 8.1,3.82 2.11,2.56 3.17,6.76 3.17,12.61 0,5.95 -1.09,10.24 -3.29,12.88 -2.19,2.64 -5.05,3.95 -8.57,3.95 -2.54,0 -4.58,-0.68 -6.15,-2.04 -1.55,-1.35 -2.56,-3.39 -3,-6.1zm14.02 -13.63c0,-2 -0.46,-3.56 -1.38,-4.66 -0.92,-1.11 -1.98,-1.66 -3.19,-1.66 -1.15,0 -2.1,0.45 -2.86,1.36 -0.76,0.91 -1.14,2.39 -1.14,4.45 0,2.09 0.41,3.63 1.24,4.61 0.82,0.98 1.85,1.47 3.09,1.47 1.2,0 2.2,-0.47 3.02,-1.41 0.82,-0.95 1.22,-2.33 1.22,-4.16z"/>
   <path id="_5_21" fill="#FEFEFE" fill-rule="nonzero" d="M1164.73 1014.12c0,-2.9 0.64,-5.05 1.92,-6.45 1.28,-1.4 3.01,-2.1 5.2,-2.1 2.26,0 4.03,0.69 5.31,2.09 1.28,1.39 1.91,3.54 1.91,6.46 0,2.91 -0.63,5.05 -1.91,6.45 -1.28,1.4 -3.02,2.11 -5.21,2.11 -2.26,0 -4.02,-0.7 -5.3,-2.09 -1.28,-1.39 -1.92,-3.55 -1.92,-6.47zm4.86 0c0,2.1 0.24,3.5 0.73,4.22 0.37,0.53 0.88,0.8 1.53,0.8 0.67,0 1.19,-0.27 1.56,-0.8 0.48,-0.72 0.71,-2.12 0.71,-4.22 0,-2.09 -0.23,-3.49 -0.71,-4.2 -0.37,-0.54 -0.89,-0.81 -1.56,-0.81 -0.65,0 -1.16,0.26 -1.53,0.79 -0.49,0.72 -0.73,2.13 -0.73,4.22zm7.01 25.8l-4.61 0 17.3 -34.35 4.51 0 -17.2 34.35zm10.05 -8.57c0,-2.91 0.64,-5.06 1.92,-6.47 1.28,-1.41 3.03,-2.11 5.24,-2.11 2.23,0 3.99,0.7 5.27,2.11 1.27,1.41 1.91,3.56 1.91,6.47 0,2.94 -0.64,5.1 -1.91,6.51 -1.28,1.4 -3.02,2.11 -5.21,2.11 -2.26,0 -4.02,-0.71 -5.3,-2.11 -1.28,-1.41 -1.92,-3.57 -1.92,-6.51zm4.86 0.02c0,2.12 0.24,3.53 0.73,4.23 0.37,0.56 0.88,0.83 1.53,0.83 0.67,0 1.18,-0.27 1.54,-0.8 0.49,-0.72 0.73,-2.14 0.73,-4.26 0,-2.12 -0.23,-3.54 -0.71,-4.26 -0.37,-0.54 -0.89,-0.8 -1.56,-0.8 -0.66,0 -1.18,0.26 -1.53,0.8 -0.49,0.72 -0.73,2.14 -0.73,4.26z"/>
   <path fill="#FEFEFE" fill-rule="nonzero" d="M1308.03 1038.65l-6.22 0 0 -23.52c-2.27,2.13 -4.95,3.71 -8.03,4.73l0 -5.67c1.63,-0.53 3.39,-1.54 5.29,-3.03 1.9,-1.48 3.2,-3.21 3.91,-5.18l5.05 0 0 32.67z"/>
   <path id="_1_22" fill="#FEFEFE" fill-rule="nonzero" d="M1338.4 1032.89l0 5.76 -21.83 0c0.23,-2.19 0.94,-4.26 2.12,-6.22 1.18,-1.96 3.52,-4.56 7,-7.81 2.81,-2.62 4.52,-4.39 5.16,-5.32 0.85,-1.29 1.28,-2.56 1.28,-3.82 0,-1.39 -0.37,-2.46 -1.12,-3.21 -0.74,-0.75 -1.77,-1.12 -3.07,-1.12 -1.31,0 -2.33,0.39 -3.11,1.18 -0.76,0.78 -1.2,2.08 -1.32,3.9l-6.22 -0.62c0.37,-3.43 1.53,-5.9 3.48,-7.4 1.95,-1.49 4.39,-2.23 7.32,-2.23 3.2,0 5.72,0.87 7.56,2.6 1.83,1.73 2.75,3.89 2.75,6.47 0,1.46 -0.27,2.85 -0.79,4.19 -0.52,1.32 -1.35,2.7 -2.5,4.16 -0.75,0.96 -2.11,2.35 -4.08,4.16 -1.97,1.8 -3.22,3 -3.74,3.6 -0.53,0.59 -0.96,1.17 -1.28,1.73l12.39 0z"/>
   <path id="_2_23" fill="#FEFEFE" fill-rule="nonzero" d="M1353.13 1005.98c3.15,0 5.61,1.12 7.38,3.38 2.11,2.66 3.17,7.08 3.17,13.26 0,6.16 -1.06,10.59 -3.19,13.29 -1.76,2.22 -4.21,3.33 -7.36,3.33 -3.16,0 -5.71,-1.22 -7.65,-3.65 -1.93,-2.44 -2.9,-6.79 -2.9,-13.03 0,-6.14 1.07,-10.56 3.19,-13.25 1.76,-2.22 4.21,-3.33 7.36,-3.33zm0 5.17c-0.74,0 -1.41,0.24 -1.98,0.73 -0.58,0.47 -1.04,1.33 -1.36,2.58 -0.42,1.61 -0.63,4.34 -0.63,8.16 0,3.82 0.19,6.45 0.57,7.88 0.38,1.43 0.85,2.38 1.43,2.86 0.57,0.47 1.23,0.71 1.97,0.71 0.74,0 1.41,-0.24 1.99,-0.73 0.57,-0.47 1.03,-1.34 1.35,-2.58 0.42,-1.6 0.63,-4.32 0.63,-8.14 0,-3.82 -0.19,-6.45 -0.57,-7.88 -0.37,-1.43 -0.85,-2.39 -1.43,-2.86 -0.57,-0.49 -1.23,-0.73 -1.97,-0.73z"/>
   <rect fill="#794DF1" stroke="#794DF1" stroke-width="2.02" stroke-miterlimit="2.61313" x="1080.32" y="818.87" width="24.3" height="67.7"/>
   <rect fill="#794DF1" stroke="#794DF1" stroke-width="2.02" stroke-miterlimit="2.61313" x="1129.34" y="784" width="24.3" height="102.57"/>
   <rect fill="#5A6FF7" stroke="#5A6FF7" stroke-width="2.02" stroke-miterlimit="2.61313" x="1182.43" y="757.42" width="24.3" height="129.16"/>
   <rect fill="#794DF1" stroke="#794DF1" stroke-width="2.02" stroke-miterlimit="2.61313" x="1231.45" y="810.3" width="24.3" height="76.28"/>
   <rect fill="#794DF1" stroke="#794DF1" stroke-width="2.02" stroke-miterlimit="2.61313" x="1280.46" y="781.05" width="24.3" height="105.53"/>
   <rect fill="#5A6FF7" stroke="#5A6FF7" stroke-width="2.02" stroke-miterlimit="2.61313" x="1333.56" y="742.4" width="24.3" height="144.18"/>
   <path fill="#FEFEFE" fill-rule="nonzero" d="M1082.09 1148.93c3.15,0 5.61,1.13 7.38,3.38 2.11,2.67 3.17,7.09 3.17,13.26 0,6.17 -1.06,10.6 -3.19,13.29 -1.76,2.23 -4.21,3.34 -7.36,3.34 -3.16,0 -5.71,-1.22 -7.65,-3.66 -1.93,-2.43 -2.9,-6.78 -2.9,-13.03 0,-6.13 1.07,-10.55 3.19,-13.24 1.76,-2.23 4.21,-3.34 7.36,-3.34zm0 5.18c-0.74,0 -1.41,0.24 -1.98,0.72 -0.58,0.48 -1.04,1.34 -1.35,2.59 -0.43,1.61 -0.64,4.33 -0.64,8.15 0,3.83 0.19,6.45 0.57,7.88 0.38,1.43 0.85,2.39 1.43,2.86 0.57,0.48 1.23,0.71 1.97,0.71 0.74,0 1.41,-0.24 1.99,-0.72 0.58,-0.48 1.03,-1.34 1.35,-2.59 0.42,-1.6 0.63,-4.31 0.63,-8.14 0,-3.82 -0.19,-6.44 -0.57,-7.87 -0.37,-1.43 -0.85,-2.39 -1.43,-2.87 -0.57,-0.48 -1.23,-0.72 -1.97,-0.72z"/>
   <polygon id="_1_24" fill="#FEFEFE" fill-rule="nonzero" points="1098.1,1181.61 1098.1,1175.39 1104.31,1175.39 1104.31,1181.61 "/>
   <path id="_2_25" fill="#FEFEFE" fill-rule="nonzero" d="M1130.45 1175.84l0 5.77 -21.83 0c0.23,-2.2 0.94,-4.27 2.12,-6.23 1.18,-1.96 3.52,-4.56 7,-7.8 2.8,-2.62 4.52,-4.4 5.16,-5.33 0.85,-1.28 1.28,-2.55 1.28,-3.82 0,-1.39 -0.37,-2.46 -1.12,-3.2 -0.74,-0.75 -1.77,-1.12 -3.08,-1.12 -1.3,0 -2.32,0.39 -3.1,1.18 -0.76,0.78 -1.2,2.08 -1.32,3.9l-6.22 -0.62c0.37,-3.44 1.53,-5.9 3.48,-7.4 1.95,-1.49 4.39,-2.24 7.32,-2.24 3.2,0 5.72,0.87 7.56,2.6 1.83,1.74 2.75,3.89 2.75,6.47 0,1.47 -0.27,2.86 -0.79,4.19 -0.52,1.32 -1.36,2.71 -2.5,4.16 -0.75,0.97 -2.11,2.35 -4.08,4.16 -1.98,1.81 -3.22,3 -3.75,3.6 -0.52,0.59 -0.95,1.17 -1.27,1.73l12.39 0z"/>
   <path id="_3_26" fill="#FEFEFE" fill-rule="nonzero" d="M1134.67 1157.08c0,-2.91 0.65,-5.05 1.93,-6.45 1.27,-1.4 3,-2.11 5.19,-2.11 2.26,0 4.03,0.7 5.31,2.09 1.28,1.39 1.91,3.55 1.91,6.47 0,2.9 -0.63,5.05 -1.91,6.45 -1.28,1.4 -3.02,2.1 -5.2,2.1 -2.26,0 -4.03,-0.69 -5.3,-2.09 -1.28,-1.39 -1.93,-3.54 -1.93,-6.46zm4.86 0c0,2.09 0.24,3.5 0.73,4.22 0.37,0.53 0.89,0.79 1.54,0.79 0.66,0 1.19,-0.26 1.56,-0.79 0.47,-0.72 0.71,-2.13 0.71,-4.22 0,-2.1 -0.24,-3.5 -0.71,-4.2 -0.37,-0.54 -0.9,-0.82 -1.56,-0.82 -0.65,0 -1.17,0.27 -1.54,0.8 -0.49,0.72 -0.73,2.12 -0.73,4.22zm7.01 25.8l-4.61 0 17.3 -34.36 4.51 0 -17.2 34.36zm10.05 -8.57c0,-2.91 0.65,-5.07 1.92,-6.48 1.28,-1.4 3.03,-2.11 5.25,-2.11 2.23,0 3.98,0.71 5.26,2.11 1.28,1.41 1.91,3.57 1.91,6.48 0,2.93 -0.63,5.1 -1.91,6.5 -1.28,1.41 -3.02,2.11 -5.2,2.11 -2.27,0 -4.03,-0.7 -5.31,-2.11 -1.27,-1.4 -1.92,-3.57 -1.92,-6.5zm4.86 0.01c0,2.12 0.24,3.54 0.73,4.24 0.37,0.55 0.89,0.82 1.54,0.82 0.66,0 1.18,-0.26 1.53,-0.8 0.49,-0.72 0.74,-2.14 0.74,-4.26 0,-2.11 -0.24,-3.54 -0.71,-4.25 -0.37,-0.54 -0.9,-0.81 -1.56,-0.81 -0.67,0 -1.18,0.27 -1.54,0.81 -0.49,0.71 -0.73,2.14 -0.73,4.25z"/>
   <path fill="#FEFEFE" fill-rule="nonzero" d="M1308.03 1181.61l-6.22 0 0 -23.53c-2.27,2.14 -4.95,3.72 -8.03,4.74l0 -5.67c1.63,-0.53 3.39,-1.54 5.29,-3.03 1.9,-1.48 3.2,-3.21 3.91,-5.19l5.05 0 0 32.68z"/>
   <path id="_1_27" fill="#FEFEFE" fill-rule="nonzero" d="M1338.4 1175.84l0 5.77 -21.83 0c0.23,-2.2 0.94,-4.27 2.12,-6.23 1.18,-1.96 3.52,-4.56 7,-7.8 2.81,-2.62 4.52,-4.4 5.16,-5.33 0.85,-1.28 1.28,-2.55 1.28,-3.82 0,-1.39 -0.37,-2.46 -1.12,-3.2 -0.74,-0.75 -1.77,-1.12 -3.07,-1.12 -1.31,0 -2.33,0.39 -3.11,1.18 -0.76,0.78 -1.2,2.08 -1.32,3.9l-6.22 -0.62c0.37,-3.44 1.53,-5.9 3.48,-7.4 1.95,-1.49 4.39,-2.24 7.32,-2.24 3.2,0 5.72,0.87 7.56,2.6 1.83,1.74 2.75,3.89 2.75,6.47 0,1.47 -0.27,2.86 -0.79,4.19 -0.52,1.32 -1.35,2.71 -2.5,4.16 -0.75,0.97 -2.11,2.35 -4.08,4.16 -1.97,1.81 -3.22,3 -3.74,3.6 -0.53,0.59 -0.96,1.17 -1.28,1.73l12.39 0z"/>
   <path id="_2_28" fill="#FEFEFE" fill-rule="nonzero" d="M1343.49 1158.05l5.71 0 0 3.22c2.05,-2.47 4.5,-3.71 7.33,-3.71 1.51,0 2.82,0.3 3.92,0.93 1.11,0.62 2.02,1.55 2.72,2.81 1.04,-1.26 2.16,-2.19 3.36,-2.81 1.19,-0.63 2.47,-0.93 3.83,-0.93 1.72,0 3.18,0.34 4.39,1.05 1.19,0.7 2.08,1.73 2.67,3.09 0.44,1 0.65,2.62 0.65,4.87l0 15.04 -6.22 0 0 -13.44c0,-2.34 -0.21,-3.85 -0.64,-4.52 -0.58,-0.88 -1.47,-1.33 -2.66,-1.33 -0.87,0 -1.7,0.27 -2.47,0.79 -0.77,0.54 -1.32,1.32 -1.66,2.34 -0.35,1.03 -0.51,2.65 -0.51,4.86l0 11.3 -6.22 0 0 -12.89c0,-2.29 -0.11,-3.77 -0.33,-4.43 -0.22,-0.66 -0.56,-1.16 -1.03,-1.49 -0.46,-0.32 -1.1,-0.48 -1.89,-0.48 -0.96,0 -1.82,0.26 -2.59,0.77 -0.77,0.52 -1.31,1.26 -1.65,2.24 -0.33,0.98 -0.5,2.59 -0.5,4.85l0 11.43 -6.21 0 0 -23.56z"/>
   <circle fill="none" transform="matrix(1.05954 0.173537 -0.168843 1.03089 1008.03 975.99)" r="717.4"/>
   <g>
    <path fill="#73B9EE" d="M55.71 906.2c2.08,-18.03 2.26,-24.31 12.84,-34.06 6.93,-6.39 19.98,-12.31 32.72,-12.33 31.35,-0.06 41.85,21.29 46.87,45.09 2.93,13.95 16.43,2.73 32.67,13.78 23.22,15.8 16.41,45.16 -2.72,57.22 -15.54,9.8 -26.43,3.39 -36.57,8.78l-0.05 6.26c2.09,-0.03 3.58,2.79 8.47,4.02 44,11.09 77.81,-49.6 47.49,-79.76 -15.16,-15.09 -21.94,-12.6 -32.1,-15.45 -11.66,-3.27 -2.47,-18.52 -22.66,-37.78 -9.29,-8.85 -22.17,-14.62 -38.48,-15.36 -22.53,-1.02 -44.23,9.37 -54.14,27.39 -11.42,20.75 2.86,16.37 -17.92,23.19 -20.99,6.89 -36.92,32.14 -30.81,56.96 6.01,24.48 31.44,48.23 62.13,37.9 0.07,-5.49 -1.29,-8.1 -3.34,-10.96 -15.84,-1.98 -20.23,-0.38 -31.95,-8.96 -18.42,-13.48 -18.36,-40.1 -2.56,-55.29 11.15,-10.72 19.49,-4.34 30.11,-10.64z"/>
    <polyline fill="none" stroke="#73B9EE" stroke-width="12.12" stroke-miterlimit="2.61313" points="131.48,987.09 63.53,986.09 111.39,953.35 "/>
    <line fill="none" stroke="#73B9EE" stroke-width="12.12" stroke-miterlimit="2.61313" x1="67.36" y1="987.51" x2="115.62" y2= "1028.4" />
   </g>
  </g>
 </g>
</svg>
