<?xml version="1.0" encoding="UTF-8"?>
<!DOCTYPE svg PUBLIC "-//W3C//DTD SVG 1.1//EN" "http://www.w3.org/Graphics/SVG/1.1/DTD/svg11.dtd">
<!-- Creator: CorelDRAW -->
<svg xmlns="http://www.w3.org/2000/svg" xml:space="preserve" width="2039px" height="2017px" version="1.1" shape-rendering="geometricPrecision" text-rendering="geometricPrecision" image-rendering="optimizeQuality" fill-rule="evenodd" clip-rule="evenodd"
viewBox="0 0 1980.84 1958.72"
 xmlns:xlink="http://www.w3.org/1999/xlink"
 xmlns:xodm="http://www.corel.com/coreldraw/odm/2003">
 <g id="Layer_x0020_1">
  <metadata id="CorelCorpID_0Corel-Layer"/>
  <g id="_2149969404688">
   <path fill="#4E75F3" d="M697.2 280.57c1.93,6.19 14.87,13.61 20.87,18.35l16.22 13.27c1.87,1.44 3.11,2.39 5.55,4.36l44.28 35.66c2.02,12.41 -1.97,40.45 -2.6,54.01 -0.84,17.89 -2.97,37.41 -2.47,54.53 8.72,0.29 59.6,-18.25 72.61,-22.07 10.84,-3.18 27.19,-6.44 38.32,-8.11 76.09,-11.38 141.87,-17.51 219.54,-1.03 63.91,13.56 60.3,15.72 111.43,31.3 9.55,2.91 18.76,-8.41 29.33,-17.1 16.84,-13.85 35.13,-28.13 52.68,-42.26 13.14,-10.58 6.59,-15.81 5.56,-37.54l-4.26 -68.73c-0.4,-18.96 -0.46,-15.64 -40.85,-30.04 -98.58,-35.13 -205.11,-50.54 -310.73,-41.74 -8.42,0.7 -17.56,0.68 -23.44,1.07 -47.42,3.08 -114.92,16.56 -161.43,30.61 -19.68,5.94 -54.69,16.89 -70.61,25.46z"/>
   <path fill="#4E75F3" d="M1328.72 400.79l-83.72 68.34c4.34,6.1 39.84,21.65 47.13,25.87 80.94,46.84 140.42,101.92 192.48,177.36 10.94,15.85 19.43,28.5 28.44,44.44 6.36,11.24 20.34,41.73 26.12,48.34 18.68,0.9 33.37,2.91 50.67,4.68 13.42,1.37 41.97,5.15 54.04,3.23 0.89,-3.82 4.5,-5.96 8.07,-9.43l44.74 -50.26c6.34,-7.05 13.74,-13.48 19.13,-20.65 11.24,-31.88 -125.37,-210.19 -157.05,-240.76l-51.56 -47.82c-17.62,-15.61 -37.07,-29.27 -56.15,-43.22 -18.69,-13.67 -39.53,-26.6 -60.86,-38.33 -13.32,-7.33 -56.83,-30.84 -69.82,-32.46l8.34 110.67z"/>
   <path fill="#4E75F3" d="M1648.27 793.58l-51.13 -6.06c-15.98,-1.46 -34.03,-3.76 -50.42,-5.64 -0.62,6.17 11.17,37.81 13.57,47.11 29.7,114.74 27.1,237.41 -17.99,347.99 -12.64,31.01 -11.35,18.89 7.86,44.95l49.89 60.75 104.95 0.39 15.61 -31.55c0.4,-0.8 1.17,-2.87 1.6,-3.88 1.1,-2.62 2.27,-5.25 3.56,-8.2 61.73,-140.22 64.16,-320.51 22.01,-466.63l-16.69 -49.05c-4.75,-11.24 -2.32,-10.86 -8.29,-12.84 -3.89,3.65 -5.81,6.57 -8.74,9.57 -15.87,16.2 -57.19,65.89 -65.79,73.09z"/>
   <path fill="#4E75F3" d="M1120.72 1718.42c32.77,1.8 160.28,-37.22 196.13,-53.63 81.61,-37.36 142.97,-77.25 207.9,-134.01 15.19,-13.27 34.8,-31.27 47,-46.54 4.76,-5.95 10.05,-10.11 14.89,-15.95 22.61,-27.27 48.19,-56.58 66.64,-88.23 6.18,-10.61 42.77,-70.87 42.82,-80.45l-106.72 -0.12c-8.02,-12.46 -61.44,-74.17 -62.41,-80.34 -5.32,1.52 -2.27,-2.53 -8.48,8.72 -10.36,18.76 -32.2,51.95 -44.13,68.27 -9.97,13.63 -18.55,23.99 -28.43,35.95 -16.97,20.55 -19.29,18.89 -31.63,32.73 -10.91,12.25 -20.78,20.13 -33.82,30.48 -54.29,43.05 -98.35,69.13 -161.75,93.95 -28.8,11.28 -69.28,22.48 -99.96,28.46 -8.3,1.61 -20.26,1.69 -23.8,8.38l-26.15 69c-10.8,27.55 -10.9,23.43 3.01,45.3 4.66,7.32 44.46,74.02 48.89,78.03z"/>
   <path fill="#4E75F3" d="M508.62 1385.61c-10.06,2.66 -21.93,2.22 -25.74,10.76l-28.48 81.44c-4.43,13.99 -8.07,16.28 2.07,25.29l19.02 17.51c58.1,49.91 80.17,68.88 146.62,107.61 62.92,36.67 131.25,62.46 210.77,80.17 89.73,19.97 174.73,21.44 267.49,14.38 -1.6,-8.05 -57.63,-93.05 -58.87,-97.7 -1,-3.76 30.35,-85.6 34.73,-100.87 -13.53,-0.32 -25.6,2.08 -39.49,2.45 -13.57,0.36 -26.67,0.43 -40.24,0.31l-70.32 -5.44c-54.69,-10.99 -76.12,-13.01 -130.75,-34.57 -56.72,-22.39 -108.39,-49.99 -154.71,-87.71l-44.64 -36.8 -87.46 23.17z"/>
   <path fill="#794DF1" d="M246.61 836.88c-25.08,133.53 -14.68,256.32 30.34,385.26 25.46,72.92 62.06,136.68 107.02,198.62 3.44,4.74 5.49,7.79 9.42,12.5 6.5,7.79 12.97,16.41 19.6,24.17 7.04,8.24 15.58,20.22 23.33,22.51l36.59 -104.56c18.68,-7.23 87.5,-16.8 111.27,-25.12 -2.58,-6.09 -13.04,-16.69 -17.83,-21.35 -8.27,-8.05 -12.22,-13.1 -19.34,-21.6 -34.29,-41 -71.43,-104.29 -87.09,-156.8 -18.99,-63.67 -19.34,-67.49 -28.35,-134.15 -3.45,-25.49 -1.97,-90.52 2.45,-118.92 7.19,-46.13 8.48,-33.86 -16.55,-49.52l-64.39 -37.81c-8.39,-3.93 -41.52,8.36 -53.21,11.35 -14.48,3.7 -41.71,10.28 -53.26,15.42z"/>
   <path fill="#794FEA" d="M766.38 376.66c3.2,-20.18 -2.45,-18.95 -27.93,-39.8l-48.02 -38.07c-4.41,-3.49 -6.41,-5.66 -9.59,-7.8 -14.68,3.15 -62.43,31.19 -77.87,40.41 -26.17,15.64 -48.52,30.56 -71.46,48.28 -5.13,3.97 -11.79,8.6 -16.53,12.73l-84.79 80.31c-41.93,51.95 -56.23,63.55 -95.17,129.95 -31.29,53.36 -55.04,108.76 -72.46,167.34 -1.11,3.72 -2.14,7.86 -3.09,11.07 -2.54,8.53 -9.05,29.11 -9.43,35.54 18.72,0.01 57.96,-15.22 80.02,-19.92 8.06,-1.72 19.34,-8.96 27.61,-4.33l64.01 38.18c5.67,3.66 15.42,12.74 22.42,12.46 19.93,-55.96 18.58,-65.27 49.58,-121.31 19.36,-35 29.4,-48.65 50.93,-77.52 39.5,-52.97 104.04,-110.42 159.84,-142.64l48.66 -25.95c10.97,-5.09 6.38,-3.07 10,-34.52l3.27 -64.41z"/>
   <path fill="#FEFEFE" fill-rule="nonzero" d="M536.26 1504.18l40.76 -50.75 15.4 12.37 -18.71 41.92 36.79 -27.4 15.43 12.4 -40.77 50.75 -9.5 -7.63 32.06 -39.98 -42.1 31.91 -9.87 -7.93 22.13 -47.95 -32.13 39.92 -9.49 -7.63zm75.8 17.33c3.62,-5.57 7.5,-9.69 11.63,-12.39 3.04,-1.98 6.37,-3.37 9.96,-4.18 3.58,-0.81 7,-0.92 10.25,-0.34 4.34,0.78 8.73,2.62 13.18,5.51 8.05,5.25 12.84,11.93 14.43,20.07 1.56,8.15 -0.55,16.67 -6.35,25.56 -5.75,8.83 -12.65,14.17 -20.68,16.03 -8.03,1.87 -16.07,0.18 -24.08,-5.04 -8.11,-5.28 -12.96,-11.97 -14.51,-20.05 -1.56,-8.07 0.49,-16.47 6.17,-25.17zm11.59 7.02c-4.03,6.18 -5.65,11.8 -4.88,16.86 0.78,5.05 3.37,9.02 7.76,11.88 4.41,2.87 9.05,3.63 13.94,2.32 4.88,-1.34 9.39,-5.17 13.52,-11.51 4.07,-6.26 5.75,-11.82 4.99,-16.69 -0.73,-4.87 -3.37,-8.78 -7.93,-11.75 -4.54,-2.96 -9.23,-3.79 -14.04,-2.49 -4.81,1.31 -9.27,5.1 -13.36,11.38zm33.38 58.39l30.29 -57.62 11.3 5.94 3.41 51.08 20.3 -38.61 10.78 5.66 -30.29 57.62 -11.66 -6.13 -3.43 -50.15 -19.91 37.88 -10.79 -5.67zm58.4 28.96l24.17 -60.44 12.24 4.89 -24.17 60.44 -12.24 -4.89zm37.5 14.9l17.53 -51.17 -18.24 -6.25 3.57 -10.41 48.85 16.74 -3.56 10.41 -18.15 -6.22 -17.53 51.17 -12.47 -4.27zm43.77 -19.06c1.9,-6.36 4.45,-11.42 7.64,-15.18 2.35,-2.76 5.15,-5.04 8.36,-6.83 3.21,-1.8 6.45,-2.87 9.74,-3.24 4.38,-0.48 9.11,0.03 14.2,1.55 9.2,2.74 15.7,7.79 19.53,15.15 3.81,7.36 4.2,16.13 1.17,26.31 -3.01,10.09 -8.11,17.17 -15.28,21.23 -7.17,4.08 -15.35,4.74 -24.52,2.01 -9.28,-2.77 -15.82,-7.8 -19.61,-15.11 -3.78,-7.3 -4.2,-15.93 -1.23,-25.89zm13.11 3.45c-2.11,7.07 -2.07,12.92 0.11,17.55 2.18,4.62 5.79,7.69 10.81,9.19 5.04,1.5 9.71,0.91 14.02,-1.74 4.31,-2.67 7.54,-7.62 9.7,-14.86 2.13,-7.16 2.16,-12.98 0.05,-17.43 -2.08,-4.46 -5.72,-7.46 -10.94,-9.01 -5.2,-1.55 -9.93,-1.02 -14.17,1.59 -4.24,2.63 -7.44,7.52 -9.58,14.71zm48.67 46.16l11.85 -64.01 27.22 5.04c6.84,1.26 11.71,2.77 14.6,4.49 2.9,1.72 4.99,4.22 6.31,7.5 1.32,3.3 1.64,6.82 0.94,10.61 -0.89,4.81 -3.03,8.51 -6.42,11.12 -3.4,2.61 -7.96,3.8 -13.72,3.58 2.49,2.14 4.45,4.35 5.89,6.64 1.46,2.28 3.26,6.21 5.41,11.75l5.49 13.93 -15.45 -2.86 -6.68 -15.69c-2.4,-5.57 -4.1,-9.13 -5.1,-10.65 -0.98,-1.51 -2.11,-2.64 -3.4,-3.37 -1.29,-0.74 -3.43,-1.38 -6.4,-1.93l-2.63 -0.48 -4.95 26.73 -12.96 -2.4zm19.8 -34.53l9.57 1.78c6.19,1.14 10.1,1.59 11.75,1.36 1.63,-0.24 3.02,-0.92 4.12,-2.05 1.12,-1.11 1.85,-2.64 2.2,-4.57 0.4,-2.16 0.14,-3.99 -0.76,-5.55 -0.9,-1.53 -2.37,-2.67 -4.39,-3.4 -1.03,-0.34 -4.16,-1 -9.39,-1.97l-10.09 -1.86 -3.01 16.26z"/>
   <polygon fill="#FEFEFE" fill-rule="nonzero" points="458.06,1320.36 409.67,1350.38 389.1,1317.2 397.29,1312.12 411.79,1335.54 423.26,1328.43 410.72,1308.22 418.91,1303.14 431.43,1323.35 452.01,1310.59 "/>
   <polygon id="_1" fill="#FEFEFE" fill-rule="nonzero" points="432.23,1279.27 381.46,1304.94 362.42,1267.29 371.01,1262.95 384.86,1290.35 396.12,1284.65 383.23,1259.16 391.79,1254.84 404.67,1280.33 418.49,1273.35 404.15,1244.98 412.7,1240.64 "/>
   <polygon id="_2" fill="#FEFEFE" fill-rule="nonzero" points="408.54,1231.79 356.54,1254.95 339.38,1216.42 348.17,1212.49 360.66,1240.54 372.18,1235.41 360.56,1209.32 369.32,1205.4 380.94,1231.51 395.09,1225.21 382.16,1196.16 390.92,1192.26 "/>
   <path id="_3" fill="#FEFEFE" fill-rule="nonzero" d="M333.65 1200.38l-6.43 -20c-1.45,-4.51 -2.2,-8.06 -2.27,-10.65 -0.08,-3.48 0.7,-6.74 2.37,-9.77 1.66,-3.04 4.02,-5.71 7.11,-7.99 3.09,-2.31 7.17,-4.27 12.24,-5.9 4.47,-1.44 8.48,-2.11 12.07,-2.03 4.38,0.08 8.19,0.98 11.44,2.72 2.46,1.3 4.73,3.4 6.79,6.29 1.54,2.18 2.97,5.29 4.26,9.33l6.62 20.59 -54.2 17.41zm5.65 -13.88l35.91 -11.54 -2.63 -8.17c-0.98,-3.05 -1.86,-5.21 -2.65,-6.45 -1,-1.63 -2.23,-2.86 -3.67,-3.7 -1.44,-0.82 -3.48,-1.22 -6.15,-1.19 -2.66,0.05 -6.09,0.75 -10.28,2.09 -4.2,1.35 -7.29,2.75 -9.3,4.21 -2,1.46 -3.42,3.06 -4.24,4.79 -0.84,1.74 -1.14,3.7 -0.93,5.89 0.14,1.63 0.93,4.69 2.36,9.15l1.58 4.92z"/>
   <path id="_4" fill="#FEFEFE" fill-rule="nonzero" d="M315.56 1140.8l-5.14 -22.17c-1.01,-4.39 -1.59,-7.69 -1.72,-9.93 -0.13,-2.25 0.18,-4.35 0.95,-6.32 0.76,-1.98 1.98,-3.75 3.65,-5.34 1.66,-1.58 3.7,-2.65 6.09,-3.2 2.6,-0.6 5.14,-0.45 7.63,0.45 2.5,0.89 4.57,2.41 6.21,4.56 0.2,-3.61 1.27,-6.6 3.21,-8.95 1.96,-2.38 4.53,-3.93 7.74,-4.67 2.52,-0.58 5.11,-0.56 7.76,0.06 2.66,0.62 4.93,1.78 6.83,3.47 1.89,1.7 3.35,4.01 4.37,6.91 0.63,1.82 1.79,6.3 3.5,13.42l4.36 18.88 -55.44 12.83zm6.63 -13.34l12.83 -2.96 -1.7 -7.34c-1.01,-4.36 -1.71,-7.06 -2.07,-8.09 -0.68,-1.87 -1.69,-3.21 -3.03,-4.06 -1.36,-0.85 -2.92,-1.06 -4.72,-0.65 -1.71,0.4 -3,1.2 -3.85,2.4 -0.85,1.18 -1.17,2.74 -0.98,4.66 0.14,1.14 0.82,4.35 2.03,9.61l1.49 6.43zm22.05 -5.1l14.84 -3.43 -2.41 -10.36c-0.93,-4.04 -1.63,-6.58 -2.11,-7.6 -0.69,-1.6 -1.74,-2.79 -3.16,-3.55 -1.41,-0.78 -3.1,-0.94 -5.07,-0.5 -1.66,0.4 -2.98,1.12 -3.95,2.2 -0.98,1.08 -1.55,2.44 -1.74,4.08 -0.17,1.66 0.33,5.03 1.51,10.12l2.09 9.04z"/>
   <path id="_5" fill="#FEFEFE" fill-rule="nonzero" d="M351.69 1021.06l1.71 12.39 -12.13 6.68 3.11 22.55 13.46 2.87 1.66 12.08 -59.41 -14.18 -1.66 -12.04 53.26 -30.35zm-19.41 24.04l-19.84 10.66 21.97 4.73 -2.13 -15.39z"/>
   <path id="_6" fill="#FEFEFE" fill-rule="nonzero" d="M329.82 978.75l3.35 -11.19c6.25,1.6 10.91,4.38 13.98,8.31 3.09,3.93 4.67,8.94 4.77,15.05 0.12,7.57 -2.37,13.83 -7.46,18.77 -5.09,4.95 -12.12,7.49 -21.07,7.64 -9.48,0.14 -16.89,-2.2 -22.21,-7.02 -5.31,-4.8 -8.03,-11.2 -8.15,-19.18 -0.12,-6.96 1.85,-12.65 5.91,-17.06 2.39,-2.63 5.86,-4.63 10.4,-5.99l2.89 11.34c-2.95,0.71 -5.26,2.15 -6.92,4.33 -1.68,2.16 -2.49,4.76 -2.45,7.81 0.07,4.23 1.64,7.63 4.7,10.21 3.07,2.58 8,3.82 14.78,3.71 7.2,-0.1 12.31,-1.48 15.32,-4.12 3.02,-2.64 4.5,-6.02 4.43,-10.17 -0.04,-3.05 -1.06,-5.66 -3.03,-7.84 -1.98,-2.17 -5.05,-3.7 -9.24,-4.6z"/>
   <polygon id="_7" fill="#FEFEFE" fill-rule="nonzero" points="349.96,957.2 293.23,952.32 294.22,940.88 319.4,943.04 296.22,917.74 297.53,902.33 317.79,925.59 354.36,906.04 353.09,920.87 325.12,934.17 333.81,944.27 350.95,945.75 "/>
   <polygon fill="#FEFEFE" fill-rule="nonzero" points="398.01,737.04 345.37,715.41 360.2,679.32 369.11,682.98 358.64,708.43 371.1,713.55 380.14,691.58 389.04,695.25 380,717.22 402.37,726.42 "/>
   <polygon id="_1_0" fill="#FEFEFE" fill-rule="nonzero" points="418.35,693.01 368.51,665.44 388.96,628.49 397.39,633.16 382.52,660.05 393.57,666.15 407.41,641.14 415.8,645.78 401.96,670.81 415.52,678.31 430.92,650.47 439.32,655.11 "/>
   <polygon id="_2_1" fill="#FEFEFE" fill-rule="nonzero" points="444.1,646.61 396.77,614.95 420.24,579.86 428.26,585.21 411.17,610.75 421.66,617.77 437.56,594.01 445.54,599.34 429.64,623.1 442.53,631.73 460.22,605.28 468.2,610.62 "/>
   <path id="_3_2" fill="#FEFEFE" fill-rule="nonzero" d="M430.1 565.64l13.56 -16.01c3.08,-3.61 5.69,-6.12 7.84,-7.55 2.91,-1.92 6.09,-2.96 9.54,-3.15 3.46,-0.19 6.97,0.41 10.55,1.81 3.58,1.41 7.39,3.83 11.46,7.29 3.57,3.03 6.27,6.09 8.09,9.17 2.25,3.75 3.49,7.47 3.73,11.14 0.18,2.77 -0.39,5.81 -1.77,9.09 -1.02,2.45 -2.91,5.3 -5.65,8.53l-13.98 16.48 -43.37 -36.8zm14.76 -2.53l28.73 24.37 5.55 -6.54c2.07,-2.45 3.44,-4.33 4.08,-5.65 0.85,-1.72 1.25,-3.41 1.19,-5.06 -0.05,-1.66 -0.8,-3.61 -2.25,-5.85 -1.44,-2.23 -3.83,-4.78 -7.18,-7.63 -3.35,-2.84 -6.18,-4.73 -8.47,-5.66 -2.31,-0.94 -4.4,-1.3 -6.31,-1.08 -1.91,0.21 -3.74,0.99 -5.48,2.33 -1.32,0.97 -3.5,3.26 -6.53,6.82l-3.33 3.95z"/>
   <path id="_4_3" fill="#FEFEFE" fill-rule="nonzero" d="M468.95 520.06l15.42 -16.72c3.06,-3.3 5.48,-5.65 7.25,-7.01 1.79,-1.38 3.7,-2.31 5.76,-2.77 2.06,-0.48 4.2,-0.48 6.46,0 2.23,0.49 4.27,1.57 6.08,3.23 1.95,1.82 3.27,4 3.93,6.57 0.66,2.57 0.57,5.12 -0.29,7.69 3.09,-1.87 6.16,-2.66 9.22,-2.38 3.05,0.29 5.79,1.53 8.2,3.76 1.9,1.76 3.34,3.91 4.32,6.45 0.98,2.55 1.31,5.07 0.97,7.6 -0.34,2.52 -1.42,5.02 -3.24,7.49 -1.15,1.55 -4.19,5.03 -9.12,10.45l-13.14 14.24 -41.82 -38.6zm14.75 -2.02l9.67 8.92 5.11 -5.53c3.04,-3.28 4.88,-5.38 5.52,-6.27 1.16,-1.59 1.71,-3.2 1.66,-4.79 -0.08,-1.59 -0.78,-3.01 -2.13,-4.25 -1.29,-1.19 -2.67,-1.81 -4.14,-1.84 -1.47,-0.03 -2.93,0.58 -4.41,1.82 -0.87,0.75 -3.13,3.11 -6.8,7.1l-4.48 4.84zm16.64 15.35l11.19 10.32 7.21 -7.81c2.8,-3.05 4.5,-5.06 5.09,-6.03 0.92,-1.47 1.31,-3.01 1.16,-4.61 -0.17,-1.61 -0.98,-3.1 -2.47,-4.47 -1.25,-1.15 -2.6,-1.83 -4.03,-2.02 -1.43,-0.21 -2.89,0.09 -4.36,0.86 -1.45,0.79 -3.95,3.1 -7.5,6.94l-6.29 6.82z"/>
   <path id="_5_4" fill="#FEFEFE" fill-rule="nonzero" d="M589.37 483.69l-9.37 8.28 -12.27 -6.41 -17.06 15.05 5.03 12.81 -9.13 8.05 -21.04 -57.32 9.11 -8.03 54.73 27.57zm-30.76 -2.88l-19.83 -10.63 8.2 20.91 11.63 -10.28z"/>
   <path id="_6_5" fill="#FEFEFE" fill-rule="nonzero" d="M611.59 441.81l11.1 -3.7c2.27,6.03 2.69,11.44 1.25,16.21 -1.44,4.78 -4.64,8.97 -9.58,12.56 -6.11,4.44 -12.66,6.01 -19.64,4.7 -6.97,-1.32 -13.1,-5.61 -18.36,-12.86 -5.57,-7.66 -7.92,-15.04 -7.05,-22.16 0.87,-7.12 4.54,-13.04 10.99,-17.72 5.63,-4.1 11.42,-5.76 17.37,-4.99 3.52,0.45 7.14,2.13 10.87,5.06l-7.61 8.89c-2.28,-1.99 -4.79,-3.05 -7.52,-3.18 -2.73,-0.12 -5.33,0.72 -7.81,2.51 -3.4,2.48 -5.29,5.73 -5.63,9.72 -0.34,3.99 1.47,8.73 5.47,14.22 4.23,5.82 8.29,9.21 12.18,10.15 3.89,0.96 7.52,0.21 10.86,-2.23 2.48,-1.79 4.03,-4.12 4.67,-6.99 0.65,-2.86 0.13,-6.25 -1.56,-10.19z"/>
   <polygon id="_7_6" fill="#FEFEFE" fill-rule="nonzero" points="641.58,447.07 613.05,397.78 623,392.03 635.67,413.9 643.1,380.39 656.48,372.64 649.04,402.58 686.02,421.33 673.15,428.78 646.21,413.51 642.91,426.41 651.53,441.3 "/>
   <path fill="#FEFEFE" fill-rule="nonzero" d="M930.48 326.03l11.48 2.22c-0.97,6.37 -3.25,11.28 -6.85,14.73 -3.6,3.46 -8.44,5.55 -14.51,6.27 -7.51,0.87 -13.98,-0.97 -19.42,-5.54 -5.44,-4.56 -8.67,-11.29 -9.72,-20.2 -1.09,-9.41 0.48,-17.01 4.74,-22.78 4.24,-5.78 10.33,-9.14 18.25,-10.06 6.92,-0.8 12.78,0.58 17.59,4.17 2.85,2.11 5.17,5.36 6.99,9.74l-10.99 4.02c-1,-2.86 -2.67,-5.01 -4.99,-6.45 -2.33,-1.46 -4.99,-2 -8.04,-1.65 -4.19,0.49 -7.41,2.4 -9.67,5.71 -2.26,3.31 -2.99,8.34 -2.21,15.08 0.84,7.15 2.72,12.09 5.66,14.83 2.92,2.74 6.44,3.85 10.56,3.38 3.03,-0.36 5.53,-1.63 7.49,-3.82 1.96,-2.17 3.17,-5.4 3.64,-9.65z"/>
   <path id="_1_7" fill="#FEFEFE" fill-rule="nonzero" d="M951.65 315.54c0.04,-5.81 0.92,-10.67 2.69,-14.59 1.31,-2.9 3.1,-5.48 5.34,-7.78 2.26,-2.29 4.72,-3.98 7.4,-5.08 3.56,-1.49 7.66,-2.21 12.29,-2.18 8.39,0.05 15.09,2.69 20.09,7.93 5.01,5.23 7.49,12.49 7.42,21.76 -0.05,9.19 -2.6,16.37 -7.62,21.52 -5.03,5.18 -11.73,7.73 -20.09,7.67 -8.46,-0.05 -15.18,-2.66 -20.15,-7.86 -4.97,-5.2 -7.42,-12.33 -7.37,-21.39zm11.85 -0.31c-0.04,6.44 1.42,11.33 4.38,14.68 2.96,3.35 6.72,5.03 11.31,5.06 4.59,0.02 8.36,-1.6 11.31,-4.88 2.96,-3.3 4.46,-8.24 4.5,-14.84 0.05,-6.52 -1.36,-11.41 -4.2,-14.63 -2.84,-3.22 -6.63,-4.86 -11.38,-4.89 -4.73,-0.02 -8.57,1.57 -11.48,4.81 -2.92,3.23 -4.4,8.12 -4.44,14.69z"/>
   <path id="_2_8" fill="#FEFEFE" fill-rule="nonzero" d="M1017.43 287.14l20.99 0.65c4.73,0.15 8.33,0.62 10.8,1.42 3.3,1.1 6.1,2.93 8.41,5.52 2.3,2.58 4.02,5.7 5.14,9.39 1.13,3.67 1.6,8.17 1.44,13.49 -0.15,4.7 -0.86,8.7 -2.12,12.06 -1.56,4.1 -3.69,7.38 -6.42,9.86 -2.05,1.88 -4.78,3.31 -8.21,4.29 -2.55,0.72 -5.96,1.02 -10.2,0.88l-21.62 -0.68 1.79 -56.88zm11.18 9.98l-1.18 37.68 8.57 0.27c3.21,0.1 5.53,-0.01 6.98,-0.33 1.87,-0.4 3.44,-1.14 4.7,-2.22 1.27,-1.08 2.33,-2.87 3.18,-5.39 0.86,-2.53 1.36,-5.99 1.5,-10.38 0.13,-4.41 -0.15,-7.8 -0.86,-10.17 -0.69,-2.39 -1.73,-4.26 -3.09,-5.62 -1.35,-1.36 -3.09,-2.31 -5.22,-2.84 -1.6,-0.41 -4.74,-0.69 -9.42,-0.84l-5.16 -0.16z"/>
   <polygon id="_3_9" fill="#FEFEFE" fill-rule="nonzero" points="1073.01,347.65 1081.04,291.27 1122.86,297.22 1121.5,306.76 1091.07,302.42 1089.29,314.93 1117.6,318.96 1116.24,328.46 1087.93,324.42 1085.75,339.77 1117.26,344.26 1115.89,353.76 "/>
   <path fill="#FEFEFE" fill-rule="nonzero" d="M1442.51 442.31l17.68 14.32c3.49,2.83 5.99,5.09 7.47,6.77 1.49,1.69 2.53,3.54 3.14,5.56 0.6,2.02 0.74,4.17 0.4,6.45 -0.35,2.26 -1.28,4.36 -2.83,6.27 -1.68,2.07 -3.77,3.52 -6.29,4.35 -2.52,0.81 -5.08,0.9 -7.69,0.21 2.06,2.96 3.05,5.98 2.96,9.04 -0.08,3.06 -1.15,5.87 -3.22,8.43 -1.63,2 -3.69,3.59 -6.15,4.72 -2.48,1.15 -4.99,1.63 -7.53,1.46 -2.53,-0.18 -5.1,-1.09 -7.68,-2.76 -1.62,-1.03 -5.28,-3.85 -11.01,-8.41l-15.05 -12.19 35.8 -44.22zm2.97 14.59l-8.28 10.23 5.85 4.73c3.49,2.83 5.69,4.52 6.61,5.11 1.67,1.05 3.3,1.5 4.89,1.33 1.58,-0.16 2.95,-0.97 4.11,-2.39 1.1,-1.37 1.63,-2.79 1.56,-4.24 -0.05,-1.48 -0.76,-2.9 -2.1,-4.29 -0.8,-0.82 -3.31,-2.92 -7.51,-6.33l-5.13 -4.15zm-14.24 17.59l-9.57 11.82 8.27 6.69c3.21,2.61 5.33,4.17 6.33,4.7 1.53,0.82 3.08,1.11 4.67,0.85 1.6,-0.26 3.02,-1.17 4.3,-2.74 1.07,-1.33 1.67,-2.71 1.77,-4.16 0.11,-1.44 -0.28,-2.88 -1.15,-4.28 -0.88,-1.41 -3.35,-3.75 -7.41,-7.05l-7.21 -5.83z"/>
   <path id="_1_10" fill="#FEFEFE" fill-rule="nonzero" d="M1489.66 482.54l8.3 7.94 -21.28 22.28c-3.39,3.54 -5.47,5.92 -6.28,7.17 -1.25,2.02 -1.69,4.18 -1.33,6.48 0.37,2.3 1.7,4.55 4.03,6.77 2.35,2.26 4.59,3.47 6.71,3.65 2.12,0.18 3.97,-0.3 5.55,-1.48 1.58,-1.17 3.94,-3.38 7.04,-6.64l21.75 -22.76 8.31 7.95 -20.65 21.6c-4.71,4.95 -8.28,8.22 -10.68,9.82 -2.39,1.61 -4.87,2.55 -7.41,2.79 -2.55,0.25 -5.23,-0.18 -8.06,-1.27 -2.81,-1.1 -5.84,-3.2 -9.1,-6.32 -3.92,-3.75 -6.47,-7.06 -7.63,-9.9 -1.16,-2.85 -1.64,-5.55 -1.43,-8.14 0.2,-2.57 0.88,-4.83 2.03,-6.78 1.7,-2.87 4.76,-6.61 9.16,-11.21l20.97 -21.95z"/>
   <polygon id="_2_11" fill="#FEFEFE" fill-rule="nonzero" points="1490.58,564.27 1533.61,527.06 1541.12,535.75 1498.1,572.94 "/>
   <polygon id="_3_12" fill="#FEFEFE" fill-rule="nonzero" points="1505.93,581.11 1549.96,545.84 1557.15,554.8 1520.59,584.09 1538.44,606.38 1530.96,612.37 "/>
   <path id="_4_13" fill="#FEFEFE" fill-rule="nonzero" d="M1582.57 587.17l11.83 17.38c2.66,3.91 4.39,7.11 5.19,9.57 1.06,3.32 1.23,6.66 0.49,10.05 -0.74,3.38 -2.26,6.6 -4.56,9.68 -2.31,3.07 -5.67,6.11 -10.08,9.11 -3.87,2.64 -7.54,4.43 -11,5.38 -4.22,1.15 -8.15,1.35 -11.75,0.61 -2.73,-0.56 -5.49,-1.93 -8.3,-4.12 -2.08,-1.64 -4.32,-4.23 -6.71,-7.73l-12.18 -17.89 47.07 -32.04zm-1.5 14.94l-31.17 21.21 4.83 7.1c1.8,2.65 3.26,4.46 4.36,5.44 1.44,1.28 2.96,2.11 4.57,2.51 1.62,0.38 3.69,0.18 6.24,-0.62 2.55,-0.79 5.63,-2.43 9.27,-4.9 3.65,-2.48 6.22,-4.7 7.73,-6.67 1.51,-1.97 2.41,-3.89 2.72,-5.79 0.3,-1.91 0.05,-3.87 -0.78,-5.92 -0.6,-1.53 -2.22,-4.23 -4.86,-8.1l-2.91 -4.26z"/>
   <polygon fill="#FEFEFE" fill-rule="nonzero" points="1646.89,945.39 1694.06,942.21 1692.92,925.36 1702.53,924.71 1705.58,969.82 1695.97,970.48 1694.84,953.67 1647.66,956.86 "/>
   <polygon id="_1_14" fill="#FEFEFE" fill-rule="nonzero" points="1648.02,981.14 1704.91,982.89 1703.61,1025.06 1693.99,1024.77 1694.93,994.09 1682.33,993.69 1681.45,1022.24 1671.86,1021.96 1672.74,993.4 1657.26,992.92 1656.28,1024.7 1646.71,1024.4 "/>
   <path id="_2_15" fill="#FEFEFE" fill-rule="nonzero" d="M1665.36 1033.7l-0.35 11.23c-3.8,0.2 -6.72,1.2 -8.73,3.02 -2,1.81 -3.23,4.46 -3.67,7.92 -0.48,3.68 -0.05,6.54 1.26,8.6 1.31,2.07 3,3.23 5.09,3.5 1.34,0.17 2.51,-0.08 3.56,-0.73 1.04,-0.67 2.03,-1.94 2.97,-3.8 0.64,-1.28 1.84,-4.22 3.64,-8.82 2.3,-5.91 4.71,-9.96 7.24,-12.14 3.56,-3.07 7.57,-4.32 12.04,-3.74 2.87,0.37 5.46,1.53 7.75,3.48 2.3,1.96 3.9,4.55 4.81,7.79 0.93,3.23 1.1,7.02 0.54,11.36 -0.9,7.1 -3.15,12.23 -6.71,15.41 -3.57,3.18 -7.96,4.53 -13.18,4.05l0.97 -11.47c2.96,-0.12 5.18,-0.9 6.66,-2.34 1.48,-1.44 2.43,-3.77 2.84,-6.98 0.43,-3.31 0.08,-5.99 -1.05,-8.04 -0.71,-1.32 -1.8,-2.07 -3.26,-2.26 -1.34,-0.18 -2.56,0.24 -3.65,1.26 -1.4,1.28 -3.1,4.61 -5.12,9.99 -2.03,5.38 -3.92,9.31 -5.65,11.78 -1.75,2.48 -3.92,4.32 -6.54,5.51 -2.63,1.2 -5.72,1.56 -9.29,1.09 -3.23,-0.41 -6.15,-1.69 -8.75,-3.86 -2.6,-2.16 -4.37,-4.97 -5.32,-8.44 -0.95,-3.45 -1.11,-7.64 -0.48,-12.55 0.92,-7.14 3.28,-12.41 7.07,-15.81 3.78,-3.41 8.89,-5.07 15.31,-5.01z"/>
   <polygon id="_3_16" fill="#FEFEFE" fill-rule="nonzero" points="1636.64,1099.33 1683.01,1108.77 1686.39,1092.21 1695.83,1094.12 1686.8,1138.49 1677.36,1136.56 1680.73,1120.04 1634.35,1110.59 "/>
   <path fill="#FEFEFE" fill-rule="nonzero" d="M1275.01 1568.21l18.94 -9.01c4.27,-2.03 7.68,-3.26 10.24,-3.66 3.42,-0.55 6.76,-0.2 9.99,1.06 3.23,1.23 6.18,3.24 8.87,5.99 2.67,2.76 5.17,6.55 7.46,11.36 2.01,4.24 3.22,8.13 3.62,11.69 0.5,4.36 0.11,8.26 -1.17,11.71 -0.96,2.61 -2.74,5.13 -5.33,7.57 -1.93,1.81 -4.82,3.63 -8.65,5.45l-19.5 9.28 -24.47 -51.44zm14.55 3.74l16.2 34.05 7.72 -3.67c2.89,-1.38 4.89,-2.54 6.02,-3.47 1.49,-1.22 2.53,-2.6 3.16,-4.13 0.63,-1.54 0.74,-3.61 0.35,-6.24 -0.39,-2.64 -1.54,-5.95 -3.43,-9.93 -1.9,-3.97 -3.69,-6.85 -5.41,-8.64 -1.71,-1.8 -3.47,-2.99 -5.3,-3.59 -1.82,-0.59 -3.8,-0.64 -5.94,-0.14 -1.59,0.36 -4.51,1.54 -8.72,3.55l-4.65 2.21zm61.52 22.48l-27.05 -50.12 37.1 -20.03 4.57 8.47 -26.95 14.55 6.01 11.13 25.06 -13.53 4.57 8.47 -25.06 13.53 7.33 13.58 27.93 -15.08 4.58 8.47 -38.09 20.56zm46.22 -26.06l-31.39 -47.53 15.39 -10.16c5.83,-3.86 9.78,-6.13 11.86,-6.82 3.2,-1.08 6.5,-1.04 9.91,0.14 3.42,1.18 6.38,3.66 8.87,7.44 1.93,2.92 3.02,5.72 3.28,8.4 0.26,2.69 -0.05,5.14 -0.93,7.35 -0.88,2.2 -2.04,4.05 -3.48,5.53 -1.99,1.96 -5.15,4.38 -9.48,7.25l-6.24 4.12 11.84 17.92 -9.63 6.36zm-16.46 -45.86l8.94 13.55 5.24 -3.46c3.77,-2.49 6.11,-4.41 7.05,-5.74 0.95,-1.34 1.43,-2.77 1.44,-4.32 0.02,-1.54 -0.43,-3.01 -1.36,-4.42 -1.15,-1.74 -2.6,-2.83 -4.35,-3.3 -1.77,-0.45 -3.5,-0.32 -5.25,0.42 -1.28,0.55 -3.65,1.95 -7.1,4.23l-4.61 3.04zm60.57 15.82l-33.33 -45.59 9.31 -6.81 27.65 37.82 23.06 -16.85 5.68 7.77 -32.37 23.66zm17.58 -49.04c-3.87,-4.33 -6.47,-8.56 -7.8,-12.66 -0.98,-3.02 -1.39,-6.16 -1.26,-9.37 0.14,-3.21 0.83,-6.12 2.07,-8.74 1.65,-3.48 4.2,-6.77 7.67,-9.86 6.27,-5.6 13.01,-8.12 20.25,-7.6 7.24,0.54 13.95,4.28 20.14,11.21 6.13,6.88 9.06,13.93 8.8,21.13 -0.26,7.22 -3.53,13.61 -9.77,19.19 -6.32,5.64 -13.07,8.2 -20.26,7.66 -7.17,-0.52 -13.79,-4.18 -19.84,-10.96zm8.58 -8.18c4.3,4.81 8.68,7.47 13.13,7.97 4.44,0.5 8.38,-0.78 11.8,-3.84 3.43,-3.06 5.14,-6.8 5.15,-11.23 -0.01,-4.44 -2.22,-9.12 -6.62,-14.05 -4.36,-4.88 -8.67,-7.56 -12.96,-8.04 -4.28,-0.5 -8.19,0.84 -11.74,4.01 -3.54,3.16 -5.31,6.93 -5.31,11.28 0,4.37 2.18,9 6.55,13.9zm67.79 -25.12l-17.66 -16.21 -38.43 -6.91 9.12 -9.94 25.72 5.32 -7.75 -24.91 8.94 -9.75 10.25 37.74 17.61 16.16 -7.8 8.5z"/>
   <path fill="none" d="M250.04 816.62c18.72,0.01 57.96,-15.22 80.02,-19.92 8.06,-1.72 19.34,-8.96 27.61,-4.33l64.01 38.18c5.67,3.66 15.42,12.74 22.42,12.46 19.93,-55.96 18.58,-65.27 49.58,-121.31 19.36,-35 29.4,-48.65 50.93,-77.52 39.5,-52.97 104.04,-110.42 159.84,-142.64l48.66 -25.95c10.97,-5.09 6.38,-3.07 10,-34.52l3.27 -64.41c3.2,-20.18 -2.45,-18.95 -27.93,-39.8l-48.02 -38.07c-4.41,-3.49 -6.41,-5.66 -9.59,-7.8 -14.68,3.15 -62.43,31.19 -77.87,40.41 -26.17,15.64 -48.52,30.56 -71.46,48.28 -5.13,3.97 -11.79,8.6 -16.53,12.73l-84.79 80.31c-41.93,51.95 -56.23,63.55 -95.17,129.95 -31.29,53.36 -55.04,108.76 -72.46,167.34 -1.11,3.72 -2.14,7.86 -3.09,11.07 -2.54,8.53 -9.05,29.11 -9.43,35.54"/>
   <path fill="#24346A" d="M316.57 1514.21c1.01,12.81 1.07,40.96 -0.28,53.64 -1.75,16.36 -10.64,25.47 -20.11,33.46 -4.97,4.19 -10.16,7.69 -16.35,11.44 -7.79,4.72 -11.18,4.05 -18.77,-0.51 -38.32,-23.04 -35.5,-39.23 -35.52,-70.47 -0.01,-29 -6.05,-26.59 16.75,-36.55 15.64,-6.84 20.99,-14.48 38.35,-7.39 10.67,4.36 27.81,11.11 35.93,16.38zm-101.12 59.71c1.59,14.35 15.24,30.11 25.33,38.19 6.79,5.43 11.76,7.81 19.76,12.43 10.69,6.18 14.59,3.63 23.49,-1.76 15.8,-9.56 24.81,-15.6 34.48,-29.76 12.18,-17.83 8.6,-32.17 8.43,-55.63 -0.24,-33.59 4.11,-29.43 -22.71,-41.21 -22.47,-9.86 -31.43,-17.3 -48.4,-9.66 -9.46,4.26 -38.75,16.6 -40.4,23.55 -0.95,3.99 -0.65,57.79 0.02,63.85z"/>
   <path fill="#24346A" d="M214.94 1310.88c-8.73,62.88 -87.01,71.51 -114.5,32.41 -41.22,-58.63 12.15,-114.44 59.23,-105.94 32.97,5.95 60.63,34.94 55.27,73.53zm-78.56 -84.71c-21.94,5.17 -37.56,16.44 -46.82,29.75 -41.76,59.97 11.54,136.69 76.59,121.67 35.93,-8.3 68.95,-41.95 59.04,-90.72 -7.28,-35.79 -43.72,-71.33 -88.81,-60.7z"/>
   <rect fill="#1E2350" stroke="#2B2A29" stroke-width="2.02" stroke-miterlimit="2.61313" x="557.54" y="628.28" width="895.13" height="656.97" rx="75.31" ry="73.64"/>
   <rect fill="#222B63" stroke="#222B63" stroke-width="2.02" stroke-miterlimit="2.61313" x="1012.32" y="1106.76" width="204.81" height="123.09" rx="11.24" ry="9.51"/>
   <rect fill="#222B63" stroke="#222B63" stroke-width="2.02" stroke-miterlimit="2.61313" x="1229.16" y="1108.13" width="196.98" height="121.59" rx="10.81" ry="9.39"/>
   <rect fill="#222B63" stroke="#222B63" stroke-width="2.02" stroke-miterlimit="2.61313" x="1229.16" y="963.57" width="196.98" height="123.09" rx="10.81" ry="9.51"/>
   <rect fill="#222B63" stroke="#222B63" stroke-width="2.02" stroke-miterlimit="2.61313" x="1012.32" y="963.57" width="204.81" height="123.09" rx="11.24" ry="9.51"/>
   <rect fill="#222B63" stroke="#222B63" stroke-width="2.02" stroke-miterlimit="2.61313" x="1012.32" y="677.18" width="413.82" height="264.8" rx="22.7" ry="20.46"/>
   <rect fill="#222B63" stroke="#222B63" stroke-width="2.02" stroke-miterlimit="2.61313" x="590.92" y="677.18" width="389.26" height="264.8" rx="21.35" ry="20.46"/>
   <rect fill="#222B63" stroke="#222B63" stroke-width="2.02" stroke-miterlimit="2.61313" x="590.92" y="963.57" width="389.26" height="264.8" rx="21.35" ry="20.46"/>
   <path fill="#794DF1" d="M849.99 1181.5c-2.07,-6.94 -52.02,-63.5 -60.02,-72.46 -5.06,-5.67 -11.66,-11.32 -12.03,-22.25 -0.95,-27.62 0.88,-68.83 0.23,-100.42 -11.17,-1.86 -39.65,9.2 -48.65,14.75 -82.72,51.06 -64.7,168.55 18.69,196.2 40.13,13.31 68.77,4.97 101.78,-15.82z"/>
   <path fill="#4E75F3" d="M1000.59 39.1c2.53,-8.95 -1.43,-17.49 6.14,-23.59 8.26,3.13 5.7,12.68 6.12,22.59 5.27,2.53 12.09,3.78 17.87,6.72 5.27,2.68 9.49,6.67 15.47,8.66 5.82,-3.04 16.96,-13.33 24.2,-11.08 3.48,8.54 -9.55,12.83 -15.72,19 -0.35,6.09 2.76,11.57 4.02,17.9 1.33,6.65 1.17,12.1 1.94,18.77 8.15,1.34 16.15,0.5 20.63,5.71 -2.19,3.26 -0.21,2.26 -5.95,4.1 -10.85,3.46 -14.95,-2.42 -21.15,8.35 -8.88,15.42 -12.89,14.33 -18.53,21.16 2.16,9.22 8.21,14.94 -1.13,19.99 -5.84,-3.43 -6.09,-8.29 -8.33,-15.77 -6.5,-0.47 -12.5,1.92 -19.42,1.98 -7.63,0.06 -12.6,-1.58 -19.32,-1.79 -2.65,7.53 -3.83,15.52 -12.71,15.79 -2.34,-8.03 3.05,-14.19 5.14,-21.66l-13.07 -12.69c-4.29,-4.52 -6.29,-8.4 -10.11,-13.1 -4.5,-2.82 -20.39,2.51 -24.36,-6.36 6.27,-5.01 14.35,-2.15 21.8,-6.22 0.15,-0.33 7,-34.15 7.06,-34.7 -6.72,-7.74 -18.73,-8.58 -15.56,-20.4 12.61,-1.75 14.95,14.18 26.41,7.73 11.13,-6.26 21.49,-7.1 28.56,-11.09zm-3.12 -38.75c-19.86,2.29 -48.46,20.49 -60.14,29.65 -9.91,7.77 -20.41,55.04 -21.39,69.35 -1.62,23.58 16.86,40.99 31.6,59.22 20.24,25.01 25.65,22.92 69.42,21.74 38.77,-1.05 40.2,-10.44 57.81,-31.92 16.36,-19.94 27.63,-30.91 20.05,-64.72 -8.57,-38.24 -2.56,-46.55 -29.75,-61.67 -17.57,-9.77 -43.41,-24.45 -67.6,-21.65z"/>
   <path fill="#4E75F3" d="M1321.52 191.46c-2.15,-13.7 18.03,-18.61 20.93,-3.99 2.92,14.67 -18.94,16.65 -20.93,3.99zm-45.89 16.07c0.44,-1.69 -1.42,-5.19 8.62,-6.23 28.14,-2.93 29.51,8.13 46.88,19.43 4.03,2.62 12.96,9.99 15.61,10.49l-11.9 0.24c4.82,4.39 26.05,1.12 32.05,0.04 54.75,-9.81 76.98,-35.42 105.52,-77.06 11.49,-16.76 40.66,-11.29 44.74,-27.66 -9.96,-2.44 -22.41,-4.29 -30.28,-9.19 -16.7,-10.42 -8.7,-16.9 -20.64,-18.85 -4.92,13.46 -0.7,33.02 -4.4,47.92 -53.88,5.9 -159.63,-4.1 -214.24,2.19 -1.57,24.42 13.92,50.65 28.04,58.68z"/>
   <path fill="#4E75F3" d="M931.3 1890.65l147.64 0.18c0.32,-17.27 2.2,-73.24 -1.85,-83.43 -0.35,-0.14 -0.88,-0.75 -1.05,-0.43l-4.34 -1.37c-2.15,-0.42 -4.24,-0.44 -6.47,-0.48l-126.03 0.83c-7.63,1.51 -8.11,6.33 -8.57,14.89 -0.41,7.51 -0.06,15.81 -0.09,23.44 -0.06,12 -1.43,35.73 0.76,46.37z"/>
   <path fill="#4E75F3" d="M112.37 1328.99c-13.93,-6.14 -0.11,-18.12 17.29,-40.31 16.38,-20.88 17.49,10.56 35.32,23.62 6.5,-2.92 17.47,-23.67 24.84,-29.9 5.07,0.77 4.96,1.75 7.96,5.09 -1.56,4.9 -27.92,40.5 -32.8,44.44 -9.7,-5.22 -15.97,-25.7 -26.31,-32.7 -8.24,3.06 -17.36,24.02 -26.3,29.76zm102.57 -18.11c5.36,-38.59 -22.3,-67.58 -55.27,-73.53 -47.08,-8.5 -100.45,47.31 -59.23,105.94 27.49,39.1 105.77,30.47 114.5,-32.41z"/>
   <path fill="#24346A" d="M1362.14 116.29l22.56 0.19 -0.03 22.21 -23.03 -0.29 0.5 -22.11zm-59.57 -0.05l21.39 0.06 -0.75 22.02 -20.79 0.18 0.15 -22.26zm-7.73 0.95l-0.35 21.27 -17.31 -0.24c-5.1,-0.44 -2.03,0.07 -4.91,-0.83l0.03 -19.76 22.54 -0.44zm96.41 0.2c7.51,-0.79 15.14,-1.66 22.42,0.4 2.19,21.34 1.2,22.68 -21.9,20.43l-0.52 -20.83zm-56.41 114.07c-11.41,-0.38 -24.37,-4.45 -33.54,-8.67 -4.64,-2.12 -8.16,-3.83 -13.39,-7.04 -4.25,-2.61 -8.72,-7.34 -12.28,-8.22 -14.12,-8.03 -29.61,-34.26 -28.04,-58.68 54.61,-6.29 160.36,3.71 214.24,-2.19 3.7,-14.9 -0.52,-34.46 4.4,-47.92 11.94,1.95 3.94,8.43 20.64,18.85 7.87,4.9 20.32,6.75 30.28,9.19 -4.08,16.37 -33.25,10.9 -44.74,27.66 -28.54,41.64 -50.77,67.25 -105.52,77.06 -6,1.08 -27.23,4.35 -32.05,-0.04zm19.32 -115l-0.3 21.96 -22.58 -0.23 -0.65 -21.85 23.53 0.12zm8.13 -31.27l21.76 0.03 -1.11 26.07c-5.48,-1.87 -14.08,-0.64 -21.17,-1l0.52 -25.1zm-32.01 3.01c3.98,-0.94 20.5,-2.6 22.78,-0.38 2.34,2.3 1.13,-2.55 1.2,5.55 0.02,1.46 -0.2,4.31 -0.24,6.02 -0.09,3.91 0.13,6.84 -0.38,10.96l-23.21 -0.27 -0.15 -21.88zm-28.09 -1.12l21.5 0.77 -0.55 23.52c-6.24,-2.23 -14.14,-1.05 -21.42,-0.61l0.47 -23.68zm60.34 -30.88l20.95 -0.01 -0.22 21.41 -21.76 -0.31 1.03 -21.09zm-6.53 -5.12c-6.57,9.54 5.43,28.29 -8.65,29.26 -8.74,0.6 -47.71,-1.22 -50.71,0.69 -5.56,7.79 -2.89,18.42 -3.73,29.88 -9.57,0.76 -18.94,-1.33 -26.57,2.57l-0.47 23.9c-10.72,0.58 -20.99,-1.08 -24.12,4.29 -6.65,15.1 1.82,41.78 8.12,52.26 40.72,67.74 163.33,72.84 224.98,-25.38 4.97,-7.92 5.02,-12.13 16.34,-15.83 8.31,-2.71 15.58,-5.57 22.4,-9.69 6.16,-3.71 14.48,-8.59 13.42,-18.79 -6.56,-6.4 -20.25,-6.73 -28.84,-10.6 -12.72,-5.73 -12.54,-11.83 -19.79,-21.12 -9.09,-11.65 -18.11,-2.75 -22.18,6.15 -4.63,10.14 -1.72,27.46 -1.68,39.37l-34.77 -0.24 0 -25.58c-5.95,-4.13 -15.12,-1.26 -29.14,-1.91 -0.17,-13.22 2.39,-52.15 -1.97,-61l-25.4 -0.48c-7.16,0.14 -6.34,1.97 -7.24,2.25z"/>
   <path fill="#24346A" d="M241.74 415.05c-2.62,-11.16 6.16,-20.88 13.71,-23.37 11.98,-3.94 22.31,5.17 24.12,12.31 7.24,28.43 -32.9,32.12 -37.83,11.06zm-69.15 -97.95c22.56,-10.6 31.93,25.12 12.29,31.79 -20.05,6.82 -35.93,-20.68 -12.29,-31.79zm160.19 -3.47c17.8,-7.41 24.54,16.78 10.55,22.67 -15.41,6.49 -24.56,-16.84 -10.55,-22.67zm-85.46 -68.17c27.09,-11.17 39.1,27.38 15.25,37.73 -11.46,4.97 -23.56,-3.14 -26.95,-11.8 -3.95,-10.07 -0.73,-20.8 11.7,-25.93zm-0.92 52.68l0.09 27.15 -37.65 0.43c-7.69,-12.78 -10.3,-26.52 -33.66,-23.58 -14.81,1.87 -27,15.26 -27.15,31.07 -0.15,15.64 15.15,28.32 27.42,29.95 24.13,3.22 28.96,-16.94 33.86,-23.52 49.64,-3 34.11,-5.38 39.36,40.34 -5.41,6.02 -20.74,11.64 -19.37,32.18 1.83,27.18 39.84,43.12 59.37,15.51 10.53,-14.89 3.99,-26.89 -2.46,-38.92 3.38,-5.83 12.38,-13.18 17.83,-20.22 4.83,-6.22 12.92,-15.37 18.77,-20.39 14.65,1.14 22.76,6.75 34.39,-6.85 18.66,-21.78 -11.67,-54.13 -35.01,-34.99 -13.95,11.44 -9.8,21.88 -6.56,31.3 -4.07,4.47 -8.01,7.41 -11.92,11.6 -4.02,4.3 -7.99,8.22 -11.88,12.95 -17.67,21.52 -17.71,17.8 -31.79,14.91l0.2 -79.9c12.3,-5.13 30.77,-11.7 29.66,-33.98 -1.19,-24.07 -31.88,-44.81 -57.09,-24.36 -13.82,11.21 -15.73,30.39 -5.22,44.97 7.22,10.01 9.89,7.34 18.81,14.35z"/>
   <path fill="#24346A" d="M1077.61 1902.06c4.73,20.99 -10.48,20.08 -27.04,20.03 -15.58,-0.04 -31.18,0.02 -46.76,0.01 -15.59,-0.02 -31.19,-0.05 -46.77,0.02 -16.32,0.07 -29.59,-0.33 -25.44,-20.3l146.01 0.24zm-146.31 -11.41c-2.19,-10.64 -0.82,-34.37 -0.76,-46.37 0.03,-7.63 -0.32,-15.93 0.09,-23.44 0.46,-8.56 0.94,-13.38 8.57,-14.89l126.03 -0.83c2.23,0.04 4.32,0.06 6.47,0.48l4.34 1.37c0.17,-0.32 0.7,0.29 1.05,0.43 4.05,10.19 2.17,66.16 1.85,83.43l-147.64 -0.18zm81.49 55.63c-0.81,-9.98 -1.58,-11.09 8.46,-11 14.03,0.12 45.87,1.75 55.95,-3.14 10.77,-5.24 12.95,-11.14 13.03,-26.48l-0.01 -78.92c0.18,-43.14 -20.08,-32.93 -83.49,-33.2 -18.74,-0.08 -61.64,-3.67 -74.89,3.63 -18.09,9.95 -13.09,39.43 -13.04,64.65 0.03,13.16 -0.03,26.29 -0.12,39.45 -0.36,51.84 46.15,29.32 82.03,35.35l-0.35 9.31c-10.33,0.74 -24.6,-1.56 -33.97,1.23 -7.04,13.69 9.07,11.05 19.88,11.19 11.69,0.16 23.47,-0.28 35.07,0.02 7.07,0.18 31.44,2.8 24.2,-9.57 -3.19,-5.45 -25.74,-2.21 -32.75,-2.52z"/>
   <path fill="#24346A" d="M1798.8 624.17c-5.17,-6.15 -4.04,-22.68 -2.87,-29.57 1.79,-10.53 5.22,-19.75 13.4,-22.03l15.79 33.77c-3.01,2.33 -3.46,2.63 -6.19,4.22l-20.13 13.61zm121.29 -51.34c13.15,6.56 13.3,33.64 13.27,49.53 -6.77,-2.49 -10.47,-7.34 -14.5,-11.73 -6.82,-7.45 -5.18,-6.33 -14.77,-11.05 1.53,-10.26 8.61,-23.87 16,-26.75zm-2.33 -45.25c-5.44,25.92 -27.73,84.2 -45.8,90.65 -18.66,6.66 -26.75,-5.46 -32.2,-16.1 -2.58,-5.04 -4.31,-5.87 -7.21,-10.32 -5.91,-9.05 -16.33,-36.57 -19.65,-48.92 -10.88,-40.47 4.96,-80.74 41.89,-86.56 40.08,-6.32 71.38,31.08 62.97,71.25zm-114.49 32.15c-10.24,13.73 -15.19,14 -18.58,38.18 -2.16,15.35 -0.3,39.09 8.26,48.14 1.74,-0.97 28.25,-29.8 35.07,-32.65 4.97,4.99 8.45,21.03 38.09,19.65 18.46,-0.86 27.7,-7.29 35.83,-22.66 6.13,2.53 5.35,3.73 9.31,7.89 5.94,6.24 17.78,23.27 26.38,23.08 4.95,-5.9 3.57,-10.38 3.58,-18.79 0.01,-11.92 1.29,-25.68 -1.61,-37.06 -3.43,-13.48 -4.42,-17.17 -15.77,-23.47 1.24,-8.39 4,-11.19 5.91,-19.12 5.28,-22.02 5.79,-43.38 -4.53,-62.8 -38.27,-72.03 -132.98,-38.72 -130.29,38.75 0.57,16.62 7.67,29.09 8.35,40.86z"/>
   <path fill="#24346A" d="M1851.59 965.71c15.67,3.84 12.77,11.86 56.81,12.87 41.36,0.95 43.84,-8.99 60.26,-11.9 0.38,26.3 9.24,50.39 -58.81,50.58 -15.83,0.05 -32.45,-3.39 -44.82,-9.32 -18.23,-8.75 -13.2,-18.84 -13.44,-42.23zm0.25 -43.34c7.02,1.38 15.16,6.39 24.11,8.6 15.28,3.79 50.32,4.15 65.34,0.56 8.84,-2.11 18.83,-6.49 27.09,-8.01l0.3 27.86c-5.15,12.92 -71.76,24.8 -107.49,6.21 -5.76,-3 -9.26,-3.73 -9.61,-11.96 -0.28,-6.64 -0.19,-16.64 0.26,-23.26zm42.91 -42.46c51.42,-9.63 120.74,31.03 33.95,41.77 -23.15,2.87 -54.46,-0.58 -70.63,-10.55 -25.57,-15.77 22.02,-28.48 36.68,-31.22zm-6.02 -11.31c-64.29,11.58 -48.4,29.39 -48.78,101.77 -0.17,31.34 -2.04,39.45 24.19,50.02 35.7,14.39 103.19,12.34 114.84,-18.85 2.93,-7.86 1.54,-62.4 1.48,-75.01 -0.15,-31.62 3.85,-40.73 -23.43,-51.55 -18.18,-7.2 -46.88,-10.23 -68.3,-6.38z"/>
   <path fill="#5A6FF7" d="M894.76 1084.39c-1.95,-51.39 -49.69,-101.76 -105.52,-99.52l-0.11 76.99c0.05,6.63 -2.29,21.07 3.06,22.9 3.16,1.08 96.61,0.83 102.57,-0.37z"/>
   <path fill="#FEFEFE" d="M1475.72 1828.2c-0.51,-1.61 -0.18,-24.24 -0.18,-27.9 -0.01,-6.34 -1.14,-8.19 3.64,-9.88 14.17,-5.03 11.26,12.4 11.46,30.61 0.03,2.49 2.49,12.72 -10.17,9.97 -5.43,-1.18 -3.73,0.38 -4.75,-2.8zm46.03 -5.59l-14.51 0.98c-1.3,-10.22 -0.43,-23.25 -0.43,-33.39 0.01,-11.96 -1.79,-23.91 15.08,-16.83l0.46 32.91 -0.6 16.33zm-77.36 -47.85c3.01,-0.86 3.32,-1.13 7.8,-0.44 2.2,0.34 1.82,0.3 3.46,1.01 8.78,3.76 4.55,41.2 3.77,51.26 -15.82,2.92 -15.24,-3.44 -15.57,-17.32 -0.24,-10.4 -2.52,-25.94 0.54,-34.51zm-25.99 -27.53l1.13 53.21c0.01,22.56 -1.38,25.14 17.35,33.12 26.83,11.45 62.74,10.11 90.69,1.04 26.75,-8.68 21.93,-14.78 22.07,-50.24l0.11 -38.96c-6.86,2.45 -4.02,5.04 -27.07,11.27 -21.4,5.79 -51.6,6.5 -73.39,1.47 -12.03,-2.77 -20.39,-7.95 -30.89,-10.91z"/>
   <path fill="#24346A" d="M1775.6 1579.66c14.51,-7.33 25.47,14.38 11.87,21.01 -11.92,5.81 -30.4,-11.66 -11.87,-21.01zm-104.97 -1.47c14.31,-6.22 21.19,15.95 8.71,21.1 -13.62,5.62 -25.02,-14.01 -8.71,-21.1zm148.51 -77.68c15.07,-8.24 24.15,13.21 11.33,20.34 -13.65,7.59 -25.46,-12.61 -11.33,-20.34zm-98.6 -15.71c30.14,-11.9 41.42,31.12 14.96,42.05 -26.04,10.75 -46.07,-29.76 -14.96,-42.05zm29.54 48.21c3.81,-7.53 8.16,-5.91 11.88,-17.9 12.62,-40.64 -47.39,-65.82 -67.39,-22.24 -7.87,17.13 1.96,31.48 9.07,41.6 -1.7,3.25 -19.64,27.62 -26.73,30.08 -9.03,3.13 -14.89,4.05 -19.62,9.62 -24.08,28.37 31.12,61.08 40.51,18.4 2.31,-10.54 -3.26,-14.43 -5.65,-21.57 4.19,-7.34 14.89,-21.37 20.44,-26.26l28.62 -2.29c5.74,9.83 18.16,19.3 23.92,28.55 -4.6,6.57 -13.27,13.88 -7.06,27.83 9.59,21.57 40.33,18.86 45.77,-0.88 4.78,-17.33 -4.93,-19.49 -8.76,-28.41 3.11,-6.82 14.09,-19.77 21.83,-35.86 14.75,-0.79 23.54,-0.8 29.65,-12.86 14.21,-28.05 -25.92,-45.22 -40.15,-25.51 -11.01,15.27 1.02,29.44 1.03,30.39 -2.76,7.01 -22.47,34.88 -29.1,37.9 -4.23,0.34 -26.59,-27.64 -28.26,-30.59z"/>
   <path fill="#794FEA" d="M153.29 552.16c7.44,3.92 30.3,27.39 30.85,38.26 -1.91,1.55 -0.63,0.61 -2.62,1.84l-34.08 20.03c-9.51,-4.6 -14.65,-8.45 -22.66,-13.89 -13.74,-9.35 -17.57,-7.54 -20.28,-15.29l48.79 -30.95zm-26.57 -33.94l5.52 -0.33c6.99,12.71 6.22,11.4 -13.78,25.98 -13.95,10.16 -26.16,6.27 -17.79,-11.34 -17.97,4.66 -15.11,1.55 -15.8,34.51 -0.31,14.57 -0.95,33.88 0.17,48.09 5.59,4.15 45.13,30.13 52.17,30.17 12.74,0.07 40.65,-26.24 52.66,-27.95l-0.49 -78.08c-6.8,-6.87 -19.97,-12.87 -29.82,-17.85 -10.98,-5.54 -21.05,-14.14 -29.66,-7.02 -2.68,2.21 -1.27,0.57 -3.18,3.82z"/>
   <path fill="#24346A" d="M1418.4 1747.23c10.5,2.96 18.86,8.14 30.89,10.91 21.79,5.03 51.99,4.32 73.39,-1.47 23.05,-6.23 20.21,-8.82 27.07,-11.27l-0.11 38.96c-0.14,35.46 4.68,41.56 -22.07,50.24 -27.95,9.07 -63.86,10.41 -90.69,-1.04 -18.73,-7.98 -17.34,-10.56 -17.35,-33.12l-1.13 -53.21zm1.45 -16.94c6.41,-15.32 42.48,-20.27 63.29,-20.49 15.72,-0.17 62.51,5.97 64.29,19.23 2.99,22.35 -111.6,30.69 -127.58,1.26zm140.92 90.61c2.82,-15.73 0.71,-58.62 0.67,-77.48 -0.06,-27.95 -12.29,-33.47 -36.53,-40.48 -21.05,-6.08 -47.33,-7.14 -70.67,-2.98 -18.81,3.35 -46.03,12.18 -47.29,30.24 -1.63,23.31 0.19,54.79 0.25,79.01 0.06,27.07 12.08,33.18 37.42,40.11 36.93,10.1 110,5.78 116.15,-28.42z"/>
   <path fill="#4E75F3" stroke="#24346A" stroke-width="0.87" stroke-miterlimit="2.61313" d="M238.33 1549.43l8.41 -0.51c2.09,7.09 2.67,28.61 1.05,36.1l-10.19 0.19c-0.69,-9.21 -1.2,-28.76 0.73,-35.78zm28.79 -19.17c10.86,0.07 8.13,10.08 8.19,20.27 0.04,7.6 0.87,20.26 -0.73,27.24 -5.02,3.04 -4.06,2.59 -8.77,-0.34 -1.13,-10.61 -3.09,-39.54 1.31,-47.17zm27.12 49.02c-1.03,-7.39 -1.91,-29.98 0.24,-36.31 8.61,-0.56 10.23,8.65 10.33,17.78 0.11,9.76 0.81,20.65 -10.57,18.53zm22.33 -65.07c-8.12,-5.27 -25.26,-12.02 -35.93,-16.38 -17.36,-7.09 -22.71,0.55 -38.35,7.39 -22.8,9.96 -16.76,7.55 -16.75,36.55 0.02,31.24 -2.8,47.43 35.52,70.47 7.59,4.56 10.98,5.23 18.77,0.51 6.19,-3.75 11.38,-7.25 16.35,-11.44 9.47,-7.99 18.36,-17.1 20.11,-33.46 1.35,-12.68 1.29,-40.83 0.28,-53.64z"/>
   <path fill="#FEFEFE" d="M1862.84 1221.02c-15.32,3.85 -23.05,8.09 -30.63,18.06 -29.82,39.21 4.21,85.08 45.16,78.66 22.48,-3.53 44.16,-27.07 40.99,-56.13 -2.64,-24.25 -27.37,-47.65 -55.52,-40.59z"/>
   <path fill="#FEFEFE" d="M1006.73 108.5c6.1,1.61 14.61,20.4 14.97,23.14 -12.27,2.14 -15.42,4.02 -28,-0.26 0.63,-3.79 9.42,-19.46 13.03,-22.88zm-37.94 -2.05c5.22,-2.73 21.73,-6.99 28.14,-7.14 -0.57,5.28 -7.38,19.23 -11.59,21.47 -6.31,3.37 -15.43,-7.77 -16.55,-14.33zm49.41 -7.24c3.5,0.22 23.99,5.18 28.01,7.49 -0.18,7.54 -7.61,15.52 -13.18,18.45 -5.68,-4.43 -14.11,-19.87 -14.83,-25.94zm2.53 -13.95c7.66,-5.55 15.53,-13.18 22.53,-13.85 4.76,6.19 6.82,15.34 6.34,24.06 -6.99,-0.29 -10.44,-1.15 -16.81,-2.95 -0.65,-0.18 -6.88,-1.98 -6.91,-1.99 -8.2,-3.81 -2.5,1.04 -5.15,-5.27zm-54.58 9.44c-0.92,-7.51 0.02,-17.53 4.05,-23.29 6.55,1.21 16.69,11.75 23.18,16.34 -3.95,3.09 -20.41,6.75 -27.23,6.95zm46.8 -42.7c7.57,-2.8 18.36,3.42 21.9,7.94 -2.14,5.5 -14.85,16.06 -22.32,17.28l0.42 -25.22zm-33.66 9.4c3.17,-4.27 14.83,-10.09 22.25,-9.51l-0.73 25.51c-7.19,-1.3 -18.97,-11.61 -21.52,-16zm21.3 -22.3c-7.07,3.99 -17.43,4.83 -28.56,11.09 -11.46,6.45 -13.8,-9.48 -26.41,-7.73 -3.17,11.82 8.84,12.66 15.56,20.4 -0.06,0.55 -6.91,34.37 -7.06,34.7 -7.45,4.07 -15.53,1.21 -21.8,6.22 3.97,8.87 19.86,3.54 24.36,6.36 3.82,4.7 5.82,8.58 10.11,13.1l13.07 12.69c-2.09,7.47 -7.48,13.63 -5.14,21.66 8.88,-0.27 10.06,-8.26 12.71,-15.79 6.72,0.21 11.69,1.85 19.32,1.79 6.92,-0.06 12.92,-2.45 19.42,-1.98 2.24,7.48 2.49,12.34 8.33,15.77 9.34,-5.05 3.29,-10.77 1.13,-19.99 5.64,-6.83 9.65,-5.74 18.53,-21.16 6.2,-10.77 10.3,-4.89 21.15,-8.35 5.74,-1.84 3.76,-0.84 5.95,-4.1 -4.48,-5.21 -12.48,-4.37 -20.63,-5.71 -0.77,-6.67 -0.61,-12.12 -1.94,-18.77 -1.26,-6.33 -4.37,-11.81 -4.02,-17.9 6.17,-6.17 19.2,-10.46 15.72,-19 -7.24,-2.25 -18.38,8.04 -24.2,11.08 -5.98,-1.99 -10.2,-5.98 -15.47,-8.66 -5.78,-2.94 -12.6,-4.19 -17.87,-6.72 -0.42,-9.91 2.14,-19.46 -6.12,-22.59 -7.57,6.1 -3.61,14.64 -6.14,23.59z"/>
   <path fill="#4E75F3" d="M1859.22 514.64c11.54,-7.47 22.98,11.73 12.21,19.83 -5.59,4.21 -13.41,2.06 -15.94,-3.69 -3.31,-7.53 -1.01,-13.07 3.73,-16.14zm-4.03 -40.64c-34.14,11.03 -29.7,70.77 -19.17,95.62l0.85 1.87c7.94,21.51 1.08,30.83 11.95,36.32 10.9,5.51 32.09,4.72 35.37,-9.75 3.7,-16.38 12.27,-52.54 12.48,-66.05 0.44,-28.24 -9.27,-68.42 -41.48,-58.01z"/>
   <path fill="#24346A" d="M1688.6 332.74c0.93,-15.5 -12.42,-7.2 -24.27,-7.22 -7.64,-0.02 -13.26,-1.66 -18.43,-4.59 -30.95,-17.54 -29.02,-48 -15.21,-62.21 13.35,-13.75 24.96,-8.65 33.01,-15.09 1.03,-17.67 2.23,-26.31 12.64,-37.27 28.87,-30.38 72.09,-11.18 79.63,16.22 1.89,6.85 1.34,17.11 4.47,21.8 9.28,7.32 17.78,0.09 29.09,16.31 18.02,25.85 -1.44,65.96 -39.01,64.97 -8.31,-0.21 -14.34,-4.11 -20.41,0.06 -8.87,15.59 28.92,14.92 40.44,11.33 34.14,-10.63 47.91,-47.51 34.49,-77.26 -6.66,-14.78 -16.64,-21.48 -33.72,-26.21 -11.12,-83.92 -113.98,-65.56 -119.61,-6.94 -1.75,18.27 -16.81,0.6 -36.34,29.8 -19.3,28.88 -0.76,74.19 36.83,81.39 9.19,1.76 19.93,2.26 28.87,-1.09l7.53 -4z"/>
   <path fill="#24346A" d="M443.65 109.23c-14.75,3.49 -24.18,5.38 -34.06,21.33 -7.32,11.82 -7.22,35.06 -0.82,48.18 19.31,39.58 75,30.44 77.57,22.95 -0.38,-9.08 -2.1,-2.43 -2.79,-8.29 -8.78,-0.85 -52.15,9.3 -63.68,-24.75 -4.73,-13.95 -2.77,-25.19 5.36,-35.49 10.13,-12.83 23.53,-7.6 31.34,-13.83 0.89,-1.5 -0.66,-48.3 38.61,-50.94 16.51,-1.11 25.92,1.91 34.91,10.8 13.08,12.93 9.63,22.68 14.84,30.09 17.77,2.64 26.6,-0.68 38.1,10.47 19.82,19.24 16.71,51.24 -6.19,67.17 -11.67,8.12 -25.62,6.04 -42.26,7.5l-4.22 5.45c5.06,15.75 64.71,12.49 76.84,-33.85 5.01,-19.12 0.59,-37.33 -8.76,-49.96 -9.08,-12.27 -21.23,-18.75 -42.65,-20.36 -7.83,-9.55 -6.46,-21.14 -20.02,-30.95 -29.28,-21.2 -83.51,-15.93 -92.12,44.48z"/>
   <path fill="#24346A" d="M446.7 1744.78c2.08,-18.06 2.26,-24.35 12.86,-34.12 6.94,-6.4 20.01,-12.32 32.77,-12.35 31.4,-0.06 41.93,21.33 46.95,45.17 2.94,13.97 16.46,2.73 32.73,13.8 23.25,15.83 16.43,45.23 -2.73,57.31 -15.57,9.82 -26.48,3.4 -36.63,8.8l-0.06 6.27c2.11,-0.03 3.59,2.79 8.49,4.03 44.07,11.11 77.94,-49.69 47.58,-79.9 -15.2,-15.12 -21.99,-12.62 -32.16,-15.47 -11.69,-3.28 -2.48,-18.55 -22.7,-37.84 -9.31,-8.87 -22.21,-14.64 -38.55,-15.39 -22.56,-1.02 -44.3,9.39 -54.23,27.43 -11.44,20.79 2.87,16.41 -17.94,23.23 -21.03,6.9 -36.98,32.2 -30.87,57.06 6.03,24.51 31.55,47.33 62.29,36.98 0.07,-5.49 -1.35,-7.13 -3.4,-9.99 -15.86,-1.99 -20.26,-0.39 -32,-8.98 -18.45,-13.5 -18.39,-40.17 -2.57,-55.39 11.17,-10.74 19.52,-4.34 30.17,-10.65z"/>
   <path fill="#24346A" d="M142.9 902.05l2.08 1.77c2.42,3.07 2.6,7.66 3.03,11.37 0.6,5.36 -0.19,8.41 5.14,9.11 7.44,0.98 1.97,-0.23 4.05,-1.15l-6.3 -34.35c-5.16,-26.7 -68.07,-49.49 -92.34,-7.39 -3.21,5.56 -3.56,9.94 -6.49,15.46 -65.51,7.41 -64.71,85.76 -22.57,103.62 28.18,11.94 37.27,-3.44 49.5,-3.85l24.92 30.48c4.6,4.05 7.11,3.7 11.37,-1.21 -1.19,-7.58 -12.75,-18.6 -19.09,-26.17 -3.6,-4.31 -1.41,-1.23 -3.12,-5.04 11.61,0.81 34.09,3.4 41.11,-3.86 -0.4,-10.18 -7.33,-9.03 -17.46,-9.04 -8.95,0 -17.23,0.2 -26.16,0.56 3.85,-9.66 18.09,-19.44 18.9,-28.06l-4.19 -4.56c-9.57,1.4 -25.95,25.54 -32.93,33.2 -23.48,25.8 -76.6,-5.27 -53.79,-50.85 16.2,-32.37 36.52,-13.09 43.79,-23.68 2,-3.18 1.28,-8.36 3.83,-13.47 11.9,-23.79 37.46,-29.87 61.67,-14.6 9.5,5.99 10.13,11.18 15.05,21.71z"/>
   <path fill="#FEFEFE" d="M1855.19 474c32.21,-10.41 41.92,29.77 41.48,58.01 -0.21,13.51 -8.78,49.67 -12.48,66.05 -3.28,14.47 -24.47,15.26 -35.37,9.75 -10.87,-5.49 -4.01,-14.81 -11.95,-36.32l-0.85 -1.87c-10.53,-24.85 -14.97,-84.59 19.17,-95.62zm62.57 53.58c8.41,-40.17 -22.89,-77.57 -62.97,-71.25 -36.93,5.82 -52.77,46.09 -41.89,86.56 3.32,12.35 13.74,39.87 19.65,48.92 2.9,4.45 4.63,5.28 7.21,10.32 5.45,10.64 13.54,22.76 32.2,16.1 18.07,-6.45 40.36,-64.73 45.8,-90.65z"/>
   <path fill="#24346A" d="M1862.84 1221.02c28.15,-7.06 52.88,16.34 55.52,40.59 3.17,29.06 -18.51,52.6 -40.99,56.13 -40.95,6.42 -74.98,-39.45 -45.16,-78.66 7.58,-9.97 15.31,-14.21 30.63,-18.06zm45.56 96.99l22.13 24.83c4.26,4.27 18.07,25.34 25.48,10.42 -1.89,-7.48 -30.52,-34.62 -37.31,-42.38 1.26,-7.04 15.16,-23.63 12.99,-46.71 -5.59,-59.44 -70.21,-73.02 -105.22,-39.63 -40.27,38.4 -11.67,104.14 35.13,107.04 31.36,1.94 34.24,-8.52 46.8,-13.57z"/>
   <path fill="#24346A" d="M100.67 532.53l26.05 -14.31c1.91,-3.25 0.5,-1.61 3.18,-3.82 8.61,-7.12 18.68,1.48 29.66,7.02 9.85,4.98 23.02,10.98 29.82,17.85l0.49 78.08c-12.01,1.71 -39.92,28.02 -52.66,27.95 -7.04,-0.04 -46.58,-26.02 -52.17,-30.17 -1.12,-14.21 -0.48,-33.52 -0.17,-48.09 0.69,-32.96 -2.17,-29.85 15.8,-34.51zm33.85 -33.02c-12.42,3.73 -34.69,16.58 -48.68,23.55 -16.51,8.24 -11.68,30.04 -11.62,60.05 0.02,8.28 -1.16,28.04 0.26,34.92 1.89,9.22 29.65,22.91 41.61,29.97 23.93,14.11 20.43,12.37 48.47,-3.87l22.82 -13.64c18.76,-11.65 13.79,-15.32 13.74,-57.61 -0.05,-45.95 6.93,-37.32 -41.87,-64.35 -5.87,-3.24 -16.96,-11.35 -24.73,-9.02z"/>
   <path fill="#5A6FF7" d="M859.13 1173.8c12.14,-4.24 28.31,-34.29 32.64,-52.83 1.11,-4.75 5.43,-19.91 1.65,-23.44 -4.94,-3.74 -85.25,-0.31 -99.99,-1.67 2.18,4.93 58.46,68.11 65.7,77.94z"/>
   <path fill="#FEFEFE" d="M1851.59 965.71c0.24,23.39 -4.79,33.48 13.44,42.23 12.37,5.93 28.99,9.37 44.82,9.32 68.05,-0.19 59.19,-24.28 58.81,-50.58 -16.42,2.91 -18.9,12.85 -60.26,11.9 -44.04,-1.01 -41.14,-9.03 -56.81,-12.87z"/>
   <path fill="#FEFEFE" d="M1894.75 879.91c-14.66,2.74 -62.25,15.45 -36.68,31.22 16.17,9.97 47.48,13.42 70.63,10.55 86.79,-10.74 17.47,-51.4 -33.95,-41.77z"/>
   <path fill="#FEFEFE" d="M1419.85 1730.29c15.98,29.43 130.57,21.09 127.58,-1.26 -1.78,-13.26 -48.57,-19.4 -64.29,-19.23 -20.81,0.22 -56.88,5.17 -63.29,20.49z"/>
   <path fill="#FEFEFE" d="M1851.84 922.37c-0.45,6.62 -0.54,16.62 -0.26,23.26 0.35,8.23 3.85,8.96 9.61,11.96 35.73,18.59 102.34,6.71 107.49,-6.21l-0.3 -27.86c-8.26,1.52 -18.25,5.9 -27.09,8.01 -15.02,3.59 -50.06,3.23 -65.34,-0.56 -8.95,-2.21 -17.09,-7.22 -24.11,-8.6z"/>
   <polygon fill="#FEFEFE" points="1331.98,888.74 1356.32,888.09 1356.49,743.64 1331.78,743.63 "/>
   <path fill="#24346A" d="M1322.39 1851.73c4.58,1.94 4.8,2.04 6.02,7.17l-12.78 0.03c2.55,-4.2 2.33,-4.39 6.76,-7.2zm-15.91 -0.38c-20.36,-1.78 -18.21,-46.34 9.98,-48.27 31.57,-2.18 38.95,30.74 22,45.14 -5.24,-3.72 -7.42,-11.85 -17.53,-13.93 -8.61,3.99 -8.33,11.36 -14.45,17.06zm53.61 -12.92c3.01,-13.27 -0.71,-22.7 -6.84,-32.09 -22.48,-34.47 -66.43,-16.65 -72.55,14.04 -2.64,13.21 0.38,25.84 6.49,34.25 4.08,5.62 13.63,15.08 23.86,17.16 27.13,5.52 44.4,-12.89 49.04,-33.36z"/>
   <polygon fill="#FEFEFE" points="1180.2,888.09 1204.3,888.01 1204.38,758.69 1180.06,758.67 "/>
   <path fill="#FEFEFE" d="M1077.61 1902.06l-146.01 -0.24c-4.15,19.97 9.12,20.37 25.44,20.3 15.58,-0.07 31.18,-0.04 46.77,-0.02 15.58,0.01 31.18,-0.05 46.76,-0.01 16.56,0.05 31.77,0.96 27.04,-20.03z"/>
   <polygon fill="#FEFEFE" points="1279.82,888.71 1303.86,888.07 1304.08,782.35 1279.76,782.36 "/>
   <path fill="#FEFEFE" d="M1127.77 888.07l24.18 0.12 0.1 -102.97 -23.4 0.22c-3.82,19.35 -0.85,79.05 -0.88,102.63z"/>
   <path fill="#24346A" d="M475.26 167.85l5.11 3.52c9.18,-3.25 12.08,-14.02 20.28,-17.7l0.4 59.71c0.02,11.03 -2.03,20.32 5.89,24.25 12.44,2 8.2,-28.56 8.2,-35.94l0.02 -45.66c8.56,4.4 10.45,18.06 21.61,15.6 1.54,-2.61 2.14,-5.06 1.8,-9.39 -6.54,-7 -23.25,-30.51 -33.09,-32.98 -5.9,0.43 -19.68,21.19 -25.38,26.57 -4.39,4.13 -5.7,4.39 -4.84,12.02z"/>
   <path fill="#24346A" d="M1677.63 298.14l4.13 3.85c9.26,-2.5 12.29,-15.34 19.78,-16.3l1.39 75c3.41,5.62 10.16,0.73 10.17,0.73 3.25,-13.48 0.98,-59.08 1.41,-76.02 9,2.26 13.23,15.08 24.68,15.8 6.56,-8.97 3.72,-9.63 -7.88,-21.81 -20.1,-21.07 -19.26,-28.27 -40.49,-4.49 -4.66,5.23 -14.4,13.28 -13.19,23.24z"/>
   <path fill="#1D1D20" d="M457.78 1803.36c0.3,7.3 31.7,45.6 39.83,43.28 0,0 43.36,-36.66 33.76,-45.82 -8.07,-5.78 -19.16,17.94 -30.17,21.61 -0.19,-14.64 3.26,-45.76 -2.77,-55.77l-7.69 0.25c-5.89,10.7 -2.83,39.12 -2.63,54.16 -9.93,-5.41 -15.5,-20.87 -26.59,-21.83l-3.74 4.12z"/>
   <polygon fill="#FEFEFE" points="1229.88,832.42 1229.93,888.72 1254.03,887.91 1254.4,811.64 1229.86,811.65 "/>
   <path fill="#FEFEFE" d="M1306.48 1851.35c6.12,-5.7 5.84,-13.07 14.45,-17.06 10.11,2.08 12.29,10.21 17.53,13.93 16.95,-14.4 9.57,-47.32 -22,-45.14 -28.19,1.93 -30.34,46.49 -9.98,48.27z"/>
   <path fill="#4E75F3" d="M1866.02 678.15c-7.24,-8.6 -5.27,-29.43 -14.51,-36.69 -2.79,-2.19 -1.69,-0.49 -4.77,-3.86 -4.09,-4.45 0.52,-2.27 -5.98,-3.92 -0.52,30.62 -3.21,25.27 12.7,55.58 3.33,6.34 6.26,9.44 14.02,8.9l3.35 -2.05c8.87,-7.07 18.12,-31.19 18.15,-47.24 0.02,-11.55 2.26,-15.99 -8.35,-17.27l-1.44 2.67c-0.68,2.31 -0.55,2.02 -0.91,4.38 -1.36,9.03 -3.67,7.21 -8.05,27.6 -1.19,5.57 -0.95,8.19 -4.21,11.9z"/>
   <path fill="#FEFEFE" d="M124.21 584.57c2.64,-3.32 18.67,-13.83 23.43,-16.12 10.86,-5.23 19.66,12.88 20.38,16.12 -2.67,3.4 -16.35,14.2 -21.91,13.99 -5.2,-0.19 -19.85,-10.48 -21.9,-13.99zm-19.71 -1.46c2.71,7.75 6.54,5.94 20.28,15.29 8.01,5.44 13.15,9.29 22.66,13.89l34.08 -20.03c1.99,-1.23 0.71,-0.29 2.62,-1.84 -0.55,-10.87 -23.41,-34.34 -30.85,-38.26l-48.79 30.95z"/>
   <polygon fill="#FEFEFE" points="1077.92,888.08 1102.26,888.05 1102.32,820.09 1077.92,820.24 "/>
   <path fill="#FEFEFE" d="M112.37 1328.99c8.94,-5.74 18.06,-26.7 26.3,-29.76 10.34,7 16.61,27.48 26.31,32.7 4.88,-3.94 31.24,-39.54 32.8,-44.44 -3,-3.34 -2.89,-4.32 -7.96,-5.09 -7.37,6.23 -18.34,26.98 -24.84,29.9 -17.83,-13.06 -18.94,-44.5 -35.32,-23.62 -17.4,22.19 -31.22,34.17 -17.29,40.31z"/>
   <path fill="#FEFEFE" d="M1720.54 1484.8c-31.11,12.29 -11.08,52.8 14.96,42.05 26.46,-10.93 15.18,-53.95 -14.96,-42.05z"/>
   <path fill="#24346A" d="M162.64 931.55c25,17.26 24.34,45.85 5.03,60.51 -9.19,6.97 -13.86,4.51 -24.31,7.92 -1.24,9.2 -0.03,12.26 9.83,11.37 5.98,-0.55 12.59,-2.91 16.7,-5.28 40.45,-23.31 23.95,-79.38 0.72,-84.49l-12.45 -1.79c0.37,6.07 -0.42,2.86 1.63,7.22l2.85 4.54z"/>
   <path fill="#FEFEFE" d="M247.32 245.46c-12.43,5.13 -15.65,15.86 -11.7,25.93 3.39,8.66 15.49,16.77 26.95,11.8 23.85,-10.35 11.84,-48.9 -15.25,-37.73z"/>
   <path fill="#FEFEFE" d="M241.74 415.05c4.93,21.06 45.07,17.37 37.83,-11.06 -1.81,-7.14 -12.14,-16.25 -24.12,-12.31 -7.55,2.49 -16.33,12.21 -13.71,23.37z"/>
   <path fill="#FEFEFE" d="M1275.63 207.53c3.56,0.88 8.03,5.61 12.28,8.22 5.23,3.21 8.75,4.92 13.39,7.04 9.17,4.22 22.13,8.29 33.54,8.67l11.9 -0.24c-2.65,-0.5 -11.58,-7.87 -15.61,-10.49 -17.37,-11.3 -18.74,-22.36 -46.88,-19.43 -10.04,1.04 -8.18,4.54 -8.62,6.23z"/>
   <path fill="#FEFEFE" d="M172.59 317.1c-23.64,11.11 -7.76,38.61 12.29,31.79 19.64,-6.67 10.27,-42.39 -12.29,-31.79z"/>
   <path fill="#4E75F3" d="M1818.93 610.56c2.73,-1.59 3.18,-1.89 6.19,-4.22l-15.79 -33.77c-8.18,2.28 -11.61,11.5 -13.4,22.03 -1.17,6.89 -2.3,23.42 2.87,29.57l20.13 -13.61z"/>
   <path fill="#4E75F3" d="M1444.39 1774.76c-3.06,8.57 -0.78,24.11 -0.54,34.51 0.33,13.88 -0.25,20.24 15.57,17.32 0.78,-10.06 5.01,-47.5 -3.77,-51.26 -1.64,-0.71 -1.26,-0.67 -3.46,-1.01 -4.48,-0.69 -4.79,-0.42 -7.8,0.44z"/>
   <path fill="#4E75F3" d="M1920.09 572.83c-7.39,2.88 -14.47,16.49 -16,26.75 9.59,4.72 7.95,3.6 14.77,11.05 4.03,4.39 7.73,9.24 14.5,11.73 0.03,-15.89 -0.12,-42.97 -13.27,-49.53z"/>
   <path fill="#794FEA" d="M124.21 584.57c2.05,3.51 16.7,13.8 21.9,13.99 5.56,0.21 19.24,-10.59 21.91,-13.99 -0.72,-3.24 -9.52,-21.35 -20.38,-16.12 -4.76,2.29 -20.79,12.8 -23.43,16.12z"/>
   <path fill="#4E75F3" d="M1522.35 1806.28l-0.46 -32.91c-16.87,-7.08 -15.07,4.87 -15.08,16.83 0,10.14 -0.87,23.17 0.43,33.39l14.51 -0.98 0.6 -16.33z"/>
   <path fill="#FEFEFE" d="M100.67 532.53c-8.37,17.61 3.84,21.5 17.79,11.34 20,-14.58 20.77,-13.27 13.78,-25.98l-5.52 0.33 -26.05 14.31z"/>
   <path fill="#4E75F3" d="M1475.72 1828.2c1.02,3.18 -0.68,1.62 4.75,2.8 12.66,2.75 10.2,-7.48 10.17,-9.97 -0.2,-18.21 2.71,-35.64 -11.46,-30.61 -4.78,1.69 -3.65,3.54 -3.64,9.88 0,3.66 -0.33,26.29 0.18,27.9z"/>
   <path fill="#4E75F3" d="M1330.28 88.2l0.15 21.88 23.21 0.27c0.51,-4.12 0.29,-7.05 0.38,-10.96 0.04,-1.71 0.26,-4.56 0.24,-6.02 -0.07,-8.1 1.14,-3.25 -1.2,-5.55 -2.28,-2.22 -18.8,-0.56 -22.78,0.38z"/>
   <path fill="#4E75F3" d="M1361.77 110.29c7.09,0.36 15.69,-0.87 21.17,1l1.11 -26.07 -21.76 -0.03 -0.52 25.1z"/>
   <polygon fill="#4E75F3" points="1361.64,138.4 1384.67,138.69 1384.7,116.48 1362.14,116.29 "/>
   <polygon fill="#4E75F3" points="1331.28,138.19 1353.86,138.42 1354.16,116.46 1330.63,116.34 "/>
   <path fill="#FEFEFE" d="M332.78 313.63c-14.01,5.83 -4.86,29.16 10.55,22.67 13.99,-5.89 7.25,-30.08 -10.55,-22.67z"/>
   <path fill="#FEFEFE" d="M267.12 1530.26c-4.4,7.63 -2.44,36.56 -1.31,47.17 4.71,2.93 3.75,3.38 8.77,0.34 1.6,-6.98 0.77,-19.64 0.73,-27.24 -0.06,-10.19 2.67,-20.2 -8.19,-20.27z"/>
   <path fill="#4E75F3" d="M1301.72 110.76c7.28,-0.44 15.18,-1.62 21.42,0.61l0.55 -23.52 -21.5 -0.77 -0.47 23.68z"/>
   <path fill="#4E75F3" d="M1391.77 138.22c23.1,2.25 24.09,0.91 21.9,-20.43 -7.28,-2.06 -14.91,-1.19 -22.42,-0.4l0.52 20.83z"/>
   <path fill="#FEFEFE" d="M1775.6 1579.66c-18.53,9.35 -0.05,26.82 11.87,21.01 13.6,-6.63 2.64,-28.34 -11.87,-21.01z"/>
   <polygon fill="#4E75F3" points="1302.42,138.5 1323.21,138.32 1323.96,116.3 1302.57,116.24 "/>
   <path fill="#4E75F3" d="M1272.3 117.63l-0.03 19.76c2.88,0.9 -0.19,0.39 4.91,0.83l17.31 0.24 0.35 -21.27 -22.54 0.44z"/>
   <polygon fill="#4E75F3" points="1361.5,77.29 1383.26,77.6 1383.48,56.19 1362.53,56.2 "/>
   <path fill="#4E75F3" d="M1020.73 85.26c2.65,6.31 -3.05,1.46 5.15,5.27 0.03,0.01 6.26,1.81 6.91,1.99 6.37,1.8 9.82,2.66 16.81,2.95 0.48,-8.72 -1.58,-17.87 -6.34,-24.06 -7,0.67 -14.87,8.3 -22.53,13.85z"/>
   <path fill="#4E75F3" d="M1819.14 1500.51c-14.13,7.73 -2.32,27.93 11.33,20.34 12.82,-7.13 3.74,-28.58 -11.33,-20.34z"/>
   <path fill="#4E75F3" d="M1006.73 108.5c-3.61,3.42 -12.4,19.09 -13.03,22.88 12.58,4.28 15.73,2.4 28,0.26 -0.36,-2.74 -8.87,-21.53 -14.97,-23.14z"/>
   <path fill="#FEFEFE" d="M1670.63 1578.19c-16.31,7.09 -4.91,26.72 8.71,21.1 12.48,-5.15 5.6,-27.32 -8.71,-21.1z"/>
   <path fill="#4E75F3" d="M1046.21 106.7c-4.02,-2.31 -24.51,-7.27 -28.01,-7.49 0.72,6.07 9.15,21.51 14.83,25.94 5.57,-2.93 13,-10.91 13.18,-18.45z"/>
   <path fill="#FEFEFE" d="M1859.22 514.64c-4.74,3.07 -7.04,8.61 -3.73,16.14 2.53,5.75 10.35,7.9 15.94,3.69 10.77,-8.1 -0.67,-27.3 -12.21,-19.83z"/>
   <path fill="#FEFEFE" d="M238.33 1549.43c-1.93,7.02 -1.42,26.57 -0.73,35.78l10.19 -0.19c1.62,-7.49 1.04,-29.01 -1.05,-36.1l-8.41 0.51z"/>
   <path fill="#4E75F3" d="M966.15 94.7c6.82,-0.2 23.28,-3.86 27.23,-6.95 -6.49,-4.59 -16.63,-15.13 -23.18,-16.34 -4.03,5.76 -4.97,15.78 -4.05,23.29z"/>
   <path fill="#4E75F3" d="M1012.53 77.22c7.47,-1.22 20.18,-11.78 22.32,-17.28 -3.54,-4.52 -14.33,-10.74 -21.9,-7.94l-0.42 25.22z"/>
   <path fill="#4E75F3" d="M968.79 106.45c1.12,6.56 10.24,17.7 16.55,14.33 4.21,-2.24 11.02,-16.19 11.59,-21.47 -6.41,0.15 -22.92,4.41 -28.14,7.14z"/>
   <path fill="#FEFEFE" d="M294.24 1579.28c11.38,2.12 10.68,-8.77 10.57,-18.53 -0.1,-9.13 -1.72,-18.34 -10.33,-17.78 -2.15,6.33 -1.27,28.92 -0.24,36.31z"/>
   <path fill="#FEFEFE" d="M1321.52 191.46c1.99,12.66 23.85,10.68 20.93,-3.99 -2.9,-14.62 -23.08,-9.71 -20.93,3.99z"/>
   <path fill="#4E75F3" d="M979.29 61.4c2.55,4.39 14.33,14.7 21.52,16l0.73 -25.51c-7.42,-0.58 -19.08,5.24 -22.25,9.51z"/>
   <path fill="#24346A" d="M142.9 902.05l2.19 23.24c3.75,3.49 12.88,4.96 17.55,6.26l-2.85 -4.54c-2.05,-4.36 -1.26,-1.15 -1.63,-7.22l12.45 1.79 -5.3 -4.38c-1.73,-0.83 -3.59,-1.38 -5.65,-2.36 -1.09,-5.45 -2.83,-18.89 -6.29,-23.71 -1.26,-1.76 -0.98,-1.07 -2.47,-2.33l6.3 34.35c-2.08,0.92 3.39,2.13 -4.05,1.15 -5.33,-0.7 -4.54,-3.75 -5.14,-9.11 -0.43,-3.71 -0.61,-8.3 -3.03,-11.37l-2.08 -1.77z"/>
   <path fill="#4E75F3" d="M1561.24 284.99c0.97,5.67 4.25,8.59 9.58,9.99l4.43 -5.36c-2.47,-5.2 -5.66,-6.54 -10.27,-8.95 -3.05,2.46 -1.71,1.18 -3.74,4.32z"/>
   <path fill="#4E75F3" d="M1532.82 260.07c-0.06,5.31 -0.57,6.1 3.71,9.59 1.43,1.16 5.83,4.33 8.07,2.2 5.66,-5.37 -3.66,-12.18 -11.78,-11.79z"/>
   <path fill="#4E75F3" d="M431.81 287.16c7.91,1.77 13.21,-4.25 13.27,-12 -7.2,0.02 -14.08,3.65 -13.27,12z"/>
   <path fill="#4E75F3" d="M1549.22 1683c6.72,-0.24 7.5,-1.91 11,-5.32 0.21,-3.97 -0.25,-5.74 -1.62,-8.13 -6.27,0.22 -10.68,5.9 -9.38,13.45z"/>
   <path fill="#4E75F3" d="M124.34 1144.43c-1.61,1.41 -1.58,-2.4 -1.73,4.24 -0.08,3.68 3.49,13.91 8.44,8.62 3.22,-3.45 -1.65,-17.29 -6.71,-12.86z"/>
   <path fill="#4E75F3" d="M695.35 133.01c1.58,3.34 2.48,5.49 8.74,4.51 5.21,-0.82 6.33,-3.49 5.07,-7.81 -0.02,-0.01 -0.2,-2.49 -7.56,-1.04 -5.64,1.11 -4.68,1.87 -6.25,4.34z"/>
   <path fill="#4E75F3" d="M637.39 156.1c7.34,4.24 17.79,0.47 13.71,-6.31 -2.22,-3.71 -5.7,-1.68 -7.91,-0.44 -3.87,2.18 -4.9,3.1 -5.8,6.75z"/>
   <path fill="#4E75F3" d="M863.01 92.55l-8.99 -1.45c-2.34,3.03 -6.94,8.36 0.77,9.96 7.68,1.59 9.64,-1.89 8.22,-8.51z"/>
   <path fill="#4E75F3" d="M113.59 1079.66c-1.69,3.29 -2.22,5.61 -1.2,10.52 1.02,4.96 1.47,5.39 6.43,4.94 3.29,-7.37 0.47,-16.79 -5.23,-15.46z"/>
   <path fill="#4E75F3" d="M1256.63 1833.65c1.35,-2.44 3.9,-1.72 3.97,-5.53 0.14,-7.22 -13.76,-6.01 -13.42,5.57l9.45 -0.04z"/>
   <path fill="#4E75F3" d="M253.29 499.2c5.36,-0.53 11.93,-8.06 10.52,-14.73 -7.51,-0.69 -12.38,5.84 -10.52,14.73z"/>
   <path fill="#4E75F3" d="M393.76 320.74c8.91,0.72 12.75,-3.19 12.34,-12.25 -7.08,-0.17 -12.94,5.49 -12.34,12.25z"/>
   <path fill="#4E75F3" d="M1493.28 232.14c-0.28,-7.34 -5.8,-10.51 -14.33,-9.7 -0.38,8.06 5.87,10.74 14.33,9.7z"/>
   <path fill="#4E75F3" d="M1750.33 490.62c1.05,-7.95 -3.85,-17.46 -9.83,-11.13 -4.11,4.35 2.95,11.01 9.83,11.13z"/>
   <path fill="#4E75F3" d="M145.93 714.53c-13.15,9.51 3.48,19.2 5.64,4.07 0.57,-4.01 -0.82,-7.55 -5.64,-4.07z"/>
   <path fill="#4E75F3" d="M1873.65 1176.08c10.46,0.88 10.39,-7.03 6.53,-13.67 -7.24,0.8 -7.76,6.08 -6.53,13.67z"/>
   <path fill="#4E75F3" d="M1612.57 1630.26c-5.77,0.08 -16.69,7.08 -12.73,11.11 4.27,4.35 13.21,-2.85 12.73,-11.11z"/>
   <path fill="#4E75F3" d="M1519.27 251.07c1.17,-7.72 -3.84,-13.07 -12.1,-10.88 -0.12,6.75 4.67,11.81 12.1,10.88z"/>
   <path fill="#4E75F3" d="M1823.02 1345.1c-10.42,-3 -12.31,7.5 -9.93,10.02 5.84,6.19 10.2,-3.78 9.93,-10.02z"/>
   <path fill="#4E75F3" d="M428.3 1654.46c5.05,-4.77 -4.64,-11.07 -12.64,-9.49 -0.71,5.69 8.81,13.1 12.64,9.49z"/>
   <path fill="#4E75F3" d="M739.73 1831.88c-1.28,-6.59 -5.93,-10.62 -14.1,-10.03 -3.27,8.67 7.86,10.28 14.1,10.03z"/>
   <path fill="#4E75F3" d="M786.88 111.62c3.88,1 5.07,1.55 9.21,0.76 5.02,-0.95 5.06,-2.08 5.91,-5.68 -5.55,-5.4 -15.34,-2.21 -15.12,4.92z"/>
   <path fill="#4E75F3" d="M1768.77 518.13c0.39,-7.15 -4.12,-11.85 -11,-12.52 -0.22,8.43 1.61,14.85 11,12.52z"/>
   <path fill="#4E75F3" d="M126.16 789.98l6.77 -0.63c7.07,-16.3 -9.81,-18.77 -6.77,0.63z"/>
   <path fill="#4E75F3" d="M1656.09 385.83c2.52,4.13 7.69,7.47 14.05,7.33 0.32,-9.55 -10.8,-15.18 -14.05,-7.33z"/>
   <path fill="#4E75F3" d="M1708.44 437.19c0.09,-0.17 4.1,-3.35 -1.43,-9.28 -2.1,-2.26 -4.02,-3.38 -7.95,-2.97 -0.41,4.26 0.43,6.04 2.23,8.74 5.33,7.97 7.1,3.54 7.15,3.51z"/>
   <path fill="#4E75F3" d="M791.29 1847.79c3.62,0.76 5.15,0.07 7.34,-1.02 -0.72,-7.93 -9.57,-11.87 -14.41,-3.95 2.22,2.18 0.84,3.65 7.07,4.97z"/>
   <path fill="#4E75F3" d="M1574.33 1664.02c7.72,0.45 14.02,-4.79 14.75,-10.55 -8.89,-2.12 -13.78,3.67 -14.75,10.55z"/>
   <path fill="#4E75F3" d="M756.55 117.3c6.46,2.28 8.97,2.97 14.6,-1.83 -0.83,-3.63 -1.28,-5.46 -6.85,-5.26 -5.06,0.19 -6.72,2.01 -7.75,7.09z"/>
   <path fill="#4E75F3" d="M1197.73 1847.99c3.16,-3.18 4.34,-1.75 3.9,-8.65 -5.77,-0.76 -11.07,0.2 -13.75,4.94 2.78,4.28 3.17,4.42 9.85,3.71z"/>
   <path fill="#4E75F3" d="M151.29 696.24c5.74,-0.16 8.98,-4.84 8.51,-11.68l-4.74 -3.27c-4.23,5.02 -5.28,7.28 -3.77,14.95z"/>
   <path fill="#4E75F3" d="M666.87 144.7c5.37,5.42 13.65,2.83 14.17,-6.2 -5.88,-1.2 -12.51,-0.06 -14.17,6.2z"/>
   <path fill="#4E75F3" d="M1163.44 106.62c4.55,2.59 7.3,2.99 13.5,0.88 0.74,-4.56 -0.61,-6.13 -5.19,-6.91 -6.57,-1.13 -7.95,0.33 -8.31,6.03z"/>
   <path fill="#4E75F3" d="M1732.59 462.99c-0.98,-3.34 -8.63,-14.14 -12.23,-7.87 -3.24,5.62 4.74,12.12 12.23,7.87z"/>
   <path fill="#4E75F3" d="M141.07 744.34c-10.83,-2.03 -9.38,10 -6.62,12.66 5,4.81 7.23,-7.45 6.62,-12.66z"/>
   <path fill="#4E75F3" d="M1781.77 1403.19l0.32 7.61c12.75,1.36 13.84,-22.9 -0.32,-7.61z"/>
   <path fill="#4E75F3" d="M725.28 126.48c7.81,1.54 14.92,1.79 15.14,-6.23 -7.01,-1.91 -14.38,-1.2 -15.14,6.23z"/>
   <path fill="#4E75F3" d="M236.7 527.31c5.93,-1.41 8.99,-5.57 7.84,-13.5 -8.84,-1.79 -10.24,6.61 -7.84,13.5z"/>
   <path fill="#4E75F3" d="M1206.85 114.01c0.28,-5.15 0.13,-5.8 -4.16,-7.48 -3.1,-1.21 -6.37,-1.19 -7.77,1.22 -3.04,5.25 5.93,9.23 11.93,6.26z"/>
   <path fill="#4E75F3" d="M1218.45 1839.89c5.34,4.64 13.75,0.67 12.7,-3.96 -0.68,-3.01 -3.71,-3.96 -7.52,-2.88 -4.32,1.23 -4.82,2.9 -5.18,6.84z"/>
   <path fill="#4E75F3" d="M124.08 1126.48c2.33,-4.96 3.74,-13.5 -6.05,-14.54 -0.63,3.11 -1.05,5.98 0.05,9.13 1.55,4.46 1.81,4.62 6,5.41z"/>
   <path fill="#4E75F3" d="M1129.36 1855.97c5.65,5.13 11.58,1.1 14.77,-2.92 -4.98,-6.61 -12.06,-4.11 -14.77,2.92z"/>
   <path fill="#4E75F3" d="M1624.04 1618.7c5.94,1.51 10.2,-1.07 11.73,-4.8 2.76,-6.77 0.22,-2.78 -0.19,-4.09 -7.06,-1.61 -11.88,1.81 -11.54,8.89z"/>
   <path fill="#4E75F3" d="M1880.56 1145.86c7.74,-0.87 11.61,-8.26 5.92,-14.24 -6.29,1.54 -6.09,6.3 -5.92,14.24z"/>
   <path fill="#4E75F3" d="M1797.71 1383.77c8.34,0.76 10.61,-3.99 11.4,-11.57 -7.83,0 -11.18,3.76 -11.4,11.57z"/>
   <path fill="#4E75F3" d="M861.44 1858.89c-3.87,-4.9 -7.4,-7.31 -15.14,-4.04 1.25,3.6 0.75,5.11 6.03,6.4 4.83,1.17 6.12,0.25 9.11,-2.36z"/>
   <path fill="#4E75F3" d="M1158.82 1851.59c6.41,4.37 12.56,1.16 14.13,-4.25 -5.3,-3.1 -13.47,-4 -14.13,4.25z"/>
   <path fill="#4E75F3" d="M819.61 102.32c3.86,6.99 15.52,4.83 13.22,-2.79 -4.54,-2.59 -10.27,-2.16 -13.22,2.79z"/>
   <path fill="#4E75F3" d="M269.56 474.09c6.4,0.48 13.52,-6.62 9.38,-10.78 -4.22,-4.25 -10.22,3.72 -9.38,10.78z"/>
   <path fill="#4E75F3" d="M350.54 1574.14c-3.03,7.14 3.94,13.59 9.35,13.52 0.63,-7.46 -3.39,-12.47 -9.35,-13.52z"/>
   <path fill="#4E75F3" d="M222.67 1406.56c1.91,-7.75 -1.89,-12.68 -8.01,-13.73 -3.24,6.73 2.8,13.25 8.01,13.73z"/>
   <path fill="#4E75F3" d="M650.02 1794.49c4.08,-4.4 -6.6,-8.58 -12.4,-8.03 -0.85,6.35 8.54,12.18 12.4,8.03z"/>
   <path fill="#4E75F3" d="M1889.4 1085.55c4.44,-0.02 5.98,-0.62 6.59,-6.05 0.55,-4.86 -1.19,-5.85 -5.13,-6.66 -3.52,3.74 -4.82,6.46 -1.46,12.71z"/>
   <path fill="#4E75F3" d="M453.22 267.24c6.74,2.91 11.91,-1.61 11.55,-9.9 -6.74,0.2 -11.38,3.63 -11.55,9.9z"/>
   <path fill="#4E75F3" d="M679.06 1810.48c0.11,-7.53 -4.56,-10.04 -12.41,-9.71 -0.2,7.1 5.41,10.26 12.41,9.71z"/>
   <path fill="#4E75F3" d="M1687.73 417.79l3.71 -2.63c-0.8,-5.91 -4.3,-9.47 -10.83,-9.91 0.06,6.91 2.04,10.08 7.12,12.54z"/>
   <path fill="#4E75F3" d="M131.1 1186.42c6.26,-0.14 5.75,-0.98 8.31,-4.15 -0.81,-5.15 -3.24,-8.48 -8.93,-8.24l0.62 12.39z"/>
   <path fill="#4E75F3" d="M405.3 1634.39c0.63,-6.08 -4.76,-11.25 -11.73,-10.17 -0.79,6.43 5,10.57 11.73,10.17z"/>
   <path fill="#4E75F3" d="M1883.95 794.04c0.63,-6.64 0,-9.76 -4.78,-12.31 -6.13,3.93 -4.19,14.59 4.78,12.31z"/>
   <path fill="#4E75F3" d="M1887.07 1117.31c5.79,-2.15 6.17,-7.5 4.56,-14.79 -7.61,-0.2 -7.56,9.2 -4.56,14.79z"/>
   <path fill="#4E75F3" d="M410.42 305.45c8.13,0.76 12.63,-3.14 10.05,-9.92 -6.76,-0.45 -9.91,3.12 -10.05,9.92z"/>
   <path fill="#4E75F3" d="M769.36 1836.97c-2.14,-5.72 -9.09,-7.41 -13.4,-2.92 0.96,1.32 -0.53,4.23 5.66,5.42 4.68,0.9 5.22,0.09 7.74,-2.5z"/>
   <path fill="#4E75F3" d="M824.82 1847.8c-5.96,-2.02 -5.54,-0.59 -8.14,2.32 1.07,1.19 -0.09,3.29 4.64,4.63 7.31,2.06 7.62,-1.27 7.64,-1.28 0.58,-2.57 1.03,-3.91 -4.14,-5.67z"/>
   <path fill="#4E75F3" d="M1870.91 736.98c3.21,-5.08 2.77,-12.82 -6.05,-11.84 -0.8,6.78 -0.19,11.87 6.05,11.84z"/>
   <path fill="#4E75F3" d="M1132.85 100.84c5.1,4.06 14.64,4.14 11.63,-1.87 -1.45,-2.9 -9.9,-7.14 -11.63,1.87z"/>
   <path fill="#4E75F3" d="M1764.03 1430.71l-0.03 7.11c6.06,-0.63 9.32,-4.55 9.28,-10.99 -5.45,-0.5 -6.04,0.8 -9.25,3.88z"/>
   <path fill="#4E75F3" d="M381.3 1610.65c3.64,-4.03 -4.35,-8.91 -9.92,-8.65 -0.6,5.03 5.55,13.49 9.92,8.65z"/>
   <path fill="#4E75F3" d="M707.9 1818.86c-1.94,-4.98 -6.48,-7.35 -12.4,-5.41 0.43,4.79 0.41,5.72 4.88,6.7 3.67,0.8 5.49,-0.15 7.52,-1.29z"/>
   <path fill="#4E75F3" d="M238.63 1431.26c1.03,-6.72 -1.25,-9.05 -4.97,-11.85 -8.33,4.35 0.52,11.75 4.97,11.85z"/>
   <path fill="#FEFEFE" d="M1322.39 1851.73c-4.43,2.81 -4.21,3 -6.76,7.2l12.78 -0.03c-1.22,-5.13 -1.44,-5.23 -6.02,-7.17z"/>
   <path fill="#4E75F3" d="M256.52 1455.03c0.85,-6.61 -2.14,-9.13 -8.2,-9.68 -0.01,6.73 1.6,10.38 8.2,9.68z"/>
   <path fill="#4E75F3" d="M1876.25 763.94l1.02 -7.62c-2.48,-1.89 -2.42,-2.71 -6.21,-2.91 -1.05,6.16 -0.43,9.31 5.19,10.53z"/>
   <path fill="#4E75F3" d="M1885.02 827.76c3.93,-3.82 3.07,-10.07 -2.45,-11.66 -0.46,6.4 -1.17,8.44 2.45,11.66z"/>
   <polyline fill="none" stroke="#794FEA" stroke-width="6.07" stroke-miterlimit="2.61313" points="626.51,878.27 674.37,829.44 717.04,852.2 757.62,801.94 798.77,829.25 860.97,759.65 895.68,779.56 941.19,725.89 "/>
   <path fill="#FEFEFE" fill-rule="nonzero" d="M1048.89 1032.82l6.05 -0.67c0.14,1.24 0.53,2.15 1.14,2.75 0.62,0.59 1.43,0.89 2.44,0.89 1.28,0 2.37,-0.6 3.26,-1.79 0.89,-1.19 1.46,-3.66 1.71,-7.39 -1.57,1.82 -3.52,2.73 -5.88,2.73 -2.55,0 -4.76,-0.99 -6.62,-2.97 -1.85,-1.97 -2.78,-4.54 -2.78,-7.71 0,-3.3 0.98,-5.96 2.94,-7.98 1.96,-2.02 4.46,-3.03 7.49,-3.03 3.3,0 6.01,1.28 8.12,3.83 2.12,2.57 3.18,6.77 3.18,12.63 0,5.96 -1.1,10.26 -3.3,12.9 -2.19,2.64 -5.06,3.96 -8.59,3.96 -2.54,0 -4.58,-0.68 -6.15,-2.04 -1.56,-1.36 -2.57,-3.4 -3.01,-6.11zm14.05 -13.65c0,-2.01 -0.46,-3.57 -1.39,-4.68 -0.91,-1.1 -1.98,-1.66 -3.2,-1.66 -1.15,0 -2.1,0.46 -2.86,1.37 -0.76,0.91 -1.14,2.39 -1.14,4.45 0,2.1 0.41,3.64 1.24,4.62 0.83,0.98 1.86,1.47 3.1,1.47 1.2,0 2.2,-0.47 3.02,-1.41 0.82,-0.95 1.23,-2.34 1.23,-4.16z"/>
   <path id="_1_17" fill="#FEFEFE" fill-rule="nonzero" d="M1074.17 1032.82l6.05 -0.67c0.14,1.24 0.53,2.15 1.14,2.75 0.62,0.59 1.44,0.89 2.44,0.89 1.28,0 2.37,-0.6 3.26,-1.79 0.9,-1.19 1.46,-3.66 1.71,-7.39 -1.56,1.82 -3.52,2.73 -5.88,2.73 -2.55,0 -4.76,-0.99 -6.62,-2.97 -1.85,-1.97 -2.78,-4.54 -2.78,-7.71 0,-3.3 0.98,-5.96 2.94,-7.98 1.96,-2.02 4.46,-3.03 7.49,-3.03 3.3,0 6.01,1.28 8.13,3.83 2.11,2.57 3.17,6.77 3.17,12.63 0,5.96 -1.1,10.26 -3.29,12.9 -2.2,2.64 -5.07,3.96 -8.6,3.96 -2.53,0 -4.58,-0.68 -6.15,-2.04 -1.56,-1.36 -2.57,-3.4 -3.01,-6.11zm14.05 -13.65c0,-2.01 -0.46,-3.57 -1.39,-4.68 -0.91,-1.1 -1.98,-1.66 -3.19,-1.66 -1.15,0 -2.11,0.46 -2.87,1.37 -0.76,0.91 -1.14,2.39 -1.14,4.45 0,2.1 0.42,3.64 1.24,4.62 0.83,0.98 1.86,1.47 3.1,1.47 1.2,0 2.21,-0.47 3.02,-1.41 0.82,-0.95 1.23,-2.34 1.23,-4.16z"/>
   <polygon id="_2_18" fill="#FEFEFE" fill-rule="nonzero" points="1100.55,1040.38 1100.55,1034.15 1106.77,1034.15 1106.77,1040.38 "/>
   <path id="_3_19" fill="#FEFEFE" fill-rule="nonzero" d="M1112.09 1032.82l6.04 -0.67c0.15,1.24 0.53,2.15 1.15,2.75 0.61,0.59 1.43,0.89 2.44,0.89 1.28,0 2.36,-0.6 3.25,-1.79 0.9,-1.19 1.47,-3.66 1.72,-7.39 -1.57,1.82 -3.53,2.73 -5.88,2.73 -2.56,0 -4.77,-0.99 -6.63,-2.97 -1.85,-1.97 -2.78,-4.54 -2.78,-7.71 0,-3.3 0.98,-5.96 2.94,-7.98 1.97,-2.02 4.47,-3.03 7.5,-3.03 3.29,0 6,1.28 8.12,3.83 2.11,2.57 3.17,6.77 3.17,12.63 0,5.96 -1.1,10.26 -3.29,12.9 -2.2,2.64 -5.06,3.96 -8.59,3.96 -2.54,0 -4.59,-0.68 -6.16,-2.04 -1.56,-1.36 -2.56,-3.4 -3,-6.11zm14.04 -13.65c0,-2.01 -0.46,-3.57 -1.38,-4.68 -0.92,-1.1 -1.99,-1.66 -3.2,-1.66 -1.15,0 -2.11,0.46 -2.87,1.37 -0.76,0.91 -1.14,2.39 -1.14,4.45 0,2.1 0.42,3.64 1.24,4.62 0.83,0.98 1.86,1.47 3.1,1.47 1.2,0 2.21,-0.47 3.02,-1.41 0.82,-0.95 1.23,-2.34 1.23,-4.16z"/>
   <path id="_4_20" fill="#FEFEFE" fill-rule="nonzero" d="M1137.37 1032.82l6.04 -0.67c0.15,1.24 0.53,2.15 1.15,2.75 0.61,0.59 1.43,0.89 2.44,0.89 1.28,0 2.36,-0.6 3.26,-1.79 0.89,-1.19 1.46,-3.66 1.71,-7.39 -1.57,1.82 -3.53,2.73 -5.88,2.73 -2.55,0 -4.77,-0.99 -6.62,-2.97 -1.86,-1.97 -2.78,-4.54 -2.78,-7.71 0,-3.3 0.97,-5.96 2.94,-7.98 1.96,-2.02 4.46,-3.03 7.49,-3.03 3.29,0 6.01,1.28 8.12,3.83 2.11,2.57 3.17,6.77 3.17,12.63 0,5.96 -1.09,10.26 -3.29,12.9 -2.2,2.64 -5.06,3.96 -8.59,3.96 -2.54,0 -4.59,-0.68 -6.15,-2.04 -1.57,-1.36 -2.57,-3.4 -3.01,-6.11zm14.04 -13.65c0,-2.01 -0.46,-3.57 -1.38,-4.68 -0.92,-1.1 -1.99,-1.66 -3.2,-1.66 -1.15,0 -2.11,0.46 -2.86,1.37 -0.77,0.91 -1.15,2.39 -1.15,4.45 0,2.1 0.42,3.64 1.25,4.62 0.82,0.98 1.85,1.47 3.09,1.47 1.2,0 2.21,-0.47 3.03,-1.41 0.82,-0.95 1.22,-2.34 1.22,-4.16z"/>
   <path id="_5_21" fill="#FEFEFE" fill-rule="nonzero" d="M1162.47 1015.81c0,-2.91 0.64,-5.06 1.92,-6.46 1.28,-1.4 3.02,-2.11 5.21,-2.11 2.26,0 4.04,0.7 5.32,2.09 1.28,1.4 1.91,3.56 1.91,6.48 0,2.91 -0.63,5.06 -1.91,6.46 -1.28,1.41 -3.03,2.11 -5.22,2.11 -2.26,0 -4.03,-0.7 -5.31,-2.09 -1.28,-1.4 -1.92,-3.55 -1.92,-6.48zm4.86 0c0,2.1 0.24,3.51 0.74,4.23 0.37,0.53 0.88,0.79 1.53,0.79 0.67,0 1.19,-0.26 1.57,-0.79 0.47,-0.72 0.71,-2.13 0.71,-4.23 0,-2.1 -0.24,-3.5 -0.71,-4.2 -0.38,-0.55 -0.9,-0.82 -1.57,-0.82 -0.65,0 -1.16,0.26 -1.53,0.79 -0.5,0.72 -0.74,2.13 -0.74,4.23zm7.02 25.84l-4.61 0 17.33 -34.41 4.51 0 -17.23 34.41zm10.07 -8.58c0,-2.92 0.65,-5.08 1.93,-6.49 1.28,-1.4 3.03,-2.11 5.25,-2.11 2.23,0 3.99,0.71 5.27,2.11 1.28,1.41 1.92,3.57 1.92,6.49 0,2.94 -0.64,5.11 -1.92,6.52 -1.28,1.41 -3.02,2.11 -5.21,2.11 -2.27,0 -4.03,-0.7 -5.31,-2.11 -1.28,-1.41 -1.93,-3.58 -1.93,-6.52zm4.87 0.02c0,2.12 0.24,3.53 0.73,4.24 0.37,0.55 0.89,0.82 1.54,0.82 0.67,0 1.18,-0.26 1.54,-0.8 0.49,-0.72 0.73,-2.14 0.73,-4.26 0,-2.13 -0.23,-3.55 -0.71,-4.27 -0.37,-0.54 -0.89,-0.8 -1.56,-0.8 -0.67,0 -1.18,0.26 -1.54,0.8 -0.49,0.72 -0.73,2.14 -0.73,4.27z"/>
   <path fill="#FEFEFE" fill-rule="nonzero" d="M1306 1040.38l-6.22 0 0 -23.56c-2.28,2.14 -4.96,3.72 -8.05,4.74l0 -5.68c1.63,-0.53 3.39,-1.54 5.3,-3.03 1.91,-1.49 3.21,-3.22 3.92,-5.2l5.05 0 0 32.73z"/>
   <path id="_1_22" fill="#FEFEFE" fill-rule="nonzero" d="M1336.42 1034.61l0 5.77 -21.86 0c0.23,-2.2 0.95,-4.27 2.13,-6.23 1.18,-1.97 3.52,-4.57 7.01,-7.82 2.81,-2.62 4.53,-4.4 5.16,-5.34 0.86,-1.28 1.29,-2.56 1.29,-3.82 0,-1.4 -0.37,-2.47 -1.12,-3.21 -0.74,-0.75 -1.77,-1.13 -3.08,-1.13 -1.31,0 -2.34,0.4 -3.11,1.19 -0.77,0.78 -1.21,2.08 -1.33,3.9l-6.22 -0.62c0.37,-3.44 1.53,-5.91 3.48,-7.41 1.96,-1.49 4.39,-2.24 7.33,-2.24 3.21,0 5.73,0.87 7.57,2.61 1.84,1.73 2.75,3.89 2.75,6.48 0,1.47 -0.26,2.86 -0.78,4.19 -0.53,1.33 -1.36,2.72 -2.5,4.17 -0.75,0.97 -2.13,2.36 -4.1,4.17 -1.97,1.81 -3.22,3 -3.75,3.6 -0.53,0.59 -0.95,1.18 -1.28,1.74l12.41 0z"/>
   <path id="_2_23" fill="#FEFEFE" fill-rule="nonzero" d="M1351.18 1007.65c3.15,0 5.62,1.13 7.4,3.39 2.11,2.67 3.17,7.1 3.17,13.28 0,6.17 -1.07,10.61 -3.2,13.31 -1.76,2.23 -4.22,3.34 -7.37,3.34 -3.17,0 -5.72,-1.22 -7.66,-3.66 -1.94,-2.44 -2.91,-6.79 -2.91,-13.05 0,-6.15 1.07,-10.57 3.2,-13.27 1.76,-2.22 4.22,-3.34 7.37,-3.34zm0 5.18c-0.74,0 -1.41,0.25 -1.98,0.73 -0.59,0.48 -1.04,1.34 -1.36,2.59 -0.42,1.62 -0.64,4.34 -0.64,8.17 0,3.83 0.19,6.46 0.57,7.89 0.38,1.44 0.86,2.39 1.43,2.87 0.58,0.48 1.24,0.71 1.98,0.71 0.74,0 1.41,-0.24 1.99,-0.73 0.58,-0.47 1.03,-1.34 1.35,-2.59 0.43,-1.6 0.64,-4.32 0.64,-8.15 0,-3.83 -0.19,-6.46 -0.57,-7.89 -0.38,-1.43 -0.86,-2.39 -1.43,-2.87 -0.58,-0.48 -1.24,-0.73 -1.98,-0.73z"/>
   <rect fill="#794DF1" stroke="#794DF1" stroke-width="2.02" stroke-miterlimit="2.61313" x="1077.92" y="820.24" width="24.34" height="67.81"/>
   <rect fill="#794DF1" stroke="#794DF1" stroke-width="2.02" stroke-miterlimit="2.61313" x="1127.01" y="785.31" width="24.34" height="102.74"/>
   <rect fill="#5A6FF7" stroke="#5A6FF7" stroke-width="2.02" stroke-miterlimit="2.61313" x="1180.2" y="758.68" width="24.34" height="129.37"/>
   <rect fill="#794DF1" stroke="#794DF1" stroke-width="2.02" stroke-miterlimit="2.61313" x="1229.3" y="811.65" width="24.34" height="76.4"/>
   <rect fill="#794DF1" stroke="#794DF1" stroke-width="2.02" stroke-miterlimit="2.61313" x="1278.39" y="782.35" width="24.34" height="105.7"/>
   <rect fill="#5A6FF7" stroke="#5A6FF7" stroke-width="2.02" stroke-miterlimit="2.61313" x="1331.58" y="743.63" width="24.34" height="144.42"/>
   <path fill="#FEFEFE" fill-rule="nonzero" d="M1079.69 1150.85c3.15,0 5.62,1.12 7.4,3.38 2.11,2.67 3.17,7.1 3.17,13.28 0,6.18 -1.07,10.62 -3.2,13.32 -1.76,2.22 -4.22,3.34 -7.37,3.34 -3.17,0 -5.72,-1.22 -7.66,-3.66 -1.94,-2.44 -2.91,-6.8 -2.91,-13.06 0,-6.14 1.07,-10.57 3.2,-13.26 1.76,-2.23 4.22,-3.34 7.37,-3.34zm0 5.18c-0.74,0 -1.41,0.24 -1.98,0.72 -0.59,0.48 -1.04,1.35 -1.36,2.6 -0.42,1.61 -0.64,4.34 -0.64,8.16 0,3.84 0.19,6.47 0.57,7.9 0.38,1.43 0.86,2.38 1.43,2.86 0.58,0.48 1.24,0.71 1.98,0.71 0.74,0 1.41,-0.24 1.99,-0.72 0.58,-0.48 1.03,-1.34 1.35,-2.59 0.43,-1.6 0.64,-4.32 0.64,-8.16 0,-3.82 -0.19,-6.45 -0.57,-7.88 -0.38,-1.44 -0.86,-2.4 -1.43,-2.88 -0.58,-0.48 -1.24,-0.72 -1.98,-0.72z"/>
   <polygon id="_1_24" fill="#FEFEFE" fill-rule="nonzero" points="1095.72,1183.58 1095.72,1177.35 1101.95,1177.35 1101.95,1183.58 "/>
   <path id="_2_25" fill="#FEFEFE" fill-rule="nonzero" d="M1128.13 1177.8l0 5.78 -21.87 0c0.24,-2.2 0.95,-4.28 2.13,-6.24 1.18,-1.96 3.52,-4.57 7.01,-7.82 2.81,-2.62 4.53,-4.4 5.17,-5.33 0.85,-1.29 1.28,-2.56 1.28,-3.83 0,-1.39 -0.37,-2.46 -1.12,-3.21 -0.74,-0.75 -1.77,-1.12 -3.08,-1.12 -1.31,0 -2.34,0.39 -3.11,1.18 -0.76,0.78 -1.2,2.08 -1.32,3.91l-6.23 -0.62c0.37,-3.44 1.53,-5.91 3.48,-7.41 1.96,-1.49 4.4,-2.24 7.33,-2.24 3.21,0 5.74,0.87 7.58,2.6 1.83,1.74 2.75,3.9 2.75,6.48 0,1.47 -0.27,2.86 -0.79,4.2 -0.52,1.32 -1.36,2.71 -2.5,4.16 -0.75,0.97 -2.12,2.36 -4.09,4.17 -1.98,1.81 -3.23,3.01 -3.75,3.61 -0.53,0.59 -0.96,1.17 -1.28,1.73l12.41 0z"/>
   <path id="_3_26" fill="#FEFEFE" fill-rule="nonzero" d="M1132.36 1159.01c0,-2.91 0.64,-5.07 1.93,-6.47 1.28,-1.4 3.01,-2.1 5.2,-2.1 2.27,0 4.04,0.69 5.32,2.09 1.28,1.39 1.92,3.55 1.92,6.48 0,2.9 -0.64,5.06 -1.92,6.46 -1.28,1.4 -3.02,2.1 -5.21,2.1 -2.27,0 -4.03,-0.69 -5.31,-2.09 -1.29,-1.39 -1.93,-3.55 -1.93,-6.47zm4.86 0c0,2.09 0.25,3.5 0.74,4.22 0.37,0.53 0.89,0.8 1.54,0.8 0.67,0 1.19,-0.27 1.56,-0.8 0.48,-0.72 0.71,-2.13 0.71,-4.22 0,-2.1 -0.23,-3.51 -0.71,-4.21 -0.37,-0.54 -0.89,-0.82 -1.56,-0.82 -0.65,0 -1.17,0.27 -1.54,0.8 -0.49,0.72 -0.74,2.13 -0.74,4.23zm7.03 25.84l-4.62 0 17.33 -34.41 4.52 0 -17.23 34.41zm10.07 -8.59c0,-2.91 0.64,-5.07 1.92,-6.48 1.28,-1.41 3.03,-2.11 5.25,-2.11 2.24,0 3.99,0.7 5.27,2.11 1.29,1.41 1.92,3.57 1.92,6.48 0,2.94 -0.63,5.11 -1.92,6.52 -1.28,1.41 -3.02,2.11 -5.21,2.11 -2.26,0 -4.03,-0.7 -5.31,-2.11 -1.28,-1.41 -1.92,-3.58 -1.92,-6.52zm4.86 0.02c0,2.12 0.24,3.54 0.74,4.24 0.37,0.56 0.88,0.83 1.53,0.83 0.67,0 1.19,-0.27 1.54,-0.81 0.49,-0.71 0.74,-2.14 0.74,-4.26 0,-2.12 -0.24,-3.55 -0.72,-4.27 -0.37,-0.53 -0.89,-0.8 -1.56,-0.8 -0.66,0 -1.18,0.27 -1.53,0.8 -0.5,0.72 -0.74,2.15 -0.74,4.27z"/>
   <path fill="#FEFEFE" fill-rule="nonzero" d="M1306 1183.58l-6.22 0 0 -23.57c-2.28,2.14 -4.96,3.72 -8.05,4.75l0 -5.69c1.63,-0.53 3.39,-1.53 5.3,-3.03 1.91,-1.48 3.21,-3.22 3.92,-5.19l5.05 0 0 32.73z"/>
   <path id="_1_27" fill="#FEFEFE" fill-rule="nonzero" d="M1336.42 1177.8l0 5.78 -21.86 0c0.23,-2.2 0.95,-4.28 2.13,-6.24 1.18,-1.96 3.52,-4.57 7.01,-7.82 2.81,-2.62 4.53,-4.4 5.16,-5.33 0.86,-1.29 1.29,-2.56 1.29,-3.83 0,-1.39 -0.37,-2.46 -1.12,-3.21 -0.74,-0.75 -1.77,-1.12 -3.08,-1.12 -1.31,0 -2.34,0.39 -3.11,1.18 -0.77,0.78 -1.21,2.08 -1.33,3.91l-6.22 -0.62c0.37,-3.44 1.53,-5.91 3.48,-7.41 1.96,-1.49 4.39,-2.24 7.33,-2.24 3.21,0 5.73,0.87 7.57,2.6 1.84,1.74 2.75,3.9 2.75,6.48 0,1.47 -0.26,2.86 -0.78,4.2 -0.53,1.32 -1.36,2.71 -2.5,4.16 -0.75,0.97 -2.13,2.36 -4.1,4.17 -1.97,1.81 -3.22,3.01 -3.75,3.61 -0.53,0.59 -0.95,1.17 -1.28,1.73l12.41 0z"/>
   <path id="_2_28" fill="#FEFEFE" fill-rule="nonzero" d="M1341.52 1159.98l5.73 0 0 3.22c2.05,-2.47 4.5,-3.72 7.34,-3.72 1.51,0 2.82,0.31 3.93,0.93 1.11,0.63 2.02,1.57 2.72,2.82 1.04,-1.25 2.16,-2.19 3.36,-2.82 1.2,-0.62 2.48,-0.93 3.84,-0.93 1.73,0 3.19,0.35 4.39,1.06 1.2,0.7 2.1,1.73 2.69,3.09 0.43,1 0.64,2.63 0.64,4.88l0 15.07 -6.23 0 0 -13.47c0,-2.34 -0.21,-3.85 -0.64,-4.52 -0.58,-0.89 -1.47,-1.33 -2.67,-1.33 -0.87,0 -1.7,0.26 -2.47,0.79 -0.76,0.54 -1.32,1.32 -1.66,2.34 -0.35,1.03 -0.51,2.65 -0.51,4.87l0 11.32 -6.23 0 0 -12.91c0,-2.29 -0.11,-3.78 -0.33,-4.44 -0.22,-0.66 -0.56,-1.16 -1.03,-1.49 -0.47,-0.33 -1.1,-0.48 -1.9,-0.48 -0.96,0 -1.82,0.25 -2.59,0.77 -0.77,0.52 -1.32,1.26 -1.65,2.24 -0.33,0.98 -0.5,2.6 -0.5,4.86l0 11.45 -6.23 0 0 -23.6z"/>
   <circle fill="none" transform="matrix(1.05954 0.173537 -0.168843 1.03089 1005.5 977.616)" r="718.59"/>
  </g>
 </g>
</svg>
