<?xml version="1.0" encoding="UTF-8"?>
<!DOCTYPE svg PUBLIC "-//W3C//DTD SVG 1.1//EN" "http://www.w3.org/Graphics/SVG/1.1/DTD/svg11.dtd">
<!-- Creator: CorelDRAW -->
<svg xmlns="http://www.w3.org/2000/svg" xml:space="preserve" width="1287px" height="1759px" version="1.1" shape-rendering="geometricPrecision" text-rendering="geometricPrecision" image-rendering="optimizeQuality" fill-rule="evenodd" clip-rule="evenodd"
viewBox="0 0 1264.35 1728.37"
 xmlns:xlink="http://www.w3.org/1999/xlink"
 xmlns:xodm="http://www.corel.com/coreldraw/odm/2003">
 <g id="Layer_x0020_1">
  <metadata id="CorelCorpID_0Corel-Layer"/>
  <g id="_1970741605328">
   <path fill="#D2CDE7" stroke="#7E71B1" stroke-width="16.38" stroke-miterlimit="2.61313" d="M846.53 1248.88l346.72 170.64c66.67,32.82 63.78,-52.93 62.44,-139.29l-3.4 -219.64 -347.12 -327.3 -58.64 515.59z"/>
   <path fill="#D2CDE7" stroke="#7E71B1" stroke-width="16.38" stroke-miterlimit="2.61313" d="M404.72 1157.05l0 -171.03 -18.64 -268.24c-38.86,35.87 -342.31,304.6 -343.83,330.32l-11.54 195.36c-6.75,114.14 -9.39,204.83 59.1,171.36l337.97 -165.2 -5.87 -67.06c-10.02,-3.92 -17.19,-13.9 -17.19,-25.51z"/>
   <path fill="#A79ECD" stroke="#7E71B1" stroke-width="16.38" stroke-miterlimit="2.61313" d="M193.13 1136.21l76.1 5.88c1.84,26.46 1.47,50.72 3.31,77.18l-88.21 80.49 -74.69 -75.98 83.49 -87.57z"/>
   <rect fill="#E6F1FB" stroke="#7E71B1" stroke-width="16.38" stroke-miterlimit="2.61313" x="714.57" y="312.09" width="534.72" height="372.85" rx="67.24" ry="58.96"/>
   <path fill="#D2CDE7" stroke="#7E71B1" stroke-width="16.38" stroke-miterlimit="2.61313" d="M127.69 432.41c0,-9.73 7.96,-17.69 17.69,-17.69l46.39 0c9.73,0 17.69,7.96 17.69,17.69l0 45.98 -81.77 0 0 -45.98zm-15.35 47.11l109.56 0c8.36,0 15.19,6.84 15.19,15.2l0 82.61c0,8.35 -6.83,15.19 -15.19,15.19l-109.56 0c-8.35,0 -15.19,-6.84 -15.19,-15.19l0 -82.61c0,-8.36 6.84,-15.2 15.19,-15.2zm-44.22 205.43l302.74 0c0.1,-118.57 0.39,-240.39 0.4,-260.99 0,-19.86 9.76,-55.35 15.02,-75.73 1.55,-8.44 4.82,-16.39 7.65,-24.56l4.38 -11.58 -330.19 0c-32.96,0 -59.93,26.97 -59.93,59.94l0 252.99c0,32.96 26.97,59.93 59.93,59.93z"/>
   <polyline fill="none" stroke="#7E71B1" stroke-width="16.38" stroke-miterlimit="2.61313" points="861.17,1187.29 819.76,1326.87 450.92,1327.5 410.95,1187.29 "/>
   <rect fill="#A79ECD" stroke="#7E71B1" stroke-width="8.19" stroke-miterlimit="2.61313" x="97.15" y="479.52" width="139.94" height="113" rx="15.15" ry="15.19"/>
   <path fill="#7E71B1" stroke="#7E71B1" stroke-width="8.19" stroke-miterlimit="2.61313" d="M143.16 447.59c0,-9.73 7.96,-17.69 17.69,-17.69l16.46 0c9.73,0 17.69,7.96 17.69,17.69l0 17.1 -51.84 0 0 -17.1zm-15.47 30.8l81.77 0 0 -45.98c0,-9.73 -7.96,-17.69 -17.69,-17.69l-46.39 0c-9.73,0 -17.69,7.96 -17.69,17.69l0 45.98z"/>
   <path fill="#D2CDE7" stroke="#7E71B1" stroke-width="16.38" stroke-miterlimit="2.61313" d="M665.31 602.28l43.25 0c6.31,-0.01 5.39,0.14 8.79,3.55 6.45,6.48 4.35,7.69 -0.21,17.44 -2.52,5.41 -3.36,3.74 -6.03,7.7 -3.49,5.14 0.88,0.58 -5.43,7.3l-11.19 15.35c-7.3,7.29 -5.97,7.35 -11.16,15.35l-23.33 29.79c-1.75,2.19 -0.99,2.02 -2.47,4.36 -1.38,2.19 -1.72,1.87 -3.3,3.64 -3.2,3.58 -1.47,4.02 -5.12,7.62 -3.91,3.85 -2.99,4.86 -5.76,8l-16.88 21.46c-4.39,7.71 -3.49,3.76 -6.01,7.75 -1.69,2.69 -6.69,14.21 -15.52,9.93 -7.5,-3.64 1.23,-25.85 1.7,-32.88l4.27 -21.64c0.33,-6.09 3.88,-16.82 4.3,-22.58 0.54,-7.48 0.77,0.75 2.19,-11.72 0.59,-5.18 8.88,-12.26 -9.09,-12.25l-35.38 -0.02c-11.9,-0.03 -9.72,0.22 -17.94,-4.14 -2.23,-15.75 0.85,-14.65 4.42,-18.84 1.89,-2.22 1.8,-3.29 3.35,-5.47 2.97,-4.19 4.1,-3.06 7.54,-9.19 2.06,-3.65 6.77,-7.78 10.36,-14.16 2.08,-3.69 1.55,-2.2 4.07,-4.83l10.06 -14.46c1.58,-2.24 2.61,-2.37 4.25,-4.63 1.61,-2.23 1.58,-3.2 3.49,-5.34 6.48,-7.23 2.73,-4.83 7.29,-9.45l28.99 -38.86c2.02,-3.21 1.87,-2.35 4.07,-4.72l10.1 -14.45c1.52,-2.29 2.65,-2.55 4.18,-4.7 2.93,-4.1 2.97,-7.82 9.13,-8.79 3.76,1.31 7.61,4.85 7.51,10.07 -0.11,5.5 -0.97,3.56 -1.89,6.55l-2.73 14.06c-0.54,6.58 -1.14,1.24 -2.08,7.01 -0.71,4.39 0.76,3.25 -1,7.63 -1.86,4.64 -0.72,1.36 -1.35,6.99 -0.72,6.37 -1,1.73 -1.89,6.26 -0.75,3.82 0.49,3.56 -0.99,7.89l-1.33 6.52c-0.54,6.91 -1.04,2.72 -1.94,7.06 -0.52,2.47 0.09,5.13 -0.27,7.61 -0.57,3.85 -8.75,16.22 6.98,16.23zm-294.05 -178.32c-0.01,41.64 -1.22,497 0.43,502.84 1.36,4.81 3.61,11.59 7.38,15.33 1.39,1.38 2.28,2.07 3.89,2.96 0.92,0.5 1.56,0.73 2.68,1.29 9.91,4.85 14.51,3.54 25.13,3.55l460.93 -0.01c8.81,0 15.12,-0.97 21.64,-7.03 11.53,-10.7 9.05,-26.78 9.05,-41.29l0.02 -434.4c0.02,-12.8 2.03,-33.29 -9.15,-41.2 -7.67,-5.42 -44.89,-2.98 -58.91,-3 -9.74,-0.02 -43.43,1.59 -50.95,-1.23 -6.68,-2.5 -16.97,0.05 -23.51,-11.78 -2.77,-5.01 -3.44,-2.3 -4.32,-7.67 -0.66,-3.99 -1.95,-4.96 -2.31,-9.74 -1.08,-14.59 -3.23,-67.12 8.44,-79.28l40.88 -1.21 71.09 0c-0.2,-4.07 -2.23,-6.31 -3.42,-10.33 -2.39,-8.05 -10.32,-24.2 -14.58,-32.78 -7.26,-14.6 -18.43,-36.51 -27.01,-49.63 -36.78,-55.09 -119.08,-169.13 -174.68,-205.64 -6.07,-3.99 -15,-6.97 -22.45,-4.79 -4.08,1.2 -10.64,2.71 -14.27,5.26 -21.36,15.04 -44.44,41.78 -63.11,60.8 -28.37,28.88 -53.46,60.81 -78.23,92.75 -2.63,3.73 -6.72,8.21 -8.62,11.02 -6.07,9.06 -23.7,36.99 -28.7,46.98l-31.83 63.54c-1.41,3.3 -0.9,3.86 -2.58,7.25l-10.26 27.15c-2.83,8.17 -6.1,16.12 -7.65,24.56l-8.65 33.51c-0.46,6.69 -1.38,6.59 -2.21,11.7 -1.79,11.08 -4.16,19.13 -4.16,30.52z"/>
   <path fill="#7E71B1" d="M665.31 602.28c-15.73,-0.01 -7.55,-12.38 -6.98,-16.23 0.36,-2.48 -0.25,-5.14 0.27,-7.61 0.9,-4.34 1.4,-0.15 1.94,-7.06l1.33 -6.52c1.48,-4.33 0.24,-4.07 0.99,-7.89 0.89,-4.53 1.17,0.11 1.89,-6.26 0.63,-5.63 -0.51,-2.35 1.35,-6.99 1.76,-4.38 0.29,-3.24 1,-7.63 0.94,-5.77 1.54,-0.43 2.08,-7.01l2.73 -14.06c0.92,-2.99 1.78,-1.05 1.89,-6.55 0.1,-5.22 -3.75,-8.76 -7.51,-10.07 -6.16,0.97 -6.2,4.69 -9.13,8.79 -1.53,2.15 -2.66,2.41 -4.18,4.7l-10.1 14.45c-2.2,2.37 -2.05,1.51 -4.07,4.72l-28.99 38.86c-4.56,4.62 -0.81,2.22 -7.29,9.45 -1.91,2.14 -1.88,3.11 -3.49,5.34 -1.64,2.26 -2.67,2.39 -4.25,4.63l-10.06 14.46c-2.52,2.63 -1.99,1.14 -4.07,4.83 -3.59,6.38 -8.3,10.51 -10.36,14.16 -3.44,6.13 -4.57,5 -7.54,9.19 -1.55,2.18 -1.46,3.25 -3.35,5.47 -3.57,4.19 -6.65,3.09 -4.42,18.84 8.22,4.36 6.04,4.11 17.94,4.14l35.38 0.02c17.97,-0.01 9.68,7.07 9.09,12.25 -1.42,12.47 -1.65,4.24 -2.19,11.72 -0.42,5.76 -3.97,16.49 -4.3,22.58l-4.27 21.64c-0.47,7.03 -9.2,29.24 -1.7,32.88 8.83,4.28 13.83,-7.24 15.52,-9.93 2.52,-3.99 1.62,-0.04 6.01,-7.75l16.88 -21.46c2.77,-3.14 1.85,-4.15 5.76,-8 3.65,-3.6 1.92,-4.04 5.12,-7.62 1.58,-1.77 1.92,-1.45 3.3,-3.64 1.48,-2.34 0.72,-2.17 2.47,-4.36l23.33 -29.79c5.19,-8 3.86,-8.06 11.16,-15.35l11.19 -15.35c6.31,-6.72 1.94,-2.16 5.43,-7.3 2.67,-3.96 3.51,-2.29 6.03,-7.7 4.56,-9.75 6.66,-10.96 0.21,-17.44 -3.4,-3.41 -2.48,-3.56 -8.79,-3.55l-43.25 0z"/>
   <ellipse fill="#7E71B1" stroke="#7E71B1" stroke-width="2.05" stroke-miterlimit="2.61313" cx="1099.62" cy="499.39" rx="39.52" ry="39.38"/>
   <path fill="none" d="M1042.26 449.07c12.28,-18.03 40.56,9.92 43.78,-17.16 0.04,-0.32 0.05,-0.57 0.11,-0.87 0.05,-0.29 0.1,-0.54 0.17,-0.81l0.53 -1.44c0.09,-0.22 0.22,-0.46 0.31,-0.67 0.1,-0.2 0.23,-0.45 0.34,-0.65l1.09 -1.85c4.69,-6.96 13.73,-6.81 18.31,0l2.23 4.65c0.68,2.56 0.31,3.17 1.13,5.75 0.87,2.74 0.11,-1.75 1.04,2.89 1.03,5.12 9.39,9.1 15.06,9.65 3.28,0.32 6.94,-1.67 9.98,-2.71l6.58 -2.31c26.76,-9.65 -6.22,21.24 24.64,46.23 7.4,2.31 12.34,15.55 1.45,19.22 -10.67,3.54 -21.39,11.71 -17.82,24.63l2.8 8.05c5.4,10.85 1.24,20.86 -12.98,12 -10.73,-5.19 -12.2,-5.92 -22.36,0.28 -8.99,5.84 -6.66,8.32 -10.07,16.47 -0.99,1.96 -0.78,5.88 -2.97,5.88l-13.76 0c-3.5,0 -2.77,-2.16 -3.74,-6.1 -1.08,-4.41 -2.17,-11.4 -6.14,-14.5l-1.24 -0.72c-7.74,-4.43 -16.44,-5.85 -24.3,-0.34 -4.54,3.18 -7.72,3.01 -11.28,-0.44 -4.56,-4.43 -1.56,-9.54 0.24,-14.53 4.92,-13.66 7.59,-23.44 -10.5,-29.26 -11.86,-2.43 -16.68,-14.18 -9.88,-17.66l1.3 -0.66c0.27,-0.14 1.02,-0.55 1.29,-0.68l7.26 -2.57c0.21,-0.09 0.46,-0.21 0.67,-0.31l1.27 -0.69c0.2,-0.1 0.43,-0.26 0.63,-0.36 12.21,-3.71 12.11,-18.71 7.56,-28.45 -2.04,-4.36 -5.48,-6.53 -2.73,-9.96m24.04 -20.19c-5.4,0 -13.7,-6.87 -21.91,-6.17 -13.34,1.12 -29.08,11.54 -18.44,37.67 0.1,0.2 0.21,0.47 0.31,0.67 5.52,10.13 3.87,10.73 -5.73,13.46 -0.23,0.08 -0.5,0.17 -0.73,0.26 -0.29,0.11 -1.09,0.46 -1.37,0.59 -0.04,0.01 -1.52,0.78 -1.95,1l-6.75 4.06c-0.15,0.14 -0.35,0.34 -0.5,0.48 -3.2,3.04 -4.57,6.97 -5.44,10.28 -0.43,1.64 -0.39,1.68 -0.47,3.47 -0.83,20.28 6.31,19.83 20.41,31.82 11.6,5.76 4.83,9.13 -0.67,20.35 -7.6,10.79 15.96,35.22 34.7,26.83l2.91 -1.02c13.42,-4.72 11.14,2.46 15.75,16.15 6.61,10.89 40.48,9.64 45.64,-1.93l0.82 -2.13c0.35,-1.06 0.33,-1.28 0.65,-2.29 0.08,-0.25 0.16,-0.51 0.24,-0.75 0.07,-0.24 0.17,-0.49 0.25,-0.73 3.42,-10.15 3.73,-13.68 14.28,-7.86l11.27 4.6c3.52,1.08 6.53,-1.05 9.79,-2.67 2.75,-2.67 18.61,-16.73 18.97,-18.38 4,-18.19 -28.07,-19.47 6.55,-34.73 9.29,-3.2 14.14,-32.6 -2.6,-44.89 -0.2,-0.1 -0.46,-0.22 -0.66,-0.32 -0.2,-0.1 -0.46,-0.23 -0.66,-0.33 -1.23,-0.6 -0.09,-0.04 -1.31,-0.65l-8.52 -4.26c-0.2,-0.1 -0.47,-0.23 -0.66,-0.32 -3.46,-1.74 -1.03,-5.61 0.76,-8.09 7.02,-9.74 8.08,-9.87 3.21,-20.45 -2.21,-4.31 -10.57,-13.09 -14.44,-17.01 -3.2,-2.12 -5.86,-3.54 -10.93,-2.46 -6.26,2 -13.36,3.02 -19.26,5.38 -0.13,0.07 -0.39,0.28 -0.61,0.37l-5.21 -12.49c-0.09,-0.21 -0.23,-0.45 -0.33,-0.66l-2.97 -5.86c-1.56,-2.53 -4.42,-4.04 -6.95,-4.85l-4.39 -1.51c-21.1,-4.25 -35.57,4.71 -43.05,25.37"/>
   <path fill="#7E71B1" d="M1025.01 492.75c-6.8,3.48 -1.98,15.23 9.88,17.66 18.09,5.82 15.42,15.6 10.5,29.26 -1.8,4.99 -4.8,10.1 -0.24,14.53 3.56,3.45 6.74,3.62 11.28,0.44 7.86,-5.51 16.56,-4.09 24.3,0.34l1.24 0.72c3.97,3.1 5.06,10.09 6.14,14.5 0.97,3.94 0.24,6.1 3.74,6.1l13.76 0c2.19,0 1.98,-3.92 2.97,-5.88 3.41,-8.15 1.08,-10.63 10.07,-16.47 10.16,-6.2 11.63,-5.47 22.36,-0.28 14.22,8.86 18.38,-1.15 12.98,-12l-2.8 -8.05c-3.57,-12.92 7.15,-21.09 17.82,-24.63 10.89,-3.67 5.95,-16.91 -1.45,-19.22 -30.86,-24.99 2.12,-55.88 -24.64,-46.23l-6.58 2.31c-3.04,1.04 -6.7,3.03 -9.98,2.71 -5.67,-0.55 -14.03,-4.53 -15.06,-9.65 -0.93,-4.64 -0.17,-0.15 -1.04,-2.89 -0.82,-2.58 -0.45,-3.19 -1.13,-5.75l-2.23 -4.65c-4.58,-6.81 -13.62,-6.96 -18.31,0l-1.09 1.85c-0.11,0.2 -0.24,0.45 -0.34,0.65 -0.09,0.21 -0.22,0.45 -0.31,0.67l-0.53 1.44c-0.07,0.27 -0.12,0.52 -0.17,0.81 -0.06,0.3 -0.07,0.55 -0.11,0.87 -3.22,27.08 -31.5,-0.87 -43.78,17.16 -2.75,3.43 0.69,5.6 2.73,9.96 4.55,9.74 4.65,24.74 -7.56,28.45 -0.2,0.1 -0.43,0.26 -0.63,0.36l-1.27 0.69c-0.21,0.1 -0.46,0.22 -0.67,0.31l-7.26 2.57c-0.27,0.13 -1.02,0.54 -1.29,0.68l-1.3 0.66zm74.61 46.02c-21.83,0 -39.52,-17.63 -39.52,-39.38 0,-21.76 17.69,-39.39 39.52,-39.39 21.82,0 39.51,17.63 39.51,39.39 0,21.75 -17.69,39.38 -39.51,39.38z"/>
   <path fill="#7E71B1" stroke="#7E71B1" stroke-width="0.88" stroke-miterlimit="2.61313" d="M1034.89 510.41c-11.86,-2.43 -16.68,-14.18 -9.88,-17.66l1.3 -0.66c0.27,-0.14 1.02,-0.55 1.29,-0.68l7.26 -2.57c0.21,-0.09 0.46,-0.21 0.67,-0.31l1.27 -0.69c0.2,-0.1 0.43,-0.26 0.63,-0.36 12.21,-3.71 12.11,-18.71 7.56,-28.45 -2.04,-4.36 -5.48,-6.53 -2.73,-9.96 12.28,-18.03 40.56,9.92 43.78,-17.16 0.04,-0.32 0.05,-0.57 0.11,-0.87 0.05,-0.29 0.1,-0.54 0.17,-0.81l0.53 -1.44c0.09,-0.22 0.22,-0.46 0.31,-0.67 0.1,-0.2 0.23,-0.45 0.34,-0.65l1.09 -1.85c4.69,-6.96 13.73,-6.81 18.31,0l2.23 4.65c0.68,2.56 0.31,3.17 1.13,5.75 0.87,2.74 0.11,-1.75 1.04,2.89 1.03,5.12 9.39,9.1 15.06,9.65 3.28,0.32 6.94,-1.67 9.98,-2.71l6.58 -2.31c26.76,-9.65 -6.22,21.24 24.64,46.23 7.4,2.31 12.34,15.55 1.45,19.22 -10.67,3.54 -21.39,11.71 -17.82,24.63l2.8 8.05c5.4,10.85 1.24,20.86 -12.98,12 -10.73,-5.19 -12.2,-5.92 -22.36,0.28 -8.99,5.84 -6.66,8.32 -10.07,16.47 -0.99,1.96 -0.78,5.88 -2.97,5.88l-13.76 0c-3.5,0 -2.77,-2.16 -3.74,-6.1 -1.08,-4.41 -2.17,-11.4 -6.14,-14.5l-1.24 -0.72c-7.74,-4.43 -16.44,-5.85 -24.3,-0.34 -4.54,3.18 -7.72,3.01 -11.28,-0.44 -4.56,-4.43 -1.56,-9.54 0.24,-14.53 4.92,-13.66 7.59,-23.44 -10.5,-29.26zm-8.63 -49.36c5.52,10.13 3.87,10.73 -5.73,13.46 -0.23,0.08 -0.5,0.17 -0.73,0.26 -0.29,0.11 -1.09,0.46 -1.37,0.59 -0.04,0.01 -1.52,0.78 -1.95,1l-6.75 4.06c-0.15,0.14 -0.35,0.34 -0.5,0.48 -3.2,3.04 -4.57,6.97 -5.44,10.28 -0.43,1.64 -0.39,1.68 -0.47,3.47 -0.83,20.28 6.31,19.83 20.41,31.82 11.6,5.76 4.83,9.13 -0.67,20.35 -7.6,10.79 15.96,35.22 34.7,26.83l2.91 -1.02c13.42,-4.72 11.14,2.46 15.75,16.15 6.61,10.89 40.48,9.64 45.64,-1.93l0.82 -2.13c0.35,-1.06 0.33,-1.28 0.65,-2.29 0.08,-0.25 0.16,-0.51 0.24,-0.75 0.07,-0.24 0.17,-0.49 0.25,-0.73 3.42,-10.15 3.73,-13.68 14.28,-7.86l11.27 4.6c3.52,1.08 6.53,-1.05 9.79,-2.67 2.75,-2.67 18.61,-16.73 18.97,-18.38 4,-18.19 -28.07,-19.47 6.55,-34.73 9.29,-3.2 14.14,-32.6 -2.6,-44.89 -0.2,-0.1 -0.46,-0.22 -0.66,-0.32 -0.2,-0.1 -0.46,-0.23 -0.66,-0.33 -1.23,-0.6 -0.09,-0.04 -1.31,-0.65l-8.52 -4.26c-0.2,-0.1 -0.47,-0.23 -0.66,-0.32 -3.46,-1.74 -1.03,-5.61 0.76,-8.09 7.02,-9.74 8.08,-9.87 3.21,-20.45 -2.21,-4.31 -10.57,-13.09 -14.44,-17.01 -3.2,-2.12 -5.86,-3.54 -10.93,-2.46 -6.26,2 -13.36,3.02 -19.26,5.38 -0.13,0.07 -0.39,0.28 -0.61,0.37l-5.21 -12.49c-0.09,-0.21 -0.23,-0.45 -0.33,-0.66l-2.97 -5.86c-1.56,-2.53 -4.42,-4.04 -6.95,-4.85l-4.39 -1.51c-21.1,-4.25 -35.57,4.71 -43.05,25.37 -5.4,0 -13.7,-6.87 -21.91,-6.17 -13.34,1.12 -29.08,11.54 -18.44,37.67 0.1,0.2 0.21,0.47 0.31,0.67z"/>
   <path fill="#7E71B1" d="M1099.62 460c-21.83,0 -39.52,17.63 -39.52,39.39 0,21.75 17.69,39.38 39.52,39.38 21.82,0 39.51,-17.63 39.51,-39.38 0,-21.76 -17.69,-39.39 -39.51,-39.39z"/>
   <path fill="#A79ECD" d="M1099.62 538.77c-21.83,0 -39.52,-17.63 -39.52,-39.38 0,-21.76 17.69,-39.39 39.52,-39.39 21.82,0 39.51,17.63 39.51,39.39 0,21.75 -17.69,39.38 -39.51,39.38zm-64.73 -28.36c18.09,5.82 15.42,15.6 10.5,29.26 -1.8,4.99 -4.8,10.1 -0.24,14.53 3.56,3.45 6.74,3.62 11.28,0.44 7.86,-5.51 16.56,-4.09 24.3,0.34l1.24 0.72c3.97,3.1 5.06,10.09 6.14,14.5 0.97,3.94 0.24,6.1 3.74,6.1l13.76 0c2.19,0 1.98,-3.92 2.97,-5.88 3.41,-8.15 1.08,-10.63 10.07,-16.47 10.16,-6.2 11.63,-5.47 22.36,-0.28 14.22,8.86 18.38,-1.15 12.98,-12l-2.8 -8.05c-3.57,-12.92 7.15,-21.09 17.82,-24.63 10.89,-3.67 5.95,-16.91 -1.45,-19.22 -30.86,-24.99 2.12,-55.88 -24.64,-46.23l-6.58 2.31c-3.04,1.04 -6.7,3.03 -9.98,2.71 -5.67,-0.55 -14.03,-4.53 -15.06,-9.65 -0.93,-4.64 -0.17,-0.15 -1.04,-2.89 -0.82,-2.58 -0.45,-3.19 -1.13,-5.75l-2.23 -4.65c-4.58,-6.81 -13.62,-6.96 -18.31,0l-1.09 1.85c-0.11,0.2 -0.24,0.45 -0.34,0.65 -0.09,0.21 -0.22,0.45 -0.31,0.67l-0.53 1.44c-0.07,0.27 -0.12,0.52 -0.17,0.81 -0.06,0.3 -0.07,0.55 -0.11,0.87 -3.22,27.08 -31.5,-0.87 -43.78,17.16 -2.75,3.43 0.69,5.6 2.73,9.96 4.55,9.74 4.65,24.74 -7.56,28.45 -0.2,0.1 -0.43,0.26 -0.63,0.36l-1.27 0.69c-0.21,0.1 -0.46,0.22 -0.67,0.31l-7.26 2.57c-0.27,0.13 -1.02,0.54 -1.29,0.68l-1.3 0.66c-6.8,3.48 -1.98,15.23 9.88,17.66z"/>
   <path fill="#A17787" d="M1060.1 499.39c0,21.75 17.69,39.38 39.52,39.38 21.82,0 39.51,-17.63 39.51,-39.38 0,-21.76 -17.69,-39.39 -39.51,-39.39 -21.83,0 -39.52,17.63 -39.52,39.39z"/>
   <path fill="#A17787" stroke="#7E71B1" stroke-width="8.19" stroke-miterlimit="2.61313" d="M1060.1 499.39c0,21.75 17.69,39.38 39.52,39.38 21.82,0 39.51,-17.63 39.51,-39.38 0,-21.76 -17.69,-39.39 -39.51,-39.39 -21.83,0 -39.52,17.63 -39.52,39.39z"/>
   <path fill="#A79ECD" stroke="#7E71B1" stroke-width="8.19" stroke-miterlimit="2.61313" d="M1139.13 499.39c0,-21.76 -17.69,-39.39 -39.51,-39.39 -21.83,0 -39.52,17.63 -39.52,39.39 0,21.75 17.69,39.38 39.52,39.38 21.82,0 39.51,-17.63 39.51,-39.38z"/>
   <polyline fill="none" stroke="#7E71B1" stroke-width="16.38" stroke-miterlimit="2.61313" points="1026.98,1077.53 1030.5,1283.17 1203.89,1282.93 "/>
   <line fill="none" stroke="#7E71B1" stroke-width="16.38" stroke-miterlimit="2.61313" x1="1068.26" y1="1193.5" x2="1068.38" y2= "1283.11" />
   <line fill="none" stroke="#7E71B1" stroke-width="16.38" stroke-miterlimit="2.61313" x1="1117.1" y1="1171.96" x2="1117.19" y2= "1283.05" />
   <line fill="none" stroke="#7E71B1" stroke-width="16.38" stroke-miterlimit="2.61313" x1="1171.79" y1="1146.37" x2="1171.97" y2= "1282.97" />
   <rect fill="#7E71B1" stroke="#7E71B1" stroke-width="2.05" stroke-miterlimit="2.61313" x="159.26" y="516.82" width="20.57" height="46.29" rx="8.84" ry="8.84"/>
   <path fill="#A79ECD" stroke="#7E71B1" stroke-width="16.38" stroke-miterlimit="2.61313" d="M523.31 1332.08c-22.05,56.38 -44.3,112.89 -66.78,169.1 -0.08,0.23 -0.17,0.49 -0.26,0.72l-3.04 6.79c-0.32,1.05 -0.24,1.17 -0.63,2.31 -0.08,0.24 -0.17,0.5 -0.26,0.73 -0.08,0.23 -0.19,0.48 -0.28,0.7 -1.09,3.23 -4.87,12.83 -4.93,15.71 3.3,-0.07 10.15,-2.99 13.56,-4.13 0.25,-0.08 0.51,-0.14 0.75,-0.23l1.43 -0.54c0.21,-0.09 0.46,-0.21 0.67,-0.31 0.2,-0.09 0.45,-0.24 0.65,-0.34l5.53 -2.33c1.09,-0.34 1.44,-0.43 2.24,-0.7l5.94 -1.93c0.22,-0.09 0.48,-0.19 0.69,-0.28l15.71 -5.92c0.24,-0.08 0.49,-0.18 0.72,-0.26l15.6 -2.3c3.21,0.87 -0.5,-0.09 2.14,0.82 1.57,0.54 3.03,0.73 4.45,1.44 4.48,2.23 9.65,9.33 11.84,13.72l21.27 52.44c0.1,0.2 0.23,0.45 0.33,0.65l11.8 25.55c0.1,0.2 0.22,0.45 0.32,0.65 0.39,0.77 0.71,1.41 0.99,1.97 0.98,1.97 1.97,3.93 2.94,5.9 0.1,0.2 0.23,0.45 0.33,0.65 2.01,3.52 4.45,6.93 6.26,10.45 0.11,0.2 0.22,0.46 0.32,0.66 4.29,8.63 9.66,17.04 13.75,25.57 0.1,0.2 0.21,0.46 0.31,0.67l21.89 34.12c0.12,0.18 0.26,0.44 0.37,0.62 0.11,0.19 0.23,0.45 0.35,0.64 0.11,0.19 0.23,0.45 0.34,0.64 0.11,0.18 0.25,0.44 0.37,0.62l6.8 9.9c0.11,0.18 0.24,0.45 0.35,0.63 0.11,0.19 0.23,0.46 0.34,0.64l7.51 11.17c0.11,0.18 0.23,0.45 0.34,0.64 0.11,0.19 0.24,0.45 0.35,0.63 8.35,8.72 10.29,15.1 18.41,4.05 2.65,-2.75 4.85,-4.66 6.81,-7.93l15.72 -23.59c0.12,-0.18 0.25,-0.44 0.37,-0.62l22.19 -36.77c0.03,-0.06 0.93,-1.85 0.99,-1.96l10.83 -19.64c0.1,-0.2 0.23,-0.45 0.33,-0.65 0.18,-0.37 0.47,-0.95 0.66,-1.31l3.27 -6.56c0.1,-0.2 0.23,-0.45 0.33,-0.65l5.22 -8.54c0.12,-0.17 0.27,-0.42 0.38,-0.6l5.87 -13.79c0.1,-0.2 0.22,-0.46 0.32,-0.66l4.9 -11.81c0.09,-0.22 0.21,-0.47 0.31,-0.68 0.09,-0.2 0.23,-0.45 0.33,-0.65l3.02 -5.82c0.09,-0.21 0.22,-0.46 0.31,-0.68 0.09,-0.22 0.19,-0.47 0.28,-0.7l5.61 -13.06c0.1,-0.22 0.2,-0.47 0.29,-0.7l13.55 -34.6c0.09,-0.11 0.89,-1.02 1.33,-1.62l7.37 -8.35c0.27,-0.14 1.06,-0.5 1.33,-0.64l1.97 -0.97c0.27,-0.14 1.01,-0.56 1.28,-0.69 3.36,-1.71 7.03,-2.25 11,-1.41l37.77 13.36c0.92,0.3 1.33,0.38 2.26,0.69l15.2 3.47 -1.96 -5.91c-0.1,-0.19 -0.25,-0.43 -0.35,-0.63 -0.1,-0.2 -0.24,-0.44 -0.34,-0.64l-3.23 -9.55c-0.08,-0.25 -0.13,-0.52 -0.21,-0.77 -0.08,-0.24 -0.15,-0.51 -0.23,-0.75 -0.08,-0.24 -0.17,-0.5 -0.26,-0.73 -0.08,-0.22 -0.19,-0.48 -0.28,-0.69l-21.34 -54.34c-0.11,-0.3 -0.46,-1.1 -0.59,-1.38l-19.88 -49.9c-0.55,-1.7 -0.55,-2.19 -1.15,-3.76l-6.49 -15.13c-0.03,-0.04 -1.36,-2.51 -1.38,-2.56l-7.16 -19.37c-0.08,-0.25 -0.13,-0.52 -0.21,-0.77 -0.08,-0.25 -0.15,-0.52 -0.23,-0.76 -0.08,-0.23 -0.17,-0.49 -0.26,-0.72l-10.39 -24.99c-1.89,-5.22 1.2,-3.61 -2.68,-5.18l-222.12 0c-3.18,1.29 -1.28,1.02 -2.44,4.43z"/>
   <path fill="#D2CDE7" stroke="#D2CDE7" stroke-width="8.19" stroke-miterlimit="2.61313" d="M143.16 464.69l51.84 0 0 -17.1c0,-9.73 -7.96,-17.69 -17.69,-17.69l-16.46 0c-9.73,0 -17.69,7.96 -17.69,17.69l0 17.1z"/>
   <path fill="#D2CDE7" stroke="#7E71B1" stroke-width="8.19" stroke-miterlimit="2.61313" d="M761.7 313.3c-11.67,12.16 -9.52,64.69 -8.44,79.28 0.36,4.78 1.65,5.75 2.31,9.74 0.88,5.37 1.55,2.66 4.32,7.67 6.54,11.83 16.83,9.28 23.51,11.78 7.52,2.82 41.21,1.21 50.95,1.23 14.02,0.02 51.24,-2.42 58.91,3 11.18,7.91 9.17,28.4 9.15,41.2l-0.01 217.75 287.92 0c32.43,0 58.97,-26.53 58.97,-58.96l0 -254.93c0,-32.43 -26.54,-58.97 -58.97,-58.97l-316.65 0 -71.09 0 -40.88 1.21zm304.6 115.58c7.48,-20.66 21.95,-29.62 43.05,-25.37l4.39 1.51c2.53,0.81 5.39,2.32 6.95,4.85l2.97 5.86c0.1,0.21 0.24,0.45 0.33,0.66l5.21 12.49c0.22,-0.09 0.48,-0.3 0.61,-0.37 5.9,-2.36 13,-3.38 19.26,-5.38 5.07,-1.08 7.73,0.34 10.93,2.46 3.87,3.92 12.23,12.7 14.44,17.01 4.87,10.58 3.81,10.71 -3.21,20.45 -1.79,2.48 -4.22,6.35 -0.76,8.09 0.19,0.09 0.46,0.22 0.66,0.32l8.52 4.26c1.22,0.61 0.08,0.05 1.31,0.65 0.2,0.1 0.46,0.23 0.66,0.33 0.2,0.1 0.46,0.22 0.66,0.32 16.74,12.29 11.89,41.69 2.6,44.89 -34.62,15.26 -2.55,16.54 -6.55,34.73 -0.36,1.65 -16.22,15.71 -18.97,18.38 -3.26,1.62 -6.27,3.75 -9.79,2.67l-11.27 -4.6c-10.55,-5.82 -10.86,-2.29 -14.28,7.86 -0.08,0.24 -0.18,0.49 -0.25,0.73 -0.08,0.24 -0.16,0.5 -0.24,0.75 -0.32,1.01 -0.3,1.23 -0.65,2.29l-0.82 2.13c-5.16,11.57 -39.03,12.82 -45.64,1.93 -4.61,-13.69 -2.33,-20.87 -15.75,-16.15l-2.91 1.02c-18.74,8.39 -42.3,-16.04 -34.7,-26.83 5.5,-11.22 12.27,-14.59 0.67,-20.35 -14.1,-11.99 -21.24,-11.54 -20.41,-31.82 0.08,-1.79 0.04,-1.83 0.47,-3.47 0.87,-3.31 2.24,-7.24 5.44,-10.28 0.15,-0.14 0.35,-0.34 0.5,-0.48l6.75 -4.06c0.43,-0.22 1.91,-0.99 1.95,-1 0.28,-0.13 1.08,-0.48 1.37,-0.59 0.23,-0.09 0.5,-0.18 0.73,-0.26 9.6,-2.73 11.25,-3.33 5.73,-13.46 -0.1,-0.2 -0.21,-0.47 -0.31,-0.67 -10.64,-26.13 5.1,-36.55 18.44,-37.67 8.21,-0.7 16.51,6.17 21.91,6.17z"/>
   <path fill="#D2CDE7" stroke="#7E71B1" stroke-width="8.19" stroke-miterlimit="2.61313" d="M1099.62 460c-21.83,0 -39.52,17.63 -39.52,39.39 0,21.75 17.69,39.38 39.52,39.38 21.82,0 39.51,-17.63 39.51,-39.38 0,-21.76 -17.69,-39.39 -39.51,-39.39z"/>
   <path fill="#A79ECD" stroke="#7E71B1" stroke-width="16.38" stroke-miterlimit="2.61313" d="M882.46 952.88l-492.39 0c-14.64,0 -26.62,12.28 -26.62,27.29l0 179.83c0,15.01 11.98,27.29 26.62,27.29l25.68 0 439.22 0 27.49 0c14.64,0 26.62,-12.28 26.62,-27.29l0 -179.83c0,-15.01 -11.98,-27.29 -26.62,-27.29z"/>
   <polygon fill="#A79ECD" stroke="#7E71B1" stroke-width="16.38" stroke-miterlimit="2.61313" points="861.17,1187.29 410.95,1187.29 450.92,1327.5 819.76,1326.87 "/>
   <ellipse fill="#D2CDE7" stroke="#7E71B1" stroke-width="16.38" stroke-miterlimit="2.61313" cx="222.88" cy="1186.58" rx="18.6" ry="18.54"/>
  </g>
 </g>
</svg>
