<?xml version="1.0" encoding="UTF-8"?>
<!DOCTYPE svg PUBLIC "-//W3C//DTD SVG 1.1//EN" "http://www.w3.org/Graphics/SVG/1.1/DTD/svg11.dtd">
<!-- Creator: CorelDRAW -->
<svg xmlns="http://www.w3.org/2000/svg" xml:space="preserve" width="1936px" height="521px" version="1.1" shape-rendering="geometricPrecision" text-rendering="geometricPrecision" image-rendering="optimizeQuality" fill-rule="evenodd" clip-rule="evenodd"
viewBox="0 0 2963.06 797.15"
 xmlns:xlink="http://www.w3.org/1999/xlink"
 xmlns:xodm="http://www.corel.com/coreldraw/odm/2003">
 <g id="Layer_x0020_1">
  <metadata id="CorelCorpID_0Corel-Layer"/>
  <path fill="#2B2A29" fill-rule="nonzero" d="M797.79 73.52l130.11 0c21.26,0 36.87,4.82 46.85,14.47 9.97,9.65 14.96,24.34 14.96,44.08 0,13.01 -2.82,23.58 -8.46,31.71 -5.64,8.13 -12.58,13.83 -20.82,17.08 17.57,4.77 29.5,16.48 35.79,35.13 2.16,6.72 3.25,14.53 3.25,23.42 0,21.25 -4.99,36.87 -14.96,46.85 -9.98,9.97 -25.6,14.96 -46.85,14.96l-139.87 0 0 -227.7zm143.13 156.13c0,-13.01 -6.51,-19.51 -19.52,-19.51l-65.06 0 0 45.54 65.06 0c13.01,0 19.52,-6.51 19.52,-19.52l0 -6.51zm-9.76 -91.08c0,-13.01 -6.51,-19.51 -19.52,-19.51l-55.3 0 0 45.54 55.3 0c13.01,0 19.52,-6.51 19.52,-19.52l0 -6.51z"/>
  <path id="_1" fill="#2B2A29" fill-rule="nonzero" d="M1175.12 73.52l58.56 0 0 165.89c0,22.77 -5.15,39.31 -15.45,49.61 -10.31,10.3 -26.84,15.45 -49.61,15.45l-74.82 0c-22.77,0 -39.3,-5.15 -49.6,-15.45 -10.31,-10.3 -15.46,-26.84 -15.46,-49.61l0 -165.89 58.56 0 0 165.89c0,13.02 6.5,19.52 19.51,19.52l48.8 0c13.01,0 19.51,-6.5 19.51,-19.52l0 -165.89z"/>
  <polygon id="_2" fill="#2B2A29" fill-rule="nonzero" points="1380.06,301.22 1262.95,301.22 1262.95,255.68 1292.23,255.68 1292.23,119.06 1262.95,119.06 1262.95,73.52 1380.06,73.52 1380.06,119.06 1350.78,119.06 1350.78,255.68 1380.06,255.68 "/>
  <polygon id="_3" fill="#2B2A29" fill-rule="nonzero" points="1467.89,255.68 1586.62,255.68 1586.62,301.22 1409.33,301.22 1409.33,73.52 1467.89,73.52 "/>
  <path id="_4" fill="#2B2A29" fill-rule="nonzero" d="M1736.25 73.52c24.5,0 43.1,6.34 55.79,19.02 12.68,12.69 19.03,31.29 19.03,55.79l0 78.07c0,24.51 -6.35,43.1 -19.03,55.79 -12.69,12.69 -31.29,19.03 -55.79,19.03l-126.86 0 0 -227.7 126.86 0zm16.26 74.81c0,-19.51 -9.75,-29.27 -29.27,-29.27l-55.3 0 0 136.62 55.3 0c19.52,0 29.27,-9.76 29.27,-29.28l0 -78.07z"/>
  <path id="_5" fill="#2B2A29" fill-rule="nonzero" d="M1981.84 301.22l-63.43 0 86.21 -227.7 65.05 0 86.21 227.7 -63.44 0 -14.63 -40.66 -81.33 0 -14.64 40.66zm29.28 -82.95l52.05 0 -26.03 -76.44 -26.02 76.44z"/>
  <polygon id="_6" fill="#2B2A29" fill-rule="nonzero" points="2279.48,301.22 2162.38,301.22 2162.38,255.68 2191.66,255.68 2191.66,119.06 2162.38,119.06 2162.38,73.52 2279.48,73.52 2279.48,119.06 2250.21,119.06 2250.21,255.68 2279.48,255.68 "/>
  <path id="_7" fill="#2B2A29" fill-rule="nonzero" d="M790.96 646.03c59.42,3.25 99.64,4.88 120.68,4.88 4.99,0 8.94,-1.47 11.87,-4.4 2.93,-2.92 4.39,-6.88 4.39,-11.87l0 -29.27 -74.81 0c-22.77,0 -39.31,-5.16 -49.61,-15.46 -10.3,-10.3 -15.45,-26.83 -15.45,-49.6l0 -9.76c0,-22.77 5.15,-39.31 15.45,-49.61 10.3,-10.3 26.84,-15.45 49.61,-15.45l114.17 0 0 45.54 -101.16 0c-13.01,0 -19.52,6.51 -19.52,19.52l0 6.5c0,13.02 6.51,19.52 19.52,19.52l58.55 0c21.25,0 36.87,4.99 46.84,14.96 9.98,9.98 14.97,25.59 14.97,46.85l0 16.26c0,21.25 -4.99,36.87 -14.97,46.84 -9.97,9.98 -25.59,14.97 -46.84,14.97 -11.06,0 -22.77,-0.22 -35.13,-0.66l-29.93 -1.3c-22.12,-1.08 -44.99,-2.6 -68.63,-4.55l0 -43.91z"/>
  <polygon id="_8" fill="#2B2A29" fill-rule="nonzero" points="1110.07,693.19 1051.52,693.19 1051.52,511.03 983.2,511.03 983.2,465.49 1178.38,465.49 1178.38,511.03 1110.07,511.03 "/>
  <path id="_9" fill="#2B2A29" fill-rule="nonzero" d="M1219.04 693.19l-63.43 0 86.2 -227.7 65.06 0 86.2 227.7 -63.43 0 -14.64 -40.66 -81.32 0 -14.64 40.66zm29.28 -82.95l52.04 0 -26.02 -76.44 -26.02 76.44z"/>
  <path id="_10" fill="#2B2A29" fill-rule="nonzero" d="M1409.33 465.49l136.63 0c22.77,0 39.3,5.15 49.6,15.45 10.3,10.3 15.45,26.84 15.45,49.61l0 29.27c0,18 -2.98,31.99 -8.94,41.97 -5.97,9.97 -15.45,16.59 -28.46,19.84l40.66 71.56 -63.44 0 -37.4 -68.31 -45.54 0 0 68.31 -58.56 0 0 -227.7zm143.13 65.06c0,-13.01 -6.5,-19.52 -19.52,-19.52l-65.05 0 0 68.31 65.05 0c13.02,0 19.52,-6.5 19.52,-19.52l0 -29.27z"/>
  <polygon id="_11" fill="#2B2A29" fill-rule="nonzero" points="1754.14,693.19 1695.59,693.19 1695.59,511.03 1627.28,511.03 1627.28,465.49 1822.45,465.49 1822.45,511.03 1754.14,511.03 "/>
  <path id="_12" fill="#2B2A29" fill-rule="nonzero" d="M1991.6 465.49l58.56 0 0 165.9c0,22.77 -5.16,39.3 -15.46,49.6 -10.3,10.3 -26.83,15.46 -49.6,15.46l-74.82 0c-22.77,0 -39.31,-5.16 -49.61,-15.46 -10.3,-10.3 -15.45,-26.83 -15.45,-49.6l0 -165.9 58.56 0 0 165.9c0,13.01 6.5,19.52 19.51,19.52l48.8 0c13.01,0 19.51,-6.51 19.51,-19.52l0 -165.9z"/>
  <path id="_13" fill="#2B2A29" fill-rule="nonzero" d="M2089.19 465.49l136.62 0c22.77,0 39.31,5.15 49.61,15.45 10.3,10.3 15.45,26.84 15.45,49.61l0 32.53c0,22.77 -5.15,39.3 -15.45,49.6 -10.3,10.3 -26.84,15.46 -49.61,15.46l-78.07 0 0 65.05 -58.55 0 0 -227.7zm143.13 65.06c0,-13.01 -6.51,-19.52 -19.52,-19.52l-65.06 0 0 71.57 65.06 0c13.01,0 19.52,-6.51 19.52,-19.52l0 -32.53z"/>
  <path id="_14" fill="#2B2A29" fill-rule="nonzero" d="M2313.32 646.03c59.41,3.25 99.64,4.88 120.68,4.88 4.99,0 8.94,-1.47 11.87,-4.4 2.93,-2.92 4.39,-6.88 4.39,-11.87l0 -29.27 -74.81 0c-22.77,0 -39.31,-5.16 -49.61,-15.46 -10.3,-10.3 -15.45,-26.83 -15.45,-49.6l0 -9.76c0,-22.77 5.15,-39.31 15.45,-49.61 10.3,-10.3 26.84,-15.45 49.61,-15.45l114.17 0 0 45.54 -101.16 0c-13.01,0 -19.52,6.51 -19.52,19.52l0 6.5c0,13.02 6.51,19.52 19.52,19.52l58.55 0c21.25,0 36.87,4.99 46.84,14.96 9.98,9.98 14.96,25.59 14.96,46.85l0 16.26c0,21.25 -4.98,36.87 -14.96,46.84 -9.97,9.98 -25.59,14.97 -46.84,14.97 -11.06,0 -22.77,-0.22 -35.13,-0.66l-29.93 -1.3c-22.12,-1.08 -45,-2.6 -68.63,-4.55l0 -43.91z"/>
  <g id="_1601802736496">
   <path fill="#01B1F9" d="M103.34 714.93c61.18,-4.74 143.91,0.04 210.39,-2.58 65.23,-2.56 138.55,-6.13 203.21,-4.95l-107.72 -4.37c-3.83,-8.02 -3.54,7.79 4.61,-3.38 13.01,-17.86 6.18,12.17 2.1,-4.83l-73.8 -22.72 24.65 -14.62c-50.77,-7.87 -208.89,9.48 -244.28,-14.46 -62.31,-9.71 -53.8,-102.14 -49.94,-151.91 153.39,-11.91 104.99,23.33 217.26,-88.76 15.26,-15.23 42.53,-34.86 43.32,-52.59 7.08,-26.63 0.74,-21.62 15.97,-28.86l-22.66 -15.07c-25.1,21.45 -17.58,21.58 -50.97,37.52 -19.64,3.95 -50.94,53.46 -72.59,67.7 -35.1,23.09 -88.5,15.21 -131.42,15.21 0,-46.01 -6.18,-257.95 6.63,-293 15.69,-42.92 34.2,-27.25 50.79,-44.89 32.9,-22.23 115.73,-9.76 158.07,-14.42 -38.03,-16.16 -8.19,8.26 -37.34,-23.49 -29.19,-31.8 -77.05,-20.55 -146.28,-22.42 -54.83,-7.86 -98.35,72.47 -101.9,117.81l0 446.07c4.17,53.12 43.4,115.39 101.9,123.01z"/>
   <path fill="#017EF9" d="M541.75 380.84c-12,10.58 -92.93,82.42 -98.16,84.16 -24.84,8.29 -102.55,-20.73 -110.45,64.02 -8.43,90.5 118.42,103.34 142.27,20.25 18.77,-65.39 -49.5,6.49 69.67,-102.06 72.86,-66.37 74.86,4.73 127.72,-44.39 103.68,-96.32 -72.27,-206.93 -125.44,-99.9 -20.17,40.61 -4.98,44.78 -5.61,77.92z"/>
   <path fill="#038BFB" d="M128.89 88.37c99.87,0 199.73,0.03 299.59,0 157.28,-0.04 150.98,10.42 160.48,132.79l62.66 1.18c0,-134.85 -0.07,-204.51 -172.13,-204.1l-356.72 0.47c-18.6,4.11 -7.97,-1.94 -19.43,9.33 69.23,1.87 117.09,-9.38 146.28,22.42 29.15,31.75 -0.69,7.33 37.34,23.49 -42.34,4.66 -125.17,-7.81 -158.07,14.42z"/>
   <path fill="#0493F5" d="M122.5 643.02c35.39,23.94 193.51,6.59 244.28,14.46l-24.65 14.62 73.8 22.72c4.08,17 10.91,-13.03 -2.1,4.83 -8.15,11.17 -8.44,-4.64 -4.61,3.38l107.72 4.37c-64.66,-1.18 -137.98,2.39 -203.21,4.95 -66.48,2.62 -149.21,-2.16 -210.39,2.58 31.91,14.73 326.7,4.24 388.98,4.68 181.38,1.27 159.3,-131.31 159.3,-242.35 -29.38,-0.62 -29.22,-7.94 -62.66,-5.28 -16.01,206.27 41.98,175.01 -383.69,177.5 -35.62,0.21 -51.93,-4.53 -82.77,-6.46z"/>
   <path fill="#017EF9" d="M275.48 343.35c33.39,-15.94 25.87,-16.07 50.97,-37.52l22.66 15.07c-15.23,7.24 -8.89,2.23 -15.97,28.86 16.32,-6.68 20.87,-13.18 28.76,-15.35 15.93,-4.37 54.24,10.85 87.27,-27.72 78.11,-91.21 -85.77,-184.19 -130.55,-79.46 -19.48,45.58 20.54,46.39 -20.42,87.11 -14.21,14.12 -12.93,12.1 -22.72,29.01z"/>
  </g>
  <g id="_1601802739328">
   <path fill="#01B1FA" d="M103.94 719.52l305.41 -16.25c-6.9,-9.68 -7.11,12.41 3.33,-2.08 9.25,-12.85 8.28,7.13 3.05,-7.82 -17.33,-2.49 -18.48,-5.6 -34.19,-10.81 -14.65,-4.86 -25.75,-6.8 -35.94,-10.83 3.37,-14.3 19.34,9.29 6.38,-16.53 -44.27,1.05 -199.79,8.88 -229.48,-12.18 -65.97,-9.44 -51.03,-108.69 -51.03,-153.01 36.29,0 77.69,3.76 111.42,-3.33 26.2,-5.51 59.02,-20.8 62.99,-47.67 10.72,-24.04 18.94,-24 18.1,-59.45l-26.75 8.42c-23.57,0.58 -17.54,23.3 -60.95,34.71 -30.57,8.04 -71.13,3.57 -104.81,3.57 0,-57.38 0,-114.76 0,-172.13 0,-69.3 -8.84,-112.27 25.5,-150.51 -12.35,-11.76 -2.97,-23.98 -4.11,-33.16 -0.13,-1.03 -0.3,-2.97 -0.56,-3.99 -0.26,-1.03 -0.76,-2.86 -1.17,-3.87l-26 -25.23c-16.02,20.69 -64.65,30.51 -63.95,140.1 0.42,64.69 -4.29,397.88 2.63,431.21 18.95,91.3 91.99,102.69 100.13,110.84z"/>
   <path fill="#017CF6" d="M536.86 343.38c0,24.01 4.2,12.06 6.38,38.25 -22.88,15.32 -29.33,19.28 -49.46,39.8 -11.42,11.63 -36.39,38.97 -50.19,43.57 -18.92,6.32 -45.36,-8.09 -72.77,5.56 -51.77,25.79 -59.15,134.21 38.54,134.21 33.51,0 70.12,-42.39 70.12,-70.13 0,-36.8 -34.45,5.93 62.26,-84.38 6.01,-5.62 8.03,-7.09 13.63,-12.04 36.96,-32.62 21.21,-20.99 51.73,-18.89 25.01,1.71 34.59,2.67 51.11,-5.59 69,-34.47 58.45,-153.24 -38.47,-153.24 -49.58,0 -82.88,34.9 -82.88,82.88z"/>
   <path fill="#0593F5" d="M122.5 643.02c29.69,21.06 185.21,13.23 229.48,12.18 12.96,25.82 -3.01,2.23 -6.38,16.53 10.19,4.03 21.29,5.97 35.94,10.83 15.71,5.21 16.86,8.32 34.19,10.81 5.23,14.95 6.2,-5.03 -3.05,7.82 -10.44,14.49 -10.23,-7.6 -3.33,2.08l-305.41 16.25c131.55,0 263.3,-0.71 394.83,0.16 177.09,1.17 152.85,-139.85 152.85,-242.42 -28.09,-0.62 -29.81,-6.37 -63.76,-6.37 0,213.95 7.35,176.31 -382.59,178.59 -38.82,0.23 -51.98,-4.66 -82.77,-6.46z"/>
   <path fill="#017CF6" d="M139.52 88.37c96.32,0 192.64,0.03 288.96,0 131.86,-0.03 159.38,-1.37 159.38,133.88l63.76 0c0,-102.29 3.55,-204.01 -146.6,-204.01 -7.88,12.66 -115.85,7.47 -148.66,9l40.25 1.7c5.45,7.93 3.39,1.4 7.27,14.77 0.13,0.45 0.82,15.27 0.87,17.17 55.88,0.85 7.09,15.71 114.53,12.3l-379.76 15.19z"/>
   <path fill="#0593F5" d="M65.13 37.37l26 25.23c0.41,1.01 0.91,2.84 1.17,3.87 0.26,1.02 0.43,2.96 0.56,3.99 1.14,9.18 -8.24,21.4 4.11,33.16 17.77,-7.47 25.97,-9.52 42.55,-15.25l379.76 -15.19c-107.44,3.41 -58.65,-11.45 -114.53,-12.3 -0.05,-1.9 -0.74,-16.72 -0.87,-17.17 -3.88,-13.37 -1.82,-6.84 -7.27,-14.77l-40.25 -1.7c32.81,-1.53 140.78,3.66 148.66,-9 -74.39,0 -148.78,0 -223.17,0 -38.25,0 -76.55,0.18 -114.8,-0.04 -56.19,-0.32 -59.95,-2.02 -101.92,19.17z"/>
   <path fill="#017CF6" d="M326.45 286l0.01 -14.08c16.84,22.58 4.27,11.95 10.83,27.9l12.64 14.79c15.34,11.5 3.8,7.96 27.37,12.13 9.73,1.72 26.38,2.04 38.43,3.86 80.98,-40.62 53.37,-120.21 13.04,-140.53 -60.14,-30.3 -123.25,23.1 -116,70.19 5.6,36.38 -5.06,13.32 13.68,25.74z"/>
   <path fill="#0593F5" d="M326.45 286c-27.53,24.59 -76.28,70.17 -89.22,101.98l26.75 -8.42c0.84,35.45 -7.38,35.41 -18.1,59.45 21.37,-10.1 24.23,-16.54 40.81,-33.46 14.1,-14.39 23.99,-23.9 38.19,-38.27 50,-50.6 21.59,-26.48 90.85,-36.68 -12.05,-1.82 -28.7,-2.14 -38.43,-3.86 -23.57,-4.17 -12.03,-0.63 -27.37,-12.13l-12.64 -14.79c-6.56,-15.95 6.01,-5.32 -10.83,-27.9l-0.01 14.08z"/>
  </g>
 </g>
</svg>
