<?xml version="1.0" encoding="UTF-8"?>
<!DOCTYPE svg PUBLIC "-//W3C//DTD SVG 1.1//EN" "http://www.w3.org/Graphics/SVG/1.1/DTD/svg11.dtd">
<!-- Creator: CorelDRAW -->
<svg xmlns="http://www.w3.org/2000/svg" xml:space="preserve" width="5.46303in" height="1.53471in" version="1.1" style="shape-rendering:geometricPrecision; text-rendering:geometricPrecision; image-rendering:optimizeQuality; fill-rule:evenodd; clip-rule:evenodd"
viewBox="0 0 4625.53 1299.43"
 xmlns:xlink="http://www.w3.org/1999/xlink"
 xmlns:xodm="http://www.corel.com/coreldraw/odm/2003">
 <defs>
  <style type="text/css">
   <![CDATA[
    .fil6 {fill:#017CF6}
    .fil2 {fill:#017EF9}
    .fil1 {fill:#01B1F9}
    .fil5 {fill:#01B1FA}
    .fil3 {fill:#038BFB}
    .fil4 {fill:#0493F5}
    .fil7 {fill:#0593F5}
    .fil0 {fill:#FEFEFE;fill-rule:nonzero}
   ]]>
  </style>
 </defs>
 <g id="Layer_x0020_1">
  <metadata id="CorelCorpID_0Corel-Layer"/>
  <path class="fil0" d="M1470.89 102.31l239.9 0c39.18,0 67.97,8.9 86.36,26.69 18.39,17.79 27.59,44.88 27.59,81.27 0,23.99 -5.19,43.48 -15.59,58.48 -10.39,14.99 -23.19,25.49 -38.38,31.49 32.38,8.8 54.38,30.39 65.97,64.77 3.99,12.39 6,26.79 6,43.18 0,39.18 -9.19,67.97 -27.59,86.36 -18.39,18.39 -47.18,27.59 -86.36,27.59l-257.89 0 0 -419.82 0 -0zm263.89 287.87c0,-23.99 -11.99,-35.98 -35.99,-35.98l-119.95 0 0 83.96 119.95 0c23.99,0 35.99,-12 35.99,-35.99l0 -12 0 0.01zm-17.99 -167.93c0,-23.99 -12,-35.99 -35.99,-35.99l-101.96 0 0 83.96 101.96 0c23.99,0 35.99,-11.99 35.99,-35.99l0 -11.99 0 0.01z"/>
  <path id="_1" class="fil0" d="M2166.6 102.31l107.95 0 0 305.87c0,41.98 -9.5,72.47 -28.48,91.46 -18.99,18.99 -49.48,28.48 -91.46,28.48l-137.94 0c-41.98,0 -72.47,-9.5 -91.46,-28.48 -18.99,-18.99 -28.48,-49.48 -28.48,-91.46l0 -305.87 107.95 0 0 305.87c0,23.99 11.99,35.99 35.99,35.99l89.96 0c23.99,0 35.99,-11.99 35.99,-35.99l0 -305.87 -0.01 0z"/>
  <polygon id="_2" class="fil0" points="2544.43,522.12 2328.52,522.12 2328.52,438.16 2382.5,438.16 2382.5,186.27 2328.52,186.27 2328.52,102.31 2544.43,102.31 2544.43,186.27 2490.46,186.27 2490.46,438.16 2544.43,438.16 "/>
  <polygon id="_3" class="fil0" points="2706.37,438.16 2925.27,438.16 2925.27,522.12 2598.41,522.12 2598.41,102.31 2706.37,102.31 "/>
  <path id="_4" class="fil0" d="M3201.15 102.31c45.18,0 79.46,11.69 102.86,35.08 23.39,23.39 35.08,57.68 35.08,102.85l0 143.94c0,45.18 -11.69,79.46 -35.08,102.86 -23.39,23.39 -57.68,35.08 -102.86,35.08l-233.9 0 0 -419.82 233.9 0 0 -0.01zm29.99 137.94c0,-35.98 -17.99,-53.98 -53.98,-53.98l-101.96 0 0 251.9 101.96 0c35.99,0 53.98,-18 53.98,-53.98l0 -143.94 0 0z"/>
  <path id="_5" class="fil0" d="M3653.95 522.12l-116.95 0 158.93 -419.82 119.95 0 158.93 419.82 -116.95 0 -26.98 -74.97 -149.94 0 -26.99 74.97 0 0zm53.98 -152.94l95.95 0 -47.98 -140.94 -47.98 140.94 0.01 0z"/>
  <polygon id="_6" class="fil0" points="4202.72,522.12 3986.81,522.12 3986.81,438.16 4040.78,438.16 4040.78,186.27 3986.81,186.27 3986.81,102.31 4202.72,102.31 4202.72,186.27 4148.74,186.27 4148.74,438.16 4202.72,438.16 "/>
  <path id="_7" class="fil0" d="M1458.3 1157.85c109.55,6 183.72,8.99 222.5,8.99 9.19,0 16.49,-2.7 21.88,-8.1 5.4,-5.4 8.1,-12.7 8.1,-21.89l0 -53.98 -137.94 0c-41.98,0 -72.47,-9.5 -91.46,-28.48 -18.99,-18.99 -28.48,-49.48 -28.48,-91.46l0 -17.99c0,-41.98 9.5,-72.47 28.48,-91.46 18.99,-18.99 49.48,-28.48 91.46,-28.48l210.51 0 0 83.96 -186.52 0c-23.99,0 -35.99,11.99 -35.99,35.99l0 11.99c0,23.99 12,35.99 35.99,35.99l107.95 0c39.18,0 67.97,9.19 86.36,27.59 18.39,18.39 27.59,47.18 27.59,86.36l0 29.99c0,39.18 -9.19,67.97 -27.59,86.36 -18.39,18.39 -47.18,27.59 -86.36,27.59 -20.39,0 -41.98,-0.4 -64.77,-1.2l-55.18 -2.4c-40.78,-2 -82.97,-4.8 -126.54,-8.4l0 -80.97 0 -0z"/>
  <polygon id="_8" class="fil0" points="2046.65,1244.81 1938.7,1244.81 1938.7,908.96 1812.75,908.96 1812.75,824.99 2172.59,824.99 2172.59,908.96 2046.65,908.96 "/>
  <path id="_9" class="fil0" d="M2247.56 1244.81l-116.95 0 158.93 -419.82 119.95 0 158.93 419.82 -116.95 0 -26.98 -74.97 -149.94 0 -26.99 74.97 0 0zm53.98 -152.94l95.95 0 -47.98 -140.94 -47.98 140.94 0.01 0z"/>
  <path id="_10" class="fil0" d="M2598.41 824.99l251.9 0c41.98,0 72.47,9.49 91.46,28.48 18.99,18.99 28.48,49.48 28.48,91.46l0 53.98c0,33.19 -5.5,58.98 -16.49,77.37 -10.99,18.39 -28.48,30.58 -52.48,36.58l74.97 131.95 -116.95 0 -68.97 -125.94 -83.96 0 0 125.94 -107.95 0 0 -419.82zm263.89 119.95c0,-23.99 -11.99,-35.99 -35.99,-35.99l-119.95 0 0 125.94 119.95 0c23.99,0 35.99,-11.99 35.99,-35.99l0 -53.98 0 0.01z"/>
  <polygon id="_11" class="fil0" points="3234.14,1244.81 3126.18,1244.81 3126.18,908.96 3000.24,908.96 3000.24,824.99 3360.08,824.99 3360.08,908.96 3234.14,908.96 "/>
  <path id="_12" class="fil0" d="M3671.95 824.99l107.95 0 0 305.87c0,41.98 -9.5,72.47 -28.48,91.46 -18.99,18.99 -49.48,28.48 -91.46,28.48l-137.94 0c-41.98,0 -72.47,-9.5 -91.46,-28.48 -18.99,-18.99 -28.48,-49.48 -28.48,-91.46l0 -305.87 107.95 0 0 305.87c0,23.99 11.99,35.99 35.99,35.99l89.96 0c23.99,0 35.99,-11.99 35.99,-35.99l0 -305.87 -0.01 0z"/>
  <path id="_13" class="fil0" d="M3851.88 824.99l251.9 0c41.98,0 72.47,9.49 91.46,28.48 18.99,18.99 28.48,49.48 28.48,91.46l0 59.98c0,41.98 -9.5,72.47 -28.48,91.46 -18.99,18.99 -49.48,28.48 -91.46,28.48l-143.94 0 0 119.95 -107.95 0 0 -419.82 0 0.01zm263.89 119.95c0,-23.99 -11.99,-35.99 -35.99,-35.99l-119.95 0 0 131.95 119.95 0c23.99,0 35.99,-12 35.99,-35.99l0 -59.98 0 0z"/>
  <path id="_14" class="fil0" d="M4265.09 1157.85c109.55,6 183.72,8.99 222.5,8.99 9.19,0 16.49,-2.7 21.88,-8.1 5.4,-5.4 8.1,-12.7 8.1,-21.89l0 -53.98 -137.94 0c-41.98,0 -72.47,-9.5 -91.46,-28.48 -18.99,-18.99 -28.48,-49.48 -28.48,-91.46l0 -17.99c0,-41.98 9.5,-72.47 28.48,-91.46 18.99,-18.99 49.48,-28.48 91.46,-28.48l210.51 0 0 83.96 -186.52 0c-23.99,0 -35.99,11.99 -35.99,35.99l0 11.99c0,23.99 12,35.99 35.99,35.99l107.95 0c39.18,0 67.97,9.19 86.36,27.59 18.39,18.39 27.59,47.18 27.59,86.36l0 29.99c0,39.18 -9.19,67.97 -27.59,86.36 -18.39,18.39 -47.18,27.59 -86.36,27.59 -20.39,0 -41.98,-0.4 -64.77,-1.2l-55.18 -2.4c-40.78,-2 -82.97,-4.8 -126.54,-8.4l0 -80.97 0 -0z"/>
  <g id="_2867094777024">
   <path class="fil1" d="M190.54 1284.88c112.79,-8.73 265.32,0.08 387.89,-4.74 120.27,-4.74 255.45,-11.3 374.66,-9.13l-198.61 -8.06c-7.06,-14.79 -6.52,14.37 8.5,-6.24 23.99,-32.92 11.41,22.45 3.89,-8.9l-136.07 -41.89 45.44 -26.96c-93.6,-14.5 -385.14,17.48 -450.38,-26.66 -114.89,-17.9 -99.2,-188.32 -92.08,-280.08 282.8,-21.95 193.57,43.02 400.56,-163.64 28.13,-28.09 78.42,-64.28 79.86,-96.97 13.06,-49.09 1.37,-39.86 29.45,-53.2l-41.78 -27.79c-46.27,39.54 -32.41,39.77 -93.97,69.17 -36.2,7.27 -93.91,98.57 -133.83,124.82 -64.72,42.56 -163.17,28.04 -242.3,28.04 0,-84.82 -11.4,-475.59 12.23,-540.21 28.93,-79.12 63.06,-50.24 93.65,-82.76 60.64,-40.98 213.36,-18 291.43,-26.58 -70.13,-29.8 -15.11,15.21 -68.85,-43.32 -53.82,-58.63 -142.05,-37.88 -269.69,-41.33 -101.11,-14.48 -181.33,133.61 -187.89,217.2l0 822.43c7.69,97.95 80.02,212.74 187.89,226.79l-0.01 -0z"/>
   <path class="fil2" d="M998.84 668.93c-22.12,19.51 -171.35,151.96 -180.98,155.17 -45.79,15.28 -189.07,-38.23 -203.63,118.03 -15.54,166.86 218.32,190.52 262.3,37.34 34.6,-120.56 -91.26,11.97 128.45,-188.16 134.33,-122.37 138.01,8.71 235.48,-81.84 191.16,-177.58 -133.25,-381.53 -231.28,-184.19 -37.19,74.87 -9.19,82.56 -10.35,143.67l0.01 -0.01z"/>
   <path class="fil3" d="M237.65 129.69c184.12,0 368.23,0.05 552.35,0 289.99,-0.07 278.36,19.21 295.88,244.83l115.52 2.18c0,-248.63 -0.13,-377.07 -317.34,-376.31l-657.69 0.87c-34.29,7.58 -14.7,-3.59 -35.82,17.19 127.64,3.45 215.87,-17.29 269.69,41.33 53.74,58.54 -1.28,13.51 68.85,43.32 -78.07,8.59 -230.79,-14.4 -291.43,26.58l0 0z"/>
   <path class="fil4" d="M225.87 1152.3c65.24,44.14 356.77,12.16 450.38,26.66l-45.44 26.96 136.07 41.89c7.52,31.35 20.11,-24.03 -3.89,8.9 -15.01,20.61 -15.56,-8.55 -8.5,6.24l198.61 8.06c-119.22,-2.17 -254.4,4.39 -374.66,9.13 -122.57,4.83 -275.09,-3.99 -387.89,4.74 58.84,27.16 602.34,7.82 717.17,8.63 334.4,2.35 293.69,-242.1 293.69,-446.82 -54.17,-1.15 -53.87,-14.64 -115.52,-9.74 -29.52,380.31 77.41,322.66 -707.4,327.26 -65.67,0.39 -95.74,-8.35 -152.61,-11.92l-0 0.01z"/>
   <path class="fil2" d="M507.9 599.8c61.56,-29.39 47.69,-29.63 93.97,-69.17l41.78 27.79c-28.07,13.34 -16.39,4.11 -29.45,53.2 30.1,-12.31 38.49,-24.3 53.04,-28.29 29.36,-8.05 100,20 160.9,-51.11 144.01,-168.18 -158.14,-339.6 -240.7,-146.5 -35.92,84.03 37.86,85.52 -37.64,160.59 -26.2,26.04 -23.84,22.32 -41.9,53.49l0.01 -0z"/>
  </g>
  <g id="_2867094783072">
   <path class="fil5" d="M191.64 1293.35l563.08 -29.96c-12.73,-17.85 -13.11,22.89 6.13,-3.83 17.06,-23.68 15.28,13.14 5.63,-14.41 -31.95,-4.59 -34.07,-10.33 -63.05,-19.94 -27,-8.95 -47.46,-12.53 -66.25,-19.96 6.2,-26.36 35.64,17.13 11.76,-30.48 -81.63,1.94 -368.36,16.37 -423.09,-22.46 -121.63,-17.4 -94.09,-200.38 -94.09,-282.09 66.92,0 143.25,6.93 205.44,-6.15 48.3,-10.15 108.81,-38.35 116.12,-87.89 19.77,-44.32 34.92,-44.24 33.37,-109.61l-49.32 15.52c-43.44,1.07 -32.32,42.96 -112.36,64.01 -56.37,14.83 -131.15,6.58 -193.25,6.58 0,-105.79 0,-211.58 0,-317.36 -0.01,-127.75 -16.29,-207 47.02,-277.49 -22.77,-21.69 -5.48,-44.21 -7.57,-61.14 -0.24,-1.91 -0.55,-5.48 -1.03,-7.36 -0.48,-1.9 -1.4,-5.28 -2.17,-7.14l-47.94 -46.52c-29.52,38.15 -119.19,56.25 -117.89,258.3 0.77,119.27 -7.92,733.59 4.83,795.02 34.95,168.34 169.61,189.34 184.62,204.36l0 -0.02z"/>
   <path class="fil6" d="M989.82 599.86c0,44.27 7.73,22.23 11.76,70.52 -42.18,28.25 -54.08,35.54 -91.19,73.37 -21.05,21.44 -67.09,71.86 -92.53,80.34 -34.88,11.64 -83.63,-14.93 -134.16,10.25 -95.45,47.55 -109.05,247.43 71.05,247.43 61.78,0 129.3,-78.15 129.3,-129.3 0,-67.85 -63.52,10.93 114.79,-155.58 11.09,-10.36 14.8,-13.08 25.12,-22.19 68.15,-60.15 39.11,-38.7 95.39,-34.83 46.1,3.16 63.77,4.93 94.23,-10.29 127.22,-63.57 107.77,-282.53 -70.93,-282.53 -91.41,0 -152.8,64.34 -152.8,152.8l-0.01 0z"/>
   <path class="fil7" d="M225.87 1152.3c54.74,38.83 341.47,24.4 423.09,22.46 23.89,47.61 -5.55,4.12 -11.76,30.48 18.78,7.43 39.25,11.01 66.25,19.96 28.98,9.61 31.1,15.35 63.05,19.94 9.65,27.55 11.43,-9.27 -5.63,14.41 -19.25,26.71 -18.86,-14.01 -6.13,3.83l-563.08 29.96c242.54,0 485.45,-1.31 727.95,0.29 326.51,2.16 281.81,-257.84 281.81,-446.95 -51.79,-1.15 -54.96,-11.76 -117.54,-11.76 0,394.46 13.55,325.07 -705.39,329.27 -71.59,0.43 -95.84,-8.57 -152.61,-11.9z"/>
   <path class="fil6" d="M257.24 129.69c177.59,0 355.18,0.04 532.76,0 243.12,-0.06 293.86,-2.52 293.86,246.84l117.54 0c0,-188.6 6.56,-376.14 -270.28,-376.14 -14.53,23.34 -213.6,13.76 -274.08,16.6l74.2 3.14c10.05,14.62 6.26,2.58 13.41,27.23 0.24,0.83 1.52,28.16 1.6,31.66 103.04,1.57 13.08,28.95 211.17,22.67l-700.17 28.01 -0 -0z"/>
   <path class="fil7" d="M120.08 35.66l47.94 46.52c0.77,1.86 1.69,5.24 2.17,7.14 0.48,1.88 0.79,5.45 1.03,7.36 2.1,16.92 -15.2,39.44 7.57,61.14 32.76,-13.79 47.89,-17.55 78.45,-28.12l700.17 -28.01c-198.09,6.28 -108.14,-21.1 -211.17,-22.67 -0.09,-3.5 -1.36,-30.82 -1.6,-31.66 -7.15,-24.64 -3.36,-12.61 -13.41,-27.23l-74.2 -3.14c60.48,-2.83 259.55,6.75 274.08,-16.6 -137.15,0 -274.3,0 -411.45,0 -70.52,0 -141.13,0.33 -211.65,-0.08 -103.61,-0.6 -110.54,-3.73 -187.93,35.34l0 0.01z"/>
   <path class="fil6" d="M601.87 494.07l0.02 -25.97c31.05,41.63 7.87,22.04 19.97,51.44l23.31 27.27c28.27,21.2 7.01,14.69 50.45,22.37 17.95,3.18 48.65,3.77 70.87,7.12 149.29,-74.89 98.4,-221.63 24.03,-259.09 -110.89,-55.86 -227.23,42.58 -213.86,129.41 10.32,67.06 -9.34,24.55 25.21,47.45l0 0z"/>
   <path class="fil7" d="M601.87 494.07c-50.75,45.33 -140.62,129.36 -164.5,188.01l49.32 -15.52c1.55,65.36 -13.61,65.29 -33.37,109.61 39.4,-18.63 44.68,-30.49 75.24,-61.68 26.01,-26.54 44.23,-44.07 70.41,-70.57 92.19,-93.29 39.81,-48.83 167.51,-67.63 -22.22,-3.35 -52.91,-3.94 -70.87,-7.12 -43.44,-7.68 -22.18,-1.17 -50.45,-22.37l-23.31 -27.27c-12.1,-29.39 11.07,-9.8 -19.97,-51.44l-0.02 25.97 0.01 0.01z"/>
  </g>
 </g>
</svg>
