<?xml version="1.0" encoding="UTF-8"?>
<!DOCTYPE svg PUBLIC "-//W3C//DTD SVG 1.1//EN" "http://www.w3.org/Graphics/SVG/1.1/DTD/svg11.dtd">
<!-- Creator: CorelDRAW -->
<svg xmlns="http://www.w3.org/2000/svg" xml:space="preserve" width="1934px" height="521px" version="1.1" shape-rendering="geometricPrecision" text-rendering="geometricPrecision" image-rendering="optimizeQuality" fill-rule="evenodd" clip-rule="evenodd"
viewBox="0 0 2966.36 798.87"
 xmlns:xlink="http://www.w3.org/1999/xlink"
 xmlns:xodm="http://www.corel.com/coreldraw/odm/2003">
 <g id="Layer_x0020_1">
  <metadata id="CorelCorpID_0Corel-Layer"/>
  <path fill="#FEFEFE" fill-rule="nonzero" d="M796.42 73.67l130.4 0c21.3,0 36.94,4.84 46.94,14.51 10,9.67 15,24.4 15,44.17 0,13.04 -2.83,23.64 -8.48,31.79 -5.65,8.15 -12.6,13.85 -20.86,17.11 17.6,4.78 29.55,16.52 35.86,35.21 2.17,6.73 3.26,14.56 3.26,23.47 0,21.3 -5,36.94 -15,46.94 -10,10 -25.64,15 -46.94,15l-140.18 0 0 -228.2zm143.44 156.48c0,-13.04 -6.52,-19.56 -19.56,-19.56l-65.2 0 0 45.64 65.2 0c13.04,0 19.56,-6.52 19.56,-19.56l0 -6.52zm-9.78 -91.28c0,-13.04 -6.52,-19.56 -19.56,-19.56l-55.42 0 0 45.64 55.42 0c13.04,0 19.56,-6.52 19.56,-19.56l0 -6.52z"/>
  <path id="_1" fill="#FEFEFE" fill-rule="nonzero" d="M1174.57 73.67l58.68 0 0 166.26c0,22.82 -5.16,39.39 -15.49,49.71 -10.32,10.33 -26.89,15.49 -49.71,15.49l-74.98 0c-22.82,0 -39.39,-5.16 -49.71,-15.49 -10.32,-10.32 -15.49,-26.89 -15.49,-49.71l0 -166.26 58.68 0 0 166.26c0,13.04 6.52,19.56 19.56,19.56l48.9 0c13.04,0 19.56,-6.52 19.56,-19.56l0 -166.26z"/>
  <polygon id="_2" fill="#FEFEFE" fill-rule="nonzero" points="1379.95,301.87 1262.59,301.87 1262.59,256.23 1291.93,256.23 1291.93,119.31 1262.59,119.31 1262.59,73.67 1379.95,73.67 1379.95,119.31 1350.61,119.31 1350.61,256.23 1379.95,256.23 "/>
  <polygon id="_3" fill="#FEFEFE" fill-rule="nonzero" points="1467.96,256.23 1586.95,256.23 1586.95,301.87 1409.29,301.87 1409.29,73.67 1467.96,73.67 "/>
  <path id="_4" fill="#FEFEFE" fill-rule="nonzero" d="M1736.91 73.67c24.55,0 43.19,6.36 55.9,19.07 12.72,12.72 19.07,31.35 19.07,55.91l0 78.24c0,24.56 -6.35,43.19 -19.07,55.91 -12.71,12.71 -31.35,19.07 -55.9,19.07l-127.14 0 0 -228.2 127.14 0zm16.3 74.98c0,-19.56 -9.78,-29.34 -29.34,-29.34l-55.42 0 0 136.92 55.42 0c19.56,0 29.34,-9.78 29.34,-29.34l0 -78.24z"/>
  <path id="_5" fill="#FEFEFE" fill-rule="nonzero" d="M1983.03 301.87l-63.57 0 86.39 -228.2 65.2 0 86.39 228.2 -63.57 0 -14.67 -40.75 -81.5 0 -14.67 40.75zm29.34 -83.13l52.16 0 -26.08 -76.61 -26.08 76.61z"/>
  <polygon id="_6" fill="#FEFEFE" fill-rule="nonzero" points="2281.31,301.87 2163.95,301.87 2163.95,256.23 2193.3,256.23 2193.3,119.31 2163.95,119.31 2163.95,73.67 2281.31,73.67 2281.31,119.31 2251.97,119.31 2251.97,256.23 2281.31,256.23 "/>
  <path id="_7" fill="#FEFEFE" fill-rule="nonzero" d="M789.58 647.42c59.54,3.26 99.86,4.89 120.94,4.89 5,0 8.96,-1.47 11.9,-4.4 2.93,-2.94 4.4,-6.9 4.4,-11.9l0 -29.34 -74.98 0c-22.82,0 -39.39,-5.16 -49.71,-15.48 -10.33,-10.33 -15.49,-26.9 -15.49,-49.72l0 -9.78c0,-22.82 5.16,-39.39 15.49,-49.71 10.32,-10.33 26.89,-15.49 49.71,-15.49l114.42 0 0 45.64 -101.38 0c-13.04,0 -19.56,6.52 -19.56,19.56l0 6.52c0,13.04 6.52,19.56 19.56,19.56l58.68 0c21.3,0 36.94,5 46.94,15 10,9.99 15,25.64 15,46.94l0 16.3c0,21.3 -5,36.95 -15,46.94 -10,10 -25.64,15 -46.94,15 -11.09,0 -22.82,-0.22 -35.21,-0.65l-29.99 -1.31c-22.17,-1.08 -45.1,-2.61 -68.78,-4.56l0 -44.01z"/>
  <polygon id="_8" fill="#FEFEFE" fill-rule="nonzero" points="1109.37,694.69 1050.7,694.69 1050.7,512.13 982.24,512.13 982.24,466.49 1177.83,466.49 1177.83,512.13 1109.37,512.13 "/>
  <path id="_9" fill="#FEFEFE" fill-rule="nonzero" d="M1218.58 694.69l-63.57 0 86.39 -228.2 65.2 0 86.39 228.2 -63.57 0 -14.67 -40.75 -81.5 0 -14.67 40.75zm29.34 -83.13l52.16 0 -26.08 -76.61 -26.08 76.61z"/>
  <path id="_10" fill="#FEFEFE" fill-rule="nonzero" d="M1409.29 466.49l136.91 0c22.82,0 39.39,5.16 49.72,15.49 10.32,10.32 15.48,26.89 15.48,49.71l0 29.34c0,18.04 -2.99,32.06 -8.97,42.06 -5.97,9.99 -15.48,16.62 -28.52,19.88l40.75 71.72 -63.57 0 -37.49 -68.46 -45.64 0 0 68.46 -58.67 0 0 -228.2zm143.43 65.2c0,-13.04 -6.52,-19.56 -19.56,-19.56l-65.2 0 0 68.46 65.2 0c13.04,0 19.56,-6.52 19.56,-19.56l0 -29.34z"/>
  <polygon id="_11" fill="#FEFEFE" fill-rule="nonzero" points="1754.84,694.69 1696.16,694.69 1696.16,512.13 1627.7,512.13 1627.7,466.49 1823.3,466.49 1823.3,512.13 1754.84,512.13 "/>
  <path id="_12" fill="#FEFEFE" fill-rule="nonzero" d="M1992.81 466.49l58.68 0 0 166.26c0,22.82 -5.16,39.39 -15.48,49.71 -10.33,10.33 -26.9,15.49 -49.72,15.49l-74.98 0c-22.82,0 -39.39,-5.16 -49.71,-15.49 -10.32,-10.32 -15.48,-26.89 -15.48,-49.71l0 -166.26 58.67 0 0 166.26c0,13.04 6.52,19.56 19.56,19.56l48.9 0c13.04,0 19.56,-6.52 19.56,-19.56l0 -166.26z"/>
  <path id="_13" fill="#FEFEFE" fill-rule="nonzero" d="M2090.61 466.49l136.92 0c22.81,0 39.39,5.16 49.71,15.49 10.32,10.32 15.48,26.89 15.48,49.71l0 32.6c0,22.82 -5.16,39.39 -15.48,49.72 -10.32,10.32 -26.9,15.48 -49.71,15.48l-78.24 0 0 65.2 -58.68 0 0 -228.2zm143.44 65.2c0,-13.04 -6.52,-19.56 -19.56,-19.56l-65.2 0 0 71.72 65.2 0c13.04,0 19.56,-6.52 19.56,-19.56l0 -32.6z"/>
  <path id="_14" fill="#FEFEFE" fill-rule="nonzero" d="M2315.22 647.42c59.54,3.26 99.86,4.89 120.94,4.89 5,0 8.96,-1.47 11.9,-4.4 2.93,-2.94 4.4,-6.9 4.4,-11.9l0 -29.34 -74.98 0c-22.82,0 -39.39,-5.16 -49.71,-15.48 -10.33,-10.33 -15.49,-26.9 -15.49,-49.72l0 -9.78c0,-22.82 5.16,-39.39 15.49,-49.71 10.32,-10.33 26.89,-15.49 49.71,-15.49l114.42 0 0 45.64 -101.38 0c-13.04,0 -19.56,6.52 -19.56,19.56l0 6.52c0,13.04 6.52,19.56 19.56,19.56l58.68 0c21.3,0 36.95,5 46.94,15 10,9.99 15,25.64 15,46.94l0 16.3c0,21.3 -5,36.95 -15,46.94 -9.99,10 -25.64,15 -46.94,15 -11.08,0 -22.82,-0.22 -35.21,-0.65l-29.99 -1.31c-22.17,-1.08 -45.09,-2.61 -68.78,-4.56l0 -44.01z"/>
  <g id="_2016232552064">
   <path fill="none" stroke="#017CF6" stroke-width="51.14" stroke-miterlimit="2.61313" d="M91.14 447.3c13.94,-0.52 66.81,-2.85 91.61,-6.87 60.96,-9.87 92.22,-55.25 129.15,-100.45 6.15,-7.51 18.82,-23.62 26.76,-32.03"/>
   <path fill="none" stroke="#017CF6" stroke-width="102.27" stroke-miterlimit="2.61313" d="M596.85 460.55l0 116.81c0,52.72 -43.12,95.84 -95.84,95.84l-354.03 0c-52.72,0 -95.84,-43.12 -95.84,-95.84l0 -410.92c0,-52.72 43.12,-95.84 95.84,-95.84l354.03 0c52.72,0 95.84,43.12 95.84,95.84l0 73.42"/>
   <line fill="none" stroke="#017CF6" stroke-width="51.14" stroke-miterlimit="2.61313" x1="436.22" y1="475.81" x2="536.38" y2= "386" />
   <path fill="#017CF6" stroke="#017CF6" stroke-width="3.2" stroke-miterlimit="2.61313" d="M390.94 447.82c35.67,0 64.59,28.07 64.59,62.7 0,34.63 -28.92,62.7 -64.59,62.7 -35.68,0 -64.6,-28.07 -64.6,-62.7 0,-34.63 28.92,-62.7 64.6,-62.7z"/>
   <path fill="#017CF6" stroke="#017CF6" stroke-width="3.2" stroke-miterlimit="2.61313" d="M377.72 196.69c38.56,0 69.81,30.34 69.81,67.77 0,37.42 -31.25,67.76 -69.81,67.76 -38.56,0 -69.81,-30.34 -69.81,-67.76 0,-37.43 31.25,-67.77 69.81,-67.77z"/>
   <path fill="#017CF6" stroke="#017CF6" stroke-width="3.2" stroke-miterlimit="2.61313" d="M578.86 272.4c40.33,0 73.04,31.74 73.04,70.89 0,39.16 -32.71,70.89 -73.04,70.89 -40.34,0 -73.04,-31.73 -73.04,-70.89 0,-39.15 32.7,-70.89 73.04,-70.89z"/>
   <path fill="#017CF6" d="M441.3 471.26c-11.84,-14.29 -30,-23.44 -50.36,-23.44 -35.68,0 -64.6,28.07 -64.6,62.7 0,34.63 28.92,62.7 64.6,62.7 35.67,0 64.59,-28.07 64.59,-62.7 0,-14.86 -5.32,-28.52 -14.23,-39.26z"/>
  </g>
 </g>
</svg>
