<?xml version="1.0" encoding="UTF-8"?>
<!DOCTYPE svg PUBLIC "-//W3C//DTD SVG 1.1//EN" "http://www.w3.org/Graphics/SVG/1.1/DTD/svg11.dtd">
<!-- Creator: CorelDRAW -->
<svg xmlns="http://www.w3.org/2000/svg" xml:space="preserve" width="6.45216in" height="1.73583in" version="1.1" style="shape-rendering:geometricPrecision; text-rendering:geometricPrecision; image-rendering:optimizeQuality; fill-rule:evenodd; clip-rule:evenodd"
viewBox="0 0 9875.06 2656.69"
 xmlns:xlink="http://www.w3.org/1999/xlink"
 xmlns:xodm="http://www.corel.com/coreldraw/odm/2003">
 <defs>
  <style type="text/css">
   <![CDATA[
    .fil6 {fill:#017CF6}
    .fil2 {fill:#017EF9}
    .fil1 {fill:#01B1F9}
    .fil5 {fill:#01B1FA}
    .fil3 {fill:#038BFB}
    .fil4 {fill:#0493F5}
    .fil7 {fill:#0593F5}
    .fil0 {fill:#2B2A29;fill-rule:nonzero}
   ]]>
  </style>
 </defs>
 <g id="Layer_x0020_1">
  <metadata id="CorelCorpID_0Corel-Layer"/>
  <path class="fil0" d="M2658.81 245.01l433.64 0c70.83,0 122.87,16.08 156.11,48.24 33.25,32.16 49.87,81.13 49.87,146.9 0,43.36 -9.39,78.6 -28.18,105.7 -18.79,27.1 -41.92,46.08 -69.38,56.92 58.54,15.9 98.29,54.93 119.25,117.08 7.22,22.4 10.84,48.42 10.84,78.06 0,70.83 -16.62,122.86 -49.87,156.11 -33.25,33.24 -85.29,49.87 -156.11,49.87l-466.17 0 0 -758.87zm477.01 520.37c0,-43.36 -21.68,-65.04 -65.05,-65.04l-216.82 0 0 151.77 216.82 0c43.37,0 65.05,-21.69 65.05,-65.05l0 -21.69zm-32.52 -303.55c0,-43.37 -21.69,-65.05 -65.05,-65.05l-184.3 0 0 151.77 184.3 0c43.36,0 65.05,-21.68 65.05,-65.05l0 -21.68z"/>
  <path id="_1" class="fil0" d="M3916.37 245.01l195.14 0 0 552.89c0,75.89 -17.17,131 -51.49,165.32 -34.33,34.33 -89.44,51.49 -165.32,51.49l-249.35 0c-75.89,0 -131,-17.17 -165.32,-51.49 -34.33,-34.33 -51.49,-89.44 -51.49,-165.32l0 -552.89 195.14 0 0 552.89c0,43.37 21.68,65.05 65.05,65.05l162.61 0c43.37,0 65.05,-21.68 65.05,-65.05l0 -552.89z"/>
  <polygon id="_2" class="fil0" points="4599.35,1003.88 4209.07,1003.88 4209.07,852.11 4306.65,852.11 4306.65,396.78 4209.07,396.78 4209.07,245.01 4599.35,245.01 4599.35,396.78 4501.79,396.78 4501.79,852.11 4599.35,852.11 "/>
  <polygon id="_3" class="fil0" points="4892.07,852.11 5287.76,852.11 5287.76,1003.88 4696.93,1003.88 4696.93,245.01 4892.07,245.01 "/>
  <path id="_4" class="fil0" d="M5786.45 245.01c81.67,0 143.64,21.14 185.93,63.42 42.28,42.28 63.42,104.26 63.42,185.92l0 260.19c0,81.67 -21.14,143.64 -63.42,185.93 -42.28,42.28 -104.26,63.42 -185.93,63.42l-422.8 0 0 -758.87 422.8 0zm54.21 249.34c0,-65.04 -32.52,-97.57 -97.57,-97.57l-184.3 0 0 455.33 184.3 0c65.05,0 97.57,-32.53 97.57,-97.57l0 -260.19z"/>
  <path id="_5" class="fil0" d="M6604.95 1003.88l-211.4 0 287.29 -758.87 216.82 0 287.29 758.87 -211.4 0 -48.78 -135.52 -271.03 0 -48.79 135.52zm97.57 -276.45l173.45 0 -86.73 -254.76 -86.73 254.76z"/>
  <polygon id="_6" class="fil0" points="7596.9,1003.88 7206.62,1003.88 7206.62,852.11 7304.19,852.11 7304.19,396.78 7206.62,396.78 7206.62,245.01 7596.9,245.01 7596.9,396.78 7499.33,396.78 7499.33,852.11 7596.9,852.11 "/>
  <path id="_7" class="fil0" d="M2636.05 2153.03c198.03,10.84 332.1,16.26 402.2,16.26 16.62,0 29.81,-4.88 39.56,-14.64 9.76,-9.76 14.64,-22.95 14.64,-39.57l0 -97.57 -249.34 0c-75.89,0 -131,-17.17 -165.33,-51.49 -34.33,-34.33 -51.49,-89.44 -51.49,-165.33l0 -32.52c0,-75.89 17.17,-131 51.49,-165.32 34.33,-34.33 89.44,-51.49 165.33,-51.49l380.52 0 0 151.77 -337.16 0c-43.36,0 -65.05,21.68 -65.05,65.05l0 21.68c0,43.37 21.69,65.05 65.05,65.05l195.14 0c70.83,0 122.87,16.62 156.11,49.87 33.25,33.25 49.87,85.29 49.87,156.11l0 54.21c0,70.83 -16.62,122.87 -49.87,156.11 -33.24,33.24 -85.28,49.87 -156.11,49.87 -36.86,0 -75.89,-0.72 -117.08,-2.17l-99.74 -4.33c-73.72,-3.62 -149.97,-8.68 -228.74,-15.18l0 -146.36z"/>
  <polygon id="_8" class="fil0" points="3699.55,2310.22 3504.42,2310.22 3504.42,1703.13 3276.75,1703.13 3276.75,1551.35 3927.21,1551.35 3927.21,1703.13 3699.55,1703.13 "/>
  <path id="_9" class="fil0" d="M4062.72 2310.22l-211.4 0 287.29 -758.87 216.82 0 287.29 758.87 -211.4 0 -48.78 -135.52 -271.03 0 -48.79 135.52zm97.57 -276.45l173.45 0 -86.73 -254.76 -86.73 254.76z"/>
  <path id="_10" class="fil0" d="M4696.93 1551.35l455.33 0c75.89,0 131,17.16 165.32,51.49 34.33,34.33 51.49,89.44 51.49,165.32l0 97.57c0,59.99 -9.94,106.61 -29.81,139.85 -19.87,33.24 -51.49,55.28 -94.86,66.13l135.51 238.51 -211.4 0 -124.67 -227.66 -151.77 0 0 227.66 -195.14 0 0 -758.87zm477.01 216.82c0,-43.37 -21.68,-65.05 -65.05,-65.05l-216.82 0 0 227.66 216.82 0c43.37,0 65.05,-21.68 65.05,-65.05l0 -97.57z"/>
  <polygon id="_11" class="fil0" points="5846.08,2310.22 5650.94,2310.22 5650.94,1703.13 5423.28,1703.13 5423.28,1551.35 6073.74,1551.35 6073.74,1703.13 5846.08,1703.13 "/>
  <path id="_12" class="fil0" d="M6637.47 1551.35l195.14 0 0 552.89c0,75.89 -17.17,131 -51.49,165.32 -34.33,34.33 -89.44,51.49 -165.32,51.49l-249.35 0c-75.89,0 -131,-17.17 -165.32,-51.49 -34.33,-34.33 -51.49,-89.44 -51.49,-165.32l0 -552.89 195.14 0 0 552.89c0,43.37 21.68,65.05 65.05,65.05l162.61 0c43.37,0 65.05,-21.68 65.05,-65.05l0 -552.89z"/>
  <path id="_13" class="fil0" d="M6962.71 1551.35l455.33 0c75.89,0 131,17.16 165.32,51.49 34.33,34.33 51.49,89.44 51.49,165.32l0 108.41c0,75.89 -17.17,130.99 -51.49,165.32 -34.33,34.33 -89.44,51.49 -165.32,51.49l-260.19 0 0 216.82 -195.14 0 0 -758.87zm477.01 216.82c0,-43.37 -21.68,-65.05 -65.05,-65.05l-216.82 0 0 238.51 216.82 0c43.37,0 65.05,-21.69 65.05,-65.05l0 -108.41z"/>
  <path id="_14" class="fil0" d="M7709.65 2153.03c198.03,10.84 332.1,16.26 402.2,16.26 16.62,0 29.81,-4.88 39.56,-14.64 9.76,-9.76 14.64,-22.95 14.64,-39.57l0 -97.57 -249.34 0c-75.89,0 -131,-17.17 -165.33,-51.49 -34.33,-34.33 -51.49,-89.44 -51.49,-165.33l0 -32.52c0,-75.89 17.17,-131 51.49,-165.32 34.33,-34.33 89.44,-51.49 165.33,-51.49l380.52 0 0 151.77 -337.16 0c-43.36,0 -65.05,21.68 -65.05,65.05l0 21.68c0,43.37 21.69,65.05 65.05,65.05l195.14 0c70.83,0 122.87,16.62 156.11,49.87 33.25,33.25 49.87,85.29 49.87,156.11l0 54.21c0,70.83 -16.62,122.87 -49.87,156.11 -33.24,33.24 -85.28,49.87 -156.11,49.87 -36.86,0 -75.89,-0.72 -117.08,-2.17l-99.74 -4.33c-73.72,-3.62 -149.97,-8.68 -228.74,-15.18l0 -146.36z"/>
  <g id="_2867094777024">
   <path class="fil1" d="M344.42 2382.66c203.89,-15.79 479.59,0.15 701.15,-8.57 217.4,-8.56 461.75,-20.43 677.25,-16.5l-359.01 -14.57c-12.76,-26.73 -11.78,25.97 15.36,-11.28 43.37,-59.51 20.62,40.58 7.03,-16.09l-245.97 -75.72 82.15 -48.73c-169.19,-26.22 -696.18,31.6 -814.11,-48.2 -207.67,-32.36 -179.31,-340.41 -166.44,-506.28 511.19,-39.68 349.91,77.77 724.07,-295.79 50.85,-50.78 141.75,-116.2 144.36,-175.28 23.6,-88.74 2.48,-72.05 53.23,-96.17l-75.52 -50.23c-83.65,71.47 -58.58,71.9 -169.86,125.04 -65.44,13.15 -169.76,178.17 -241.92,225.63 -116.98,76.93 -294.95,50.69 -437.99,50.69 0,-153.33 -20.61,-859.68 22.1,-976.5 52.29,-143.02 113.99,-90.82 169.29,-149.59 109.62,-74.08 385.68,-32.53 526.8,-48.05 -126.77,-53.87 -27.31,27.5 -124.45,-78.31 -97.29,-105.97 -256.78,-68.48 -487.5,-74.72 -182.76,-26.18 -327.78,241.51 -339.63,392.62l0 1486.64c13.9,177.05 144.64,384.55 339.63,409.95z"/>
   <path class="fil2" d="M1805.51 1269.25c-39.99,35.26 -309.73,274.68 -327.14,280.49 -82.78,27.62 -341.77,-69.1 -368.09,213.35 -28.1,301.62 394.65,344.39 474.14,67.49 62.54,-217.92 -164.96,21.64 232.19,-340.13 242.82,-221.2 249.47,15.74 425.67,-147.94 345.54,-321 -240.86,-689.67 -418.06,-332.95 -67.22,135.33 -16.62,149.24 -18.71,259.7z"/>
   <path class="fil3" d="M429.57 294.52c332.81,0 665.62,0.09 998.44,0 524.19,-0.13 503.16,34.72 534.83,442.55l208.82 3.94c0,-449.42 -0.23,-681.59 -573.64,-680.23l-1188.85 1.58c-61.99,13.7 -26.58,-6.49 -64.75,31.08 230.73,6.24 390.21,-31.25 487.5,74.72 97.14,105.81 -2.31,24.43 124.45,78.31 -141.12,15.52 -417.18,-26.03 -526.8,48.05z"/>
   <path class="fil4" d="M408.27 2143c117.93,79.8 644.91,21.98 814.11,48.2l-82.15 48.73 245.97 75.72c13.59,56.67 36.35,-43.43 -7.03,16.09 -27.14,37.25 -28.12,-15.45 -15.36,11.28l359.01 14.57c-215.51,-3.93 -459.86,7.94 -677.25,16.5 -221.56,8.73 -497.26,-7.22 -701.15,8.57 106.35,49.09 1088.8,14.14 1296.36,15.6 604.46,4.25 530.88,-437.62 530.88,-807.67 -97.91,-2.08 -97.37,-26.46 -208.82,-17.61 -53.36,687.46 139.92,583.25 -1278.72,591.56 -118.71,0.7 -173.06,-15.09 -275.85,-21.54z"/>
   <path class="fil2" d="M918.09 1144.29c111.28,-53.13 86.21,-53.57 169.86,-125.04l75.52 50.23c-50.75,24.11 -29.63,7.43 -53.23,96.17 54.41,-22.25 69.58,-43.92 95.87,-51.14 53.07,-14.56 180.76,36.15 290.84,-92.39 260.32,-304 -285.85,-613.86 -435.09,-264.81 -64.94,151.89 68.44,154.59 -68.05,290.29 -47.36,47.07 -43.1,40.34 -75.74,96.69z"/>
  </g>
  <g id="_2867094783072">
   <path class="fil5" d="M346.41 2397.96l1017.84 -54.16c-23.01,-32.26 -23.7,41.37 11.09,-6.92 30.84,-42.81 27.62,23.75 10.18,-26.05 -57.76,-8.3 -61.59,-18.68 -113.97,-36.05 -48.8,-16.18 -85.79,-22.65 -119.75,-36.09 11.21,-47.65 64.43,30.97 21.25,-55.09 -147.55,3.5 -665.85,29.6 -764.79,-40.6 -219.87,-31.46 -170.08,-362.21 -170.08,-509.92 120.96,0 258.93,12.53 371.35,-11.11 87.31,-18.35 196.69,-69.32 209.91,-158.88 35.73,-80.11 63.13,-79.98 60.32,-198.13l-89.15 28.06c-78.53,1.94 -58.43,77.66 -203.11,115.7 -101.89,26.8 -237.07,11.89 -349.32,11.89 0,-191.23 0,-382.45 0,-573.67 -0.01,-230.93 -29.44,-374.17 84.99,-501.59 -41.16,-39.21 -9.9,-79.92 -13.69,-110.51 -0.43,-3.46 -1,-9.9 -1.86,-13.3 -0.87,-3.43 -2.53,-9.54 -3.92,-12.9l-86.65 -84.09c-53.37,68.97 -215.46,101.67 -213.11,466.91 1.4,215.6 -14.32,1326.05 8.74,1437.1 63.17,304.29 306.59,342.25 333.73,369.41z"/>
   <path class="fil6" d="M1789.21 1144.4c0,80.02 13.98,40.18 21.25,127.48 -76.25,51.07 -97.75,64.25 -164.83,132.63 -38.05,38.76 -121.28,129.89 -167.26,145.23 -63.05,21.04 -151.17,-26.98 -242.52,18.53 -172.54,85.95 -197.13,447.26 128.43,447.26 111.68,0 233.72,-141.26 233.72,-233.72 0,-122.64 -114.82,19.76 207.49,-281.22 20.04,-18.72 26.75,-23.64 45.41,-40.11 123.18,-108.73 70.7,-69.95 172.42,-62.97 83.33,5.72 115.27,8.91 170.33,-18.61 229.97,-114.9 194.8,-510.71 -128.22,-510.71 -165.23,0 -276.21,116.3 -276.21,276.21z"/>
   <path class="fil7" d="M408.27 2143c98.94,70.2 617.24,44.1 764.79,40.6 43.19,86.05 -10.03,7.44 -21.25,55.09 33.95,13.44 70.95,19.9 119.75,36.09 52.38,17.37 56.21,27.74 113.97,36.05 17.44,49.81 20.66,-16.76 -10.18,26.05 -34.79,48.29 -34.1,-25.33 -11.09,6.92l-1017.84 54.16c438.42,0 877.51,-2.37 1315.85,0.53 590.2,3.9 509.4,-466.07 509.4,-807.91 -93.62,-2.08 -99.34,-21.25 -212.47,-21.25 0,713.04 24.49,587.61 -1275.07,595.19 -129.41,0.77 -173.25,-15.5 -275.86,-21.52z"/>
   <path class="fil6" d="M464.98 294.51c321.01,0 642.02,0.08 963.02,0 439.46,-0.11 531.18,-4.56 531.18,446.19l212.47 0c0,-340.92 11.86,-679.91 -488.57,-679.91 -26.27,42.19 -386.1,24.87 -495.44,30l134.13 5.67c18.17,26.42 11.31,4.66 24.24,49.22 0.44,1.5 2.74,50.9 2.9,57.23 186.25,2.83 23.64,52.34 381.72,40.98l-1265.65 50.63z"/>
   <path class="fil7" d="M217.05 124.54l86.65 84.09c1.39,3.36 3.05,9.47 3.92,12.9 0.86,3.4 1.43,9.85 1.86,13.3 3.79,30.59 -27.47,71.3 13.69,110.51 59.22,-24.92 86.57,-31.72 141.81,-50.83l1265.65 -50.63c-358.07,11.36 -195.47,-38.15 -381.72,-40.98 -0.16,-6.33 -2.46,-55.72 -2.9,-57.23 -12.93,-44.55 -6.07,-22.79 -24.24,-49.22l-134.13 -5.67c109.33,-5.12 469.17,12.2 495.44,-30 -247.92,0 -495.83,0 -743.75,0 -127.48,0 -255.12,0.59 -382.58,-0.14 -187.28,-1.08 -199.81,-6.74 -339.7,63.88z"/>
   <path class="fil6" d="M1087.95 953.17l0.04 -46.95c56.12,75.26 14.23,39.85 36.1,92.98l42.14 49.3c51.1,38.32 12.67,26.55 91.19,40.43 32.45,5.74 87.94,6.81 128.1,12.87 269.86,-135.38 177.87,-400.62 43.44,-468.34 -200.44,-100.98 -410.74,76.97 -386.58,233.93 18.66,121.22 -16.88,44.38 45.57,85.77z"/>
   <path class="fil7" d="M1087.95 953.17c-91.74,81.94 -254.19,233.84 -297.35,339.85l89.15 -28.06c2.81,118.15 -24.6,118.02 -60.32,198.13 71.22,-33.67 80.77,-55.12 136,-111.5 47.01,-47.98 79.95,-79.66 127.28,-127.56 166.64,-168.64 71.96,-88.26 302.8,-122.24 -40.16,-6.06 -95.64,-7.13 -128.1,-12.87 -78.53,-13.88 -40.09,-2.11 -91.19,-40.43l-42.14 -49.3c-21.87,-53.13 20.02,-17.72 -36.1,-92.98l-0.04 46.95z"/>
  </g>
 </g>
</svg>
