<svg xmlns="http://www.w3.org/2000/svg" width="1600" height="1000" viewBox="0 0 1600 1000" fill="none">
    <defs>
        <!-- Arrowheads -->
        <marker id="arrow" viewBox="0 0 10 10" refX="8" refY="5" markerWidth="8" markerHeight="8" orient="auto-start-reverse">
            <path d="M0,0 L10,5 L0,10 z" fill="#6C5CE7"/>
        </marker>
        <marker id="arrowBlue" viewBox="0 0 10 10" refX="8" refY="5" markerWidth="8" markerHeight="8" orient="auto-start-reverse">
            <path d="M0,0 L10,5 L0,10 z" fill="#2D9CDB"/>
        </marker>

        <!-- Badge check icon -->
        <symbol id="check" viewBox="0 0 24 24">
            <path d="M20 6L9 17l-5-5" stroke="#FFFFFF" stroke-width="3" stroke-linecap="round" stroke-linejoin="round"/>
        </symbol>

        <!-- Chat bubble icon -->
        <symbol id="chat" viewBox="0 0 24 24">
            <path d="M3 5a3 3 0 0 1 3-3h12a3 3 0 0 1 3 3v9a3 3 0 0 1-3 3H9l-6 5V5z" fill="#FFFFFF" stroke="#2D9CDB" stroke-width="2"/>
            <circle cx="9" cy="10" r="1.6" fill="#2D9CDB"/>
            <circle cx="12" cy="10" r="1.6" fill="#2D9CDB"/>
            <circle cx="15" cy="10" r="1.6" fill="#2D9CDB"/>
        </symbol>

        <!-- Sync icon -->
        <symbol id="sync" viewBox="0 0 24 24">
            <path d="M3 12a7 7 0 0 1 12-4" stroke="#6C5CE7" stroke-width="2.5" fill="none" stroke-linecap="round"/>
            <path d="M7 5l7 0 0 7" stroke="#6C5CE7" stroke-width="2.5" fill="none" stroke-linecap="round"/>
            <path d="M21 12a7 7 0 0 1-12 4" stroke="#2D9CDB" stroke-width="2.5" fill="none" stroke-linecap="round"/>
            <path d="M17 19l-7 0 0-7" stroke="#2D9CDB" stroke-width="2.5" fill="none" stroke-linecap="round"/>
        </symbol>

        <!-- People/collaboration icon -->
        <symbol id="people" viewBox="0 0 24 24">
            <circle cx="8" cy="9" r="3" fill="#2D9CDB"/>
            <circle cx="16" cy="9" r="3" fill="#6C5CE7"/>
            <path d="M2 20c0-3 2.5-5 6-5s6 2 6 5" fill="none" stroke="#2D9CDB" stroke-width="2" stroke-linecap="round"/>
            <path d="M10 20c0-3 2.5-5 6-5s6 2 6 5" fill="none" stroke="#6C5CE7" stroke-width="2" stroke-linecap="round"/>
        </symbol>

        <!-- Stage node style -->
        <style>
            .label { font-family: Inter, ui-sans-serif, system-ui, -apple-system, Segoe UI, Roboto, Helvetica, Arial; fill: #1F2937; font-size: 22px; }
            .role { font-weight: 600; font-size: 26px; }
            .small { font-size: 18px; fill: #94A3B8; }
            .stage-text { font-size: 20px; font-weight: 600; }
        </style>
    </defs>
    
<rect x="670" y="220" width="260" height="160" rx="18" ry="18" stroke="#6C5CE7" stroke-width="3" fill="#F6F7FF"/>
<rect x="670" y="220" width="260" height="46" rx="18" ry="18" stroke="#6C5CE7" stroke-width="0" fill="#6C5CE7"/>
<text x="800.0" y="250" text-anchor="middle" class="label">Spec DSL</text>
<line x1="690" y1="290" x2="910" y2="290" stroke="#94A3B8" stroke-width="2" stroke-linecap="round" />
<line x1="690" y1="312" x2="910" y2="312" stroke="#94A3B8" stroke-width="2" stroke-linecap="round" />
<line x1="690" y1="334" x2="910" y2="334" stroke="#94A3B8" stroke-width="2" stroke-linecap="round" />
<line x1="690" y1="356" x2="910" y2="356" stroke="#94A3B8" stroke-width="2" stroke-linecap="round" />
<use href="#people" x="610" y="160" width="38.4" height="38.4"/>
<use href="#people" x="920" y="170" width="32.0" height="32.0"/>
<use href="#chat" x="910" y="370" width="36.0" height="36.0"/>
<use href="#chat" x="600" y="375" width="34.199999999999996" height="34.199999999999996"/>

    <g>
        <circle cx="910" cy="240" r="14" fill="#2D9CDB"/>
        <use href="#check" x="898" y="228" width="24" height="24"/>
    </g>
    

    <g>
        <circle cx="690" cy="240" r="14" fill="#6C5CE7"/>
        <use href="#check" x="678" y="228" width="24" height="24"/>
    </g>
    
<circle cx="350" cy="210" r="64" stroke="#2D9CDB" stroke-width="3" fill="#FFFFFF"/>
<text x="350" y="218" text-anchor="middle" class="label role">PM</text>
<text x="350" y="248" text-anchor="middle" class="small">owner</text>
<circle cx="1250" cy="210" r="64" stroke="#6C5CE7" stroke-width="3" fill="#FFFFFF"/>
<text x="1250" y="218" text-anchor="middle" class="label role">Design</text>
<text x="1250" y="248" text-anchor="middle" class="small">owner</text>
<circle cx="800" cy="560" r="64" stroke="#2D9CDB" stroke-width="3" fill="#FFFFFF"/>
<text x="800" y="568" text-anchor="middle" class="label role">Engineering</text>
<text x="800" y="598" text-anchor="middle" class="small">owner</text>
<line x1="414" y1="210" x2="660" y2="280.0" stroke="#2D9CDB" stroke-width="4" marker-end="url(#arrowBlue)" marker-start="url(#arrowBlue)" />
<line x1="940" y1="280.0" x2="1186" y2="210" stroke="#6C5CE7" stroke-width="4" marker-end="url(#arrow)" marker-start="url(#arrow)" />
<line x1="800.0" y1="388" x2="800" y2="496" stroke="#2D9CDB" stroke-width="4" marker-end="url(#arrowBlue)" marker-start="url(#arrowBlue)" />
<use href="#chat" x="490.0" y="225.0" width="32.4" height="32.4"/>
<use href="#chat" x="1080.0" y="230.0" width="32.4" height="32.4"/>
<use href="#chat" x="782.0" y="450.0" width="32.4" height="32.4"/>
<use href="#sync" x="778.0" y="420" width="44.0" height="44.0"/>
<rect x="220" y="820" width="220" height="64" rx="16" ry="16" stroke="#6C5CE7" stroke-width="3" fill="#FFFFFF"/>
<text x="330.0" y="860" text-anchor="middle" class="label stage-text">Draft</text>
<polygon points="453.0,842.0 463.0,852.0 453.0,862.0 443.0,852.0" stroke="#94A3B8" stroke-width="3" fill="#F8FAFC"/>
<rect x="466" y="820" width="220" height="64" rx="16" ry="16" stroke="#2D9CDB" stroke-width="3" fill="#FFFFFF"/>
<text x="576.0" y="860" text-anchor="middle" class="label stage-text">Review</text>
<polygon points="699.0,842.0 709.0,852.0 699.0,862.0 689.0,852.0" stroke="#94A3B8" stroke-width="3" fill="#F8FAFC"/>
<rect x="712" y="820" width="220" height="64" rx="16" ry="16" stroke="#6C5CE7" stroke-width="3" fill="#FFFFFF"/>
<text x="822.0" y="860" text-anchor="middle" class="label stage-text">Approve</text>
<polygon points="945.0,842.0 955.0,852.0 945.0,862.0 935.0,852.0" stroke="#94A3B8" stroke-width="3" fill="#F8FAFC"/>
<rect x="958" y="820" width="220" height="64" rx="16" ry="16" stroke="#2D9CDB" stroke-width="3" fill="#FFFFFF"/>
<text x="1068.0" y="860" text-anchor="middle" class="label stage-text">Implement</text>
<polygon points="1191.0,842.0 1201.0,852.0 1191.0,862.0 1181.0,852.0" stroke="#94A3B8" stroke-width="3" fill="#F8FAFC"/>
<rect x="1204" y="820" width="220" height="64" rx="16" ry="16" stroke="#6C5CE7" stroke-width="3" fill="#FFFFFF"/>
<text x="1314.0" y="860" text-anchor="middle" class="label stage-text">Validate</text>
<circle cx="330.0" cy="760" r="10" stroke="#6C5CE7" stroke-width="0" fill="#6C5CE7"/>
<text x="330.0" y="742" text-anchor="middle" class="small">Spec drafted</text>
<circle cx="576.0" cy="760" r="10" stroke="#6C5CE7" stroke-width="0" fill="#6C5CE7"/>
<text x="576.0" y="742" text-anchor="middle" class="small">Peer review</text>
<circle cx="822.0" cy="760" r="10" stroke="#6C5CE7" stroke-width="0" fill="#6C5CE7"/>
<text x="822.0" y="742" text-anchor="middle" class="small">Approval</text>
<circle cx="1068.0" cy="760" r="10" stroke="#6C5CE7" stroke-width="0" fill="#6C5CE7"/>
<text x="1068.0" y="742" text-anchor="middle" class="small">Implementation</text>
<circle cx="1314.0" cy="760" r="10" stroke="#6C5CE7" stroke-width="0" fill="#6C5CE7"/>
<text x="1314.0" y="742" text-anchor="middle" class="small">Validation</text>
<rect x="220" y="650" width="400" height="110" rx="16" ry="16" stroke="#2D9CDB" stroke-width="2" fill="#FFFFFF" stroke-dasharray="8 8"/>
<text x="240" y="690" text-anchor="start" class="label role">PM</text>
<text x="240" y="725" text-anchor="start" class="small">Backlog & scope alignment</text>

    <g>
        <circle cx="596" cy="674" r="12" fill="#2D9CDB"/>
        <use href="#check" x="584" y="662" width="24" height="24"/>
    </g>
    
<rect x="600" y="650" width="400" height="110" rx="16" ry="16" stroke="#6C5CE7" stroke-width="2" fill="#FFFFFF" stroke-dasharray="8 8"/>
<text x="620" y="690" text-anchor="start" class="label role">Design</text>
<text x="620" y="725" text-anchor="start" class="small">UX flows & prototypes</text>

    <g>
        <circle cx="976" cy="674" r="12" fill="#6C5CE7"/>
        <use href="#check" x="964" y="662" width="24" height="24"/>
    </g>
    
<rect x="980" y="650" width="400" height="110" rx="16" ry="16" stroke="#2D9CDB" stroke-width="2" fill="#FFFFFF" stroke-dasharray="8 8"/>
<text x="1000" y="690" text-anchor="start" class="label role">Engineering</text>
<text x="1000" y="725" text-anchor="start" class="small">Feasibility & estimates</text>

    <g>
        <circle cx="1356" cy="674" r="12" fill="#2D9CDB"/>
        <use href="#check" x="1344" y="662" width="24" height="24"/>
    </g>
    
<text x="1260" y="760" text-anchor="start" class="label role">Legend</text>
<line x1="1260" y1="782" x2="1300" y2="782" stroke="#6C5CE7" stroke-width="4" marker-end="url(#arrow)" />
<text x="1312" y="788" text-anchor="start" class="small">Bi-directional alignment</text>

    <g>
        <circle cx="1272" cy="816" r="12" fill="#2D9CDB"/>
        <use href="#check" x="1260" y="804" width="24" height="24"/>
    </g>
    
<text x="1292" y="820" text-anchor="start" class="small">Approval badge</text>
<use href="#chat" x="1256" y="836" width="25.2" height="25.2"/>
<text x="1292" y="860" text-anchor="start" class="small">Comment / discussion</text>
<use href="#sync" x="1258" y="878" width="28.0" height="28.0"/>
<text x="1292" y="900" text-anchor="start" class="small">Team sync</text>
</svg>