<svg width="800" height="600" viewBox="0 0 800 600" xmlns="http://www.w3.org/2000/svg">
  <defs>
    <linearGradient id="purpleGrad" x1="0%" y1="0%" x2="100%" y2="100%">
      <stop offset="0%" style="stop-color:#8B5CF6;stop-opacity:1" />
      <stop offset="100%" style="stop-color:#6366F1;stop-opacity:1" />
    </linearGradient>
    <linearGradient id="blueGrad" x1="0%" y1="0%" x2="100%" y2="100%">
      <stop offset="0%" style="stop-color:#3B82F6;stop-opacity:1" />
      <stop offset="100%" style="stop-color:#2563EB;stop-opacity:1" />
    </linearGradient>
    <linearGradient id="teamBg" x1="0%" y1="0%" x2="0%" y2="100%">
      <stop offset="0%" style="stop-color:#F5F3FF;stop-opacity:1" />
      <stop offset="100%" style="stop-color:#EDE9FE;stop-opacity:1" />
    </linearGradient>
    <linearGradient id="approvalBg" x1="0%" y1="0%" x2="0%" y2="100%">
      <stop offset="0%" style="stop-color:#EFF6FF;stop-opacity:1" />
      <stop offset="100%" style="stop-color:#DBEAFE;stop-opacity:1" />
    </linearGradient>
    <linearGradient id="qualityBg" x1="0%" y1="0%" x2="0%" y2="100%">
      <stop offset="0%" style="stop-color:#FAF5FF;stop-opacity:1" />
      <stop offset="100%" style="stop-color:#F3E8FF;stop-opacity:1" />
    </linearGradient>
    <linearGradient id="progressBg" x1="0%" y1="0%" x2="0%" y2="100%">
      <stop offset="0%" style="stop-color:#EFF6FF;stop-opacity:1" />
      <stop offset="100%" style="stop-color:#DBEAFE;stop-opacity:1" />
    </linearGradient>
    <linearGradient id="mentorBg" x1="0%" y1="0%" x2="0%" y2="100%">
      <stop offset="0%" style="stop-color:#DBEAFE;stop-opacity:1" />
      <stop offset="100%" style="stop-color:#BFDBFE;stop-opacity:1" />
    </linearGradient>
    <linearGradient id="reviewBg" x1="0%" y1="0%" x2="0%" y2="100%">
      <stop offset="0%" style="stop-color:#F5F3FF;stop-opacity:1" />
      <stop offset="100%" style="stop-color:#EDE9FE;stop-opacity:1" />
    </linearGradient>
    <linearGradient id="adminBg" x1="0%" y1="0%" x2="0%" y2="100%">
      <stop offset="0%" style="stop-color:#DBEAFE;stop-opacity:1" />
      <stop offset="100%" style="stop-color:#BFDBFE;stop-opacity:1" />
    </linearGradient>
    <filter id="shadow">
      <feDropShadow dx="0" dy="2" stdDeviation="3" flood-opacity="0.2"/>
    </filter>
  </defs>
  
  <!-- Header Bar -->
  <rect x="0" y="0" width="800" height="60" fill="url(#purpleGrad)"/>
  <text x="20" y="35" font-family="Arial, sans-serif" font-size="22" font-weight="bold" fill="white">Mentor &amp; Admin Console</text>
  
  <!-- User Profile -->
  <circle cx="740" cy="30" r="18" fill="white" opacity="0.3"/>
  <text x="740" y="36" font-family="Arial, sans-serif" font-size="14" font-weight="bold" fill="white" text-anchor="middle">AD</text>
  
  <!-- Notifications Badge -->
  <circle cx="680" cy="30" r="16" fill="white" opacity="0.3"/>
  <text x="680" y="35" font-family="Arial, sans-serif" font-size="12" font-weight="bold" fill="white" text-anchor="middle">5</text>
  
  <!-- Main Content Area -->
  
  <!-- Left Panel - Team Oversight -->
  <g filter="url(#shadow)">
    <rect x="15" y="75" width="250" height="240" rx="8" fill="white" stroke="#E5E7EB" stroke-width="1"/>
    <rect x="15" y="110" width="250" height="205" rx="8" fill="url(#teamBg)"/>
    <rect x="15" y="75" width="250" height="35" rx="8" fill="url(#purpleGrad)"/>
    <text x="30" y="97" font-family="Arial, sans-serif" font-size="14" font-weight="bold" fill="white">Team Oversight</text>
    
    <!-- Team Members List -->
    <g transform="translate(25, 120)">
      <!-- Member 1 -->
      <circle cx="15" cy="15" r="12" fill="#8B5CF6" opacity="0.2"/>
      <text x="15" y="20" font-family="Arial, sans-serif" font-size="10" font-weight="bold" fill="#8B5CF6" text-anchor="middle">JD</text>
      <text x="35" y="18" font-family="Arial, sans-serif" font-size="12" fill="#374151">John Doe</text>
      <rect x="140" y="8" width="60" height="16" rx="8" fill="#10B981" opacity="0.2"/>
      <text x="170" y="18" font-family="Arial, sans-serif" font-size="10" fill="#10B981" text-anchor="middle">Active</text>
      
      <!-- Progress Bar -->
      <rect x="35" y="25" width="185" height="4" rx="2" fill="#E5E7EB"/>
      <rect x="35" y="25" width="130" height="4" rx="2" fill="#10B981"/>
      <text x="225" y="24" font-family="Arial, sans-serif" font-size="9" fill="#6B7280" text-anchor="end">70%</text>
      
      <!-- Member 2 -->
      <circle cx="15" cy="60" r="12" fill="#3B82F6" opacity="0.2"/>
      <text x="15" y="65" font-family="Arial, sans-serif" font-size="10" font-weight="bold" fill="#3B82F6" text-anchor="middle">SM</text>
      <text x="35" y="63" font-family="Arial, sans-serif" font-size="12" fill="#374151">Sarah Miller</text>
      <rect x="140" y="53" width="60" height="16" rx="8" fill="#F59E0B" opacity="0.2"/>
      <text x="170" y="63" font-family="Arial, sans-serif" font-size="10" fill="#F59E0B" text-anchor="middle">Review</text>
      
      <rect x="35" y="70" width="185" height="4" rx="2" fill="#E5E7EB"/>
      <rect x="35" y="70" width="165" height="4" rx="2" fill="#F59E0B"/>
      <text x="225" y="69" font-family="Arial, sans-serif" font-size="9" fill="#6B7280" text-anchor="end">89%</text>
      
      <!-- Member 3 -->
      <circle cx="15" cy="105" r="12" fill="#6366F1" opacity="0.2"/>
      <text x="15" y="110" font-family="Arial, sans-serif" font-size="10" font-weight="bold" fill="#6366F1" text-anchor="middle">RJ</text>
      <text x="35" y="108" font-family="Arial, sans-serif" font-size="12" fill="#374151">Robert Jones</text>
      <rect x="140" y="98" width="60" height="16" rx="8" fill="#10B981" opacity="0.2"/>
      <text x="170" y="108" font-family="Arial, sans-serif" font-size="10" fill="#10B981" text-anchor="middle">Active</text>
      
      <rect x="35" y="115" width="185" height="4" rx="2" fill="#E5E7EB"/>
      <rect x="35" y="115" width="92" height="4" rx="2" fill="#10B981"/>
      <text x="225" y="114" font-family="Arial, sans-serif" font-size="9" fill="#6B7280" text-anchor="end">50%</text>
      
      <!-- Member 4 -->
      <circle cx="15" cy="150" r="12" fill="#8B5CF6" opacity="0.2"/>
      <text x="15" y="155" font-family="Arial, sans-serif" font-size="10" font-weight="bold" fill="#8B5CF6" text-anchor="middle">EL</text>
      <text x="35" y="153" font-family="Arial, sans-serif" font-size="12" fill="#374151">Emma Lee</text>
      <rect x="140" y="143" width="60" height="16" rx="8" fill="#EF4444" opacity="0.2"/>
      <text x="170" y="153" font-family="Arial, sans-serif" font-size="10" fill="#EF4444" text-anchor="middle">Blocked</text>
      
      <rect x="35" y="160" width="185" height="4" rx="2" fill="#E5E7EB"/>
      <rect x="35" y="160" width="55" height="4" rx="2" fill="#EF4444"/>
      <text x="225" y="159" font-family="Arial, sans-serif" font-size="9" fill="#6B7280" text-anchor="end">30%</text>
    </g>
    
    <text x="30" y="305" font-family="Arial, sans-serif" font-size="11" fill="#6366F1" font-weight="bold">View All Team Members →</text>
  </g>
  
  <!-- Top Right - Approval Queue -->
  <g filter="url(#shadow)">
    <rect x="280" y="75" width="245" height="150" rx="8" fill="white" stroke="#E5E7EB" stroke-width="1"/>
    <rect x="280" y="110" width="245" height="115" rx="8" fill="url(#approvalBg)"/>
    <rect x="280" y="75" width="245" height="35" rx="8" fill="url(#blueGrad)"/>
    <text x="295" y="97" font-family="Arial, sans-serif" font-size="14" font-weight="bold" fill="white">Approval Queue</text>
    <circle cx="505" cy="92" r="10" fill="white" opacity="0.3"/>
    <text x="505" y="97" font-family="Arial, sans-serif" font-size="11" font-weight="bold" fill="white" text-anchor="middle">3</text>
    
    <!-- Queue Items -->
    <g transform="translate(290, 120)">
      <!-- Item 1 -->
      <rect x="0" y="0" width="225" height="24" rx="4" fill="#F3F4F6"/>
      <circle cx="10" cy="12" r="4" fill="#F59E0B"/>
      <text x="19" y="15" font-family="Arial, sans-serif" font-size="11" fill="#374151">Module 3 - Sarah Miller</text>
      <rect x="170" y="4" width="25" height="16" rx="3" fill="#10B981" opacity="0.8"/>
      <text x="182.5" y="15" font-family="Arial, sans-serif" font-size="9" fill="white" text-anchor="middle">✓</text>
      <rect x="200" y="4" width="25" height="16" rx="3" fill="#EF4444" opacity="0.8"/>
      <text x="212.5" y="15" font-family="Arial, sans-serif" font-size="9" fill="white" text-anchor="middle">✗</text>
      
      <!-- Item 2 -->
      <rect x="0" y="32" width="225" height="24" rx="4" fill="#F3F4F6"/>
      <circle cx="10" cy="44" r="4" fill="#F59E0B"/>
      <text x="19" y="47" font-family="Arial, sans-serif" font-size="11" fill="#374151">Project Review - John Doe</text>
      <rect x="170" y="36" width="25" height="16" rx="3" fill="#10B981" opacity="0.8"/>
      <text x="182.5" y="47" font-family="Arial, sans-serif" font-size="9" fill="white" text-anchor="middle">✓</text>
      <rect x="200" y="36" width="25" height="16" rx="3" fill="#EF4444" opacity="0.8"/>
      <text x="212.5" y="47" font-family="Arial, sans-serif" font-size="9" fill="white" text-anchor="middle">✗</text>
      
      <!-- Item 3 -->
      <rect x="0" y="64" width="225" height="24" rx="4" fill="#F3F4F6"/>
      <circle cx="10" cy="76" r="4" fill="#F59E0B"/>
      <text x="19" y="79" font-family="Arial, sans-serif" font-size="11" fill="#374151">Final Assessment - Emma Lee</text>
      <rect x="170" y="68" width="25" height="16" rx="3" fill="#10B981" opacity="0.8"/>
      <text x="182.5" y="79" font-family="Arial, sans-serif" font-size="9" fill="white" text-anchor="middle">✓</text>
      <rect x="200" y="68" width="25" height="16" rx="3" fill="#EF4444" opacity="0.8"/>
      <text x="212.5" y="79" font-family="Arial, sans-serif" font-size="9" fill="white" text-anchor="middle">✗</text>
    </g>
  </g>
  
  <!-- Middle Right - Quality Gates -->
  <g filter="url(#shadow)">
    <rect x="280" y="240" width="245" height="165" rx="8" fill="white" stroke="#E5E7EB" stroke-width="1"/>
    <rect x="280" y="275" width="245" height="130" rx="8" fill="url(#qualityBg)"/>
    <rect x="280" y="240" width="245" height="35" rx="8" fill="url(#purpleGrad)"/>
    <text x="295" y="262" font-family="Arial, sans-serif" font-size="14" font-weight="bold" fill="white">Quality Gates Monitor</text>
    
    <!-- Quality Gate Indicators -->
    <g transform="translate(295, 285)">
      <!-- Gate 1 -->
      <circle cx="8" cy="8" r="6" fill="#10B981"/>
      <text x="22" y="12" font-family="Arial, sans-serif" font-size="11" fill="#374151">Code Review</text>
      <text x="200" y="12" font-family="Arial, sans-serif" font-size="11" fill="#10B981" font-weight="bold" text-anchor="end">Passed</text>
      
      <!-- Gate 2 -->
      <circle cx="8" cy="33" r="6" fill="#10B981"/>
      <text x="22" y="37" font-family="Arial, sans-serif" font-size="11" fill="#374151">Testing</text>
      <text x="200" y="37" font-family="Arial, sans-serif" font-size="11" fill="#10B981" font-weight="bold" text-anchor="end">Passed</text>
      
      <!-- Gate 3 -->
      <circle cx="8" cy="58" r="6" fill="#F59E0B"/>
      <text x="22" y="62" font-family="Arial, sans-serif" font-size="11" fill="#374151">Documentation</text>
      <text x="200" y="62" font-family="Arial, sans-serif" font-size="11" fill="#F59E0B" font-weight="bold" text-anchor="end">In Progress</text>
      
      <!-- Gate 4 -->
      <circle cx="8" cy="83" r="6" fill="#EF4444"/>
      <text x="22" y="87" font-family="Arial, sans-serif" font-size="11" fill="#374151">Peer Review</text>
      <text x="200" y="87" font-family="Arial, sans-serif" font-size="11" fill="#EF4444" font-weight="bold" text-anchor="end">Failed</text>
      
      <!-- Statistics -->
      <rect x="0" y="100" width="215" height="15" rx="4" fill="#F9FAFB"/>
      <text x="10" y="110" font-family="Arial, sans-serif" font-size="10" fill="#6B7280">Pass Rate:</text>
      <text x="70" y="110" font-family="Arial, sans-serif" font-size="11" fill="#374151" font-weight="bold">75%</text>
      <text x="114" y="110" font-family="Arial, sans-serif" font-size="10" fill="#6B7280">Avg Time:</text>
      <text x="169" y="110" font-family="Arial, sans-serif" font-size="11" fill="#374151" font-weight="bold">2.3 days</text>
    </g>
  </g>
  
  <!-- Right Panel - Progress Tracking -->
  <g filter="url(#shadow)">
    <rect x="540" y="75" width="245" height="240" rx="8" fill="white" stroke="#E5E7EB" stroke-width="1"/>
    <rect x="540" y="110" width="245" height="205" rx="8" fill="url(#progressBg)"/>
    <rect x="540" y="75" width="245" height="35" rx="8" fill="url(#blueGrad)"/>
    <text x="555" y="97" font-family="Arial, sans-serif" font-size="14" font-weight="bold" fill="white">Progress Tracking</text>
    
    <!-- Chart Area -->
    <g transform="translate(560, 125)">
      <!-- Y-axis labels -->
      <text x="0" y="5" font-family="Arial, sans-serif" font-size="9" fill="#9CA3AF">100%</text>
      <text x="0" y="45" font-family="Arial, sans-serif" font-size="9" fill="#9CA3AF">75%</text>
      <text x="0" y="85" font-family="Arial, sans-serif" font-size="9" fill="#9CA3AF">50%</text>
      <text x="0" y="125" font-family="Arial, sans-serif" font-size="9" fill="#9CA3AF">25%</text>
      <text x="0" y="165" font-family="Arial, sans-serif" font-size="9" fill="#9CA3AF">0%</text>
      
      <!-- Grid lines -->
      <line x1="30" y1="0" x2="205" y2="0" stroke="#E5E7EB" stroke-width="1"/>
      <line x1="30" y1="40" x2="205" y2="40" stroke="#E5E7EB" stroke-width="1"/>
      <line x1="30" y1="80" x2="205" y2="80" stroke="#E5E7EB" stroke-width="1"/>
      <line x1="30" y1="120" x2="205" y2="120" stroke="#E5E7EB" stroke-width="1"/>
      <line x1="30" y1="160" x2="205" y2="160" stroke="#E5E7EB" stroke-width="1"/>
      
      <!-- Bars -->
      <rect x="35" y="48" width="30" height="112" rx="2" fill="#8B5CF6" opacity="0.8"/>
      <text x="50" y="170" font-family="Arial, sans-serif" font-size="9" fill="#374151" text-anchor="middle">W1</text>
      
      <rect x="75" y="32" width="30" height="128" rx="2" fill="#6366F1" opacity="0.8"/>
      <text x="90" y="170" font-family="Arial, sans-serif" font-size="9" fill="#374151" text-anchor="middle">W2</text>
      
      <rect x="115" y="20" width="30" height="140" rx="2" fill="#3B82F6" opacity="0.8"/>
      <text x="130" y="170" font-family="Arial, sans-serif" font-size="9" fill="#374151" text-anchor="middle">W3</text>
      
      <rect x="155" y="56" width="30" height="104" rx="2" fill="#60A5FA" opacity="0.8"/>
      <text x="170" y="170" font-family="Arial, sans-serif" font-size="9" fill="#374151" text-anchor="middle">W4</text>
    </g>
    
    <!-- Legend -->
    <g transform="translate(565, 295)">
      <circle cx="5" cy="5" r="4" fill="#3B82F6"/>
      <text x="15" y="8" font-family="Arial, sans-serif" font-size="10" fill="#6B7280">Completion Rate</text>
      <circle cx="115" cy="5" r="4" fill="#8B5CF6"/>
      <text x="125" y="8" font-family="Arial, sans-serif" font-size="10" fill="#6B7280">Engagement</text>
    </g>
  </g>
  
  <!-- Bottom Left - Mentor Tools -->
  <g filter="url(#shadow)">
    <rect x="15" y="330" width="250" height="255" rx="8" fill="white" stroke="#E5E7EB" stroke-width="1"/>
    <rect x="15" y="365" width="250" height="220" rx="8" fill="url(#mentorBg)"/>
    <rect x="15" y="330" width="250" height="35" rx="8" fill="url(#blueGrad)"/>
    <text x="30" y="352" font-family="Arial, sans-serif" font-size="14" font-weight="bold" fill="white">Mentor Tools</text>
    
    <!-- Tool Buttons -->
    <g transform="translate(30, 380)">
      <!-- Button 1 -->
      <rect x="0" y="0" width="105" height="50" rx="6" fill="#F3F4F6" stroke="#3B82F6" stroke-width="2"/>
      <text x="52.5" y="20" font-family="Arial, sans-serif" font-size="20" fill="#3B82F6" text-anchor="middle">📝</text>
      <text x="52.5" y="40" font-family="Arial, sans-serif" font-size="10" fill="#374151" text-anchor="middle" font-weight="bold">Feedback</text>
      
      <!-- Button 2 -->
      <rect x="115" y="0" width="105" height="50" rx="6" fill="#F3F4F6" stroke="#8B5CF6" stroke-width="2"/>
      <text x="167.5" y="20" font-family="Arial, sans-serif" font-size="20" fill="#8B5CF6" text-anchor="middle">💬</text>
      <text x="167.5" y="40" font-family="Arial, sans-serif" font-size="10" fill="#374151" text-anchor="middle" font-weight="bold">Messages</text>
      
      <!-- Button 3 -->
      <rect x="0" y="60" width="105" height="50" rx="6" fill="#F3F4F6" stroke="#6366F1" stroke-width="2"/>
      <text x="52.5" y="80" font-family="Arial, sans-serif" font-size="20" fill="#6366F1" text-anchor="middle">📊</text>
      <text x="52.5" y="100" font-family="Arial, sans-serif" font-size="10" fill="#374151" text-anchor="middle" font-weight="bold">Analytics</text>
      
      <!-- Button 4 -->
      <rect x="115" y="60" width="105" height="50" rx="6" fill="#F3F4F6" stroke="#3B82F6" stroke-width="2"/>
      <text x="167.5" y="80" font-family="Arial, sans-serif" font-size="20" fill="#3B82F6" text-anchor="middle">📅</text>
      <text x="167.5" y="100" font-family="Arial, sans-serif" font-size="10" fill="#374151" text-anchor="middle" font-weight="bold">Schedule</text>
      
      <!-- Button 5 -->
      <rect x="0" y="120" width="105" height="50" rx="6" fill="#F3F4F6" stroke="#8B5CF6" stroke-width="2"/>
      <text x="52.5" y="140" font-family="Arial, sans-serif" font-size="20" fill="#8B5CF6" text-anchor="middle">🎯</text>
      <text x="52.5" y="160" font-family="Arial, sans-serif" font-size="10" fill="#374151" text-anchor="middle" font-weight="bold">Goals</text>
      
      <!-- Button 6 -->
      <rect x="115" y="120" width="105" height="50" rx="6" fill="#F3F4F6" stroke="#6366F1" stroke-width="2"/>
      <text x="167.5" y="140" font-family="Arial, sans-serif" font-size="20" fill="#6366F1" text-anchor="middle">📚</text>
      <text x="167.5" y="160" font-family="Arial, sans-serif" font-size="10" fill="#374151" text-anchor="middle" font-weight="bold">Resources</text>
    </g>
    
    <!-- Quick Stats -->
    <rect x="30" y="560" width="220" height="15" rx="4" fill="#F9FAFB"/>
    <text x="140" y="570" font-family="Arial, sans-serif" font-size="9" fill="#6B7280" text-anchor="middle">Active Sessions: 12 | Pending Reviews: 8</text>
  </g>
  
  <!-- Bottom Middle - Review Interface -->
  <g filter="url(#shadow)">
    <rect x="280" y="420" width="245" height="165" rx="8" fill="white" stroke="#E5E7EB" stroke-width="1"/>
    <rect x="280" y="455" width="245" height="130" rx="8" fill="url(#reviewBg)"/>
    <rect x="280" y="420" width="245" height="35" rx="8" fill="url(#purpleGrad)"/>
    <text x="295" y="442" font-family="Arial, sans-serif" font-size="14" font-weight="bold" fill="white">Review Interface</text>
    
    <!-- Current Review -->
    <g transform="translate(295, 465)">
      <rect x="0" y="0" width="215" height="70" rx="4" fill="#F9FAFB"/>
      <text x="10" y="15" font-family="Arial, sans-serif" font-size="11" fill="#374151" font-weight="bold">Current: Module 3 - Sarah Miller</text>
      <text x="10" y="30" font-family="Arial, sans-serif" font-size="9" fill="#6B7280">Submitted: 2 hours ago</text>
      <text x="10" y="45" font-family="Arial, sans-serif" font-size="9" fill="#6B7280">Type: Project Submission</text>
      
      <!-- Rating -->
      <text x="10" y="62" font-family="Arial, sans-serif" font-size="9" fill="#6B7280">Quality Score:</text>
      <text x="75" y="62" font-family="Arial, sans-serif" font-size="16" fill="#F59E0B">★★★★</text>
      <text x="135" y="62" font-family="Arial, sans-serif" font-size="16" fill="#E5E7EB">★</text>
    </g>
    
    <!-- Action Buttons -->
    <g transform="translate(295, 545)">
      <rect x="0" y="0" width="65" height="28" rx="4" fill="#10B981"/>
      <text x="32.5" y="18" font-family="Arial, sans-serif" font-size="11" fill="white" text-anchor="middle" font-weight="bold">Approve</text>
      
      <rect x="75" y="0" width="65" height="28" rx="4" fill="#F59E0B"/>
      <text x="107.5" y="18" font-family="Arial, sans-serif" font-size="11" fill="white" text-anchor="middle" font-weight="bold">Revise</text>
      
      <rect x="150" y="0" width="65" height="28" rx="4" fill="#EF4444"/>
      <text x="182.5" y="18" font-family="Arial, sans-serif" font-size="11" fill="white" text-anchor="middle" font-weight="bold">Reject</text>
    </g>
  </g>
  
  <!-- Bottom Right - Admin Controls -->
  <g filter="url(#shadow)">
    <rect x="540" y="330" width="245" height="255" rx="8" fill="white" stroke="#E5E7EB" stroke-width="1"/>
    <rect x="540" y="365" width="245" height="220" rx="8" fill="url(#adminBg)"/>
    <rect x="540" y="330" width="245" height="35" rx="8" fill="url(#blueGrad)"/>
    <text x="555" y="352" font-family="Arial, sans-serif" font-size="14" font-weight="bold" fill="white">Administrative Controls</text>
    
    <!-- Control Sections -->
    <g transform="translate(555, 380)">
      <!-- Section 1 -->
      <text x="0" y="0" font-family="Arial, sans-serif" font-size="11" fill="#374151" font-weight="bold">User Management</text>
      <rect x="0" y="8" width="215" height="28" rx="4" fill="#F3F4F6" stroke="#3B82F6" stroke-width="1"/>
      <text x="10" y="26" font-family="Arial, sans-serif" font-size="10" fill="#374151">👥 Manage Users &amp; Permissions</text>
      
      <!-- Section 2 -->
      <text x="0" y="55" font-family="Arial, sans-serif" font-size="11" fill="#374151" font-weight="bold">Content Management</text>
      <rect x="0" y="63" width="215" height="28" rx="4" fill="#F3F4F6" stroke="#8B5CF6" stroke-width="1"/>
      <text x="10" y="81" font-family="Arial, sans-serif" font-size="10" fill="#374151">📦 Course &amp; Module Settings</text>
      
      <!-- Section 3 -->
      <text x="0" y="110" font-family="Arial, sans-serif" font-size="11" fill="#374151" font-weight="bold">System Settings</text>
      <rect x="0" y="118" width="215" height="28" rx="4" fill="#F3F4F6" stroke="#6366F1" stroke-width="1"/>
      <text x="10" y="136" font-family="Arial, sans-serif" font-size="10" fill="#374151">⚙️ Configure System Parameters</text>
      
      <!-- Section 4 -->
      <text x="0" y="165" font-family="Arial, sans-serif" font-size="11" fill="#374151" font-weight="bold">Reports &amp; Analytics</text>
      <rect x="0" y="173" width="215" height="28" rx="4" fill="#F3F4F6" stroke="#3B82F6" stroke-width="1"/>
      <text x="10" y="191" font-family="Arial, sans-serif" font-size="10" fill="#374151">📈 Generate Reports</text>
    </g>
    
    <!-- System Status -->
    <rect x="555" y="560" width="215" height="15" rx="4" fill="#ECFDF5"/>
    <circle cx="565" cy="567.5" r="3" fill="#10B981"/>
    <text x="572" y="570" font-family="Arial, sans-serif" font-size="9" fill="#065F46" font-weight="bold">System Status: All Services Operational</text>
  </g>
</svg>
