<svg xmlns="http://www.w3.org/2000/svg" width="1600" height="1000" viewBox="0 0 1600 1000">

<defs>
  <linearGradient id="gradPB" x1="0" y1="0" x2="1" y2="1">
    <stop offset="0%" stop-color="#6D28D9"/>
    <stop offset="100%" stop-color="#2563EB"/>
  </linearGradient>
  <filter id="shadowSoft" x="-20%" y="-20%" width="140%" height="140%">
    <feDropShadow dx="0" dy="2" stdDeviation="3" flood-color="#0f172a" flood-opacity="0.10"/>
  </filter>
  <marker id="arrowPB" markerWidth="10" markerHeight="10" refX="6" refY="3" orient="auto">
    <path d="M0,0 L6,3 L0,6 Z" fill="url(#gradPB)"/>
  </marker>
</defs>


    <g transform="translate(60, 80)">
      <text x="0" y="0" font-family="Inter,ui-sans-serif,system-ui" font-weight="800" font-size="34" fill="#0f172a">Educational Quality Gates</text>
      <text x="0" y="32" font-family="Inter,ui-sans-serif,system-ui" font-weight="700" font-size="22" fill="#475569">&amp; Assessment Checkpoints</text>
    </g>

<rect x="60" y="110" width="1480" height="160" rx="14" ry="14" fill="white" stroke="#94a3b8" stroke-width="1.5" filter="url(#shadowSoft)"/>
<text x="78" y="138" font-family="Inter,ui-sans-serif,system-ui" font-size="18" font-weight="700" fill="#0f172a">Build Score Thresholds</text>
<rect x="78" y="154" width="1444" height="22" rx="11" ry="11" fill="#e2e8f0" stroke="none" stroke-width="0" />
<rect x="78" y="154" width="1444" height="22" rx="11" fill="url(#gradPB)"/>
<line x1="1088.8" y1="146" x2="1088.8" y2="184" stroke="#475569" stroke-dasharray="3,3" stroke-width="1.25"/>
<rect x="1056.8" y="190" width="64" height="24" rx="6" fill="white" stroke="#94a3b8" stroke-width="1" />
<text x="1088.8" y="206" font-family="Inter,ui-sans-serif,system-ui" text-anchor="middle" font-size="12" fill="#0f172a">70 (Draft)</text>
<line x1="1305.3999999999999" y1="146" x2="1305.3999999999999" y2="184" stroke="#475569" stroke-dasharray="3,3" stroke-width="1.25"/>
<rect x="1273.3999999999999" y="190" width="64" height="24" rx="6" fill="white" stroke="#94a3b8" stroke-width="1" />
<text x="1305.3999999999999" y="206" font-family="Inter,ui-sans-serif,system-ui" text-anchor="middle" font-size="12" fill="#0f172a">85 (Review)</text>
<line x1="1449.8" y1="146" x2="1449.8" y2="184" stroke="#475569" stroke-dasharray="3,3" stroke-width="1.25"/>
<rect x="1417.8" y="190" width="64" height="24" rx="6" fill="white" stroke="#94a3b8" stroke-width="1" />
<text x="1449.8" y="206" font-family="Inter,ui-sans-serif,system-ui" text-anchor="middle" font-size="12" fill="#0f172a">95 (Final)</text>

    <g transform="translate(92.0,230)">
      <rect x="-12" y="-14" width="24" height="28" rx="4" fill="#6D28D9" opacity="0.10" stroke="#6D28D9" stroke-width="1"/>
      <line x1="-8" y1="-6" x2="8" y2="-6" stroke="#6D28D9" stroke-width="2" />
      <line x1="-8" y1="0" x2="8" y2="0" stroke="#6D28D9" stroke-width="2" />
      <line x1="-8" y1="6" x2="2" y2="6" stroke="#6D28D9" stroke-width="2" />
    </g>
    
<text x="112.0" y="225" font-family="Inter,ui-sans-serif,system-ui" font-size="13" fill="#0f172a" font-weight="600">≥70 unlocks draft handoff</text>
<text x="112.0" y="243" font-family="Inter,ui-sans-serif,system-ui" font-size="12" fill="#475569">Early content checks</text>

    <g transform="translate(573.3333333333333,230)">
      <rect x="-12" y="-14" width="24" height="28" rx="4" fill="#6D28D9" opacity="0.10" stroke="#6D28D9" stroke-width="1"/>
      <line x1="-8" y1="-6" x2="8" y2="-6" stroke="#6D28D9" stroke-width="2" />
      <line x1="-8" y1="0" x2="8" y2="0" stroke="#6D28D9" stroke-width="2" />
      <line x1="-8" y1="6" x2="2" y2="6" stroke="#6D28D9" stroke-width="2" />
    </g>
    
<text x="593.3333333333333" y="225" font-family="Inter,ui-sans-serif,system-ui" font-size="13" fill="#0f172a" font-weight="600">≥85 required for mentor review</text>
<text x="593.3333333333333" y="243" font-family="Inter,ui-sans-serif,system-ui" font-size="12" fill="#475569">Accessibility &amp; UDL pass</text>

    <g transform="translate(1054.6666666666665,230)">
      <rect x="-12" y="-14" width="24" height="28" rx="4" fill="#6D28D9" opacity="0.10" stroke="#6D28D9" stroke-width="1"/>
      <line x1="-8" y1="-6" x2="8" y2="-6" stroke="#6D28D9" stroke-width="2" />
      <line x1="-8" y1="0" x2="8" y2="0" stroke="#6D28D9" stroke-width="2" />
      <line x1="-8" y1="6" x2="2" y2="6" stroke="#6D28D9" stroke-width="2" />
    </g>
    
<text x="1074.6666666666665" y="225" font-family="Inter,ui-sans-serif,system-ui" font-size="13" fill="#0f172a" font-weight="600">≥95 for final approval</text>
<text x="1074.6666666666665" y="243" font-family="Inter,ui-sans-serif,system-ui" font-size="12" fill="#475569">Evidence-backed quality</text>

    <g transform="translate(76,296)">
      <rect x="0" y="0" width="190" height="32" rx="16" fill="url(#gradPB)" />
      <g transform="translate(10,16)">
        <path d="M3,-6 L3,6 L-3,6 L-3,-6 Z M-6,-2 L6,-2 L6,2 L-6,2 Z" fill="white" />
        
      </g>
      <text x="40" y="21" font-family="Inter,ui-sans-serif,system-ui" font-size="14" fill="white">Gate 1</text>
    </g>
    
<rect x="60" y="320" width="240" height="190" rx="20" ry="20" fill="white" stroke="#94a3b8" stroke-width="1.5" filter="url(#shadowSoft)"/>
<text x="84" y="354" font-family="Inter,ui-sans-serif,system-ui" font-size="20" font-weight="700" fill="#0f172a">Curriculum Design</text>

    <g transform="translate(90,378) scale(0.9)">
      <circle cx="0" cy="0" r="12" fill="#2563EB" opacity="0.12"/>
      <path d="M-6,0 L-1,5 L7,-6" fill="none" stroke="#2563EB" stroke-width="3" stroke-linecap="round" stroke-linejoin="round"/>
    </g>
    
<text x="110" y="383" font-family="Inter,ui-sans-serif,system-ui" font-size="14" fill="#0f172a">Academic standards</text>
<text x="110" y="401" font-family="Inter,ui-sans-serif,system-ui" font-size="14" fill="#0f172a">validation</text>

    <g transform="translate(90,414) scale(0.9)">
      <circle cx="0" cy="0" r="12" fill="#6D28D9" opacity="0.12"/>
      <path d="M-6,0 L-1,5 L7,-6" fill="none" stroke="#6D28D9" stroke-width="3" stroke-linecap="round" stroke-linejoin="round"/>
    </g>
    
<text x="110" y="419" font-family="Inter,ui-sans-serif,system-ui" font-size="14" fill="#0f172a">Learning outcomes</text>
<text x="110" y="437" font-family="Inter,ui-sans-serif,system-ui" font-size="14" fill="#0f172a">defined</text>

    <g transform="translate(90,450) scale(0.9)">
      <circle cx="0" cy="0" r="12" fill="#2563EB" opacity="0.12"/>
      <path d="M-6,0 L-1,5 L7,-6" fill="none" stroke="#2563EB" stroke-width="3" stroke-linecap="round" stroke-linejoin="round"/>
    </g>
    
<text x="110" y="455" font-family="Inter,ui-sans-serif,system-ui" font-size="14" fill="#0f172a">Bloom’s taxonomy</text>
<text x="110" y="473" font-family="Inter,ui-sans-serif,system-ui" font-size="14" fill="#0f172a">mapping</text>

    <g transform="translate(336,296)">
      <rect x="0" y="0" width="190" height="32" rx="16" fill="url(#gradPB)" />
      <g transform="translate(10,16)">
        <path d="M3,-6 L3,6 L-3,6 L-3,-6 Z M-6,-2 L6,-2 L6,2 L-6,2 Z" fill="white" />
        
      </g>
      <text x="40" y="21" font-family="Inter,ui-sans-serif,system-ui" font-size="14" fill="white">Gate 2</text>
    </g>
    
<rect x="320" y="320" width="240" height="190" rx="20" ry="20" fill="white" stroke="#94a3b8" stroke-width="1.5" filter="url(#shadowSoft)"/>
<text x="344" y="354" font-family="Inter,ui-sans-serif,system-ui" font-size="20" font-weight="700" fill="#0f172a">Content Build</text>

    <g transform="translate(350,378) scale(0.9)">
      <circle cx="0" cy="0" r="12" fill="#2563EB" opacity="0.12"/>
      <path d="M-6,0 L-1,5 L7,-6" fill="none" stroke="#2563EB" stroke-width="3" stroke-linecap="round" stroke-linejoin="round"/>
    </g>
    
<text x="370" y="383" font-family="Inter,ui-sans-serif,system-ui" font-size="14" fill="#0f172a">Build Score ≥ 70</text>
<text x="370" y="401" font-family="Inter,ui-sans-serif,system-ui" font-size="14" fill="#0f172a">(draft)</text>

    <g transform="translate(350,414) scale(0.9)">
      <circle cx="0" cy="0" r="12" fill="#6D28D9" opacity="0.12"/>
      <path d="M-6,0 L-1,5 L7,-6" fill="none" stroke="#6D28D9" stroke-width="3" stroke-linecap="round" stroke-linejoin="round"/>
    </g>
    
<text x="370" y="419" font-family="Inter,ui-sans-serif,system-ui" font-size="14" fill="#0f172a">Instructional design</text>
<text x="370" y="437" font-family="Inter,ui-sans-serif,system-ui" font-size="14" fill="#0f172a">checklist</text>

    <g transform="translate(350,450) scale(0.9)">
      <circle cx="0" cy="0" r="12" fill="#2563EB" opacity="0.12"/>
      <path d="M-6,0 L-1,5 L7,-6" fill="none" stroke="#2563EB" stroke-width="3" stroke-linecap="round" stroke-linejoin="round"/>
    </g>
    
<text x="370" y="455" font-family="Inter,ui-sans-serif,system-ui" font-size="14" fill="#0f172a">Rubrics drafted</text>

    <g transform="translate(596,296)">
      <rect x="0" y="0" width="190" height="32" rx="16" fill="url(#gradPB)" />
      <g transform="translate(10,16)">
        <path d="M3,-6 L3,6 L-3,6 L-3,-6 Z M-6,-2 L6,-2 L6,2 L-6,2 Z" fill="white" />
        
      </g>
      <text x="40" y="21" font-family="Inter,ui-sans-serif,system-ui" font-size="14" fill="white">Gate 3</text>
    </g>
    
<rect x="580" y="320" width="240" height="190" rx="20" ry="20" fill="white" stroke="#94a3b8" stroke-width="1.5" filter="url(#shadowSoft)"/>
<text x="604" y="354" font-family="Inter,ui-sans-serif,system-ui" font-size="20" font-weight="700" fill="#0f172a">Peer &amp; Mentor Review</text>

    <g transform="translate(610,378) scale(0.9)">
      <circle cx="0" cy="0" r="12" fill="#2563EB" opacity="0.12"/>
      <path d="M-6,0 L-1,5 L7,-6" fill="none" stroke="#2563EB" stroke-width="3" stroke-linecap="round" stroke-linejoin="round"/>
    </g>
    
<text x="630" y="383" font-family="Inter,ui-sans-serif,system-ui" font-size="14" fill="#0f172a">Build Score ≥ 85</text>

    <g transform="translate(610,414) scale(0.9)">
      <circle cx="0" cy="0" r="12" fill="#6D28D9" opacity="0.12"/>
      <path d="M-6,0 L-1,5 L7,-6" fill="none" stroke="#6D28D9" stroke-width="3" stroke-linecap="round" stroke-linejoin="round"/>
    </g>
    
<text x="630" y="419" font-family="Inter,ui-sans-serif,system-ui" font-size="14" fill="#0f172a">Mentor approvals</text>
<text x="630" y="437" font-family="Inter,ui-sans-serif,system-ui" font-size="14" fill="#0f172a">(content &amp;</text>
<text x="630" y="455" font-family="Inter,ui-sans-serif,system-ui" font-size="14" fill="#0f172a">assessment)</text>

    <g transform="translate(610,450) scale(0.9)">
      <circle cx="0" cy="0" r="12" fill="#2563EB" opacity="0.12"/>
      <path d="M-6,0 L-1,5 L7,-6" fill="none" stroke="#2563EB" stroke-width="3" stroke-linecap="round" stroke-linejoin="round"/>
    </g>
    
<text x="630" y="455" font-family="Inter,ui-sans-serif,system-ui" font-size="14" fill="#0f172a">Accessibility &amp; UDL</text>
<text x="630" y="473" font-family="Inter,ui-sans-serif,system-ui" font-size="14" fill="#0f172a">pass</text>

    <g transform="translate(856,296)">
      <rect x="0" y="0" width="190" height="32" rx="16" fill="url(#gradPB)" />
      <g transform="translate(10,16)">
        <path d="M3,-6 L3,6 L-3,6 L-3,-6 Z M-6,-2 L6,-2 L6,2 L-6,2 Z" fill="white" />
        
      </g>
      <text x="40" y="21" font-family="Inter,ui-sans-serif,system-ui" font-size="14" fill="white">Gate 4</text>
    </g>
    
<rect x="840" y="320" width="240" height="190" rx="20" ry="20" fill="white" stroke="#94a3b8" stroke-width="1.5" filter="url(#shadowSoft)"/>
<text x="864" y="354" font-family="Inter,ui-sans-serif,system-ui" font-size="20" font-weight="700" fill="#0f172a">Pilot &amp; QA</text>

    <g transform="translate(870,378) scale(0.9)">
      <circle cx="0" cy="0" r="12" fill="#2563EB" opacity="0.12"/>
      <path d="M-6,0 L-1,5 L7,-6" fill="none" stroke="#2563EB" stroke-width="3" stroke-linecap="round" stroke-linejoin="round"/>
    </g>
    
<text x="890" y="383" font-family="Inter,ui-sans-serif,system-ui" font-size="14" fill="#0f172a">Formative</text>
<text x="890" y="401" font-family="Inter,ui-sans-serif,system-ui" font-size="14" fill="#0f172a">checkpoints</text>
<text x="890" y="419" font-family="Inter,ui-sans-serif,system-ui" font-size="14" fill="#0f172a">calibrated</text>

    <g transform="translate(870,414) scale(0.9)">
      <circle cx="0" cy="0" r="12" fill="#6D28D9" opacity="0.12"/>
      <path d="M-6,0 L-1,5 L7,-6" fill="none" stroke="#6D28D9" stroke-width="3" stroke-linecap="round" stroke-linejoin="round"/>
    </g>
    
<text x="890" y="419" font-family="Inter,ui-sans-serif,system-ui" font-size="14" fill="#0f172a">Rubric reliability ≥</text>
<text x="890" y="437" font-family="Inter,ui-sans-serif,system-ui" font-size="14" fill="#0f172a">0.8 (κ)</text>

    <g transform="translate(870,450) scale(0.9)">
      <circle cx="0" cy="0" r="12" fill="#2563EB" opacity="0.12"/>
      <path d="M-6,0 L-1,5 L7,-6" fill="none" stroke="#2563EB" stroke-width="3" stroke-linecap="round" stroke-linejoin="round"/>
    </g>
    
<text x="890" y="455" font-family="Inter,ui-sans-serif,system-ui" font-size="14" fill="#0f172a">Quality indicators</text>
<text x="890" y="473" font-family="Inter,ui-sans-serif,system-ui" font-size="14" fill="#0f172a">tracked</text>

    <g transform="translate(1116,296)">
      <rect x="0" y="0" width="190" height="32" rx="16" fill="url(#gradPB)" />
      <g transform="translate(10,16)">
        <path d="M3,-6 L3,6 L-3,6 L-3,-6 Z M-6,-2 L6,-2 L6,2 L-6,2 Z" fill="white" />
        
      </g>
      <text x="40" y="21" font-family="Inter,ui-sans-serif,system-ui" font-size="14" fill="white">Gate 5</text>
    </g>
    
<rect x="1100" y="320" width="240" height="190" rx="20" ry="20" fill="white" stroke="#94a3b8" stroke-width="1.5" filter="url(#shadowSoft)"/>
<text x="1124" y="354" font-family="Inter,ui-sans-serif,system-ui" font-size="20" font-weight="700" fill="#0f172a">Final Approval</text>

    <g transform="translate(1130,378) scale(0.9)">
      <circle cx="0" cy="0" r="12" fill="#2563EB" opacity="0.12"/>
      <path d="M-6,0 L-1,5 L7,-6" fill="none" stroke="#2563EB" stroke-width="3" stroke-linecap="round" stroke-linejoin="round"/>
    </g>
    
<text x="1150" y="383" font-family="Inter,ui-sans-serif,system-ui" font-size="14" fill="#0f172a">Build Score ≥ 95</text>

    <g transform="translate(1130,414) scale(0.9)">
      <circle cx="0" cy="0" r="12" fill="#6D28D9" opacity="0.12"/>
      <path d="M-6,0 L-1,5 L7,-6" fill="none" stroke="#6D28D9" stroke-width="3" stroke-linecap="round" stroke-linejoin="round"/>
    </g>
    
<text x="1150" y="419" font-family="Inter,ui-sans-serif,system-ui" font-size="14" fill="#0f172a">Academic standards</text>
<text x="1150" y="437" font-family="Inter,ui-sans-serif,system-ui" font-size="14" fill="#0f172a">validation (final)</text>

    <g transform="translate(1130,450) scale(0.9)">
      <circle cx="0" cy="0" r="12" fill="#2563EB" opacity="0.12"/>
      <path d="M-6,0 L-1,5 L7,-6" fill="none" stroke="#2563EB" stroke-width="3" stroke-linecap="round" stroke-linejoin="round"/>
    </g>
    
<text x="1150" y="455" font-family="Inter,ui-sans-serif,system-ui" font-size="14" fill="#0f172a">Sign-off &amp; readiness</text>

    <g transform="translate(1376,296)">
      <rect x="0" y="0" width="190" height="32" rx="16" fill="url(#gradPB)" />
      <g transform="translate(10,16)">
        <path d="M3,-6 L3,6 L-3,6 L-3,-6 Z M-6,-2 L6,-2 L6,2 L-6,2 Z" fill="white" />
        
      </g>
      <text x="40" y="21" font-family="Inter,ui-sans-serif,system-ui" font-size="14" fill="white">Gate 6</text>
    </g>
    
<rect x="1360" y="320" width="240" height="190" rx="20" ry="20" fill="white" stroke="#94a3b8" stroke-width="1.5" filter="url(#shadowSoft)"/>
<text x="1384" y="354" font-family="Inter,ui-sans-serif,system-ui" font-size="20" font-weight="700" fill="#0f172a">Delivery &amp; Improve</text>

    <g transform="translate(1390,378) scale(0.9)">
      <circle cx="0" cy="0" r="12" fill="#2563EB" opacity="0.12"/>
      <path d="M-6,0 L-1,5 L7,-6" fill="none" stroke="#2563EB" stroke-width="3" stroke-linecap="round" stroke-linejoin="round"/>
    </g>
    
<text x="1410" y="383" font-family="Inter,ui-sans-serif,system-ui" font-size="14" fill="#0f172a">Summative results</text>
<text x="1410" y="401" font-family="Inter,ui-sans-serif,system-ui" font-size="14" fill="#0f172a">analyzed</text>

    <g transform="translate(1390,414) scale(0.9)">
      <circle cx="0" cy="0" r="12" fill="#6D28D9" opacity="0.12"/>
      <path d="M-6,0 L-1,5 L7,-6" fill="none" stroke="#6D28D9" stroke-width="3" stroke-linecap="round" stroke-linejoin="round"/>
    </g>
    
<text x="1410" y="419" font-family="Inter,ui-sans-serif,system-ui" font-size="14" fill="#0f172a">Student feedback ≥</text>
<text x="1410" y="437" font-family="Inter,ui-sans-serif,system-ui" font-size="14" fill="#0f172a">4.2/5</text>

    <g transform="translate(1390,450) scale(0.9)">
      <circle cx="0" cy="0" r="12" fill="#2563EB" opacity="0.12"/>
      <path d="M-6,0 L-1,5 L7,-6" fill="none" stroke="#2563EB" stroke-width="3" stroke-linecap="round" stroke-linejoin="round"/>
    </g>
    
<text x="1410" y="455" font-family="Inter,ui-sans-serif,system-ui" font-size="14" fill="#0f172a">Post-course review</text>
<text x="1410" y="473" font-family="Inter,ui-sans-serif,system-ui" font-size="14" fill="#0f172a">actions</text>
<line x1="306" y1="415.0" x2="314" y2="415.0" stroke="url(#gradPB)" stroke-width="3" marker-end="url(#arrowPB)"/>
<line x1="566" y1="415.0" x2="574" y2="415.0" stroke="url(#gradPB)" stroke-width="6" marker-end="url(#arrowPB)"/>
<line x1="826" y1="415.0" x2="834" y2="415.0" stroke="url(#gradPB)" stroke-width="3" marker-end="url(#arrowPB)"/>
<line x1="1086" y1="415.0" x2="1094" y2="415.0" stroke="url(#gradPB)" stroke-width="6" marker-end="url(#arrowPB)"/>
<line x1="1346" y1="415.0" x2="1354" y2="415.0" stroke="url(#gradPB)" stroke-width="3" marker-end="url(#arrowPB)"/>
<rect x="60.0" y="590" width="480.0" height="120" rx="16" ry="16" fill="white" stroke="#94a3b8" stroke-width="1.5" filter="url(#shadowSoft)"/>

    <g transform="translate(82.0,620)">
      <path d="M-14,-6 L0,-6 L10,4 L4,10 L-14,-6 Z" fill="#2563EB" opacity="0.10" stroke="#2563EB" stroke-width="1"/>
      <circle cx="-9" cy="-3" r="2" fill="#2563EB"/>
    </g>
    
<text x="110.0" y="618" font-family="Inter,ui-sans-serif,system-ui" font-size="16" font-weight="700" fill="#0f172a">Standards Alignment Matrix</text>
<text x="110.0" y="642" font-family="Inter,ui-sans-serif,system-ui" font-size="13" fill="#475569">Map each outcome to standard(s) and cognitive level; mark</text>
<text x="110.0" y="660" font-family="Inter,ui-sans-serif,system-ui" font-size="13" fill="#475569">gaps and redundancies.</text>
<rect x="560.0" y="590" width="480.0" height="120" rx="16" ry="16" fill="white" stroke="#94a3b8" stroke-width="1.5" filter="url(#shadowSoft)"/>

    <g transform="translate(582.0,620)">
      <rect x="-12" y="-14" width="24" height="28" rx="4" fill="#6D28D9" opacity="0.10" stroke="#6D28D9" stroke-width="1"/>
      <line x1="-8" y1="-6" x2="8" y2="-6" stroke="#6D28D9" stroke-width="2" />
      <line x1="-8" y1="0" x2="8" y2="0" stroke="#6D28D9" stroke-width="2" />
      <line x1="-8" y1="6" x2="2" y2="6" stroke="#6D28D9" stroke-width="2" />
    </g>
    
<text x="610.0" y="618" font-family="Inter,ui-sans-serif,system-ui" font-size="16" font-weight="700" fill="#0f172a">Assessment Rubrics</text>
<text x="610.0" y="642" font-family="Inter,ui-sans-serif,system-ui" font-size="13" fill="#475569">Define criteria, performance levels, and weightings;</text>
<text x="610.0" y="660" font-family="Inter,ui-sans-serif,system-ui" font-size="13" fill="#475569">share exemplars for calibration.</text>
<rect x="1060.0" y="590" width="480.0" height="120" rx="16" ry="16" fill="white" stroke="#94a3b8" stroke-width="1.5" filter="url(#shadowSoft)"/>
<path d="M1082.00,608.00 L1085.17,615.63 L1093.41,616.29 L1087.14,621.67 L1089.05,629.71 L1082.00,625.40 L1074.95,629.71 L1076.86,621.67 L1070.59,616.29 L1078.83,615.63 Z" fill="#6D28D9" opacity="0.18" stroke="#6D28D9" stroke-width="1.5"/>
<text x="1110.0" y="618" font-family="Inter,ui-sans-serif,system-ui" font-size="16" font-weight="700" fill="#0f172a">Quality Indicators</text>
<text x="1110.0" y="642" font-family="Inter,ui-sans-serif,system-ui" font-size="13" fill="#475569">Track item difficulty, discrimination, and completion;</text>
<text x="1110.0" y="660" font-family="Inter,ui-sans-serif,system-ui" font-size="13" fill="#475569">monitor trends per cohort.</text>
<text x="60" y="900" font-family="Inter,ui-sans-serif,system-ui" font-size="16" font-weight="700" fill="#0f172a">Quality Indicators</text>
<path d="M210.00,882.00 L212.65,888.36 L219.51,888.91 L214.28,893.39 L215.88,900.09 L210.00,896.50 L204.12,900.09 L205.72,893.39 L200.49,888.91 L207.35,888.36 Z" fill="#6D28D9" opacity="0.18" stroke="#6D28D9" stroke-width="1.5"/>
<text x="230" y="900" font-family="Inter,ui-sans-serif,system-ui" font-size="13" fill="#475569">Performance ≥ target</text>
<text x="60" y="928" font-family="Inter,ui-sans-serif,system-ui" font-size="16" font-weight="700" fill="#0f172a">Assessment Rubrics</text>

    <g transform="translate(210,922)">
      <rect x="-12" y="-14" width="24" height="28" rx="4" fill="#6D28D9" opacity="0.10" stroke="#6D28D9" stroke-width="1"/>
      <line x1="-8" y1="-6" x2="8" y2="-6" stroke="#6D28D9" stroke-width="2" />
      <line x1="-8" y1="0" x2="8" y2="0" stroke="#6D28D9" stroke-width="2" />
      <line x1="-8" y1="6" x2="2" y2="6" stroke="#6D28D9" stroke-width="2" />
    </g>
    
<text x="230" y="928" font-family="Inter,ui-sans-serif,system-ui" font-size="13" fill="#475569">Criteria, levels, weighting</text>
<text x="60" y="956" font-family="Inter,ui-sans-serif,system-ui" font-size="16" font-weight="700" fill="#0f172a">Educational Standards</text>

    <g transform="translate(210,950)">
      <path d="M-14,-6 L0,-6 L10,4 L4,10 L-14,-6 Z" fill="#2563EB" opacity="0.10" stroke="#2563EB" stroke-width="1"/>
      <circle cx="-9" cy="-3" r="2" fill="#2563EB"/>
    </g>
    
<text x="230" y="956" font-family="Inter,ui-sans-serif,system-ui" font-size="13" fill="#475569">Mapped outcomes → standards</text>
</svg>