<?xml version="1.0" encoding="UTF-8"?>
<!DOCTYPE svg PUBLIC "-//W3C//DTD SVG 1.1//EN" "http://www.w3.org/Graphics/SVG/1.1/DTD/svg11.dtd">
<!-- Creator: CorelDRAW -->
<svg xmlns="http://www.w3.org/2000/svg" xml:space="preserve" width="2899px" height="1025px" version="1.1" shape-rendering="geometricPrecision" text-rendering="geometricPrecision" image-rendering="optimizeQuality" fill-rule="evenodd" clip-rule="evenodd"
viewBox="0 0 2548.23 900.82"
 xmlns:xlink="http://www.w3.org/1999/xlink"
 xmlns:xodm="http://www.corel.com/coreldraw/odm/2003">
 <g id="Layer_x0020_1">
  <metadata id="CorelCorpID_0Corel-Layer"/>
  <path fill="#5494DA" d="M806.67 783.65c-0.01,-23.86 26.51,-39.63 39.82,-57.27l47.11 -49.02c5.5,-5.58 7.26,-10.38 22.02,-24.68 2.03,-1.96 3.75,-3.33 5.61,-5.4l62.96 -69.93c13.65,1.89 30.6,31.95 55.49,52.48 -1.54,3.16 -2.97,4.34 -6.1,7.55 -3.51,3.6 -3.52,4.5 -6.77,8.38 -4.29,5.14 -9.65,9.37 -14.38,14.45 -5.14,5.52 -7.72,10.22 -13.17,15.68 -19.46,19.51 -35.7,39.02 -55.96,59.4 -3.19,3.21 -3.96,4.1 -6.99,8.17 -5.63,7.59 -14.95,15.53 -21.33,22.53 -2.7,2.96 -3.63,4.96 -6.07,7.67 -6.76,7.56 -15.76,14.21 -21.46,22.54 -4.1,6 -7.27,7.83 -14.01,14.83 -6.06,6.31 -8.17,9.09 -17.96,11.03 -26.29,5.19 -48.8,-11.4 -48.81,-38.41zm241.3 -178.71c-12.06,-11.51 -22.87,-23.65 -35.84,-35.25 2.54,-5.77 34.13,-36.98 38.99,-39.26 6.16,12.19 27.28,22.74 34.2,36.81 -12.11,9.13 -29.93,32.3 -37.35,37.7zm192.08 -578.74c41.01,-6.54 90.32,2.85 125.06,15.96 94.99,35.83 174.91,136.97 179.45,245.74 2,47.99 -1.07,82.07 -15.86,124.97 -9.64,27.97 -31.69,70.11 -50.56,90.87 -24.19,26.6 -40.96,46.96 -75.48,66.01 -32.75,18.07 -62.89,30.14 -106.8,34.38 -65.74,6.35 -119.86,-7.92 -171.91,-40.65 -26.2,-16.47 -53.82,-43.75 -72.96,-68.52 -60.72,-78.59 -75.47,-182.57 -44.75,-277.73 11.6,-35.94 30.78,-68.38 50.05,-91.42 6.54,-7.81 27.77,-30.48 35.22,-36.13 7.04,-5.33 11.74,-10.32 19.71,-15.99 28.66,-20.41 62.35,-36.1 97.71,-43.61 11.8,-2.51 19.87,-2.09 31.12,-3.88zm-204.98 485.86c-3.66,4.89 -34.64,35.72 -39.29,38.63 -14.21,-2.71 -13.46,-1.4 -21.43,6.91 -21.31,22.2 -59.22,61.22 -76.87,82.48l-93.27 98.97c-9.46,8.4 -20.39,22.81 -20.92,41.83 -1.66,59.51 68.05,86.96 107.5,44.71 33.48,-35.86 65.22,-72.04 98.96,-106.98l38.79 -42.24c4.37,-5.22 36.73,-38.91 38.16,-43.14 2.16,-6.35 -1.17,-7.07 -2.59,-13.01 1.87,-2.53 38.06,-39.43 40.17,-40.84 58.42,42.3 145.34,60.49 232.96,41.68 196.92,-42.26 310.22,-311.14 166.83,-502.25l-16.35 -19.32c-10.8,-12.96 -23.08,-24.2 -37.21,-35.61 -6.26,-5.06 -13.44,-10.28 -20.58,-15.16 -98.97,-67.54 -238.27,-64.58 -333.82,7.12 -8.21,6.16 -12.54,10.47 -19.73,15.96 -5.88,4.49 -13.54,13.1 -18.8,18.26 -41.76,41.02 -84.51,115.17 -88.86,200.52 -3.19,62.43 6.98,124.86 37.17,178.06 4.82,8.5 18.22,30.83 24.87,38.35 2.74,3.1 2.02,1.42 4.31,5.07z"/>
  <path fill="#5494DA" d="M2367.47 25.67c0.31,26.83 -0.15,54.01 -0.17,80.89 -0.03,27.36 -0.88,50.17 14.42,67.14 15.68,17.39 33.61,17.46 63.02,17.53 15.33,0.04 69.83,-1.98 80.61,0.77 1.43,43.87 0.05,90.15 0.07,134.31l-0.01 270.56c-0.04,22.41 -0.14,44.89 0.06,67.3 0.18,20.17 -1.92,36.97 -20.16,48.21 -15.36,9.46 -40.56,6.09 -60.57,6.08l-405.16 0.04c-24.28,0.02 -42.07,1.07 -54.35,-13.68 -13,-15.6 -10.02,-33.33 -10.06,-57.13 -0.04,-22.44 -0.04,-44.87 -0.03,-67.3l-0.01 -406.53c0.03,-26 -4.1,-113 5.25,-129.28 10.84,-18.9 28.21,-19.71 48.21,-19.69l270.56 -0.02c15.41,0.02 55.83,-1.9 68.32,0.8zm140.32 142.35c-20.51,0.13 -41.15,-0.15 -61.68,-0.13 -20.47,0.02 -39.5,0.76 -48.78,-12.54 -10.4,-14.92 -6.93,-32.64 -6.9,-54.28 0.02,-19.62 -0.66,-40.32 0.05,-59.79 4.27,0.08 1.55,-0.4 4.52,2.28l10.74 12.73c5.09,5.04 9.64,8.51 14.96,15.21 15.47,19.51 15.41,15.94 29.9,31.96 3.06,3.38 4.05,6.08 7.1,9.38 7.42,8.03 14.69,13.23 22.24,23.07 10.06,13.12 18.53,15.3 27.85,32.11zm-506.31 -164.78c-58.91,13.55 -47.71,71.64 -47.6,119.8l0 499.92c-0.01,22.73 -3.04,59.71 4,78.97 18.95,51.83 79.13,39.62 127.02,39.62l333.74 0.01c50.5,-0.06 105.3,10.86 125.51,-41.17 5.95,-15.32 3.64,-60.82 3.61,-80.17l-0.09 -416.15c-0.06,-36.57 -0.24,-26.37 -26.82,-56.92l-59.66 -63.9c-4.12,-3.74 -5.95,-6.83 -9.67,-10.98l-40.42 -43.28c-3.71,-3.45 -5.9,-7.33 -9.45,-11.23 -20.07,-22.05 -22.84,-16.02 -68.16,-15.95l-249.96 -0.01c-19.47,0.01 -66.09,-2.24 -82.05,1.44z"/>
  <path fill="#5494DA" d="M262.52 641.01l65.03 0.16c1.46,13.98 -11.7,30.68 -32.19,30.92 -18.34,0.21 -34.96,-12.2 -32.84,-31.08zm-32.97 -71.46c38.79,-1.02 78.32,0.69 116.63,0.03 9.2,-0.15 14.18,-2.61 14.54,7.99 0.47,14.17 -0.6,29.76 -9.32,36.92 -10.99,9.01 -53.75,4.7 -75.35,5.27 -4.51,0.12 -18.33,3.93 -30.96,-1.48 -14.87,-6.36 -14.22,-17.91 -17.01,-29.71 -1.93,-8.16 1.06,-11.26 1.47,-19.02zm130.69 -21.52l-32.26 -0.16 -0.22 -122.74c2.1,-25.38 50.72,-69.69 32.72,-80.19 -14.44,-8.43 -22.51,13.08 -32.86,30.15 -29.43,48.57 -21.85,38.13 -21.81,107.79 0.01,21.38 0.34,42.97 0.09,64.31l-25.81 0.95c-0.11,-25.58 1.31,-109.29 -0.25,-126.99 -1.26,-14.25 -22.96,-46.13 -32.45,-61.97 -3.87,-6.44 -7.41,-15.9 -16.49,-15.89 -32.03,0 19.34,55.58 26.31,77.41 2.38,7.45 1.54,111.99 0.85,126.96 -7.27,0.9 -22.66,1.25 -29.5,-0.51 -9.66,-69.62 -17.4,-61.19 -55.45,-106.9 -23.45,-28.15 -43.14,-72.08 -41.12,-120.87 2.7,-65.42 35.31,-120.88 93.07,-149.91 105.42,-52.96 229.58,32.45 230.22,147.22 0.32,57.62 -13.84,87.52 -40.27,122.39 -28.07,37.04 -50.38,38.73 -54.77,108.95zm-88.28 -415.9c-20.06,3.71 -28.2,4.67 -46.39,11.79 -38.6,15.12 -71.35,45.84 -92.01,82.4 -38.29,67.76 -30.51,161.52 18.96,224.92 9.38,12.02 18.36,19.56 27.9,31.16 56.53,68.67 -0.8,118.37 50.81,152.49 12.67,8.37 7.07,3.98 10.58,19.68 6.32,28.22 38.68,50.69 73.64,36.59 35.12,-14.17 31.51,-46.43 35.76,-50.83 2.59,-2.69 12.92,-7.3 17.13,-11.65 37.07,-38.41 -21.6,-94.95 60.24,-170.49 13.33,-12.3 34.93,-50.18 41.52,-75.25 18.51,-70.42 1.05,-138.98 -34.77,-182.93 -18.01,-22.1 -35.37,-37.5 -64.69,-52.02 -25.25,-12.51 -66.37,-21.83 -98.68,-15.86z"/>
  <path fill="#5494DA" d="M1246.68 89.28c30.01,-4.44 71.13,3.03 97,12.71 74.92,28.01 133.3,104.92 140.61,191.55 5.94,70.42 -20.27,130.08 -52.52,169.37 -32.96,40.16 -69.91,67.87 -141.72,79.08 -27.86,4.35 -73.27,-2.85 -96.23,-12.65 -54.43,-23.24 -87.46,-55.05 -116.16,-106.37 -44.7,-79.9 -29.83,-190.26 25.71,-255.51 40.49,-47.57 78.56,-68.61 143.31,-78.18zm260.81 241.15c3.84,-50.02 -10.25,-106.61 -35.47,-148.01 -10.46,-17.17 -19.71,-29.38 -33.47,-43.39 -22.04,-22.44 -28.52,-28.19 -59.4,-46.39 -57.58,-33.94 -141.9,-35.55 -201.48,-10.2 -89.06,37.89 -142.58,120.74 -148.43,218.42 -8.36,139.43 96.3,257.51 223.74,265.24 140.89,8.54 244.46,-104.83 254.51,-235.67z"/>
  <path fill="#779FFF" d="M1352.16 842.36c97.72,9.89 162.07,-38.65 196.05,-94.12 18.72,-30.58 29.52,-71.8 34.53,-112.72 5.85,-47.68 9.48,-77.92 30.92,-115.69 43.85,-77.22 122.95,-90.9 208.92,-85.25 -2.28,4.44 -22.53,23.49 -27.77,28.78 -19.13,19.32 2.04,28.98 12.02,20.27 8.08,-7.05 53.25,-54.31 53.97,-57.5 2.08,-9.35 -17.09,-22.87 -24.48,-31.11l-26.16 -28.77c-3.04,-3.19 -14.35,-9.58 -20.26,-2.53 -10.28,12.3 26.34,36.5 31.31,48.11 -65.33,3.87 -115.71,-8.35 -178.08,41.29 -97.68,77.75 -64.35,171.72 -102.46,261.52 -25.8,60.8 -90.51,116.35 -182.69,106.58 -47.07,-4.99 -75.86,-22.25 -99.5,-46.19 -45.2,-45.79 -35.35,-72.55 -51.83,-75.79 -29.23,-5.75 5.05,52.6 8.74,58.47 28.19,44.94 78.75,78.78 136.77,84.65z"/>
  <path fill="#5494DA" d="M1792.4 864.69c-6.53,-25.05 30.3,-35.03 35.71,-10.76 5.66,25.36 -29.71,33.74 -35.71,10.76zm-143.69 -83.78c-1.59,-12.03 9.99,-25.3 21.4,-25.99 15.46,-0.93 26.5,7.67 27.12,21.89 1.5,34.28 -44.44,34.92 -48.52,4.1zm187.6 -29.68c-13.29,-0.02 -18.16,-6.3 -17.77,-19.79 0.32,-10.92 7.67,-17.31 19.16,-17.19 25.14,0.26 23.83,37.02 -1.39,36.98zm-92.44 -123.36c22.4,1.09 23.79,41.42 -2.34,41.54 -11.45,0.05 -31.26,-16.47 -15.23,-34.2 4.09,-4.52 13.2,-7.55 17.57,-7.34zm-31.64 54.49c-2.81,6.77 -10.66,17.53 -14.8,24.23 -5.45,8.83 -10.19,15.57 -14.94,24.84 -15.16,0.44 -23.7,-0.43 -35.03,7.53 -47.28,33.21 -8.7,100.57 38.98,85.74 26.64,-8.29 4.07,-17.7 55.44,10.78 9.29,5.16 18.25,10.54 27.19,15 -0.76,17.99 0.46,27.16 10.91,37.59 33.92,33.83 86.36,-5.87 67.34,-46.75 -4.74,-10.17 -14.3,-17.83 -26.56,-21.51 -6.26,-1.87 -14.18,-2.31 -21.52,-0.34 -3.15,0.85 -5.87,1.82 -8.92,3.3 -13.51,6.51 -6.52,9.9 -24.23,-0.46 -5.44,-3.19 -10.16,-5.5 -15.9,-8.83 -29.43,-17.09 -35.47,-12.93 -29.35,-32.35 0.12,-0.38 0.29,-0.78 0.41,-1.12 2.29,-6.36 32.44,-10.13 40.26,-12.07 13.65,-3.39 25.6,-7.76 39.09,-10.99 7.33,5.02 10.85,11.3 22.35,15.33 32.16,11.27 65.17,-19.85 53.57,-53.57 -12.07,-35.06 -75.54,-42.17 -81.25,16.88l-79.76 20.99c-3.06,-3.61 -2.83,-5.64 -5.48,-8.7 -3.18,-3.67 -4,-2.34 -7.15,-6.8 3.01,-9.35 25.01,-37.95 29.8,-50.13 65.62,0.66 61.58,-64.74 27.54,-81.17 -29.78,-14.37 -70.05,8.8 -62.66,47.36 2.41,12.55 8.93,18.67 14.67,25.22z"/>
  <path fill="#ACA8FF" d="M313.17 798.73c67.1,57.9 162.52,46.92 218.38,-16.41 55.81,-63.27 46.38,-132.51 60.25,-200.76 13.64,-67.14 56.08,-117.56 121.97,-139.01 25.09,-8.17 92.94,-11.03 121.35,-7.84 -6.98,15.19 -43.4,32.76 -33.71,47.49 9.82,14.94 26.3,-8.09 32.38,-14.38 9.28,-9.62 39.33,-37.16 39.43,-44.05 0.12,-7.36 -21.46,-26.11 -25.71,-30.25l-27.38 -28.93c-6.15,-5.62 -16.25,-5.11 -19.61,1.43 -6.29,12.22 28.43,36.1 32.63,46.14 -39.94,0.05 -86.36,-2.73 -122.55,8.11 -62.42,18.71 -111.73,66.41 -132.39,128.46 -12.84,38.57 -11.22,72.46 -17.85,112.71 -12.83,77.76 -47,126.6 -112.44,148.52 -36.63,12.26 -79.93,0.21 -105.87,-16.74 -12.56,-8.21 -24.56,-20.43 -32.26,-33.61 -6.2,-10.64 -6.94,-26 -21.88,-20.28 -20.33,7.77 16.05,51.45 25.26,59.4z"/>
  <path fill="#5494DA" d="M1368.37 443.05c-4.08,-22.45 24.49,-22.95 27.29,-6.73 3.38,19.55 -24.38,22.78 -27.29,6.73zm-112.3 -69.3c3.78,-9.22 5.69,-20.15 23.99,-20.58 36.09,-0.85 30.48,53.74 -1.16,50.2 -14.04,-1.57 -26.43,-16.1 -22.83,-29.62zm120.66 -112.13c17.84,-7.9 30.49,23.55 10.26,31.56 -18.64,7.37 -32.69,-21.64 -10.26,-31.56zm-14.46 50.97c11.06,1.84 15.31,6.42 29.27,2.86 9.62,-2.45 16.15,-8.05 20.5,-13.77 11.25,-14.79 9.97,-37.3 -2.21,-50.2 -14.96,-15.86 -38.4,-16.02 -50.63,-5.37 -22.11,19.24 -16.34,30.34 -11.8,48.61 -7.37,11.53 -31.56,29.8 -39.44,39.77 -8.46,-0.79 -13.43,-5.56 -23.91,-6.2 -9.21,-0.56 -17.17,1.08 -24.77,4.63 -19.17,8.97 -20.77,20.38 -27.64,32.74 -18.89,1.5 -42.09,0.32 -61.44,0.28 -26.05,-0.05 -48.15,-4.54 -47.93,12.52 0.16,12.17 9.28,11.71 20.46,11.63 17.49,-0.13 81.04,-1.28 89.83,0.25 5.44,8.88 6.94,27.77 32.68,35.94 26.63,8.46 38.01,-3.87 51.81,-12.65l28.34 17.62c1.39,12.67 -1.49,16.41 5.52,27.45 4.11,6.48 9.05,11.34 18.33,14.63 39.85,14.14 66.41,-35.92 35.15,-62.53 -5.69,-4.85 -15.36,-7.97 -25.46,-7.65 -13.3,0.43 -15.32,6.21 -23.31,8.38l-29.23 -17.65c1.12,-8.49 3.36,-13.72 1.93,-23.61 -1.22,-8.41 -5.34,-12.15 -5.94,-19.78 5.2,-2.57 16.8,-13.69 20.88,-18.67 5.97,-7.26 12.76,-11.42 19.01,-19.23z"/>
  <path fill="#5494DA" d="M1238.83 324.93c2.61,-5.49 0.83,-111.67 1.21,-124.13l22.78 -0.09c0.57,19.37 0.15,40.2 -0.04,59.67 -0.1,9.63 0,19.23 -0.04,28.85 -0.03,6.69 -1.9,19.61 4.6,23.29 22.9,3.66 18.24,-13.58 18.27,-31.54 0.02,-16.02 0.01,-32.04 0.02,-48.07 0.02,-10.24 1.55,-40.55 -1.62,-47.87 -3.16,-7.3 -7.56,-7.64 -17.64,-7.65 -47.76,-0.06 -48.73,-4.12 -48.33,25.31 0.22,16.01 0.04,32.05 0.1,48.07 0.12,30.86 1.56,66.3 -0.72,96.64l21.41 -22.48z"/>
  <path fill="#5494DA" d="M1180.75 263.41c3.73,40.19 -7.15,80.88 10.63,84.13 10.19,1.86 12.76,-6.45 12.98,-15.66 0.51,-20.88 0.03,-42.32 0.05,-63.26 0.03,-31.83 -1.84,-29.2 -32.83,-29.22 -42.72,-0.02 -36.15,-11.24 -36.19,89.68 0,10.43 1.86,20.49 14.08,18.25 9.89,-1.81 9.11,-12.31 9.07,-22.4 -0.06,-19.47 -1.13,-42.17 -0.11,-61.83l22.32 0.31z"/>
  <path fill="#6583FF" d="M2110.46 284.18l-26.85 -32.1c-4.29,-4.04 -5.41,-8.01 -9.87,-10.79 -12.12,-7.55 -22.68,5.44 -14.93,16.31l37.58 43.44c5.07,5.97 14.26,19.33 25.67,7.5 10.21,-10.58 66.56,-85.16 79.06,-100.86 13.53,-16.98 -0.22,-22.63 -6.19,-22.26 -8.94,0.56 -24.11,23.56 -29.18,30.85 -3.22,4.64 -5.99,6.96 -9.24,11.32l-26.43 34.05c-4.82,6.15 -13.72,20.15 -19.62,22.54z"/>
  <path fill="#6583FF" d="M2112.37 488.9c-2.68,-1.46 -0.94,-0.14 -3.41,-2.53 -0.96,-0.92 -1.63,-1.94 -2.51,-3.1l-32.9 -38.59c-11.34,-7.76 -23.24,3.29 -16.48,13.75l36.81 44.28c3.67,4.33 11.68,19.11 22.77,14.73 4.57,-1.8 31.17,-36.36 37.29,-43.81 6.42,-7.82 12.12,-16.01 18.18,-23.04 6.41,-7.45 34.78,-42.71 34.85,-47.37 0.08,-5.22 -5.09,-10.16 -9.76,-11.03 -6.94,-1.29 -10.07,2.75 -12.98,6.03l-53.63 68.57c-4.04,5.59 -13.87,18.25 -18.23,22.11z"/>
  <path fill="#6583FF" d="M2395.29 480.05c13.83,0.08 47.1,5.63 44.92,-11.9 -1.15,-9.3 -8.47,-10.62 -18.8,-10.55l-86.55 0.05c-19.22,0.07 -38.45,-0.05 -57.68,0 -13.44,0.03 -48.74,-5.71 -44.88,12.87 2.95,14.18 33.2,9.5 47.63,9.47l115.36 0.06z"/>
  <path fill="#4E4CC5" d="M2274.43 278.71c33.95,-0.32 142.06,1.66 155.2,-0.3 13.58,-2.02 12.82,-17.01 4.08,-20.71 -5.64,-2.38 -156.85,-0.87 -178.51,-0.94 -7.02,-0.02 -14.81,-1.09 -19.11,2.35 -4.18,3.33 -5.15,10.34 -1.63,15.13 4.93,6.7 29.19,4.57 39.97,4.47z"/>
  <path fill="#5494DA" d="M493.44 81.45c-7.18,2.32 -47.84,44.86 -54.67,53.28 -7.86,9.72 3.86,19.83 12.67,16.98 4.46,-1.45 31.33,-30.04 36.61,-35.11 4.65,-4.47 14.39,-13.43 17.55,-18.32 5.99,-9.24 -2.61,-19.89 -12.16,-16.83z"/>
  <path fill="#5494DA" d="M281.43 33.77l0.04 53.56c0.81,5.93 6.34,11.16 13.78,9.98 13.16,-2.07 8.74,-27.32 8.73,-38.82 -0.01,-9.24 2,-43.76 -2.39,-48.86 -4.57,-5.31 -13.64,-4.55 -17.57,0.46 -4.48,5.73 -2.59,16.14 -2.59,23.68z"/>
  <path fill="#5494DA" d="M86.81 81.45c-12.36,4.3 -6.42,14.49 -0.33,21.03 6.17,6.62 11.17,11.89 17.43,18.34 4.31,4.44 12.7,12.91 17.61,18.07 4.23,4.45 11.97,16.43 21.93,12.43 11.46,-4.59 6.28,-16.34 0.33,-22.31l-36.09 -35.31c-3.79,-3.96 -11.92,-15.36 -20.88,-12.25z"/>
  <path fill="#5494DA" d="M34.39 308.95l41.22 -0.21c7.27,-1.4 11.63,-10.25 6.27,-17.53 -4.46,-6.04 -15.57,-3.74 -22.77,-3.73 -9.15,0.01 -18.32,-0.05 -27.47,-0.03 -13.69,0.03 -32.26,-3.92 -31.62,11.37 0.6,14.34 20.33,10.08 34.37,10.13z"/>
  <path fill="#5494DA" d="M530.19 308.91c13.54,0.01 46.78,2.29 52.67,-2.74 3.77,-3.22 5.03,-9.58 1.55,-14.83 -3.7,-5.58 -12.82,-3.77 -22.63,-3.78 -19.05,-0.01 -53.92,-4.01 -57.25,6.42 -5.36,16.78 13.51,14.89 25.66,14.93z"/>
  <path fill="#73B9EE" stroke="#73B9EE" stroke-width="1.83" stroke-miterlimit="2.61313" d="M2397.33 155.35c9.28,13.3 28.31,12.56 48.78,12.54 20.53,-0.02 41.17,0.26 61.68,0.13 -4.65,-8.39 -111.69,-126.64 -117.31,-126.74 -0.71,19.47 -0.03,40.17 -0.05,59.79 -0.03,21.64 -3.5,39.36 6.9,54.28z"/>
  <path fill="#73B9EE" stroke="#73B9EE" stroke-width="1.83" stroke-miterlimit="2.61313" d="M846.49 726.38c-13.31,17.64 -39.83,33.41 -39.82,57.27 0.01,27.01 22.52,43.6 48.81,38.41 9.79,-1.94 11.9,-4.72 17.96,-11.03 6.74,-7 9.91,-8.83 14.01,-14.83 5.7,-8.33 14.7,-14.98 21.46,-22.54 2.44,-2.71 3.37,-4.71 6.07,-7.67 6.38,-7 15.7,-14.94 21.33,-22.53 3.03,-4.07 3.8,-4.96 6.99,-8.17 20.26,-20.38 36.5,-39.89 55.96,-59.4 5.45,-5.46 8.03,-10.16 13.17,-15.68 4.73,-5.08 10.09,-9.31 14.38,-14.45 3.25,-3.88 3.26,-4.78 6.77,-8.38 3.13,-3.21 4.56,-4.39 6.1,-7.55 -24.89,-20.53 -41.84,-50.59 -55.49,-52.48l-62.96 69.93c-1.86,2.07 -3.58,3.44 -5.61,5.4 -14.76,14.3 -16.52,19.1 -22.02,24.68l-47.11 49.02z"/>
  <path fill="#73B9EE" stroke="#73B9EE" stroke-width="7.33" stroke-miterlimit="2.61313" d="M228.08 588.57c2.79,11.8 2.14,23.35 17.01,29.71 12.63,5.41 26.45,1.6 30.96,1.48 21.6,-0.57 64.36,3.74 75.35,-5.27 8.72,-7.16 9.79,-22.75 9.32,-36.92 -0.36,-10.6 -5.34,-8.14 -14.54,-7.99 -38.31,0.66 -77.84,-1.05 -116.63,-0.03 -0.41,7.76 -3.4,10.86 -1.47,19.02z"/>
  <path fill="#73B9EE" stroke="#73B9EE" stroke-width="7.33" stroke-miterlimit="2.61313" d="M327.55 641.17l-65.03 -0.16c-2.12,18.88 14.5,31.29 32.84,31.08 20.49,-0.24 33.65,-16.94 32.19,-30.92z"/>
 </g>
</svg>
