<?xml version="1.0" encoding="UTF-8"?>
<!DOCTYPE svg PUBLIC "-//W3C//DTD SVG 1.1//EN" "http://www.w3.org/Graphics/SVG/1.1/DTD/svg11.dtd">
<!-- Creator: CorelDRAW -->
<svg xmlns="http://www.w3.org/2000/svg" xml:space="preserve" width="2757px" height="2084px" version="1.1" shape-rendering="geometricPrecision" text-rendering="geometricPrecision" image-rendering="optimizeQuality" fill-rule="evenodd" clip-rule="evenodd"
viewBox="0 0 2859.61 2161.4"
 xmlns:xlink="http://www.w3.org/1999/xlink"
 xmlns:xodm="http://www.corel.com/coreldraw/odm/2003">
 <g id="Layer_x0020_1">
  <metadata id="CorelCorpID_0Corel-Layer"/>
  <g id="_1880120054720">
   <path fill="#B8BAFF" d="M2227.8 823.76c-30.42,-4.72 -48.9,10.45 -47.55,-30.44 0.95,-28.82 2.88,-42.9 9.3,-68.43 16.31,-64.88 47.48,-105.37 88.58,-146.26 19.1,-19.01 19.68,-18.07 44.08,-34.12 22.14,-14.57 88.93,-35.59 118.45,-35.57 63.45,0.04 92.25,-2.75 157.82,29.66 17.77,8.78 29.13,15.3 43.56,25.45l19.07 16.29c38.11,29.54 77.88,99.07 89.03,150.89 13.07,60.8 7.06,136.68 -20.53,190.91 -18.4,36.14 -25.61,44.05 -47.56,73.43l-26.98 25.22c-5.45,3.63 -12.26,10.67 -18.32,15.07 -33.63,24.37 -79.81,43.17 -122.34,50.78 -5.83,1.05 -25.7,3.52 -30.92,3.52 -102.04,-0.05 -154.64,-24.36 -221.57,-76.39l-55.2 53.23c16.63,17.34 58.57,46.28 80.82,58.21 50.47,27.06 91.42,32.67 144.05,40.57 30.03,4.51 102.33,-3.34 128.02,-9.88 11.96,-3.05 20.97,-5.87 32.88,-9.7 7.86,-2.52 9.34,-3.65 15.69,-6.62 32.23,-15.01 35.4,-14.04 69.54,-36.64 25.01,-16.56 40.83,-33.97 57.93,-48.15l20.16 -22.72c15.09,-17.88 30.29,-41.83 41.54,-64.43 13.86,-27.85 37.95,-98.1 38.02,-131.52 0.15,-72.32 0.79,-111.11 -27.66,-182.69 -26.65,-67.04 -70.33,-121.66 -124.1,-160.86 -59.79,-43.6 -137.48,-70.01 -215.02,-70.2 -52.76,-0.08 -104.34,11.81 -147.97,31.16 -21.78,9.66 -39.39,20.83 -57.07,32.35 -40.88,26.66 -85.65,72.64 -108.89,114.52 -13.68,24.65 -33.45,66.73 -40.03,93.92 -2.96,12.2 -5.51,24.09 -7.97,36.9 -2.13,11.1 -4.5,28.11 -4.5,39.74 -0.02,59.5 0.01,52.58 -49.22,51.95 6.46,14.23 43.69,51.25 57.82,67.59 5.75,6.64 24.81,33.24 36.4,37.16 6.31,-10.42 30.76,-38.86 40.97,-51.75 4.28,-5.4 6.96,-7.4 11.41,-12.73l20.43 -26.21c3.64,-3.81 7.5,-6.96 7.83,-13.21z"/>
   <path fill="#D6D4FF" d="M506.81 355.66c31.47,-9.65 52.82,13.63 53.44,41 0.63,27.4 -20.16,51.46 -41.38,57.41 -13.23,3.71 -27.95,-1.04 -37.68,-8.15 -25.48,-18.59 -22.68,-75.45 25.62,-90.26zm145.05 -147.43c-67.47,20.48 -140.47,62.59 -193.39,107.22 -35.85,30.24 -61.43,54.23 -89.54,91.03 -16.8,22 -34.42,44.25 -51.26,68 -16.38,23.1 -34.99,44.68 -51.47,69.6 -32.45,49.09 -47.04,48.98 -23.59,73.39 6.73,7.01 9.8,7.43 16.38,13.38l105.85 89.65c13.9,11.27 18.08,7.81 26.69,-2.74 3.63,-4.44 3.45,-3.23 7.58,-7.26 3.23,-3.15 3.12,-4.1 6.49,-8.42l139.67 -162.03c3.82,-5.36 1.71,-3.18 6.52,-8.32 27.18,-29.01 76.52,-127.05 89.6,-165.58 2.56,-7.54 4.38,-14.17 7.63,-22.04 13.92,-33.71 26.05,-90.39 23.86,-128.3 -0.51,-8.75 1.07,-8.22 -6.51,-9 -1.18,-0.12 -14,1.27 -14.51,1.42z"/>
   <path fill="#7886FF" d="M2227.8 823.76c-0.33,6.25 -4.19,9.4 -7.83,13.21l-20.43 26.21c-4.45,5.33 -7.13,7.33 -11.41,12.73 -10.21,12.89 -34.66,41.33 -40.97,51.75 -11.59,-3.92 -30.65,-30.52 -36.4,-37.16 -14.13,-16.34 -51.36,-53.36 -57.82,-67.59 49.23,0.63 49.2,7.55 49.22,-51.95 0,-11.63 2.37,-28.64 4.5,-39.74 2.46,-12.81 5.01,-24.7 7.97,-36.9 6.58,-27.19 26.35,-69.27 40.03,-93.92 23.24,-41.88 68.01,-87.86 108.89,-114.52 17.68,-11.52 35.29,-22.69 57.07,-32.35 43.63,-19.35 95.21,-31.24 147.97,-31.16 77.54,0.19 155.23,26.6 215.02,70.2 53.77,39.2 97.45,93.82 124.1,160.86 28.45,71.58 27.81,110.37 27.66,182.69 -0.07,33.42 -24.16,103.67 -38.02,131.52 -11.25,22.6 -26.45,46.55 -41.54,64.43l-20.16 22.72c-17.1,14.18 -32.92,31.59 -57.93,48.15 -34.14,22.6 -37.31,21.63 -69.54,36.64 -6.35,2.97 -7.83,4.1 -15.69,6.62 -11.91,3.83 -20.92,6.65 -32.88,9.7 -25.69,6.54 -97.99,14.39 -128.02,9.88 -52.63,-7.9 -93.58,-13.51 -144.05,-40.57 -22.25,-11.93 -64.19,-40.87 -80.82,-58.21l55.2 -53.23c66.93,52.03 119.53,76.34 221.57,76.39 5.22,0 25.09,-2.47 30.92,-3.52 42.53,-7.61 88.71,-26.41 122.34,-50.78 6.06,-4.4 12.87,-11.44 18.32,-15.07l26.98 -25.22c21.95,-29.38 29.16,-37.29 47.56,-73.43 27.59,-54.23 33.6,-130.11 20.53,-190.91 -11.15,-51.82 -50.92,-121.35 -89.03,-150.89l-19.07 -16.29c-14.43,-10.15 -25.79,-16.67 -43.56,-25.45 -65.57,-32.41 -94.37,-29.62 -157.82,-29.66 -29.52,-0.02 -96.31,21 -118.45,35.57 -24.4,16.05 -24.98,15.11 -44.08,34.12 -41.1,40.89 -72.27,81.38 -88.58,146.26 -6.42,25.53 -8.35,39.61 -9.3,68.43 -1.35,40.89 17.13,25.72 47.55,30.44zm-25.33 -21.4c-6.81,-43.73 17.92,-106.62 34.39,-136.59 21.36,-38.88 48.11,-67.67 80.79,-90.48 71.67,-50.02 185.84,-61.61 270.71,-17.21 38.7,20.25 70.04,48.6 92.64,78.72 57.94,77.18 70.07,176.14 32.16,267.01 -15.54,37.23 -46.18,80.98 -69.76,99.63 -74.57,58.96 -166.03,83.41 -263.56,51.82 -40.63,-13.16 -65.87,-29.37 -96.75,-54.07l-11.01 -9.54c-15.86,-12.41 -34.5,15.14 -39.72,19.71 -12.32,10.76 -50.81,42.91 -50.55,55.61 0.4,19.72 78.69,69.83 93.24,78.14 33.76,19.29 85.32,35.59 129.38,41.5 105.99,14.2 204.46,-10.28 276.98,-57.57 134.7,-87.84 227.59,-267.77 149.91,-478.7 -16.19,-43.96 -38.38,-77.34 -62.26,-109.14 -11.04,-14.69 -29.84,-30.49 -42.48,-43.05 -5.76,-5.72 -16.86,-13.2 -24.17,-18.73 -78.16,-59.09 -190.06,-92.2 -302.48,-72.61 -68.64,11.96 -101.63,32.04 -151.3,62.24 -9.06,5.5 -16.01,12.16 -24.5,18.33 -20.28,14.74 -47.02,44.62 -63.15,65.36 -33.05,42.48 -55.97,91.27 -69.51,144.83 -2.81,11.1 -5.08,23.51 -6.97,35.11 -2.38,14.54 -1.96,26.25 -3.91,39.66 -4.61,31.7 3.67,30.26 -12.05,30.12 -11.16,-0.1 -33.35,-2.98 -41.25,2 -19.29,12.17 9.54,35.39 13.96,40.03 17.43,18.26 75.61,90.19 89.46,102.33 19.27,16.89 35.15,-10.73 49.01,-27.15l77.65 -93.7c16.85,-30.39 -34.02,-23.6 -54.9,-23.61z"/>
   <path fill="#7886FF" d="M873.24 1165.68c-2.88,-35.9 -0.3,-82.11 -0.39,-119.16l-0.39 -482.23c-0.2,-66.69 -13.04,-140.94 68.63,-173.91 31.9,-12.88 75.74,-8.63 112.47,-8.6 239.7,0.2 485.09,-2.02 724.27,0.16 40.52,0.37 68.83,7.27 92.94,28.01 24.2,20.81 37.44,44.78 38.29,81.67 1.82,79.24 0.23,160.75 0.18,240.24l-0.04 361.2c0.07,36.17 4.56,80.71 -7.81,112.38 -10,25.6 -35.19,49.26 -60.88,60.15 -34.78,14.76 -70.81,10.57 -111.09,10.61 -160.74,0.15 -321.48,-0.09 -482.22,0.03 -80.68,0.07 -161.38,-0.21 -242.05,-0.03 -39.31,0.08 -70.46,-9.2 -93.22,-28.52 -19.01,-16.13 -35.74,-45.25 -38.69,-82zm74.2 -805.23c-0.58,0.67 -24.87,9.82 -29.6,12.28 -26.59,13.81 -51.93,44.03 -63.83,75.8 -11.23,29.96 -6.39,138.41 -6.27,179.06 0.37,124.68 0.55,249.56 0.08,374.23 0.29,47.75 -5.52,160.36 5.31,198.53 13.68,48.21 56.2,87.13 109.41,97.36 26.16,5.03 71.68,2.65 100.33,2.68l312.8 -0.01c137.64,-0.01 277.88,2.73 415.2,0 64.88,-1.29 108.58,-33.74 129.93,-77.36 14.65,-29.93 13.79,-54.96 13.4,-90.86 -2.24,-205.6 -0.19,-415.77 -0.05,-621.87 0.03,-35.07 -2.1,-59.61 -18.13,-86.06 -26.25,-43.3 -69.57,-68.53 -140.05,-68.76l-621.87 0c-68.37,-0.08 -139.91,-3.54 -206.66,4.98z"/>
   <path fill="#7886FF" d="M421.49 719.19c0.72,-10.37 31.39,-38.02 38.58,-46.49l50.03 -57.98c3.7,-3.94 5.38,-7.48 9.1,-10.84l0.66 5.77c-0.01,0.09 -1.02,4.5 -1.19,5.61 -0.81,5.3 -0.58,10.63 -0.51,16.04 0.19,14.4 -2.59,19.25 -2.65,31.59 -0.05,11.12 0.44,22.6 0.15,33.66 -0.3,11.25 -2.89,16.61 -2.72,29.78 0.59,43.79 -24.05,44.95 -44.49,72.07l-5.92 7.56c-0.15,-0.31 -0.67,0.68 -1.05,0.96l-39.99 -87.73zm-296.47 -186.55c4.23,-6.87 11.84,-12.31 17.67,-19.04 17.72,-20.46 11.07,-16.52 38.15,-36.35 8.51,-6.23 13.63,-7.52 24.36,-11.05l116.38 -30.6c-5.56,10.34 -68.99,91.17 -82.92,110.69 -4.84,6.77 -6.83,8.71 -11.78,14.48 -13.01,-2.09 -94.35,-22.84 -101.86,-28.13zm526.84 -324.41c0.51,-0.15 13.33,-1.54 14.51,-1.42 7.58,0.78 6,0.25 6.51,9 2.19,37.91 -9.94,94.59 -23.86,128.3 -3.25,7.87 -5.07,14.5 -7.63,22.04 -13.08,38.53 -62.42,136.57 -89.6,165.58 -4.81,5.14 -2.7,2.96 -6.52,8.32l-139.67 162.03c-3.37,4.32 -3.26,5.27 -6.49,8.42 -4.13,4.03 -3.95,2.82 -7.58,7.26 -8.61,10.55 -12.79,14.01 -26.69,2.74l-105.85 -89.65c-6.58,-5.95 -9.65,-6.37 -16.38,-13.38 -23.45,-24.41 -8.86,-24.3 23.59,-73.39 16.48,-24.92 35.09,-46.5 51.47,-69.6 16.84,-23.75 34.46,-46 51.26,-68 28.11,-36.8 53.69,-60.79 89.54,-91.03 52.92,-44.63 125.92,-86.74 193.39,-107.22zm-437.35 370.72c-1.31,9.91 -4.63,6.81 -5.49,17.24 -2,24.43 30.14,45.87 54.07,65.94 24.17,20.27 54.13,44.23 77.17,66.17 31.55,30.04 42.06,24.15 63.5,10.32 13.4,14.54 30.59,77.28 43.84,90.95 17.27,17.81 35.13,-12.75 53.92,-33.53 24.52,-27.1 32.06,-25.73 32.16,-67.91l3.25 -63.97c2.1,-20.57 2.81,-41.94 3.89,-62.76 0.74,-14.12 -1.26,-18.39 5.92,-28.13 51.9,-70.41 72.11,-94.38 111.43,-190.3 13.42,-32.74 23.51,-66.55 30.95,-102.96 6.28,-30.71 21.74,-99.11 -26.2,-95.15 -50.69,4.19 -152.39,62.14 -182.66,85.43 -27.86,21.42 -50.56,38.44 -73.23,60.8l-48.26 52.28c-17.16,20.97 -15.9,26.91 -36.15,30.61l-81.12 19.79c-67.9,20.33 -63.76,13.41 -108.4,59.09 -12.71,13.01 -50.22,42.97 -25.66,56.87 19.24,10.89 82.28,23.89 107.07,29.22z"/>
   <path fill="#7886FF" d="M1933.27 1900.46c-29.79,89.23 -95.02,157.23 -168.23,194.61 -98.35,50.22 -204.73,41.75 -324.21,41.54 -60.2,-0.11 -120.4,-0.11 -180.6,-0.14 -61.56,-0.02 -113.63,1.05 -171.7,-11.52 -49.17,-10.64 -91.34,-32.87 -125.25,-57.18 -9.28,-6.65 -15.68,-12.78 -24.66,-20.03 -11.11,-8.97 -13.57,-13.74 -22.76,-23.82 -6.29,-6.89 -13.68,-16.65 -19.75,-24.9 -6.49,-8.82 -12.89,-16.75 -17.25,-28.92 13.03,8.14 50.69,36.78 70.28,38.48 25.43,-21.8 -21.09,-20.54 -79.32,-78.25 -19.72,-19.55 -18.17,-28.39 -31.93,-22.97 -6.18,8.24 -6.16,12.13 -7.7,25.59l-11.79 83.05c-1.19,10.49 0.13,19.4 10.22,20.04 17.32,1.11 18.19,-53.49 19.99,-73.82 8.07,9.71 15.82,37.64 50.28,78.6 11.22,13.33 23.2,26.08 37.22,37.35 99.08,79.67 194.83,82.99 318.53,82.86 67.03,-0.07 134.06,-0.02 201.09,-0.02 64.28,0 133.93,2.59 197.13,-5.58 128.96,-16.68 236.69,-96.39 289.73,-212.48 7.7,-16.85 24.14,-59 21.3,-79.22 -21.82,-18.45 -25.02,17.25 -30.62,36.73z"/>
   <path fill="#7886FF" d="M1257.96 236.2l257.84 0.41c-1.6,-7.23 -54.76,-102.25 -63.5,-119.47l-47.63 -88.26c-2.85,-5.39 -4.83,-9.37 -7.49,-14.86 -4.46,-9.21 -4.68,-10.92 -10.34,-14.02 -6.63,6.6 -128.43,232.4 -128.88,236.2z"/>
   <path fill="#7886FF" d="M1724.54 540.96c-4.22,10.44 -34.08,35.3 -42.12,43.35 -14.74,14.73 -28.09,28.09 -42.83,42.81l-170.39 170.34c-11.08,11.11 -28.93,38.29 -54.05,19.68 -13.31,-9.86 -30.82,-30.58 -43.21,-42.43 -14.72,-14.09 -27.43,-26.14 -43.05,-40.72 -11.91,-11.12 -27.47,-31.36 -50.32,-35.25 -31.21,-5.32 -44.16,8.63 -60.18,24.77l-170.12 170.61c-6.72,6.96 -14.24,13.97 -22.02,20.76 -28.75,25.12 -2.96,39.92 17.74,19.67l149.46 -150.29c14.14,-14.62 26.98,-28.07 41.3,-42.51 24.29,-24.51 40.27,-25.87 67.53,0.23l32.78 32.34c7.72,7.74 13.61,13.86 21.65,21.2 7.92,7.23 15.16,12.99 21.84,20.97 9.98,11.94 28.74,30.38 52.95,30.95 26.47,0.63 42.01,-20.4 54.04,-31.81l170.61 -170.07c13.67,-13.07 77.17,-79.8 86.87,-84.61l-4.71 80.45c7.14,5.58 22.4,20.12 25.2,-11.92l5.86 -101.8c-2.77,-19.19 -22.77,-12.87 -39.91,-11.39 -15.52,1.34 -36.38,1.79 -52.17,2.08 -14.1,0.26 -41.92,-3.09 -46.19,9.38 -7.72,22.52 26.19,16.17 38.74,15.83 19.09,-0.53 35.62,-0.37 54.7,-2.62z"/>
   <path fill="#7886FF" d="M0 1150.77c4.73,108.55 46.38,226.99 120.84,303.36 9.82,10.07 13.98,17.3 25.43,26.74 18.48,15.23 34.45,32.41 60.07,47.92 52.55,31.82 89.41,49.2 152.48,61.93 91.71,18.52 228.46,8.96 324.22,8.64 13.04,-0.04 36.17,3.51 36.09,-10.97 -0.08,-15.13 -20.58,-11.82 -34.22,-11.81 -61.44,0.05 -122.9,-0.28 -184.33,-0.06 -117.93,0.42 -196.21,-9.92 -291.72,-76.26 -102.79,-71.39 -171.72,-195.86 -186.68,-321.96 -5.83,-49.12 -21.18,-83.21 -21.84,-46.23l-0.34 18.7z"/>
   <path fill="#B8BAFF" d="M68.46 940.91c26.87,-8.06 89.95,-52.88 116.2,-70.72 30.1,-20.45 123.13,-94.47 73.55,-143.61 -23.29,-23.08 -53.27,-13.83 -76.41,3.05 -11.69,8.52 -19.22,20.15 -26.08,27.92 -20.65,23.39 -80.42,155.82 -87.26,183.36z"/>
   <path fill="#7886FF" d="M68.46 940.91c6.84,-27.54 66.61,-159.97 87.26,-183.36 6.86,-7.77 14.39,-19.4 26.08,-27.92 23.14,-16.88 53.12,-26.13 76.41,-3.05 49.58,49.14 -43.45,123.16 -73.55,143.61 -26.25,17.84 -89.33,62.66 -116.2,70.72zm140.17 -246.79c-61.2,12.46 -96.49,94.91 -121.47,145.61 -5.78,11.72 -48.01,106.47 -47.99,119.41 0.03,32 54.28,-5.66 63.28,-10.98 61.36,-36.24 213.77,-122.48 189.24,-206.68 -9.27,-31.81 -41.3,-55.86 -83.06,-47.36z"/>
   <path fill="#7886FF" d="M2186.76 1569c-40.89,7.99 -73.63,7.55 -114.83,7.24 -15.55,-0.11 -21.29,5.56 -18.75,19.97 28.95,14.12 137.22,-3.01 170.28,-10.84 46.19,-10.93 96.95,-38.98 125.3,-62.85 72.2,-60.78 123.75,-146.38 131.77,-245.62 -6.04,-3.87 -10.2,-10.52 -18.09,-3.95 -5.09,4.24 -12.22,46.59 -17.59,64.51 -19.74,65.95 -58.94,120.45 -108.62,163.19 -44.41,38.2 -91.44,57.03 -149.47,68.35z"/>
   <path fill="#B8BAFF" d="M125.02 532.64c7.51,5.29 88.85,26.04 101.86,28.13 4.95,-5.77 6.94,-7.71 11.78,-14.48 13.93,-19.52 77.36,-100.35 82.92,-110.69l-116.38 30.6c-10.73,3.53 -15.85,4.82 -24.36,11.05 -27.08,19.83 -20.43,15.89 -38.15,36.35 -5.83,6.73 -13.44,12.17 -17.67,19.04z"/>
   <path fill="#B8BAFF" d="M461.48 806.92c0.38,-0.28 0.9,-1.27 1.05,-0.96l5.92 -7.56c20.44,-27.12 45.08,-28.28 44.49,-72.07 -0.17,-13.17 2.42,-18.53 2.72,-29.78 0.29,-11.06 -0.2,-22.54 -0.15,-33.66 0.06,-12.34 2.84,-17.19 2.65,-31.59 -0.07,-5.41 -0.3,-10.74 0.51,-16.04 0.17,-1.11 1.18,-5.52 1.19,-5.61l-0.66 -5.77c-3.72,3.36 -5.4,6.9 -9.1,10.84l-50.03 57.98c-7.19,8.47 -37.86,36.12 -38.58,46.49l39.99 87.73z"/>
   <path fill="#7886FF" d="M706.02 810.61c-28.21,-0.24 -131.55,-4.65 -148.19,4.24 -4.6,27.84 21.96,21.17 63.77,20.87 28.2,-0.2 57.68,-1.23 85.37,-1.04 -5.93,11.84 -57.56,56.54 -60.23,65.84 -3.49,12.11 10.33,19.36 20.49,11.06l63.5 -63.13c25.95,-26.15 28.21,-23.7 -18.91,-69.01 -14.33,-13.78 -27.87,-30.49 -42.61,-43.05 -7.58,-6.46 -21.21,-9.31 -22.61,5.13 -0.9,9.22 12.46,19.37 17.23,24.48l31.07 32.24c2.55,2.69 3.59,3.27 5.75,5.3 5.4,5.08 2.33,-0.09 5.37,7.07z"/>
   <path fill="#7886FF" d="M819.5 1552.71c41.61,-13.37 64.25,56.96 17.16,70.07 -41.14,11.46 -71.99,-52.45 -17.16,-70.07zm-45.1 53.74c1.78,8.11 7.06,15.45 14.04,21.72 43.28,38.94 111.08,-3.52 90.05,-60.24 -6.13,-16.55 -20.74,-33.01 -41.63,-34.89 -47.65,-4.28 -72.92,25.85 -62.46,73.41z"/>
   <path fill="#7886FF" d="M1073.22 1584.6c0.03,-7.15 -0.72,-10.65 2.93,-16.59 14.27,-23.15 48.34,-20.08 59.13,-5.53 40.25,54.26 -62.38,95.77 -62.06,22.12zm88.87 18.61c5.26,-24.14 -1.34,-41.17 -14.61,-54.8 -10.42,-10.72 -27.98,-19.7 -48.8,-15.47 -23.31,4.74 -33.18,13.79 -41.37,33.11 -9.45,22.31 -3.01,45.23 9.8,58.97 12.14,13.04 32.08,22.14 56.97,15.24 22.95,-6.37 33.46,-16.19 38.01,-37.05z"/>
   <path fill="#7886FF" d="M1633.16 1588.32c0.07,-6.87 6.43,-21.35 9.71,-25.11 21.16,-24.27 62.69,-9.87 64.13,23.41 0.79,18.39 -16.55,37.72 -35.28,37.88 -22.99,0.21 -38.72,-21.42 -38.56,-36.18zm26.49 -54.07c-18.22,4.79 -25.02,9.45 -33.52,21.59 -8.36,11.93 -13.98,26.08 -9.27,44.52 6.82,26.7 32.25,48.72 66.97,40.94 71.03,-15.92 41.71,-124.38 -24.18,-107.05z"/>
   <path fill="#7886FF" d="M1423.12 1597.63c-14.05,47.42 -82.2,27.79 -69.02,-21.66 6.86,-25.77 47.02,-37.34 64.55,-8.28 4.5,7.46 7.88,18.45 4.47,29.94zm-86.12 8.9c13.02,36.98 55.77,46.45 85.74,25.13 39.11,-27.81 21.89,-98.11 -34.66,-98.97 -38.55,0.04 -63.39,38.89 -51.08,73.84z"/>
   <path fill="#7886FF" d="M1916.72 1595.77c-4.68,-23.82 8.6,-38.82 25.93,-43.66 23.92,-6.69 40.19,9.44 43.82,27.11 10.67,51.94 -61.09,60.72 -69.75,16.55zm22.84 -62.24c-67.79,16.79 -47.85,126.71 26.76,107.26 26.19,-6.83 46.52,-31.71 38.86,-65.56 -5.6,-24.74 -33.65,-49.61 -65.62,-41.7z"/>
   <path fill="#7886FF" d="M539.58 406.03c-5.66,14.16 -8.02,27.28 -29.7,27.23 -18.75,-0.04 -27.68,-13.05 -22.67,-34.53 2.92,-12.5 16.24,-26.71 31.82,-25.85 14.59,0.8 26.21,19.01 20.55,33.15zm-32.77 -50.37c-48.3,14.81 -51.1,71.67 -25.62,90.26 9.73,7.11 24.45,11.86 37.68,8.15 21.22,-5.95 42.01,-30.01 41.38,-57.41 -0.62,-27.37 -21.97,-50.65 -53.44,-41z"/>
   <path fill="#7886FF" d="M1837.96 1582.41l-71.3 0.06c-22.12,0.02 -19.77,13.97 -5.72,15.57l79.55 -0.06c-3.54,6.42 -18.12,13.19 -10.11,21.37 0.1,0.1 1.51,7.39 11.25,-0.53 1.31,-1.07 25.3,-25.28 24.99,-30.5 -0.09,-1.5 -25.39,-34.66 -34.65,-33.53 -16.13,1.96 4.57,23.86 5.99,27.62z"/>
   <path fill="#7886FF" d="M1195.99 1583.04c-19.07,10.15 12.82,15.03 28.86,15.03 17.57,0.01 35.16,-0.37 52.68,-0.39 -4.9,9.65 -13.5,10.16 -11.65,22.36 9.68,6.37 13.98,-1.11 21.32,-8.46 21.77,-21.81 22.47,-22.18 6.72,-38.38 -4.74,-4.88 -18.93,-20.89 -24.18,-18.79 -15.25,6.09 4.8,23.71 6.82,28.02 -26.86,0.21 -56.86,-12 -80.57,0.61z"/>
   <path fill="#7886FF" d="M1557.62 1582.25c-14.36,0.21 -78.06,-5.37 -82.75,2.89 -8.84,15.54 12.58,13.04 40.44,12.92l43.34 -0.14c-2.52,11.61 -16.44,11.8 -9.69,21.69 1.3,1.17 -0.24,0.74 0.48,1.05 0.43,0.19 1.58,1.31 5.11,1.35 3.06,0.03 2.91,-0.62 3.16,-0.76 0.34,-0.19 0.6,-0.09 3.1,-2.16 6.28,-5.21 24.27,-22.23 23.37,-30.41 -0.68,-6.25 -28.2,-34.17 -34.48,-34.78 -13.19,13.64 4.93,18.37 7.92,28.35z"/>
   <path fill="#7886FF" d="M991.5 1582.33c-40.08,2.43 -87.38,-7.14 -79.75,12.19 5.01,12.71 61.92,3.5 80.83,3.2 -3.81,7.33 -15.79,13.42 -9.31,21.5 2.63,2.54 -4.17,2.01 5.21,2.38 6.52,0.25 32.33,-27.96 31.65,-33.28 -3.6,-7.57 -27.41,-32.34 -33.55,-34.75 -15.62,13.4 0.51,17.92 4.92,28.76z"/>
   <path fill="#B8BAFF" d="M539.58 406.03c5.66,-14.14 -5.96,-32.35 -20.55,-33.15 -15.58,-0.86 -28.9,13.35 -31.82,25.85 -5.01,21.48 3.92,34.49 22.67,34.53 21.68,0.05 24.04,-13.07 29.7,-27.23z"/>
   <path fill="#B8BAFF" stroke="#B8BAFF" stroke-width="2.16" stroke-miterlimit="2.61313" d="M836.66 1622.78c47.09,-13.11 24.45,-83.44 -17.16,-70.07 -54.83,17.62 -23.98,81.53 17.16,70.07z"/>
   <path fill="#B8BAFF" stroke="#B8BAFF" stroke-width="2.16" stroke-miterlimit="2.61313" d="M1135.28 1562.48c-10.79,-14.55 -44.86,-17.62 -59.13,5.53 -3.65,5.94 -2.9,9.44 -2.93,16.59 -0.32,73.65 102.31,32.14 62.06,-22.12z"/>
   <path fill="#B8BAFF" stroke="#B8BAFF" stroke-width="2.16" stroke-miterlimit="2.61313" d="M1354.1 1575.97c-13.18,49.45 54.97,69.08 69.02,21.66 3.41,-11.49 0.03,-22.48 -4.47,-29.94 -17.53,-29.06 -57.69,-17.49 -64.55,8.28z"/>
   <path fill="#B8BAFF" stroke="#B8BAFF" stroke-width="2.16" stroke-miterlimit="2.61313" d="M1633.16 1588.32c-0.16,14.76 15.57,36.39 38.56,36.18 18.73,-0.16 36.07,-19.49 35.28,-37.88 -1.44,-33.28 -42.97,-47.68 -64.13,-23.41 -3.28,3.76 -9.64,18.24 -9.71,25.11z"/>
   <path fill="#B8BAFF" stroke="#B8BAFF" stroke-width="2.16" stroke-miterlimit="2.61313" d="M1916.72 1595.77c8.66,44.17 80.42,35.39 69.75,-16.55 -3.63,-17.67 -19.9,-33.8 -43.82,-27.11 -17.33,4.84 -30.61,19.84 -25.93,43.66z"/>
   <path fill="#7886FF" fill-rule="nonzero" d="M745.98 1760.97l9.73 2.99c-1.49,5.47 -3.98,9.54 -7.46,12.21 -3.47,2.65 -7.88,3.98 -13.22,3.98 -6.61,0 -12.05,-2.26 -16.31,-6.78 -4.25,-4.51 -6.39,-10.69 -6.39,-18.53 0,-8.29 2.15,-14.73 6.42,-19.32 4.28,-4.59 9.91,-6.88 16.88,-6.88 6.1,0 11.05,1.81 14.85,5.41 2.27,2.13 3.96,5.19 5.09,9.19l-9.94 2.36c-0.59,-2.57 -1.82,-4.61 -3.68,-6.1 -1.88,-1.5 -4.15,-2.24 -6.81,-2.24 -3.7,0 -6.7,1.32 -8.99,3.97 -2.31,2.65 -3.46,6.93 -3.46,12.86 0,6.28 1.14,10.77 3.4,13.43 2.27,2.68 5.21,4.01 8.84,4.01 2.67,0 4.98,-0.84 6.9,-2.55 1.93,-1.7 3.32,-4.36 4.15,-8.01z"/>
   <path id="_1" fill="#7886FF" fill-rule="nonzero" d="M762.05 1760.84c0,-3.18 0.78,-6.25 2.34,-9.21 1.57,-2.98 3.78,-5.24 6.64,-6.8 2.86,-1.57 6.05,-2.36 9.58,-2.36 5.46,0 9.92,1.78 13.41,5.32 3.49,3.56 5.22,8.03 5.22,13.45 0,5.47 -1.76,10 -5.27,13.59 -3.52,3.6 -7.95,5.39 -13.29,5.39 -3.3,0 -6.45,-0.75 -9.45,-2.25 -2.99,-1.49 -5.27,-3.68 -6.84,-6.58 -1.56,-2.88 -2.34,-6.4 -2.34,-10.55zm9.8 0.51c0,3.58 0.85,6.32 2.54,8.22 1.7,1.92 3.79,2.87 6.28,2.87 2.48,0 4.57,-0.95 6.25,-2.87 1.68,-1.9 2.52,-4.67 2.52,-8.29 0,-3.54 -0.84,-6.26 -2.52,-8.16 -1.68,-1.91 -3.77,-2.86 -6.25,-2.86 -2.49,0 -4.58,0.95 -6.28,2.86 -1.69,1.9 -2.54,4.65 -2.54,8.23z"/>
   <path id="_2" fill="#7886FF" fill-rule="nonzero" d="M806.05 1743.24l8.76 0 0 4.92c3.14,-3.79 6.88,-5.69 11.22,-5.69 2.31,0 4.31,0.48 6,1.43 1.71,0.95 3.1,2.39 4.18,4.31 1.58,-1.92 3.3,-3.36 5.13,-4.31 1.83,-0.95 3.79,-1.43 5.87,-1.43 2.64,0 4.88,0.54 6.72,1.61 1.83,1.08 3.2,2.66 4.1,4.74 0.67,1.53 0.99,4.02 0.99,7.46l0 23.04 -9.52 0 0 -20.59c0,-3.58 -0.33,-5.89 -0.99,-6.92 -0.88,-1.35 -2.25,-2.04 -4.08,-2.04 -1.33,0 -2.59,0.41 -3.78,1.22 -1.17,0.82 -2.02,2.02 -2.54,3.58 -0.53,1.58 -0.78,4.06 -0.78,7.45l0 17.3 -9.53 0 0 -19.74c0,-3.5 -0.17,-5.78 -0.5,-6.78 -0.34,-1.02 -0.86,-1.79 -1.58,-2.29 -0.71,-0.49 -1.68,-0.74 -2.9,-0.74 -1.47,0 -2.79,0.4 -3.96,1.19 -1.18,0.79 -2.02,1.93 -2.53,3.42 -0.5,1.5 -0.76,3.98 -0.76,7.43l0 17.51 -9.52 0 0 -36.08z"/>
   <path id="_3" fill="#7886FF" fill-rule="nonzero" d="M867.86 1743.24l8.76 0 0 4.92c3.14,-3.79 6.88,-5.69 11.22,-5.69 2.31,0 4.32,0.48 6.01,1.43 1.7,0.95 3.09,2.39 4.17,4.31 1.59,-1.92 3.3,-3.36 5.13,-4.31 1.83,-0.95 3.79,-1.43 5.88,-1.43 2.64,0 4.87,0.54 6.72,1.61 1.83,1.08 3.19,2.66 4.1,4.74 0.66,1.53 0.98,4.02 0.98,7.46l0 23.04 -9.52 0 0 -20.59c0,-3.58 -0.33,-5.89 -0.99,-6.92 -0.88,-1.35 -2.24,-2.04 -4.08,-2.04 -1.33,0 -2.59,0.41 -3.77,1.22 -1.17,0.82 -2.03,2.02 -2.55,3.58 -0.52,1.58 -0.78,4.06 -0.78,7.45l0 17.3 -9.52 0 0 -19.74c0,-3.5 -0.18,-5.78 -0.51,-6.78 -0.34,-1.02 -0.86,-1.79 -1.58,-2.29 -0.7,-0.49 -1.68,-0.74 -2.89,-0.74 -1.48,0 -2.8,0.4 -3.97,1.19 -1.18,0.79 -2.01,1.93 -2.52,3.42 -0.51,1.5 -0.77,3.98 -0.77,7.43l0 17.51 -9.52 0 0 -36.08z"/>
   <path id="_4" fill="#7886FF" fill-rule="nonzero" d="M930.37 1738.37l0 -8.83 9.52 0 0 8.83 -9.52 0zm0 40.95l0 -36.08 9.52 0 0 36.08 -9.52 0z"/>
   <path id="_5" fill="#7886FF" fill-rule="nonzero" d="M966.16 1743.24l0 7.58 -6.54 0 0 14.61c0,2.96 0.06,4.69 0.19,5.18 0.12,0.48 0.4,0.89 0.85,1.21 0.44,0.31 0.98,0.48 1.62,0.48 0.89,0 2.16,-0.3 3.84,-0.92l0.8 7.42c-2.21,0.95 -4.71,1.42 -7.52,1.42 -1.71,0 -3.25,-0.29 -4.63,-0.87 -1.38,-0.58 -2.39,-1.33 -3.03,-2.24 -0.65,-0.93 -1.09,-2.17 -1.34,-3.75 -0.2,-1.11 -0.3,-3.36 -0.3,-6.75l0 -15.79 -4.38 0 0 -7.58 4.38 0 0 -7.16 9.52 -5.63 0 12.79 6.54 0z"/>
   <path fill="#7886FF" fill-rule="nonzero" d="M1041.28 1729.54l19.9 0c3.96,0 6.89,0.17 8.82,0.49 1.95,0.34 3.67,1.02 5.2,2.05 1.53,1.04 2.81,2.42 3.83,4.15 1.02,1.72 1.53,3.67 1.53,5.82 0,2.31 -0.63,4.46 -1.88,6.39 -1.25,1.95 -2.96,3.4 -5.1,4.37 3.03,0.89 5.34,2.4 6.98,4.53 1.62,2.13 2.43,4.63 2.43,7.52 0,2.27 -0.52,4.47 -1.58,6.61 -1.05,2.15 -2.49,3.86 -4.32,5.15 -1.82,1.27 -4.06,2.06 -6.74,2.36 -1.67,0.18 -5.71,0.29 -12.12,0.34l-16.95 0 0 -49.78zm10.08 8.28l0 11.47 6.58 0c3.91,0 6.34,-0.06 7.29,-0.18 1.71,-0.19 3.07,-0.79 4.05,-1.77 0.99,-0.98 1.48,-2.27 1.48,-3.87 0,-1.54 -0.43,-2.78 -1.28,-3.74 -0.85,-0.96 -2.11,-1.54 -3.78,-1.74 -0.99,-0.12 -3.85,-0.17 -8.57,-0.17l-5.77 0zm0 19.74l0 13.35 9.31 0c3.62,0 5.92,-0.11 6.9,-0.3 1.49,-0.28 2.71,-0.94 3.65,-2 0.94,-1.06 1.41,-2.47 1.41,-4.24 0,-1.5 -0.36,-2.77 -1.09,-3.81 -0.72,-1.04 -1.77,-1.81 -3.14,-2.28 -1.36,-0.48 -4.34,-0.72 -8.92,-0.72l-8.12 0z"/>
   <path id="_1_0" fill="#7886FF" fill-rule="nonzero" d="M1115.26 1779.32l0 -5.4c-1.32,1.92 -3.05,3.45 -5.19,4.6 -2.14,1.13 -4.41,1.7 -6.78,1.7 -2.43,0 -4.61,-0.53 -6.53,-1.6 -1.94,-1.06 -3.33,-2.57 -4.19,-4.49 -0.87,-1.94 -1.3,-4.6 -1.3,-8.01l0 -22.88 9.53 0 0 16.61c0,5.09 0.17,8.19 0.53,9.34 0.35,1.15 0.99,2.06 1.93,2.72 0.92,0.68 2.1,1.01 3.54,1.01 1.63,0 3.09,-0.45 4.39,-1.34 1.3,-0.89 2.18,-2.01 2.66,-3.34 0.47,-1.33 0.71,-4.58 0.71,-9.75l0 -15.25 9.53 0 0 36.08 -8.83 0z"/>
   <path id="_2_1" fill="#7886FF" fill-rule="nonzero" d="M1133.88 1738.37l0 -8.83 9.52 0 0 8.83 -9.52 0zm0 40.95l0 -36.08 9.52 0 0 36.08 -9.52 0z"/>
   <polygon id="_3_2" fill="#7886FF" fill-rule="nonzero" points="1153.19,1779.32 1153.19,1729.54 1162.72,1729.54 1162.72,1779.32 "/>
   <path id="_4_3" fill="#7886FF" fill-rule="nonzero" d="M1205.6 1779.32l-8.83 0 0 -5.3c-1.47,2.07 -3.22,3.61 -5.23,4.65 -2,1.03 -4.03,1.55 -6.07,1.55 -4.16,0 -7.72,-1.67 -10.68,-5.02 -2.96,-3.34 -4.44,-8 -4.44,-13.99 0,-6.12 1.44,-10.78 4.32,-13.96 2.89,-3.19 6.53,-4.78 10.93,-4.78 4.03,0 7.53,1.68 10.47,5.03l0 -17.96 9.53 0 0 49.78zm-25.45 -18.74c0,3.86 0.54,6.65 1.59,8.38 1.54,2.5 3.69,3.75 6.44,3.75 2.19,0 4.06,-0.93 5.59,-2.81 1.54,-1.88 2.3,-4.67 2.3,-8.4 0,-4.16 -0.74,-7.15 -2.23,-8.98 -1.5,-1.83 -3.4,-2.75 -5.73,-2.75 -2.26,0 -4.14,0.91 -5.67,2.71 -1.52,1.81 -2.29,4.51 -2.29,8.1z"/>
   <path fill="#7886FF" fill-rule="nonzero" d="M1266.52 1779.32l0 -49.78 16.12 0c6.1,0 10.08,0.25 11.93,0.75 2.85,0.75 5.24,2.37 7.16,4.87 1.92,2.5 2.89,5.74 2.89,9.7 0,3.06 -0.56,5.62 -1.66,7.7 -1.11,2.09 -2.51,3.72 -4.22,4.92 -1.7,1.18 -3.44,1.97 -5.2,2.35 -2.4,0.47 -5.86,0.72 -10.41,0.72l-6.53 0 0 18.77 -10.08 0zm10.08 -41.37l0 14.19 5.48 0c3.95,0 6.58,-0.27 7.91,-0.79 1.34,-0.52 2.38,-1.33 3.13,-2.46 0.76,-1.11 1.14,-2.4 1.14,-3.88 0,-1.82 -0.53,-3.31 -1.59,-4.49 -1.07,-1.19 -2.4,-1.93 -4.03,-2.23 -1.19,-0.22 -3.59,-0.34 -7.21,-0.34l-4.83 0z"/>
   <path id="_1_4" fill="#7886FF" fill-rule="nonzero" d="M1321.93 1779.32l-9.53 0 0 -36.08 8.83 0 0 5.12c1.52,-2.42 2.89,-4.01 4.1,-4.76 1.22,-0.76 2.6,-1.13 4.14,-1.13 2.18,0 4.27,0.61 6.29,1.8l-2.95 8.32c-1.61,-1.04 -3.11,-1.57 -4.49,-1.57 -1.34,0 -2.48,0.37 -3.4,1.1 -0.93,0.75 -1.66,2.07 -2.19,3.99 -0.54,1.92 -0.8,5.96 -0.8,12.08l0 11.13z"/>
   <path id="_2_5" fill="#7886FF" fill-rule="nonzero" d="M1360.73 1767.92l9.52 1.6c-1.21,3.48 -3.15,6.14 -5.78,7.97 -2.64,1.82 -5.94,2.73 -9.89,2.73 -6.27,0 -10.92,-2.05 -13.92,-6.15 -2.37,-3.29 -3.57,-7.44 -3.57,-12.46 0,-5.97 1.57,-10.67 4.68,-14.05 3.12,-3.4 7.07,-5.09 11.84,-5.09 5.36,0 9.59,1.78 12.69,5.32 3.1,3.55 4.58,8.98 4.44,16.3l-23.85 0c0.07,2.83 0.84,5.03 2.31,6.61 1.46,1.57 3.29,2.36 5.47,2.36 1.49,0 2.74,-0.4 3.75,-1.21 1.02,-0.82 1.79,-2.12 2.31,-3.93zm0.55 -9.67c-0.07,-2.76 -0.77,-4.87 -2.13,-6.31 -1.35,-1.45 -3,-2.17 -4.94,-2.17 -2.08,0 -3.79,0.77 -5.15,2.29 -1.35,1.51 -2.02,3.59 -1.99,6.19l14.21 0z"/>
   <path id="_3_6" fill="#7886FF" fill-rule="nonzero" d="M1388.45 1779.32l-14.54 -36.08 10.01 0 6.79 18.41 1.97 6.15c0.53,-1.56 0.86,-2.59 0.99,-3.09 0.32,-1.02 0.66,-2.04 1.03,-3.06l6.88 -18.41 9.8 0 -14.33 36.08 -8.6 0z"/>
   <path id="_4_7" fill="#7886FF" fill-rule="nonzero" d="M1417.2 1738.37l0 -8.83 9.52 0 0 8.83 -9.52 0zm0 40.95l0 -36.08 9.52 0 0 36.08 -9.52 0z"/>
   <path id="_5_8" fill="#7886FF" fill-rule="nonzero" d="M1457.37 1767.92l9.52 1.6c-1.21,3.48 -3.15,6.14 -5.78,7.97 -2.64,1.82 -5.94,2.73 -9.89,2.73 -6.27,0 -10.92,-2.05 -13.92,-6.15 -2.37,-3.29 -3.57,-7.44 -3.57,-12.46 0,-5.97 1.57,-10.67 4.68,-14.05 3.12,-3.4 7.07,-5.09 11.85,-5.09 5.35,0 9.58,1.78 12.68,5.32 3.1,3.55 4.58,8.98 4.44,16.3l-23.85 0c0.07,2.83 0.84,5.03 2.31,6.61 1.46,1.57 3.29,2.36 5.47,2.36 1.49,0 2.75,-0.4 3.75,-1.21 1.02,-0.82 1.79,-2.12 2.31,-3.93zm0.56 -9.67c-0.07,-2.76 -0.78,-4.87 -2.14,-6.31 -1.35,-1.45 -3,-2.17 -4.94,-2.17 -2.08,0 -3.79,0.77 -5.15,2.29 -1.35,1.51 -2.01,3.59 -1.99,6.19l14.22 0z"/>
   <polygon id="_6" fill="#7886FF" fill-rule="nonzero" points="1481.85,1779.32 1470.45,1743.24 1479.72,1743.24 1486.47,1766.89 1492.7,1743.24 1501.9,1743.24 1507.89,1766.89 1514.78,1743.24 1524.19,1743.24 1512.6,1779.32 1503.45,1779.32 1497.25,1756.11 1491.13,1779.32 "/>
   <path fill="#7886FF" fill-rule="nonzero" d="M1588.29 1729.54l18.33 0c4.14,0 7.29,0.32 9.46,0.95 2.91,0.86 5.41,2.39 7.48,4.59 2.09,2.19 3.66,4.88 4.75,8.07 1.08,3.17 1.63,7.1 1.63,11.76 0,4.1 -0.51,7.62 -1.53,10.59 -1.24,3.62 -3.02,6.55 -5.32,8.79 -1.74,1.7 -4.09,3.02 -7.05,3.97 -2.21,0.71 -5.16,1.06 -8.87,1.06l-18.88 0 0 -49.78zm10.08 8.41l0 32.96 7.48 0c2.79,0 4.81,-0.17 6.05,-0.48 1.63,-0.4 2.97,-1.1 4.04,-2.07 1.08,-0.98 1.95,-2.57 2.62,-4.8 0.68,-2.22 1.02,-5.27 1.02,-9.12 0,-3.84 -0.34,-6.79 -1.02,-8.85 -0.67,-2.06 -1.62,-3.66 -2.84,-4.82 -1.22,-1.15 -2.76,-1.93 -4.64,-2.34 -1.39,-0.31 -4.13,-0.48 -8.21,-0.48l-4.5 0z"/>
   <path id="_1_9" fill="#7886FF" fill-rule="nonzero" d="M1659.28 1767.92l9.53 1.6c-1.22,3.48 -3.15,6.14 -5.78,7.97 -2.64,1.82 -5.95,2.73 -9.9,2.73 -6.27,0 -10.91,-2.05 -13.91,-6.15 -2.38,-3.29 -3.57,-7.44 -3.57,-12.46 0,-5.97 1.56,-10.67 4.68,-14.05 3.12,-3.4 7.07,-5.09 11.84,-5.09 5.35,0 9.58,1.78 12.69,5.32 3.09,3.55 4.57,8.98 4.44,16.3l-23.85 0c0.07,2.83 0.83,5.03 2.31,6.61 1.46,1.57 3.29,2.36 5.47,2.36 1.49,0 2.74,-0.4 3.75,-1.21 1.02,-0.82 1.78,-2.12 2.3,-3.93zm0.56 -9.67c-0.07,-2.76 -0.77,-4.87 -2.13,-6.31 -1.36,-1.45 -3,-2.17 -4.95,-2.17 -2.07,0 -3.79,0.77 -5.14,2.29 -1.36,1.51 -2.02,3.59 -2,6.19l14.22 0z"/>
   <path id="_2_10" fill="#7886FF" fill-rule="nonzero" d="M1676.81 1743.24l8.9 0 0 5.29c1.16,-1.8 2.71,-3.26 4.68,-4.39 1.97,-1.11 4.16,-1.67 6.56,-1.67 4.18,0 7.74,1.65 10.66,4.94 2.92,3.28 4.38,7.87 4.38,13.73 0,6.04 -1.47,10.72 -4.41,14.06 -2.95,3.35 -6.52,5.02 -10.71,5.02 -1.99,0 -3.8,-0.39 -5.42,-1.19 -1.61,-0.79 -3.33,-2.14 -5.11,-4.07l0 18.05 -9.53 0 0 -49.77zm9.39 17.48c0,4.07 0.8,7.07 2.41,9.02 1.6,1.93 3.56,2.9 5.85,2.9 2.21,0 4.06,-0.89 5.53,-2.67 1.47,-1.79 2.2,-4.71 2.2,-8.77 0,-3.8 -0.75,-6.62 -2.27,-8.46 -1.51,-1.84 -3.39,-2.76 -5.62,-2.76 -2.33,0 -4.27,0.91 -5.79,2.71 -1.55,1.81 -2.31,4.49 -2.31,8.03z"/>
   <polygon id="_3_11" fill="#7886FF" fill-rule="nonzero" points="1719.56,1779.32 1719.56,1729.54 1729.08,1729.54 1729.08,1779.32 "/>
   <path id="_4_12" fill="#7886FF" fill-rule="nonzero" d="M1736.65 1760.84c0,-3.18 0.77,-6.25 2.34,-9.21 1.56,-2.98 3.77,-5.24 6.64,-6.8 2.86,-1.57 6.04,-2.36 9.58,-2.36 5.45,0 9.92,1.78 13.4,5.32 3.49,3.56 5.23,8.03 5.23,13.45 0,5.47 -1.76,10 -5.27,13.59 -3.53,3.6 -7.95,5.39 -13.29,5.39 -3.3,0 -6.46,-0.75 -9.46,-2.25 -2.99,-1.49 -5.27,-3.68 -6.83,-6.58 -1.57,-2.88 -2.34,-6.4 -2.34,-10.55zm9.8 0.51c0,3.58 0.84,6.32 2.54,8.22 1.7,1.92 3.78,2.87 6.28,2.87 2.48,0 4.56,-0.95 6.24,-2.87 1.68,-1.9 2.53,-4.67 2.53,-8.29 0,-3.54 -0.85,-6.26 -2.53,-8.16 -1.68,-1.91 -3.76,-2.86 -6.24,-2.86 -2.5,0 -4.58,0.95 -6.28,2.86 -1.7,1.9 -2.54,4.65 -2.54,8.23z"/>
   <path id="_5_13" fill="#7886FF" fill-rule="nonzero" d="M1776.75 1743.24l10.15 0 8.65 25.59 8.45 -25.59 9.87 0 -12.72 34.72 -2.3 6.27c-0.84,2.1 -1.64,3.7 -2.41,4.81 -0.75,1.1 -1.63,2 -2.61,2.69 -0.99,0.69 -2.2,1.23 -3.65,1.61 -1.44,0.38 -3.07,0.58 -4.89,0.58 -1.83,0 -3.64,-0.2 -5.41,-0.58l-0.84 -7.44c1.5,0.29 2.85,0.44 4.06,0.44 2.22,0 3.87,-0.65 4.93,-1.96 1.07,-1.31 1.89,-2.98 2.46,-4.99l-13.74 -36.15z"/>
   <polygon fill="#7886FF" fill-rule="nonzero" points="1867.17,1779.32 1867.17,1729.54 1904.01,1729.54 1904.01,1737.95 1877.25,1737.95 1877.25,1749.01 1902.13,1749.01 1902.13,1757.42 1877.25,1757.42 1877.25,1770.91 1904.98,1770.91 1904.98,1779.32 "/>
   <path id="_1_14" fill="#7886FF" fill-rule="nonzero" d="M1946.56 1779.32l-8.83 0 0 -5.3c-1.47,2.07 -3.22,3.61 -5.23,4.65 -2,1.03 -4.03,1.55 -6.07,1.55 -4.16,0 -7.72,-1.67 -10.68,-5.02 -2.96,-3.34 -4.44,-8 -4.44,-13.99 0,-6.12 1.44,-10.78 4.32,-13.96 2.89,-3.19 6.52,-4.78 10.93,-4.78 4.03,0 7.53,1.68 10.47,5.03l0 -17.96 9.53 0 0 49.78zm-25.45 -18.74c0,3.86 0.53,6.65 1.59,8.38 1.54,2.5 3.68,3.75 6.44,3.75 2.19,0 4.06,-0.93 5.59,-2.81 1.54,-1.88 2.3,-4.67 2.3,-8.4 0,-4.16 -0.74,-7.15 -2.24,-8.98 -1.49,-1.83 -3.39,-2.75 -5.72,-2.75 -2.26,0 -4.15,0.91 -5.68,2.71 -1.51,1.81 -2.28,4.51 -2.28,8.1z"/>
   <path id="_2_15" fill="#7886FF" fill-rule="nonzero" d="M1955.03 1781.61l10.91 1.32c0.19,1.29 0.6,2.17 1.25,2.66 0.92,0.68 2.34,1.03 4.29,1.03 2.49,0 4.35,-0.37 5.61,-1.13 0.83,-0.49 1.47,-1.29 1.9,-2.41 0.29,-0.78 0.44,-2.25 0.44,-4.38l0.04 -5.27c-2.87,3.93 -6.49,5.89 -10.84,5.89 -4.85,0 -8.69,-2.05 -11.52,-6.14 -2.22,-3.24 -3.34,-7.27 -3.34,-12.08 0,-6.04 1.46,-10.65 4.37,-13.84 2.91,-3.19 6.54,-4.79 10.87,-4.79 4.46,0 8.15,1.96 11.04,5.88l0 -5.11 8.9 0 0 32.35c0,4.25 -0.35,7.44 -1.05,9.53 -0.7,2.11 -1.68,3.76 -2.96,4.96 -1.26,1.2 -2.95,2.15 -5.07,2.82 -2.12,0.68 -4.8,1.02 -8.03,1.02 -6.12,0 -10.45,-1.06 -13.01,-3.15 -2.57,-2.11 -3.84,-4.77 -3.84,-8 0,-0.31 0.01,-0.71 0.04,-1.16zm8.55 -21.06c0,3.82 0.74,6.61 2.21,8.39 1.48,1.77 3.31,2.66 5.48,2.66 2.32,0 4.29,-0.91 5.89,-2.73 1.61,-1.82 2.41,-4.51 2.41,-8.08 0,-3.73 -0.77,-6.5 -2.31,-8.31 -1.53,-1.8 -3.48,-2.71 -5.83,-2.71 -2.28,0 -4.16,0.89 -5.64,2.67 -1.47,1.77 -2.21,4.47 -2.21,8.11z"/>
   <path id="_3_16" fill="#7886FF" fill-rule="nonzero" d="M2019.25 1767.92l9.52 1.6c-1.21,3.48 -3.15,6.14 -5.78,7.97 -2.64,1.82 -5.94,2.73 -9.89,2.73 -6.27,0 -10.92,-2.05 -13.92,-6.15 -2.37,-3.29 -3.57,-7.44 -3.57,-12.46 0,-5.97 1.57,-10.67 4.68,-14.05 3.12,-3.4 7.07,-5.09 11.85,-5.09 5.35,0 9.58,1.78 12.68,5.32 3.1,3.55 4.58,8.98 4.44,16.3l-23.85 0c0.07,2.83 0.84,5.03 2.31,6.61 1.46,1.57 3.29,2.36 5.47,2.36 1.49,0 2.75,-0.4 3.75,-1.21 1.02,-0.82 1.79,-2.12 2.31,-3.93zm0.56 -9.67c-0.07,-2.76 -0.78,-4.87 -2.14,-6.31 -1.35,-1.45 -3,-2.17 -4.94,-2.17 -2.08,0 -3.79,0.77 -5.15,2.29 -1.35,1.51 -2.01,3.59 -1.99,6.19l14.22 0z"/>
   <polygon id="_4_17" fill="#7886FF" fill-rule="nonzero" points="2056.44,1779.32 2056.44,1729.54 2066.2,1729.54 2086.68,1762.9 2086.68,1729.54 2096,1729.54 2096,1779.32 2085.93,1779.32 2065.76,1746.6 2065.76,1779.32 "/>
   <path id="_5_18" fill="#7886FF" fill-rule="nonzero" d="M2127.43 1767.92l9.53 1.6c-1.22,3.48 -3.16,6.14 -5.79,7.97 -2.64,1.82 -5.94,2.73 -9.89,2.73 -6.27,0 -10.92,-2.05 -13.92,-6.15 -2.37,-3.29 -3.57,-7.44 -3.57,-12.46 0,-5.97 1.57,-10.67 4.69,-14.05 3.11,-3.4 7.06,-5.09 11.84,-5.09 5.35,0 9.58,1.78 12.68,5.32 3.1,3.55 4.58,8.98 4.44,16.3l-23.84 0c0.07,2.83 0.83,5.03 2.3,6.61 1.46,1.57 3.29,2.36 5.47,2.36 1.5,0 2.75,-0.4 3.76,-1.21 1.01,-0.82 1.78,-2.12 2.3,-3.93zm0.56 -9.67c-0.07,-2.76 -0.78,-4.87 -2.13,-6.31 -1.36,-1.45 -3.01,-2.17 -4.95,-2.17 -2.08,0 -3.79,0.77 -5.15,2.29 -1.35,1.51 -2.01,3.59 -1.99,6.19l14.22 0z"/>
   <path id="_6_19" fill="#7886FF" fill-rule="nonzero" d="M2161.71 1743.24l0 7.58 -6.53 0 0 14.61c0,2.96 0.06,4.69 0.19,5.18 0.12,0.48 0.4,0.89 0.85,1.21 0.44,0.31 0.98,0.48 1.61,0.48 0.9,0 2.17,-0.3 3.85,-0.92l0.8 7.42c-2.21,0.95 -4.72,1.42 -7.52,1.42 -1.72,0 -3.26,-0.29 -4.63,-0.87 -1.38,-0.58 -2.39,-1.33 -3.03,-2.24 -0.65,-0.93 -1.09,-2.17 -1.34,-3.75 -0.2,-1.11 -0.3,-3.36 -0.3,-6.75l0 -15.79 -4.38 0 0 -7.58 4.38 0 0 -7.16 9.52 -5.63 0 12.79 6.53 0z"/>
   <polygon id="_7" fill="#7886FF" fill-rule="nonzero" points="2175.06,1779.32 2163.66,1743.24 2172.93,1743.24 2179.68,1766.89 2185.91,1743.24 2195.11,1743.24 2201.1,1766.89 2207.99,1743.24 2217.4,1743.24 2205.81,1779.32 2196.66,1779.32 2190.46,1756.11 2184.34,1779.32 "/>
   <path id="_8" fill="#7886FF" fill-rule="nonzero" d="M2220.24 1760.84c0,-3.18 0.77,-6.25 2.34,-9.21 1.56,-2.98 3.77,-5.24 6.64,-6.8 2.86,-1.57 6.04,-2.36 9.58,-2.36 5.46,0 9.92,1.78 13.4,5.32 3.49,3.56 5.23,8.03 5.23,13.45 0,5.47 -1.76,10 -5.27,13.59 -3.53,3.6 -7.95,5.39 -13.29,5.39 -3.3,0 -6.46,-0.75 -9.46,-2.25 -2.99,-1.49 -5.27,-3.68 -6.83,-6.58 -1.57,-2.88 -2.34,-6.4 -2.34,-10.55zm9.8 0.51c0,3.58 0.84,6.32 2.54,8.22 1.7,1.92 3.78,2.87 6.28,2.87 2.48,0 4.56,-0.95 6.24,-2.87 1.68,-1.9 2.53,-4.67 2.53,-8.29 0,-3.54 -0.85,-6.26 -2.53,-8.16 -1.68,-1.91 -3.76,-2.86 -6.24,-2.86 -2.5,0 -4.58,0.95 -6.28,2.86 -1.7,1.9 -2.54,4.65 -2.54,8.23z"/>
   <path id="_9" fill="#7886FF" fill-rule="nonzero" d="M2274.03 1779.32l-9.52 0 0 -36.08 8.83 0 0 5.12c1.52,-2.42 2.88,-4.01 4.1,-4.76 1.22,-0.76 2.59,-1.13 4.14,-1.13 2.17,0 4.27,0.61 6.29,1.8l-2.96 8.32c-1.61,-1.04 -3.1,-1.57 -4.48,-1.57 -1.34,0 -2.48,0.37 -3.41,1.1 -0.93,0.75 -1.65,2.07 -2.19,3.99 -0.53,1.92 -0.8,5.96 -0.8,12.08l0 11.13z"/>
   <polygon id="_10" fill="#7886FF" fill-rule="nonzero" points="2291.63,1779.32 2291.63,1729.54 2301.16,1729.54 2301.16,1755.95 2312.31,1743.24 2324.06,1743.24 2311.76,1756.42 2324.97,1779.32 2314.68,1779.32 2305.57,1763.04 2301.16,1767.77 2301.16,1779.32 "/>
   <path fill="#B8BAFF" stroke="#7886FF" stroke-width="17.29" stroke-miterlimit="2.61313" d="M1028.34 1027.66l105.21 0c5.13,0 9.33,4.21 9.33,9.34l0 132.98 -123.88 0 0 -132.98c0,-5.13 4.2,-9.34 9.34,-9.34z"/>
   <path fill="#B8BAFF" stroke="#7886FF" stroke-width="17.29" stroke-miterlimit="2.61313" d="M1233.7 916.68l105.21 0c5.14,0 9.34,4.2 9.34,9.34l0 243.96 -123.88 0 0 -243.96c0,-5.14 4.2,-9.34 9.33,-9.34z"/>
   <path fill="#B8BAFF" stroke="#7886FF" stroke-width="17.29" stroke-miterlimit="2.61313" d="M1442.18 916.68l105.21 0c5.13,0 9.33,4.2 9.33,9.34l0 243.96 -123.88 0 0 -243.96c0,-5.14 4.2,-9.34 9.34,-9.34z"/>
   <path fill="#B8BAFF" stroke="#7886FF" stroke-width="17.29" stroke-miterlimit="2.61313" d="M1647.54 766.44l105.21 0c5.14,0 9.34,4.19 9.34,9.33l0 394.21 -123.88 0 0 -394.21c0,-5.14 4.2,-9.33 9.33,-9.33z"/>
  </g>
 </g>
</svg>
