<?xml version="1.0" encoding="UTF-8"?>
<!DOCTYPE svg PUBLIC "-//W3C//DTD SVG 1.1//EN" "http://www.w3.org/Graphics/SVG/1.1/DTD/svg11.dtd">
<!-- Creator: CorelDRAW -->
<svg xmlns="http://www.w3.org/2000/svg" xml:space="preserve" width="48px" height="52px" version="1.1" shape-rendering="geometricPrecision" text-rendering="geometricPrecision" image-rendering="optimizeQuality" fill-rule="evenodd" clip-rule="evenodd"
viewBox="0 0 59.52 63.36"
 xmlns:xlink="http://www.w3.org/1999/xlink"
 xmlns:xodm="http://www.corel.com/coreldraw/odm/2003">
 <g id="Layer_x0020_1">
  <metadata id="CorelCorpID_0Corel-Layer"/>
  <circle fill="none" stroke="#6A72F1" stroke-width="5.76" stroke-linecap="round" stroke-linejoin="round" stroke-miterlimit="2.61313" cx="24" cy="27.84" r="21.12"/>
  <polyline fill="none" stroke="#6A72F1" stroke-width="5.76" stroke-linecap="round" stroke-linejoin="round" stroke-miterlimit="2.61313" points="12.48,12.48 17.86,2.88 23.23,12.48 "/>
  <polyline fill="none" stroke="#6A72F1" stroke-width="5.76" stroke-linecap="round" stroke-linejoin="round" stroke-miterlimit="2.61313" points="24.77,12.48 30.14,2.88 35.52,12.48 "/>
  <circle fill="none" stroke="#6A72F1" stroke-width="5.76" stroke-linecap="round" stroke-linejoin="round" stroke-miterlimit="2.61313" cx="45.12" cy="48.96" r="11.52"/>
  <line fill="none" stroke="#6A72F1" stroke-width="5.76" stroke-linecap="round" stroke-linejoin="round" stroke-miterlimit="2.61313" x1="45.12" y1="44.74" x2="45.12" y2= "53.18" />
  <line fill="none" stroke="#6A72F1" stroke-width="5.76" stroke-linecap="round" stroke-linejoin="round" stroke-miterlimit="2.61313" x1="40.9" y1="48.96" x2="49.34" y2= "48.96" />
  <path fill="#97B8FF" stroke="#6A72F1" stroke-width="2.56" stroke-miterlimit="2.61313" d="M2.88 27.84c0,11.66 9.46,21.12 21.12,21.12 3.56,0 6.92,-0.88 9.86,-2.44 0.95,-4.4 4.42,-7.87 8.82,-8.82 1.56,-2.94 2.44,-6.3 2.44,-9.86 0,-8.22 -4.69,-15.34 -11.54,-18.83 -1.8,-0.91 -3.74,-1.58 -5.78,-1.95 -1.23,-0.22 -2.5,-0.34 -3.8,-0.34 -1.3,0 -2.57,0.12 -3.8,0.34 -2.04,0.37 -3.98,1.04 -5.78,1.95 -6.85,3.49 -11.54,10.61 -11.54,18.83z"/>
 </g>
</svg>
