<?xml version="1.0" encoding="UTF-8"?>
<!DOCTYPE svg PUBLIC "-//W3C//DTD SVG 1.1//EN" "http://www.w3.org/Graphics/SVG/1.1/DTD/svg11.dtd">
<!-- Creator: CorelDRAW -->
<svg xmlns="http://www.w3.org/2000/svg" xml:space="preserve" width="1688px" height="969px" version="1.1" shape-rendering="geometricPrecision" text-rendering="geometricPrecision" image-rendering="optimizeQuality" fill-rule="evenodd" clip-rule="evenodd"
viewBox="0 0 1563.2 897.34"
 xmlns:xlink="http://www.w3.org/1999/xlink"
 xmlns:xodm="http://www.corel.com/coreldraw/odm/2003">
 <g id="Layer_x0020_1">
  <metadata id="CorelCorpID_0Corel-Layer"/>
  <g id="_2375113090448">
   <path fill="#86CEFA" stroke="#3373C4" stroke-width="7.72" stroke-miterlimit="2.61313" d="M1021.88 519.81c0,-16.5 15.27,-29.88 34.11,-29.88l-49.89 0c-16.43,0 -29.88,13.45 -29.88,29.88 0,16.44 13.45,29.89 29.88,29.89l49.89 0c-18.84,0 -34.11,-13.38 -34.11,-29.89z"/>
   <ellipse fill="#CAF0F8" stroke="#86CEFA" stroke-width="7.72" stroke-miterlimit="2.61313" cx="1254.84" cy="839.14" rx="12.31" ry="12.66"/>
   <polyline fill="none" stroke="#86CEFA" stroke-width="7.72" stroke-miterlimit="2.61313" points="1053.22,880.81 1118.11,880.53 1160.24,838.11 1160.66,765.34 "/>
   <line fill="none" stroke="#86CEFA" stroke-width="7.72" stroke-miterlimit="2.61313" x1="1160.19" y1="838.12" x2="1238.95" y2= "838.49" />
   <polygon fill="#86CEFA" fill-rule="nonzero" points="1371.88,827.3 1326.4,807.54 1326.4,796.6 1371.88,776.92 1371.88,789.79 1340.16,801.92 1371.88,814.52 "/>
   <polygon id="_1" fill="#86CEFA" fill-rule="nonzero" points="1376.05,836.01 1392.53,767.47 1402.07,767.47 1385.49,836.01 "/>
   <polygon id="_2" fill="#86CEFA" fill-rule="nonzero" points="1406.22,827.39 1406.22,814.61 1437.94,802.09 1406.22,789.7 1406.22,777.01 1451.7,796.71 1451.7,807.57 "/>
   <ellipse fill="#CAF0F8" stroke="#86CEFA" stroke-width="11.58" stroke-miterlimit="2.61313" cx="1190.99" cy="109.86" rx="4.79" ry="4.64"/>
   <polygon fill="#86CEFA" fill-rule="nonzero" points="851.5,859.26 824.97,847.73 824.97,841.35 851.5,829.87 851.5,837.38 832.99,844.45 851.5,851.8 "/>
   <polygon id="_1_0" fill="#86CEFA" fill-rule="nonzero" points="853.93,864.33 863.54,824.36 869.11,824.36 859.44,864.33 "/>
   <polygon id="_2_1" fill="#86CEFA" fill-rule="nonzero" points="871.53,859.31 871.53,851.85 890.03,844.55 871.53,837.32 871.53,829.92 898.06,841.41 898.06,847.75 "/>
   <ellipse fill="#CAF0F8" stroke="#86CEFA" stroke-width="11.58" stroke-miterlimit="2.61313" cx="708.34" cy="124.35" rx="10.54" ry="10.21"/>
   <ellipse fill="#CAF0F8" stroke="#86CEFA" stroke-width="7.72" stroke-miterlimit="2.61313" cx="1547.03" cy="626.73" rx="12.31" ry="12.66"/>
   <polyline fill="none" stroke="#86CEFA" stroke-width="7.72" stroke-miterlimit="2.61313" points="1534.72,626.73 1492.2,627.01 1492.16,565.98 "/>
   <ellipse fill="#CAF0F8" stroke="#86CEFA" stroke-width="7.72" stroke-miterlimit="2.61313" cx="1492.16" cy="553.32" rx="12.31" ry="12.66"/>
   <polyline fill="none" stroke="#86CEFA" stroke-width="7.72" stroke-miterlimit="2.61313" points="1492.2,627.01 1419.4,698.96 1369.92,700.1 1337.78,682.75 "/>
   <rect fill="#86CEFA" stroke="#3373C4" stroke-width="11.58" stroke-miterlimit="2.61313" x="675.24" y="174.04" width="454.87" height="412.95" rx="7.79" ry="33.34"/>
   <g>
    <path fill="#3373C4" d="M458.52 485.49l0.16 13.76 -0.16 -13.76zm684.32 287.01c78.5,-19.26 128.44,-39.13 174.86,-71.86l38.95 -31.96c67.37,-63.92 95.88,-155.11 96.07,-247.58 0.03,-13.05 -2.57,-43.11 -0.32,-53.55l15.65 -3.7c2.62,-5.54 1.87,-11.82 2.08,-17.98 0.22,-6.13 1.02,-11.53 1.21,-18.32 9.35,0.28 23.42,15.31 27.9,20.34 7.81,8.76 11.9,23.62 26.84,22.82 10.59,-37.15 24.47,-61.04 6.16,-102.22 -7.54,-16.97 -14.55,-24.71 -25.92,-36.26 -6.44,-6.55 -3.28,-18.03 -2.84,-27.01 3.08,-62 -15.39,-120.98 -48.73,-170.32 -7.09,-10.49 -18.91,-30.42 -35.54,-27.09 -16.58,3.31 -43.82,50.41 -52.85,71.52 -18.36,42.95 -27.05,81.57 -25.78,130.47 0.41,16.14 3.6,16.95 -5.87,25.92 -25.02,23.7 -33.25,57.42 -27.41,92.77 2.82,17.12 7.26,40.43 20.74,43.73 7.55,-12.76 30.08,-42.1 45.93,-45.19 2.1,25.45 -5.97,33.96 18.09,40.04 1.71,30.07 -8.58,70.08 -17.68,93.33 -31.98,81.75 -94.81,123.15 -184.92,148.09 -90.74,25.1 -200.65,32.79 -297.64,15.66 -17.22,-3.04 -148.05,-30.43 -159.77,-36.21l-273.51 18.25 -91.93 0.2c-29.92,0.12 -56.65,2.25 -78.55,-17 -12.74,-11.2 -22.64,-27.91 -22.63,-52.51l0 -111.44c-0.02,-16.75 0.21,-35.12 -0.75,-51.74 -0.52,-9.1 -2.92,-15.63 2.21,-21.91 3,-3.68 8.06,-9.63 12.88,-11.87 9.25,9.05 11.28,9.4 11.28,26.18l-0.08 102.76c-0.14,39.93 25.16,75.84 65.51,75.66l86.83 -0.05c8.94,0 15.74,-0.03 18.51,-1.33 2.57,-1.2 1.44,-3.35 1.4,-11.19 -26.51,1.26 -59.66,0.78 -86.48,0.78 -33.19,-0.01 -45.31,-0.22 -60.72,-20.52 -14.32,-18.86 -13.57,-41.01 -13.57,-69.4 0,-26.9 -0.82,-55.11 0.19,-82.42l26.11 7.2c4.3,42.49 -10.02,88.21 15.47,114.99 25.53,26.82 73.72,8.49 114.29,15.98 0.06,0.22 0.12,0.45 0.17,0.69l-0.16 -13.76c-16.88,1.59 -39.66,0.4 -57.18,0.42 -44.1,0.06 -61.4,-10.34 -61.33,-57.57 0.02,-19.91 -0.43,-40.28 0,-60.12 46.88,-10.56 36.01,-17.91 53.91,-40.85 41.48,-1.48 58.73,-17.62 61.36,-59.68 3.99,-3.7 10.31,-5.93 15.05,-9.18 16.43,-11.24 25.84,-29.6 28.26,-50.32 1.84,-15.77 -2.55,-30.31 -9.08,-41.72 -8.48,-14.83 -13.76,-15.72 -26.28,-26.14 -1.5,-19.6 14.79,-64.22 -45.31,-86.02 -14.42,-5.24 -12.78,-12.57 -21.09,-23.8 -20.05,-27.1 -61.54,-39.18 -94.34,-20.82 -12.35,6.91 -14.98,13.53 -24.17,20.55 -15.4,-15.21 -26.47,-30.94 -59.38,-30.14 -26.01,0.63 -49.07,16.04 -59.17,30.33 -7.08,10.04 -7.31,18.72 -21.06,23.89 -22.58,8.49 -38.25,19.96 -44.88,44.48 -4.88,18.05 -0.26,24.31 0.28,39.81 -16.33,11.39 -28.87,21.77 -33.81,47.41 -11.32,58.68 37.34,75.03 39.99,81.33 6.59,15.67 -4.15,36 29.26,53.43 13.1,6.84 20.78,5.24 35.76,6.5 22.42,43.16 30.61,28.77 50.92,41.72 2.43,20.97 0.28,139.23 0.32,170.78 0.1,66.88 -8.71,103.08 31.42,140.35 16.61,15.42 36.36,19.76 65.09,19.74l385.03 0.03c14.28,-0.11 23.93,-7.1 36.37,-3.96 98.68,24.94 139.29,69.64 261.87,82.49 39.03,4.09 84.6,4.39 146.51,-5.93zm-670.48 -194.97c20.35,-4.1 179.21,-1.69 218.45,-1.87 20.11,-0.09 23.43,1.62 23.55,22 0.11,19.51 2.23,73.32 -1.09,89.16 -13.08,1.41 -101.54,0.56 -122.33,0.61 -22.44,0.05 -107.49,3.79 -119.4,-4.82 -1.8,-25.93 -2.32,-80.52 0.82,-105.08zm-243.81 -209.11l25.31 -6.24c1.27,38.08 0.24,77.46 0.3,115.37 0.07,52.01 -9.72,102.94 39.82,130.49 16.58,9.21 27.6,8.81 49.47,8.79 35.74,-0.04 80.5,-2.33 115.16,0.33l2.14 70.15c-43.73,2.16 -93.19,0.06 -137.56,0.06 -25.02,0 -40.18,1.31 -58.88,-10.54 -40.14,-25.47 -36.03,-63.23 -36.03,-100.87 0,-34.31 -1.49,-186.5 0.27,-207.54zm498.45 313.11l-0.61 -36.34c22.84,0.65 86.68,21.98 109.75,30.18 36.62,13.03 67.93,22.41 108.68,30.25 138.24,26.57 328.11,-20.54 419.08,-125.22 19.46,-22.41 37.78,-55.88 48.81,-90.31 6.43,-20.07 9.03,-36.92 11.89,-57.85 1.96,-14.3 1.16,-60.15 3.48,-66.84l11.99 -1.11c4.48,103.89 -5.07,175.6 -52.77,248.18 -56.54,86.03 -184.2,150.39 -297.04,154.77 -210.28,8.16 -244.4,-63.16 -363.26,-85.71zm9.79 -78.1c10.48,-1.21 31.63,5.37 42.39,7.54 16.14,3.26 32.81,8.9 49.23,12.59 100.56,22.6 120.86,26.17 227.19,22.07 89.28,-3.44 219.76,-40.62 278.6,-99.26 43.91,-43.77 64.26,-100.18 70.57,-181.12l12.42 -0.77c7.08,77.45 -19.36,154.29 -63.81,209.76 -80.64,100.65 -281.3,145.79 -413.47,118.97 -17.78,-3.6 -37.67,-7.89 -54.92,-13.49 -45.84,-14.87 -81.28,-30.09 -130.33,-41.4 -8.29,-1.91 -19.79,-3.64 -28.27,-6.58l-0.23 -28.67 10.63 0.36zm651.64 -276.24c11.49,-0.89 59.54,-1.79 68.92,0.43l-0.41 23.71 -68.73 -0.07 0.22 -24.07zm92.2 -13.19c1.44,-8.37 8.23,-24.39 11.01,-32.94 3.69,-11.3 6.04,-22.36 9.3,-33.96 10.11,4.53 22.56,29.37 24.86,43.94 3.04,19.32 0.28,42.49 -6.26,58.62 -4.89,-0.91 -9.72,-11.18 -17.71,-18.84 -6.37,-6.11 -14.89,-10.83 -21.2,-16.82zm-155.07 33.78c-12.45,-38.46 -8.68,-80.56 17.97,-102.68 1.74,2.51 8.38,29.63 10.06,35.39 3.43,11.76 9.75,24.17 12.08,33.51 -3.56,3.64 -7.09,4.88 -11.27,7.98 -11.35,8.42 -22.01,22.49 -28.84,25.8zm53.96 -35.26c-15.27,-25.39 -24.33,-69.55 -25.5,-105.65 -0.93,-28.98 6.86,-92.29 19.9,-111.1 10.92,1.22 20.17,11.97 49.27,11.78 26.8,-0.17 35.68,-9.87 47.99,-12.17 12.67,36.18 20.91,66.54 19.73,111.54 -0.76,29 -11.31,85.4 -24.36,105.94l-87.03 -0.34zm0.08 -228.61c1.11,-11.17 30.02,-55.64 43.53,-62.34 8.85,4.04 40.11,46.45 42.31,62.48 -43.25,16 -41.76,15.72 -85.84,-0.14zm-1181.3 47.44c2.84,-11.23 -7.1,-11.14 -19.12,-22.15 -30.86,-28.28 -23.56,-61.49 0.14,-80.9 14.78,-12.1 38.76,-20.67 62.77,-10.72 26.72,11.08 30.67,27.43 30.65,51.83l0.25 186.7c0.07,46.69 6.86,85.42 -35.43,96.42 -29.25,7.6 -53.6,-9.59 -61.09,-31.73l24.52 -27.22 -3.54 -7c-20.2,1.01 -17.15,33.7 -53.11,25.27 -17.15,-4.02 -33,-23.38 -32.93,-43.67 12.38,-0.19 52.98,2.03 61.27,-4.39 -1.36,-22.75 -50.91,3.89 -80.7,-19.61 -29.46,-23.24 -29.87,-74.53 9.18,-92.72 9.99,-4.66 31.38,-5.86 43.58,-3.15 9.95,2.2 20.5,14.82 26.39,21.06l23.99 23.77c10.14,8.57 23.74,8.34 40.39,5.65 5.38,-21.07 -20.26,-4.9 -31.82,-14.17 -7.56,-6.07 -16.35,-16.48 -24.13,-23.69 -39.01,-36.13 -24.81,-22.18 -71.03,-24.87 -17.12,-43.38 24.9,-71.97 37.24,-68.97 2.21,23.04 4.99,30.83 17.5,43.54 4.97,5.06 23.36,25.75 35.03,20.72zm86.99 62.67c-2.04,-43.17 -0.33,-91.09 -0.3,-134.76 0.02,-37.89 47.44,-56.53 81.93,-37.91 24.21,13.07 36.93,45.32 27.83,69.07 -5.91,15.4 -35.52,32.48 -21.87,38.17 6.49,2.7 16.53,-9.82 19.51,-13.14 16.85,-18.78 15.8,-17.92 17.9,-49.05 24.3,2.55 50.21,32.45 38.27,68.92 -16.42,1.93 -35.86,-5.45 -38.39,10.75 16.32,2.54 34.62,-0.09 47.92,6.97 10.9,5.79 19.2,14.71 24.41,28.93 11.62,31.74 -9.53,64.69 -31.95,71.67 -19.25,-10.63 0.22,-15.13 -43.42,-15.1 -28.54,0.01 -46.19,-4.57 -46.18,10 15.76,1.62 34.43,0.62 50.55,0.74 46.66,0.34 28.58,44.81 17.31,54.56 -9.56,8.26 -23.62,11.53 -40.49,8.6 -6.15,-8.22 -8.66,-18.16 -17.38,-21.39 -10.68,-3.96 -22.49,2.63 -32.83,-4.98 -7.77,-5.72 -14.2,-11.45 -13.99,-25.58 0.28,-18.49 -2.82,-20.33 7.1,-31.09 39.62,-42.96 30.17,-21.07 47.1,-29.6 6.31,-3.18 35.06,-32.28 37.27,-38.02l-7.01 -5.35c-4.72,2.15 -15.63,13.36 -20.04,17.41 -13.73,12.6 -11.2,13.86 -23.38,14.34 -13.39,0.53 -17.38,7.24 -24.1,13.43 -7.41,6.8 -11.91,11.69 -18.67,18.98 -8.25,8.89 -10.19,10.84 -10.34,26.82 -0.11,10.97 -1.93,27.18 3.47,33.7 4.45,5.37 12.75,13.99 19.73,17.96 9.65,5.49 22.83,2.3 34.17,3.43 3.62,7.4 12.48,17.38 8.04,28 -11.74,28.11 -56.74,29.49 -77.54,12.58 -18.22,-14.81 -14.87,-30.37 -14.87,-59.47 0.01,-21.12 -1.97,-54.48 0.42,-74.11 11.29,-6.48 20.53,-17.17 28.99,-25.82 11.84,-12.1 17.56,-14 17.58,-37.56 0.02,-32.18 -3.58,-23.13 13.43,-41.39 8.08,-8.67 31.92,-29.17 17.97,-30.98 -0.55,-0.07 -0.95,-0.13 -1.23,-0.19 -2.08,-0.42 2.19,-0.44 0,0 -0.26,0.05 -0.62,0.11 -1.09,0.18 -6.02,0.85 -19.34,16.37 -23.08,20.65 -26.15,29.95 -15.89,5.68 -17.96,59.05 -0.52,13.41 -32.45,39.53 -34.79,40.58z"/>
   </g>
   <path fill="#3373C4" fill-rule="nonzero" d="M806.68 513.06l-6.7 -1.18c0.76,-2.74 2.06,-4.77 3.91,-6.08 1.85,-1.32 4.59,-1.97 8.23,-1.97 3.3,0 5.77,0.38 7.39,1.17 1.61,0.78 2.76,1.77 3.41,2.98 0.66,1.2 1,3.41 1,6.63l-0.11 8.65c0,2.46 0.11,4.27 0.35,5.45 0.23,1.17 0.67,2.42 1.32,3.75l-7.35 0c-0.18,-0.49 -0.43,-1.21 -0.71,-2.16 -0.11,-0.44 -0.2,-0.73 -0.26,-0.87 -1.26,1.25 -2.61,2.17 -4.05,2.8 -1.44,0.62 -2.97,0.93 -4.6,0.93 -2.87,0 -5.14,-0.78 -6.8,-2.35 -1.66,-1.55 -2.48,-3.54 -2.48,-5.93 0,-1.58 0.37,-2.99 1.13,-4.23 0.76,-1.24 1.81,-2.19 3.18,-2.85 1.36,-0.66 3.32,-1.23 5.89,-1.73 3.45,-0.65 5.86,-1.26 7.19,-1.82l0 -0.74c0,-1.44 -0.35,-2.47 -1.05,-3.09 -0.71,-0.61 -2.05,-0.92 -4,-0.92 -1.32,0 -2.35,0.26 -3.09,0.79 -0.74,0.52 -1.34,1.45 -1.8,2.77zm9.94 6c-0.94,0.32 -2.45,0.7 -4.51,1.14 -2.05,0.44 -3.4,0.87 -4.03,1.28 -0.97,0.7 -1.45,1.56 -1.45,2.62 0,1.04 0.38,1.93 1.16,2.69 0.77,0.75 1.75,1.13 2.95,1.13 1.33,0 2.61,-0.44 3.83,-1.31 0.89,-0.68 1.48,-1.49 1.76,-2.46 0.19,-0.63 0.29,-1.84 0.29,-3.61l0 -1.48z"/>
   <path id="_1_2" fill="#3373C4" fill-rule="nonzero" d="M828.57 524.57l7.46 -1.13c0.31,1.43 0.95,2.52 1.92,3.26 0.97,0.74 2.33,1.11 4.06,1.11 1.92,0 3.36,-0.35 4.34,-1.05 0.64,-0.49 0.97,-1.16 0.97,-1.99 0,-0.56 -0.18,-1.03 -0.53,-1.4 -0.37,-0.35 -1.2,-0.68 -2.48,-0.98 -5.99,-1.32 -9.78,-2.53 -11.38,-3.62 -2.22,-1.52 -3.33,-3.62 -3.33,-6.32 0,-2.44 0.96,-4.48 2.88,-6.14 1.92,-1.65 4.89,-2.48 8.91,-2.48 3.84,0 6.69,0.63 8.56,1.88 1.86,1.26 3.15,3.11 3.85,5.57l-6.97 1.3c-0.3,-1.1 -0.87,-1.95 -1.71,-2.53 -0.84,-0.59 -2.03,-0.87 -3.59,-0.87 -1.96,0 -3.37,0.27 -4.22,0.81 -0.57,0.39 -0.85,0.9 -0.85,1.51 0,0.53 0.24,0.98 0.74,1.35 0.67,0.49 2.99,1.19 6.95,2.09 3.96,0.9 6.72,2 8.29,3.3 1.56,1.32 2.33,3.16 2.33,5.52 0,2.57 -1.07,4.78 -3.22,6.63 -2.14,1.84 -5.32,2.77 -9.54,2.77 -3.81,0 -6.84,-0.77 -9.07,-2.31 -2.23,-1.54 -3.68,-3.63 -4.37,-6.28z"/>
   <path id="_2_3" fill="#3373C4" fill-rule="nonzero" d="M857.7 504.42l7.89 0 6.72 19.89 6.57 -19.89 7.67 0 -9.89 26.99 -1.78 4.87c-0.66,1.63 -1.28,2.87 -1.87,3.73 -0.59,0.86 -1.27,1.56 -2.04,2.09 -0.76,0.54 -1.71,0.96 -2.83,1.26 -1.12,0.29 -2.39,0.45 -3.8,0.45 -1.43,0 -2.83,-0.16 -4.21,-0.45l-0.65 -5.79c1.16,0.23 2.22,0.35 3.15,0.35 1.73,0 3.01,-0.51 3.84,-1.53 0.83,-1.01 1.47,-2.31 1.91,-3.88l-10.68 -28.09z"/>
   <path id="_3" fill="#3373C4" fill-rule="nonzero" d="M916.81 532.46l-7.4 0 0 -14.29c0,-3.02 -0.16,-4.98 -0.48,-5.86 -0.32,-0.89 -0.83,-1.58 -1.55,-2.07 -0.72,-0.5 -1.59,-0.74 -2.6,-0.74 -1.29,0 -2.46,0.35 -3.48,1.05 -1.04,0.71 -1.74,1.64 -2.12,2.79 -0.38,1.17 -0.57,3.31 -0.57,6.44l0 12.68 -7.41 0 0 -28.04 6.87 0 0 4.12c2.45,-3.15 5.54,-4.71 9.28,-4.71 1.64,0 3.14,0.29 4.5,0.88 1.37,0.59 2.4,1.34 3.09,2.25 0.7,0.92 1.19,1.95 1.46,3.12 0.28,1.16 0.41,2.81 0.41,4.98l0 17.4z"/>
   <path id="_4" fill="#3373C4" fill-rule="nonzero" d="M948.73 512.74l-7.29 1.3c-0.24,-1.45 -0.8,-2.54 -1.68,-3.28 -0.87,-0.73 -1.99,-1.1 -3.38,-1.1 -1.85,0 -3.32,0.64 -4.42,1.92 -1.1,1.28 -1.65,3.41 -1.65,6.41 0,3.33 0.56,5.68 1.67,7.06 1.12,1.38 2.62,2.06 4.49,2.06 1.4,0 2.56,-0.4 3.45,-1.21 0.9,-0.8 1.53,-2.17 1.9,-4.14l7.29 1.25c-0.76,3.35 -2.21,5.88 -4.35,7.59 -2.14,1.71 -5.01,2.56 -8.62,2.56 -4.09,0 -7.36,-1.29 -9.79,-3.88 -2.44,-2.59 -3.66,-6.18 -3.66,-10.76 0,-4.64 1.23,-8.24 3.67,-10.82 2.44,-2.59 5.74,-3.87 9.91,-3.87 3.4,0 6.11,0.74 8.13,2.2 2.01,1.47 3.45,3.7 4.33,6.71z"/>
   <rect fill="#86CEFA" stroke="#3373C4" stroke-width="11.58" stroke-miterlimit="2.61313" x="467.22" y="722.04" width="253.23" height="123.27" rx="7.03" ry="8.34"/>
   <path fill="#86CEFA" d="M1387.03 188.09c-4.58,-22.15 10.21,-40.12 26.7,-44.22 44.89,-11.14 64.08,58.09 17.32,70.84 -21.74,5.93 -40.81,-11.14 -44.02,-26.62zm-7.51 124.43l87.03 0.34c13.05,-20.54 23.6,-76.94 24.36,-105.94 1.18,-45 -7.06,-75.36 -19.73,-111.54 -12.31,2.3 -21.19,12 -47.99,12.17 -29.1,0.19 -38.35,-10.56 -49.27,-11.78 -13.04,18.81 -20.83,82.12 -19.9,111.1 1.17,36.1 10.23,80.26 25.5,105.65z"/>
   <path fill="#86CEFA" d="M1379.6 83.91c44.08,15.86 42.59,16.14 85.84,0.14 -2.2,-16.03 -33.46,-58.44 -42.31,-62.48 -13.51,6.7 -42.42,51.17 -43.53,62.34z"/>
   <path fill="#86CEFA" d="M1325.56 347.78c6.83,-3.31 17.49,-17.38 28.84,-25.8 4.18,-3.1 7.71,-4.34 11.27,-7.98 -2.33,-9.34 -8.65,-21.75 -12.08,-33.51 -1.68,-5.76 -8.32,-32.88 -10.06,-35.39 -26.65,22.12 -30.42,64.22 -17.97,102.68z"/>
   <path fill="#86CEFA" d="M1480.63 314c6.31,5.99 14.83,10.71 21.2,16.82 7.99,7.66 12.82,17.93 17.71,18.84 6.54,-16.13 9.3,-39.3 6.26,-58.62 -2.3,-14.57 -14.75,-39.41 -24.86,-43.94 -3.26,11.6 -5.61,22.66 -9.3,33.96 -2.78,8.55 -9.57,24.57 -11.01,32.94z"/>
   <path fill="#3373C4" d="M123.26 198.22c4.33,0.95 20.88,18.67 27.35,23.44 39.41,29 51.3,-0.71 72.05,18.86 33.98,32.05 9.35,62.03 24.48,69.59 3.88,-12.56 7.88,-43.83 -0.27,-55.81 -33.47,-49.19 -52.12,-19.2 -79.82,-31.92 -11.62,-5.34 -35.13,-42.42 -43.79,-24.16z"/>
   <path fill="#3373C4" d="M1399.53 183.74c-5.23,-34.92 41.57,-35.65 46.11,-8.33 5.19,31.22 -41.88,36.58 -46.11,8.33zm-12.5 4.35c3.21,15.48 22.28,32.55 44.02,26.62 46.76,-12.75 27.57,-81.98 -17.32,-70.84 -16.49,4.1 -31.28,22.07 -26.7,44.22z"/>
   <path fill="#3373C4" d="M199.08 60.81c3.56,17.13 26.1,11.06 27.68,35.47 2.48,38.19 -10.67,49.13 17.16,72.66 1.89,1.59 6.05,5.49 8.66,5.78 4.46,0.5 7.29,-2.76 6.14,-7.5 -3.2,-13.21 -22.69,-12.49 -22.61,-39.92 0.1,-37.35 6.14,-41.82 -21.59,-65 -5.94,-4.96 -9.37,-7.62 -15.44,-1.49z"/>
   <path fill="#86CEFA" d="M1388.21 351.26l68.73 0.07 0.41 -23.71c-9.38,-2.22 -57.43,-1.32 -68.92,-0.43l-0.22 24.07z"/>
   <path fill="#FEFFFE" d="M200.17 699.27c4.59,-0.11 7.07,-1.37 10.03,-3 -0.01,-6.01 -1.61,-10.5 -8.68,-9.93 -7.35,0.6 -4,9.01 -1.35,12.93z"/>
   <path fill="#FEFFFE" d="M1042.49 888.77c3.82,-2.76 6.7,-5.16 8.49,-10.11 -8.69,-3.79 -9.25,-5.37 -15.27,1.23 0.8,5.03 2.55,7.03 6.78,8.88z"/>
   <path fill="#FEFFFE" d="M345.3 830.58c-11.65,3.12 -13.28,17.38 2,12.55 2.72,-5.16 0.28,-7.82 -2,-12.55z"/>
   <path fill="#FEFFFE" d="M130.53 780.36c4.5,2.32 6.55,2.87 13.52,2.69l-0.66 -8.72c-2.64,-1.49 -3.91,-2.37 -8.35,-2.36 -4.57,3.67 -4.19,1.45 -4.51,8.39z"/>
   <path fill="#FEFFFE" d="M123.78 490.19c5.17,0.65 7.89,-0.88 11.78,-2.14 -1.43,-5.13 -3.7,-7.04 -7.76,-9.41 -5.18,1.45 -6.1,2.28 -6.86,7.67l2.84 3.88z"/>
   <path fill="#FEFFFE" d="M529.97 73.75c1.42,5.11 0.68,3.68 4.52,7.12 17.41,-2.56 5.54,-19.97 -4.52,-7.12z"/>
   <path fill="#FEFFFE" d="M587.44 21c5.82,2.11 7.35,0.78 11.76,-2.25 -0.71,-5.67 -1.62,-6.45 -5.37,-8.78 -6.48,1.25 -7.98,3.69 -6.39,11.03z"/>
   <path fill="#FEFFFE" d="M11.95 311.18c3.29,1.08 6.6,1.89 10.95,0.72l0.15 -8.68c-8.29,-3.91 -13.7,-1.3 -11.1,7.96z"/>
   <path fill="#FEFFFE" d="M60.63 350.86c2.58,1.34 5.66,2 9.75,1.28l1.5 -10.73c-9.39,-0.19 -13.75,-0.89 -11.25,9.45z"/>
   <path fill="#FEFFFE" d="M587.77 275.26c5.3,0.23 8.71,-0.97 12.24,-2.64 -2.91,-11.5 -15.83,-12.96 -12.24,2.64z"/>
   <path fill="#FEFFFE" d="M305.93 774.1l11.2 -0.24c2.88,-15.29 -12.67,-14.62 -11.2,0.24z"/>
   <path fill="#FEFFFE" d="M130.26 693.82c0.46,4.26 0.59,8.67 7.66,8.65 7.18,-0.01 3.64,-0.77 5.01,-1.5l0.9 -7.95 -13.57 0.8z"/>
   <ellipse fill="#CAF0F8" stroke="#86CEFA" stroke-width="7.72" stroke-miterlimit="2.61313" cx="1040.91" cy="880.81" rx="12.31" ry="12.66"/>
   <ellipse fill="#B0CB1F" stroke="#3373C4" stroke-width="11.58" stroke-miterlimit="2.61313" cx="719.44" cy="219.71" rx="7.72" ry="7.14"/>
   <ellipse fill="#B0CB1F" stroke="#3373C4" stroke-width="11.58" stroke-miterlimit="2.61313" cx="761.12" cy="219.71" rx="7.72" ry="7.14"/>
   <ellipse fill="#3373C4" stroke="#3373C4" stroke-width="11.58" stroke-miterlimit="2.61313" cx="800.02" cy="219.71" rx="7.72" ry="7.14"/>
   <line fill="none" stroke="#86CEFA" stroke-width="11.58" stroke-miterlimit="2.61313" x1="316.7" y1="772" x2="344.45" y2= "772.69" />
   <line fill="none" stroke="#86CEFA" stroke-width="11.58" stroke-miterlimit="2.61313" x1="136.44" y1="766.66" x2="136.21" y2= "704.73" />
   <polygon fill="#86CEFA" fill-rule="nonzero" points="172.13,609.58 172.13,598.09 160.52,598.09 160.52,590.19 172.13,590.19 172.13,578.71 179.85,578.71 179.85,590.19 191.46,590.19 191.46,598.09 179.85,598.09 179.85,609.58 "/>
   <ellipse fill="#CAF0F8" stroke="#86CEFA" stroke-width="11.58" stroke-miterlimit="2.61313" cx="343.35" cy="838.48" rx="10.54" ry="10.21"/>
   <ellipse fill="#CAF0F8" stroke="#86CEFA" stroke-width="11.58" stroke-miterlimit="2.61313" cx="204.43" cy="694" rx="10.54" ry="10.21"/>
   <polyline fill="none" stroke="#86CEFA" stroke-width="11.58" stroke-miterlimit="2.61313" points="204.29,706.62 203.87,839.34 329.12,839.34 "/>
   <ellipse fill="#CAF0F8" stroke="#86CEFA" stroke-width="11.58" stroke-miterlimit="2.61313" cx="718.51" cy="50.87" rx="7.96" ry="7.71"/>
   <ellipse fill="#CAF0F8" stroke="#86CEFA" stroke-width="11.58" stroke-miterlimit="2.61313" cx="856.05" cy="50.87" rx="7.96" ry="7.71"/>
   <ellipse fill="#CAF0F8" stroke="#86CEFA" stroke-width="11.58" stroke-miterlimit="2.61313" cx="811.19" cy="48.4" rx="4.79" ry="4.64"/>
   <ellipse fill="#CAF0F8" stroke="#86CEFA" stroke-width="11.58" stroke-miterlimit="2.61313" cx="786.19" cy="48.4" rx="4.79" ry="4.64"/>
   <ellipse fill="#CAF0F8" stroke="#86CEFA" stroke-width="11.58" stroke-miterlimit="2.61313" cx="761.18" cy="48.4" rx="4.79" ry="4.64"/>
   <ellipse fill="#CAF0F8" stroke="#86CEFA" stroke-width="11.58" stroke-miterlimit="2.61313" cx="1220.13" cy="111.31" rx="7.96" ry="7.71"/>
   <ellipse fill="#CAF0F8" stroke="#86CEFA" stroke-width="11.58" stroke-miterlimit="2.61313" cx="1165.98" cy="109.86" rx="4.79" ry="4.64"/>
   <ellipse fill="#CAF0F8" stroke="#86CEFA" stroke-width="11.58" stroke-miterlimit="2.61313" cx="1140.98" cy="109.86" rx="4.79" ry="4.64"/>
   <ellipse fill="#CAF0F8" stroke="#86CEFA" stroke-width="11.58" stroke-miterlimit="2.61313" cx="591.64" cy="16" rx="10.54" ry="10.21"/>
   <ellipse fill="#CAF0F8" stroke="#86CEFA" stroke-width="11.58" stroke-miterlimit="2.61313" cx="536.07" cy="74.34" rx="10.54" ry="10.21"/>
   <ellipse fill="#CAF0F8" stroke="#86CEFA" stroke-width="11.58" stroke-miterlimit="2.61313" cx="591.64" cy="271.61" rx="10.54" ry="10.21"/>
   <line fill="none" stroke="#86CEFA" stroke-width="7.72" stroke-miterlimit="2.61313" x1="1237.45" y1="404.37" x2="1258.25" y2= "404.48" />
   <ellipse fill="#CAF0F8" stroke="#86CEFA" stroke-width="11.58" stroke-miterlimit="2.61313" cx="64.95" cy="346.09" rx="10.54" ry="10.21"/>
   <ellipse fill="#CAF0F8" stroke="#86CEFA" stroke-width="11.58" stroke-miterlimit="2.61313" cx="16.33" cy="307.2" rx="10.54" ry="10.21"/>
   <ellipse fill="#CAF0F8" stroke="#86CEFA" stroke-width="11.58" stroke-miterlimit="2.61313" cx="127.46" cy="485.02" rx="10.54" ry="10.21"/>
   <polyline fill="none" stroke="#86CEFA" stroke-width="7.72" stroke-miterlimit="2.61313" points="15.96,319.48 15.67,407.67 127.54,409.7 126.52,473.34 "/>
   <line fill="none" stroke="#86CEFA" stroke-width="7.72" stroke-miterlimit="2.61313" x1="65.94" y1="408.58" x2="65.65" y2= "360.16" />
   <line fill="none" stroke="#86CEFA" stroke-width="7.72" stroke-miterlimit="2.61313" x1="591.36" y1="28.64" x2="591.64" y2= "261.4" />
   <line fill="none" stroke="#86CEFA" stroke-width="7.72" stroke-miterlimit="2.61313" x1="549.46" y1="74.91" x2="591.42" y2= "74.86" />
   <polyline fill="none" stroke="#86CEFA" stroke-width="7.72" stroke-miterlimit="2.61313" points="591.54,175.04 643.47,124.96 694.27,124.89 "/>
   <polygon fill="#86CEFA" fill-rule="nonzero" points="1224.2,253.56 1190.09,238.75 1190.09,230.54 1224.2,215.78 1224.2,225.43 1200.41,234.53 1224.2,243.98 "/>
   <polygon id="_1_4" fill="#86CEFA" fill-rule="nonzero" points="1227.32,260.09 1239.69,208.69 1246.84,208.69 1234.41,260.09 "/>
   <polygon id="_2_5" fill="#86CEFA" fill-rule="nonzero" points="1249.95,253.63 1249.95,244.05 1273.75,234.66 1249.95,225.36 1249.95,215.85 1284.06,230.62 1284.06,238.77 "/>
   <polygon fill="#86CEFA" fill-rule="nonzero" points="950.54,97.4 916.43,82.58 916.43,74.38 950.54,59.61 950.54,69.27 926.75,78.37 950.54,87.82 "/>
   <path id="_1_6" fill="#86CEFA" fill-rule="nonzero" d="M991.86 103.1l-8.82 0 0 -5.29c-1.47,2.06 -3.22,3.6 -5.22,4.64 -2,1.03 -4.03,1.55 -6.06,1.55 -4.16,0 -7.71,-1.67 -10.68,-5.01 -2.95,-3.35 -4.43,-8 -4.43,-13.99 0,-6.11 1.43,-10.76 4.32,-13.95 2.88,-3.18 6.51,-4.77 10.91,-4.77 4.03,0 7.53,1.68 10.47,5.03l0 -17.95 9.51 0 0 49.74zm-25.42 -18.72c0,3.85 0.53,6.64 1.59,8.37 1.54,2.5 3.68,3.75 6.43,3.75 2.19,0 4.06,-0.94 5.58,-2.81 1.54,-1.88 2.31,-4.67 2.31,-8.4 0,-4.15 -0.74,-7.14 -2.24,-8.97 -1.49,-1.83 -3.39,-2.74 -5.71,-2.74 -2.26,0 -4.15,0.9 -5.68,2.71 -1.51,1.8 -2.28,4.5 -2.28,8.09z"/>
   <path id="_2_7" fill="#86CEFA" fill-rule="nonzero" d="M1001.23 62.18l0 -8.82 9.52 0 0 8.82 -9.52 0zm0 40.92l0 -36.05 9.52 0 0 36.05 -9.52 0z"/>
   <path id="_3_8" fill="#86CEFA" fill-rule="nonzero" d="M1030.44 103.1l-14.53 -36.05 10 0 6.79 18.39 1.96 6.15c0.52,-1.56 0.86,-2.59 0.99,-3.09 0.32,-1.02 0.66,-2.04 1.03,-3.06l6.87 -18.39 9.8 0 -14.32 36.05 -8.59 0z"/>
   <path fill="#3373C4" fill-rule="nonzero" d="M518.99 787.79l0 -8.12c1.65,-0.1 2.89,-0.34 3.74,-0.76 0.83,-0.4 1.55,-1.08 2.16,-2.04 0.62,-0.97 1.03,-2.17 1.27,-3.62 0.17,-1.08 0.26,-2.97 0.26,-5.67 0,-4.39 0.21,-7.44 0.61,-9.18 0.41,-1.74 1.14,-3.12 2.2,-4.18 1.07,-1.05 2.62,-1.87 4.65,-2.49 1.37,-0.4 3.55,-0.61 6.51,-0.61l1.8 0 0 8.13c-2.53,0 -4.13,0.14 -4.85,0.42 -0.72,0.28 -1.24,0.71 -1.59,1.29 -0.33,0.58 -0.51,1.56 -0.51,2.96 0,1.43 -0.09,4.14 -0.27,8.11 -0.12,2.24 -0.41,4.05 -0.89,5.45 -0.47,1.39 -1.07,2.53 -1.81,3.44 -0.73,0.9 -1.86,1.84 -3.37,2.81 1.34,0.76 2.43,1.67 3.29,2.7 0.85,1.03 1.5,2.28 1.95,3.75 0.47,1.47 0.76,3.45 0.89,5.92 0.14,3.75 0.21,6.15 0.21,7.2 0,1.49 0.19,2.53 0.55,3.12 0.36,0.58 0.9,1.03 1.64,1.33 0.73,0.32 2.32,0.47 4.76,0.47l0 8.12 -1.8 0c-3.05,0 -5.39,-0.24 -7.02,-0.73 -1.62,-0.48 -3,-1.29 -4.11,-2.43 -1.13,-1.12 -1.88,-2.52 -2.26,-4.19 -0.38,-1.65 -0.58,-4.28 -0.58,-7.86 0,-4.16 -0.18,-6.86 -0.54,-8.1 -0.5,-1.82 -1.25,-3.12 -2.26,-3.89 -1.01,-0.79 -2.55,-1.23 -4.63,-1.35z"/>
   <polygon id="_1_9" fill="#3373C4" fill-rule="nonzero" points="568.24,801.76 568.24,792.24 577.75,792.24 577.75,801.76 "/>
   <polygon id="_2_10" fill="#3373C4" fill-rule="nonzero" points="587.53,801.76 587.53,792.24 597.05,792.24 597.05,801.76 "/>
   <polygon id="_3_11" fill="#3373C4" fill-rule="nonzero" points="606.83,801.76 606.83,792.24 616.35,792.24 616.35,801.76 "/>
   <path id="_4_12" fill="#3373C4" fill-rule="nonzero" d="M665.22 787.79c-1.65,0.1 -2.89,0.34 -3.72,0.75 -0.85,0.41 -1.57,1.09 -2.17,2.06 -0.59,0.96 -1.02,2.16 -1.27,3.61 -0.18,1.09 -0.27,2.96 -0.27,5.64 0,4.38 -0.19,7.45 -0.59,9.2 -0.39,1.74 -1.12,3.14 -2.19,4.19 -1.06,1.05 -2.62,1.88 -4.67,2.49 -1.38,0.4 -3.56,0.61 -6.52,0.61l-1.8 0 0 -8.12c2.44,0 4.02,-0.15 4.77,-0.47 0.75,-0.3 1.3,-0.74 1.65,-1.32 0.36,-0.58 0.53,-1.55 0.54,-2.94 0.01,-1.38 0.11,-4.01 0.27,-7.9 0.11,-2.37 0.41,-4.24 0.91,-5.67 0.5,-1.41 1.16,-2.61 1.98,-3.6 0.84,-0.98 1.89,-1.84 3.17,-2.59 -1.66,-1.09 -2.89,-2.15 -3.65,-3.18 -1.07,-1.5 -1.8,-3.4 -2.18,-5.71 -0.24,-1.57 -0.42,-5.06 -0.51,-10.44 -0.02,-1.69 -0.17,-2.83 -0.46,-3.39 -0.28,-0.56 -0.79,-1 -1.53,-1.3 -0.74,-0.31 -2.39,-0.46 -4.96,-0.46l0 -8.13 1.8 0c3.05,0 5.39,0.24 7.03,0.72 1.62,0.47 2.98,1.28 4.09,2.42 1.12,1.14 1.87,2.54 2.26,4.21 0.4,1.66 0.59,4.28 0.59,7.86 0,4.13 0.18,6.84 0.51,8.1 0.5,1.82 1.25,3.12 2.27,3.89 1.02,0.79 2.57,1.23 4.65,1.35l0 8.12z"/>
   <rect fill="#86CEFA" stroke="#3373C4" stroke-width="11.58" stroke-miterlimit="2.61313" x="728.81" y="317.61" width="114.59" height="122.59" rx="11.51" ry="11.86"/>
   <rect fill="#86CEFA" stroke="#3373C4" stroke-width="11.58" stroke-miterlimit="2.61313" x="878.85" y="317.61" width="202.51" height="122.59" rx="20.35" ry="11.86"/>
   <line fill="none" stroke="#3373C4" stroke-width="11.58" stroke-miterlimit="2.61313" x1="675.24" y1="261.2" x2="1130.12" y2= "261.2" />
   <rect fill="#86CEFA" stroke="#3373C4" stroke-width="11.58" stroke-miterlimit="2.61313" x="458.52" y="408.07" width="303.97" height="133.18" rx="8.44" ry="9.01"/>
   <path fill="#3373C4" fill-rule="nonzero" d="M488.43 482.17l0 -8.13c1.65,-0.09 2.89,-0.33 3.74,-0.75 0.83,-0.41 1.55,-1.09 2.16,-2.05 0.61,-0.96 1.03,-2.16 1.26,-3.61 0.18,-1.09 0.27,-2.98 0.27,-5.67 0,-4.39 0.21,-7.45 0.61,-9.19 0.41,-1.73 1.14,-3.12 2.2,-4.17 1.07,-1.06 2.62,-1.88 4.64,-2.49 1.38,-0.41 3.56,-0.62 6.52,-0.62l1.8 0 0 8.13c-2.53,0 -4.14,0.14 -4.85,0.43 -0.72,0.28 -1.24,0.7 -1.59,1.28 -0.34,0.58 -0.51,1.57 -0.51,2.97 0,1.42 -0.09,4.13 -0.28,8.1 -0.11,2.25 -0.4,4.05 -0.88,5.45 -0.47,1.39 -1.07,2.54 -1.81,3.44 -0.73,0.9 -1.86,1.84 -3.37,2.81 1.34,0.77 2.43,1.67 3.28,2.7 0.86,1.03 1.51,2.28 1.96,3.75 0.46,1.47 0.75,3.45 0.89,5.92 0.14,3.75 0.21,6.16 0.21,7.2 0,1.49 0.19,2.53 0.54,3.13 0.36,0.57 0.91,1.03 1.65,1.33 0.73,0.31 2.31,0.46 4.76,0.46l0 8.13 -1.8 0c-3.05,0 -5.39,-0.25 -7.03,-0.73 -1.62,-0.49 -2.99,-1.3 -4.11,-2.43 -1.12,-1.13 -1.87,-2.53 -2.25,-4.19 -0.38,-1.66 -0.58,-4.29 -0.58,-7.87 0,-4.15 -0.19,-6.86 -0.55,-8.1 -0.49,-1.82 -1.25,-3.11 -2.25,-3.89 -1.01,-0.79 -2.55,-1.23 -4.63,-1.34z"/>
   <path id="_1_13" fill="#3373C4" fill-rule="nonzero" d="M549.84 470.78l-9.38 1.66c-0.31,-1.86 -1.03,-3.26 -2.15,-4.21 -1.12,-0.94 -2.57,-1.41 -4.35,-1.41 -2.38,0 -4.27,0.82 -5.69,2.46 -1.41,1.65 -2.11,4.39 -2.11,8.25 0,4.28 0.71,7.3 2.15,9.07 1.43,1.77 3.36,2.65 5.76,2.65 1.81,0 3.29,-0.52 4.44,-1.55 1.15,-1.03 1.97,-2.8 2.44,-5.32l9.38 1.59c-0.97,4.31 -2.84,7.56 -5.59,9.76 -2.76,2.2 -6.45,3.3 -11.1,3.3 -5.25,0 -9.45,-1.66 -12.58,-4.99 -3.14,-3.33 -4.7,-7.94 -4.7,-13.83 0,-5.96 1.57,-10.59 4.71,-13.92 3.14,-3.32 7.39,-4.97 12.75,-4.97 4.37,0 7.86,0.95 10.45,2.83 2.58,1.89 4.44,4.76 5.57,8.63z"/>
   <path id="_2_14" fill="#3373C4" fill-rule="nonzero" d="M554.85 477.67c0,-3.18 0.78,-6.25 2.34,-9.21 1.57,-2.97 3.78,-5.23 6.64,-6.79 2.86,-1.57 6.04,-2.35 9.57,-2.35 5.45,0 9.91,1.77 13.39,5.31 3.49,3.55 5.23,8.02 5.23,13.44 0,5.46 -1.76,9.99 -5.27,13.58 -3.52,3.59 -7.94,5.38 -13.28,5.38 -3.3,0 -6.45,-0.75 -9.45,-2.24 -2.98,-1.5 -5.26,-3.68 -6.83,-6.58 -1.56,-2.88 -2.34,-6.4 -2.34,-10.54zm9.8 0.5c0,3.58 0.84,6.33 2.53,8.22 1.7,1.91 3.79,2.86 6.28,2.86 2.47,0 4.56,-0.95 6.24,-2.86 1.68,-1.89 2.52,-4.66 2.52,-8.29 0,-3.53 -0.84,-6.25 -2.52,-8.15 -1.68,-1.91 -3.77,-2.85 -6.24,-2.85 -2.49,0 -4.58,0.94 -6.28,2.85 -1.69,1.9 -2.53,4.65 -2.53,8.22z"/>
   <path id="_3_15" fill="#3373C4" fill-rule="nonzero" d="M632.29 496.13l-9.51 0 0 -18.37c0,-3.89 -0.21,-6.4 -0.62,-7.54 -0.42,-1.14 -1.08,-2.03 -2,-2.66 -0.93,-0.64 -2.04,-0.95 -3.34,-0.95 -1.66,0 -3.16,0.45 -4.48,1.35 -1.33,0.91 -2.23,2.11 -2.72,3.59 -0.49,1.5 -0.74,4.25 -0.74,8.28l0 16.3 -9.51 0 0 -36.05 8.82 0 0 5.29c3.16,-4.04 7.13,-6.05 11.93,-6.05 2.11,0 4.04,0.38 5.79,1.13 1.76,0.76 3.08,1.72 3.97,2.89 0.91,1.18 1.53,2.52 1.88,4.01 0.36,1.49 0.53,3.62 0.53,6.4l0 22.38z"/>
   <path id="_4_16" fill="#3373C4" fill-rule="nonzero" d="M638.53 485.99l9.59 -1.46c0.4,1.84 1.22,3.24 2.47,4.19 1.24,0.96 2.99,1.44 5.22,1.44 2.47,0 4.32,-0.46 5.57,-1.36 0.84,-0.63 1.25,-1.49 1.25,-2.56 0,-0.71 -0.23,-1.32 -0.68,-1.79 -0.47,-0.45 -1.54,-0.88 -3.18,-1.26 -7.7,-1.7 -12.57,-3.26 -14.64,-4.66 -2.86,-1.95 -4.28,-4.66 -4.28,-8.12 0,-3.14 1.24,-5.77 3.71,-7.9 2.46,-2.13 6.28,-3.19 11.46,-3.19 4.93,0 8.6,0.81 10.99,2.42 2.4,1.62 4.06,4 4.96,7.16l-8.96 1.67c-0.38,-1.41 -1.12,-2.5 -2.2,-3.25 -1.08,-0.76 -2.62,-1.13 -4.62,-1.13 -2.52,0 -4.33,0.35 -5.43,1.06 -0.73,0.49 -1.09,1.14 -1.09,1.93 0,0.68 0.31,1.26 0.95,1.73 0.87,0.64 3.84,1.53 8.94,2.69 5.09,1.16 8.65,2.57 10.66,4.25 2,1.69 3,4.06 3,7.1 0,3.3 -1.38,6.14 -4.15,8.52 -2.75,2.37 -6.84,3.56 -12.26,3.56 -4.9,0 -8.79,-0.99 -11.66,-2.97 -2.86,-1.98 -4.74,-4.67 -5.62,-8.07z"/>
   <path id="_5" fill="#3373C4" fill-rule="nonzero" d="M697.03 460.08l0 7.57 -6.53 0 0 14.6c0,2.96 0.06,4.69 0.18,5.17 0.13,0.49 0.41,0.9 0.86,1.22 0.44,0.31 0.97,0.47 1.61,0.47 0.89,0 2.17,-0.3 3.84,-0.91l0.8 7.41c-2.21,0.95 -4.71,1.42 -7.51,1.42 -1.71,0 -3.25,-0.29 -4.63,-0.87 -1.38,-0.57 -2.39,-1.33 -3.02,-2.24 -0.65,-0.93 -1.09,-2.17 -1.35,-3.74 -0.19,-1.11 -0.3,-3.36 -0.3,-6.75l0 -15.78 -4.37 0 0 -7.57 4.37 0 0 -7.15 9.52 -5.63 0 12.78 6.53 0z"/>
   <path id="_6" fill="#3373C4" fill-rule="nonzero" d="M703.42 446.4l9.52 0 0 6.82c0,2.75 -0.24,4.94 -0.71,6.52 -0.48,1.6 -1.38,3.04 -2.7,4.3 -1.32,1.27 -3,2.26 -5.02,2.99l-1.85 -3.96c1.91,-0.64 3.26,-1.51 4.07,-2.62 0.8,-1.1 1.23,-2.62 1.27,-4.54l-4.58 0 0 -9.51z"/>
   <path fill="#3373C4" stroke="#3373C4" stroke-width="7.72" stroke-miterlimit="2.61313" d="M727.16 219.71c0,-3.94 -3.45,-7.14 -7.72,-7.14 -4.26,0 -7.71,3.2 -7.71,7.14 0,3.94 3.45,7.13 7.71,7.13 4.27,0 7.72,-3.19 7.72,-7.13z"/>
   <path fill="#3373C4" stroke="#3373C4" stroke-width="7.72" stroke-miterlimit="2.61313" d="M761.12 212.57c-4.26,0 -7.71,3.2 -7.71,7.14 0,3.94 3.45,7.13 7.71,7.13 4.26,0 7.72,-3.19 7.72,-7.13 0,-3.94 -3.46,-7.14 -7.72,-7.14z"/>
   <path fill="#73B9EE" stroke="#3373C4" stroke-width="7.72" stroke-miterlimit="2.61313" d="M1006.1 489.93c-13.54,0 -25.06,9.13 -28.69,21.55 -0.78,2.65 -1.19,5.44 -1.19,8.33 0,16.44 13.45,29.89 29.88,29.89l54.11 0c16.44,0 29.89,-13.45 29.89,-29.89 0,-2.98 -0.44,-5.86 -1.27,-8.58 -3.71,-12.29 -15.16,-21.3 -28.62,-21.3l-34.83 0 -19.28 0z"/>
   <ellipse fill="#CAF0F8" stroke="#3373C4" stroke-width="11.58" stroke-miterlimit="2.61313" cx="1055.99" cy="519.5" rx="34.11" ry="27.47"/>
   <path fill="#73B9EE" stroke="#3373C4" stroke-width="7.72" stroke-miterlimit="2.61313" d="M1363.9 580.4c-90.97,104.68 -280.84,151.79 -419.08,125.22 -40.75,-7.84 -72.06,-17.22 -108.68,-30.25 -20.95,-7.45 -75.52,-25.72 -102.48,-29.5l0 36.99c113.55,23.9 150.31,92.39 356.6,84.38 112.84,-4.38 240.5,-68.74 297.04,-154.77 47.7,-72.58 57.25,-144.29 52.77,-248.18l-11.99 1.11c-2.32,6.69 -1.52,52.54 -3.48,66.84 -2.86,20.93 -5.46,37.78 -11.89,57.85 -11.03,34.43 -29.35,67.9 -48.81,90.31z"/>
   <path fill="#73B9EE" stroke="#73B9EE" stroke-width="7.72" stroke-miterlimit="2.61313" d="M939.91 693.21c132.17,26.82 332.83,-18.32 413.47,-118.97 44.45,-55.47 70.89,-132.31 63.81,-209.76l-12.42 0.77c-6.31,80.94 -26.66,137.35 -70.57,181.12 -58.84,58.64 -189.32,95.82 -278.6,99.26 -106.33,4.1 -126.63,0.53 -227.19,-22.07 -16.42,-3.69 -33.09,-9.33 -49.23,-12.59 -10.76,-2.17 -31.91,-8.75 -42.39,-7.54l-3.13 -0.11 0 30.53c7.09,1.76 14.91,3.07 21,4.47 49.05,11.31 84.49,26.53 130.33,41.4 17.25,5.6 37.14,9.89 54.92,13.49z"/>
   <path fill="#86CEFA" stroke="#3373C4" stroke-width="7.72" stroke-miterlimit="2.61313" d="M272.99 256.11l-0.25 -186.7c0.02,-24.4 -3.93,-40.75 -30.65,-51.83 -24.01,-9.95 -47.99,-1.38 -62.77,10.72 -23.7,19.41 -31,52.62 -0.14,80.9 12.02,11.01 21.96,10.92 19.12,22.15 -11.67,5.03 -30.06,-15.66 -35.03,-20.72 -12.51,-12.71 -15.29,-20.5 -17.5,-43.54 -12.34,-3 -54.36,25.59 -37.24,68.97 46.22,2.69 32.02,-11.26 71.03,24.87 7.78,7.21 16.57,17.62 24.13,23.69 11.56,9.27 37.2,-6.9 31.82,14.17 -16.65,2.69 -30.25,2.92 -40.39,-5.65l-23.99 -23.77c-5.89,-6.24 -16.44,-18.86 -26.39,-21.06 -12.2,-2.71 -33.59,-1.51 -43.58,3.15 -39.05,18.19 -38.64,69.48 -9.18,92.72 29.79,23.5 79.34,-3.14 80.7,19.61 -8.29,6.42 -48.89,4.2 -61.27,4.39 -0.07,20.29 15.78,39.65 32.93,43.67 35.96,8.43 32.91,-24.26 53.11,-25.27l3.54 7 -24.52 27.22c7.49,22.14 31.84,39.33 61.09,31.73 42.29,-11 35.5,-49.73 35.43,-96.42zm-149.73 -57.89c8.66,-18.26 32.17,18.82 43.79,24.16 27.7,12.72 46.35,-17.27 79.82,31.92 8.15,11.98 4.15,43.25 0.27,55.81 -15.13,-7.56 9.5,-37.54 -24.48,-69.59 -20.75,-19.57 -32.64,10.14 -72.05,-18.86 -6.47,-4.77 -23.02,-22.49 -27.35,-23.44zm103.5 -101.94c-1.58,-24.41 -24.12,-18.34 -27.68,-35.47 6.07,-6.13 9.5,-3.47 15.44,1.49 27.73,23.18 21.69,27.65 21.59,65 -0.08,27.43 19.41,26.71 22.61,39.92 1.15,4.74 -1.68,8 -6.14,7.5 -2.61,-0.29 -6.77,-4.19 -8.66,-5.78 -27.83,-23.53 -14.68,-34.47 -17.16,-72.66z"/>
   <path fill="#86CEFA" stroke="#3373C4" stroke-width="7.72" stroke-miterlimit="2.61313" d="M362.21 73.56c-2.08,-0.42 2.19,-0.44 0,0zm-47.75 110.12c-8.46,8.65 -17.7,19.34 -28.99,25.82 -2.39,19.63 -0.41,52.99 -0.42,74.11 0,29.1 -3.35,44.66 14.87,59.47 20.8,16.91 65.8,15.53 77.54,-12.58 4.44,-10.62 -4.42,-20.6 -8.04,-28 -11.34,-1.13 -24.52,2.06 -34.17,-3.43 -6.98,-3.97 -15.28,-12.59 -19.73,-17.96 -5.4,-6.52 -3.58,-22.73 -3.47,-33.7 0.15,-15.98 2.09,-17.93 10.34,-26.82 6.76,-7.29 11.26,-12.18 18.67,-18.98 6.72,-6.19 10.71,-12.9 24.1,-13.43 12.18,-0.48 9.65,-1.74 23.38,-14.34 4.41,-4.05 15.32,-15.26 20.04,-17.41l7.01 5.35c-2.21,5.74 -30.96,34.84 -37.27,38.02 -16.93,8.53 -7.48,-13.36 -47.1,29.6 -9.92,10.76 -6.82,12.6 -7.1,31.09 -0.21,14.13 6.22,19.86 13.99,25.58 10.34,7.61 22.15,1.02 32.83,4.98 8.72,3.23 11.23,13.17 17.38,21.39 16.87,2.93 30.93,-0.34 40.49,-8.6 11.27,-9.75 29.35,-54.22 -17.31,-54.56 -16.12,-0.12 -34.79,0.88 -50.55,-0.74 -0.01,-14.57 17.64,-9.99 46.18,-10 43.64,-0.03 24.17,4.47 43.42,15.1 22.42,-6.98 43.57,-39.93 31.95,-71.67 -5.21,-14.22 -13.51,-23.14 -24.41,-28.93 -13.3,-7.06 -31.6,-4.43 -47.92,-6.97 2.53,-16.2 21.97,-8.82 38.39,-10.75 11.94,-36.47 -13.97,-66.37 -38.27,-68.92 -2.1,31.13 -1.05,30.27 -17.9,49.05 -2.98,3.32 -13.02,15.84 -19.51,13.14 -13.65,-5.69 15.96,-22.77 21.87,-38.17 9.1,-23.75 -3.62,-56 -27.83,-69.07 -34.49,-18.62 -81.91,0.02 -81.93,37.91 -0.03,43.67 -1.74,91.59 0.3,134.76 2.34,-1.05 34.27,-27.17 34.79,-40.58 2.07,-53.37 -8.19,-29.1 17.96,-59.05 3.74,-4.28 17.06,-19.8 23.08,-20.65 0.47,-0.07 0.83,-0.13 1.09,-0.18 0.28,0.06 0.68,0.12 1.23,0.19 13.95,1.81 -9.89,22.31 -17.97,30.98 -17.01,18.26 -13.41,9.21 -13.43,41.39 -0.02,23.56 -5.74,25.46 -17.58,37.56z"/>
   <ellipse fill="#CAF0F8" stroke="#86CEFA" stroke-width="11.58" stroke-miterlimit="2.61313" cx="20.15" cy="593.63" rx="7.96" ry="7.71"/>
   <ellipse fill="#CAF0F8" stroke="#86CEFA" stroke-width="11.58" stroke-miterlimit="2.61313" cx="50.72" cy="593.63" rx="7.96" ry="7.71"/>
   <ellipse fill="#CAF0F8" stroke="#86CEFA" stroke-width="11.58" stroke-miterlimit="2.61313" cx="81.28" cy="593.63" rx="7.96" ry="7.71"/>
   <ellipse fill="#CAF0F8" stroke="#86CEFA" stroke-width="11.58" stroke-miterlimit="2.61313" cx="111.84" cy="593.63" rx="7.96" ry="7.71"/>
   <ellipse fill="#CAF0F8" stroke="#86CEFA" stroke-width="11.58" stroke-miterlimit="2.61313" cx="142.4" cy="593.63" rx="7.96" ry="7.71"/>
   <ellipse fill="#CAF0F8" stroke="#86CEFA" stroke-width="11.58" stroke-miterlimit="2.61313" cx="136.85" cy="777" rx="7.96" ry="7.71"/>
   <ellipse fill="#CAF0F8" stroke="#86CEFA" stroke-width="11.58" stroke-miterlimit="2.61313" cx="136.85" cy="696.43" rx="7.96" ry="7.71"/>
   <ellipse fill="#CAF0F8" stroke="#86CEFA" stroke-width="11.58" stroke-miterlimit="2.61313" cx="306.33" cy="771.44" rx="7.96" ry="7.71"/>
   <ellipse fill="#CAF0F8" stroke="#86CEFA" stroke-width="11.58" stroke-miterlimit="2.61313" cx="364.68" cy="771.44" rx="7.96" ry="7.71"/>
   <ellipse fill="#CAF0F8" stroke="#86CEFA" stroke-width="11.58" stroke-miterlimit="2.61313" cx="395.24" cy="771.44" rx="7.96" ry="7.71"/>
   <ellipse fill="#CAF0F8" stroke="#86CEFA" stroke-width="11.58" stroke-miterlimit="2.61313" cx="503.65" cy="333.59" rx="7.96" ry="7.71"/>
   <ellipse fill="#CAF0F8" stroke="#86CEFA" stroke-width="11.58" stroke-miterlimit="2.61313" cx="534.21" cy="333.59" rx="7.96" ry="7.71"/>
   <ellipse fill="#CAF0F8" stroke="#86CEFA" stroke-width="11.58" stroke-miterlimit="2.61313" cx="564.77" cy="333.59" rx="7.96" ry="7.71"/>
   <ellipse fill="#CAF0F8" stroke="#86CEFA" stroke-width="11.58" stroke-miterlimit="2.61313" cx="595.34" cy="333.59" rx="7.96" ry="7.71"/>
   <ellipse fill="#CAF0F8" stroke="#86CEFA" stroke-width="11.58" stroke-miterlimit="2.61313" cx="1204.74" cy="402.92" rx="7.96" ry="7.71"/>
   <ellipse fill="#CAF0F8" stroke="#86CEFA" stroke-width="11.58" stroke-miterlimit="2.61313" cx="1235.31" cy="402.92" rx="7.96" ry="7.71"/>
   <rect fill="#86CEFA" stroke="#3373C4" stroke-width="11.58" stroke-miterlimit="2.61313" x="451.93" y="560.01" width="281.73" height="142.57" rx="7.82" ry="9.64"/>
   <polygon fill="#3373C4" fill-rule="nonzero" points="545.94,651.58 511.83,636.76 511.83,628.56 545.94,613.8 545.94,623.45 522.15,632.55 545.94,642 "/>
   <path id="_1_17" fill="#3373C4" fill-rule="nonzero" d="M587.27 657.28l-8.82 0 0 -5.29c-1.47,2.06 -3.22,3.6 -5.22,4.64 -2.01,1.03 -4.03,1.55 -6.07,1.55 -4.16,0 -7.71,-1.67 -10.67,-5.01 -2.96,-3.35 -4.44,-8 -4.44,-13.99 0,-6.11 1.44,-10.76 4.32,-13.95 2.88,-3.18 6.52,-4.77 10.92,-4.77 4.03,0 7.52,1.68 10.46,5.03l0 -17.95 9.52 0 0 49.74zm-25.42 -18.72c0,3.85 0.53,6.64 1.58,8.37 1.54,2.5 3.68,3.75 6.44,3.75 2.19,0 4.05,-0.94 5.58,-2.81 1.54,-1.88 2.3,-4.67 2.3,-8.4 0,-4.15 -0.74,-7.14 -2.23,-8.97 -1.49,-1.83 -3.39,-2.74 -5.72,-2.74 -2.26,0 -4.15,0.9 -5.67,2.71 -1.52,1.8 -2.28,4.5 -2.28,8.09z"/>
   <path id="_2_18" fill="#3373C4" fill-rule="nonzero" d="M596.63 616.37l0 -8.83 9.52 0 0 8.83 -9.52 0zm0 40.91l0 -36.05 9.52 0 0 36.05 -9.52 0z"/>
   <path id="_3_19" fill="#3373C4" fill-rule="nonzero" d="M625.84 657.28l-14.53 -36.05 10.01 0 6.78 18.39 1.97 6.15c0.52,-1.56 0.85,-2.59 0.98,-3.09 0.33,-1.02 0.66,-2.04 1.03,-3.06l6.88 -18.39 9.79 0 -14.32 36.05 -8.59 0z"/>
   <polygon id="_4_20" fill="#3373C4" fill-rule="nonzero" points="652.76,651.65 652.76,642.07 676.55,632.68 652.76,623.38 652.76,613.86 686.86,628.64 686.86,636.79 "/>
  </g>
 </g>
</svg>
