<svg width="1600" height="900" viewBox="0 0 1600 900" fill="none" xmlns="http://www.w3.org/2000/svg">
  <!-- Palette (Tailwind approximations)
       slate-400  #94A3B8  (strokes)
       indigo-800 #3730A3  (console, deep)
       indigo-700 #4338CA  (panels)
       violet-500 #8B5CF6  (highlights)
       cyan-500   #06B6D4  (accent dots)
  -->
  <defs>
    <!-- Arrowheads -->
    <marker id="arrow" viewBox="0 0 10 10" refX="7" refY="5" markerWidth="8" markerHeight="8" orient="auto-start-reverse">
      <path d="M0 0 L10 5 L0 10 z" fill="#94A3B8" />
    </marker>

    <!-- Subtle indigo radial glow -->
    <radialGradient id="indigoGlow" cx="0" cy="0" r="1" gradientUnits="userSpaceOnUse"
      gradientTransform="translate(800 450) rotate(90) scale(420 700)">
      <stop offset="0" stop-color="#4338CA" stop-opacity="0.35"/>
      <stop offset="1" stop-color="#4338CA" stop-opacity="0"/>
    </radialGradient>

    <!-- Panel gradient -->
    <linearGradient id="panel" x1="0" y1="0" x2="0" y2="1">
      <stop offset="0" stop-color="#4338CA"/>
      <stop offset="1" stop-color="#3730A3"/>
    </linearGradient>

    <!-- Card gradient (slight variation) -->
    <linearGradient id="card" x1="0" y1="0" x2="1" y2="1">
      <stop offset="0" stop-color="#4338CA"/>
      <stop offset="1" stop-color="#3730A3"/>
    </linearGradient>

    <!-- Sparkle gradient -->
    <radialGradient id="spark" cx="0" cy="0" r="1" gradientUnits="userSpaceOnUse"
      gradientTransform="translate(0 0) scale(1)">
      <stop offset="0" stop-color="#8B5CF6"/>
      <stop offset="1" stop-color="#8B5CF6" stop-opacity="0"/>
    </radialGradient>

    <!-- Soft shadow blur -->
    <filter id="soft" x="-50%" y="-50%" width="200%" height="200%">
      <feGaussianBlur in="SourceAlpha" stdDeviation="12" result="blur"/>
      <feColorMatrix in="blur" type="matrix" values="0 0 0 0 0  0 0 0 0 0  0 0 0 0 0  0 0 0 0.25 0" result="shadow"/>
      <feBlend in="SourceGraphic" in2="shadow" mode="normal"/>
    </filter>
  </defs>

  <!-- Background glow -->
  <ellipse cx="800" cy="450" rx="720" ry="430" fill="url(#indigoGlow)"/>

  <!-- Console container -->
  <g id="console" filter="url(#soft)" stroke="#94A3B8" stroke-width="1.75" stroke-linecap="round" stroke-linejoin="round">
    <rect x="250" y="180" width="1100" height="540" rx="24" fill="#141622" fill-opacity="0.0"/>
    <!-- Console inner panel -->
    <rect x="280" y="210" width="1040" height="480" rx="20" fill="url(#panel)" opacity="0.9" />
    <rect x="280" y="210" width="1040" height="480" rx="20" fill="none" />

    <!-- Tiny top controls -->
    <g opacity="0.9">
      <circle cx="310" cy="240" r="5" fill="#06B6D4"/>
      <circle cx="330" cy="240" r="5" fill="#8B5CF6"/>
      <circle cx="350" cy="240" r="5" fill="#94A3B8"/>
    </g>

    <!-- Lane separators (subtle) -->
    <line x1="300" y1="360" x2="1300" y2="360" stroke="#94A3B8" stroke-opacity="0.25"/>
    <line x1="300" y1="510" x2="1300" y2="510" stroke="#94A3B8" stroke-opacity="0.25"/>

    <!-- ===== Lane 1: Form → Enrich → Score → CRM ===== -->
    <g id="lane1" transform="translate(0, 0)">
      <!-- Step cards -->
      <g transform="translate(320, 280)">
        <!-- Form capture card -->
        <rect width="180" height="90" rx="16" fill="url(#card)"/>
        <!-- Form icon -->
        <rect x="20" y="22" width="140" height="12" rx="6" fill="#141622" fill-opacity="0.15" />
        <rect x="20" y="44" width="100" height="12" rx="6" fill="#141622" fill-opacity="0.15" />
        <rect x="20" y="66" width="80"  height="8"  rx="4" fill="#8B5CF6" fill-opacity="0.7"/>
      </g>

      <!-- Arrow to Enrichment -->
      <path d="M520,325 C560,325 580,325 610,325" stroke="#94A3B8" fill="none" marker-end="url(#arrow)"/>

      <g transform="translate(630, 280)">
        <!-- Enrichment card -->
        <rect width="180" height="90" rx="16" fill="url(#card)"/>
        <!-- Data cards + sparkles -->
        <rect x="20" y="26" width="46" height="34" rx="6" fill="#141622" fill-opacity="0.15"/>
        <rect x="74" y="26" width="46" height="34" rx="6" fill="#141622" fill-opacity="0.15"/>
        <rect x="128" y="26" width="32" height="34" rx="6" fill="#141622" fill-opacity="0.15"/>
        <!-- sparkles -->
        <circle cx="40" cy="20" r="6" fill="url(#spark)"/>
        <circle cx="110" cy="18" r="4" fill="url(#spark)"/>
        <circle cx="150" cy="18" r="3" fill="#06B6D4"/>
      </g>

      <!-- Arrow to Scoring -->
      <path d="M830,325 C870,325 890,325 920,325" stroke="#94A3B8" fill="none" marker-end="url(#arrow)"/>

      <g transform="translate(940, 280)">
        <!-- Scoring card -->
        <rect width="180" height="90" rx="16" fill="url(#card)"/>
        <!-- Gauge meter -->
        <path d="M40 72 A35 35 0 1 1 140 72" fill="none" stroke="#94A3B8" stroke-width="1.75"/>
        <path d="M40 72 A35 35 0 0 1 120 50" fill="none" stroke="#8B5CF6" stroke-width="4"/>
        <circle cx="90" cy="72" r="4" fill="#06B6D4"/>
      </g>

      <!-- Arrow to CRM -->
      <path d="M1140,325 C1180,325 1200,325 1230,325" stroke="#94A3B8" fill="none" marker-end="url(#arrow)"/>

      <g transform="translate(1250, 280)">
        <!-- CRM card -->
        <rect width="180" height="90" rx="16" fill="url(#card)"/>
        <!-- Generic CRM logomark (interlocking shapes) -->
        <circle cx="60" cy="48" r="22" fill="#141622" fill-opacity="0.15" />
        <circle cx="100" cy="48" r="22" fill="#8B5CF6" fill-opacity="0.4" />
        <path d="M60 26 C80 26 84 52 100 52" stroke="#94A3B8" />
      </g>
    </g>

    <!-- ===== Lane 2: Drip → Booking ===== -->
    <g id="lane2" transform="translate(0, 150)">
      <g transform="translate(360, 280)">
        <!-- Drip card -->
        <rect width="260" height="90" rx="16" fill="url(#card)"/>
        <!-- Envelope -->
        <rect x="20" y="26" width="64" height="40" rx="8" fill="#141622" fill-opacity="0.15"/>
        <path d="M20 26 L52 46 L84 26" stroke="#94A3B8" fill="none"/>
        <!-- Message bubbles tiles -->
        <rect x="100" y="26" width="56" height="20" rx="6" fill="#141622" fill-opacity="0.15"/>
        <rect x="100" y="52" width="92" height="20" rx="6" fill="#8B5CF6" fill-opacity="0.5"/>
      </g>

      <!-- Curved arrow to calendar -->
      <path d="M640,325 C740,295 880,295 1000,325" stroke="#94A3B8" fill="none" marker-end="url(#arrow)"/>

      <g transform="translate(1020, 280)">
        <!-- Calendar booking card -->
        <rect width="220" height="90" rx="16" fill="url(#card)"/>
        <!-- Calendar icon -->
        <rect x="20" y="30" width="100" height="50" rx="10" fill="#141622" fill-opacity="0.15"/>
        <line x1="20" y1="46" x2="120" y2="46" />
        <circle cx="40" cy="60" r="6" fill="#8B5CF6"/>
        <circle cx="66" cy="60" r="6" fill="#06B6D4"/>
        <circle cx="92" cy="60" r="6" fill="#8B5CF6"/>
        <!-- Check badge -->
        <circle cx="160" cy="56" r="14" fill="#06B6D4" fill-opacity="0.85"/>
        <path d="M152 56 l6 6 l12 -12" stroke="#141622" stroke-width="3" fill="none" stroke-linecap="round" stroke-linejoin="round"/>
      </g>
    </g>

    <!-- ===== Lane 3: Stripe checkout (optional) ===== -->
    <g id="lane3" transform="translate(0, 300)">
      <g transform="translate(520, 280)">
        <!-- Checkout card -->
        <rect width="240" height="90" rx="16" fill="url(#card)"/>
        <!-- Credit card -->
        <rect x="20" y="26" width="120" height="48" rx="10" fill="#141622" fill-opacity="0.15"/>
        <rect x="28" y="36" width="44" height="8" rx="4" fill="#8B5CF6" fill-opacity="0.7"/>
        <rect x="28" y="52" width="72" height="8" rx="4" fill="#141622" fill-opacity="0.15"/>
        <!-- $ badge -->
        <circle cx="180" cy="50" r="16" fill="#8B5CF6" fill-opacity="0.9"/>
        <path d="M180 40 v20 M173 46 h14 M173 54 h14" stroke="#141622" stroke-width="2.5" stroke-linecap="round"/>
      </g>

      <!-- Light curved arrow to indicate optional flow -->
      <path d="M760,325 C820,325 860,325 900,325" stroke="#94A3B8" stroke-dasharray="6 8" fill="none" marker-end="url(#arrow)"/>
      <g transform="translate(920, 280)">
        <rect width="220" height="90" rx="16" fill="url(#card)" opacity="0.65"/>
        <!-- Placeholder subtle success indicator -->
        <circle cx="180" cy="50" r="12" fill="#06B6D4" fill-opacity="0.8"/>
        <path d="M174 50 l6 6 l12 -12" stroke="#141622" stroke-width="3" fill="none" stroke-linecap="round" stroke-linejoin="round"/>
      </g>
    </g>
  </g>

  <!-- Floating UI chips around the console -->
  <g id="chips" stroke="#94A3B8" stroke-width="1.75" stroke-linecap="round" stroke-linejoin="round">
    <!-- Tag chip -->
    <g transform="translate(290, 170)">
      <rect x="0" y="0" width="80" height="30" rx="12" fill="#3730A3" />
      <circle cx="20" cy="15" r="6" fill="#06B6D4"/>
      <line x1="36" y1="10" x2="68" y2="10"/>
      <line x1="36" y1="20" x2="60" y2="20"/>
    </g>

    <!-- Avatar chip -->
    <g transform="translate(1270, 170)">
      <rect x="0" y="0" width="56" height="56" rx="20" fill="#3730A3"/>
      <circle cx="28" cy="22" r="10" fill="#8B5CF6" />
      <path d="M12 46 C18 36 38 36 44 46" />
    </g>

    <!-- Lightning bolt chip -->
    <g transform="translate(1240, 720)">
      <rect x="0" y="0" width="64" height="36" rx="12" fill="#3730A3"/>
      <path d="M28 8 L18 24 H30 L24 36 L46 18 H34 L40 8 Z" fill="#8B5CF6" />
      <circle cx="54" cy="10" r="4" fill="#06B6D4"/>
    </g>

    <!-- Cyan accent dots -->
    <circle cx="260" cy="260" r="4" fill="#06B6D4"/>
    <circle cx="1340" cy="270" r="3" fill="#06B6D4"/>
    <circle cx="1360" cy="700" r="5" fill="#06B6D4"/>
    <circle cx="300" cy="700" r="3" fill="#06B6D4"/>
  </g>
</svg>
