<svg xmlns="http://www.w3.org/2000/svg" width="1600" height="1000" viewBox="0 0 1600 1000">

<defs>
  <linearGradient id="gradPB" x1="0%" y1="0%" x2="100%" y2="0%">
    <stop offset="0%" stop-color="#7C3AED"/>
    <stop offset="100%" stop-color="#2563EB"/>
  </linearGradient>
  <marker id="arrow" markerWidth="12" markerHeight="12" refX="10" refY="6" orient="auto">
    <path d="M0,0 L12,6 L0,12 z" fill="#2563EB" />
  </marker>
  <marker id="arrow-purple" markerWidth="12" markerHeight="12" refX="10" refY="6" orient="auto">
    <path d="M0,0 L12,6 L0,12 z" fill="#7C3AED" />
  </marker>
</defs>


<text x="40" y="60" font-family="Inter, ui-sans-serif, system-ui" font-weight="800" font-size="40" fill="#0F172A">
  Feature Flags & Gradual Rollout
</text>
<text x="40" y="92" font-family="Inter, ui-sans-serif" font-size="20" fill="#475569">
  Toggles • % rollouts • Canary • Rollback • Deployment stages • User segments
</text>

<rect x="40" y="120" width="420" height="240" rx="24" fill="none" stroke="url(#gradPB)" stroke-width="2" opacity="1"/><text x="60" y="162" font-family="Inter, ui-sans-serif, system-ui, -apple-system, Segoe UI" font-weight="700" font-size="26" fill="#0F172A">Feature Flags</text><text x="60" y="192" font-family="Inter, ui-sans-serif, system-ui, -apple-system, Segoe UI" font-weight="400" font-size="20" fill="#475569">Enable features safely by segment</text>
<text x="60" y="172" font-family="Inter, ui-sans-serif" font-size="18" fill="#0F172A">Feature A (new checkout)</text><rect x="60" y="180" rx="20.0" width="140" height="40" fill="#7C3AED" stroke="#7C3AED" stroke-width="2" opacity="0.15"/><circle cx="180.0" cy="200.0" r="16.0" fill="#FFFFFF" stroke="#7C3AED" stroke-width="2"/><text x="60" y="232" font-family="Inter, ui-sans-serif" font-size="18" fill="#0F172A">Feature B (search v2)</text><rect x="60" y="240" rx="20.0" width="140" height="40" fill="none" stroke="#475569" stroke-width="2" opacity="1"/><circle cx="80.0" cy="260.0" r="16.0" fill="#FFFFFF" stroke="#475569" stroke-width="2"/><text x="60" y="292" font-family="Inter, ui-sans-serif" font-size="18" fill="#0F172A">Feature C (AI hints)</text><rect x="60" y="300" rx="20.0" width="140" height="40" fill="#7C3AED" stroke="#7C3AED" stroke-width="2" opacity="0.15"/><circle cx="180.0" cy="320.0" r="16.0" fill="#FFFFFF" stroke="#7C3AED" stroke-width="2"/>
<rect x="520" y="120" width="520" height="240" rx="24" fill="none" stroke="url(#gradPB)" stroke-width="2" opacity="1"/><text x="540" y="162" font-family="Inter, ui-sans-serif, system-ui, -apple-system, Segoe UI" font-weight="700" font-size="26" fill="#0F172A">Gradual Rollout</text><text x="540" y="192" font-family="Inter, ui-sans-serif, system-ui, -apple-system, Segoe UI" font-weight="400" font-size="20" fill="#475569">Progressive exposure by percentage</text>

    <circle cx="620" cy="240" r="44" fill="none" stroke="#E2E8F0" stroke-width="14" />
    <circle cx="620" cy="240" r="44" fill="none" stroke="#2563EB" stroke-width="14" stroke-linecap="round"
      stroke-dasharray="2.76 273.70" transform="rotate(-90 620 240)" />
    <text x="620" y="246" text-anchor="middle" font-family="Inter, ui-sans-serif" font-size="20" fill="#0F172A" font-weight="700">1%</text>
    
    <circle cx="720" cy="240" r="44" fill="none" stroke="#E2E8F0" stroke-width="14" />
    <circle cx="720" cy="240" r="44" fill="none" stroke="#2563EB" stroke-width="14" stroke-linecap="round"
      stroke-dasharray="13.82 262.64" transform="rotate(-90 720 240)" />
    <text x="720" y="246" text-anchor="middle" font-family="Inter, ui-sans-serif" font-size="20" fill="#0F172A" font-weight="700">5%</text>
    
    <circle cx="820" cy="240" r="44" fill="none" stroke="#E2E8F0" stroke-width="14" />
    <circle cx="820" cy="240" r="44" fill="none" stroke="#2563EB" stroke-width="14" stroke-linecap="round"
      stroke-dasharray="69.12 207.35" transform="rotate(-90 820 240)" />
    <text x="820" y="246" text-anchor="middle" font-family="Inter, ui-sans-serif" font-size="20" fill="#0F172A" font-weight="700">25%</text>
    
    <circle cx="920" cy="240" r="44" fill="none" stroke="#E2E8F0" stroke-width="14" />
    <circle cx="920" cy="240" r="44" fill="none" stroke="#2563EB" stroke-width="14" stroke-linecap="round"
      stroke-dasharray="138.23 138.23" transform="rotate(-90 920 240)" />
    <text x="920" y="246" text-anchor="middle" font-family="Inter, ui-sans-serif" font-size="20" fill="#0F172A" font-weight="700">50%</text>
    
    <circle cx="1020" cy="240" r="44" fill="none" stroke="#E2E8F0" stroke-width="14" />
    <circle cx="1020" cy="240" r="44" fill="none" stroke="#7C3AED" stroke-width="14" stroke-linecap="round"
      stroke-dasharray="276.46 0.00" transform="rotate(-90 1020 240)" />
    <text x="1020" y="246" text-anchor="middle" font-family="Inter, ui-sans-serif" font-size="20" fill="#0F172A" font-weight="700">100%</text>
    

<text x="620" y="190" text-anchor="middle" font-family="Inter, ui-sans-serif" font-size="16" fill="#475569">canary</text>
<text x="720" y="190" text-anchor="middle" font-family="Inter, ui-sans-serif" font-size="16" fill="#475569">5%</text>
<text x="820" y="190" text-anchor="middle" font-family="Inter, ui-sans-serif" font-size="16" fill="#475569">25%</text>
<text x="920" y="190" text-anchor="middle" font-family="Inter, ui-sans-serif" font-size="16" fill="#475569">50%</text>
<text x="1020" y="190" text-anchor="middle" font-family="Inter, ui-sans-serif" font-size="16" fill="#475569">100%</text>

<rect x="1080" y="120" width="480" height="240" rx="24" fill="none" stroke="url(#gradPB)" stroke-width="2" opacity="1"/><text x="1100" y="162" font-family="Inter, ui-sans-serif, system-ui, -apple-system, Segoe UI" font-weight="700" font-size="26" fill="#0F172A">Canary Deployments</text><text x="1100" y="192" font-family="Inter, ui-sans-serif, system-ui, -apple-system, Segoe UI" font-weight="400" font-size="20" fill="#475569">Small blast radius before full release</text>
<rect x="1110" y="210" width="150" height="60" rx="14" fill="none" stroke="#2563EB" stroke-width="2" opacity="1"/><text x="1185" y="246" text-anchor="middle" font-family="Inter, ui-sans-serif" font-size="18" fill="#0F172A">Canary 1%</text><rect x="1310" y="210" width="230" height="60" rx="14" fill="none" stroke="#7C3AED" stroke-width="2" opacity="1"/><text x="1425" y="246" text-anchor="middle" font-family="Inter, ui-sans-serif" font-size="18" fill="#0F172A">Production 99%</text><line x1="1260" y1="240" x2="1310" y2="240" stroke="#2563EB" stroke-width="2.5" marker-end="url(#arrow)"/>
<line x1="460" y1="200" x2="520" y2="200" stroke="#2563EB" stroke-width="2.5" marker-end="url(#arrow)"/><line x1="460" y1="260" x2="520" y2="260" stroke="#2563EB" stroke-width="2.5" marker-end="url(#arrow)"/><line x1="460" y1="320" x2="520" y2="320" stroke="#2563EB" stroke-width="2.5" marker-end="url(#arrow)"/>
<rect x="40" y="400" width="520" height="240" rx="24" fill="none" stroke="url(#gradPB)" stroke-width="2" opacity="1"/><text x="60" y="442" font-family="Inter, ui-sans-serif, system-ui, -apple-system, Segoe UI" font-weight="700" font-size="26" fill="#0F172A">User Segments</text><text x="60" y="472" font-family="Inter, ui-sans-serif, system-ui, -apple-system, Segoe UI" font-weight="400" font-size="20" fill="#475569">Target who sees the feature</text>
<g>
    <rect x="60" y="444" width="150" height="40" rx="20" fill="none" stroke="#7C3AED" stroke-width="2"/>
    <text x="80" y="472" font-family="Inter, ui-sans-serif" font-size="18" fill="#0F172A">Beta cohort</text>
</g><g>
    <rect x="220" y="444" width="140" height="40" rx="20" fill="none" stroke="#2563EB" stroke-width="2"/>
    <text x="240" y="472" font-family="Inter, ui-sans-serif" font-size="18" fill="#0F172A">Region: EU</text>
</g><g>
    <rect x="380" y="444" width="220" height="40" rx="20" fill="none" stroke="#7C3AED" stroke-width="2"/>
    <text x="400" y="472" font-family="Inter, ui-sans-serif" font-size="18" fill="#0F172A">Enterprise tenants</text>
</g><g>
    <rect x="60" y="494" width="170" height="40" rx="20" fill="none" stroke="#2563EB" stroke-width="2"/>
    <text x="80" y="522" font-family="Inter, ui-sans-serif" font-size="18" fill="#0F172A">Platform: iOS</text>
</g><g>
    <rect x="220" y="494" width="210" height="40" rx="20" fill="none" stroke="#2563EB" stroke-width="2"/>
    <text x="240" y="522" font-family="Inter, ui-sans-serif" font-size="18" fill="#0F172A">Platform: Android</text>
</g><g>
    <rect x="380" y="494" width="180" height="40" rx="20" fill="none" stroke="#7C3AED" stroke-width="2"/>
    <text x="400" y="522" font-family="Inter, ui-sans-serif" font-size="18" fill="#0F172A">New users < 7d</text>
</g>
<path d="M560,520 C620,520 600,260 520,260" fill="none" stroke="#7C3AED" stroke-width="2.5" marker-end="url(#arrow-purple)"/>
<rect x="600" y="400" width="960" height="240" rx="24" fill="none" stroke="url(#gradPB)" stroke-width="2" opacity="1"/><text x="620" y="442" font-family="Inter, ui-sans-serif, system-ui, -apple-system, Segoe UI" font-weight="700" font-size="26" fill="#0F172A">Deployment Stages</text><text x="620" y="472" font-family="Inter, ui-sans-serif, system-ui, -apple-system, Segoe UI" font-weight="400" font-size="20" fill="#475569">Promote builds across environments</text>
<rect x="630" y="500" width="150" height="70" rx="16" fill="none" stroke="url(#gradPB)" stroke-width="2"/><text x="705" y="542" text-anchor="middle" font-family="Inter, ui-sans-serif" font-size="18" fill="#0F172A" font-weight="600">Dev</text><rect x="820" y="500" width="150" height="70" rx="16" fill="none" stroke="url(#gradPB)" stroke-width="2"/><text x="895" y="542" text-anchor="middle" font-family="Inter, ui-sans-serif" font-size="18" fill="#0F172A" font-weight="600">QA</text><rect x="1010" y="500" width="150" height="70" rx="16" fill="none" stroke="url(#gradPB)" stroke-width="2"/><text x="1085" y="542" text-anchor="middle" font-family="Inter, ui-sans-serif" font-size="18" fill="#0F172A" font-weight="600">Staging</text><rect x="1200" y="500" width="150" height="70" rx="16" fill="none" stroke="url(#gradPB)" stroke-width="2"/><text x="1275" y="542" text-anchor="middle" font-family="Inter, ui-sans-serif" font-size="18" fill="#0F172A" font-weight="600">Prod (canary)</text><rect x="1390" y="500" width="150" height="70" rx="16" fill="none" stroke="url(#gradPB)" stroke-width="2"/><text x="1465" y="542" text-anchor="middle" font-family="Inter, ui-sans-serif" font-size="18" fill="#0F172A" font-weight="600">Prod (full)</text>
<line x1="780" y1="535" x2="820" y2="535" stroke="#2563EB" stroke-width="2.5" marker-end="url(#arrow)"/><line x1="970" y1="535" x2="1010" y2="535" stroke="#2563EB" stroke-width="2.5" marker-end="url(#arrow)"/><line x1="1160" y1="535" x2="1200" y2="535" stroke="#2563EB" stroke-width="2.5" marker-end="url(#arrow)"/><line x1="1350" y1="535" x2="1390" y2="535" stroke="#2563EB" stroke-width="2.5" marker-end="url(#arrow)"/>
<rect x="1080" y="660" width="480" height="260" rx="24" fill="none" stroke="url(#gradPB)" stroke-width="2" opacity="1"/><text x="1100" y="702" font-family="Inter, ui-sans-serif, system-ui, -apple-system, Segoe UI" font-weight="700" font-size="26" fill="#0F172A">Rollback Mechanisms</text><text x="1100" y="732" font-family="Inter, ui-sans-serif, system-ui, -apple-system, Segoe UI" font-weight="400" font-size="20" fill="#475569">Instant disable or revert</text>

<g>
  <path d="M1160 760 a45 45 0 1 0 0.1 0" fill="none" stroke="#7C3AED" stroke-width="3"/>
  <path d="M1116 744 L1160 760 L1132 792 Z" fill="#7C3AED"/>
  <text x="1208" y="764" font-family="Inter, ui-sans-serif" font-size="18" fill="#0F172A" font-weight="600">Kill switch</text>
</g>
<g>
  <rect x="1100" y="800" width="320" height="48" rx="12" fill="none" stroke="#2563EB" stroke-width="2"/>
  <text x="1260" y="830" text-anchor="middle" font-family="Inter, ui-sans-serif" font-size="18" fill="#0F172A">Revert to previous version</text>
</g>
<g>
  <rect x="1100" y="860" width="320" height="48" rx="12" fill="none" stroke="#7C3AED" stroke-width="2"/>
  <text x="1260" y="890" text-anchor="middle" font-family="Inter, ui-sans-serif" font-size="18" fill="#0F172A">Auto-rollback on error budget</text>
</g>


<g>
  <circle cx="44" cy="950" r="8" fill="#7C3AED"/><text x="60" y="955" font-family="Inter, ui-sans-serif" font-size="16" fill="#475569">Feature/config-driven controls</text>
  <circle cx="380" cy="950" r="8" fill="#2563EB"/><text x="396" y="955" font-family="Inter, ui-sans-serif" font-size="16" fill="#475569">Traffic flow & promotion</text>
</g>

</svg>
