<svg width="600" height="400" viewBox="0 0 600 400" xmlns="http://www.w3.org/2000/svg">
  <defs>
    <!-- Gradient definitions -->
    <linearGradient id="purpleGradient" x1="0%" y1="0%" x2="0%" y2="100%">
      <stop offset="0%" style="stop-color:#9b59b6;stop-opacity:1" />
      <stop offset="100%" style="stop-color:#7d3c98;stop-opacity:1" />
    </linearGradient>
    <linearGradient id="blueGradient" x1="0%" y1="0%" x2="0%" y2="100%">
      <stop offset="0%" style="stop-color:#3498db;stop-opacity:1" />
      <stop offset="100%" style="stop-color:#2874a6;stop-opacity:1" />
    </linearGradient>
  </defs>
  
  <!-- Title -->
  <text x="300" y="30" font-family="Arial, sans-serif" font-size="24" font-weight="bold" fill="#2874a6" text-anchor="middle">
    Mode Comparison
  </text>
  
  <!-- Left Column - Copilot Mode -->
  <g id="copilot-section">
    <!-- Header Box -->
    <rect x="30" y="60" width="240" height="50" rx="8" fill="url(#purpleGradient)" opacity="0.9"/>
    <text x="150" y="90" font-family="Arial, sans-serif" font-size="18" font-weight="bold" fill="white" text-anchor="middle">
      COPILOT MODE
    </text>
    
    <!-- Toggle Switch -->
    <g transform="translate(130, 120)">
      <rect x="0" y="0" width="40" height="20" rx="10" fill="#9b59b6" stroke="#7d3c98" stroke-width="2"/>
      <circle cx="12" cy="10" r="7" fill="white"/>
      <text x="50" y="14" font-family="Arial, sans-serif" font-size="13" fill="#9b59b6">Manual</text>
    </g>
    
    <!-- Workflow Steps -->
    <!-- Step 1 -->
    <rect x="60" y="150" width="180" height="40" rx="5" fill="#ecf0f1" stroke="#9b59b6" stroke-width="2"/>
    <text x="150" y="175" font-family="Arial, sans-serif" font-size="15" fill="#2874a6" text-anchor="middle">
      1. Task Initiated
    </text>
    
    <!-- Human Approval Gate 1 -->
    <circle cx="150" cy="210" r="20" fill="#9b59b6" opacity="0.9"/>
    <g transform="translate(150, 210)">
      <!-- Human icon -->
      <circle cx="0" cy="-5" r="5" fill="white"/>
      <path d="M -6,2 L -6,8 L -3,12 L 3,12 L 6,8 L 6,2 Z" fill="white"/>
    </g>
    <text x="150" y="240" font-family="Arial, sans-serif" font-size="9" fill="#9b59b6" text-anchor="middle" font-weight="bold">
      APPROVAL
    </text>
    
    <!-- Arrow -->
    <path d="M 150,245 L 150,255" stroke="#9b59b6" stroke-width="2" fill="none" marker-end="url(#arrowPurple)"/>
    
    <!-- Step 2 -->
    <rect x="60" y="260" width="180" height="40" rx="5" fill="#ecf0f1" stroke="#9b59b6" stroke-width="2"/>
    <text x="150" y="285" font-family="Arial, sans-serif" font-size="15" fill="#2874a6" text-anchor="middle">
      2. Process Execute
    </text>
    
    <!-- Human Approval Gate 2 -->
    <circle cx="150" cy="320" r="20" fill="#9b59b6" opacity="0.9"/>
    <g transform="translate(150, 320)">
      <!-- Human icon -->
      <circle cx="0" cy="-5" r="5" fill="white"/>
      <path d="M -6,2 L -6,8 L -3,12 L 3,12 L 6,8 L 6,2 Z" fill="white"/>
    </g>
    <text x="150" y="350" font-family="Arial, sans-serif" font-size="9" fill="#9b59b6" text-anchor="middle" font-weight="bold">
      APPROVAL
    </text>
    
    <!-- Arrow -->
    <path d="M 150,355 L 150,365" stroke="#9b59b6" stroke-width="2" fill="none" marker-end="url(#arrowPurple)"/>
    
    <!-- Final Step -->
    <rect x="60" y="370" width="180" height="20" rx="5" fill="#9b59b6" opacity="0.9"/>
    <text x="150" y="384" font-family="Arial, sans-serif" font-size="11" fill="white" text-anchor="middle" font-weight="bold">
      Completed
    </text>
  </g>
  
  <!-- Right Column - Autopilot Mode -->
  <g id="autopilot-section">
    <!-- Header Box -->
    <rect x="330" y="60" width="240" height="50" rx="8" fill="url(#blueGradient)" opacity="0.9"/>
    <text x="450" y="90" font-family="Arial, sans-serif" font-size="18" font-weight="bold" fill="white" text-anchor="middle">
      AUTOPILOT MODE
    </text>
    
    <!-- Toggle Switch -->
    <g transform="translate(430, 120)">
      <rect x="0" y="0" width="40" height="20" rx="10" fill="#3498db" stroke="#2874a6" stroke-width="2"/>
      <circle cx="28" cy="10" r="7" fill="white"/>
      <text x="-38" y="14" font-family="Arial, sans-serif" font-size="13" fill="#2874a6">Auto</text>
    </g>
    
    <!-- Workflow Steps -->
    <!-- Step 1 -->
    <rect x="360" y="150" width="180" height="40" rx="5" fill="#ecf0f1" stroke="#3498db" stroke-width="2"/>
    <text x="450" y="175" font-family="Arial, sans-serif" font-size="15" fill="#2874a6" text-anchor="middle">
      1. Task Initiated
    </text>
    
    <!-- Automation Symbol 1 -->
    <circle cx="450" cy="210" r="20" fill="#3498db" opacity="0.9"/>
    <g transform="translate(450, 210)">
      <!-- Gear/Cog icon -->
      <circle cx="0" cy="0" r="8" fill="none" stroke="white" stroke-width="2"/>
      <circle cx="0" cy="0" r="3" fill="white"/>
      <path d="M 0,-8 L 0,-12 M 0,8 L 0,12 M -8,0 L -12,0 M 8,0 L 12,0" stroke="white" stroke-width="2"/>
    </g>
    <text x="450" y="240" font-family="Arial, sans-serif" font-size="9" fill="#3498db" text-anchor="middle" font-weight="bold">
      AUTO
    </text>
    
    <!-- Arrow -->
    <path d="M 450,245 L 450,255" stroke="#3498db" stroke-width="2" fill="none" marker-end="url(#arrowBlue)"/>
    
    <!-- Step 2 -->
    <rect x="360" y="260" width="180" height="40" rx="5" fill="#ecf0f1" stroke="#3498db" stroke-width="2"/>
    <text x="450" y="285" font-family="Arial, sans-serif" font-size="15" fill="#2874a6" text-anchor="middle">
      2. Process Execute
    </text>
    
    <!-- Automation Symbol 2 -->
    <circle cx="450" cy="320" r="20" fill="#3498db" opacity="0.9"/>
    <g transform="translate(450, 320)">
      <!-- Gear/Cog icon -->
      <circle cx="0" cy="0" r="8" fill="none" stroke="white" stroke-width="2"/>
      <circle cx="0" cy="0" r="3" fill="white"/>
      <path d="M 0,-8 L 0,-12 M 0,8 L 0,12 M -8,0 L -12,0 M 8,0 L 12,0" stroke="white" stroke-width="2"/>
    </g>
    <text x="450" y="350" font-family="Arial, sans-serif" font-size="9" fill="#3498db" text-anchor="middle" font-weight="bold">
      AUTO
    </text>
    
    <!-- Arrow -->
    <path d="M 450,355 L 450,365" stroke="#3498db" stroke-width="2" fill="none" marker-end="url(#arrowBlue)"/>
    
    <!-- Final Step -->
    <rect x="360" y="370" width="180" height="20" rx="5" fill="#3498db" opacity="0.9"/>
    <text x="450" y="384" font-family="Arial, sans-serif" font-size="11" fill="white" text-anchor="middle" font-weight="bold">
      Completed
    </text>
  </g>
  
  <!-- Divider Line -->
  <line x1="300" y1="60" x2="300" y2="395" stroke="#bdc3c7" stroke-width="2" stroke-dasharray="5,5" opacity="0.5"/>
  
  <!-- Arrow markers -->
  <defs>
    <marker id="arrowPurple" markerWidth="10" markerHeight="10" refX="5" refY="5" orient="auto">
      <path d="M 0,0 L 10,5 L 0,10 Z" fill="#9b59b6"/>
    </marker>
    <marker id="arrowBlue" markerWidth="10" markerHeight="10" refX="5" refY="5" orient="auto">
      <path d="M 0,0 L 10,5 L 0,10 Z" fill="#3498db"/>
    </marker>
  </defs>
</svg>
