<svg viewBox="0 0 4800 900" xmlns="http://www.w3.org/2000/svg">
  <defs>
    <linearGradient id="purpleGrad" x1="0%" y1="0%" x2="100%" y2="100%">
      <stop offset="0%" style="stop-color:#7c3aed;stop-opacity:1" />
      <stop offset="100%" style="stop-color:#a78bfa;stop-opacity:1" />
    </linearGradient>
    <linearGradient id="blueGrad" x1="0%" y1="0%" x2="100%" y2="100%">
      <stop offset="0%" style="stop-color:#3b82f6;stop-opacity:1" />
      <stop offset="100%" style="stop-color:#60a5fa;stop-opacity:1" />
    </linearGradient>
  </defs>
  
  <!-- Step 1: Browse -->
  <g transform="translate(200, 250)">
    <circle cx="200" cy="200" r="180" fill="url(#purpleGrad)" opacity="0.15"/>
    <circle cx="200" cy="200" r="160" fill="none" stroke="url(#purpleGrad)" stroke-width="10"/>
    <!-- Grid Icon -->
    <rect x="140" y="140" width="40" height="40" fill="#7c3aed" rx="4"/>
    <rect x="200" y="140" width="40" height="40" fill="#7c3aed" rx="4"/>
    <rect x="140" y="200" width="40" height="40" fill="#7c3aed" rx="4"/>
    <rect x="200" y="200" width="40" height="40" fill="#7c3aed" rx="4"/>
    <text x="200" y="480" text-anchor="middle" font-family="Arial, sans-serif" font-size="56" font-weight="600" fill="#3b82f6">Browse</text>
    <text x="200" y="538" text-anchor="middle" font-family="Arial, sans-serif" font-size="38" fill="#60a5fa">Explore Items</text>
  </g>
  
  <!-- Arrow 1 -->
  <path d="M 600 450 L 800 450" stroke="#7c3aed" stroke-width="8" fill="none" marker-end="url(#arrowhead1)"/>
  <defs>
    <marker id="arrowhead1" markerWidth="40" markerHeight="40" refX="32" refY="12" orient="auto">
      <polygon points="0 0, 40 12, 0 24" fill="#7c3aed"/>
    </marker>
  </defs>
  
  <!-- Step 2: View Details -->
  <g transform="translate(800, 250)">
    <circle cx="200" cy="200" r="180" fill="url(#blueGrad)" opacity="0.15"/>
    <circle cx="200" cy="200" r="160" fill="none" stroke="url(#blueGrad)" stroke-width="10"/>
    <!-- Magnifying Glass Icon -->
    <circle cx="184" cy="184" r="40" fill="none" stroke="#3b82f6" stroke-width="10"/>
    <line x1="212" y1="212" x2="240" y2="240" stroke="#3b82f6" stroke-width="10" stroke-linecap="round"/>
    <text x="200" y="480" text-anchor="middle" font-family="Arial, sans-serif" font-size="56" font-weight="600" fill="#3b82f6">View Details</text>
    <text x="200" y="538" text-anchor="middle" font-family="Arial, sans-serif" font-size="38" fill="#60a5fa">Check Info</text>
  </g>
  
  <!-- Arrow 2 -->
  <path d="M 1200 450 L 1400 450" stroke="#3b82f6" stroke-width="8" fill="none" marker-end="url(#arrowhead2)"/>
  <defs>
    <marker id="arrowhead2" markerWidth="40" markerHeight="40" refX="32" refY="12" orient="auto">
      <polygon points="0 0, 40 12, 0 24" fill="#3b82f6"/>
    </marker>
  </defs>
  
  <!-- Step 3: Purchase -->
  <g transform="translate(1400, 250)">
    <circle cx="200" cy="200" r="180" fill="url(#purpleGrad)" opacity="0.15"/>
    <circle cx="200" cy="200" r="160" fill="none" stroke="url(#purpleGrad)" stroke-width="10"/>
    <!-- Credit Card Icon -->
    <rect x="144" y="172" width="112" height="72" rx="8" fill="none" stroke="#7c3aed" stroke-width="8"/>
    <line x1="144" y1="196" x2="256" y2="196" stroke="#7c3aed" stroke-width="8"/>
    <line x1="160" y1="220" x2="200" y2="220" stroke="#7c3aed" stroke-width="6"/>
    <text x="200" y="480" text-anchor="middle" font-family="Arial, sans-serif" font-size="56" font-weight="600" fill="#3b82f6">Purchase</text>
    <text x="200" y="538" text-anchor="middle" font-family="Arial, sans-serif" font-size="38" fill="#60a5fa">Secure Payment</text>
    <!-- Escrow Protection Badge -->
    <g transform="translate(80, -60)">
      <rect x="0" y="0" width="240" height="64" rx="32" fill="#10b981" opacity="0.9"/>
      <text x="120" y="44" text-anchor="middle" font-family="Arial, sans-serif" font-size="36" font-weight="600" fill="white">ESCROW</text>
    </g>
  </g>
  
  <!-- Arrow 3 -->
  <path d="M 1800 450 L 2000 450" stroke="#7c3aed" stroke-width="8" fill="none" marker-end="url(#arrowhead3)"/>
  <defs>
    <marker id="arrowhead3" markerWidth="40" markerHeight="40" refX="32" refY="12" orient="auto">
      <polygon points="0 0, 40 12, 0 24" fill="#7c3aed"/>
    </marker>
  </defs>
  
  <!-- Step 4: Transfer -->
  <g transform="translate(2000, 250)">
    <circle cx="200" cy="200" r="180" fill="url(#blueGrad)" opacity="0.15"/>
    <circle cx="200" cy="200" r="160" fill="none" stroke="url(#blueGrad)" stroke-width="10"/>
    <!-- Handshake Icon -->
    <path d="M 160 208 L 176 192 L 192 208 L 208 192 L 224 208 L 240 192" stroke="#3b82f6" stroke-width="8" fill="none" stroke-linecap="round" stroke-linejoin="round"/>
    <rect x="152" y="208" width="24" height="32" fill="#3b82f6" rx="4"/>
    <rect x="224" y="208" width="24" height="32" fill="#3b82f6" rx="4"/>
    <text x="200" y="480" text-anchor="middle" font-family="Arial, sans-serif" font-size="56" font-weight="600" fill="#3b82f6">Transfer</text>
    <text x="200" y="538" text-anchor="middle" font-family="Arial, sans-serif" font-size="38" fill="#60a5fa">Asset Delivery</text>
  </g>
  
  <!-- Arrow 4 -->
  <path d="M 2400 450 L 2600 450" stroke="#3b82f6" stroke-width="8" fill="none" marker-end="url(#arrowhead4)"/>
  <defs>
    <marker id="arrowhead4" markerWidth="40" markerHeight="40" refX="32" refY="12" orient="auto">
      <polygon points="0 0, 40 12, 0 24" fill="#3b82f6"/>
    </marker>
  </defs>
  
  <!-- Step 5: Payout -->
  <g transform="translate(2600, 250)">
    <circle cx="200" cy="200" r="180" fill="url(#purpleGrad)" opacity="0.15"/>
    <circle cx="200" cy="200" r="160" fill="none" stroke="url(#purpleGrad)" stroke-width="10"/>
    <!-- Money Icon -->
    <circle cx="200" cy="200" r="48" fill="none" stroke="#7c3aed" stroke-width="10"/>
    <text x="200" y="224" text-anchor="middle" font-family="Arial, sans-serif" font-size="64" font-weight="700" fill="#7c3aed">$</text>
    <text x="200" y="480" text-anchor="middle" font-family="Arial, sans-serif" font-size="56" font-weight="600" fill="#3b82f6">Payout</text>
    <text x="200" y="538" text-anchor="middle" font-family="Arial, sans-serif" font-size="38" fill="#60a5fa">Funds Released</text>
    <!-- Stripe Connect Logo -->
    <g transform="translate(48, -60)">
      <rect x="0" y="0" width="304" height="64" rx="32" fill="#635bff" opacity="0.95"/>
      <text x="152" y="44" text-anchor="middle" font-family="Arial, sans-serif" font-size="36" font-weight="600" fill="white">stripe connect</text>
    </g>
  </g>
</svg>
