<svg viewBox="0 0 3600 900" xmlns="http://www.w3.org/2000/svg">
  <defs>
    <linearGradient id="purpleGrad" x1="0%" y1="0%" x2="100%" y2="100%">
      <stop offset="0%" style="stop-color:#7c3aed;stop-opacity:1" />
      <stop offset="100%" style="stop-color:#a78bfa;stop-opacity:1" />
    </linearGradient>
    <linearGradient id="blueGrad" x1="0%" y1="0%" x2="100%" y2="100%">
      <stop offset="0%" style="stop-color:#3b82f6;stop-opacity:1" />
      <stop offset="100%" style="stop-color:#60a5fa;stop-opacity:1" />
    </linearGradient>
  </defs>
  
  <!-- Step 1: Browse -->
  <g transform="translate(150, 300)">
    <circle cx="150" cy="150" r="135" fill="url(#purpleGrad)" opacity="0.15"/>
    <circle cx="150" cy="150" r="120" fill="none" stroke="url(#purpleGrad)" stroke-width="7.5"/>
    <!-- Grid Icon -->
    <rect x="105" y="105" width="30" height="30" fill="#7c3aed" rx="3"/>
    <rect x="150" y="105" width="30" height="30" fill="#7c3aed" rx="3"/>
    <rect x="105" y="150" width="30" height="30" fill="#7c3aed" rx="3"/>
    <rect x="150" y="150" width="30" height="30" fill="#7c3aed" rx="3"/>
    <text x="150" y="360" text-anchor="middle" font-family="Arial, sans-serif" font-size="48" font-weight="600" fill="#3b82f6">Browse</text>
    <text x="150" y="414" text-anchor="middle" font-family="Arial, sans-serif" font-size="33" fill="#60a5fa">Explore Items</text>
  </g>
  
  <!-- Arrow 1 -->
  <path d="M 450 450 L 630 450" stroke="#7c3aed" stroke-width="6" fill="none" marker-end="url(#arrowhead1)"/>
  <defs>
    <marker id="arrowhead1" markerWidth="30" markerHeight="30" refX="24" refY="9" orient="auto">
      <polygon points="0 0, 30 9, 0 18" fill="#7c3aed"/>
    </marker>
  </defs>
  
  <!-- Step 2: View Details -->
  <g transform="translate(630, 300)">
    <circle cx="150" cy="150" r="135" fill="url(#blueGrad)" opacity="0.15"/>
    <circle cx="150" cy="150" r="120" fill="none" stroke="url(#blueGrad)" stroke-width="7.5"/>
    <!-- Magnifying Glass Icon -->
    <circle cx="138" cy="138" r="30" fill="none" stroke="#3b82f6" stroke-width="7.5"/>
    <line x1="159" y1="159" x2="180" y2="180" stroke="#3b82f6" stroke-width="7.5" stroke-linecap="round"/>
    <text x="150" y="360" text-anchor="middle" font-family="Arial, sans-serif" font-size="48" font-weight="600" fill="#3b82f6">View Details</text>
    <text x="150" y="414" text-anchor="middle" font-family="Arial, sans-serif" font-size="33" fill="#60a5fa">Check Info</text>
  </g>
  
  <!-- Arrow 2 -->
  <path d="M 930 450 L 1110 450" stroke="#3b82f6" stroke-width="6" fill="none" marker-end="url(#arrowhead2)"/>
  <defs>
    <marker id="arrowhead2" markerWidth="30" markerHeight="30" refX="24" refY="9" orient="auto">
      <polygon points="0 0, 30 9, 0 18" fill="#3b82f6"/>
    </marker>
  </defs>
  
  <!-- Step 3: Purchase -->
  <g transform="translate(1110, 300)">
    <circle cx="150" cy="150" r="135" fill="url(#purpleGrad)" opacity="0.15"/>
    <circle cx="150" cy="150" r="120" fill="none" stroke="url(#purpleGrad)" stroke-width="7.5"/>
    <!-- Credit Card Icon -->
    <rect x="108" y="129" width="84" height="54" rx="6" fill="none" stroke="#7c3aed" stroke-width="6"/>
    <line x1="108" y1="147" x2="192" y2="147" stroke="#7c3aed" stroke-width="6"/>
    <line x1="120" y1="165" x2="150" y2="165" stroke="#7c3aed" stroke-width="4.5"/>
    <text x="150" y="360" text-anchor="middle" font-family="Arial, sans-serif" font-size="48" font-weight="600" fill="#3b82f6">Purchase</text>
    <text x="150" y="414" text-anchor="middle" font-family="Arial, sans-serif" font-size="33" fill="#60a5fa">Secure Payment</text>
    <!-- Escrow Protection Badge -->
    <g transform="translate(60, -45)">
      <rect x="0" y="0" width="180" height="48" rx="24" fill="#10b981" opacity="0.9"/>
      <text x="90" y="33" text-anchor="middle" font-family="Arial, sans-serif" font-size="27" font-weight="600" fill="white">ESCROW</text>
    </g>
  </g>
  
  <!-- Arrow 3 -->
  <path d="M 1410 450 L 1590 450" stroke="#7c3aed" stroke-width="6" fill="none" marker-end="url(#arrowhead3)"/>
  <defs>
    <marker id="arrowhead3" markerWidth="30" markerHeight="30" refX="24" refY="9" orient="auto">
      <polygon points="0 0, 30 9, 0 18" fill="#7c3aed"/>
    </marker>
  </defs>
  
  <!-- Step 4: Transfer -->
  <g transform="translate(1590, 300)">
    <circle cx="150" cy="150" r="135" fill="url(#blueGrad)" opacity="0.15"/>
    <circle cx="150" cy="150" r="120" fill="none" stroke="url(#blueGrad)" stroke-width="7.5"/>
    <!-- Handshake Icon -->
    <path d="M 120 156 L 132 144 L 144 156 L 156 144 L 168 156 L 180 144" stroke="#3b82f6" stroke-width="6" fill="none" stroke-linecap="round" stroke-linejoin="round"/>
    <rect x="114" y="156" width="18" height="24" fill="#3b82f6" rx="3"/>
    <rect x="168" y="156" width="18" height="24" fill="#3b82f6" rx="3"/>
    <text x="150" y="360" text-anchor="middle" font-family="Arial, sans-serif" font-size="48" font-weight="600" fill="#3b82f6">Transfer</text>
    <text x="150" y="414" text-anchor="middle" font-family="Arial, sans-serif" font-size="33" fill="#60a5fa">Asset Delivery</text>
  </g>
  
  <!-- Arrow 4 -->
  <path d="M 1890 450 L 2070 450" stroke="#3b82f6" stroke-width="6" fill="none" marker-end="url(#arrowhead4)"/>
  <defs>
    <marker id="arrowhead4" markerWidth="30" markerHeight="30" refX="24" refY="9" orient="auto">
      <polygon points="0 0, 30 9, 0 18" fill="#3b82f6"/>
    </marker>
  </defs>
  
  <!-- Step 5: Payout -->
  <g transform="translate(2070, 300)">
    <circle cx="150" cy="150" r="135" fill="url(#purpleGrad)" opacity="0.15"/>
    <circle cx="150" cy="150" r="120" fill="none" stroke="url(#purpleGrad)" stroke-width="7.5"/>
    <!-- Money Icon -->
    <circle cx="150" cy="150" r="36" fill="none" stroke="#7c3aed" stroke-width="7.5"/>
    <text x="150" y="168" text-anchor="middle" font-family="Arial, sans-serif" font-size="48" font-weight="700" fill="#7c3aed">$</text>
    <text x="150" y="360" text-anchor="middle" font-family="Arial, sans-serif" font-size="48" font-weight="600" fill="#3b82f6">Payout</text>
    <text x="150" y="414" text-anchor="middle" font-family="Arial, sans-serif" font-size="33" fill="#60a5fa">Funds Released</text>
    <!-- Stripe Connect Logo -->
    <g transform="translate(36, -45)">
      <rect x="0" y="0" width="228" height="48" rx="24" fill="#635bff" opacity="0.95"/>
      <text x="114" y="33" text-anchor="middle" font-family="Arial, sans-serif" font-size="27" font-weight="600" fill="white">stripe connect</text>
    </g>
  </g>
</svg>
