<svg viewBox="0 0 2400 600" xmlns="http://www.w3.org/2000/svg">
  <defs>
    <linearGradient id="purpleGrad" x1="0%" y1="0%" x2="100%" y2="100%">
      <stop offset="0%" style="stop-color:#7c3aed;stop-opacity:1" />
      <stop offset="100%" style="stop-color:#a78bfa;stop-opacity:1" />
    </linearGradient>
    <linearGradient id="blueGrad" x1="0%" y1="0%" x2="100%" y2="100%">
      <stop offset="0%" style="stop-color:#3b82f6;stop-opacity:1" />
      <stop offset="100%" style="stop-color:#60a5fa;stop-opacity:1" />
    </linearGradient>
  </defs>
  
  <!-- Step 1: Browse -->
  <g transform="translate(100, 200)">
    <circle cx="100" cy="100" r="90" fill="url(#purpleGrad)" opacity="0.15"/>
    <circle cx="100" cy="100" r="80" fill="none" stroke="url(#purpleGrad)" stroke-width="5"/>
    <!-- Grid Icon -->
    <rect x="70" y="70" width="20" height="20" fill="#7c3aed" rx="2"/>
    <rect x="100" y="70" width="20" height="20" fill="#7c3aed" rx="2"/>
    <rect x="70" y="100" width="20" height="20" fill="#7c3aed" rx="2"/>
    <rect x="100" y="100" width="20" height="20" fill="#7c3aed" rx="2"/>
    <text x="100" y="240" text-anchor="middle" font-family="Arial, sans-serif" font-size="32" font-weight="600" fill="#3b82f6">Browse</text>
    <text x="100" y="276" text-anchor="middle" font-family="Arial, sans-serif" font-size="22" fill="#60a5fa">Explore Items</text>
  </g>
  
  <!-- Arrow 1 -->
  <path d="M 300 300 L 420 300" stroke="#7c3aed" stroke-width="4" fill="none" marker-end="url(#arrowhead1)"/>
  <defs>
    <marker id="arrowhead1" markerWidth="20" markerHeight="20" refX="16" refY="6" orient="auto">
      <polygon points="0 0, 20 6, 0 12" fill="#7c3aed"/>
    </marker>
  </defs>
  
  <!-- Step 2: View Details -->
  <g transform="translate(420, 200)">
    <circle cx="100" cy="100" r="90" fill="url(#blueGrad)" opacity="0.15"/>
    <circle cx="100" cy="100" r="80" fill="none" stroke="url(#blueGrad)" stroke-width="5"/>
    <!-- Magnifying Glass Icon -->
    <circle cx="92" cy="92" r="20" fill="none" stroke="#3b82f6" stroke-width="5"/>
    <line x1="106" y1="106" x2="120" y2="120" stroke="#3b82f6" stroke-width="5" stroke-linecap="round"/>
    <text x="100" y="240" text-anchor="middle" font-family="Arial, sans-serif" font-size="32" font-weight="600" fill="#3b82f6">View Details</text>
    <text x="100" y="276" text-anchor="middle" font-family="Arial, sans-serif" font-size="22" fill="#60a5fa">Check Info</text>
  </g>
  
  <!-- Arrow 2 -->
  <path d="M 620 300 L 740 300" stroke="#3b82f6" stroke-width="4" fill="none" marker-end="url(#arrowhead2)"/>
  <defs>
    <marker id="arrowhead2" markerWidth="20" markerHeight="20" refX="16" refY="6" orient="auto">
      <polygon points="0 0, 20 6, 0 12" fill="#3b82f6"/>
    </marker>
  </defs>
  
  <!-- Step 3: Purchase -->
  <g transform="translate(740, 200)">
    <circle cx="100" cy="100" r="90" fill="url(#purpleGrad)" opacity="0.15"/>
    <circle cx="100" cy="100" r="80" fill="none" stroke="url(#purpleGrad)" stroke-width="5"/>
    <!-- Credit Card Icon -->
    <rect x="72" y="86" width="56" height="36" rx="4" fill="none" stroke="#7c3aed" stroke-width="4"/>
    <line x1="72" y1="98" x2="128" y2="98" stroke="#7c3aed" stroke-width="4"/>
    <line x1="80" y1="110" x2="100" y2="110" stroke="#7c3aed" stroke-width="3"/>
    <text x="100" y="240" text-anchor="middle" font-family="Arial, sans-serif" font-size="32" font-weight="600" fill="#3b82f6">Purchase</text>
    <text x="100" y="276" text-anchor="middle" font-family="Arial, sans-serif" font-size="22" fill="#60a5fa">Secure Payment</text>
    <!-- Escrow Protection Badge -->
    <g transform="translate(40, -30)">
      <rect x="0" y="0" width="120" height="32" rx="16" fill="#10b981" opacity="0.9"/>
      <text x="60" y="22" text-anchor="middle" font-family="Arial, sans-serif" font-size="18" font-weight="600" fill="white">ESCROW</text>
    </g>
  </g>
  
  <!-- Arrow 3 -->
  <path d="M 940 300 L 1060 300" stroke="#7c3aed" stroke-width="4" fill="none" marker-end="url(#arrowhead3)"/>
  <defs>
    <marker id="arrowhead3" markerWidth="20" markerHeight="20" refX="16" refY="6" orient="auto">
      <polygon points="0 0, 20 6, 0 12" fill="#7c3aed"/>
    </marker>
  </defs>
  
  <!-- Step 4: Transfer -->
  <g transform="translate(1060, 200)">
    <circle cx="100" cy="100" r="90" fill="url(#blueGrad)" opacity="0.15"/>
    <circle cx="100" cy="100" r="80" fill="none" stroke="url(#blueGrad)" stroke-width="5"/>
    <!-- Handshake Icon -->
    <path d="M 80 104 L 88 96 L 96 104 L 104 96 L 112 104 L 120 96" stroke="#3b82f6" stroke-width="4" fill="none" stroke-linecap="round" stroke-linejoin="round"/>
    <rect x="76" y="104" width="12" height="16" fill="#3b82f6" rx="2"/>
    <rect x="112" y="104" width="12" height="16" fill="#3b82f6" rx="2"/>
    <text x="100" y="240" text-anchor="middle" font-family="Arial, sans-serif" font-size="32" font-weight="600" fill="#3b82f6">Transfer</text>
    <text x="100" y="276" text-anchor="middle" font-family="Arial, sans-serif" font-size="22" fill="#60a5fa">Asset Delivery</text>
  </g>
  
  <!-- Arrow 4 -->
  <path d="M 1260 300 L 1380 300" stroke="#3b82f6" stroke-width="4" fill="none" marker-end="url(#arrowhead4)"/>
  <defs>
    <marker id="arrowhead4" markerWidth="20" markerHeight="20" refX="16" refY="6" orient="auto">
      <polygon points="0 0, 20 6, 0 12" fill="#3b82f6"/>
    </marker>
  </defs>
  
  <!-- Step 5: Payout -->
  <g transform="translate(1380, 200)">
    <circle cx="100" cy="100" r="90" fill="url(#purpleGrad)" opacity="0.15"/>
    <circle cx="100" cy="100" r="80" fill="none" stroke="url(#purpleGrad)" stroke-width="5"/>
    <!-- Money Icon -->
    <circle cx="100" cy="100" r="24" fill="none" stroke="#7c3aed" stroke-width="5"/>
    <text x="100" y="112" text-anchor="middle" font-family="Arial, sans-serif" font-size="32" font-weight="700" fill="#7c3aed">$</text>
    <text x="100" y="240" text-anchor="middle" font-family="Arial, sans-serif" font-size="32" font-weight="600" fill="#3b82f6">Payout</text>
    <text x="100" y="276" text-anchor="middle" font-family="Arial, sans-serif" font-size="22" fill="#60a5fa">Funds Released</text>
    <!-- Stripe Connect Logo -->
    <g transform="translate(24, -30)">
      <rect x="0" y="0" width="152" height="32" rx="16" fill="#635bff" opacity="0.95"/>
      <text x="76" y="22" text-anchor="middle" font-family="Arial, sans-serif" font-size="18" font-weight="600" fill="white">stripe connect</text>
    </g>
  </g>
</svg>
