<svg width="1200" height="800" viewBox="0 0 1200 800" xmlns="http://www.w3.org/2000/svg">
  <!-- Define gradients and styles -->
  <defs>
    <!-- Gradient definitions -->
    <linearGradient id="purpleGradient" x1="0%" y1="0%" x2="100%" y2="100%">
      <stop offset="0%" style="stop-color:#8B5CF6;stop-opacity:1" />
      <stop offset="100%" style="stop-color:#6366F1;stop-opacity:1" />
    </linearGradient>
    
    <linearGradient id="blueGradient" x1="0%" y1="0%" x2="100%" y2="100%">
      <stop offset="0%" style="stop-color:#3B82F6;stop-opacity:1" />
      <stop offset="100%" style="stop-color:#2563EB;stop-opacity:1" />
    </linearGradient>
    
    <linearGradient id="cardGradient" x1="0%" y1="0%" x2="100%" y2="100%">
      <stop offset="0%" style="stop-color:#8B5CF6;stop-opacity:0.1" />
      <stop offset="100%" style="stop-color:#3B82F6;stop-opacity:0.1" />
    </linearGradient>
    
    <!-- Filters for depth -->
    <filter id="shadow" x="-50%" y="-50%" width="200%" height="200%">
      <feGaussianBlur in="SourceAlpha" stdDeviation="3"/>
      <feOffset dx="0" dy="2" result="offsetblur"/>
      <feComponentTransfer>
        <feFuncA type="linear" slope="0.2"/>
      </feComponentTransfer>
      <feMerge>
        <feMergeNode/>
        <feMergeNode in="SourceGraphic"/>
      </feMerge>
    </filter>
  </defs>
  
  <!-- Header Section -->
  <g id="header">
    <text x="40" y="50" font-family="Arial, sans-serif" font-size="32" font-weight="bold" fill="#8B5CF6">
      Due Diligence Dashboard
    </text>
    <text x="40" y="75" font-family="Arial, sans-serif" font-size="14" fill="#6B7280">
      Real-time project quality metrics and compliance monitoring
    </text>
  </g>
  
  <!-- Build Score Card - Top Left -->
  <g id="buildScoreCard" filter="url(#shadow)">
    <rect x="40" y="110" width="280" height="200" rx="12" fill="url(#cardGradient)" stroke="#8B5CF6" stroke-width="2"/>
    
    <text x="60" y="140" font-family="Arial, sans-serif" font-size="16" font-weight="600" fill="#8B5CF6">
      Build Score
    </text>
    
    <!-- Circular progress indicator -->
    <circle cx="180" cy="200" r="50" fill="none" stroke="#E5E7EB" stroke-width="8" opacity="0.3"/>
    <circle cx="180" cy="200" r="50" fill="none" stroke="url(#purpleGradient)" stroke-width="8" 
            stroke-dasharray="282" stroke-dashoffset="56" transform="rotate(-90 180 200)" stroke-linecap="round"/>
    
    <text x="180" y="200" font-family="Arial, sans-serif" font-size="36" font-weight="bold" fill="#8B5CF6" text-anchor="middle">
      92
    </text>
    <text x="180" y="220" font-family="Arial, sans-serif" font-size="12" fill="#6B7280" text-anchor="middle">
      /100
    </text>
    
    <!-- Status indicator -->
    <circle cx="280" cy="135" r="6" fill="#10B981"/>
    <text x="255" y="140" font-family="Arial, sans-serif" font-size="11" fill="#10B981" text-anchor="end">
      Excellent
    </text>
  </g>
  
  <!-- Quality Gates Card - Top Center -->
  <g id="qualityGatesCard" filter="url(#shadow)">
    <rect x="340" y="110" width="280" height="200" rx="12" fill="url(#cardGradient)" stroke="#3B82F6" stroke-width="2"/>
    
    <text x="360" y="140" font-family="Arial, sans-serif" font-size="16" font-weight="600" fill="#3B82F6">
      Quality Gates
    </text>
    
    <!-- Gate indicators -->
    <g id="gate1">
      <rect x="360" y="155" width="240" height="30" rx="6" fill="#10B98120"/>
      <circle cx="375" cy="170" r="8" fill="#10B981"/>
      <path d="M 372 170 L 375 173 L 380 166" stroke="white" stroke-width="2" fill="none" stroke-linecap="round"/>
      <text x="395" y="174" font-family="Arial, sans-serif" font-size="13" fill="#1F2937">
        Code Coverage
      </text>
      <text x="580" y="174" font-family="Arial, sans-serif" font-size="13" font-weight="600" fill="#10B981" text-anchor="end">
        87%
      </text>
    </g>
    
    <g id="gate2">
      <rect x="360" y="195" width="240" height="30" rx="6" fill="#10B98120"/>
      <circle cx="375" cy="210" r="8" fill="#10B981"/>
      <path d="M 372 210 L 375 213 L 380 206" stroke="white" stroke-width="2" fill="none" stroke-linecap="round"/>
      <text x="395" y="214" font-family="Arial, sans-serif" font-size="13" fill="#1F2937">
        Security Scan
      </text>
      <text x="580" y="214" font-family="Arial, sans-serif" font-size="13" font-weight="600" fill="#10B981" text-anchor="end">
        Passed
      </text>
    </g>
    
    <g id="gate3">
      <rect x="360" y="235" width="240" height="30" rx="6" fill="#F59E0B20"/>
      <circle cx="375" cy="250" r="8" fill="#F59E0B"/>
      <text x="375" y="255" font-family="Arial, sans-serif" font-size="14" font-weight="bold" fill="white" text-anchor="middle">
        !
      </text>
      <text x="395" y="254" font-family="Arial, sans-serif" font-size="13" fill="#1F2937">
        Performance
      </text>
      <text x="580" y="254" font-family="Arial, sans-serif" font-size="13" font-weight="600" fill="#F59E0B" text-anchor="end">
        Warning
      </text>
    </g>
    
    <g id="gate4">
      <rect x="360" y="275" width="240" height="30" rx="6" fill="#10B98120"/>
      <circle cx="375" cy="290" r="8" fill="#10B981"/>
      <path d="M 372 290 L 375 293 L 380 286" stroke="white" stroke-width="2" fill="none" stroke-linecap="round"/>
      <text x="395" y="294" font-family="Arial, sans-serif" font-size="13" fill="#1F2937">
        Code Quality
      </text>
      <text x="580" y="294" font-family="Arial, sans-serif" font-size="13" font-weight="600" fill="#10B981" text-anchor="end">
        A+
      </text>
    </g>
  </g>
  
  <!-- Compliance Indicators Card - Top Right -->
  <g id="complianceCard" filter="url(#shadow)">
    <rect x="640" y="110" width="520" height="200" rx="12" fill="url(#cardGradient)" stroke="#6366F1" stroke-width="2"/>
    
    <text x="660" y="140" font-family="Arial, sans-serif" font-size="16" font-weight="600" fill="#6366F1">
      Compliance and Verification
    </text>
    
    <!-- Verification badges -->
    <g id="badge1">
      <rect x="660" y="155" width="110" height="60" rx="8" fill="#8B5CF620" stroke="#8B5CF6" stroke-width="1.5"/>
      <circle cx="690" cy="175" r="10" fill="#8B5CF6"/>
      <path d="M 687 175 L 689 177 L 694 171" stroke="white" stroke-width="2" fill="none" stroke-linecap="round"/>
      <text x="710" y="178" font-family="Arial, sans-serif" font-size="11" font-weight="600" fill="#8B5CF6">
        ISO 27001
      </text>
      <text x="710" y="192" font-family="Arial, sans-serif" font-size="9" fill="#6B7280">
        Certified
      </text>
    </g>
    
    <g id="badge2">
      <rect x="785" y="155" width="110" height="60" rx="8" fill="#3B82F620" stroke="#3B82F6" stroke-width="1.5"/>
      <circle cx="815" cy="175" r="10" fill="#3B82F6"/>
      <path d="M 812 175 L 814 177 L 819 171" stroke="white" stroke-width="2" fill="none" stroke-linecap="round"/>
      <text x="835" y="178" font-family="Arial, sans-serif" font-size="11" font-weight="600" fill="#3B82F6">
        SOC 2
      </text>
      <text x="835" y="192" font-family="Arial, sans-serif" font-size="9" fill="#6B7280">
        Type II
      </text>
    </g>
    
    <g id="badge3">
      <rect x="910" y="155" width="110" height="60" rx="8" fill="#10B98120" stroke="#10B981" stroke-width="1.5"/>
      <circle cx="940" cy="175" r="10" fill="#10B981"/>
      <path d="M 937 175 L 939 177 L 944 171" stroke="white" stroke-width="2" fill="none" stroke-linecap="round"/>
      <text x="960" y="178" font-family="Arial, sans-serif" font-size="11" font-weight="600" fill="#10B981">
        GDPR
      </text>
      <text x="960" y="192" font-family="Arial, sans-serif" font-size="9" fill="#6B7280">
        Compliant
      </text>
    </g>
    
    <g id="badge4">
      <rect x="1035" y="155" width="110" height="60" rx="8" fill="#8B5CF620" stroke="#8B5CF6" stroke-width="1.5"/>
      <circle cx="1065" cy="175" r="10" fill="#8B5CF6"/>
      <path d="M 1062 175 L 1064 177 L 1069 171" stroke="white" stroke-width="2" fill="none" stroke-linecap="round"/>
      <text x="1085" y="178" font-family="Arial, sans-serif" font-size="11" font-weight="600" fill="#8B5CF6">
        HIPAA
      </text>
      <text x="1085" y="192" font-family="Arial, sans-serif" font-size="9" fill="#6B7280">
        Verified
      </text>
    </g>
    
    <!-- Compliance metrics -->
    <g id="complianceMetrics">
      <rect x="660" y="230" width="240" height="65" rx="6" fill="#8B5CF610"/>
      <text x="675" y="250" font-family="Arial, sans-serif" font-size="12" fill="#6B7280">
        Compliance Score
      </text>
      <text x="675" y="275" font-family="Arial, sans-serif" font-size="28" font-weight="bold" fill="#8B5CF6">
        98.5%
      </text>
      <path d="M 875 265 L 880 270 L 890 255" stroke="#10B981" stroke-width="3" fill="none" stroke-linecap="round"/>
      <text x="870" y="285" font-family="Arial, sans-serif" font-size="11" fill="#10B981">
        +2.3%
      </text>
      
      <rect x="920" y="230" width="240" height="65" rx="6" fill="#3B82F610"/>
      <text x="935" y="250" font-family="Arial, sans-serif" font-size="12" fill="#6B7280">
        Audit Status
      </text>
      <text x="935" y="275" font-family="Arial, sans-serif" font-size="16" font-weight="600" fill="#10B981">
        All Clear
      </text>
      <text x="935" y="290" font-family="Arial, sans-serif" font-size="10" fill="#6B7280">
        Last audit: 2 days ago
      </text>
    </g>
  </g>
  
  <!-- Commit History Graph - Bottom Left -->
  <g id="commitHistoryCard" filter="url(#shadow)">
    <rect x="40" y="330" width="560" height="430" rx="12" fill="url(#cardGradient)" stroke="#8B5CF6" stroke-width="2"/>
    
    <text x="60" y="360" font-family="Arial, sans-serif" font-size="16" font-weight="600" fill="#8B5CF6">
      Commit Activity
    </text>
    
    <text x="560" y="360" font-family="Arial, sans-serif" font-size="12" fill="#6B7280" text-anchor="end">
      Last 30 days
    </text>
    
    <!-- Graph axes -->
    <line x1="80" y1="390" x2="80" y2="700" stroke="#6B7280" stroke-width="1" opacity="0.3"/>
    <line x1="80" y1="700" x2="560" y2="700" stroke="#6B7280" stroke-width="1" opacity="0.3"/>
    
    <!-- Grid lines -->
    <line x1="80" y1="620" x2="560" y2="620" stroke="#6B7280" stroke-width="0.5" opacity="0.2" stroke-dasharray="4,4"/>
    <line x1="80" y1="540" x2="560" y2="540" stroke="#6B7280" stroke-width="0.5" opacity="0.2" stroke-dasharray="4,4"/>
    <line x1="80" y1="460" x2="560" y2="460" stroke="#6B7280" stroke-width="0.5" opacity="0.2" stroke-dasharray="4,4"/>
    
    <!-- Y-axis labels -->
    <text x="70" y="395" font-family="Arial, sans-serif" font-size="10" fill="#6B7280" text-anchor="end">50</text>
    <text x="70" y="465" font-family="Arial, sans-serif" font-size="10" fill="#6B7280" text-anchor="end">40</text>
    <text x="70" y="545" font-family="Arial, sans-serif" font-size="10" fill="#6B7280" text-anchor="end">30</text>
    <text x="70" y="625" font-family="Arial, sans-serif" font-size="10" fill="#6B7280" text-anchor="end">20</text>
    <text x="70" y="705" font-family="Arial, sans-serif" font-size="10" fill="#6B7280" text-anchor="end">0</text>
    
    <!-- Commit bars -->
    <rect x="100" y="550" width="18" height="150" rx="3" fill="url(#purpleGradient)" opacity="0.8"/>
    <rect x="130" y="580" width="18" height="120" rx="3" fill="url(#blueGradient)" opacity="0.8"/>
    <rect x="160" y="520" width="18" height="180" rx="3" fill="url(#purpleGradient)" opacity="0.8"/>
    <rect x="190" y="600" width="18" height="100" rx="3" fill="url(#blueGradient)" opacity="0.8"/>
    <rect x="220" y="560" width="18" height="140" rx="3" fill="url(#purpleGradient)" opacity="0.8"/>
    <rect x="250" y="490" width="18" height="210" rx="3" fill="url(#blueGradient)" opacity="0.8"/>
    <rect x="280" y="530" width="18" height="170" rx="3" fill="url(#purpleGradient)" opacity="0.8"/>
    <rect x="310" y="570" width="18" height="130" rx="3" fill="url(#blueGradient)" opacity="0.8"/>
    <rect x="340" y="510" width="18" height="190" rx="3" fill="url(#purpleGradient)" opacity="0.8"/>
    <rect x="370" y="540" width="18" height="160" rx="3" fill="url(#blueGradient)" opacity="0.8"/>
    <rect x="400" y="480" width="18" height="220" rx="3" fill="url(#purpleGradient)" opacity="0.8"/>
    <rect x="430" y="590" width="18" height="110" rx="3" fill="url(#blueGradient)" opacity="0.8"/>
    <rect x="460" y="560" width="18" height="140" rx="3" fill="url(#purpleGradient)" opacity="0.8"/>
    <rect x="490" y="530" width="18" height="170" rx="3" fill="url(#blueGradient)" opacity="0.8"/>
    <rect x="520" y="500" width="18" height="200" rx="3" fill="url(#purpleGradient)" opacity="0.8"/>
    
    <!-- X-axis labels -->
    <text x="109" y="720" font-family="Arial, sans-serif" font-size="9" fill="#6B7280" text-anchor="middle">1</text>
    <text x="199" y="720" font-family="Arial, sans-serif" font-size="9" fill="#6B7280" text-anchor="middle">7</text>
    <text x="289" y="720" font-family="Arial, sans-serif" font-size="9" fill="#6B7280" text-anchor="middle">14</text>
    <text x="379" y="720" font-family="Arial, sans-serif" font-size="9" fill="#6B7280" text-anchor="middle">21</text>
    <text x="469" y="720" font-family="Arial, sans-serif" font-size="9" fill="#6B7280" text-anchor="middle">28</text>
    <text x="529" y="720" font-family="Arial, sans-serif" font-size="9" fill="#6B7280" text-anchor="middle">30</text>
    
    <!-- Stats summary -->
    <rect x="60" y="730" width="520" height="15" rx="4" fill="#8B5CF610"/>
    <circle cx="80" cy="737.5" r="3" fill="#8B5CF6"/>
    <text x="90" y="741" font-family="Arial, sans-serif" font-size="11" fill="#6B7280">
      Total Commits: 1,847
    </text>
    <circle cx="240" cy="737.5" r="3" fill="#3B82F6"/>
    <text x="250" y="741" font-family="Arial, sans-serif" font-size="11" fill="#6B7280">
      Contributors: 12
    </text>
    <circle cx="390" cy="737.5" r="3" fill="#10B981"/>
    <text x="400" y="741" font-family="Arial, sans-serif" font-size="11" fill="#6B7280">
      Avg per Day: 61.6
    </text>
  </g>
  
  <!-- Metrics Cards - Bottom Right -->
  <g id="metricsSection">
    <!-- Code Quality Metrics -->
    <g id="codeQualityCard" filter="url(#shadow)">
      <rect x="620" y="330" width="540" height="200" rx="12" fill="url(#cardGradient)" stroke="#3B82F6" stroke-width="2"/>
      
      <text x="640" y="360" font-family="Arial, sans-serif" font-size="16" font-weight="600" fill="#3B82F6">
        Code Quality Metrics
      </text>
      
      <!-- Metric boxes -->
      <g id="metric1">
        <rect x="640" y="375" width="160" height="80" rx="8" fill="#8B5CF610"/>
        <text x="660" y="395" font-family="Arial, sans-serif" font-size="11" fill="#6B7280">
          Technical Debt
        </text>
        <text x="660" y="425" font-family="Arial, sans-serif" font-size="24" font-weight="bold" fill="#8B5CF6">
          2.4d
        </text>
        <rect x="660" y="440" width="60" height="8" rx="4" fill="#E5E7EB" opacity="0.3"/>
        <rect x="660" y="440" width="45" height="8" rx="4" fill="#10B981"/>
        <text x="730" y="447" font-family="Arial, sans-serif" font-size="9" fill="#10B981">
          -15%
        </text>
      </g>
      
      <g id="metric2">
        <rect x="815" y="375" width="160" height="80" rx="8" fill="#3B82F610"/>
        <text x="835" y="395" font-family="Arial, sans-serif" font-size="11" fill="#6B7280">
          Code Duplication
        </text>
        <text x="835" y="425" font-family="Arial, sans-serif" font-size="24" font-weight="bold" fill="#3B82F6">
          3.2%
        </text>
        <rect x="835" y="440" width="60" height="8" rx="4" fill="#E5E7EB" opacity="0.3"/>
        <rect x="835" y="440" width="12" height="8" rx="4" fill="#10B981"/>
        <text x="905" y="447" font-family="Arial, sans-serif" font-size="9" fill="#10B981">
          Good
        </text>
      </g>
      
      <g id="metric3">
        <rect x="990" y="375" width="160" height="80" rx="8" fill="#6366F610"/>
        <text x="1010" y="395" font-family="Arial, sans-serif" font-size="11" fill="#6B7280">
          Maintainability
        </text>
        <text x="1010" y="425" font-family="Arial, sans-serif" font-size="24" font-weight="bold" fill="#6366F1">
          A
        </text>
        <circle cx="1130" cy="420" r="15" fill="#10B98120" stroke="#10B981" stroke-width="2"/>
        <path d="M 1126 420 L 1129 423 L 1135 416" stroke="#10B981" stroke-width="2" fill="none" stroke-linecap="round"/>
      </g>
      
      <!-- Mini chart -->
      <g id="miniTrendChart">
        <text x="640" y="480" font-family="Arial, sans-serif" font-size="12" fill="#6B7280">
          Quality Trend (7 days)
        </text>
        <polyline points="640,510 680,505 720,500 760,495 800,498 840,492 880,488" 
                  fill="none" stroke="url(#purpleGradient)" stroke-width="3" stroke-linecap="round" stroke-linejoin="round"/>
        <circle cx="640" cy="510" r="4" fill="#8B5CF6"/>
        <circle cx="680" cy="505" r="4" fill="#8B5CF6"/>
        <circle cx="720" cy="500" r="4" fill="#8B5CF6"/>
        <circle cx="760" cy="495" r="4" fill="#8B5CF6"/>
        <circle cx="800" cy="498" r="4" fill="#8B5CF6"/>
        <circle cx="840" cy="492" r="4" fill="#8B5CF6"/>
        <circle cx="880" cy="488" r="4" fill="#8B5CF6"/>
        
        <polyline points="920,510 960,508 1000,505 1040,507 1080,503 1120,500" 
                  fill="none" stroke="url(#blueGradient)" stroke-width="3" stroke-linecap="round" stroke-linejoin="round"/>
        <circle cx="920" cy="510" r="4" fill="#3B82F6"/>
        <circle cx="960" cy="508" r="4" fill="#3B82F6"/>
        <circle cx="1000" cy="505" r="4" fill="#3B82F6"/>
        <circle cx="1040" cy="507" r="4" fill="#3B82F6"/>
        <circle cx="1080" cy="503" r="4" fill="#3B82F6"/>
        <circle cx="1120" cy="500" r="4" fill="#3B82F6"/>
      </g>
    </g>
    
    <!-- Security and Performance -->
    <g id="securityPerformanceCard" filter="url(#shadow)">
      <rect x="620" y="550" width="540" height="210" rx="12" fill="url(#cardGradient)" stroke="#6366F1" stroke-width="2"/>
      
      <text x="640" y="580" font-family="Arial, sans-serif" font-size="16" font-weight="600" fill="#6366F1">
        Security and Performance
      </text>
      
      <!-- Security score circle -->
      <g id="securityScore">
        <circle cx="730" cy="660" r="55" fill="none" stroke="#E5E7EB" stroke-width="8" opacity="0.2"/>
        <circle cx="730" cy="660" r="55" fill="none" stroke="url(#purpleGradient)" stroke-width="8" 
                stroke-dasharray="345" stroke-dashoffset="35" transform="rotate(-90 730 660)" stroke-linecap="round"/>
        <text x="730" y="655" font-family="Arial, sans-serif" font-size="28" font-weight="bold" fill="#8B5CF6" text-anchor="middle">
          A+
        </text>
        <text x="730" y="675" font-family="Arial, sans-serif" font-size="11" fill="#6B7280" text-anchor="middle">
          Security
        </text>
        <text x="730" y="730" font-family="Arial, sans-serif" font-size="10" fill="#10B981" text-anchor="middle">
          0 Vulnerabilities
        </text>
      </g>
      
      <!-- Performance indicators -->
      <g id="performanceMetrics">
        <rect x="820" y="600" width="150" height="50" rx="6" fill="#3B82F610"/>
        <text x="835" y="618" font-family="Arial, sans-serif" font-size="11" fill="#6B7280">
          Build Time
        </text>
        <text x="835" y="638" font-family="Arial, sans-serif" font-size="20" font-weight="bold" fill="#3B82F6">
          2m 34s
        </text>
        <path d="M 950 630 L 945 635 L 935 620" stroke="#10B981" stroke-width="2" fill="none" stroke-linecap="round"/>
        
        <rect x="820" y="660" width="150" height="50" rx="6" fill="#3B82F610"/>
        <text x="835" y="678" font-family="Arial, sans-serif" font-size="11" fill="#6B7280">
          Test Coverage
        </text>
        <text x="835" y="698" font-family="Arial, sans-serif" font-size="20" font-weight="bold" fill="#3B82F6">
          94.2%
        </text>
        <circle cx="955" cy="690" r="8" fill="#10B981"/>
        <path d="M 952 690 L 954 692 L 959 686" stroke="white" stroke-width="2" fill="none" stroke-linecap="round"/>
        
        <rect x="990" y="600" width="160" height="110" rx="6" fill="#6366F610"/>
        <text x="1005" y="618" font-family="Arial, sans-serif" font-size="11" fill="#6B7280">
          Deployment Status
        </text>
        <circle cx="1070" cy="655" r="25" fill="#10B98130" stroke="#10B981" stroke-width="3"/>
        <path d="M 1070 645 L 1070 665 M 1060 655 L 1070 665 L 1080 655" stroke="#10B981" stroke-width="3" fill="none" stroke-linecap="round" stroke-linejoin="round"/>
        <text x="1070" y="695" font-family="Arial, sans-serif" font-size="12" font-weight="600" fill="#10B981" text-anchor="middle">
          Production
        </text>
        <text x="1070" y="708" font-family="Arial, sans-serif" font-size="9" fill="#6B7280" text-anchor="middle">
          v2.4.1 deployed
        </text>
      </g>
      
      <!-- Recent activity indicators -->
      <g id="activityDots">
        <circle cx="640" cy="740" r="4" fill="#10B981"/>
        <text x="650" y="743" font-family="Arial, sans-serif" font-size="10" fill="#6B7280">
          Last scan: 5 min ago
        </text>
        <circle cx="800" cy="740" r="4" fill="#3B82F6"/>
        <text x="810" y="743" font-family="Arial, sans-serif" font-size="10" fill="#6B7280">
          Next deployment: 2h
        </text>
      </g>
    </g>
  </g>
  
  <!-- Legend -->
  <g id="legend">
    <rect x="40" y="770" width="200" height="20" rx="4" fill="#8B5CF610"/>
    <circle cx="50" cy="780" r="4" fill="#8B5CF6"/>
    <text x="60" y="783" font-family="Arial, sans-serif" font-size="10" fill="#6B7280">
      Primary Metrics
    </text>
    <circle cx="150" cy="780" r="4" fill="#3B82F6"/>
    <text x="160" y="783" font-family="Arial, sans-serif" font-size="10" fill="#6B7280">
      Secondary
    </text>
  </g>
</svg>
