<svg viewBox="0 0 1800 1000" xmlns="http://www.w3.org/2000/svg">
  <defs>
    <!-- Animations -->
    <style>
      @keyframes pulse {
        0%, 100% { opacity: 1; }
        50% { opacity: 0.6; }
      }
      
      @keyframes float {
        0%, 100% { transform: translateY(0px); }
        50% { transform: translateY(-10px); }
      }
      
      @keyframes glow-pulse {
        0%, 100% { filter: url(#strongGlow); opacity: 1; }
        50% { filter: url(#strongGlow); opacity: 0.7; }
      }
      
      @keyframes scale-pulse {
        0%, 100% { transform: scale(1); }
        50% { transform: scale(1.05); }
      }
      
      .featured-badge {
        animation: glow-pulse 2s ease-in-out infinite;
      }
      
      .floating-particle {
        animation: float 3s ease-in-out infinite;
      }
      
      .build-score-circle {
        animation: pulse 2.5s ease-in-out infinite;
      }
      
      .thumbnail-glow {
        animation: pulse 3s ease-in-out infinite;
      }
    </style>
    
    <!-- Gradients -->
    <linearGradient id="purpleGrad" x1="0%" y1="0%" x2="100%" y2="100%">
      <stop offset="0%" style="stop-color:#8b5cf6;stop-opacity:1" />
      <stop offset="100%" style="stop-color:#6366f1;stop-opacity:1" />
    </linearGradient>
    
    <linearGradient id="blueGrad" x1="0%" y1="0%" x2="100%" y2="100%">
      <stop offset="0%" style="stop-color:#3b82f6;stop-opacity:1" />
      <stop offset="100%" style="stop-color:#2563eb;stop-opacity:1" />
    </linearGradient>
    
    <linearGradient id="cyanGrad" x1="0%" y1="0%" x2="100%" y2="100%">
      <stop offset="0%" style="stop-color:#06b6d4;stop-opacity:1" />
      <stop offset="100%" style="stop-color:#0891b2;stop-opacity:1" />
    </linearGradient>
    
    <linearGradient id="pinkGrad" x1="0%" y1="0%" x2="100%" y2="100%">
      <stop offset="0%" style="stop-color:#ec4899;stop-opacity:1" />
      <stop offset="100%" style="stop-color:#db2777;stop-opacity:1" />
    </linearGradient>
    
    <linearGradient id="cardBg" x1="0%" y1="0%" x2="0%" y2="100%">
      <stop offset="0%" style="stop-color:#ffffff;stop-opacity:0.95" />
      <stop offset="100%" style="stop-color:#f9fafb;stop-opacity:0.95" />
    </linearGradient>
    
    <linearGradient id="cardGlow" x1="0%" y1="0%" x2="0%" y2="100%">
      <stop offset="0%" style="stop-color:#ffffff;stop-opacity:0.3" />
      <stop offset="100%" style="stop-color:#ffffff;stop-opacity:0" />
    </linearGradient>
    
    <!-- Enhanced Filters with Glow -->
    <filter id="cardShadow">
      <feDropShadow dx="0" dy="4" stdDeviation="12" flood-opacity="0.15"/>
      <feDropShadow dx="0" dy="2" stdDeviation="4" flood-opacity="0.1"/>
    </filter>
    
    <filter id="glow">
      <feGaussianBlur stdDeviation="4" result="coloredBlur"/>
      <feMerge>
        <feMergeNode in="coloredBlur"/>
        <feMergeNode in="SourceGraphic"/>
      </feMerge>
    </filter>
    
    <filter id="strongGlow">
      <feGaussianBlur stdDeviation="8" result="coloredBlur"/>
      <feMerge>
        <feMergeNode in="coloredBlur"/>
        <feMergeNode in="SourceGraphic"/>
      </feMerge>
    </filter>
    
    <filter id="buttonGlow">
      <feGaussianBlur stdDeviation="6" result="coloredBlur"/>
      <feMerge>
        <feMergeNode in="coloredBlur"/>
        <feMergeNode in="SourceGraphic"/>
      </feMerge>
    </filter>
  </defs>
  
  <!-- Header Section -->
  <g id="header">
    <!-- Search Bar with border for visibility -->
    <rect x="40" y="30" width="600" height="50" rx="25" fill="url(#cardBg)" filter="url(#cardShadow)"/>
    <rect x="40" y="30" width="600" height="50" rx="25" fill="none" stroke="#e5e7eb" stroke-width="1.5"/>
    <text x="75" y="60" font-family="Arial, sans-serif" font-size="15" fill="#6b7280">Search micro-SaaS products...</text>
    
    <!-- Search Icon with Glow -->
    <circle cx="610" cy="55" r="16" fill="url(#purpleGrad)" filter="url(#glow)"/>
    <path d="M 606 50 L 610 54 M 610 54 L 614 58" stroke="#ffffff" stroke-width="2" stroke-linecap="round" fill="none"/>
    
    <!-- Filter Button -->
    <rect x="670" y="30" width="130" height="50" rx="10" fill="url(#cardBg)" filter="url(#cardShadow)"/>
    <rect x="670" y="30" width="130" height="50" rx="10" fill="none" stroke="#e5e7eb" stroke-width="1.5"/>
    <text x="710" y="60" font-family="Arial, sans-serif" font-size="13" font-weight="600" fill="#1f2937">Categories ▼</text>
    
    <!-- Featured Button with Glow -->
    <rect x="830" y="30" width="180" height="50" rx="10" fill="url(#blueGrad)" filter="url(#buttonGlow)"/>
    <text x="885" y="60" font-family="Arial, sans-serif" font-size="13" font-weight="600" fill="#ffffff">Featured Products</text>
  </g>
  
  <!-- Category Tags with subtle glow -->
  <g id="categories" transform="translate(40, 105)">
    <rect x="0" y="0" width="110" height="32" rx="16" fill="#8b5cf6" opacity="0.15"/>
    <rect x="0" y="0" width="110" height="32" rx="16" fill="none" stroke="#8b5cf6" stroke-width="1.5" filter="url(#glow)"/>
    <text x="55" y="21" font-family="Arial, sans-serif" font-size="12" font-weight="600" fill="#8b5cf6" text-anchor="middle">All Products</text>
    
    <rect x="125" y="0" width="90" height="32" rx="16" fill="#3b82f6" opacity="0.1"/>
    <rect x="125" y="0" width="90" height="32" rx="16" fill="none" stroke="#3b82f6" stroke-width="1"/>
    <text x="170" y="21" font-family="Arial, sans-serif" font-size="12" font-weight="500" fill="#3b82f6" text-anchor="middle">Analytics</text>
    
    <rect x="230" y="0" width="100" height="32" rx="16" fill="#06b6d4" opacity="0.1"/>
    <rect x="230" y="0" width="100" height="32" rx="16" fill="none" stroke="#06b6d4" stroke-width="1"/>
    <text x="280" y="21" font-family="Arial, sans-serif" font-size="12" font-weight="500" fill="#0891b2" text-anchor="middle">Automation</text>
    
    <rect x="345" y="0" width="80" height="32" rx="16" fill="#ec4899" opacity="0.1"/>
    <rect x="345" y="0" width="80" height="32" rx="16" fill="none" stroke="#ec4899" stroke-width="1"/>
    <text x="385" y="21" font-family="Arial, sans-serif" font-size="12" font-weight="500" fill="#db2777" text-anchor="middle">AI Tools</text>
  </g>
  
  <!-- Product Grid - Horizontal Layout -->
  <g id="productGrid" transform="translate(40, 170)">
    <!-- Row 1 -->
    <!-- Product Card 1 -->
    <g id="product1">
      <rect width="300" height="310" rx="14" fill="url(#cardBg)" filter="url(#cardShadow)"/>
      <rect width="300" height="310" rx="14" fill="none" stroke="#e5e7eb" stroke-width="2"/>
      <rect width="300" height="310" rx="14" fill="url(#cardGlow)"/>
      
      <!-- Featured Badge with Strong Glow -->
      <rect x="210" y="12" width="75" height="24" rx="12" fill="url(#pinkGrad)" filter="url(#strongGlow)" class="featured-badge"/>
      <text x="247" y="28" font-family="Arial, sans-serif" font-size="10" font-weight="700" fill="#ffffff" text-anchor="middle">FEATURED</text>
      
      <!-- Thumbnail with glow -->
      <rect x="15" y="15" width="270" height="140" rx="10" fill="url(#purpleGrad)" filter="url(#glow)" class="thumbnail-glow"/>
      <circle cx="150" cy="85" r="30" fill="#ffffff" opacity="0.2"/>
      <rect x="125" y="70" width="50" height="30" rx="6" fill="#ffffff" opacity="0.95"/>
      <path d="M 138 82 L 145 90 L 162 73" stroke="#8b5cf6" stroke-width="3" stroke-linecap="round" stroke-linejoin="round" fill="none"/>
      
      <!-- Product Info -->
      <text x="15" y="180" font-family="Arial, sans-serif" font-size="18" font-weight="700" fill="#1f2937">TaskFlow Pro</text>
      <text x="15" y="200" font-family="Arial, sans-serif" font-size="12" fill="#6b7280">Project management automation</text>
      
      <!-- Build Score Badge with glow -->
      <rect x="15" y="220" width="100" height="28" rx="14" fill="#8b5cf6" opacity="0.15"/>
      <rect x="15" y="220" width="100" height="28" rx="14" fill="none" stroke="#8b5cf6" stroke-width="1.5" filter="url(#glow)"/>
      <circle cx="30" cy="234" r="9" fill="url(#purpleGrad)" class="build-score-circle"/>
      <text x="45" y="238" font-family="Arial, sans-serif" font-size="11" font-weight="700" fill="#8b5cf6">Build: 94</text>
      
      <!-- Pricing -->
      <text x="15" y="272" font-family="Arial, sans-serif" font-size="24" font-weight="800" fill="#1f2937">$49</text>
      <text x="62" y="272" font-family="Arial, sans-serif" font-size="13" fill="#9ca3af">/mo</text>
      
      <!-- Category Tag -->
      <rect x="200" y="257" width="85" height="24" rx="12" fill="#3b82f6" opacity="0.12"/>
      <rect x="200" y="257" width="85" height="24" rx="12" fill="none" stroke="#3b82f6" stroke-width="1"/>
      <text x="242" y="273" font-family="Arial, sans-serif" font-size="10" font-weight="600" fill="#3b82f6" text-anchor="middle">Productivity</text>
    </g>
    
    <!-- Product Card 2 -->
    <g id="product2" transform="translate(320, 0)">
      <rect width="300" height="310" rx="14" fill="url(#cardBg)" filter="url(#cardShadow)"/>
      <rect width="300" height="310" rx="14" fill="none" stroke="#e5e7eb" stroke-width="2"/>
      <rect width="300" height="310" rx="14" fill="url(#cardGlow)"/>
      
      <rect x="15" y="15" width="270" height="140" rx="10" fill="url(#blueGrad)" filter="url(#glow)"/>
      <circle cx="150" cy="85" r="35" fill="#ffffff" opacity="0.2"/>
      <rect x="132" y="65" width="36" height="40" rx="5" fill="#ffffff" opacity="0.95"/>
      <rect x="140" y="73" width="20" height="6" rx="2" fill="#3b82f6"/>
      <rect x="140" y="84" width="20" height="6" rx="2" fill="#3b82f6"/>
      <rect x="140" y="95" width="20" height="6" rx="2" fill="#3b82f6"/>
      
      <text x="15" y="180" font-family="Arial, sans-serif" font-size="18" font-weight="700" fill="#1f2937">DataViz Studio</text>
      <text x="15" y="200" font-family="Arial, sans-serif" font-size="12" fill="#6b7280">Beautiful chart generator</text>
      
      <rect x="15" y="220" width="100" height="28" rx="14" fill="#3b82f6" opacity="0.15"/>
      <rect x="15" y="220" width="100" height="28" rx="14" fill="none" stroke="#3b82f6" stroke-width="1.5" filter="url(#glow)"/>
      <circle cx="30" cy="234" r="9" fill="url(#blueGrad)" class="build-score-circle"/>
      <text x="45" y="238" font-family="Arial, sans-serif" font-size="11" font-weight="700" fill="#3b82f6">Build: 89</text>
      
      <text x="15" y="272" font-family="Arial, sans-serif" font-size="24" font-weight="800" fill="#1f2937">$29</text>
      <text x="62" y="272" font-family="Arial, sans-serif" font-size="13" fill="#9ca3af">/mo</text>
      
      <rect x="200" y="257" width="85" height="24" rx="12" fill="#3b82f6" opacity="0.12"/>
      <rect x="200" y="257" width="85" height="24" rx="12" fill="none" stroke="#3b82f6" stroke-width="1"/>
      <text x="242" y="273" font-family="Arial, sans-serif" font-size="10" font-weight="600" fill="#3b82f6" text-anchor="middle">Analytics</text>
    </g>
    
    <!-- Product Card 3 -->
    <g id="product3" transform="translate(640, 0)">
      <rect width="300" height="310" rx="14" fill="url(#cardBg)" filter="url(#cardShadow)"/>
      <rect width="300" height="310" rx="14" fill="none" stroke="#e5e7eb" stroke-width="2"/>
      <rect width="300" height="310" rx="14" fill="url(#cardGlow)"/>
      
      <rect x="15" y="15" width="270" height="140" rx="10" fill="url(#cyanGrad)" filter="url(#glow)"/>
      <circle cx="150" cy="85" r="30" fill="#ffffff" opacity="0.2"/>
      <path d="M 137 85 L 150 72 L 163 85 L 150 98 Z" fill="#ffffff" opacity="0.95"/>
      <circle cx="150" cy="85" r="7" fill="#06b6d4"/>
      
      <text x="15" y="180" font-family="Arial, sans-serif" font-size="18" font-weight="700" fill="#1f2937">AutoBot AI</text>
      <text x="15" y="200" font-family="Arial, sans-serif" font-size="12" fill="#6b7280">Smart workflow automation</text>
      
      <rect x="15" y="220" width="100" height="28" rx="14" fill="#06b6d4" opacity="0.15"/>
      <rect x="15" y="220" width="100" height="28" rx="14" fill="none" stroke="#06b6d4" stroke-width="1.5" filter="url(#glow)"/>
      <circle cx="30" cy="234" r="9" fill="url(#cyanGrad)" class="build-score-circle"/>
      <text x="45" y="238" font-family="Arial, sans-serif" font-size="11" font-weight="700" fill="#0891b2">Build: 92</text>
      
      <text x="15" y="272" font-family="Arial, sans-serif" font-size="24" font-weight="800" fill="#1f2937">$79</text>
      <text x="62" y="272" font-family="Arial, sans-serif" font-size="13" fill="#9ca3af">/mo</text>
      
      <rect x="200" y="257" width="85" height="24" rx="12" fill="#06b6d4" opacity="0.12"/>
      <rect x="200" y="257" width="85" height="24" rx="12" fill="none" stroke="#06b6d4" stroke-width="1"/>
      <text x="242" y="273" font-family="Arial, sans-serif" font-size="10" font-weight="600" fill="#0891b2" text-anchor="middle">Automation</text>
    </g>
    
    <!-- Product Card 4 -->
    <g id="product4" transform="translate(960, 0)">
      <rect width="300" height="310" rx="14" fill="url(#cardBg)" filter="url(#cardShadow)"/>
      <rect width="300" height="310" rx="14" fill="none" stroke="#e5e7eb" stroke-width="2"/>
      <rect width="300" height="310" rx="14" fill="url(#cardGlow)"/>
      
      <rect x="15" y="15" width="270" height="140" rx="10" fill="url(#pinkGrad)" filter="url(#glow)"/>
      <circle cx="150" cy="85" r="33" fill="#ffffff" opacity="0.2"/>
      <circle cx="150" cy="85" r="22" fill="#ffffff" opacity="0.95"/>
      <path d="M 142 85 L 150 94 L 158 76" stroke="#ec4899" stroke-width="3" stroke-linecap="round" fill="none"/>
      
      <text x="15" y="180" font-family="Arial, sans-serif" font-size="18" font-weight="700" fill="#1f2937">EmailGenius</text>
      <text x="15" y="200" font-family="Arial, sans-serif" font-size="12" fill="#6b7280">AI email marketing platform</text>
      
      <rect x="15" y="220" width="100" height="28" rx="14" fill="#ec4899" opacity="0.15"/>
      <rect x="15" y="220" width="100" height="28" rx="14" fill="none" stroke="#ec4899" stroke-width="1.5" filter="url(#glow)"/>
      <circle cx="30" cy="234" r="9" fill="url(#pinkGrad)" class="build-score-circle"/>
      <text x="45" y="238" font-family="Arial, sans-serif" font-size="11" font-weight="700" fill="#db2777">Build: 87</text>
      
      <text x="15" y="272" font-family="Arial, sans-serif" font-size="24" font-weight="800" fill="#1f2937">$39</text>
      <text x="62" y="272" font-family="Arial, sans-serif" font-size="13" fill="#9ca3af">/mo</text>
      
      <rect x="200" y="257" width="85" height="24" rx="12" fill="#ec4899" opacity="0.12"/>
      <rect x="200" y="257" width="85" height="24" rx="12" fill="none" stroke="#ec4899" stroke-width="1"/>
      <text x="242" y="273" font-family="Arial, sans-serif" font-size="10" font-weight="600" fill="#db2777" text-anchor="middle">Marketing</text>
    </g>
    
    <!-- Product Card 5 -->
    <g id="product5" transform="translate(1280, 0)">
      <rect width="300" height="310" rx="14" fill="url(#cardBg)" filter="url(#cardShadow)"/>
      <rect width="300" height="310" rx="14" fill="none" stroke="#e5e7eb" stroke-width="2"/>
      <rect width="300" height="310" rx="14" fill="url(#cardGlow)"/>
      
      <rect x="210" y="12" width="75" height="24" rx="12" fill="url(#purpleGrad)" filter="url(#strongGlow)" class="featured-badge"/>
      <text x="247" y="28" font-family="Arial, sans-serif" font-size="10" font-weight="700" fill="#ffffff" text-anchor="middle">FEATURED</text>
      
      <rect x="15" y="15" width="270" height="140" rx="10" fill="url(#purpleGrad)" filter="url(#glow)"/>
      <circle cx="135" cy="85" r="22" fill="#ffffff" opacity="0.2"/>
      <circle cx="165" cy="85" r="22" fill="#ffffff" opacity="0.2"/>
      <rect x="127" y="72" width="50" height="26" rx="5" fill="#ffffff" opacity="0.95"/>
      <circle cx="140" cy="85" r="4" fill="#8b5cf6"/>
      <circle cx="155" cy="85" r="4" fill="#8b5cf6"/>
      
      <text x="15" y="180" font-family="Arial, sans-serif" font-size="18" font-weight="700" fill="#1f2937">InsightHub</text>
      <text x="15" y="200" font-family="Arial, sans-serif" font-size="12" fill="#6b7280">Customer analytics dashboard</text>
      
      <rect x="15" y="220" width="100" height="28" rx="14" fill="#8b5cf6" opacity="0.15"/>
      <rect x="15" y="220" width="100" height="28" rx="14" fill="none" stroke="#8b5cf6" stroke-width="1.5" filter="url(#glow)"/>
      <circle cx="30" cy="234" r="9" fill="url(#purpleGrad)" class="build-score-circle"/>
      <text x="45" y="238" font-family="Arial, sans-serif" font-size="11" font-weight="700" fill="#8b5cf6">Build: 96</text>
      
      <text x="15" y="272" font-family="Arial, sans-serif" font-size="24" font-weight="800" fill="#1f2937">$59</text>
      <text x="62" y="272" font-family="Arial, sans-serif" font-size="13" fill="#9ca3af">/mo</text>
      
      <rect x="200" y="257" width="85" height="24" rx="12" fill="#3b82f6" opacity="0.12"/>
      <rect x="200" y="257" width="85" height="24" rx="12" fill="none" stroke="#3b82f6" stroke-width="1"/>
      <text x="242" y="273" font-family="Arial, sans-serif" font-size="10" font-weight="600" fill="#3b82f6" text-anchor="middle">Analytics</text>
    </g>
    
    <!-- Row 2 -->
    <!-- Product Card 6 -->
    <g id="product6" transform="translate(160, 340)">
      <rect width="300" height="310" rx="14" fill="url(#cardBg)" filter="url(#cardShadow)"/>
      <rect width="300" height="310" rx="14" fill="none" stroke="#e5e7eb" stroke-width="2"/>
      <rect width="300" height="310" rx="14" fill="url(#cardGlow)"/>
      
      <rect x="15" y="15" width="270" height="140" rx="10" fill="url(#blueGrad)" filter="url(#glow)"/>
      <circle cx="150" cy="85" r="28" fill="#ffffff" opacity="0.2"/>
      <rect x="133" y="70" width="34" height="34" rx="7" fill="#ffffff" opacity="0.95"/>
      <rect x="142" y="78" width="18" height="4" rx="2" fill="#3b82f6"/>
      <rect x="142" y="85" width="14" height="4" rx="2" fill="#3b82f6"/>
      <rect x="142" y="92" width="16" height="4" rx="2" fill="#3b82f6"/>
      
      <text x="15" y="180" font-family="Arial, sans-serif" font-size="18" font-weight="700" fill="#1f2937">ContentCraft</text>
      <text x="15" y="200" font-family="Arial, sans-serif" font-size="12" fill="#6b7280">AI content generation tool</text>
      
      <rect x="15" y="220" width="100" height="28" rx="14" fill="#3b82f6" opacity="0.15"/>
      <rect x="15" y="220" width="100" height="28" rx="14" fill="none" stroke="#3b82f6" stroke-width="1.5" filter="url(#glow)"/>
      <circle cx="30" cy="234" r="9" fill="url(#blueGrad)" class="build-score-circle"/>
      <text x="45" y="238" font-family="Arial, sans-serif" font-size="11" font-weight="700" fill="#3b82f6">Build: 91</text>
      
      <text x="15" y="272" font-family="Arial, sans-serif" font-size="24" font-weight="800" fill="#1f2937">$45</text>
      <text x="62" y="272" font-family="Arial, sans-serif" font-size="13" fill="#9ca3af">/mo</text>
      
      <rect x="200" y="257" width="85" height="24" rx="12" fill="#ec4899" opacity="0.12"/>
      <rect x="200" y="257" width="85" height="24" rx="12" fill="none" stroke="#ec4899" stroke-width="1"/>
      <text x="242" y="273" font-family="Arial, sans-serif" font-size="10" font-weight="600" fill="#db2777" text-anchor="middle">AI Tools</text>
    </g>
    
    <!-- Product Card 7 -->
    <g id="product7" transform="translate(480, 340)">
      <rect width="300" height="310" rx="14" fill="url(#cardBg)" filter="url(#cardShadow)"/>
      <rect width="300" height="310" rx="14" fill="none" stroke="#e5e7eb" stroke-width="2"/>
      <rect width="300" height="310" rx="14" fill="url(#cardGlow)"/>
      
      <rect x="15" y="15" width="270" height="140" rx="10" fill="url(#cyanGrad)" filter="url(#glow)"/>
      <rect x="125" y="60" width="50" height="50" rx="10" fill="#ffffff" opacity="0.95"/>
      <circle cx="143" cy="78" r="5" fill="#06b6d4"/>
      <circle cx="157" cy="78" r="5" fill="#06b6d4"/>
      <path d="M 143 91 Q 150 97 157 91" stroke="#06b6d4" stroke-width="2.5" stroke-linecap="round" fill="none"/>
      
      <text x="15" y="180" font-family="Arial, sans-serif" font-size="18" font-weight="700" fill="#1f2937">SupportBot</text>
      <text x="15" y="200" font-family="Arial, sans-serif" font-size="12" fill="#6b7280">AI customer support assistant</text>
      
      <rect x="15" y="220" width="100" height="28" rx="14" fill="#06b6d4" opacity="0.15"/>
      <rect x="15" y="220" width="100" height="28" rx="14" fill="none" stroke="#06b6d4" stroke-width="1.5" filter="url(#glow)"/>
      <circle cx="30" cy="234" r="9" fill="url(#cyanGrad)" class="build-score-circle"/>
      <text x="45" y="238" font-family="Arial, sans-serif" font-size="11" font-weight="700" fill="#0891b2">Build: 88</text>
      
      <text x="15" y="272" font-family="Arial, sans-serif" font-size="24" font-weight="800" fill="#1f2937">$35</text>
      <text x="62" y="272" font-family="Arial, sans-serif" font-size="13" fill="#9ca3af">/mo</text>
      
      <rect x="200" y="257" width="85" height="24" rx="12" fill="#06b6d4" opacity="0.12"/>
      <rect x="200" y="257" width="85" height="24" rx="12" fill="none" stroke="#06b6d4" stroke-width="1"/>
      <text x="242" y="273" font-family="Arial, sans-serif" font-size="10" font-weight="600" fill="#0891b2" text-anchor="middle">Support</text>
    </g>
    
    <!-- Product Card 8 -->
    <g id="product8" transform="translate(800, 340)">
      <rect width="300" height="310" rx="14" fill="url(#cardBg)" filter="url(#cardShadow)"/>
      <rect width="300" height="310" rx="14" fill="none" stroke="#e5e7eb" stroke-width="2"/>
      <rect width="300" height="310" rx="14" fill="url(#cardGlow)"/>
      
      <rect x="210" y="12" width="75" height="24" rx="12" fill="url(#blueGrad)" filter="url(#strongGlow)" class="featured-badge"/>
      <text x="247" y="28" font-family="Arial, sans-serif" font-size="10" font-weight="700" fill="#ffffff" text-anchor="middle">FEATURED</text>
      
      <rect x="15" y="15" width="270" height="140" rx="10" fill="url(#pinkGrad)" filter="url(#glow)"/>
      <circle cx="150" cy="85" r="30" fill="#ffffff" opacity="0.2"/>
      <path d="M 138 85 L 150 73 L 162 85" stroke="#ffffff" stroke-width="4" stroke-linecap="round" stroke-linejoin="round" fill="none" opacity="0.95"/>
      <path d="M 150 77 L 150 97" stroke="#ffffff" stroke-width="4" stroke-linecap="round" fill="none" opacity="0.95"/>
      
      <text x="15" y="180" font-family="Arial, sans-serif" font-size="18" font-weight="700" fill="#1f2937">GrowthMetrics</text>
      <text x="15" y="200" font-family="Arial, sans-serif" font-size="12" fill="#6b7280">Revenue analytics platform</text>
      
      <rect x="15" y="220" width="100" height="28" rx="14" fill="#ec4899" opacity="0.15"/>
      <rect x="15" y="220" width="100" height="28" rx="14" fill="none" stroke="#ec4899" stroke-width="1.5" filter="url(#glow)"/>
      <circle cx="30" cy="234" r="9" fill="url(#pinkGrad)" class="build-score-circle"/>
      <text x="45" y="238" font-family="Arial, sans-serif" font-size="11" font-weight="700" fill="#db2777">Build: 95</text>
      
      <text x="15" y="272" font-family="Arial, sans-serif" font-size="24" font-weight="800" fill="#1f2937">$89</text>
      <text x="62" y="272" font-family="Arial, sans-serif" font-size="13" fill="#9ca3af">/mo</text>
      
      <rect x="200" y="257" width="85" height="24" rx="12" fill="#3b82f6" opacity="0.12"/>
      <rect x="200" y="257" width="85" height="24" rx="12" fill="none" stroke="#3b82f6" stroke-width="1"/>
      <text x="242" y="273" font-family="Arial, sans-serif" font-size="10" font-weight="600" fill="#3b82f6" text-anchor="middle">Analytics</text>
    </g>
    
    <!-- Product Card 9 -->
    <g id="product9" transform="translate(1120, 340)">
      <rect width="300" height="310" rx="14" fill="url(#cardBg)" filter="url(#cardShadow)"/>
      <rect width="300" height="310" rx="14" fill="none" stroke="#e5e7eb" stroke-width="2"/>
      <rect width="300" height="310" rx="14" fill="url(#cardGlow)"/>
      
      <rect x="15" y="15" width="270" height="140" rx="10" fill="url(#purpleGrad)" filter="url(#glow)"/>
      <circle cx="138" cy="75" r="18" fill="#ffffff" opacity="0.2"/>
      <circle cx="162" cy="75" r="18" fill="#ffffff" opacity="0.2"/>
      <circle cx="138" cy="95" r="18" fill="#ffffff" opacity="0.2"/>
      <circle cx="162" cy="95" r="18" fill="#ffffff" opacity="0.2"/>
      <rect x="133" y="66" width="38" height="42" rx="7" fill="#ffffff" opacity="0.95"/>
      
      <text x="15" y="180" font-family="Arial, sans-serif" font-size="18" font-weight="700" fill="#1f2937">TeamSync</text>
      <text x="15" y="200" font-family="Arial, sans-serif" font-size="12" fill="#6b7280">Real-time collaboration hub</text>
      
      <rect x="15" y="220" width="100" height="28" rx="14" fill="#8b5cf6" opacity="0.15"/>
      <rect x="15" y="220" width="100" height="28" rx="14" fill="none" stroke="#8b5cf6" stroke-width="1.5" filter="url(#glow)"/>
      <circle cx="30" cy="234" r="9" fill="url(#purpleGrad)" class="build-score-circle"/>
      <text x="45" y="238" font-family="Arial, sans-serif" font-size="11" font-weight="700" fill="#8b5cf6">Build: 93</text>
      
      <text x="15" y="272" font-family="Arial, sans-serif" font-size="24" font-weight="800" fill="#1f2937">$25</text>
      <text x="62" y="272" font-family="Arial, sans-serif" font-size="13" fill="#9ca3af">/mo</text>
      
      <rect x="200" y="257" width="85" height="24" rx="12" fill="#3b82f6" opacity="0.12"/>
      <rect x="200" y="257" width="85" height="24" rx="12" fill="none" stroke="#3b82f6" stroke-width="1"/>
      <text x="242" y="273" font-family="Arial, sans-serif" font-size="10" font-weight="600" fill="#3b82f6" text-anchor="middle">Collaboration</text>
    </g>
  </g>
  
  <!-- Decorative Glowing Elements -->
  <circle cx="1550" cy="120" r="5" fill="#8b5cf6" opacity="0.4" filter="url(#glow)" class="floating-particle"/>
  <circle cx="1520" cy="150" r="7" fill="#3b82f6" opacity="0.3" filter="url(#glow)" class="floating-particle" style="animation-delay: 0.5s"/>
  <circle cx="30" cy="280" r="6" fill="#ec4899" opacity="0.35" filter="url(#glow)" class="floating-particle" style="animation-delay: 1s"/>
  <circle cx="50" cy="310" r="5" fill="#06b6d4" opacity="0.4" filter="url(#glow)" class="floating-particle" style="animation-delay: 1.5s"/>
  <circle cx="1550" cy="600" r="6" fill="#8b5cf6" opacity="0.35" filter="url(#glow)" class="floating-particle" style="animation-delay: 2s"/>
  <circle cx="30" cy="750" r="5" fill="#3b82f6" opacity="0.3" filter="url(#glow)" class="floating-particle" style="animation-delay: 2.5s"/>
</svg>
