<svg viewBox="0 0 1200 1400" xmlns="http://www.w3.org/2000/svg">
  <defs>
    <!-- Gradients -->
    <linearGradient id="purpleGrad" x1="0%" y1="0%" x2="100%" y2="100%">
      <stop offset="0%" style="stop-color:#8b5cf6;stop-opacity:1" />
      <stop offset="100%" style="stop-color:#6366f1;stop-opacity:1" />
    </linearGradient>
    
    <linearGradient id="blueGrad" x1="0%" y1="0%" x2="100%" y2="100%">
      <stop offset="0%" style="stop-color:#3b82f6;stop-opacity:1" />
      <stop offset="100%" style="stop-color:#2563eb;stop-opacity:1" />
    </linearGradient>
    
    <linearGradient id="cyanGrad" x1="0%" y1="0%" x2="100%" y2="100%">
      <stop offset="0%" style="stop-color:#06b6d4;stop-opacity:1" />
      <stop offset="100%" style="stop-color:#0891b2;stop-opacity:1" />
    </linearGradient>
    
    <linearGradient id="pinkGrad" x1="0%" y1="0%" x2="100%" y2="100%">
      <stop offset="0%" style="stop-color:#ec4899;stop-opacity:1" />
      <stop offset="100%" style="stop-color:#db2777;stop-opacity:1" />
    </linearGradient>
    
    <linearGradient id="cardBg" x1="0%" y1="0%" x2="0%" y2="100%">
      <stop offset="0%" style="stop-color:#ffffff;stop-opacity:0.95" />
      <stop offset="100%" style="stop-color:#f9fafb;stop-opacity:0.95" />
    </linearGradient>
    
    <linearGradient id="cardGlow" x1="0%" y1="0%" x2="0%" y2="100%">
      <stop offset="0%" style="stop-color:#ffffff;stop-opacity:0.3" />
      <stop offset="100%" style="stop-color:#ffffff;stop-opacity:0" />
    </linearGradient>
    
    <!-- Enhanced Filters with Glow -->
    <filter id="cardShadow">
      <feDropShadow dx="0" dy="4" stdDeviation="12" flood-opacity="0.15"/>
      <feDropShadow dx="0" dy="2" stdDeviation="4" flood-opacity="0.1"/>
    </filter>
    
    <filter id="glow">
      <feGaussianBlur stdDeviation="4" result="coloredBlur"/>
      <feMerge>
        <feMergeNode in="coloredBlur"/>
        <feMergeNode in="SourceGraphic"/>
      </feMerge>
    </filter>
    
    <filter id="strongGlow">
      <feGaussianBlur stdDeviation="8" result="coloredBlur"/>
      <feMerge>
        <feMergeNode in="coloredBlur"/>
        <feMergeNode in="SourceGraphic"/>
      </feMerge>
    </filter>
    
    <filter id="buttonGlow">
      <feGaussianBlur stdDeviation="6" result="coloredBlur"/>
      <feMerge>
        <feMergeNode in="coloredBlur"/>
        <feMergeNode in="SourceGraphic"/>
      </feMerge>
    </filter>
  </defs>
  
  <!-- Header Section -->
  <g id="header">
    <!-- Search Bar with border for visibility -->
    <rect x="50" y="40" width="700" height="60" rx="30" fill="url(#cardBg)" filter="url(#cardShadow)"/>
    <rect x="50" y="40" width="700" height="60" rx="30" fill="none" stroke="#e5e7eb" stroke-width="1.5"/>
    <text x="90" y="75" font-family="Arial, sans-serif" font-size="16" fill="#6b7280">Search micro-SaaS products...</text>
    
    <!-- Search Icon with Glow -->
    <circle cx="710" cy="70" r="18" fill="url(#purpleGrad)" filter="url(#glow)"/>
    <path d="M 705 65 L 710 70 M 710 70 L 715 75" stroke="#ffffff" stroke-width="2" stroke-linecap="round" fill="none"/>
    
    <!-- Filter Button -->
    <rect x="780" y="40" width="140" height="60" rx="12" fill="url(#cardBg)" filter="url(#cardShadow)"/>
    <rect x="780" y="40" width="140" height="60" rx="12" fill="none" stroke="#e5e7eb" stroke-width="1.5"/>
    <text x="825" y="75" font-family="Arial, sans-serif" font-size="14" font-weight="600" fill="#1f2937">Categories ▼</text>
    
    <!-- Featured Button with Glow -->
    <rect x="950" y="40" width="200" height="60" rx="12" fill="url(#blueGrad)" filter="url(#buttonGlow)"/>
    <text x="1010" y="75" font-family="Arial, sans-serif" font-size="14" font-weight="600" fill="#ffffff">Featured Products</text>
  </g>
  
  <!-- Category Tags with subtle glow -->
  <g id="categories" transform="translate(50, 130)">
    <rect x="0" y="0" width="120" height="36" rx="18" fill="#8b5cf6" opacity="0.15"/>
    <rect x="0" y="0" width="120" height="36" rx="18" fill="none" stroke="#8b5cf6" stroke-width="1.5" filter="url(#glow)"/>
    <text x="60" y="23" font-family="Arial, sans-serif" font-size="13" font-weight="600" fill="#8b5cf6" text-anchor="middle">All Products</text>
    
    <rect x="135" y="0" width="100" height="36" rx="18" fill="#3b82f6" opacity="0.1"/>
    <rect x="135" y="0" width="100" height="36" rx="18" fill="none" stroke="#3b82f6" stroke-width="1"/>
    <text x="185" y="23" font-family="Arial, sans-serif" font-size="13" font-weight="500" fill="#3b82f6" text-anchor="middle">Analytics</text>
    
    <rect x="250" y="0" width="110" height="36" rx="18" fill="#06b6d4" opacity="0.1"/>
    <rect x="250" y="0" width="110" height="36" rx="18" fill="none" stroke="#06b6d4" stroke-width="1"/>
    <text x="305" y="23" font-family="Arial, sans-serif" font-size="13" font-weight="500" fill="#0891b2" text-anchor="middle">Automation</text>
    
    <rect x="375" y="0" width="90" height="36" rx="18" fill="#ec4899" opacity="0.1"/>
    <rect x="375" y="0" width="90" height="36" rx="18" fill="none" stroke="#ec4899" stroke-width="1"/>
    <text x="420" y="23" font-family="Arial, sans-serif" font-size="13" font-weight="500" fill="#db2777" text-anchor="middle">AI Tools</text>
  </g>
  
  <!-- Product Grid -->
  <g id="productGrid" transform="translate(50, 220)">
    <!-- Product Card 1 -->
    <g id="product1">
      <rect width="350" height="340" rx="16" fill="url(#cardBg)" filter="url(#cardShadow)"/>
      <rect width="350" height="340" rx="16" fill="none" stroke="#e5e7eb" stroke-width="2"/>
      <rect width="350" height="340" rx="16" fill="url(#cardGlow)"/>
      
      <!-- Featured Badge with Strong Glow -->
      <rect x="250" y="15" width="85" height="28" rx="14" fill="url(#pinkGrad)" filter="url(#strongGlow)"/>
      <text x="292" y="33" font-family="Arial, sans-serif" font-size="11" font-weight="700" fill="#ffffff" text-anchor="middle">FEATURED</text>
      
      <!-- Thumbnail with glow -->
      <rect x="20" y="20" width="310" height="160" rx="12" fill="url(#purpleGrad)" filter="url(#glow)"/>
      <circle cx="175" cy="100" r="35" fill="#ffffff" opacity="0.2"/>
      <rect x="145" y="80" width="60" height="40" rx="8" fill="#ffffff" opacity="0.95"/>
      <path d="M 160 95 L 170 105 L 190 85" stroke="#8b5cf6" stroke-width="4" stroke-linecap="round" stroke-linejoin="round" fill="none"/>
      
      <!-- Product Info -->
      <text x="20" y="210" font-family="Arial, sans-serif" font-size="20" font-weight="700" fill="#1f2937">TaskFlow Pro</text>
      <text x="20" y="235" font-family="Arial, sans-serif" font-size="13" fill="#6b7280">Project management automation</text>
      
      <!-- Build Score Badge with glow -->
      <rect x="20" y="255" width="110" height="32" rx="16" fill="#8b5cf6" opacity="0.15"/>
      <rect x="20" y="255" width="110" height="32" rx="16" fill="none" stroke="#8b5cf6" stroke-width="1.5" filter="url(#glow)"/>
      <circle cx="38" cy="271" r="10" fill="url(#purpleGrad)"/>
      <text x="54" y="275" font-family="Arial, sans-serif" font-size="13" font-weight="700" fill="#8b5cf6">Build Score: 94</text>
      
      <!-- Pricing -->
      <text x="20" y="310" font-family="Arial, sans-serif" font-size="26" font-weight="800" fill="#1f2937">$49</text>
      <text x="75" y="310" font-family="Arial, sans-serif" font-size="14" fill="#9ca3af">/month</text>
      
      <!-- Category Tag -->
      <rect x="230" y="285" width="100" height="28" rx="14" fill="#3b82f6" opacity="0.12"/>
      <rect x="230" y="285" width="100" height="28" rx="14" fill="none" stroke="#3b82f6" stroke-width="1"/>
      <text x="280" y="303" font-family="Arial, sans-serif" font-size="11" font-weight="600" fill="#3b82f6" text-anchor="middle">Productivity</text>
    </g>
    
    <!-- Product Card 2 -->
    <g id="product2" transform="translate(375, 0)">
      <rect width="350" height="340" rx="16" fill="url(#cardBg)" filter="url(#cardShadow)"/>
      <rect width="350" height="340" rx="16" fill="none" stroke="#e5e7eb" stroke-width="2"/>
      <rect width="350" height="340" rx="16" fill="url(#cardGlow)"/>
      
      <!-- Thumbnail -->
      <rect x="20" y="20" width="310" height="160" rx="12" fill="url(#blueGrad)" filter="url(#glow)"/>
      <circle cx="175" cy="100" r="40" fill="#ffffff" opacity="0.2"/>
      <rect x="155" y="75" width="40" height="50" rx="6" fill="#ffffff" opacity="0.95"/>
      <rect x="165" y="85" width="20" height="8" rx="2" fill="#3b82f6"/>
      <rect x="165" y="98" width="20" height="8" rx="2" fill="#3b82f6"/>
      <rect x="165" y="111" width="20" height="8" rx="2" fill="#3b82f6"/>
      
      <!-- Product Info -->
      <text x="20" y="210" font-family="Arial, sans-serif" font-size="20" font-weight="700" fill="#1f2937">DataViz Studio</text>
      <text x="20" y="235" font-family="Arial, sans-serif" font-size="13" fill="#6b7280">Beautiful chart generator</text>
      
      <!-- Build Score Badge -->
      <rect x="20" y="255" width="110" height="32" rx="16" fill="#3b82f6" opacity="0.15"/>
      <rect x="20" y="255" width="110" height="32" rx="16" fill="none" stroke="#3b82f6" stroke-width="1.5" filter="url(#glow)"/>
      <circle cx="38" cy="271" r="10" fill="url(#blueGrad)"/>
      <text x="54" y="275" font-family="Arial, sans-serif" font-size="13" font-weight="700" fill="#3b82f6">Build Score: 89</text>
      
      <!-- Pricing -->
      <text x="20" y="310" font-family="Arial, sans-serif" font-size="26" font-weight="800" fill="#1f2937">$29</text>
      <text x="75" y="310" font-family="Arial, sans-serif" font-size="14" fill="#9ca3af">/month</text>
      
      <!-- Category Tag -->
      <rect x="230" y="285" width="100" height="28" rx="14" fill="#3b82f6" opacity="0.12"/>
      <rect x="230" y="285" width="100" height="28" rx="14" fill="none" stroke="#3b82f6" stroke-width="1"/>
      <text x="280" y="303" font-family="Arial, sans-serif" font-size="11" font-weight="600" fill="#3b82f6" text-anchor="middle">Analytics</text>
    </g>
    
    <!-- Product Card 3 -->
    <g id="product3" transform="translate(750, 0)">
      <rect width="350" height="340" rx="16" fill="url(#cardBg)" filter="url(#cardShadow)"/>
      <rect width="350" height="340" rx="16" fill="none" stroke="#e5e7eb" stroke-width="2"/>
      <rect width="350" height="340" rx="16" fill="url(#cardGlow)"/>
      
      <!-- Thumbnail -->
      <rect x="20" y="20" width="310" height="160" rx="12" fill="url(#cyanGrad)" filter="url(#glow)"/>
      <circle cx="175" cy="100" r="35" fill="#ffffff" opacity="0.2"/>
      <path d="M 160 100 L 175 85 L 190 100 L 175 115 Z" fill="#ffffff" opacity="0.95"/>
      <circle cx="175" cy="100" r="8" fill="#06b6d4"/>
      
      <!-- Product Info -->
      <text x="20" y="210" font-family="Arial, sans-serif" font-size="20" font-weight="700" fill="#1f2937">AutoBot AI</text>
      <text x="20" y="235" font-family="Arial, sans-serif" font-size="13" fill="#6b7280">Smart workflow automation</text>
      
      <!-- Build Score Badge -->
      <rect x="20" y="255" width="110" height="32" rx="16" fill="#06b6d4" opacity="0.15"/>
      <rect x="20" y="255" width="110" height="32" rx="16" fill="none" stroke="#06b6d4" stroke-width="1.5" filter="url(#glow)"/>
      <circle cx="38" cy="271" r="10" fill="url(#cyanGrad)"/>
      <text x="54" y="275" font-family="Arial, sans-serif" font-size="13" font-weight="700" fill="#0891b2">Build Score: 92</text>
      
      <!-- Pricing -->
      <text x="20" y="310" font-family="Arial, sans-serif" font-size="26" font-weight="800" fill="#1f2937">$79</text>
      <text x="75" y="310" font-family="Arial, sans-serif" font-size="14" fill="#9ca3af">/month</text>
      
      <!-- Category Tag -->
      <rect x="230" y="285" width="100" height="28" rx="14" fill="#06b6d4" opacity="0.12"/>
      <rect x="230" y="285" width="100" height="28" rx="14" fill="none" stroke="#06b6d4" stroke-width="1"/>
      <text x="280" y="303" font-family="Arial, sans-serif" font-size="11" font-weight="600" fill="#0891b2" text-anchor="middle">Automation</text>
    </g>
    
    <!-- Product Card 4 -->
    <g id="product4" transform="translate(0, 370)">
      <rect width="350" height="340" rx="16" fill="url(#cardBg)" filter="url(#cardShadow)"/>
      <rect width="350" height="340" rx="16" fill="none" stroke="#e5e7eb" stroke-width="2"/>
      <rect width="350" height="340" rx="16" fill="url(#cardGlow)"/>
      
      <!-- Thumbnail -->
      <rect x="20" y="20" width="310" height="160" rx="12" fill="url(#pinkGrad)" filter="url(#glow)"/>
      <circle cx="175" cy="100" r="38" fill="#ffffff" opacity="0.2"/>
      <circle cx="175" cy="100" r="25" fill="#ffffff" opacity="0.95"/>
      <path d="M 165 100 L 175 110 L 185 90" stroke="#ec4899" stroke-width="3" stroke-linecap="round" fill="none"/>
      
      <!-- Product Info -->
      <text x="20" y="210" font-family="Arial, sans-serif" font-size="20" font-weight="700" fill="#1f2937">EmailGenius</text>
      <text x="20" y="235" font-family="Arial, sans-serif" font-size="13" fill="#6b7280">AI email marketing platform</text>
      
      <!-- Build Score Badge -->
      <rect x="20" y="255" width="110" height="32" rx="16" fill="#ec4899" opacity="0.15"/>
      <rect x="20" y="255" width="110" height="32" rx="16" fill="none" stroke="#ec4899" stroke-width="1.5" filter="url(#glow)"/>
      <circle cx="38" cy="271" r="10" fill="url(#pinkGrad)"/>
      <text x="54" y="275" font-family="Arial, sans-serif" font-size="13" font-weight="700" fill="#db2777">Build Score: 87</text>
      
      <!-- Pricing -->
      <text x="20" y="310" font-family="Arial, sans-serif" font-size="26" font-weight="800" fill="#1f2937">$39</text>
      <text x="75" y="310" font-family="Arial, sans-serif" font-size="14" fill="#9ca3af">/month</text>
      
      <!-- Category Tag -->
      <rect x="230" y="285" width="100" height="28" rx="14" fill="#ec4899" opacity="0.12"/>
      <rect x="230" y="285" width="100" height="28" rx="14" fill="none" stroke="#ec4899" stroke-width="1"/>
      <text x="280" y="303" font-family="Arial, sans-serif" font-size="11" font-weight="600" fill="#db2777" text-anchor="middle">Marketing</text>
    </g>
    
    <!-- Product Card 5 -->
    <g id="product5" transform="translate(375, 370)">
      <rect width="350" height="340" rx="16" fill="url(#cardBg)" filter="url(#cardShadow)"/>
      <rect width="350" height="340" rx="16" fill="none" stroke="#e5e7eb" stroke-width="2"/>
      <rect width="350" height="340" rx="16" fill="url(#cardGlow)"/>
      
      <!-- Featured Badge -->
      <rect x="250" y="15" width="85" height="28" rx="14" fill="url(#purpleGrad)" filter="url(#strongGlow)"/>
      <text x="292" y="33" font-family="Arial, sans-serif" font-size="11" font-weight="700" fill="#ffffff" text-anchor="middle">FEATURED</text>
      
      <!-- Thumbnail -->
      <rect x="20" y="20" width="310" height="160" rx="12" fill="url(#purpleGrad)" filter="url(#glow)"/>
      <circle cx="155" cy="100" r="25" fill="#ffffff" opacity="0.2"/>
      <circle cx="195" cy="100" r="25" fill="#ffffff" opacity="0.2"/>
      <rect x="145" y="85" width="60" height="30" rx="6" fill="#ffffff" opacity="0.95"/>
      <circle cx="160" cy="100" r="5" fill="#8b5cf6"/>
      <circle cx="180" cy="100" r="5" fill="#8b5cf6"/>
      
      <!-- Product Info -->
      <text x="20" y="210" font-family="Arial, sans-serif" font-size="20" font-weight="700" fill="#1f2937">InsightHub</text>
      <text x="20" y="235" font-family="Arial, sans-serif" font-size="13" fill="#6b7280">Customer analytics dashboard</text>
      
      <!-- Build Score Badge -->
      <rect x="20" y="255" width="110" height="32" rx="16" fill="#8b5cf6" opacity="0.15"/>
      <rect x="20" y="255" width="110" height="32" rx="16" fill="none" stroke="#8b5cf6" stroke-width="1.5" filter="url(#glow)"/>
      <circle cx="38" cy="271" r="10" fill="url(#purpleGrad)"/>
      <text x="54" y="275" font-family="Arial, sans-serif" font-size="13" font-weight="700" fill="#8b5cf6">Build Score: 96</text>
      
      <!-- Pricing -->
      <text x="20" y="310" font-family="Arial, sans-serif" font-size="26" font-weight="800" fill="#1f2937">$59</text>
      <text x="75" y="310" font-family="Arial, sans-serif" font-size="14" fill="#9ca3af">/month</text>
      
      <!-- Category Tag -->
      <rect x="230" y="285" width="100" height="28" rx="14" fill="#3b82f6" opacity="0.12"/>
      <rect x="230" y="285" width="100" height="28" rx="14" fill="none" stroke="#3b82f6" stroke-width="1"/>
      <text x="280" y="303" font-family="Arial, sans-serif" font-size="11" font-weight="600" fill="#3b82f6" text-anchor="middle">Analytics</text>
    </g>
    
    <!-- Product Card 6 -->
    <g id="product6" transform="translate(750, 370)">
      <rect width="350" height="340" rx="16" fill="url(#cardBg)" filter="url(#cardShadow)"/>
      <rect width="350" height="340" rx="16" fill="none" stroke="#e5e7eb" stroke-width="2"/>
      <rect width="350" height="340" rx="16" fill="url(#cardGlow)"/>
      
      <!-- Thumbnail -->
      <rect x="20" y="20" width="310" height="160" rx="12" fill="url(#blueGrad)" filter="url(#glow)"/>
      <circle cx="175" cy="100" r="30" fill="#ffffff" opacity="0.2"/>
      <rect x="155" y="80" width="40" height="40" rx="8" fill="#ffffff" opacity="0.95"/>
      <rect x="165" y="90" width="20" height="4" rx="2" fill="#3b82f6"/>
      <rect x="165" y="98" width="15" height="4" rx="2" fill="#3b82f6"/>
      <rect x="165" y="106" width="18" height="4" rx="2" fill="#3b82f6"/>
      
      <!-- Product Info -->
      <text x="20" y="210" font-family="Arial, sans-serif" font-size="20" font-weight="700" fill="#1f2937">ContentCraft</text>
      <text x="20" y="235" font-family="Arial, sans-serif" font-size="13" fill="#6b7280">AI content generation tool</text>
      
      <!-- Build Score Badge -->
      <rect x="20" y="255" width="110" height="32" rx="16" fill="#3b82f6" opacity="0.15"/>
      <rect x="20" y="255" width="110" height="32" rx="16" fill="none" stroke="#3b82f6" stroke-width="1.5" filter="url(#glow)"/>
      <circle cx="38" cy="271" r="10" fill="url(#blueGrad)"/>
      <text x="54" y="275" font-family="Arial, sans-serif" font-size="13" font-weight="700" fill="#3b82f6">Build Score: 91</text>
      
      <!-- Pricing -->
      <text x="20" y="310" font-family="Arial, sans-serif" font-size="26" font-weight="800" fill="#1f2937">$45</text>
      <text x="75" y="310" font-family="Arial, sans-serif" font-size="14" fill="#9ca3af">/month</text>
      
      <!-- Category Tag -->
      <rect x="230" y="285" width="100" height="28" rx="14" fill="#ec4899" opacity="0.12"/>
      <rect x="230" y="285" width="100" height="28" rx="14" fill="none" stroke="#ec4899" stroke-width="1"/>
      <text x="280" y="303" font-family="Arial, sans-serif" font-size="11" font-weight="600" fill="#db2777" text-anchor="middle">AI Tools</text>
    </g>
    
    <!-- Product Card 7 -->
    <g id="product7" transform="translate(0, 740)">
      <rect width="350" height="340" rx="16" fill="url(#cardBg)" filter="url(#cardShadow)"/>
      <rect width="350" height="340" rx="16" fill="none" stroke="#e5e7eb" stroke-width="2"/>
      <rect width="350" height="340" rx="16" fill="url(#cardGlow)"/>
      
      <!-- Thumbnail -->
      <rect x="20" y="20" width="310" height="160" rx="12" fill="url(#cyanGrad)" filter="url(#glow)"/>
      <rect x="145" y="70" width="60" height="60" rx="12" fill="#ffffff" opacity="0.95"/>
      <circle cx="165" cy="90" r="6" fill="#06b6d4"/>
      <circle cx="185" cy="90" r="6" fill="#06b6d4"/>
      <path d="M 165 105 Q 175 112 185 105" stroke="#06b6d4" stroke-width="3" stroke-linecap="round" fill="none"/>
      
      <!-- Product Info -->
      <text x="20" y="210" font-family="Arial, sans-serif" font-size="20" font-weight="700" fill="#1f2937">SupportBot</text>
      <text x="20" y="235" font-family="Arial, sans-serif" font-size="13" fill="#6b7280">AI customer support assistant</text>
      
      <!-- Build Score Badge -->
      <rect x="20" y="255" width="110" height="32" rx="16" fill="#06b6d4" opacity="0.15"/>
      <rect x="20" y="255" width="110" height="32" rx="16" fill="none" stroke="#06b6d4" stroke-width="1.5" filter="url(#glow)"/>
      <circle cx="38" cy="271" r="10" fill="url(#cyanGrad)"/>
      <text x="54" y="275" font-family="Arial, sans-serif" font-size="13" font-weight="700" fill="#0891b2">Build Score: 88</text>
      
      <!-- Pricing -->
      <text x="20" y="310" font-family="Arial, sans-serif" font-size="26" font-weight="800" fill="#1f2937">$35</text>
      <text x="75" y="310" font-family="Arial, sans-serif" font-size="14" fill="#9ca3af">/month</text>
      
      <!-- Category Tag -->
      <rect x="230" y="285" width="100" height="28" rx="14" fill="#06b6d4" opacity="0.12"/>
      <rect x="230" y="285" width="100" height="28" rx="14" fill="none" stroke="#06b6d4" stroke-width="1"/>
      <text x="280" y="303" font-family="Arial, sans-serif" font-size="11" font-weight="600" fill="#0891b2" text-anchor="middle">Support</text>
    </g>
    
    <!-- Product Card 8 -->
    <g id="product8" transform="translate(375, 740)">
      <rect width="350" height="340" rx="16" fill="url(#cardBg)" filter="url(#cardShadow)"/>
      <rect width="350" height="340" rx="16" fill="none" stroke="#e5e7eb" stroke-width="2"/>
      <rect width="350" height="340" rx="16" fill="url(#cardGlow)"/>
      
      <!-- Thumbnail -->
      <rect x="20" y="20" width="310" height="160" rx="12" fill="url(#purpleGrad)" filter="url(#glow)"/>
      <circle cx="160" cy="85" r="20" fill="#ffffff" opacity="0.2"/>
      <circle cx="190" cy="85" r="20" fill="#ffffff" opacity="0.2"/>
      <circle cx="160" cy="115" r="20" fill="#ffffff" opacity="0.2"/>
      <circle cx="190" cy="115" r="20" fill="#ffffff" opacity="0.2"/>
      <rect x="155" y="75" width="45" height="50" rx="8" fill="#ffffff" opacity="0.95"/>
      
      <!-- Product Info -->
      <text x="20" y="210" font-family="Arial, sans-serif" font-size="20" font-weight="700" fill="#1f2937">TeamSync</text>
      <text x="20" y="235" font-family="Arial, sans-serif" font-size="13" fill="#6b7280">Real-time collaboration hub</text>
      
      <!-- Build Score Badge -->
      <rect x="20" y="255" width="110" height="32" rx="16" fill="#8b5cf6" opacity="0.15"/>
      <rect x="20" y="255" width="110" height="32" rx="16" fill="none" stroke="#8b5cf6" stroke-width="1.5" filter="url(#glow)"/>
      <circle cx="38" cy="271" r="10" fill="url(#purpleGrad)"/>
      <text x="54" y="275" font-family="Arial, sans-serif" font-size="13" font-weight="700" fill="#8b5cf6">Build Score: 93</text>
      
      <!-- Pricing -->
      <text x="20" y="310" font-family="Arial, sans-serif" font-size="26" font-weight="800" fill="#1f2937">$25</text>
      <text x="75" y="310" font-family="Arial, sans-serif" font-size="14" fill="#9ca3af">/month</text>
      
      <!-- Category Tag -->
      <rect x="230" y="285" width="100" height="28" rx="14" fill="#3b82f6" opacity="0.12"/>
      <rect x="230" y="285" width="100" height="28" rx="14" fill="none" stroke="#3b82f6" stroke-width="1"/>
      <text x="280" y="303" font-family="Arial, sans-serif" font-size="11" font-weight="600" fill="#3b82f6" text-anchor="middle">Collaboration</text>
    </g>
    
    <!-- Product Card 9 -->
    <g id="product9" transform="translate(750, 740)">
      <rect width="350" height="340" rx="16" fill="url(#cardBg)" filter="url(#cardShadow)"/>
      <rect width="350" height="340" rx="16" fill="none" stroke="#e5e7eb" stroke-width="2"/>
      <rect width="350" height="340" rx="16" fill="url(#cardGlow)"/>
      
      <!-- Featured Badge -->
      <rect x="250" y="15" width="85" height="28" rx="14" fill="url(#blueGrad)" filter="url(#strongGlow)"/>
      <text x="292" y="33" font-family="Arial, sans-serif" font-size="11" font-weight="700" fill="#ffffff" text-anchor="middle">FEATURED</text>
      
      <!-- Thumbnail -->
      <rect x="20" y="20" width="310" height="160" rx="12" fill="url(#pinkGrad)" filter="url(#glow)"/>
      <circle cx="175" cy="100" r="35" fill="#ffffff" opacity="0.2"/>
      <path d="M 160 100 L 175 85 L 190 100" stroke="#ffffff" stroke-width="5" stroke-linecap="round" stroke-linejoin="round" fill="none" opacity="0.95"/>
      <path d="M 175 90 L 175 115" stroke="#ffffff" stroke-width="5" stroke-linecap="round" fill="none" opacity="0.95"/>
      
      <!-- Product Info -->
      <text x="20" y="210" font-family="Arial, sans-serif" font-size="20" font-weight="700" fill="#1f2937">GrowthMetrics</text>
      <text x="20" y="235" font-family="Arial, sans-serif" font-size="13" fill="#6b7280">Revenue analytics platform</text>
      
      <!-- Build Score Badge -->
      <rect x="20" y="255" width="110" height="32" rx="16" fill="#ec4899" opacity="0.15"/>
      <rect x="20" y="255" width="110" height="32" rx="16" fill="none" stroke="#ec4899" stroke-width="1.5" filter="url(#glow)"/>
      <circle cx="38" cy="271" r="10" fill="url(#pinkGrad)"/>
      <text x="54" y="275" font-family="Arial, sans-serif" font-size="13" font-weight="700" fill="#db2777">Build Score: 95</text>
      
      <!-- Pricing -->
      <text x="20" y="310" font-family="Arial, sans-serif" font-size="26" font-weight="800" fill="#1f2937">$89</text>
      <text x="75" y="310" font-family="Arial, sans-serif" font-size="14" fill="#9ca3af">/month</text>
      
      <!-- Category Tag -->
      <rect x="230" y="285" width="100" height="28" rx="14" fill="#3b82f6" opacity="0.12"/>
      <rect x="230" y="285" width="100" height="28" rx="14" fill="none" stroke="#3b82f6" stroke-width="1"/>
      <text x="280" y="303" font-family="Arial, sans-serif" font-size="11" font-weight="600" fill="#3b82f6" text-anchor="middle">Analytics</text>
    </g>
  </g>
  
  <!-- Decorative Glowing Elements -->
  <circle cx="1150" cy="150" r="5" fill="#8b5cf6" opacity="0.4" filter="url(#glow)"/>
  <circle cx="1120" cy="180" r="7" fill="#3b82f6" opacity="0.3" filter="url(#glow)"/>
  <circle cx="30" cy="350" r="6" fill="#ec4899" opacity="0.35" filter="url(#glow)"/>
  <circle cx="60" cy="380" r="5" fill="#06b6d4" opacity="0.4" filter="url(#glow)"/>
  <circle cx="1100" cy="800" r="6" fill="#8b5cf6" opacity="0.35" filter="url(#glow)"/>
  <circle cx="40" cy="1000" r="5" fill="#3b82f6" opacity="0.3" filter="url(#glow)"/>
</svg>
