<?xml version="1.0" encoding="UTF-8"?>
<svg viewBox="0 0 1950 1050" xmlns="http://www.w3.org/2000/svg" style="background:none">
  <defs>
    <!-- Core gradients -->
    <linearGradient id="purpleBlue" x1="0%" y1="0%" x2="100%" y2="100%">
      <stop offset="0%" stop-color="#8B5CF6"/>
      <stop offset="100%" stop-color="#3B82F6"/>
    </linearGradient>
    <linearGradient id="purpleBlueLight" x1="0%" y1="0%" x2="100%" y2="100%">
      <stop offset="0%" stop-color="#8B5CF6" stop-opacity="0.12"/>
      <stop offset="100%" stop-color="#3B82F6" stop-opacity="0.12"/>
    </linearGradient>

    <!-- Light button background (kept for other light elements) -->
    <linearGradient id="lightBtn" x1="0%" y1="0%" x2="100%" y2="100%">
      <stop offset="0%" stop-color="#EEF2FF"/>
      <stop offset="100%" stop-color="#EDE9FE"/>
    </linearGradient>

    <!-- Card backgrounds -->
    <linearGradient id="cardBG1" x1="0%" y1="0%" x2="100%" y2="100%">
      <stop offset="0%" stop-color="#F5F3FF"/>
      <stop offset="100%" stop-color="#EFF6FF"/>
    </linearGradient>
    <linearGradient id="cardBG2" x1="0%" y1="0%" x2="100%" y2="0%">
      <stop offset="0%" stop-color="#EDE9FE"/>
      <stop offset="100%" stop-color="#DBEAFE"/>
    </linearGradient>
    <radialGradient id="cardBG3" cx="20%" cy="10%" r="120%">
      <stop offset="0%" stop-color="#FFFFFF"/>
      <stop offset="45%" stop-color="#EEF2FF"/>
      <stop offset="100%" stop-color="#EDE9FE"/>
    </radialGradient>
    <radialGradient id="cardBG4" cx="80%" cy="0%" r="120%">
      <stop offset="0%" stop-color="#FFFFFF"/>
      <stop offset="55%" stop-color="#E0EAFF"/>
      <stop offset="100%" stop-color="#F1E8FF"/>
    </radialGradient>

    <!-- Accent gradient borders -->
    <linearGradient id="borderPB" x1="0%" y1="0%" x2="100%" y2="0%">
      <stop offset="0%" stop-color="#8B5CF6"/>
      <stop offset="50%" stop-color="#6D6CF6"/>
      <stop offset="100%" stop-color="#3B82F6"/>
    </linearGradient>

    <!-- Shadows -->
    <filter id="cardShadow" x="-20%" y="-20%" width="140%" height="140%">
      <feGaussianBlur in="SourceAlpha" stdDeviation="4"/>
      <feOffset dy="2" result="o"/>
      <feComponentTransfer><feFuncA type="linear" slope="0.15"/></feComponentTransfer>
      <feMerge><feMergeNode/><feMergeNode in="SourceGraphic"/></feMerge>
    </filter>
    <filter id="chipShadow" x="-50%" y="-50%" width="200%" height="200%">
      <feGaussianBlur in="SourceAlpha" stdDeviation="2"/>
      <feOffset dy="1"/>
      <feComponentTransfer><feFuncA type="linear" slope="0.2"/></feComponentTransfer>
      <feMerge><feMergeNode/><feMergeNode in="SourceGraphic"/></feMerge>
    </filter>

    <!-- Icons -->
    <g id="icon-search">
      <circle cx="0" cy="0" r="12" fill="none" stroke="url(#purpleBlue)" stroke-width="2"/>
      <line x1="8" y1="8" x2="15" y2="15" stroke="url(#purpleBlue)" stroke-width="2" stroke-linecap="round"/>
    </g>
    <g id="icon-star">
      <path d="M12 2 L14.9 8.2 L22 9.1 L16.8 13.7 L18.1 20.8 L12 17.3 L5.9 20.8 L7.2 13.7 L2 9.1 L9.1 8.2 Z" fill="url(#purpleBlue)"/>
    </g>
    <g id="sparkle">
      <path d="M8 0 L10 8 L18 10 L10 12 L8 20 L6 12 L-2 10 L6 8 Z" fill="url(#purpleBlue)" opacity="0.5"/>
    </g>

    <!-- Reusable pills -->
    <g id="pill-build-score">
      <rect x="0" y="0" width="148" height="30" rx="15" fill="url(#purpleBlue)" filter="url(#chipShadow)"/>
      <text x="12" y="21" font-family="Arial" font-size="13" font-weight="700" fill="#FFFFFF">Build Score</text>
      <rect x="112" y="6" width="30" height="18" rx="9" fill="#FFFFFF" opacity="0.3"/>
    </g>
    <g id="badge-featured">
      <rect x="0" y="0" width="120" height="28" rx="14" fill="url(#purpleBlue)" filter="url(#chipShadow)"/>
      <use href="#icon-star" x="8" y="4"/>
      <text x="38" y="20" font-family="Arial" font-size="13" font-weight="700" fill="#FFFFFF">FEATURED</text>
    </g>

    <!-- Common styles -->
    <style><![CDATA[
      .font { font-family: Arial; }
      .muted { fill:#64748B; }
      .title { fill:#0F172A; }
      .stroke { stroke:#E2E8F0; }
      .chip  { fill:#FFFFFF; stroke:url(#borderPB); }
    ]]></style>
  </defs>

  <!-- Header -->
  <g id="header" class="font">
    <!-- Search: light blue background -->
    <rect x="50" y="40" width="700" height="60" rx="30" fill="#EFF6FF" class="stroke" stroke-width="2" filter="url(#cardShadow)"/>
    <g transform="translate(85,70)"><use href="#icon-search"/></g>
    <text x="120" y="77" font-size="17" fill="#94A3B8">Search marketplace...</text>

    <!-- Filters button: gradient + white content -->
    <rect x="780" y="40" width="180" height="60" rx="30" fill="url(#purpleBlue)" filter="url(#cardShadow)"/>
    <g>
      <rect x="815" y="62" width="20" height="2" rx="1" fill="#FFFFFF"/>
      <rect x="815" y="70" width="20" height="2" rx="1" fill="#FFFFFF"/>
      <rect x="815" y="78" width="20" height="2" rx="1" fill="#FFFFFF"/>
      <text x="850" y="77" font-size="17" font-weight="600" fill="#FFFFFF">Filters</text>
    </g>

    <!-- View toggle container: light blue -->
    <rect x="990" y="40" width="160" height="60" rx="30" fill="#EEF2FF" class="stroke" stroke-width="2" filter="url(#cardShadow)"/>
    <rect x="1015" y="62" width="22" height="22" rx="5" class="chip"/>
    <rect x="1042" y="62" width="22" height="22" rx="5" fill="#EEF2FF" stroke="#E2E8F0"/>
    <rect x="1015" y="89" width="22" height="5" rx="2" fill="url(#purpleBlue)"/>
    <rect x="1042" y="89" width="22" height="5" rx="2" fill="#E2E8F0"/>
  </g>

  <!-- Categories -->
  <g id="categories" class="font">
    <rect x="50" y="130" width="150" height="45" rx="22" fill="url(#purpleBlue)" filter="url(#chipShadow)"/>
    <text x="125" y="159" font-size="16" font-weight="700" fill="#FFFFFF" text-anchor="middle">All Products</text>

    <rect x="220" y="130" width="140" height="45" rx="22" class="chip" fill="#FFFFFF"/>
    <text x="290" y="159" font-size="16" font-weight="700" fill="#4F46E5" text-anchor="middle">Analytics</text>

    <rect x="380" y="130" width="150" height="45" rx="22" class="chip" fill="#FFFFFF"/>
    <text x="455" y="159" font-size="16" font-weight="700" fill="#2563EB" text-anchor="middle">Automation</text>

    <rect x="550" y="130" width="140" height="45" rx="22" class="chip" fill="#FFFFFF"/>
    <text x="620" y="159" font-size="16" font-weight="700" fill="#6D28D9" text-anchor="middle">Marketing</text>

    <rect x="710" y="130" width="150" height="45" rx="22" class="chip" fill="#FFFFFF"/>
    <text x="785" y="159" font-size="16" font-weight="700" fill="#0EA5E9" text-anchor="middle">Productivity</text>
  </g>

  <!-- Meta row -->
  <text x="50" y="221" class="font" font-size="16" fill="#3B82F6">Showing 10 products</text>
  <text x="1890" y="221" class="font" font-size="16" fill="#3B82F6" text-anchor="end">Sort by: Popular</text>

  <!-- ===== GRID: 5 columns x 2 rows ===== -->

  <!-- NEW LEFT COLUMN (top) -->
  <g id="productL1" class="font">
    <rect x="50" y="250" width="350" height="320" rx="18" fill="url(#cardBG2)" stroke="url(#borderPB)" stroke-width="1.5" filter="url(#cardShadow)"/>
    <g>
      <rect x="70" y="270" width="100" height="100" rx="14" fill="url(#purpleBlueLight)" stroke="url(#borderPB)"/>
      <circle cx="120" cy="305" r="26" fill="url(#purpleBlue)"/>
      <path d="M110 305 L118 313 L135 296" stroke="#FFFFFF" stroke-width="3" fill="none" stroke-linecap="round" stroke-linejoin="round"/>
      <use href="#sparkle" x="150" y="265" transform="scale(0.6)"/>
    </g>
    <text x="190" y="295" font-size="20" font-weight="800" class="title">AutoLead Pro</text>
    <text x="190" y="320" font-size="14" class="muted">Capture &amp; qualify leads</text>
    <text x="190" y="340" font-size="14" class="muted">with AI routing</text>
    <g transform="translate(70,390)">
      <use href="#pill-build-score"/>
      <text x="120" y="21" font-size="13" font-weight="800" fill="#FFFFFF">94</text>
    </g>
    <text x="70" y="455" font-size="28" font-weight="800" class="title">$27</text>
    <text x="120" y="455" font-size="17" fill="#94A3B8">/mo</text>
    <rect x="70" y="515" width="310" height="42" rx="21" fill="#FFFFFF" stroke="url(#borderPB)" stroke-width="2"/>
    <text x="225" y="542" font-size="16" font-weight="700" fill="#7C3AED" text-anchor="middle">View Details</text>
  </g>

  <!-- Card 1 (second top card) — FEATURED pill removed -->
  <g id="product1" class="font" transform="translate(375,0)">
    <rect x="50" y="250" width="350" height="320" rx="18" fill="url(#cardBG1)" stroke="url(#borderPB)" stroke-width="1.5" filter="url(#cardShadow)"/>
    <g>
      <rect x="70" y="270" width="100" height="100" rx="14" fill="url(#purpleBlueLight)" stroke="url(#borderPB)"/>
      <circle cx="120" cy="305" r="26" fill="url(#purpleBlue)"/>
      <path d="M110 305 L118 313 L135 296" stroke="#FFFFFF" stroke-width="3" fill="none" stroke-linecap="round" stroke-linejoin="round"/>
      <use href="#sparkle" x="150" y="265" transform="scale(0.6)"/>
    </g>
    <text x="190" y="295" font-size="20" font-weight="800" class="title">TaskFlow Pro</text>
    <text x="190" y="320" font-size="14" class="muted">Project management</text>
    <text x="190" y="340" font-size="14" class="muted">and task tracking</text>
    <g transform="translate(70,390)">
      <use href="#pill-build-score"/>
      <text x="120" y="21" font-size="13" font-weight="800" fill="#FFFFFF">95</text>
    </g>
    <text x="70" y="455" font-size="28" font-weight="800" class="title">$29</text>
    <text x="120" y="455" font-size="17" fill="#94A3B8">/mo</text>
    <rect x="70" y="515" width="310" height="42" rx="21" fill="url(#purpleBlue)"/>
    <text x="225" y="542" font-size="16" font-weight="700" fill="#FFFFFF" text-anchor="middle">View Details</text>
  </g>

  <!-- Card 2 -->
  <g id="product2" class="font" transform="translate(375,0)">
    <rect x="425" y="250" width="350" height="320" rx="18" fill="url(#cardBG3)" stroke="url(#borderPB)" stroke-width="1.5" filter="url(#cardShadow)"/>
    <g>
      <rect x="445" y="270" width="100" height="100" rx="14" fill="url(#purpleBlueLight)" stroke="url(#borderPB)"/>
      <rect x="475" y="300" width="15" height="40" rx="3" fill="#3B82F6"/>
      <rect x="495" y="290" width="15" height="50" rx="3" fill="#8B5CF6"/>
      <rect x="515" y="310" width="15" height="30" rx="3" fill="#60A5FA"/>
      <use href="#sparkle" x="520" y="275" transform="scale(0.5)"/>
    </g>
    <text x="565" y="295" font-size="20" font-weight="800" class="title">DataViz Studio</text>
    <text x="565" y="320" font-size="14" class="muted">Beautiful charts and</text>
    <text x="565" y="340" font-size="14" class="muted">analytics dashboards</text>
    <g transform="translate(445,390)">
      <use href="#pill-build-score"/>
      <text x="120" y="21" font-size="13" font-weight="800" fill="#FFFFFF">88</text>
    </g>
    <text x="445" y="455" font-size="28" font-weight="800" class="title">$19</text>
    <text x="495" y="455" font-size="17" fill="#94A3B8">/mo</text>
    <rect x="445" y="515" width="310" height="42" rx="21" fill="#FFFFFF" stroke="url(#borderPB)" stroke-width="2"/>
    <text x="600" y="542" font-size="16" font-weight="700" fill="#7C3AED" text-anchor="middle">View Details</text>
  </g>

  <!-- Card 3 -->
  <g id="product3" class="font" transform="translate(375,0)">
    <rect x="800" y="250" width="350" height="320" rx="18" fill="url(#cardBG1)" stroke="url(#borderPB)" stroke-width="1.5" filter="url(#cardShadow)"/>
    <g>
      <rect x="820" y="270" width="100" height="100" rx="14" fill="url(#purpleBlueLight)" stroke="url(#borderPB)"/>
      <circle cx="870" cy="305" r="16" stroke="#8B5CF6" stroke-width="3" fill="none"/>
      <path d="M870 290 L870 305 L885 320" stroke="#3B82F6" stroke-width="3" fill="none" stroke-linecap="round" stroke-linejoin="round"/>
      <use href="#sparkle" x="890" y="260" transform="scale(0.45)"/>
    </g>
    <text x="940" y="295" font-size="20" font-weight="800" class="title">TimeTrack AI</text>
    <text x="940" y="320" font-size="14" class="muted">Smart time tracking</text>
    <text x="940" y="340" font-size="14" class="muted">with AI insights</text>
    <g transform="translate(820,390)">
      <use href="#pill-build-score"/>
      <text x="120" y="21" font-size="13" font-weight="800" fill="#FFFFFF">92</text>
    </g>
    <text x="820" y="455" font-size="28" font-weight="800" class="title">$15</text>
    <text x="870" y="455" font-size="17" fill="#94A3B8">/mo</text>
    <rect x="820" y="515" width="310" height="42" rx="21" fill="url(#purpleBlue)"/>
    <text x="975" y="542" font-size="16" font-weight="700" fill="#FFFFFF" text-anchor="middle">View Details</text>
  </g>

  <!-- NEW RIGHT COLUMN (top) -->
  <g id="productR1" class="font">
    <rect x="1550" y="250" width="350" height="320" rx="18" fill="url(#cardBG4)" stroke="url(#borderPB)" stroke-width="1.5" filter="url(#cardShadow)"/>
    <g>
      <rect x="1570" y="270" width="100" height="100" rx="14" fill="url(#purpleBlueLight)" stroke="url(#borderPB)"/>
      <circle cx="1620" cy="320" r="18" stroke="#3B82F6" stroke-width="3" fill="none"/>
      <use href="#sparkle" x="1640" y="260" transform="scale(0.45)"/>
    </g>
    <text x="1690" y="295" font-size="20" font-weight="800" class="title">DocsBot</text>
    <text x="1690" y="320" font-size="14" class="muted">Search your docs with AI</text>
    <text x="1690" y="340" font-size="14" class="muted">answers &amp; citations</text>
    <g transform="translate(1570,390)">
      <use href="#pill-build-score"/>
      <text x="120" y="21" font-size="13" font-weight="800" fill="#FFFFFF">89</text>
    </g>
    <text x="1570" y="455" font-size="28" font-weight="800" class="title">$12</text>
    <text x="1620" y="455" font-size="17" fill="#94A3B8">/mo</text>
    <rect x="1570" y="515" width="310" height="42" rx="21" fill="#FFFFFF" stroke="url(#borderPB)" stroke-width="2"/>
    <text x="1725" y="542" font-size="16" font-weight="700" fill="#7C3AED" text-anchor="middle">View Details</text>
  </g>

  <!-- NEW LEFT COLUMN (bottom) -->
  <g id="productL2" class="font">
    <rect x="50" y="595" width="350" height="320" rx="18" fill="url(#cardBG3)" stroke="url(#borderPB)" stroke-width="1.5" filter="url(#cardShadow)"/>
    <g>
      <rect x="70" y="615" width="100" height="100" rx="14" fill="url(#purpleBlueLight)" stroke="url(#borderPB)"/>
      <rect x="100" y="640" width="40" height="50" rx="6" fill="#3B82F6"/>
      <circle cx="120" cy="635" r="8" fill="#8B5CF6"/>
      <use href="#sparkle" x="150" y="610" transform="scale(0.5)"/>
    </g>
    <text x="190" y="640" font-size="20" font-weight="800" class="title">InsightHub</text>
    <text x="190" y="665" font-size="14" class="muted">Self-serve BI with</text>
    <text x="190" y="685" font-size="14" class="muted">answers, not charts</text>
    <g transform="translate(70,735)">
      <use href="#pill-build-score"/>
      <text x="120" y="21" font-size="13" font-weight="800" fill="#FFFFFF">87</text>
    </g>
    <text x="70" y="800" font-size="28" font-weight="800" class="title">$21</text>
    <text x="120" y="800" font-size="17" fill="#94A3B8">/mo</text>
    <rect x="70" y="860" width="310" height="42" rx="21" fill="url(#purpleBlue)"/>
    <text x="225" y="887" font-size="16" font-weight="700" fill="#FFFFFF" text-anchor="middle">View Details</text>
  </g>

  <!-- Card 4 -->
  <g id="product4" class="font" transform="translate(375,0)">
    <rect x="50" y="595" width="350" height="320" rx="18" fill="url(#cardBG1)" stroke="url(#borderPB)" stroke-width="1.5" filter="url(#cardShadow)"/>
    <g>
      <rect x="70" y="615" width="100" height="100" rx="14" fill="url(#purpleBlueLight)" stroke="url(#borderPB)"/>
      <rect x="100" y="640" width="40" height="50" rx="6" fill="#3B82F6"/>
      <circle cx="120" cy="635" r="8" fill="#8B5CF6"/>
      <use href="#sparkle" x="150" y="610" transform="scale(0.5)"/>
    </g>
    <text x="190" y="640" font-size="20" font-weight="800" class="title">FormBuilder</text>
    <text x="190" y="665" font-size="14" class="muted">Drag-and-drop form</text>
    <text x="190" y="685" font-size="14" class="muted">creator with logic</text>
    <g transform="translate(70,735)">
      <use href="#pill-build-score"/>
      <text x="120" y="21" font-size="13" font-weight="800" fill="#FFFFFF">85</text>
    </g>
    <text x="70" y="800" font-size="28" font-weight="800" class="title">$25</text>
    <text x="120" y="800" font-size="17" fill="#94A3B8">/mo</text>
    <rect x="70" y="860" width="310" height="42" rx="21" fill="#FFFFFF" stroke="url(#borderPB)" stroke-width="2"/>
    <text x="225" y="887" font-size="16" font-weight="700" fill="#7C3AED" text-anchor="middle">View Details</text>
  </g>

  <!-- Card 5 -->
  <g id="product5" class="font" transform="translate(375,0)">
    <rect x="425" y="595" width="350" height="320" rx="18" fill="url(#cardBG2)" stroke="url(#borderPB)" stroke-width="1.5" filter="url(#cardShadow)"/>
    <rect x="435" y="605" width="70" height="28" rx="14" fill="url(#purpleBlue)" filter="url(#chipShadow)"/>
    <text x="470" y="624" font-size="13" font-weight="800" fill="#FFFFFF" text-anchor="middle">NEW</text>
    <g>
      <rect x="445" y="650" width="100" height="100" rx="14" fill="url(#purpleBlueLight)" stroke="url(#borderPB)"/>
      <path d="M475 680 L485 670 H515 V700 H475 Z" fill="#8B5CF6"/>
      <circle cx="490" cy="685" r="3" fill="#FFFFFF"/>
      <use href="#sparkle" x="520" y="630" transform="scale(0.45)"/>
    </g>
    <text x="565" y="675" font-size="20" font-weight="800" class="title">EmailCraft</text>
    <text x="565" y="700" font-size="14" class="muted">Email campaigns</text>
    <text x="565" y="720" font-size="14" class="muted">made simple</text>
    <g transform="translate(445,770)">
      <use href="#pill-build-score"/>
      <text x="120" y="21" font-size="13" font-weight="800" fill="#FFFFFF">81</text>
    </g>
    <text x="445" y="835" font-size="28" font-weight="800" class="title">$39</text>
    <text x="495" y="835" font-size="17" fill="#94A3B8">/mo</text>
    <rect x="445" y="860" width="310" height="42" rx="21" fill="url(#purpleBlue)"/>
    <text x="600" y="887" font-size="16" font-weight="700" fill="#FFFFFF" text-anchor="middle">View Details</text>
  </g>

  <!-- Card 6 -->
  <g id="product6" class="font" transform="translate(375,0)">
    <rect x="800" y="595" width="350" height="320" rx="18" fill="url(#cardBG4)" stroke="url(#borderPB)" stroke-width="1.5" filter="url(#cardShadow)"/>
    <g>
      <rect x="820" y="615" width="100" height="100" rx="14" fill="url(#purpleBlueLight)" stroke="url(#borderPB)"/>
      <circle cx="870" cy="665" r="22" stroke="#3B82F6" stroke-width="3" fill="none"/>
      <path d="M858 665 L865 672 L882 655" stroke="#3B82F6" stroke-width="3" fill="none" stroke-linecap="round" stroke-linejoin="round"/>
      <use href="#sparkle" x="900" y="610" transform="scale(0.5)"/>
    </g>
    <text x="940" y="640" font-size="20" font-weight="800" class="title">SocialQueue</text>
    <text x="940" y="665" font-size="14" class="muted">Schedule posts across</text>
    <text x="940" y="685" font-size="14" class="muted">all platforms</text>
    <g transform="translate(820,735)">
      <use href="#pill-build-score"/>
      <text x="120" y="21" font-size="13" font-weight="800" fill="#FFFFFF">90</text>
    </g>
    <text x="820" y="800" font-size="28" font-weight="800" class="title">$22</text>
    <text x="870" y="800" font-size="17" fill="#94A3B8">/mo</text>
    <rect x="820" y="860" width="310" height="42" rx="21" fill="#FFFFFF" stroke="url(#borderPB)" stroke-width="2"/>
    <text x="975" y="887" font-size="16" font-weight="700" fill="#7C3AED" text-anchor="middle">View Details</text>
  </g>

  <!-- NEW RIGHT COLUMN (bottom) -->
  <g id="productR2" class="font">
    <rect x="1550" y="595" width="350" height="320" rx="18" fill="url(#cardBG2)" stroke="url(#borderPB)" stroke-width="1.5" filter="url(#cardShadow)"/>
    <g>
      <rect x="1570" y="615" width="100" height="100" rx="14" fill="url(#purpleBlueLight)" stroke="url(#borderPB)"/>
      <circle cx="1620" cy="650" r="16" stroke="#8B5CF6" stroke-width="3" fill="none"/>
      <path d="M1608 650 L1616 658 L1633 641" stroke="#3B82F6" stroke-width="3" fill="none" stroke-linecap="round" stroke-linejoin="round"/>
      <use href="#sparkle" x="1650" y="610" transform="scale(0.45)"/>
    </g>
    <text x="1690" y="640" font-size="20" font-weight="800" class="title">Churn Radar</text>
    <text x="1690" y="665" font-size="14" class="muted">Predict &amp; retain customers</text>
    <text x="1690" y="685" font-size="14" class="muted">with ML signals</text>
    <g transform="translate(1570,735)">
      <use href="#pill-build-score"/>
      <text x="120" y="21" font-size="13" font-weight="800" fill="#FFFFFF">93</text>
    </g>
    <text x="1570" y="800" font-size="28" font-weight="800" class="title">$28</text>
    <text x="1620" y="800" font-size="17" fill="#94A3B8">/mo</text>
    <rect x="1570" y="860" width="310" height="42" rx="21" fill="url(#purpleBlue)"/>
    <text x="1725" y="887" font-size="16" font-weight="700" fill="#FFFFFF" text-anchor="middle">View Details</text>
  </g>

  <!-- Pagination -->
  <g id="pagination" class="font" transform="translate(375,0)">
    <circle cx="550" cy="985" r="20" fill="#E2E8F0"/>
    <text x="550" y="992" font-size="16" font-weight="700" fill="#64748B" text-anchor="middle">1</text>
    <circle cx="600" cy="985" r="20" fill="url(#purpleBlue)"/>
    <text x="600" y="992" font-size="16" font-weight="700" fill="#FFFFFF" text-anchor="middle">2</text>
    <circle cx="650" cy="985" r="20" fill="#E2E8F0"/>
    <text x="650" y="992" font-size="16" font-weight="700" fill="#64748B" text-anchor="middle">3</text>
  </g>
</svg>
