<?xml version="1.0" encoding="UTF-8"?>
<svg width="1200" height="720" viewBox="0 0 1200 720" xmlns="http://www.w3.org/2000/svg" role="img" aria-label="Licensing models: Single Use, Multi Use, OEM">
  <!-- ================== THEME ================== -->
  <style><![CDATA[
    :root{
      --indigo-900:#3C39AF; --indigo-800:#4D40CC; --indigo-700:#5B52E1; --indigo-600:#7B6AF6;
      --violet-400:#8E7EF5; --violet-300:#C1B7FD; --violet-200:#EAE4FD;
      --blue-600:#4F46E5;   --blue-500:#6366F1;   --blue-400:#818CF8;

      --text-title:#3C39AF; --text-body:#4D40CC; --text-muted:#59628B;

      --card-bg-a: rgba(255,255,255,0.92);
      --card-bg-b: rgba(234,228,253,0.65);
      --diag-line: rgba(77,64,204,0.10);
      --sheen-a: rgba(255,255,255,0.55);
      --sheen-b: rgba(255,255,255,0.00);
      --card-stroke-outer:#E7E3FF;
      --card-stroke-grad-a:#C1B7FD;
      --card-stroke-grad-b:#7B6AF6;
      --ring-a:#C1B7FD; --ring-b:#4D40CC;
      --glow-a:rgba(125,102,255,0.22); --glow-b:rgba(79,70,229,0.18);
    }
    @media (prefers-color-scheme: dark){
      :root{
        --text-title:#EAE4FD; --text-body:#C1B7FD; --text-muted:#A5B4FC;
        --card-bg-a: rgba(20,24,45,0.78);
        --card-bg-b: rgba(60,57,175,0.35);
        --diag-line: rgba(193,183,253,0.08);
        --sheen-a: rgba(255,255,255,0.18);
        --sheen-b: rgba(255,255,255,0.00);
        --card-stroke-outer:#483FCE;
        --card-stroke-grad-a:#8E7EF5; --card-stroke-grad-b:#4F46E5;
        --ring-a:#8E7EF5; --ring-b:#4F46E5;
        --glow-a:rgba(124,58,237,0.25); --glow-b:rgba(99,102,241,0.22);
      }
    }
    svg[data-theme="dark"]{
      --text-title:#EAE4FD; --text-body:#C1B7FD; --text-muted:#A5B4FC;
      --card-bg-a: rgba(20,24,45,0.78);
      --card-bg-b: rgba(60,57,175,0.35);
      --diag-line: rgba(193,183,253,0.08);
      --sheen-a: rgba(255,255,255,0.18);
      --sheen-b: rgba(255,255,255,0.00);
      --card-stroke-outer:#483FCE;
      --card-stroke-grad-a:#8E7EF5; --card-stroke-grad-b:#4F46E5;
      --ring-a:#8E7EF5; --ring-b:#4F46E5;
      --glow-a:rgba(124,58,237,0.25); --glow-b:rgba(99,102,241,0.22);
    }
    svg[data-theme="light"]{
      --text-title:#3C39AF; --text-body:#4D40CC; --text-muted:#59628B;
      --card-bg-a: rgba(255,255,255,0.92);
      --card-bg-b: rgba(234,228,253,0.65);
      --diag-line: rgba(77,64,204,0.10);
      --sheen-a: rgba(255,255,255,0.55);
      --sheen-b: rgba(255,255,255,0.00);
      --card-stroke-outer:#E7E3FF;
      --card-stroke-grad-a:#C1B7FD; --card-stroke-grad-b:#7B6AF6;
      --ring-a:#C1B7FD; --ring-b:#4D40CC;
      --glow-a:rgba(125,102,255,0.22); --glow-b:rgba(79,70,229,0.18);
    }

    .title    { font: 800 36px/1.12 ui-sans-serif,system-ui,-apple-system,"Segoe UI",Roboto,Arial; fill: var(--text-title); letter-spacing:.2px; }
    .subtitle { font: 800 15px/1    ui-sans-serif,system-ui,-apple-system,"Segoe UI",Roboto,Arial; fill: var(--indigo-800); letter-spacing:.16em; text-transform:uppercase; }

    /* Card typography */
    .h6       { font: 900 28px/1.28 ui-sans-serif,system-ui,-apple-system,"Segoe UI",Roboto,Arial; fill: var(--text-title); }
    .muted    { font: 800 16px/1.35 ui-sans-serif,system-ui,-apple-system,"Segoe UI",Roboto,Arial; fill: var(--text-muted); }
    .body     { font: 700 18px/1.55 ui-sans-serif,system-ui,-apple-system,"Segoe UI",Roboto,Arial; fill: var(--text-body); }
    .chip     { font: 900 16px/1.1  ui-sans-serif,system-ui,-apple-system,"Segoe UI",Roboto,Arial; fill: var(--text-title); }

    .ring     { fill:none; stroke:url(#ringGrad); stroke-width:3; }
    .tick     { fill:none; stroke:var(--indigo-800); stroke-width:3; stroke-linecap:round; stroke-linejoin:round; }
    .bar      { rx:8; }
  ]]></style>

  <!-- ================== DEFS ================== -->
  <defs>
    <filter id="shadow" x="-20%" y="-20%" width="160%" height="180%">
      <feDropShadow dx="0" dy="12" stdDeviation="14" flood-color="rgba(60,57,175,0.25)"/>
    </filter>
    <filter id="innerShadow" x="-50%" y="-50%" width="200%" height="200%">
      <feOffset dx="0" dy="1"/>
      <feGaussianBlur stdDeviation="3" result="blur"/>
      <feComposite in="SourceGraphic" in2="blur" operator="arithmetic" k2="-1" k3="1" result="inner"/>
      <feColorMatrix in="inner" type="matrix" values="0 0 0 0 0  0 0 0 0 0  0 0 0 0 0  0 0 0 0.6 0"/>
      <feBlend in="SourceGraphic" in2="inner" mode="normal"/>
    </filter>

    <linearGradient id="cardFill" x1="0" y1="0" x2="1" y2="1">
      <stop offset="0%"  stop-color="var(--card-bg-a)"/>
      <stop offset="100%" stop-color="var(--card-bg-b)"/>
    </linearGradient>
    <pattern id="diagLines" width="8" height="8" patternUnits="userSpaceOnUse" patternTransform="rotate(30)">
      <path d="M0 0 L0 8" stroke="var(--diag-line)" stroke-width="1"/>
    </pattern>
    <linearGradient id="sheenGrad" x1="0" y1="0" x2="0" y2="1">
      <stop offset="0%"  stop-color="var(--sheen-a)"/>
      <stop offset="60%" stop-color="var(--sheen-b)"/>
      <stop offset="100%" stop-color="var(--sheen-b)"/>
    </linearGradient>
    <linearGradient id="cardStrokeGrad" x1="0" y1="0" x2="1" y2="1">
      <stop offset="0%"  stop-color="var(--card-stroke-grad-a)"/>
      <stop offset="100%" stop-color="var(--card-stroke-grad-b)"/>
    </linearGradient>

    <linearGradient id="ringGrad" x1="0%" y1="0%" x2="100%" y2="100%">
      <stop offset="0%"  stop-color="var(--ring-a)"/>
      <stop offset="100%" stop-color="var(--ring-b)"/>
    </linearGradient>
    <radialGradient id="haloA" cx="50%" cy="50%" r="50%">
      <stop offset="0%" stop-color="var(--glow-a)"/>
      <stop offset="100%" stop-color="rgba(0,0,0,0)"/>
    </radialGradient>
    <radialGradient id="haloB" cx="50%" cy="50%" r="50%">
      <stop offset="0%" stop-color="var(--glow-b)"/>
      <stop offset="100%" stop-color="rgba(0,0,0,0)"/>
    </radialGradient>

    <!-- Icons -->
    <g id="icon-doc">
      <path d="M22 6H12a2 2 0 0 0-2 2v28a2 2 0 0 0 2 2h20a2 2 0 0 0 2-2V18L22 6z" fill="url(#barGrad1)"/>
      <path d="M22 6v10a2 2 0 0 0 2 2h10" fill="none" stroke="#FFFFFF" stroke-width="2"/>
      <path d="M16 24h16M16 29h16M16 34h10" stroke="#FFFFFF" stroke-width="2" stroke-linecap="round"/>
    </g>
    <g id="icon-stack">
      <path d="M24 12 44 22 24 32 4 22 24 12z" fill="url(#barGrad2)"/>
      <path d="M44 28 24 38 4 28" fill="none" stroke="#A5B4FC" stroke-width="2"/>
      <path d="M44 34 24 44 4 34" fill="none" stroke="#A5B4FC" stroke-width="2"/>
    </g>
    <g id="icon-oem">
      <circle cx="24" cy="24" r="16" fill="url(#barGrad3)"/>
      <path d="M24 16v4M24 28v4M16 24h4M28 24h4M19 19l3 3M26 26l3 3M19 29l3-3M26 22l3-3" stroke="#FFFFFF" stroke-width="2" stroke-linecap="round"/>
      <rect x="6" y="34" width="36" height="10" rx="2" fill="none" stroke="#8E7EF5" stroke-width="2"/>
    </g>

    <!-- Accent bars per card -->
    <linearGradient id="barGrad1" x1="0%" y1="0%" x2="100%" y2="0%">
      <stop offset="0%"  stop-color="#8E7EF5"/>
      <stop offset="100%" stop-color="#4D40CC"/>
    </linearGradient>
    <linearGradient id="barGrad2" x1="0%" y1="0%" x2="100%" y2="0%">
      <stop offset="0%"  stop-color="#C1B7FD"/>
      <stop offset="100%" stop-color="#6366F1"/>
    </linearGradient>
    <linearGradient id="barGrad3" x1="0%" y1="0%" x2="100%" y2="0%">
      <stop offset="0%"  stop-color="#7B6AF6"/>
      <stop offset="100%" stop-color="#3C39AF"/>
    </linearGradient>

    <!-- Checkmark -->
    <g id="icon-check"><path d="M3 9l4 4 9-9" class="tick"/></g>
  </defs>

  <!-- ================== HEADER ================== -->
  <g transform="translate(80,100)">
    <text class="subtitle">Licensing Models</text>
    <text class="title" y="48">Choose the right license for your use case</text>
  </g>

  <!-- ================== DECORATIVE HALOS ================== -->
  <g opacity="0.9">
    <ellipse cx="220" cy="300" rx="180" ry="110" fill="url(#haloA)"/>
    <ellipse cx="580" cy="290" rx="200" ry="120" fill="url(#haloB)"/>
    <ellipse cx="940" cy="300" rx="180" ry="110" fill="url(#haloA)"/>
  </g>

  <!-- ================== CARDS ================== -->
  <g transform="translate(80,180)">
    <!-- SINGLE USE -->
    <g transform="translate(0,0)" filter="url(#shadow)">
      <rect x="0" y="0" width="320" height="460" rx="22" fill="url(#cardFill)" filter="url(#innerShadow)"/>
      <rect x="0" y="0" width="320" height="460" rx="22" fill="url(#sheenGrad)"/>
      <rect x="0" y="0" width="320" height="460" rx="22" fill="url(#diagLines)" opacity="0.25"/>
      <rect x="0.5" y="0.5" width="319" height="459" rx="21.5" fill="none" stroke="var(--card-stroke-outer)"/>
      <rect x="1" y="1" width="318" height="458" rx="21" fill="none" stroke="url(#cardStrokeGrad)" opacity="0.9"/>
      <rect x="0" y="0" width="320" height="10" class="bar" fill="url(#barGrad1)"/>

      <circle cx="64" cy="78" r="36" class="ring"/>
      <use href="#icon-doc" transform="translate(64,78) translate(1,0) scale(1.40) translate(-24,-24)"/>

      <text x="116" y="72" class="h6">Single Use</text>
      <!-- moved closer to title -->
      <text x="116" y="100" class="muted">Best for one project</text>

      <g transform="translate(22,150)">
        <rect x="0" y="-17" rx="14" width="210" height="34" fill="rgba(203,213,255,0.35)" stroke="var(--violet-200)"/>
        <text x="14" y="0" class="chip" dominant-baseline="middle">1 product / project</text>
      </g>

      <g transform="translate(26,196)">
        <use href="#icon-check" transform="translate(0,0)"/><text x="28" y="10"  class="body">Scope: one product</text>
        <use href="#icon-check" transform="translate(0,54)"/><text x="28" y="64" class="body">Seats: single team</text>
        <use href="#icon-check" transform="translate(0,108)"/><text x="28" y="118" class="body">No redistribution</text>
        <use href="#icon-check" transform="translate(0,162)"/><text x="28" y="172" class="body">Updates for 12 months</text>
        <use href="#icon-check" transform="translate(0,216)"/><text x="28" y="226" class="body">Email support</text>
      </g>
    </g>

    <!-- MULTI USE -->
    <g transform="translate(360,0)" filter="url(#shadow)">
      <rect x="0" y="0" width="320" height="460" rx="22" fill="url(#cardFill)" filter="url(#innerShadow)"/>
      <rect x="0" y="0" width="320" height="460" rx="22" fill="url(#sheenGrad)"/>
      <rect x="0" y="0" width="320" height="460" rx="22" fill="url(#diagLines)" opacity="0.25"/>
      <rect x="0.5" y="0.5" width="319" height="459" rx="21.5" fill="none" stroke="var(--card-stroke-outer)"/>
      <rect x="1" y="1" width="318" height="458" rx="21" fill="none" stroke="url(#cardStrokeGrad)" opacity="0.9"/>
      <rect x="0" y="0" width="320" height="10" class="bar" fill="url(#barGrad2)"/>

      <circle cx="64" cy="78" r="36" class="ring"/>
      <use href="#icon-stack" transform="translate(64,78) translate(0,-2) scale(1.40) translate(-24,-24)"/>

      <text x="116" y="72" class="h6">Multi Use</text>
      <!-- moved both lines up -->
      <text class="muted">
        <tspan x="116" y="100">Unlimited projects</tspan>
        <tspan x="116" y="120">(one company)</tspan>
      </text>

      <g transform="translate(22,150)">
        <rect x="0" y="-17" rx="14" width="290" height="34" fill="rgba(203,213,255,0.35)" stroke="var(--violet-200)"/>
        <text x="14" y="0" class="chip" dominant-baseline="middle">Unlimited projects, internal</text>
      </g>

      <g transform="translate(26,196)">
        <use href="#icon-check" transform="translate(0,0)"/><text x="28" y="10"  class="body">Scope: same legal entity</text>
        <use href="#icon-check" transform="translate(0,54)"/><text x="28" y="64" class="body">Seats: multiple teams</text>
        <use href="#icon-check" transform="translate(0,108)"/><text x="28" y="118" class="body">No redistribution</text>
        <use href="#icon-check" transform="translate(0,162)"/><text x="28" y="172" class="body">Maintenance while active</text>
        <use href="#icon-check" transform="translate(0,216)"/><text x="28" y="226" class="body">Priority email support</text>
      </g>
    </g>

    <!-- OEM -->
    <g transform="translate(720,0)" filter="url(#shadow)">
      <rect x="0" y="0" width="320" height="460" rx="22" fill="url(#cardFill)" filter="url(#innerShadow)"/>
      <rect x="0" y="0" width="320" height="460" rx="22" fill="url(#sheenGrad)"/>
      <rect x="0" y="0" width="320" height="460" rx="22" fill="url(#diagLines)" opacity="0.25"/>
      <rect x="0.5" y="0.5" width="319" height="459" rx="21.5" fill="none" stroke="var(--card-stroke-outer)"/>
      <rect x="1" y="1" width="318" height="458" rx="21" fill="none" stroke="url(#cardStrokeGrad)" opacity="0.9"/>
      <rect x="0" y="0" width="320" height="10" class="bar" fill="url(#barGrad3)"/>

      <circle cx="64" cy="78" r="36" class="ring"/>
      <use href="#icon-oem" transform="translate(64,78) scale(1.40) translate(-24,-24)"/>

      <text x="116" y="72" class="h6">OEM</text>
      <!-- moved closer to title -->
      <text x="116" y="100" class="muted">Embed and redistribute</text>

      <g transform="translate(22,150)">
        <rect x="0" y="-17" rx="14" width="260" height="34" fill="rgba(203,213,255,0.35)" stroke="var(--violet-200)"/>
        <text x="14" y="0" class="chip" dominant-baseline="middle">Commercial redistribution</text>
      </g>

      <g transform="translate(26,196)">
        <use href="#icon-check" transform="translate(0,0)"/><text x="28" y="10"  class="body">Resale/redistribution allowed</text>
        <use href="#icon-check" transform="translate(0,54)"/><text x="28" y="64" class="body">Attribution required</text>
        <use href="#icon-check" transform="translate(0,108)"/><text x="28" y="118" class="body">Binary/distributed form only</text>
        <use href="#icon-check" transform="translate(0,162)"/><text x="28" y="172" class="body">SLA &amp; security review</text>
        <use href="#icon-check" transform="translate(0,216)"/><text x="28" y="226" class="body">Partner success manager</text>
      </g>
    </g>
  </g>
</svg>
