<svg xmlns="http://www.w3.org/2000/svg" width="1600" height="900" viewBox="0 0 1600 900" role="img" aria-labelledby="title desc">
  <title id="title">Licensing Models Diagram</title>
  <desc id="desc">A clean vector diagram showing Single Use, Multi Use, and OEM licensing models with icons and terms. Transparent background, purple and blue palette, geometric tier markers.</desc>
  <defs>
    <linearGradient id="gradPurple" x1="0" y1="0" x2="1" y2="1">
      <stop offset="0%" stop-color="#A78BFA" />
      <stop offset="100%" stop-color="#6C5CE7" />
    </linearGradient>
    <linearGradient id="gradBlue" x1="0" y1="0" x2="1" y2="1">
      <stop offset="0%" stop-color="#93C5FD" />
      <stop offset="100%" stop-color="#2D9CDB" />
    </linearGradient>
    <linearGradient id="gradBlend" x1="0" y1="0" x2="1" y2="1">
      <stop offset="0%" stop-color="#6C5CE7" />
      <stop offset="100%" stop-color="#2D9CDB" />
    </linearGradient>

    <filter id="softShadow" x="-20%" y="-20%" width="140%" height="140%">
      <feDropShadow dx="0" dy="8" stdDeviation="12" flood-color="#000000" flood-opacity="0.08"/>
    </filter>
  </defs>
<text x="800.0" y="60" font-family="Inter, Helvetica, Arial, sans-serif" font-size="30" font-weight="800" fill="#111827" text-anchor="middle" opacity="1.0" letter-spacing="0.5">Licensing Models</text><g><g filter="url(#softShadow)"><rect x="80.0" y="160.0" width="453.3333333333333" height="580" rx="24" ry="24" fill="white" fill-opacity="0.98" stroke="#E5E7EB" /></g><circle cx="306.66666666666663" cy="250.0" r="44" fill="url(#gradPurple)" /><rect x="473.33333333333326" y="192.0" width="10" height="22" rx="3" fill="#6C5CE7" /><rect x="489.33333333333326" y="192.0" width="10" height="22" rx="3" fill="none" stroke="#6C5CE7" stroke-width="1.5" /><rect x="505.33333333333326" y="192.0" width="10" height="22" rx="3" fill="none" stroke="#6C5CE7" stroke-width="1.5" /><text x="306.66666666666663" y="340.0" font-family="Inter, Helvetica, Arial, sans-serif" font-size="26" font-weight="700" fill="#111827" text-anchor="middle" opacity="1.0" letter-spacing="0.3">Single Use</text><text x="306.66666666666663" y="370.0" font-family="Inter, Helvetica, Arial, sans-serif" font-size="18" font-weight="500" fill="#6B7280" text-anchor="middle" opacity="1.0">1 seat • 1 project</text>
      <g>
        <circle cx="128.0" cy="414.0" r="9" fill="none" stroke="#6C5CE7" stroke-width="2"/>
        <path d="M 123.0 414.0 l 3 3 l 7 -8" fill="none" stroke="#6C5CE7" stroke-width="2" stroke-linecap="round" stroke-linejoin="round"/>
      </g>
    <text x="146.0" y="420.0" font-family="Inter, Helvetica, Arial, sans-serif" font-size="18" font-weight="500" fill="#111827" text-anchor="start" opacity="1.0">Non-transferable license</text>
      <g>
        <circle cx="128.0" cy="450.0" r="9" fill="none" stroke="#6C5CE7" stroke-width="2"/>
        <path d="M 123.0 450.0 l 3 3 l 7 -8" fill="none" stroke="#6C5CE7" stroke-width="2" stroke-linecap="round" stroke-linejoin="round"/>
      </g>
    <text x="146.0" y="456.0" font-family="Inter, Helvetica, Arial, sans-serif" font-size="18" font-weight="500" fill="#111827" text-anchor="start" opacity="1.0">Commercial use allowed</text>
      <g>
        <circle cx="128.0" cy="486.0" r="9" fill="none" stroke="#6C5CE7" stroke-width="2"/>
        <path d="M 123.0 486.0 l 3 3 l 7 -8" fill="none" stroke="#6C5CE7" stroke-width="2" stroke-linecap="round" stroke-linejoin="round"/>
      </g>
    <text x="146.0" y="492.0" font-family="Inter, Helvetica, Arial, sans-serif" font-size="18" font-weight="500" fill="#111827" text-anchor="start" opacity="1.0">No redistribution or resale</text>
      <g>
        <circle cx="128.0" cy="522.0" r="9" fill="none" stroke="#6C5CE7" stroke-width="2"/>
        <path d="M 123.0 522.0 l 3 3 l 7 -8" fill="none" stroke="#6C5CE7" stroke-width="2" stroke-linecap="round" stroke-linejoin="round"/>
      </g>
    <text x="146.0" y="528.0" font-family="Inter, Helvetica, Arial, sans-serif" font-size="18" font-weight="500" fill="#111827" text-anchor="start" opacity="1.0">12 months of updates</text></g><g><g filter="url(#softShadow)"><rect x="573.3333333333333" y="160.0" width="453.3333333333333" height="580" rx="24" ry="24" fill="white" fill-opacity="0.98" stroke="#E5E7EB" /></g><circle cx="799.9999999999999" cy="250.0" r="44" fill="url(#gradBlue)" /><rect x="966.6666666666665" y="192.0" width="10" height="22" rx="3" fill="#2D9CDB" /><rect x="982.6666666666665" y="192.0" width="10" height="22" rx="3" fill="#2D9CDB" /><rect x="998.6666666666665" y="192.0" width="10" height="22" rx="3" fill="none" stroke="#2D9CDB" stroke-width="1.5" /><text x="799.9999999999999" y="340.0" font-family="Inter, Helvetica, Arial, sans-serif" font-size="26" font-weight="700" fill="#111827" text-anchor="middle" opacity="1.0" letter-spacing="0.3">Multi Use</text><text x="799.9999999999999" y="370.0" font-family="Inter, Helvetica, Arial, sans-serif" font-size="18" font-weight="500" fill="#6B7280" text-anchor="middle" opacity="1.0">Up to 10 seats</text>
      <g>
        <circle cx="621.3333333333333" cy="414.0" r="9" fill="none" stroke="#2D9CDB" stroke-width="2"/>
        <path d="M 616.3333333333333 414.0 l 3 3 l 7 -8" fill="none" stroke="#2D9CDB" stroke-width="2" stroke-linecap="round" stroke-linejoin="round"/>
      </g>
    <text x="639.3333333333333" y="420.0" font-family="Inter, Helvetica, Arial, sans-serif" font-size="18" font-weight="500" fill="#111827" text-anchor="start" opacity="1.0">Unlimited projects within org</text>
      <g>
        <circle cx="621.3333333333333" cy="450.0" r="9" fill="none" stroke="#2D9CDB" stroke-width="2"/>
        <path d="M 616.3333333333333 450.0 l 3 3 l 7 -8" fill="none" stroke="#2D9CDB" stroke-width="2" stroke-linecap="round" stroke-linejoin="round"/>
      </g>
    <text x="639.3333333333333" y="456.0" font-family="Inter, Helvetica, Arial, sans-serif" font-size="18" font-weight="500" fill="#111827" text-anchor="start" opacity="1.0">Team collaboration permitted</text>
      <g>
        <circle cx="621.3333333333333" cy="486.0" r="9" fill="none" stroke="#2D9CDB" stroke-width="2"/>
        <path d="M 616.3333333333333 486.0 l 3 3 l 7 -8" fill="none" stroke="#2D9CDB" stroke-width="2" stroke-linecap="round" stroke-linejoin="round"/>
      </g>
    <text x="639.3333333333333" y="492.0" font-family="Inter, Helvetica, Arial, sans-serif" font-size="18" font-weight="500" fill="#111827" text-anchor="start" opacity="1.0">Priority email support</text>
      <g>
        <circle cx="621.3333333333333" cy="522.0" r="9" fill="none" stroke="#2D9CDB" stroke-width="2"/>
        <path d="M 616.3333333333333 522.0 l 3 3 l 7 -8" fill="none" stroke="#2D9CDB" stroke-width="2" stroke-linecap="round" stroke-linejoin="round"/>
      </g>
    <text x="639.3333333333333" y="528.0" font-family="Inter, Helvetica, Arial, sans-serif" font-size="18" font-weight="500" fill="#111827" text-anchor="start" opacity="1.0">Version upgrades included</text></g><g><g filter="url(#softShadow)"><rect x="1066.6666666666665" y="160.0" width="453.3333333333333" height="580" rx="24" ry="24" fill="white" fill-opacity="0.98" stroke="#E5E7EB" /></g><circle cx="1293.3333333333333" cy="250.0" r="44" fill="url(#gradBlend)" /><rect x="1459.9999999999998" y="192.0" width="10" height="22" rx="3" fill="#2D9CDB" /><rect x="1475.9999999999998" y="192.0" width="10" height="22" rx="3" fill="#2D9CDB" /><rect x="1491.9999999999998" y="192.0" width="10" height="22" rx="3" fill="#2D9CDB" /><text x="1293.3333333333333" y="340.0" font-family="Inter, Helvetica, Arial, sans-serif" font-size="26" font-weight="700" fill="#111827" text-anchor="middle" opacity="1.0" letter-spacing="0.3">OEM</text><text x="1293.3333333333333" y="370.0" font-family="Inter, Helvetica, Arial, sans-serif" font-size="18" font-weight="500" fill="#6B7280" text-anchor="middle" opacity="1.0">Embed & redistribute</text>
      <g>
        <circle cx="1114.6666666666665" cy="414.0" r="9" fill="none" stroke="#6C5CE7" stroke-width="2"/>
        <path d="M 1109.6666666666665 414.0 l 3 3 l 7 -8" fill="none" stroke="#6C5CE7" stroke-width="2" stroke-linecap="round" stroke-linejoin="round"/>
      </g>
    <text x="1132.6666666666665" y="420.0" font-family="Inter, Helvetica, Arial, sans-serif" font-size="18" font-weight="500" fill="#111827" text-anchor="start" opacity="1.0">Distribution with your product</text>
      <g>
        <circle cx="1114.6666666666665" cy="450.0" r="9" fill="none" stroke="#6C5CE7" stroke-width="2"/>
        <path d="M 1109.6666666666665 450.0 l 3 3 l 7 -8" fill="none" stroke="#6C5CE7" stroke-width="2" stroke-linecap="round" stroke-linejoin="round"/>
      </g>
    <text x="1132.6666666666665" y="456.0" font-family="Inter, Helvetica, Arial, sans-serif" font-size="18" font-weight="500" fill="#111827" text-anchor="start" opacity="1.0">Unlimited end-users</text>
      <g>
        <circle cx="1114.6666666666665" cy="486.0" r="9" fill="none" stroke="#6C5CE7" stroke-width="2"/>
        <path d="M 1109.6666666666665 486.0 l 3 3 l 7 -8" fill="none" stroke="#6C5CE7" stroke-width="2" stroke-linecap="round" stroke-linejoin="round"/>
      </g>
    <text x="1132.6666666666665" y="492.0" font-family="Inter, Helvetica, Arial, sans-serif" font-size="18" font-weight="500" fill="#111827" text-anchor="start" opacity="1.0">Sublicensing rights available</text>
      <g>
        <circle cx="1114.6666666666665" cy="522.0" r="9" fill="none" stroke="#6C5CE7" stroke-width="2"/>
        <path d="M 1109.6666666666665 522.0 l 3 3 l 7 -8" fill="none" stroke="#6C5CE7" stroke-width="2" stroke-linecap="round" stroke-linejoin="round"/>
      </g>
    <text x="1132.6666666666665" y="528.0" font-family="Inter, Helvetica, Arial, sans-serif" font-size="18" font-weight="500" fill="#111827" text-anchor="start" opacity="1.0">Dedicated support & SLAs</text></g><g><circle cx="306.66666666666663" cy="240.0" r="18" fill="none" stroke="#FFFFFF" stroke-width="3" /><path d="M 271.66666666666663 272.0 q 35 -24 70 0" fill="none" stroke="#FFFFFF" stroke-width="3" stroke-linecap="round"/></g><g><circle cx="769.9999999999999" cy="240.0" r="14" fill="none" stroke="#FFFFFF" stroke-width="3" /><circle cx="799.9999999999999" cy="236.0" r="16" fill="none" stroke="#FFFFFF" stroke-width="3" /><circle cx="829.9999999999999" cy="240.0" r="14" fill="none" stroke="#FFFFFF" stroke-width="3" /><path d="M 739.9999999999999 274.0 q 60 -20 120 0" fill="none" stroke="#FFFFFF" stroke-width="3" stroke-linecap="round"/></g><g><circle cx="1293.3333333333333" cy="250.0" r="20" fill="none" stroke="#FFFFFF" stroke-width="3" /><circle cx="1293.3333333333333" cy="250.0" r="12" fill="none" stroke="#FFFFFF" stroke-width="2" /><rect x="1312.3333333333333" y="244.0" width="6" height="12" fill="#FFFFFF" transform="rotate(0.0,1315.3333333333333,250.0)" rx="1" /><rect x="1305.8896825194372" y="259.55634918610406" width="6" height="12" fill="#FFFFFF" transform="rotate(45.0,1308.8896825194372,265.55634918610406)" rx="1" /><rect x="1290.3333333333333" y="266.0" width="6" height="12" fill="#FFFFFF" transform="rotate(90.0,1293.3333333333333,272.0)" rx="1" /><rect x="1274.7769841472293" y="259.55634918610406" width="6" height="12" fill="#FFFFFF" transform="rotate(135.0,1277.7769841472293,265.55634918610406)" rx="1" /><rect x="1268.3333333333333" y="244.0" width="6" height="12" fill="#FFFFFF" transform="rotate(180.0,1271.3333333333333,250.0)" rx="1" /><rect x="1274.7769841472293" y="228.44365081389594" width="6" height="12" fill="#FFFFFF" transform="rotate(225.0,1277.7769841472293,234.44365081389594)" rx="1" /><rect x="1290.3333333333333" y="222.0" width="6" height="12" fill="#FFFFFF" transform="rotate(270.0,1293.3333333333333,228.0)" rx="1" /><rect x="1305.8896825194372" y="228.44365081389594" width="6" height="12" fill="#FFFFFF" transform="rotate(315.0,1308.8896825194372,234.44365081389594)" rx="1" /></g><rect x="246.66666666666663" y="392.0" width="120" height="3" rx="1.5" fill="#E5E7EB" /><rect x="739.9999999999999" y="392.0" width="120" height="3" rx="1.5" fill="#E5E7EB" /><rect x="1233.3333333333333" y="392.0" width="120" height="3" rx="1.5" fill="#E5E7EB" /><circle cx="90" cy="860.0" r="2.2" fill="#E5E7EB" /><circle cx="1510" cy="860.0" r="2.2" fill="#E5E7EB" /><circle cx="102" cy="860.0" r="2.2" fill="#E5E7EB" /><circle cx="1498" cy="860.0" r="2.2" fill="#E5E7EB" /><circle cx="114" cy="860.0" r="2.2" fill="#E5E7EB" /><circle cx="1486" cy="860.0" r="2.2" fill="#E5E7EB" /><circle cx="126" cy="860.0" r="2.2" fill="#E5E7EB" /><circle cx="1474" cy="860.0" r="2.2" fill="#E5E7EB" /><circle cx="138" cy="860.0" r="2.2" fill="#E5E7EB" /><circle cx="1462" cy="860.0" r="2.2" fill="#E5E7EB" /><circle cx="150" cy="860.0" r="2.2" fill="#E5E7EB" /><circle cx="1450" cy="860.0" r="2.2" fill="#E5E7EB" /><circle cx="162" cy="860.0" r="2.2" fill="#E5E7EB" /><circle cx="1438" cy="860.0" r="2.2" fill="#E5E7EB" /><circle cx="174" cy="860.0" r="2.2" fill="#E5E7EB" /><circle cx="1426" cy="860.0" r="2.2" fill="#E5E7EB" /><circle cx="186" cy="860.0" r="2.2" fill="#E5E7EB" /><circle cx="1414" cy="860.0" r="2.2" fill="#E5E7EB" /><circle cx="198" cy="860.0" r="2.2" fill="#E5E7EB" /><circle cx="1402" cy="860.0" r="2.2" fill="#E5E7EB" /><circle cx="210" cy="860.0" r="2.2" fill="#E5E7EB" /><circle cx="1390" cy="860.0" r="2.2" fill="#E5E7EB" /><circle cx="222" cy="860.0" r="2.2" fill="#E5E7EB" /><circle cx="1378" cy="860.0" r="2.2" fill="#E5E7EB" /></svg>