<svg viewBox="0 0 1200 800" xmlns="http://www.w3.org/2000/svg">
  <defs>
    <linearGradient id="purpleGrad" x1="0%" y1="0%" x2="100%" y2="100%">
      <stop offset="0%" stop-color="#8B5CF6" stop-opacity="1" />
      <stop offset="100%" stop-color="#6366F1" stop-opacity="1" />
    </linearGradient>
    
    <linearGradient id="blueGrad" x1="0%" y1="0%" x2="100%" y2="100%">
      <stop offset="0%" stop-color="#3B82F6" stop-opacity="1" />
      <stop offset="100%" stop-color="#2563EB" stop-opacity="1" />
    </linearGradient>
    
    <linearGradient id="greenGrad" x1="0%" y1="0%" x2="100%" y2="100%">
      <stop offset="0%" stop-color="#10B981" stop-opacity="1" />
      <stop offset="100%" stop-color="#059669" stop-opacity="1" />
    </linearGradient>
    
    <linearGradient id="pinkGrad" x1="0%" y1="0%" x2="100%" y2="100%">
      <stop offset="0%" stop-color="#EC4899" stop-opacity="1" />
      <stop offset="100%" stop-color="#DB2777" stop-opacity="1" />
    </linearGradient>
    
    <linearGradient id="orangeGrad" x1="0%" y1="0%" x2="100%" y2="100%">
      <stop offset="0%" stop-color="#F59E0B" stop-opacity="1" />
      <stop offset="100%" stop-color="#D97706" stop-opacity="1" />
    </linearGradient>
    
    <linearGradient id="background" x1="0%" y1="0%" x2="100%" y2="100%">
      <stop offset="0%" stop-color="#FDF4FF" stop-opacity="1" />
      <stop offset="100%" stop-color="#EFF6FF" stop-opacity="1" />
    </linearGradient>
  </defs>
  
  <!-- Background -->
  <rect width="1200" height="800" fill="url(#background)"/>
  
  <!-- Title -->
  <text x="600" y="40" text-anchor="middle" font-size="28" font-weight="700" fill="#8B5CF6" font-family="Arial, sans-serif">
    Cross-Promotion Placement Strategy
  </text>
  
  <!-- Mobile App Mockup -->
  <g id="mobile-mockup">
    <!-- Phone frame -->
    <rect x="50" y="80" width="280" height="580" rx="25" fill="#8B5CF6" stroke="#6366F1" stroke-width="3"/>
    <rect x="65" y="105" width="250" height="530" rx="10" fill="#FFFFFF"/>
    
    <!-- Status bar -->
    <rect x="65" y="105" width="250" height="30" rx="10" fill="#F3F4F6"/>
    <text x="80" y="125" font-size="11" fill="#6B7280" font-weight="600" font-family="Arial, sans-serif">9:41</text>
    <circle cx="290" cy="120" r="3" fill="#10B981"/>
    <circle cx="300" cy="120" r="3" fill="#3B82F6"/>
    
    <!-- App header -->
    <rect x="65" y="140" width="250" height="50" fill="#8B5CF6"/>
    <text x="190" y="170" text-anchor="middle" font-size="16" font-weight="600" fill="white" font-family="Arial, sans-serif">My App</text>
    
    <!-- Content cards -->
    <rect x="80" y="205" width="220" height="60" rx="8" fill="#F9FAFB" stroke="#8B5CF6" stroke-width="1"/>
    <rect x="85" y="210" width="40" height="40" rx="6" fill="#EC4899"/>
    <rect x="135" y="217" width="100" height="8" rx="4" fill="#E5E7EB"/>
    <rect x="135" y="235" width="150" height="8" rx="4" fill="#E5E7EB"/>
    
    <rect x="80" y="275" width="220" height="60" rx="8" fill="#F9FAFB" stroke="#3B82F6" stroke-width="1"/>
    <rect x="85" y="280" width="40" height="40" rx="6" fill="#3B82F6"/>
    <rect x="135" y="287" width="100" height="8" rx="4" fill="#E5E7EB"/>
    <rect x="135" y="305" width="150" height="8" rx="4" fill="#E5E7EB"/>
    
    <!-- Onboarding Banner -->
    <rect x="75" y="350" width="230" height="80" rx="10" fill="#8B5CF6" opacity="0.2"/>
    <text x="85" y="370" font-size="10" font-weight="600" fill="#8B5CF6" font-family="Arial, sans-serif">ONBOARDING PLACEMENT</text>
    <rect x="80" y="375" width="220" height="50" rx="8" fill="white" stroke="#8B5CF6" stroke-width="2"/>
    <text x="115" y="395" font-size="11" font-weight="600" fill="#1F2937" font-family="Arial, sans-serif">Try Our New Feature!</text>
    <text x="190" y="410" text-anchor="middle" font-size="9" fill="#9CA3AF" font-family="Arial, sans-serif">Discover premium tools</text>
    
    <!-- Footer Banner -->
    <rect x="65" y="555" width="250" height="70" rx="0 0 10 10" fill="#3B82F6" opacity="0.2"/>
    <text x="75" y="570" font-size="10" font-weight="600" fill="#3B82F6" font-family="Arial, sans-serif">FOOTER PLACEMENT</text>
    <rect x="80" y="575" width="220" height="45" rx="8" fill="white" stroke="#3B82F6" stroke-width="2"/>
    <rect x="90" y="585" width="20" height="20" rx="3" fill="#EC4899"/>
    <text x="120" y="595" font-size="10" font-weight="600" fill="#1F2937" font-family="Arial, sans-serif">Partner App Available</text>
    <text x="190" y="610" text-anchor="middle" font-size="8" fill="#6B7280" font-family="Arial, sans-serif">Install now - Free</text>
    
    <!-- Label -->
    <text x="190" y="660" text-anchor="middle" font-size="14" font-weight="700" fill="#8B5CF6" font-family="Arial, sans-serif">Mobile Interface</text>
  </g>
  
  <!-- Desktop App Mockup -->
  <g id="desktop-mockup">
    <!-- Window frame -->
    <rect x="400" y="80" width="750" height="500" rx="8" fill="#3B82F6" stroke="#2563EB" stroke-width="3"/>
    
    <!-- Title bar -->
    <rect x="400" y="80" width="750" height="35" rx="8 8 0 0" fill="#8B5CF6"/>
    <circle cx="420" cy="97.5" r="5" fill="#EF4444"/>
    <circle cx="437" cy="97.5" r="5" fill="#F59E0B"/>
    <circle cx="454" cy="97.5" r="5" fill="#10B981"/>
    <text x="775" y="102" text-anchor="middle" font-size="12" fill="white" font-weight="600" font-family="Arial, sans-serif">My Desktop App</text>
    
    <!-- Main content area -->
    <rect x="410" y="120" width="730" height="450" fill="#FFFFFF"/>
    
    <!-- Sidebar -->
    <rect x="410" y="120" width="180" height="450" fill="#F9FAFB" stroke="#E5E7EB" stroke-width="1"/>
    
    <!-- Sidebar items -->
    <rect x="420" y="135" width="160" height="35" rx="6" fill="#8B5CF6" opacity="0.2"/>
    <circle cx="435" cy="152.5" r="8" fill="#8B5CF6"/>
    <rect x="450" y="145" width="80" height="6" rx="3" fill="#8B5CF6"/>
    
    <rect x="420" y="180" width="160" height="35" rx="6" fill="white"/>
    <circle cx="435" cy="197.5" r="8" fill="#3B82F6"/>
    <rect x="450" y="190" width="80" height="6" rx="3" fill="#D1D5DB"/>
    
    <rect x="420" y="225" width="160" height="35" rx="6" fill="white"/>
    <circle cx="435" cy="242.5" r="8" fill="#EC4899"/>
    <rect x="450" y="235" width="80" height="6" rx="3" fill="#D1D5DB"/>
    
    <!-- Sidebar Promotion -->
    <rect x="415" y="390" width="170" height="170" rx="8" fill="#8B5CF6" opacity="0.25"/>
    <text x="425" y="405" font-size="10" font-weight="600" fill="#8B5CF6" font-family="Arial, sans-serif">SIDEBAR PLACEMENT</text>
    <rect x="420" y="410" width="160" height="145" rx="8" fill="white" stroke="#8B5CF6" stroke-width="2"/>
    <rect x="430" y="420" width="140" height="60" rx="6" fill="#F9FAFB"/>
    <text x="500" y="465" text-anchor="middle" font-size="11" font-weight="600" fill="#1F2937" font-family="Arial, sans-serif">Partner Tools</text>
    <rect x="435" y="490" width="130" height="28" rx="6" fill="#8B5CF6"/>
    <text x="500" y="508" text-anchor="middle" font-size="10" fill="white" font-weight="600" font-family="Arial, sans-serif">Learn More</text>
    <text x="500" y="538" text-anchor="middle" font-size="8" fill="#9CA3AF" font-family="Arial, sans-serif">Sponsored</text>
    
    <!-- Main content cards -->
    <rect x="610" y="135" width="510" height="80" rx="8" fill="#F9FAFB" stroke="#8B5CF6" stroke-width="2"/>
    <circle cx="635" cy="175" r="25" fill="#EC4899"/>
    <rect x="675" y="155" width="200" height="12" rx="6" fill="#E5E7EB"/>
    <rect x="675" y="175" width="150" height="10" rx="5" fill="#D1D5DB"/>
    <rect x="900" y="158" width="50" height="18" rx="9" fill="#8B5CF6"/>
    <text x="925" y="170" text-anchor="middle" font-size="9" fill="white" font-weight="600" font-family="Arial, sans-serif">New</text>
    
    <rect x="610" y="230" width="510" height="80" rx="8" fill="#F9FAFB" stroke="#3B82F6" stroke-width="2"/>
    <circle cx="635" cy="270" r="25" fill="#3B82F6"/>
    <rect x="675" y="250" width="200" height="12" rx="6" fill="#E5E7EB"/>
    <rect x="675" y="270" width="150" height="10" rx="5" fill="#D1D5DB"/>
    <rect x="900" y="260" width="180" height="8" rx="4" fill="#E5E7EB"/>
    <rect x="900" y="260" width="120" height="8" rx="4" fill="#3B82F6"/>
    <text x="1090" y="268" font-size="9" fill="#3B82F6" font-weight="600" font-family="Arial, sans-serif">67%</text>
    
    <rect x="610" y="325" width="510" height="80" rx="8" fill="#F9FAFB" stroke="#10B981" stroke-width="2"/>
    <circle cx="635" cy="365" r="25" fill="#10B981"/>
    <rect x="675" y="345" width="200" height="12" rx="6" fill="#E5E7EB"/>
    <rect x="675" y="365" width="150" height="10" rx="5" fill="#D1D5DB"/>
    <rect x="900" y="353" width="70" height="20" rx="10" fill="#10B981"/>
    <text x="935" y="367" text-anchor="middle" font-size="9" fill="white" font-weight="600" font-family="Arial, sans-serif">Active</text>
    
    <!-- Label -->
    <text x="775" y="600" text-anchor="middle" font-size="14" font-weight="700" fill="#3B82F6" font-family="Arial, sans-serif">Desktop Interface</text>
  </g>
  
  <!-- Control Panel -->
  <g id="control-panel">
    <rect x="400" y="630" width="750" height="140" rx="12" fill="white" stroke="#8B5CF6" stroke-width="3"/>
    
    <circle cx="415" cy="645" r="5" fill="#EC4899"/>
    <circle cx="1135" cy="645" r="5" fill="#3B82F6"/>
    <circle cx="415" cy="755" r="5" fill="#10B981"/>
    <circle cx="1135" cy="755" r="5" fill="#F59E0B"/>
    
    <text x="420" y="660" font-size="16" font-weight="700" fill="#8B5CF6" font-family="Arial, sans-serif">Promotion Controls</text>
    
    <!-- Toggles -->
    <text x="420" y="695" font-size="12" font-weight="600" fill="#1F2937" font-family="Arial, sans-serif">Enable Footer Ads</text>
    <rect x="560" y="680" width="50" height="26" rx="13" fill="#3B82F6"/>
    <circle cx="597" cy="693" r="10" fill="white"/>
    <text x="640" y="695" font-size="11" font-weight="600" fill="#10B981" font-family="Arial, sans-serif">Active</text>
    
    <text x="420" y="730" font-size="12" font-weight="600" fill="#1F2937" font-family="Arial, sans-serif">Enable Sidebar Ads</text>
    <rect x="560" y="715" width="50" height="26" rx="13" fill="#8B5CF6"/>
    <circle cx="597" cy="728" r="10" fill="white"/>
    <text x="640" y="730" font-size="11" font-weight="600" fill="#10B981" font-family="Arial, sans-serif">Active</text>
    
    <!-- Counter -->
    <rect x="720" y="670" width="180" height="70" rx="8" fill="#F9FAFB" stroke="#3B82F6" stroke-width="2"/>
    <rect x="730" y="710" width="8" height="20" rx="2" fill="#3B82F6"/>
    <rect x="743" y="705" width="8" height="25" rx="2" fill="#8B5CF6"/>
    <rect x="756" y="700" width="8" height="30" rx="2" fill="#EC4899"/>
    <text x="810" y="690" text-anchor="middle" font-size="11" fill="#6B7280" font-weight="600" font-family="Arial, sans-serif">Total Impressions</text>
    <text x="810" y="715" text-anchor="middle" font-size="24" font-weight="700" fill="#3B82F6" font-family="Arial, sans-serif">24,582</text>
    <text x="810" y="732" text-anchor="middle" font-size="9" font-weight="600" fill="#10B981" font-family="Arial, sans-serif">+12.5% this week</text>
    
    <!-- Approval -->
    <rect x="930" y="670" width="200" height="70" rx="8" fill="#ECFDF5" stroke="#10B981" stroke-width="2"/>
    <circle cx="960" cy="705" r="15" fill="#10B981"/>
    <path d="M 955 705 L 958 708 L 965 700" stroke="white" stroke-width="2.5" fill="none" stroke-linecap="round" stroke-linejoin="round"/>
    <text x="985" y="700" font-size="11" fill="#065F46" font-weight="700" font-family="Arial, sans-serif">All Placements</text>
    <text x="985" y="715" font-size="11" fill="#059669" font-weight="600" font-family="Arial, sans-serif">Approved and Live</text>
  </g>
  
  <!-- Legend -->
  <rect x="50" y="695" width="310" height="75" rx="10" fill="white" stroke="#8B5CF6" stroke-width="2"/>
  <text x="65" y="715" font-size="12" font-weight="700" fill="#8B5CF6" font-family="Arial, sans-serif">Placement Types:</text>
  <rect x="65" y="725" width="18" height="18" rx="3" fill="#8B5CF6"/>
  <text x="90" y="738" font-size="11" font-weight="600" fill="#1F2937" font-family="Arial, sans-serif">Onboarding / Sidebar</text>
  <rect x="65" y="750" width="18" height="18" rx="3" fill="#3B82F6"/>
  <text x="90" y="763" font-size="11" font-weight="600" fill="#1F2937" font-family="Arial, sans-serif">Footer / Persistent</text>
</svg>
