<?xml version="1.0" encoding="UTF-8"?>
<!DOCTYPE svg PUBLIC "-//W3C//DTD SVG 1.1//EN" "http://www.w3.org/Graphics/SVG/1.1/DTD/svg11.dtd">
<!-- Creator: CorelDRAW -->
<svg xmlns="http://www.w3.org/2000/svg" xml:space="preserve" width="3056px" height="3083px" version="1.1" shape-rendering="geometricPrecision" text-rendering="geometricPrecision" image-rendering="optimizeQuality" fill-rule="evenodd" clip-rule="evenodd"
viewBox="0 0 3731.34 3765.07"
 xmlns:xlink="http://www.w3.org/1999/xlink"
 xmlns:xodm="http://www.corel.com/coreldraw/odm/2003">
 <g id="Layer_x0020_1">
  <metadata id="CorelCorpID_0Corel-Layer"/>
  <g id="_3195478832928">
   <path fill="#B47BFF" d="M1025.46 3532.04c8.93,-402.05 -72.09,-284.54 254.51,-545.72 31,-24.78 -54.95,-65.28 -71.05,-73.07 -527.17,-254.59 -719.11,-1081.94 -470.48,-1579.2 14.86,-29.71 83.83,-159.82 94.96,-164.31 0,-21.55 -103.23,-285.12 -119.4,-328.73 -5.01,-10.14 -9.38,-16.7 -19.12,-22.5 -37.04,-22.04 -359.27,-48.28 -377.84,-17.89 -611.12,966.28 -295.32,2012.75 575.44,2665.94 32.76,18.38 99.32,65.69 132.98,65.48z"/>
   <path fill="#FEFEFE" fill-rule="nonzero" d="M250.87 1969.96l138.84 -10.43 3.17 42.11 -92.83 32 96.55 17.48 3.17 42.2 -138.84 10.44 -1.95 -25.98 109.29 -8.32 -111.36 -19.15 -2.03 -27.02 107.25 -35.46 -109.31 8.12 -1.95 -25.99zm67.37 146.68c8.76,-1.49 17.59,-0.78 26.5,2.15 8.94,2.93 16.2,7.97 21.86,15.14 5.64,7.16 9.3,15.58 10.95,25.33 2.55,15.05 -0.26,28.18 -8.41,39.45 -8.18,11.28 -19.7,18.16 -34.66,20.69 -15.08,2.55 -28.4,-0.19 -39.94,-8.2 -11.55,-8.03 -18.57,-19.4 -21.06,-34.13 -1.55,-9.11 -0.94,-18.15 1.78,-27.13 2.73,-8.94 7.7,-16.26 14.96,-21.92 7.23,-5.66 16.58,-9.45 28.02,-11.38zm3.17 27.27c-9.87,1.67 -17.05,5.28 -21.5,10.84 -4.48,5.59 -6.13,11.78 -4.96,18.65 1.15,6.84 4.75,12.15 10.8,15.89 6.03,3.75 14.06,4.79 24.06,3.09 9.75,-1.65 16.86,-5.25 21.32,-10.77 4.49,-5.53 6.14,-11.72 4.98,-18.56 -1.17,-6.87 -4.76,-12.18 -10.83,-15.98 -6.03,-3.78 -14,-4.83 -23.87,-3.16zm-24.76 128.77l-6.16 -25.93 98.2 -23.3 5.7 24.02 -13.94 3.31c7.57,2.57 12.78,5.26 15.61,8.09 2.84,2.82 4.74,6.34 5.73,10.53 1.41,5.93 1.13,12.02 -0.82,18.28l-24.55 -2.66c1.8,-5.06 2.25,-9.47 1.36,-13.22 -0.87,-3.66 -2.61,-6.51 -5.2,-8.56 -2.61,-2.04 -6.68,-3.17 -12.26,-3.38 -5.57,-0.21 -16.72,1.67 -33.4,5.63l-30.27 7.19zm60.06 96.8l2.73 26.88c-10.31,-0.7 -18.9,-3.96 -25.78,-9.7 -6.86,-5.78 -11.78,-14.01 -14.7,-24.67 -4.64,-16.9 -2.55,-30.96 6.3,-42.09 7.12,-8.84 17.42,-15.13 30.96,-18.84 16.12,-4.43 29.94,-3.68 41.37,2.23 11.47,5.89 18.95,15.3 22.48,28.17 3.97,14.44 2.31,27.16 -4.95,38.16 -7.28,10.97 -20.84,18.99 -40.69,24.04l-17.65 -64.32c-7.57,2.28 -12.95,5.97 -16.11,11.1 -3.17,5.11 -3.94,10.63 -2.33,16.5 1.11,4.04 3.13,7.11 6.06,9.23 2.95,2.15 7.04,3.24 12.31,3.31zm26.47 -5.65c7.42,-2.23 12.59,-5.7 15.46,-10.42 2.9,-4.73 3.62,-9.7 2.18,-14.95 -1.53,-5.6 -4.87,-9.66 -9.96,-12.19 -5.1,-2.53 -11.18,-2.78 -18.2,-0.79l10.52 38.35zm-11.66 141.15l104.89 -48.85 -17.4 -37.37 21.33 -9.93 46.62 100.13 -21.33 9.93 -17.32 -37.2 -104.89 48.85 -11.9 -25.56zm44.35 91.24l-11.97 -23.8 90.18 -45.32 11.09 22.06 -12.8 6.44c7.96,0.75 13.64,2.17 17.05,4.26 3.41,2.1 6.07,5.08 8.01,8.93 2.73,5.45 3.86,11.44 3.41,17.98l-24.5 3.07c0.58,-5.34 0.01,-9.73 -1.72,-13.17 -1.69,-3.36 -4.04,-5.74 -7.03,-7.14 -3.02,-1.38 -7.24,-1.55 -12.72,-0.46 -5.47,1.08 -15.88,5.48 -31.2,13.18l-27.8 13.97zm92.61 28.18l-8.06 -23.13c9.92,-2.44 18.58,-1.91 25.96,1.58 7.37,3.48 14.27,10.94 20.67,22.36 5.82,10.38 8.94,18.81 9.34,25.28 0.37,6.44 -0.72,11.77 -3.35,15.96 -2.64,4.18 -8.98,9.11 -19.1,14.78l-27.33 14.88c-7.72,4.32 -13.22,7.89 -16.48,10.69 -3.27,2.79 -6.42,6.38 -9.46,10.76l-12.93 -23.07c1.19,-1.45 3.02,-3.48 5.53,-6.04 1.18,-1.14 1.92,-1.93 2.25,-2.34 -6.12,-1.77 -11.4,-4.38 -15.89,-7.81 -4.49,-3.43 -8.17,-7.68 -11.04,-12.79 -5.05,-9.02 -6.59,-17.53 -4.58,-25.49 1.97,-7.94 6.73,-14.03 14.25,-18.24 4.95,-2.77 10.06,-4.07 15.29,-3.89 5.2,0.21 10.05,1.83 14.52,4.97 4.46,3.12 9.73,8.27 15.8,15.45 8.12,9.72 14.27,16.19 18.37,19.39l2.34 -1.32c4.53,-2.53 7.13,-5.44 7.85,-8.74 0.67,-3.31 -0.72,-8.03 -4.16,-14.17 -2.32,-4.15 -4.95,-6.92 -7.92,-8.3 -2.95,-1.43 -6.91,-1.66 -11.87,-0.77zm-1.34 41.76c-2.65,-2.41 -6.49,-6.47 -11.5,-12.17 -5,-5.66 -8.73,-9.15 -11.14,-10.39 -3.87,-1.81 -7.44,-1.82 -10.75,0.04 -3.28,1.84 -5.4,4.62 -6.41,8.38 -1.01,3.77 -0.47,7.51 1.63,11.27 2.35,4.19 5.99,7.43 10.87,9.71 3.69,1.6 7.28,2.04 10.82,1.21 2.31,-0.52 6.28,-2.33 11.84,-5.45l4.64 -2.6zm146.51 106.26l20.17 -14.24 15.41 21.82 -20.18 14.24 -15.4 -21.82zm-93.57 66.06l82.45 -58.21 15.4 21.82 -82.45 58.2 -15.4 -21.81zm4.53 -168.59l8.54 12.1 6.22 -4.39c6.94,-4.9 12.65,-7.82 17.11,-8.75 4.47,-0.97 9.18,-0.21 14.11,2.22 4.94,2.46 9.56,6.7 13.82,12.74 4.4,6.22 7.75,12.93 10.1,20.2l-17.22 7.75c-1.63,-4.05 -3.56,-7.68 -5.82,-10.88 -2.24,-3.18 -4.57,-4.91 -7.03,-5.24 -2.45,-0.33 -5.78,1.03 -10.01,4.02l-5.88 4.15 19.21 27.22 6.23 -4.4c6.93,-4.89 12.64,-7.82 17.09,-8.77 4.49,-0.95 9.19,-0.18 14.12,2.25 4.93,2.43 9.55,6.67 13.83,12.73 4.37,6.2 7.75,12.94 10.08,20.18l-17.22 7.75c-1.63,-4.05 -3.56,-7.68 -5.82,-10.89 -2.23,-3.15 -4.56,-4.87 -7.01,-5.2 -2.46,-0.33 -5.8,1 -10.04,3.99l-5.87 4.15 11.49 16.28 -17.16 12.11 -11.49 -16.28 -65.29 46.09 -15.38 -21.79 65.29 -46.09 -19.22 -27.22 -65.29 46.09 -15.4 -21.82 65.29 -46.09 -8.54 -12.1 17.16 -12.11zm137.34 238.92l-19.82 -17.83c3.58,-3.9 5.44,-7.89 5.6,-12.01 0.14,-4.09 -1.31,-8.11 -4.37,-12.04 -4.09,-5.24 -9.17,-8.02 -15.23,-8.31 -6.06,-0.29 -13.34,2.88 -21.85,9.51 -9.46,7.37 -14.89,14.16 -16.33,20.38 -1.44,6.21 -0.08,11.97 4.07,17.29 3.1,3.99 6.8,6.36 11.05,7.12 4.27,0.78 9.58,-0.48 15.97,-3.77l12.61 23.45c-11.19,5.27 -21.58,6.75 -31.18,4.45 -9.6,-2.3 -18.38,-8.56 -26.37,-18.81 -9.04,-11.6 -12.6,-23.75 -10.64,-36.37 1.96,-12.67 9.45,-24.05 22.46,-34.19 13.16,-10.26 26.1,-14.75 38.83,-13.55 12.74,1.21 23.7,7.75 32.93,19.58 7.53,9.66 11.43,18.99 11.73,27.96 0.28,8.95 -2.88,17.98 -9.46,27.14z"/>
   <path fill="#B47BFF" d="M391.67 708.8c115.77,41.9 341.5,-20.64 385.64,116.91 8.06,24.73 88.93,302.15 123.57,254.65 447.92,-614.1 1268.66,-533.21 1825.02,-113.02 15.55,7.29 372.28,-37.09 397.84,-61.64 15.81,-47.65 91.18,-303 91.18,-337.74 -13.49,-5.46 -168.46,-159.52 -222.51,-200.03 -765.82,-609.45 -1864.05,-416.45 -2528.7,246.46 -12.61,12.56 -72.04,84.2 -72.04,94.41z"/>
   <polygon fill="#FEFEFE" fill-rule="nonzero" points="1360.7,489.78 1319.02,357.07 1359.13,344.48 1411.64,427.43 1407.01,329.44 1447.22,316.82 1488.9,449.54 1464.01,457.33 1431.21,352.88 1437.65,465.6 1411.85,473.72 1352.79,377.48 1385.59,481.96 "/>
   <path id="_1" fill="#FEFEFE" fill-rule="nonzero" d="M1497.52 393.09c-2.03,-8.62 -1.89,-17.47 0.45,-26.52 2.38,-9.08 6.93,-16.64 13.73,-22.72 6.79,-6.07 14.98,-10.24 24.6,-12.5 14.83,-3.5 28.13,-1.52 39.84,5.87 11.75,7.4 19.36,18.46 22.83,33.17 3.47,14.83 1.59,28.26 -5.67,40.26 -7.3,12.01 -18.2,19.72 -32.71,23.16 -9.01,2.09 -18.05,2.08 -27.16,-0.07 -9.11,-2.12 -16.71,-6.64 -22.82,-13.46 -6.07,-6.86 -10.44,-15.92 -13.09,-27.19zm26.89 -4.86c2.29,9.71 6.36,16.61 12.2,20.71 5.84,4.07 12.13,5.32 18.9,3.75 6.77,-1.61 11.85,-5.54 15.21,-11.77 3.39,-6.26 3.89,-14.3 1.59,-24.15 -2.25,-9.62 -6.29,-16.45 -12.1,-20.55 -5.81,-4.07 -12.1,-5.35 -18.87,-3.75 -6.77,1.61 -11.85,5.54 -15.24,11.77 -3.42,6.26 -3.95,14.27 -1.69,23.99z"/>
   <path id="_2" fill="#FEFEFE" fill-rule="nonzero" d="M1657.73 414.35l-26.4 3.82 -14.45 -99.79 24.52 -3.56 2.08 14.19c3.22,-7.3 6.36,-12.26 9.4,-14.86 3.04,-2.63 6.7,-4.23 10.94,-4.85 6.03,-0.89 12.06,-0.06 18.12,2.45l-4.87 24.22c-4.87,-2.26 -9.18,-3.09 -13,-2.53 -3.69,0.53 -6.71,1.99 -8.97,4.4 -2.26,2.4 -3.78,6.39 -4.48,11.93 -0.7,5.55 0.2,16.79 2.64,33.77l4.47 30.81z"/>
   <path id="_3" fill="#FEFEFE" fill-rule="nonzero" d="M1761.82 370.45l26.88 2.28c-2.62,10 -7.4,17.84 -14.33,23.53 -6.93,5.65 -15.92,8.95 -26.96,9.87 -17.46,1.41 -30.85,-3.23 -40.19,-13.96 -7.38,-8.61 -11.63,-19.89 -12.77,-33.82 -1.37,-16.65 1.91,-30.06 9.85,-40.19 7.94,-10.13 18.56,-15.74 31.88,-16.84 14.93,-1.23 27.14,2.74 36.6,11.92 9.43,9.14 14.81,23.95 16.11,44.32l-66.63 5.47c0.83,7.87 3.5,13.82 7.96,17.87 4.44,4.05 9.73,5.83 15.85,5.34 4.18,-0.35 7.58,-1.77 10.22,-4.28 2.67,-2.52 4.49,-6.32 5.53,-11.51zm-0.66 -27c-0.84,-7.67 -3.3,-13.36 -7.41,-17.06 -4.11,-3.7 -8.89,-5.32 -14.29,-4.86 -5.8,0.46 -10.45,2.98 -13.89,7.51 -3.44,4.53 -4.83,10.44 -4.16,17.69l39.75 -3.28z"/>
   <path id="_4" fill="#FEFEFE" fill-rule="nonzero" d="M1986.83 399.51l-30.53 -0.2 -11.95 -31.66 -55.58 -0.36 -11.68 31.51 -29.79 -0.18 55.06 -138.72 29.69 0.19 54.78 139.42zm-51.33 -55.34l-18.85 -51.74 -19.11 51.48 37.96 0.26z"/>
   <path id="_5" fill="#FEFEFE" fill-rule="nonzero" d="M2014.75 302.54l24.63 3.44 -2.06 14.69c3.92,-4.58 8.81,-8.05 14.71,-10.42 5.86,-2.37 12.15,-3.09 18.79,-2.15 11.61,1.61 20.78,7.53 27.6,17.73 6.81,10.24 9.09,23.46 6.84,39.67 -2.32,16.69 -8.21,29.08 -17.67,37.19 -9.42,8.11 -19.95,11.36 -31.53,9.71 -5.54,-0.77 -10.37,-2.55 -14.55,-5.37 -4.19,-2.81 -8.37,-7.25 -12.55,-13.27l-7.06 50.3 -26.42 -3.7 19.27 -137.82zm19.39 51.9c-1.55,11.21 -0.5,19.8 3.2,25.79 3.7,5.97 8.76,9.43 15.14,10.3 6.16,0.87 11.6,-0.89 16.36,-5.23 4.76,-4.35 7.93,-12.13 9.48,-23.34 1.48,-10.48 0.47,-18.54 -3.03,-24.21 -3.47,-5.67 -8.34,-8.94 -14.53,-9.81 -6.45,-0.9 -12.15,0.85 -17.11,5.23 -4.99,4.41 -8.12,11.48 -9.51,21.27z"/>
   <path id="_6" fill="#FEFEFE" fill-rule="nonzero" d="M2141.62 318.8l24.23 5.51 -3.27 14.43c4.27,-4.22 9.45,-7.28 15.5,-9.15 6.06,-1.86 12.37,-2.07 18.93,-0.6 11.38,2.6 20.08,9.25 26.01,20 5.93,10.77 7.1,24.12 3.48,40.11 -3.72,16.41 -10.63,28.26 -20.69,35.54 -10.09,7.29 -20.84,9.62 -32.26,7.05 -5.41,-1.24 -10.09,-3.44 -14.02,-6.57 -3.93,-3.17 -7.73,-7.92 -11.41,-14.26l-11.18 49.48 -26.01 -5.86 30.69 -135.68zm14.99 53.31c-2.5,11.02 -2.15,19.71 1.01,25.95 3.19,6.28 7.93,10.13 14.22,11.54 6.07,1.37 11.64,0.09 16.75,-3.84 5.11,-3.94 8.88,-11.43 11.38,-22.49 2.34,-10.28 2.02,-18.41 -1.01,-24.34 -2.99,-5.92 -7.54,-9.6 -13.64,-10.98 -6.35,-1.44 -12.18,-0.16 -17.49,3.77 -5.3,3.97 -9.04,10.75 -11.22,20.39z"/>
   <path id="_7" fill="#FEFEFE" fill-rule="nonzero" d="M2236.03 415.15l26.81 3.83c-0.41,5.29 0.67,9.76 3.24,13.32 2.54,3.59 6.82,6.27 12.82,8.1 6.62,1.97 11.96,2.28 16.01,0.84 2.76,-1.01 4.57,-2.95 5.43,-5.81 0.58,-1.91 0.45,-3.73 -0.36,-5.34 -0.91,-1.62 -3.42,-3.6 -7.53,-5.95 -19.25,-10.75 -31.06,-18.86 -35.45,-24.27 -6.08,-7.53 -7.71,-15.93 -4.91,-25.2 2.54,-8.37 7.94,-14.41 16.26,-18.09 8.35,-3.71 19.44,-3.47 33.32,0.71 13.23,3.99 22.38,9.09 27.51,15.33 5.14,6.25 7.65,13.95 7.54,23.1l-25.45 -2.8c0.09,-4.09 -0.99,-7.55 -3.26,-10.4 -2.28,-2.88 -6.07,-5.11 -11.42,-6.71 -6.72,-2.03 -11.84,-2.57 -15.3,-1.56 -2.34,0.75 -3.82,2.18 -4.47,4.32 -0.55,1.82 -0.18,3.6 1.15,5.38 1.79,2.39 9.02,7.21 21.68,14.41 12.69,7.16 21.06,13.82 25.09,19.94 3.97,6.15 4.73,13.31 2.29,21.42 -2.67,8.85 -8.66,15.35 -17.98,19.48 -9.33,4.14 -21.22,4 -35.72,-0.34 -13.13,-3.96 -22.74,-9.77 -28.81,-17.44 -6.05,-7.64 -8.89,-16.38 -8.49,-26.27z"/>
   <path fill="#397BEE" d="M2805.19 1035.3c0,0.49 163.85,257.04 194.32,317.83 245.27,539.61 -8.24,810.8 -179.67,1297.52 -6.02,17.08 67.99,298.82 77.05,335.16 3.18,9.73 9.62,17.54 16.9,24.71 29.47,23.79 352.92,75.62 380.44,63.08 198.15,-115.25 402.08,-503.27 430.18,-1006.56 8.67,-155.27 13.46,-324.36 -12.14,-488.68 -57.37,-368.3 -208.21,-721.02 -390.11,-899.98 -13.51,-13.19 -32.29,-40 -49.63,-40 -0.2,9.28 0.22,4.18 -2.1,10.69 -33.72,94.62 -57.38,204.6 -87.28,303.25 -24.11,45.97 -295.71,41.41 -377.96,82.98z"/>
   <path fill="#FEFEFE" fill-rule="nonzero" d="M3317.93 2633.97l-127.68 -55.54 16.85 -38.72 97.03 15 -77.24 -60.5 16.89 -38.81 127.67 55.54 -10.39 23.89 -100.55 -43.63 89.56 68.89 -10.81 24.85 -111.41 -18.67 100.47 43.81 -10.39 23.89zm14.12 -163.47c-8.24,-3.29 -15.41,-8.49 -21.49,-15.64 -6.12,-7.15 -9.69,-15.24 -10.78,-24.3 -1.09,-9.05 0.17,-18.15 3.83,-27.33 5.67,-14.17 14.9,-23.92 27.73,-29.3 12.86,-5.37 26.28,-5.24 40.36,0.38 14.21,5.68 24.15,14.95 29.84,27.8 5.67,12.88 5.74,26.24 0.2,40.11 -3.43,8.58 -8.65,15.98 -15.65,22.23 -6.98,6.21 -15.04,9.87 -24.19,10.93 -9.12,1.06 -19.07,-0.57 -29.85,-4.88zm11.5 -24.93c9.3,3.71 17.31,4.37 24,1.95 6.74,-2.45 11.37,-6.88 13.95,-13.35 2.58,-6.44 2.27,-12.84 -0.95,-19.19 -3.19,-6.34 -9.51,-11.41 -18.93,-15.17 -9.18,-3.67 -17.13,-4.3 -23.81,-1.9 -6.71,2.38 -11.34,6.81 -13.91,13.25 -2.59,6.47 -2.28,12.88 0.92,19.28 3.18,6.37 9.43,11.41 18.73,15.13zm87.54 -97.43l-7.4 25.59 -96.95 -28.05 6.86 -23.72 13.76 3.98c-5.32,-5.96 -8.52,-10.87 -9.6,-14.72 -1.08,-3.86 -1,-7.85 0.19,-11.99 1.7,-5.85 4.95,-11.02 9.72,-15.51l20.06 14.41c-4.06,3.51 -6.62,7.13 -7.69,10.83 -1.05,3.61 -0.93,6.95 0.31,10.01 1.27,3.07 4.25,6.06 9,8.98 4.76,2.93 15.38,6.78 31.85,11.55l29.89 8.64zm-3.8 -111.45l9.96 -25.1c8.83,5.37 14.95,12.22 18.41,20.49 3.42,8.29 3.99,17.86 1.67,28.66 -3.68,17.15 -12.02,28.65 -24.99,34.45 -10.4,4.57 -22.44,5.39 -36.16,2.45 -16.35,-3.51 -28.27,-10.54 -35.69,-21.05 -7.46,-10.52 -9.77,-22.32 -6.96,-35.37 3.14,-14.64 10.47,-25.17 21.99,-31.58 11.51,-6.38 27.24,-7.25 47.19,-2.57l-14 65.22c7.77,1.47 14.24,0.67 19.42,-2.43 5.16,-3.07 8.39,-7.62 9.67,-13.57 0.88,-4.09 0.5,-7.75 -1.12,-10.98 -1.62,-3.27 -4.75,-6.13 -9.39,-8.62zm-26.1 -7.19c-7.62,-1.43 -13.8,-0.74 -18.52,2.13 -4.76,2.86 -7.69,6.93 -8.83,12.26 -1.22,5.67 -0.14,10.81 3.22,15.41 3.35,4.59 8.64,7.62 15.78,9.08l8.35 -38.88zm32.11 -87.54l0.92 -27.54c9.31,-0.42 16.4,-2.82 21.33,-7.23 4.94,-4.41 7.95,-10.84 9.08,-19.29 1.18,-8.93 0.19,-15.93 -3,-20.96 -3.19,-5.04 -7.32,-7.91 -12.4,-8.58 -3.27,-0.44 -6.16,0.16 -8.73,1.75 -2.53,1.59 -4.97,4.66 -7.27,9.19 -1.59,3.1 -4.56,10.22 -9,21.4 -5.7,14.38 -11.65,24.21 -17.88,29.5 -8.74,7.43 -18.59,10.41 -29.54,8.95 -7.04,-0.94 -13.39,-3.81 -19,-8.58 -5.6,-4.8 -9.5,-11.14 -11.72,-19.05 -2.22,-7.91 -2.62,-17.12 -1.21,-27.72 2.29,-17.26 7.85,-29.76 16.68,-37.44 8.84,-7.72 19.67,-10.92 32.54,-9.66l-2.75 28.07c-7.29,0.24 -12.74,2.1 -16.37,5.57 -3.63,3.48 -5.99,9.11 -7.02,16.89 -1.07,8.03 -0.24,14.55 2.5,19.52 1.77,3.21 4.43,5.07 8.03,5.55 3.27,0.44 6.25,-0.57 8.93,-3.03 3.46,-3.1 7.67,-11.2 12.69,-24.3 4.98,-13.11 9.65,-22.65 13.91,-28.66 4.3,-6.03 9.64,-10.48 16.07,-13.36 6.43,-2.87 14,-3.72 22.7,-2.56 7.91,1.05 15.04,4.22 21.36,9.54 6.32,5.32 10.63,12.2 12.91,20.68 2.3,8.48 2.64,18.73 1.04,30.71 -2.32,17.44 -8.12,30.31 -17.42,38.58 -9.28,8.28 -21.74,12.28 -37.38,12.06zm66.79 -196.11l-15.06 -1.14c5.09,4.09 8.99,9.23 11.74,15.45 2.72,6.21 3.83,12.63 3.33,19.26 -0.51,6.79 -2.45,12.75 -5.83,17.89 -3.38,5.18 -7.87,8.74 -13.41,10.73 -5.58,2.02 -13.11,2.65 -22.61,1.94l-63.83 -4.8 2 -26.57 46.34 3.49c14.19,1.06 22.89,1.23 26.17,0.47 3.27,-0.73 5.95,-2.32 7.99,-4.79 2.07,-2.45 3.26,-5.67 3.56,-9.68 0.34,-4.56 -0.61,-8.73 -2.83,-12.53 -2.22,-3.81 -5.13,-6.5 -8.75,-8.1 -3.62,-1.61 -12.62,-2.97 -27.06,-4.05l-42.53 -3.2 1.99 -26.57 100.64 7.57 -1.85 24.63zm0.65 -77.62l-0.47 26.64 -100.91 -1.8 0.44 -24.7 14.32 0.26c-6.69,-4.37 -11.06,-8.27 -13.11,-11.71 -2.04,-3.44 -3.01,-7.31 -2.94,-11.62 0.11,-6.1 1.9,-11.93 5.34,-17.51l23.12 8.68c-3,4.45 -4.53,8.61 -4.6,12.46 -0.07,3.76 0.91,6.95 2.91,9.58 2.03,2.63 5.68,4.74 11.04,6.33 5.35,1.58 16.61,2.53 33.75,2.84l31.11 0.55zm-101.81 -36.92l-0.26 -14.78 -7.62 0.14c-8.49,0.15 -14.86,-0.65 -19.07,-2.39 -4.24,-1.74 -7.7,-5.02 -10.41,-9.83 -2.72,-4.85 -4.15,-10.98 -4.28,-18.43 -0.14,-7.62 0.86,-15.12 3,-22.49l18.6 3.08c-0.93,4.36 -1.37,8.55 -1.3,12.57 0.07,3.95 1.02,6.75 2.87,8.44 1.84,1.68 5.36,2.5 10.54,2.41l7.2 -0.13 -0.36 -20.03 21 -0.37 0.35 20.03 79.91 -1.41 0.47 26.63 -79.91 1.41 0.27 14.78 -21 0.37zm25.47 -92.07l-2.44 24.37c-10.03,-1.97 -17.66,-6.1 -22.88,-12.37 -5.22,-6.26 -8.33,-15.94 -9.32,-29 -0.91,-11.86 -0.19,-20.82 2.18,-26.85 2.37,-5.99 5.62,-10.37 9.77,-13.06 4.15,-2.68 11.97,-4.48 23.54,-5.36l31.06 -1.97c8.82,-0.67 15.31,-1.59 19.45,-2.75 4.14,-1.16 8.51,-3.08 13.12,-5.77l2 26.37c-1.69,0.81 -4.21,1.88 -7.56,3.14 -1.55,0.54 -2.56,0.94 -3.03,1.17 4.8,4.19 8.5,8.78 11.12,13.78 2.62,5 4.17,10.41 4.62,16.26 0.78,10.31 -1.41,18.67 -6.58,25.04 -5.14,6.37 -12.03,9.89 -20.62,10.54 -5.66,0.43 -10.83,-0.54 -15.5,-2.92 -4.63,-2.38 -8.35,-5.9 -11.08,-10.63 -2.73,-4.7 -5.33,-11.59 -7.81,-20.66 -3.27,-12.24 -6.12,-20.7 -8.49,-25.33l-2.68 0.21c-5.17,0.39 -8.76,1.93 -10.8,4.62 -2,2.72 -2.74,7.59 -2.2,14.6 0.36,4.75 1.57,8.36 3.68,10.87 2.08,2.54 5.57,4.42 10.45,5.7zm18.81 -37.31c1.39,3.31 3.15,8.6 5.3,15.88 2.14,7.25 4.06,11.98 5.72,14.13 2.75,3.27 5.99,4.78 9.77,4.49 3.75,-0.29 6.84,-1.92 9.34,-4.9 2.51,-2.99 3.6,-6.62 3.27,-10.91 -0.36,-4.79 -2.3,-9.25 -5.76,-13.38 -2.67,-3.01 -5.74,-4.92 -9.31,-5.66 -2.31,-0.51 -6.67,-0.54 -13.03,-0.05l-5.3 0.4zm-42.15 -129.81l8.98 25.1c-5,1.74 -8.53,4.37 -10.62,7.92 -2.07,3.53 -2.7,7.75 -1.87,12.67 1.11,6.55 4.27,11.41 9.46,14.54 5.2,3.13 13.1,3.8 23.75,2 11.82,-2.01 19.82,-5.4 24.04,-10.19 4.22,-4.79 5.75,-10.51 4.63,-17.15 -0.85,-4.99 -2.98,-8.83 -6.36,-11.51 -3.38,-2.72 -8.65,-4.13 -15.84,-4.26l0.03 -26.63c12.34,0.67 22.19,4.3 29.55,10.88 7.36,6.57 12.12,16.25 14.29,29.07 2.46,14.5 -0.18,26.88 -7.89,37.06 -7.74,10.22 -19.73,16.69 -35.99,19.44 -16.46,2.78 -29.98,0.6 -40.62,-6.51 -10.63,-7.1 -17.18,-18.06 -19.69,-32.85 -2.04,-12.08 -1.05,-22.14 2.95,-30.18 4,-8.01 11.06,-14.46 21.2,-19.4zm22.95 -81.35l-1.8 -26.95c10.27,1.06 18.74,4.61 25.43,10.58 6.65,6.02 11.28,14.42 13.83,25.17 4.05,17.06 1.47,31.03 -7.75,41.84 -7.42,8.59 -17.94,14.52 -31.6,17.76 -16.27,3.87 -30.05,2.64 -41.27,-3.66 -11.25,-6.29 -18.41,-15.95 -21.49,-28.94 -3.46,-14.57 -1.37,-27.22 6.27,-37.96 7.65,-10.71 21.49,-18.26 41.5,-22.61l15.41 64.89c7.65,-2.01 13.15,-5.51 16.48,-10.54 3.35,-4.99 4.31,-10.48 2.9,-16.41 -0.96,-4.07 -2.87,-7.21 -5.73,-9.43 -2.87,-2.25 -6.93,-3.49 -12.18,-3.74zm-26.66 4.73c-7.49,1.98 -12.77,5.27 -15.81,9.88 -3.06,4.63 -3.96,9.57 -2.7,14.87 1.34,5.64 4.53,9.82 9.54,12.53 5,2.7 11.07,3.16 18.15,1.41l-9.18 -38.69z"/>
   <path fill="#397BEE" d="M3210.1 3168.72c17.32,-17.74 17.62,-9.01 17.62,-33.6 -75.91,-22.36 -332.5,-40.99 -368.18,-76.75 -36.82,-36.94 -64.18,-246.78 -92.76,-326.57l-19.2 0c-1.45,4 -56.12,50.2 -59.73,52.31 -369.7,298.29 -786.4,377.53 -1241.55,240.67 -0.78,-0.26 -1.6,-0.57 -2.37,-0.83l-32 -12.81c-29.68,-14.54 -57.6,3.4 -80.62,20.11 -67.23,44.86 -135.29,91.25 -201.19,138.11 -11.44,7.18 -29.09,23.52 -33.75,36.67 -0.86,2.42 -1.07,4.29 -2.13,7.48 -0.25,0.77 -0.59,1.58 -0.85,2.35l-4.1 24.71c0.26,82.15 -3.14,237.99 6.68,313.79 657.21,448.32 1624.93,115.71 2114.13,-385.64z"/>
   <path fill="#FEFEFE" fill-rule="nonzero" d="M1264.91 3400.95l45.58 -131.56 39.91 13.83 -7.52 97.9 54.4 -81.65 39.99 13.85 -45.59 131.56 -24.62 -8.53 35.8 -103.6 -61.83 94.58 -25.6 -8.87 10.08 -112.51 -35.98 103.53 -24.62 -8.53zm158.4 3.24c1.99,-8.65 6.03,-16.53 12.16,-23.63 6.13,-7.14 13.58,-11.91 22.37,-14.37 8.78,-2.47 17.96,-2.62 27.59,-0.4 14.88,3.43 25.92,11.06 33.2,22.92 7.28,11.88 9.21,25.16 5.8,39.95 -3.43,14.9 -11.08,26.15 -22.91,33.73 -11.85,7.58 -25.04,9.7 -39.6,6.34 -9,-2.07 -17.12,-6.11 -24.36,-12.06 -7.21,-5.95 -12.06,-13.36 -14.5,-22.24 -2.45,-8.84 -2.36,-18.93 0.25,-30.24zm26.4 7.55c-2.25,9.76 -1.67,17.77 1.74,24.02 3.45,6.28 8.54,10.18 15.32,11.74 6.76,1.56 13.05,0.28 18.82,-3.88 5.78,-4.12 9.82,-11.14 12.1,-21.03 2.22,-9.63 1.62,-17.58 -1.76,-23.82 -3.38,-6.26 -8.47,-10.16 -15.23,-11.72 -6.79,-1.56 -13.07,-0.28 -18.91,3.86 -5.81,4.12 -9.84,11.07 -12.08,20.83zm110.15 75.02l-26.26 -4.53 17.17 -99.46 24.33 4.2 -2.43 14.12c5.33,-5.95 9.86,-9.68 13.57,-11.18 3.71,-1.49 7.69,-1.86 11.93,-1.13 6.01,1.04 11.5,3.7 16.49,7.95l-12.1 21.52c-3.94,-3.64 -7.81,-5.79 -11.62,-6.44 -3.7,-0.64 -7.01,-0.16 -9.91,1.41 -2.91,1.6 -5.55,4.9 -7.93,9.95 -2.38,5.04 -5.04,16.03 -7.95,32.93l-5.29 30.66zm110.76 -15.1l25.81 7.97c-4.67,9.22 -11.02,15.86 -18.99,19.96 -8,4.06 -17.5,5.37 -28.45,3.9 -17.38,-2.33 -29.5,-9.74 -36.29,-22.23 -5.36,-10.01 -7.13,-21.95 -5.26,-35.86 2.22,-16.57 8.3,-29 18.2,-37.22 9.9,-8.26 21.48,-11.48 34.72,-9.7 14.84,1.99 25.9,8.47 33.19,19.46 7.26,10.98 9.35,26.59 6.25,46.84l-66.11 -8.86c-0.86,7.86 0.44,14.25 3.94,19.16 3.46,4.92 8.24,7.78 14.28,8.59 4.14,0.56 7.76,-0.1 10.86,-1.98 3.13,-1.87 5.73,-5.21 7.85,-10.03zm5.14 -26.58c0.83,-7.7 -0.34,-13.81 -3.57,-18.3 -3.22,-4.52 -7.51,-7.12 -12.91,-7.85 -5.75,-0.77 -10.79,0.72 -15.11,4.42 -4.32,3.7 -6.92,9.21 -7.83,16.44l39.42 5.29zm185.28 20.52l27.07 8.86c-4.46,15.25 -11.64,26.5 -21.5,33.77 -9.85,7.25 -22.23,10.75 -37.17,10.47 -18.5,-0.33 -33.59,-6.93 -45.28,-19.78 -11.66,-12.86 -17.31,-30.24 -16.91,-52.18 0.42,-23.17 6.75,-41.07 18.94,-53.69 12.19,-12.61 28.06,-18.74 47.56,-18.38 17.05,0.31 30.79,5.62 41.24,15.89 6.24,6.08 10.81,14.72 13.78,25.95l-27.92 6.11c-1.52,-7.23 -4.85,-12.99 -9.99,-17.27 -5.17,-4.27 -11.49,-6.46 -18.94,-6.6 -10.34,-0.19 -18.8,3.35 -25.35,10.66 -6.58,7.27 -10.01,19.2 -10.31,35.79 -0.32,17.56 2.62,30.16 8.81,37.73 6.21,7.6 14.37,11.48 24.52,11.66 7.48,0.14 13.97,-2.11 19.44,-6.78 5.47,-4.66 9.49,-12.04 12.01,-22.21zm40.06 1.2c-0.68,-8.85 0.83,-17.58 4.56,-26.19 3.73,-8.64 9.41,-15.41 17.06,-20.39 7.65,-4.97 16.37,-7.85 26.22,-8.61 15.22,-1.16 28.04,2.83 38.53,11.97 10.49,9.18 16.29,21.28 17.45,36.4 1.17,15.25 -2.78,28.27 -11.8,39.04 -9.06,10.76 -21.02,16.72 -35.91,17.86 -9.22,0.71 -18.17,-0.72 -26.86,-4.25 -8.65,-3.53 -15.49,-9.15 -20.47,-16.89 -4.98,-7.72 -7.89,-17.37 -8.78,-28.94zm27.45 -0.67c0.76,9.98 3.71,17.46 8.83,22.4 5.16,4.97 11.18,7.17 18.13,6.64 6.91,-0.53 12.53,-3.63 16.8,-9.32 4.28,-5.66 6.05,-13.56 5.28,-23.68 -0.76,-9.85 -3.7,-17.27 -8.79,-22.21 -5.1,-4.97 -11.12,-7.17 -18.03,-6.64 -6.95,0.53 -12.56,3.63 -16.9,9.32 -4.32,5.66 -6.09,13.5 -5.32,23.49zm190.41 30.81l-26.4 3.58 -6.91 -50.96c-1.47,-10.79 -2.99,-17.69 -4.54,-20.68 -1.59,-3.02 -3.75,-5.22 -6.56,-6.63 -2.81,-1.42 -6.01,-1.87 -9.61,-1.38 -4.62,0.62 -8.59,2.44 -11.91,5.44 -3.36,3 -5.41,6.69 -6.2,10.98 -0.82,4.33 -0.46,12.06 1.06,23.24l6.13 45.22 -26.4 3.58 -13.56 -100.01 24.47 -3.32 1.99 14.68c7.25,-12.4 17.51,-19.48 30.83,-21.29 5.85,-0.79 11.36,-0.46 16.49,0.97 5.17,1.46 9.19,3.63 12.1,6.54 2.95,2.94 5.19,6.39 6.71,10.41 1.56,4 2.84,9.85 3.89,17.55l8.42 62.08zm55.1 -8.36l-57.07 -92.64 27.6 -4.71 27.39 47.57 8.32 16.03c0.7,-4.55 1.15,-7.56 1.26,-8.99 0.42,-2.96 0.86,-5.93 1.41,-8.92l10.31 -54 27.03 -4.61 -22.55 106.22 -23.7 4.05zm125.58 -63.28l26.83 -3.16c-0.54,10.31 -3.66,18.95 -9.29,25.93 -5.67,6.95 -13.82,11.99 -24.43,15.09 -16.83,4.9 -30.91,3.03 -42.18,-5.63 -8.96,-6.98 -15.41,-17.19 -19.34,-30.66 -4.68,-16.05 -4.15,-29.88 1.57,-41.4 5.72,-11.56 15,-19.2 27.82,-22.93 14.38,-4.19 27.12,-2.74 38.23,4.35 11.09,7.1 19.32,20.53 24.68,40.3l-64.03 18.67c2.4,7.53 6.17,12.85 11.36,15.93 5.15,3.09 10.69,3.77 16.53,2.07 4.02,-1.17 7.06,-3.24 9.13,-6.21 2.11,-2.98 3.13,-7.09 3.12,-12.35zm-6.07 -26.39c-2.35,-7.38 -5.9,-12.49 -10.67,-15.29 -4.77,-2.82 -9.75,-3.47 -14.98,-1.94 -5.57,1.62 -9.58,5.02 -12.03,10.15 -2.45,5.14 -2.6,11.23 -0.5,18.21l38.18 -11.13zm87.29 35.69l-25.3 8.36 -31.65 -95.83 23.45 -7.74 4.49 13.6c1.91,-7.77 4.15,-13.18 6.72,-16.25 2.57,-3.07 5.9,-5.26 10,-6.61 5.78,-1.91 11.88,-2.15 18.28,-0.75l-0.55 24.68c-5.19,-1.35 -9.62,-1.43 -13.28,-0.22 -3.57,1.18 -6.26,3.16 -8.08,5.92 -1.81,2.78 -2.59,6.93 -2.32,12.5 0.27,5.58 3.1,16.52 8.48,32.8l9.76 29.54zm27.74 -38.93l23.31 -13.9c3,4.35 6.61,7.11 10.85,8.25 4.23,1.19 9.26,0.57 15.05,-1.79 6.4,-2.6 10.72,-5.73 13.01,-9.39 1.49,-2.53 1.67,-5.19 0.54,-7.95 -0.75,-1.86 -1.99,-3.18 -3.66,-3.93 -1.71,-0.67 -4.92,-0.66 -9.59,0.08 -21.76,3.72 -36.03,4.84 -42.85,3.39 -9.48,-2.06 -16.03,-7.58 -19.69,-16.56 -3.31,-8.13 -2.87,-16.25 1.28,-24.38 4.14,-8.12 12.92,-14.92 26.34,-20.38 12.79,-5.21 23.16,-6.98 31.07,-5.34 7.92,1.68 14.73,6.11 20.41,13.35l-21.47 13.78c-2.48,-3.25 -5.55,-5.29 -9.14,-6.11 -3.59,-0.81 -7.97,-0.15 -13.16,1.97 -6.55,2.66 -10.86,5.47 -12.97,8.46 -1.36,2.06 -1.61,4.12 -0.78,6.16 0.72,1.77 2.14,2.94 4.29,3.5 2.93,0.74 11.58,-0.09 26.01,-2.47 14.43,-2.37 25.14,-2.46 32.13,-0.24 6.98,2.27 12.07,7.37 15.27,15.24 3.48,8.55 2.92,17.39 -1.75,26.47 -4.64,9.06 -13.98,16.46 -28.03,22.18 -12.72,5.18 -23.86,6.71 -33.39,4.61 -9.51,-2.12 -17.21,-7.1 -23.08,-15zm72.15 -122.87l-10.25 -22.47 24.24 -11.06 10.25 22.47 -24.24 11.06zm47.52 104.21l-41.88 -91.83 24.24 -11.05 41.88 91.82 -24.24 11.06zm20.75 -67.08c-4.05,-7.91 -6.03,-16.54 -5.92,-25.92 0.1,-9.41 2.72,-17.85 7.85,-25.4 5.13,-7.54 12.06,-13.57 20.86,-18.07 13.58,-6.96 26.95,-8.24 40.15,-3.86 13.22,4.4 23.25,13.32 30.17,26.82 6.97,13.61 8.37,27.14 4.21,40.56 -4.19,13.43 -12.92,23.55 -26.21,30.36 -8.22,4.21 -17.03,6.36 -26.41,6.46 -9.34,0.1 -17.82,-2.44 -25.41,-7.66 -7.57,-5.19 -14,-12.97 -19.29,-23.29zm25.06 -11.24c4.56,8.92 10.17,14.68 16.8,17.25 6.68,2.58 13.09,2.29 19.29,-0.89 6.17,-3.16 10.15,-8.19 11.89,-15.09 1.76,-6.87 0.34,-14.84 -4.29,-23.87 -4.51,-8.8 -10.08,-14.5 -16.69,-17.09 -6.62,-2.61 -13.03,-2.32 -19.2,0.85 -6.2,3.17 -10.18,8.2 -11.98,15.13 -1.79,6.89 -0.39,14.8 4.18,23.71zm184.97 -48.15l-22.21 14.7 -28.39 -42.89c-6.01,-9.08 -10.38,-14.62 -13.08,-16.64 -2.74,-2.04 -5.64,-3.07 -8.79,-3.13 -3.14,-0.05 -6.22,0.94 -9.25,2.94 -3.89,2.58 -6.68,5.94 -8.36,10.08 -1.72,4.17 -1.96,8.37 -0.81,12.59 1.14,4.25 4.83,11.06 11.06,20.47l25.19 38.05 -22.22 14.7 -55.7 -84.16 20.59 -13.63 8.18 12.35c1.13,-14.31 7.29,-25.15 18.5,-32.57 4.92,-3.26 10.03,-5.36 15.27,-6.3 5.29,-0.94 9.85,-0.73 13.74,0.62 3.94,1.36 7.45,3.5 10.57,6.45 3.14,2.93 6.84,7.64 11.13,14.13l34.58 52.24z"/>
   <rect fill="#B47BFF" stroke="#FEFEFE" stroke-width="20.35" stroke-miterlimit="2.61313" transform="matrix(1.25343 0.227851 -0.227851 1.25343 272.732 1464.49)" width="78.49" height="96.04" rx="10.99" ry="10.99"/>
   <rect fill="#B47BFF" stroke="#FEFEFE" stroke-width="20.35" stroke-miterlimit="2.61313" transform="matrix(1.25343 0.227851 -0.227851 1.25343 179.392 1646.51)" width="78.49" height="96.04" rx="10.99" ry="10.99"/>
   <rect fill="#B47BFF" stroke="#FEFEFE" stroke-width="20.35" stroke-miterlimit="2.61313" transform="matrix(1.25343 0.227851 -0.227851 1.25343 333.403 1660.51)" width="78.49" height="96.04" rx="10.99" ry="10.99"/>
   <polygon fill="#7E71B1" fill-rule="nonzero" points="1228.38,1781.19 1228.38,1599.04 1363.21,1599.04 1363.21,1629.83 1265.27,1629.83 1265.27,1670.28 1356.34,1670.28 1356.34,1701.06 1265.27,1701.06 1265.27,1750.41 1366.77,1750.41 1366.77,1781.19 "/>
   <path id="_1_0" fill="#7E71B1" fill-rule="nonzero" d="M1512.8 1688.34l-34.34 6.1c-1.15,-6.82 -3.78,-11.95 -7.89,-15.43 -4.11,-3.43 -9.41,-5.17 -15.94,-5.17 -8.69,0 -15.65,3.01 -20.82,9.03 -5.17,6.02 -7.76,16.07 -7.76,30.19 0,15.68 2.63,26.75 7.89,33.24 5.25,6.49 12.29,9.71 21.11,9.71 6.62,0 12.04,-1.91 16.24,-5.68 4.24,-3.78 7.21,-10.26 8.95,-19.51l34.34 5.85c-3.56,15.78 -10.39,27.69 -20.48,35.75 -10.09,8.05 -23.62,12.08 -40.62,12.08 -19.25,0 -34.64,-6.1 -46.09,-18.27 -11.49,-12.21 -17.21,-29.09 -17.21,-50.67 0,-21.84 5.76,-38.8 17.26,-50.97 11.49,-12.16 27.05,-18.23 46.68,-18.23 16.02,0 28.79,3.48 38.28,10.39 9.46,6.91 16.24,17.43 20.4,31.59z"/>
   <path id="_2_1" fill="#7E71B1" fill-rule="nonzero" d="M1531.16 1713.57c0,-11.62 2.84,-22.86 8.56,-33.71 5.73,-10.9 13.83,-19.17 24.3,-24.89 10.47,-5.72 22.13,-8.61 35.06,-8.61 19.97,0 36.3,6.49 49.06,19.46 12.76,13.02 19.12,29.39 19.12,49.23 0,20.01 -6.44,36.59 -19.29,49.74 -12.89,13.14 -29.09,19.71 -48.63,19.71 -12.09,0 -23.62,-2.75 -34.6,-8.22 -10.94,-5.47 -19.29,-13.49 -25.02,-24.09 -5.72,-10.55 -8.56,-23.45 -8.56,-38.62zm35.87 1.86c0,13.1 3.09,23.15 9.29,30.11 6.23,6.99 13.86,10.47 22.98,10.47 9.07,0 16.7,-3.48 22.85,-10.47 6.15,-6.96 9.24,-17.09 9.24,-30.36 0,-12.93 -3.09,-22.9 -9.24,-29.85 -6.15,-7 -13.78,-10.48 -22.85,-10.48 -9.12,0 -16.75,3.48 -22.98,10.48 -6.2,6.95 -9.29,17 -9.29,30.1z"/>
   <path id="_3_2" fill="#7E71B1" fill-rule="nonzero" d="M1682.23 1744.05l35.11 -5.34c1.48,6.74 4.49,11.87 9.07,15.35 4.54,3.52 10.94,5.26 19.12,5.26 9.03,0 15.82,-1.66 20.4,-4.97 3.05,-2.33 4.58,-5.46 4.58,-9.37 0,-2.62 -0.85,-4.83 -2.51,-6.57 -1.73,-1.65 -5.63,-3.22 -11.65,-4.62 -28.2,-6.23 -46.05,-11.91 -53.6,-17.04 -10.47,-7.17 -15.69,-17.09 -15.69,-29.77 0,-11.49 4.54,-21.11 13.57,-28.92 9.03,-7.8 23.02,-11.7 41.98,-11.7 18.06,0 31.5,2.97 40.28,8.86 8.77,5.94 14.84,14.67 18.15,26.25l-32.82 6.11c-1.4,-5.18 -4.12,-9.16 -8.06,-11.92 -3.94,-2.76 -9.58,-4.11 -16.92,-4.11 -9.24,0 -15.85,1.27 -19.88,3.86 -2.67,1.82 -3.99,4.19 -3.99,7.08 0,2.5 1.15,4.62 3.48,6.36 3.18,2.33 14.08,5.59 32.73,9.83 18.66,4.24 31.67,9.42 39.05,15.56 7.34,6.19 10.98,14.89 10.98,26 0,12.08 -5.04,22.51 -15.18,31.2 -10.09,8.69 -25.05,13.06 -44.9,13.06 -17.97,0 -32.22,-3.64 -42.74,-10.9 -10.47,-7.25 -17.34,-17.08 -20.56,-29.55z"/>
   <path id="_4_3" fill="#7E71B1" fill-rule="nonzero" d="M1819.39 1649.16l37.15 0 31.67 93.66 30.91 -93.66 36.12 0 -46.55 127.07 -8.4 22.94c-3.09,7.68 -6.02,13.53 -8.82,17.6 -2.75,4.03 -5.97,7.33 -9.58,9.83 -3.6,2.55 -8.05,4.5 -13.35,5.9 -5.26,1.4 -11.24,2.12 -17.9,2.12 -6.7,0 -13.31,-0.72 -19.8,-2.12l-3.05 -27.22c5.47,1.06 10.43,1.61 14.84,1.61 8.14,0 14.16,-2.38 18.06,-7.17 3.9,-4.79 6.91,-10.89 8.99,-18.27l-50.29 -132.29z"/>
   <path id="_5_4" fill="#7E71B1" fill-rule="nonzero" d="M1965.21 1744.05l35.11 -5.34c1.48,6.74 4.49,11.87 9.07,15.35 4.54,3.52 10.94,5.26 19.12,5.26 9.03,0 15.82,-1.66 20.4,-4.97 3.05,-2.33 4.58,-5.46 4.58,-9.37 0,-2.62 -0.85,-4.83 -2.51,-6.57 -1.73,-1.65 -5.64,-3.22 -11.66,-4.62 -28.19,-6.23 -46.04,-11.91 -53.59,-17.04 -10.47,-7.17 -15.69,-17.09 -15.69,-29.77 0,-11.49 4.54,-21.11 13.57,-28.92 9.03,-7.8 23.02,-11.7 41.98,-11.7 18.06,0 31.5,2.97 40.28,8.86 8.77,5.94 14.84,14.67 18.14,26.25l-32.82 6.11c-1.39,-5.18 -4.11,-9.16 -8.05,-11.92 -3.94,-2.76 -9.58,-4.11 -16.92,-4.11 -9.24,0 -15.86,1.27 -19.88,3.86 -2.67,1.82 -3.99,4.19 -3.99,7.08 0,2.5 1.14,4.62 3.48,6.36 3.18,2.33 14.07,5.59 32.73,9.83 18.66,4.24 31.67,9.42 39.05,15.56 7.34,6.19 10.98,14.89 10.98,26 0,12.08 -5.04,22.51 -15.18,31.2 -10.09,8.69 -25.05,13.06 -44.9,13.06 -17.98,0 -32.22,-3.64 -42.74,-10.9 -10.47,-7.25 -17.34,-17.08 -20.56,-29.55z"/>
   <path id="_6_5" fill="#7E71B1" fill-rule="nonzero" d="M2179.46 1649.16l0 27.73 -23.92 0 0 53.47c0,10.85 0.21,17.17 0.68,18.95 0.47,1.78 1.48,3.26 3.14,4.45 1.61,1.15 3.56,1.74 5.89,1.74 3.27,0 7.93,-1.1 14.08,-3.35l2.92 27.14c-8.09,3.47 -17.25,5.21 -27.51,5.21 -6.28,0 -11.92,-1.06 -16.96,-3.18 -5.05,-2.12 -8.74,-4.88 -11.07,-8.22 -2.37,-3.4 -3.99,-7.93 -4.92,-13.7 -0.72,-4.07 -1.1,-12.3 -1.1,-24.72l0 -57.79 -16.03 0 0 -27.73 16.03 0 0 -26.2 34.85 -20.61 0 46.81 23.92 0z"/>
   <path id="_7_6" fill="#7E71B1" fill-rule="nonzero" d="M2280.2 1739.47l34.85 5.85c-4.45,12.77 -11.53,22.48 -21.16,29.17 -9.66,6.66 -21.75,10.01 -36.21,10.01 -22.93,0 -39.94,-7.5 -50.92,-22.51 -8.69,-12.04 -13.06,-27.22 -13.06,-45.58 0,-21.88 5.73,-39.05 17.13,-51.43 11.41,-12.43 25.87,-18.62 43.34,-18.62 19.58,0 35.06,6.49 46.42,19.46 11.32,12.98 16.75,32.86 16.24,59.66l-87.26 0c0.26,10.35 3.06,18.4 8.44,24.17 5.34,5.77 12.04,8.65 20.01,8.65 5.47,0 10.05,-1.49 13.74,-4.45 3.73,-2.97 6.53,-7.76 8.44,-14.38zm2.03 -35.36c-0.25,-10.13 -2.84,-17.85 -7.8,-23.11 -4.96,-5.3 -10.98,-7.93 -18.1,-7.93 -7.59,0 -13.87,2.8 -18.83,8.36 -4.96,5.55 -7.38,13.14 -7.29,22.68l52.02 0z"/>
   <path id="_8" fill="#7E71B1" fill-rule="nonzero" d="M2342.82 1649.16l32.06 0 0 18.02c11.49,-13.86 25.18,-20.82 41.08,-20.82 8.44,0 15.78,1.74 21.97,5.22 6.23,3.47 11.32,8.73 15.26,15.77 5.81,-7.04 12.09,-12.3 18.78,-15.77 6.7,-3.48 13.87,-5.22 21.5,-5.22 9.67,0 17.85,1.95 24.59,5.9 6.7,3.94 11.71,9.7 15.01,17.34 2.42,5.59 3.61,14.71 3.61,27.3l0 84.29 -34.86 0 0 -75.34c0,-13.1 -1.18,-21.54 -3.6,-25.31 -3.22,-4.96 -8.23,-7.47 -14.93,-7.47 -4.87,0 -9.49,1.49 -13.82,4.46 -4.28,3.01 -7.42,7.37 -9.32,13.1 -1.91,5.76 -2.85,14.84 -2.85,27.26l0 63.3 -34.85 0 0 -72.24c0,-12.81 -0.63,-21.12 -1.86,-24.81 -1.23,-3.73 -3.14,-6.53 -5.77,-8.35 -2.59,-1.83 -6.15,-2.72 -10.6,-2.72 -5.39,0 -10.22,1.45 -14.5,4.33 -4.33,2.92 -7.38,7.08 -9.24,12.55 -1.87,5.47 -2.8,14.54 -2.8,27.18l0 64.06 -34.86 0 0 -132.03z"/>
   <path id="_9" fill="#7E71B1" fill-rule="nonzero" d="M1193.55 1998.49l0 -30.78 79.12 0 0 72.68c-7.67,7.5 -18.83,14.07 -33.45,19.8 -14.59,5.68 -29.39,8.52 -44.4,8.52 -19.03,0 -35.61,-3.99 -49.77,-12 -14.12,-8.01 -24.77,-19.51 -31.89,-34.39 -7.12,-14.88 -10.68,-31.12 -10.68,-48.63 0,-19 3.98,-35.87 11.91,-50.67 7.97,-14.75 19.59,-26.12 34.9,-34 11.7,-6.07 26.2,-9.08 43.58,-9.08 22.6,0 40.28,4.75 53,14.25 12.68,9.54 20.86,22.64 24.51,39.43l-36.63 6.87c-2.55,-8.95 -7.38,-16.03 -14.46,-21.24 -7.04,-5.17 -15.86,-7.76 -26.46,-7.76 -16.03,0 -28.79,5.09 -38.24,15.31 -9.46,10.21 -14.21,25.35 -14.21,45.41 0,21.66 4.79,37.9 14.38,48.71 9.62,10.82 22.17,16.24 37.73,16.24 7.68,0 15.39,-1.52 23.11,-4.53 7.76,-3.01 14.37,-6.7 19.93,-11.03l0 -23.11 -41.98 0z"/>
   <path id="_10" fill="#7E71B1" fill-rule="nonzero" d="M1339.79 2065.4l-34.85 0 0 -132.03 32.3 0 0 18.74c5.56,-8.86 10.56,-14.67 15.01,-17.43 4.46,-2.75 9.5,-4.11 15.14,-4.11 7.97,0 15.65,2.2 23.02,6.57l-10.81 30.44c-5.89,-3.81 -11.36,-5.72 -16.41,-5.72 -4.91,0 -9.07,1.36 -12.46,4.03 -3.39,2.71 -6.07,7.55 -8.02,14.58 -1.95,7.04 -2.92,21.8 -2.92,44.23l0 40.7z"/>
   <path id="_11" fill="#7E71B1" fill-rule="nonzero" d="M1397.33 1997.77c0,-11.61 2.84,-22.85 8.56,-33.71 5.72,-10.89 13.82,-19.16 24.3,-24.88 10.47,-5.73 22.13,-8.61 35.06,-8.61 19.97,0 36.29,6.49 49.06,19.46 12.76,13.02 19.12,29.38 19.12,49.23 0,20.01 -6.45,36.59 -19.29,49.73 -12.89,13.15 -29.09,19.72 -48.63,19.72 -12.09,0 -23.62,-2.76 -34.6,-8.23 -10.94,-5.47 -19.3,-13.48 -25.02,-24.08 -5.72,-10.56 -8.56,-23.45 -8.56,-38.63zm35.87 1.87c0,13.1 3.09,23.15 9.28,30.1 6.23,7 13.87,10.47 22.98,10.47 9.08,0 16.71,-3.47 22.86,-10.47 6.14,-6.95 9.24,-17.08 9.24,-30.36 0,-12.93 -3.1,-22.89 -9.24,-29.84 -6.15,-7 -13.78,-10.48 -22.86,-10.48 -9.11,0 -16.75,3.48 -22.98,10.48 -6.19,6.95 -9.28,17 -9.28,30.1z"/>
   <polygon id="_12" fill="#7E71B1" fill-rule="nonzero" points="1585.28,2065.4 1543.56,1933.37 1577.48,1933.37 1602.2,2019.91 1624.97,1933.37 1658.64,1933.37 1680.56,2019.91 1705.79,1933.37 1740.21,1933.37 1697.81,2065.4 1664.32,2065.4 1641.63,1980.47 1619.25,2065.4 "/>
   <path id="_13" fill="#7E71B1" fill-rule="nonzero" d="M1819.03 1933.37l0 27.73 -23.91 0 0 53.46c0,10.86 0.21,17.18 0.68,18.96 0.47,1.78 1.48,3.26 3.14,4.45 1.61,1.14 3.56,1.74 5.89,1.74 3.27,0 7.93,-1.11 14.08,-3.35l2.92 27.13c-8.1,3.48 -17.25,5.22 -27.51,5.22 -6.28,0 -11.92,-1.06 -16.96,-3.18 -5.05,-2.12 -8.74,-4.88 -11.07,-8.23 -2.37,-3.39 -3.99,-7.93 -4.92,-13.69 -0.72,-4.07 -1.1,-12.3 -1.1,-24.72l0 -57.79 -16.03 0 0 -27.73 16.03 0 0 -26.21 34.85 -20.6 0 46.81 23.91 0z"/>
   <path id="_14" fill="#7E71B1" fill-rule="nonzero" d="M1877.8 1883.25l0 67.5c11.32,-13.44 24.89,-20.18 40.62,-20.18 8.1,0 15.39,1.48 21.88,4.45 6.49,3.01 11.36,6.78 14.67,11.45 3.31,4.62 5.55,9.75 6.74,15.39 1.23,5.64 1.83,14.37 1.83,26.2l0 77.34 -34.86 0 0 -69.62c0,-13.82 -0.68,-22.6 -1.99,-26.33 -1.36,-3.73 -3.73,-6.7 -7.12,-8.86 -3.4,-2.21 -7.64,-3.31 -12.77,-3.31 -5.85,0 -11.06,1.4 -15.68,4.24 -4.63,2.8 -7.97,7.04 -10.1,12.72 -2.16,5.64 -3.22,14.04 -3.22,25.1l0 66.06 -34.85 0 0 -182.15 34.85 0z"/>
   <polygon id="_15" fill="#7E71B1" fill-rule="nonzero" points="2070.81,2065.4 2070.81,1884.78 2107.69,1884.78 2107.69,2034.62 2199.02,2034.62 2199.02,2065.4 "/>
   <path id="_16" fill="#7E71B1" fill-rule="nonzero" d="M2216.79 1997.77c0,-11.61 2.84,-22.85 8.56,-33.71 5.73,-10.89 13.83,-19.16 24.3,-24.88 10.47,-5.73 22.13,-8.61 35.06,-8.61 19.97,0 36.3,6.49 49.06,19.46 12.76,13.02 19.12,29.38 19.12,49.23 0,20.01 -6.44,36.59 -19.29,49.73 -12.89,13.15 -29.09,19.72 -48.63,19.72 -12.09,0 -23.62,-2.76 -34.6,-8.23 -10.94,-5.47 -19.29,-13.48 -25.02,-24.08 -5.72,-10.56 -8.56,-23.45 -8.56,-38.63zm35.87 1.87c0,13.1 3.09,23.15 9.29,30.1 6.23,7 13.86,10.47 22.98,10.47 9.07,0 16.7,-3.47 22.85,-10.47 6.15,-6.95 9.24,-17.08 9.24,-30.36 0,-12.93 -3.09,-22.89 -9.24,-29.84 -6.15,-7 -13.78,-10.48 -22.85,-10.48 -9.12,0 -16.75,3.48 -22.98,10.48 -6.2,6.95 -9.29,17 -9.29,30.1z"/>
   <path id="_17" fill="#7E71B1" fill-rule="nonzero" d="M2372.19 1997.77c0,-11.61 2.84,-22.85 8.56,-33.71 5.72,-10.89 13.82,-19.16 24.29,-24.88 10.48,-5.73 22.14,-8.61 35.07,-8.61 19.97,0 36.29,6.49 49.06,19.46 12.76,13.02 19.12,29.38 19.12,49.23 0,20.01 -6.45,36.59 -19.29,49.73 -12.89,13.15 -29.09,19.72 -48.64,19.72 -12.08,0 -23.61,-2.76 -34.59,-8.23 -10.94,-5.47 -19.3,-13.48 -25.02,-24.08 -5.72,-10.56 -8.56,-23.45 -8.56,-38.63zm35.86 1.87c0,13.1 3.1,23.15 9.29,30.1 6.23,7 13.87,10.47 22.98,10.47 9.08,0 16.71,-3.47 22.86,-10.47 6.14,-6.95 9.24,-17.08 9.24,-30.36 0,-12.93 -3.1,-22.89 -9.24,-29.84 -6.15,-7 -13.78,-10.48 -22.86,-10.48 -9.11,0 -16.75,3.48 -22.98,10.48 -6.19,6.95 -9.29,17 -9.29,30.1z"/>
   <path id="_18" fill="#7E71B1" fill-rule="nonzero" d="M2534.7 1933.37l32.57 0 0 19.37c4.24,-6.61 9.92,-11.95 17.13,-16.07 7.2,-4.07 15.22,-6.1 23.99,-6.1 15.31,0 28.33,6.02 39.01,18.06 10.69,12 16.03,28.79 16.03,50.25 0,22.09 -5.38,39.22 -16.15,51.47 -10.77,12.25 -23.83,18.36 -39.18,18.36 -7.29,0 -13.91,-1.44 -19.85,-4.37 -5.89,-2.88 -12.16,-7.84 -18.69,-14.88l0 66.06 -34.86 0 0 -182.15zm34.35 63.98c0,14.88 2.92,25.86 8.82,32.99 5.85,7.08 13.01,10.64 21.41,10.64 8.1,0 14.84,-3.27 20.22,-9.8 5.39,-6.53 8.06,-17.21 8.06,-32.09 0,-13.91 -2.76,-24.21 -8.31,-30.95 -5.51,-6.75 -12.38,-10.1 -20.57,-10.1 -8.52,0 -15.6,3.31 -21.19,9.93 -5.64,6.61 -8.44,16.4 -8.44,29.38z"/>
  </g>
 </g>
</svg>
