<?xml version="1.0" encoding="UTF-8"?>
<!DOCTYPE svg PUBLIC "-//W3C//DTD SVG 1.1//EN" "http://www.w3.org/Graphics/SVG/1.1/DTD/svg11.dtd">
<!-- Creator: CorelDRAW -->
<svg xmlns="http://www.w3.org/2000/svg" xml:space="preserve" width="2644px" height="1433px" version="1.1" shape-rendering="geometricPrecision" text-rendering="geometricPrecision" image-rendering="optimizeQuality" fill-rule="evenodd" clip-rule="evenodd"
viewBox="0 0 2552.49 1383.16"
 xmlns:xlink="http://www.w3.org/1999/xlink"
 xmlns:xodm="http://www.corel.com/coreldraw/odm/2003">
 <g id="Layer_x0020_1">
  <metadata id="CorelCorpID_0Corel-Layer"/>
  <g id="_3087872174400">
   <g>
    <path fill="#7D95FF" fill-rule="nonzero" d="M1158.28 571.63l-6.84 9.94 0 0 -23.33 -15.39 -23.78 -14.42 -24.2 -13.48 -24.6 -12.61 -24.98 -11.78 -25.35 -10.99 -25.69 -10.26 -26 -9.57 -26.31 -8.94 -26.58 -8.34 -26.84 -7.79 -27.07 -7.3 -27.28 -6.85 -27.48 -6.45 -27.65 -6.1 -27.79 -5.79 -27.92 -5.54 -28.03 -5.32 -28.1 -5.17 -28.17 -5.06 -28.21 -4.99 -28.23 -4.98 -28.22 -5.02 -28.2 -5.09 -28.15 -5.23 -28.08 -5.41 -28 -5.64 -27.88 -5.91 -27.74 -6.24 -27.6 -6.62 -27.41 -7.05 -27.22 -7.51 3.33 -11.6 26.99 7.45 27.22 6.99 27.42 6.58 27.59 6.21 27.75 5.88 27.88 5.62 27.99 5.39 28.09 5.22 28.15 5.08 28.19 5.01 28.23 4.98 28.23 5 28.21 5.06 28.16 5.18 28.11 5.35 28.03 5.55 27.92 5.82 27.79 6.13 27.65 6.49 27.47 6.9 27.29 7.36 27.07 7.86 26.84 8.42 26.58 9.03 26.31 9.68 26 10.38 25.68 11.15 25.34 11.94 24.96 12.79 24.58 13.7 24.16 14.65 23.72 15.65 0 0zm1008.55 403.96l-2.32 11.85 -56.66 -10.94 -52.36 -9.85 -48.35 -8.88 -44.59 -8.02 -41.11 -7.3 -37.9 -6.68 -34.95 -6.2 -32.28 -5.82 -29.88 -5.58 -27.74 -5.46 -25.88 -5.45 -24.29 -5.56 -22.97 -5.81 -21.9 -6.17 -21.1 -6.65 -20.57 -7.25 -20.28 -7.98 -20.26 -8.81 -20.51 -9.76 -21 -10.84 -21.77 -12.02 -22.79 -13.33 -24.1 -14.75 -25.67 -16.29 -27.5 -17.96 -29.61 -19.75 -31.99 -21.65 -34.64 -23.67 -37.56 -25.83 -40.74 -28.11 -44.2 -30.49 -47.92 -33.01 6.84 -9.94 47.93 33.01 44.2 30.5 40.74 28.1 37.53 25.81 34.6 23.66 31.94 21.61 29.53 19.69 27.39 17.88 25.52 16.2 23.91 14.64 22.56 13.19 21.49 11.87 20.68 10.67 20.14 9.59 19.87 8.64 19.89 7.82 20.17 7.11 20.73 6.54 21.57 6.07 22.67 5.73 24.05 5.52 25.7 5.41 27.61 5.42 29.79 5.56 32.22 5.82 34.93 6.19 37.9 6.69 41.13 7.29 44.63 8.04 48.39 8.88 52.42 9.86 56.72 10.95zm0.02 -25.99l50.23 41.98 -62.35 19.94 12.12 -61.92z"/>
   </g>
   <g>
    <path fill="#7D95FF" fill-rule="nonzero" d="M1733.95 400.64l-0.19 12.06 -26.4 -0.29 -24.26 -0.06 -22.25 0.11 -20.38 0.26 -18.62 0.34 -17.02 0.39 -15.54 0.39 -14.2 0.35 -12.98 0.25 -11.93 0.13 -10.98 -0.06 -10.2 -0.28 -9.53 -0.56 -9 -0.89 -8.59 -1.26 -8.31 -1.7 -8.12 -2.16 -8.06 -2.68 -8.09 -3.24 -8.25 -3.81 -8.54 -4.44 -8.95 -5.09 -9.49 -5.8 -10.18 -6.54 -10.99 -7.33 -11.96 -8.17 -13.04 -9.05 -14.26 -9.99 -15.63 -10.97 -17.12 -12 -18.74 -13.08 -20.5 -14.19 6.86 -9.94 20.53 14.22 18.77 13.09 17.13 12.01 15.63 10.97 14.24 9.98 12.98 9.01 11.86 8.11 10.86 7.24 9.97 6.41 9.22 5.63 8.59 4.89 8.08 4.2 7.71 3.56 7.46 2.98 7.37 2.45 7.42 1.98 7.63 1.56 7.97 1.17 8.48 0.84 9.11 0.53 9.87 0.28 10.76 0.05 11.77 -0.12 12.91 -0.26 14.16 -0.35 15.55 -0.39 17.06 -0.39 18.69 -0.34 20.45 -0.25 22.34 -0.12 24.36 0.07 26.51 0.29zm-4.59 -25.59l56.87 32.42 -57.83 30.67 0.96 -63.09z"/>
   </g>
   <path fill="none" stroke="#7D95FF" stroke-width="12.07" stroke-miterlimit="2.61313" d="M1367.81 192.31c27.13,1.8 50.56,-0.4 108.48,-3.44 199.63,-10.49 198.77,36.32 333.6,165.35"/>
   <g>
    <path fill="#7D95FF" fill-rule="nonzero" d="M1311.55 686.52l-7.62 -9.36 0 0 8.1 -6.38 8.47 -6.29 8.86 -6.21 9.25 -6.14 9.66 -6.09 10.06 -6.04 10.47 -6.01 10.9 -5.99 11.33 -5.98 11.76 -6 12.21 -6 12.67 -6.04 13.12 -6.08 13.6 -6.13 14.07 -6.2 14.55 -6.28 15.05 -6.37 15.55 -6.47 16.06 -6.58 16.57 -6.7 17.1 -6.85 17.63 -6.99 18.17 -7.15 18.71 -7.32 19.27 -7.51 19.83 -7.7 20.41 -7.9 20.98 -8.13 21.56 -8.36 22.16 -8.6 22.76 -8.85 23.37 -9.11 4.39 11.24 -23.38 9.12 -22.77 8.85 -22.16 8.61 -21.57 8.35 -20.98 8.13 -20.4 7.9 -19.82 7.7 -19.26 7.5 -18.69 7.32 -18.15 7.14 -17.59 6.98 -17.06 6.82 -16.53 6.69 -16 6.56 -15.49 6.44 -14.98 6.34 -14.47 6.24 -13.98 6.16 -13.49 6.09 -13.01 6.02 -12.54 5.98 -12.07 5.94 -11.61 5.91 -11.16 5.89 -10.71 5.9 -10.27 5.89 -9.85 5.91 -9.42 5.94 -9.01 5.98 -8.6 6.03 -8.2 6.08 -7.81 6.16 0 0zm-506.33 379.86l-5.65 -10.66 33.16 -17.74 31.01 -16.97 28.94 -16.24 26.98 -15.54 25.14 -14.89 23.38 -14.27 21.74 -13.68 20.19 -13.15 18.76 -12.65 17.42 -12.18 16.19 -11.76 15.06 -11.37 14.05 -11.02 13.13 -10.72 12.32 -10.46 11.61 -10.23 11.02 -10.04 10.52 -9.9 10.13 -9.8 9.85 -9.74 9.67 -9.72 9.6 -9.74 9.63 -9.79 9.75 -9.9 10 -10.02 10.33 -10.2 10.77 -10.41 11.31 -10.65 11.96 -10.93 12.7 -11.25 13.55 -11.61 14.49 -11.99 7.62 9.36 -14.34 11.87 -13.4 11.47 -12.55 11.12 -11.82 10.81 -11.19 10.54 -10.67 10.3 -10.25 10.12 -9.94 9.97 -9.72 9.86 -9.63 9.8 -9.62 9.76 -9.73 9.78 -9.93 9.82 -10.24 9.9 -10.65 10.02 -11.16 10.18 -11.78 10.37 -12.49 10.6 -13.31 10.87 -14.23 11.17 -15.24 11.51 -16.37 11.88 -17.59 12.3 -18.93 12.76 -20.35 13.25 -21.88 13.78 -23.53 14.36 -25.26 14.96 -27.11 15.61 -29.05 16.3 -31.11 17.03 -33.26 17.79zm16.32 20.23l-65.45 -1.06 35.94 -54.71 29.51 55.77z"/>
   </g>
   <g>
    <path fill="#7D95FF" fill-rule="nonzero" d="M1475.17 820.11l-5.24 -10.87 0 0 8.71 -4.42 9.31 -5.12 9.84 -5.78 10.33 -6.4 10.78 -6.98 11.17 -7.53 11.52 -8.01 11.83 -8.48 12.1 -8.9 12.32 -9.27 12.5 -9.6 12.64 -9.91 12.73 -10.16 12.79 -10.38 12.8 -10.55 12.77 -10.69 12.7 -10.79 12.58 -10.85 12.42 -10.86 12.23 -10.84 11.99 -10.78 11.71 -10.67 11.38 -10.53 11.02 -10.35 10.6 -10.13 10.16 -9.86 9.66 -9.56 9.14 -9.21 8.55 -8.83 7.93 -8.4 7.26 -7.93 6.56 -7.42 9.13 7.9 -6.72 7.6 -7.4 8.07 -8.04 8.52 -8.66 8.94 -9.22 9.3 -9.74 9.64 -10.24 9.94 -10.68 10.19 -11.08 10.42 -11.45 10.59 -11.77 10.73 -12.05 10.83 -12.29 10.9 -12.49 10.92 -12.65 10.9 -12.76 10.84 -12.84 10.75 -12.87 10.61 -12.86 10.44 -12.82 10.23 -12.72 9.97 -12.6 9.68 -12.42 9.35 -12.21 8.98 -11.96 8.56 -11.66 8.12 -11.34 7.63 -10.96 7.11 -10.56 6.54 -10.11 5.94 -9.63 5.3 -9.12 4.62 0 0zm-643.53 296.83l638.29 -307.7 5.24 10.87 -638.29 307.71 -5.24 -10.88zm20.8 31.7l-65.37 -3.51 37.97 -53.33 27.4 56.84z"/>
   </g>
   <line fill="none" stroke="#7D95FF" stroke-width="12.07" stroke-miterlimit="2.61313" x1="2327.06" y1="844.72" x2="2079.23" y2= "526.25" />
   <ellipse fill="#303791" stroke="#857DFF" stroke-width="32.19" stroke-miterlimit="2.61313" cx="1952.62" cy="430.04" rx="152.17" ry="147.45"/>
   <rect fill="#8AA2FD" stroke="#8AA2FD" stroke-width="2.01" stroke-miterlimit="2.61313" x="382.89" y="1057.22" width="16.84" height="30.12"/>
   <path fill="none" stroke="#8AA2FD" stroke-width="16.09" stroke-miterlimit="2.61313" d="M435.68 971.56c-18.58,23.53 -36.04,54.98 -63.01,68.07l-72.92 35.4"/>
   <path fill="black" d="M2344.84 984.89l2.52 6.87 25.69 29.15c3.14,3.14 8.46,6.94 9.87,10.81 4,-1.43 -0.1,0.06 2.79,-1.34 0.77,-0.38 1.94,-0.9 2.74,-1.4 1.56,-0.97 2.91,-2.4 4.38,-3.89 3.08,-3.13 5.19,-5.24 8.25,-8.3l17.74 -19.52c3.72,-7.64 4.92,-5.9 5.49,-10.02 2.15,-15.73 -2.03,-16.55 -7.15,-21.84 -1.22,-1.27 -0.82,-1.13 -2.03,-2.1 -6.29,-5.07 -5.24,1.29 -7.39,-4.01l-5.55 1.68c-0.28,0.14 -1.06,0.58 -1.34,0.73l-1.36 0.71c-8.55,4.38 -5.96,6.18 -14.51,9.3 -0.91,-2.27 0.11,-1.07 -4.1,-3.14 -10.14,-4.99 -3.3,-4.21 -9.74,-6.81 -9.03,-3.64 -8.44,-2.36 -12.53,-0.94 -0.26,0.09 -0.53,0.17 -0.79,0.26l-6.52 3.85c-4.78,4.88 -4.3,6.28 -6.46,12.23 -0.12,0.32 -0.53,1.2 -0.63,1.52 -0.65,2.13 -0.95,0.92 -0.27,3.92 0.78,3.39 -0.09,-0.45 0.9,2.28z"/>
   <path fill="black" d="M587.27 1219.62c3.13,-0.07 4,-0.88 6.9,-2.4l8.29 -4.13c3.14,-1.86 2,-2.12 6.84,-4.54l18.65 -10.32c0.85,-0.54 0.8,-0.6 1.76,-1.34l6.51 -3.83c0.22,-0.11 0.48,-0.24 0.7,-0.35 0.28,-0.14 1.1,-0.54 1.38,-0.68l3.49 -1.69c1.41,-0.82 0.48,-0.23 1.85,-1.25l9.13 -5.36c0.47,-0.3 1.38,-1.11 2.32,-1.82l6.66 -3.68c-0.09,-4.26 -1.25,-4.97 -5.48,-6.92 -7.69,-3.54 -3.84,-2.77 -8.96,-5.52 -0.28,-0.15 -1.12,-0.53 -1.4,-0.67 -0.22,-0.11 -0.49,-0.23 -0.71,-0.33l-7.57 -4.84c-0.14,-0.08 -1.99,-1 -2.07,-1.04l-4.71 -2.54c-0.11,-0.07 -2.2,-1.76 -2.3,-1.83l-1.26 -0.81c-0.2,-0.11 -0.47,-0.25 -0.68,-0.36l-29.68 -17.91c-4.71,-2.39 -4.11,-2.74 -9.66,-2.74l0 86.9z"/>
   <path fill="#FDFDFD" d="M2384.98 971.72c8.55,-3.12 5.96,-4.92 14.51,-9.3l1.36 -0.71c0.28,-0.15 1.06,-0.59 1.34,-0.73l5.55 -1.68c2.15,5.3 1.1,-1.06 7.39,4.01 1.21,0.97 0.81,0.83 2.03,2.1 5.12,5.29 9.3,6.11 7.15,21.84 -0.57,4.12 -1.77,2.38 -5.49,10.02l-17.74 19.52c-3.06,3.06 -5.17,5.17 -8.25,8.3 -1.47,1.49 -2.82,2.92 -4.38,3.89 -0.8,0.5 -1.97,1.02 -2.74,1.4 -2.89,1.4 1.21,-0.09 -2.79,1.34 -1.41,-3.87 -6.73,-7.67 -9.87,-10.81l-25.69 -29.15 -2.52 -6.87c-0.99,-2.73 -0.12,1.11 -0.9,-2.28 -0.68,-3 -0.38,-1.79 0.27,-3.92 0.1,-0.32 0.51,-1.2 0.63,-1.52 2.16,-5.95 1.68,-7.35 6.46,-12.23l6.52 -3.85c0.26,-0.09 0.53,-0.17 0.79,-0.26 4.09,-1.42 3.5,-2.7 12.53,0.94 6.44,2.6 -0.4,1.82 9.74,6.81 4.21,2.07 3.19,0.87 4.1,3.14zm-4.61 -14.01l-3.15 -3.06c-6.38,-5.1 -16.21,-5.08 -21.98,-2.33 -6.95,3.31 -13.81,7.92 -16.84,15.24 -0.09,0.23 -0.2,0.5 -0.29,0.74l-2.91 11.66c-0.16,7.05 0.58,6.5 1.94,10.63 0.34,1.05 0.31,1.29 0.7,2.41l5.04 8.4c6.4,10.01 19.44,20.94 28.22,29.73 2.28,2.27 3.98,3.89 6.19,6.22 4.2,4.43 3.68,6.41 9.81,3.86 6.56,-2.73 19.21,-17.2 24.35,-22.34 6.98,-6.98 13.49,-13.18 17.72,-21.6l2.12 -4.1c0.1,-0.21 0.25,-0.46 0.34,-0.69 0.45,-1.05 0.18,0.72 0.79,-2.31l0 -18.29 -6.71 -11.92c-2.34,-3.39 -1.61,-1.32 -5.4,-3.91 -4.79,-3.28 -10.28,-5.68 -16.71,-5.12 -4.72,0.41 -2.97,0.48 -8.29,3.17 -10.1,5.11 -5.26,7.1 -12.39,7.26 -1.16,-3.2 -0.03,-0.88 -2.55,-3.65z"/>
   <path fill="#FEFEFE" d="M138.27 292.54c-0.15,-6.27 0.67,-3.02 -2.07,-4.14 0,-12.84 1.79,-9.55 -6.8,-18.03 -3.55,-3.51 -8.86,-9.34 -11.08,-13.75 -3.59,-7.09 -2.77,-12.98 -2.86,-22.05 -0.06,-6.36 2.17,-15.18 6.2,-19.67l20.68 -16.55c8.12,-3.32 33.28,-4.56 41.23,-2.85 5.36,1.16 -2.25,1.03 10.57,1.86 1.64,0.1 1.16,-0.02 2.72,0.38l8.38 5.07c6.25,3.98 9.13,5.73 12.7,13.16l1.7 3.47c0.11,0.21 0.24,0.48 0.35,0.69 0.11,0.21 0.24,0.47 0.35,0.68 0.11,0.21 0.25,0.47 0.36,0.68 3,5.7 3.52,18.78 2.2,25.34 -0.55,2.7 -0.54,1.62 -0.78,2.32l-7.99 15.81c-2.27,3.61 -5.24,6.82 -11.71,10.01l-12.63 4.96c-7.91,1.61 -24.11,-1.73 -30.92,1.15l-15.37 9.48c-2.74,2.05 -0.03,1.87 -5.23,1.98zm-4.14 8.28l3.56 -1.59c0.26,-0.08 0.55,-0.14 0.81,-0.22 4.2,-1.31 3.96,-1.78 7.42,-3.97l13.67 -8.05c4.92,-1.76 12.51,-0.66 17.99,-0.64 2.28,0.01 5.12,0.17 7.31,0.08 5.25,-0.22 7.4,-1.98 12.85,-3.71l5.78 -2.52c5.29,-3.84 6.48,-2.59 10.38,-8.23l9.52 -13.24c0.11,-0.22 0.24,-0.48 0.35,-0.69l3.45 -8.97c0.1,-1.05 -0.02,-1.86 0.14,-2.97 0.65,-4.64 2.77,-7.02 1.93,-12.46l-6.86 -19.05c-0.11,-0.21 -0.24,-0.48 -0.34,-0.7 -0.11,-0.21 -0.23,-0.48 -0.33,-0.7l-26.97 -21.67c-4.33,-1.19 -9.38,0.41 -13.67,-0.81 -0.26,-0.07 -0.51,-0.2 -0.75,-0.28 -5.3,-1.79 -13.46,-1.92 -19.39,-1.39l-3.38 0.76c-0.24,0.08 -0.48,0.23 -0.72,0.32 -3.77,1.33 -7.24,0.5 -10.96,1.45l-14.3 7.43c-0.99,0.72 -1.68,1.35 -2.36,1.77l-2.69 1.46c-0.19,0.12 -0.46,0.27 -0.64,0.4l-9.06 10.59c-0.15,0.28 -0.55,1.1 -0.69,1.39 -0.1,0.21 -0.24,0.47 -0.35,0.68l-2.42 5.86c-1.56,4.83 -5.23,18.86 -3.71,24.42 0.89,3.27 -0.12,-0.52 0.86,2.25 0.42,1.16 0.53,1.69 1.01,3.14 0.08,0.25 0.15,0.54 0.24,0.79l2.35 4.89c0.07,0.16 0.55,1.28 0.61,1.45 0.61,1.65 0.44,1.88 0.92,3.22l4.32 7.06c5.71,9.47 12.35,6.42 12.06,20.01 -0.04,1.89 -0.23,5.52 0.01,7.24 0.28,2.14 0.08,1 0.62,2.49 0.63,1.75 0.06,-1.03 1.43,2.71z"/>
   <path fill="#FDFDFD" d="M587.27 1219.62l0 -86.9c5.55,0 4.95,0.35 9.66,2.74l29.68 17.91c0.21,0.11 0.48,0.25 0.68,0.36l1.26 0.81c0.1,0.07 2.19,1.76 2.3,1.83l4.71 2.54c0.08,0.04 1.93,0.96 2.07,1.04l7.57 4.84c0.22,0.1 0.49,0.22 0.71,0.33 0.28,0.14 1.12,0.52 1.4,0.67 5.12,2.75 1.27,1.98 8.96,5.52 4.23,1.95 5.39,2.66 5.48,6.92l-6.66 3.68c-0.94,0.71 -1.85,1.52 -2.32,1.82l-9.13 5.36c-1.37,1.02 -0.44,0.43 -1.85,1.25l-3.49 1.69c-0.28,0.14 -1.1,0.54 -1.38,0.68 -0.22,0.11 -0.48,0.24 -0.7,0.35l-6.51 3.83c-0.96,0.74 -0.91,0.8 -1.76,1.34l-18.65 10.32c-4.84,2.42 -3.7,2.68 -6.84,4.54l-8.29 4.13c-2.9,1.52 -3.77,2.33 -6.9,2.4zm-4.15 3.11c0.23,0.14 0.56,0.3 0.71,0.38l2.7 1.47c2.06,0.85 0.45,0.99 5.05,-0.48 7.96,-2.54 6.88,-3.31 16.42,-8.57 4.56,-2.51 1.96,-2.07 7.55,-4.87l52.42 -30.35 0 -6.22c-2.19,-0.77 -0.98,-0.27 -2.58,-1.55 -9.12,-7.3 1.23,-0.67 -9.87,-6.69 -5.59,-3.04 -6.86,-5.68 -17.91,-11.06l-28.29 -17.24c-7.41,-3.61 -15.57,-12.88 -21.82,-10.96 -2.94,0.9 -1.2,-0.77 -2.32,1.97 -2.96,1.28 -1.53,-2 -2.17,4.04l0.11 90.13z"/>
   <path fill="#FDFDFD" d="M776.21 427.79c1.43,0 2.55,-0.09 3.95,0.18 3.36,0.64 4.98,2.65 8.45,3.96 0.01,15.05 1.46,18.6 -12.4,18.61l0 -22.75zm-10.35 12.41l1.54 11.9c0.77,2.37 0.1,5.95 5.81,6.74 0.89,0.12 3.94,0.02 4.82,-0.17 0.3,-0.07 0.55,-0.17 0.83,-0.25l1.5 -0.6c8.65,-2.96 8.47,0.58 13.19,-6.49l3.36 -3.89 0 -16.55c-3.86,-3.63 -4.65,-5.78 -9.6,-8 -7.72,-3.48 -11.17,-3.39 -19.39,-3.39 0,5.75 0.79,7.3 -1.03,12.42 -0.32,0.92 -0.16,-0.82 -0.83,2.28 -0.41,1.94 -0.2,4.02 -0.2,6z"/>
   <path fill="#FDFDFD" d="M1599.15 582.25l6.21 0.02 0 -22.77c2.27,0.92 0.55,-0.45 2.47,2.69l1.7 3.47c0.14,0.29 0.56,1.09 0.69,1.38l2.52 6.8c2.36,3.87 1.55,0.07 2.96,4.28 2.04,-0.71 2.24,-0.42 4.71,-3.57 2.86,-3.63 3.58,-6.69 3.58,-10.91l2.05 0c0,4.37 -0.63,7.67 0.73,11.69l1.14 2.99c0.41,1.94 0.2,4.03 0.21,6.01l6.22 0 0.02 -30.04c-0.64,-3.14 0.61,-1.98 -2.09,-3.09 -1.33,-4.74 -6.48,-1.19 -8.01,1.33l-8.55 15.24 -0.99 -4.18c-1.31,-3.94 -2.32,-9.33 -5.87,-11.73 -4.33,-2.93 -8.8,-4.45 -9.72,2.44 -0.27,2.02 0,7 0.01,9.33 0.02,6.2 0.01,12.42 0.01,18.62z"/>
   <path fill="#FDFDFD" d="M1053.16 876.16c1.39,-3.83 5.45,-5.86 6.18,-11.42 0.17,-1.3 0.03,-3.72 0.03,-5.14l4.12 0.01 0.01 20.68 6.21 0.01 0 -33.13c-4.25,0.01 -5.79,-0.54 -8.2,1.13 -2.61,1.82 -3.14,2.79 -4.03,5.27l-2.27 10.16 -4.12 0c-0.08,-3.37 -2.18,-5.82 -4.31,-12.25 -0.79,-2.37 -2.32,-4.64 -4.67,-5.68 -0.22,-0.1 -0.55,-0.2 -0.76,-0.28 -1.61,-0.57 -0.9,-0.36 -2.69,-0.42 -1.1,2.74 2.12,1.93 -4.14,2.07l0.01 33.12 8.28 0.01c-0.19,-8.71 -1.35,0.49 -2.11,-8.25 -0.24,-2.82 0.04,-7.35 0.04,-10.38 8.2,0.15 4.27,2.55 8.61,11.04 0.1,0.21 0.25,0.48 0.35,0.68 0.1,0.2 0.26,0.51 0.35,0.69 0.47,0.93 0.09,-0.57 1.03,2.07l2.08 0.01z"/>
   <path fill="#FDFDFD" d="M848.64 458.83c1.04,-2.59 0.06,-2.07 8.28,-2.07l1.74 -3.43c0.15,-0.28 0.59,-1.07 0.73,-1.35 2.14,-4.19 2.56,-22.87 1.49,-28.17 -1.07,-5.31 0,0.83 -1.9,-4.3 -0.24,0.09 -0.55,0.08 -0.66,0.38 -0.1,0.3 -0.51,0.3 -0.66,0.36l-4.9 1.32c0,28.96 1.14,15.79 -4.14,28.97 -0.23,-0.09 -0.54,-0.58 -0.65,-0.38l-5.54 -1.69 0 -18.62c-2.81,-1.13 -2.07,3.28 -2.07,-10.35 -4.47,0 -8.17,-0.84 -8.39,7.15 -0.09,3.62 -0.29,13.43 0.15,16.61l1.22 3.95c2.42,7.02 2.11,7.67 9.59,10.07 0.26,0.09 0.52,0.19 0.77,0.27l4.94 1.28z"/>
   <path fill="#FDFDFD" d="M1443.95 555.36l8.27 -0.03c0.9,2.47 0.63,1.29 1.04,2.09 1,1.98 1.95,1.54 -0.45,4.73 -3.41,4.54 -4.39,3.54 -8.86,3.54l0 -10.33zm-6.22 26.9c0.67,1.63 -0.85,2.07 6.22,2.07l0 -12.41 2.73 0.37c0.21,0.08 0.55,0.17 0.77,0.27l5.57 6.83c1.03,2.32 1.15,-0.29 1.27,4.94 8.53,0 5.93,1.22 10.36,-3.11l-5.06 -5.3c-0.13,-0.18 -0.27,-0.45 -0.39,-0.63 -2.92,-4.21 1.73,-1.54 -2.83,-3.39l0 -2.05c3.01,-1.22 -0.04,0.74 1.63,-1.48l1.79 -3.39c2,-3.8 0.71,-2.57 2.79,-3.41l0 -4.15c-2.94,-1.18 -0.43,0.05 -2.01,-2.14 -1.57,-2.19 -0.36,-2.1 -4.09,-4.18 -6.38,-3.55 -17.18,-2.79 -19.4,-0.55 -2.67,2.69 -1.41,17.4 -1.5,24.54 -0.1,7.55 0.22,6.38 2.15,7.17z"/>
   <path fill="#FDFDFD" d="M1548.41 196.07c5.3,-2 -2.86,-2.07 14.49,-2.07l-9.57 15.25c-6.03,9.5 -4.19,2.72 -7.4,8.13l-1.62 3.48 2.68 1.47c0.23,0.08 0.51,0.2 0.76,0.27l8.94 0.38c4.83,-0.04 9.67,-0.01 14.5,-0.01l-2.07 -8.29c-0.67,-1.64 0.89,-2.05 -6.21,-2.07 1.38,-3.64 0.47,-0.58 3.01,-4.22 0.12,-0.18 0.3,-0.43 0.42,-0.61l3.89 -7.51c0.1,-0.22 0.23,-0.48 0.32,-0.72 1.04,-2.92 0.64,-5.5 0.63,-8.66 -4.17,-3.97 -7.81,-7.08 -14.49,-7.25 -1.82,4.52 0.86,-0.05 -3.37,2.84 -0.18,0.13 -0.46,0.27 -0.64,0.39 -4.47,3.14 -4.26,5.04 -4.27,9.2z"/>
   <path fill="#FDFDFD" d="M1133.86 878.23c3.93,-1.61 0.64,0.56 2.15,-3.04 3.38,-8.1 1.99,-17.19 1.99,-28.02 -9.29,0.01 -8.45,2.32 -8.28,14.5 0.09,7.19 1.22,11.72 -5.14,12.44 -1.11,0.13 -3.9,-0.03 -5.2,-0.03 -0.07,-3.09 -0.28,-1.9 -0.76,-3.38 -1.52,-4.73 -1.41,-2.29 -1.33,-10.05 0.06,-5.18 0.02,-10.37 0.02,-15.55 -5.41,0 -5.19,-1.67 -7.41,3.99l-0.96 6.29c-0.12,10.13 -0.79,8.88 1.63,16.12l0.95 3.19c1.94,4.75 9.62,7.58 13.02,7.59 4.38,0.01 0.7,0.16 5.49,-1.66 0.32,-0.11 1.28,-0.4 1.55,-0.53 2.69,-1.29 1.05,1.17 2.28,-1.86z"/>
   <path fill="#FDFDFD" d="M1474.99 555.36l8.27 0 0 10.34 -8.27 -0.01 0 -10.33zm0 28.97l0 -12.41c3.58,0.08 4.81,0.79 6.78,3.55 1.58,2.2 -0.69,-1.29 0.79,1.28l1.37 2.77c1.51,2.29 1.79,2.22 4.77,3.51 0.23,0.1 0.5,0.22 0.73,0.31 0.91,0.36 -1.04,1 6.26,1 -1.39,-3.86 -1.74,-1.6 -4.17,-6.2l-0.97 -2.14c-2.06,-4.19 -0.88,-3.18 -3.14,-4.1l0 -2.05c2.13,-0.87 1.15,0.05 2.91,-3.31 0.1,-0.21 0.23,-0.48 0.33,-0.7 1.53,-3.58 0.9,-8.03 0.9,-12.56 -1.6,-0.57 -12,-7.51 -20.14,-3.57 -4.6,2.22 -2.56,15.03 -2.66,23.26 -0.04,2.73 -0.49,7.36 0.96,9.39 1.82,2.55 3.4,1.93 5.28,1.97z"/>
   <path fill="#FDFDFD" d="M809.32 436.07c1.88,-0.76 2.12,0.93 2.07,-6.21l4.12 0c0.01,10.23 2.07,2.72 2.07,11.37 -3.39,3.33 -2.44,3.02 -6.19,3.1 -0.92,-2.45 0.62,-1.35 -2.07,-2.06l0 -6.2zm-10.36 20.69c6.88,0 6.61,-0.53 9.03,-5.47l1.4 -2.73c7.21,-0.19 6.85,-1.06 10.89,3.43 2.72,3.02 3.26,4.12 5.71,4.64 1.14,0.25 2.83,0.13 4.03,0.13 -0.05,-1.79 0.13,-0.36 -0.25,-1.82l-0.74 -2.38c-1.84,-4.41 -2.03,-1.72 -3.16,-8.21l-3.37 -11.12c-0.25,-0.73 -0.45,-1.37 -0.77,-2.34 -0.08,-0.26 -0.15,-0.54 -0.24,-0.79l-1.82 -8.53 -11.01 1.42c-0.33,0.64 -0.89,1.71 -1.06,2.04 -0.24,0.45 -1.09,1.98 -1.1,2.01 -2.35,5.02 -0.3,4.75 -2.65,9.77l-3.59 8.83c-1.82,5.24 -1.3,5.07 -1.3,11.12z"/>
   <path fill="#FDFDFD" d="M1412.91 561.57c6.03,-0.63 -2.73,-1.87 6.2,-2.07l-0.01 10.33 -6.19 0 0 -8.26zm-12.43 22.76l4.89 -0.3c0.24,-0.08 0.52,-0.18 0.74,-0.29 0.23,-0.11 1.47,-1.21 1.66,-1.45l3.09 -6.22c7,-0.02 8.79,-0.89 12.09,2.35 2.03,1.98 2.29,2.45 2.37,5.91l6.22 0c0,-1.42 0.13,-3.81 -0.05,-5.13 -0.33,-2.41 -0.34,-1.54 -0.63,-2.47l-7.15 -16.66c-0.4,-1.19 -0.33,-1.34 -0.67,-2.43l-2.18 -5.07c-0.1,-0.21 -0.24,-0.47 -0.35,-0.68 -0.11,-0.21 -0.25,-0.49 -0.35,-0.69 -0.44,-0.85 -0.12,0.46 -1.04,-2.06l-8.29 0c-0.11,5.06 -0.7,2.46 -1.57,5.67 -0.08,0.28 -0.15,0.55 -0.21,0.83l-0.56 3.58c-0.06,0.29 -0.13,0.56 -0.2,0.84l-4.38 11.14c-0.13,0.29 -0.51,1.13 -0.62,1.44l-1.24 3.94c-1.47,4.26 -1.57,2.77 -1.57,7.75z"/>
   <path fill="#FDFDFD" d="M1084.2 867.87c0.09,-0.24 0.28,-0.53 0.36,-0.67l2.13 -6.15c1,-2.97 1.56,-1.55 1.65,-5.59l4.12 0.01c0.02,9.59 1.11,2.84 2.09,9.28 0.07,0.46 -0.02,2.54 -0.02,3.12l-10.33 0zm0.01 6.23l12.39 -0.01c2.02,5.14 1.9,-1.28 2.07,6.21l8.29 0 -6.96 -19.95c-1.56,-4.56 0.96,2.99 -0.56,-1.52 -1.41,-4.2 -2.53,-9.54 -6.36,-12.26 -8.54,-6.09 -8.78,5.4 -10.45,10.43l-2.94 7.41c-0.11,0.21 -0.26,0.46 -0.36,0.68l-5.12 14.54c-0.05,-0.15 -0.29,0.43 -0.37,0.67 3.01,0.06 1.4,0 3.46,0.68 1.65,0.54 -0.81,0.11 2.74,1.37l4.17 -8.25z"/>
   <path fill="#FDFDFD" d="M1585.29 202.92c0.11,-0.21 0.23,-0.49 0.34,-0.69 3.04,-5.69 6.24,-6.16 6.24,-6.16l0 10.33c-3.72,1.48 -0.39,2.07 -8.27,2.07l1.69 -5.55zm-9.98 8.66l0.01 3.11 14.48 0 5.18 8.28c3.29,-3.46 3.11,-1.52 3.12,-8.26 4.18,-0.12 2.68,-0.81 6.2,-2.08 -0.77,-2.2 -0.24,-1.01 -1.55,-2.6 -2.08,-2.52 -0.39,-0.3 -2.13,-2.02 -4.59,-4.54 -2.53,-11.01 -2.53,-22.3 -10.89,0 -8.58,-0.8 -11.17,3.32l-11.39 19.66c-0.26,1.29 -0.22,1.58 -0.22,2.89z"/>
   <path fill="#FDFDFD" d="M1570.17 551.21l0.02 6.2c8,-0.13 1.05,-0.64 5.72,-1.75 5.24,-1.24 3.82,-0.2 4.69,1.68 2.76,1.29 1.65,-2.17 1.98,3.14 0.31,5 -0.21,1.86 -1.2,3.92 -4.14,8.55 -13.04,10.58 -13.28,19.93 15.51,0 22.48,2.27 24.85,-4.15l-12.42 -2.07c0.14,-5.79 4.03,-5.87 6.81,-9.73l2.62 -6.81c3.31,-9.65 -0.98,-2.38 -1.15,-10.36 -8.33,-0.19 0.19,-2.22 -9.32,-2.22 -9.62,0 -0.96,2.22 -9.32,2.22z"/>
   <path fill="#FDFDFD" d="M904.5 429.86c1.01,0 3.08,0.13 3.97,-0.18 2.83,-0.98 1.1,0.95 2.25,-1.89 6.69,0 4.81,-0.21 8.26,3.1 -0.58,5.36 -0.17,1.15 -0.99,3.14 -3.73,9.04 -20,17.34 -11.42,20.66 1.02,2.5 0.36,2.25 9.29,2.1 3.8,-0.07 7.62,-0.03 11.42,-0.03 -0.17,-6.63 1.1,-2.92 -4.6,-4.73l-3.08 -1.06c-2.13,-0.52 -2.48,-0.42 -4.74,-0.43 1.32,-3.5 -0.35,-0.39 2.09,-3.07l3.42 -3.82c1.6,-2.65 0.97,-4.12 4.84,-5.51 0,-6.44 2.38,-19.63 -14.5,-16.57l-4.24 3.01c-2.06,2.36 -1.9,3.19 -1.97,5.28z"/>
   <path fill="#FDFDFD" d="M956.25 444.35l4.12 0 0 8.26 -4.12 0 0 -8.26zm-8.24 -8.24c-0.2,5.13 -0.37,2.64 -3.01,6.3l-2.35 3.86c-4.65,6.65 -1.09,0.73 -3.68,7.7 -0.42,1.12 -0.34,0.2 -1.36,2.79 4.61,-0.1 6.88,-2.71 9.65,-6.91 2.75,-4.16 -1.89,-1.52 2.76,-3.43 0.01,9.69 1.9,2.59 2.07,10.34 2.68,0 2.39,-0.08 4.82,0.52 1.11,0.27 3.28,2.03 7.57,-1.56l2.31 -3.06c1.74,-3.24 1.22,-4.72 -1.21,-10.41 -0.43,-1.01 0.09,1.07 -1.06,-2.06 -14.67,0.01 -7.36,0.1 -12.41,2.18 0.19,-5.1 1.38,-3.1 5.53,-11.12l2.57 -5.71c0.27,-1.41 0.17,-2.54 0.17,-3.97l-4.15 0 -0.41 2.7c-1,2.69 -1.92,2.04 -4.06,6.28 -3.39,6.69 -0.19,4 -3.75,5.56z"/>
   <path fill="#FDFDFD" d="M877.59 429.85c-7.46,0.01 -10.11,-1.27 -10.34,6.22 6.34,0.14 2.68,0.67 4.85,1.35 2.74,0.87 2.1,0.71 5.49,0.72 0,13.92 -1.69,13.54 3.12,18.62 4.87,-5.13 3.11,-6.17 3.11,-18.62l2.07 0c1.62,-4.06 -0.68,-0.77 3.85,-2.36l4.43 -3.86 -4.43 -1.79c-4.53,-1.59 -2.22,1.72 -3.85,-2.35 -1.64,-0.66 -2.07,0.9 -2.07,-6.21l-6.23 0 0 8.28z"/>
   <path fill="#FDFDFD" d="M1539.13 553.28c0.19,6.65 2.71,5.18 7.57,6.93l2.12 0.98c0.14,0.07 0.42,0.29 0.66,0.38 -0.01,4.65 0.63,7.76 -0.73,11.7l-0.66 1.47c-0.77,2.21 -1.21,4.74 -0.14,6.9 1.36,2.75 4.24,2.65 5.68,2.69 0.2,-10.36 2.14,4.99 2.07,-16.56l0.02 -13.48c-0.63,-3.14 0.62,-1.98 -2.09,-3.09 -0.67,-1.62 0.84,-2.06 -6.22,-2.06 -1.22,3.02 -3.64,4.03 -8.28,4.14z"/>
   <path fill="#FDFDFD" d="M1515.35 205.38l6.88 2.39c1.7,0.52 0.39,0.65 3.42,0.72 -0.01,9.3 -1.05,8.01 3.11,12.41 6.71,-7.05 0.1,-8.3 5.18,-10.34 1.61,-4.01 -0.92,-0.67 4.66,-2.59l1.54 -0.53c0.22,-0.08 0.53,-0.23 0.72,-0.31 0.19,-0.08 0.54,-0.28 0.69,-0.35 0.15,-0.07 0.43,-0.28 0.67,-0.36l0.01 -4.15c-9.89,-0.02 -2.54,-1.89 -10.36,-2.08l0 -8.27 -3.52 0.62c-0.2,0.1 -0.49,0.24 -0.67,0.37 -4.87,3.48 1.8,6.77 -7.17,9.39 -5.12,1.5 -0.69,-1.16 -5.16,3.08z"/>
   <path fill="#FDFDFD" d="M1508.09 563.62l0 6.23 8.28 0c-0.01,9.44 -1.5,12.26 4.15,14.54 0,-9.92 2.07,-2.45 2.07,-14.54l8.28 0 0 -6.23c-1.01,0 -3.09,0.13 -3.97,-0.17 -2.85,-0.99 -1.1,0.97 -2.24,-1.9 -2.6,-1.04 -2.07,-0.05 -2.07,-8.27l-6.23 0c0.01,3.37 0.6,6.26 -0.89,8.42 -0.44,0.65 -1.63,1.42 -2.46,1.67 -1.56,0.46 -3.29,0.25 -4.92,0.25z"/>
   <path fill="#FDFDFD" d="M1175.25 855.45c-7.7,-0.16 -2.86,-4.11 -9.33,-4.14 -3.58,-0.02 -1.44,-0.51 -7.72,5.73 -2.03,2.01 -2.68,2.21 -3.66,4.63l8.28 0 0.01 18.62 6.21 0.01 0 -18.63 6.21 0 0 -6.22z"/>
   <path fill="black" d="M776.21 450.54c13.86,-0.01 12.41,-3.56 12.4,-18.61 -3.47,-1.31 -5.09,-3.32 -8.45,-3.96 -1.4,-0.27 -2.52,-0.18 -3.95,-0.18l0 22.75z"/>
   <path fill="#FDFDFD" d="M937.62 425.72c4.78,0.11 3.73,0.56 6.19,3.1l0 4.14c-2.46,2.54 -1.41,2.98 -6.19,3.1l0 -10.34zm10.39 10.39l-0.05 -10.4c-4.65,-1.68 -1.35,-4.14 -10.35,-4.14 -1.04,2.58 0.15,0.83 -3.37,2.84 -0.2,0.11 -0.49,0.24 -0.69,0.35 -1.45,0.78 0.97,-0.24 -2.05,1.05 -0.24,16.12 1.4,6.61 4.04,14.39 13.12,0.02 5.29,-1.76 12.47,-4.09z"/>
   <path fill="black" d="M1443.95 565.69c4.47,0 5.45,1 8.86,-3.54 2.4,-3.19 1.45,-2.75 0.45,-4.73 -0.41,-0.8 -0.14,0.38 -1.04,-2.09l-8.27 0.03 0 10.33z"/>
   <path fill="black" d="M1084.2 867.87l10.33 0c0,-0.58 0.09,-2.66 0.02,-3.12 -0.98,-6.44 -2.07,0.31 -2.09,-9.28l-4.12 -0.01c-0.09,4.04 -0.65,2.62 -1.65,5.59l-2.13 6.15c-0.08,0.14 -0.27,0.43 -0.36,0.67z"/>
   <path fill="black" d="M809.32 436.07l0 6.2c2.69,0.71 1.15,-0.39 2.07,2.06 3.75,-0.08 2.8,0.23 6.19,-3.1 0,-8.65 -2.06,-1.14 -2.07,-11.37l-4.12 0c0.05,7.14 -0.19,5.45 -2.07,6.21z"/>
   <polygon fill="black" points="1474.99,565.69 1483.26,565.7 1483.26,555.36 1474.99,555.36 "/>
   <path fill="black" d="M1412.91 561.57l0 8.26 6.19 0 0.01 -10.33c-8.93,0.2 -0.17,1.44 -6.2,2.07z"/>
   <path fill="black" d="M937.62 436.06c4.78,-0.12 3.73,-0.56 6.19,-3.1l0 -4.14c-2.46,-2.54 -1.41,-2.99 -6.19,-3.1l0 10.34z"/>
   <polygon fill="black" points="956.25,452.61 960.37,452.61 960.37,444.35 956.25,444.35 "/>
   <path fill="#FEFEFE" d="M80.13 248.46c0.42,0.58 0.42,0.49 0.89,0.92 -0.21,-2.44 0.1,-4.15 -0.89,-5.78l0 4.86z"/>
   <path fill="#FEFEFE" d="M80.13 232.15l0 1.89c0.97,-0.93 0.62,-0.44 0.72,-2.35l-0.72 0.46z"/>
   <path fill="#FEFEFE" d="M2021.39 353.37c-28.38,0.64 -62.39,9.96 -91.33,15.14 -1.46,0.26 -1.25,-0.04 -1.26,1.13 -0.05,16.8 1.67,97.43 -0.17,102.35 -0.36,0.03 -0.88,-0.35 -1.32,-0.52 -1.53,-0.57 -2.99,-0.85 -4.63,-1.15 -6.2,-1.17 -14.51,-0.13 -20.19,2.2 -0.96,0.4 -2.04,0.79 -2.82,1.13 -5.75,2.48 -11.05,6.57 -14.07,12.14 -1.18,2.18 -1.76,4.45 -1.77,7.03 -0.01,2.32 0.93,4.5 1.84,5.85 1.46,2.18 3.96,4.42 6.4,5.39 0.94,0.36 1.76,0.74 2.69,1.07 9.44,3.35 20.93,0.87 28.91,-3.1l6.97 -4.65c1.1,-0.93 2.08,-1.92 2.94,-3.03 3.63,-4.66 4.27,-6.89 4.27,-13.15 0,-28.06 -0.04,-56.12 0,-84.17l18.66 -3.04c3.14,-0.48 6.22,-0.97 9.32,-1.49 0.89,-0.14 1.67,-0.24 2.47,-0.37 0.82,-0.14 1.48,-0.28 2.29,-0.38 1.64,-0.2 2.88,-0.48 4.61,-0.71 6.16,-0.78 12.51,-2.08 18.68,-3.01 3.05,-0.47 6.31,-0.87 9.37,-1.46 0.49,-0.09 8.72,-1.68 9.04,-1.32 0.39,0.94 0.27,65.79 0.15,72.58 -0.58,-0.12 -1.11,-0.38 -1.64,-0.59 -1.56,-0.63 -3.61,-1.08 -5.33,-1.28 -8.27,-0.94 -16.68,0.54 -24.1,4.37l-3.37 1.97c-5.31,3.45 -10.15,8.61 -10.62,15.28 -0.38,5.37 3.22,9.74 7.68,11.94 3.8,1.88 7.83,2.81 12.26,2.83 8.03,0.03 14.31,-1.66 20.83,-5.07 0.27,-0.15 0.47,-0.23 0.73,-0.38l1.37 -0.83c0.33,-0.19 0.36,-0.24 0.66,-0.44l3.58 -2.85c0.34,-0.3 0.35,-0.26 0.63,-0.47 2.27,-1.74 4.69,-5.68 5.63,-8.51 0.85,-2.6 0.64,-4.95 0.64,-7.99l0 -112.44z"/>
   <ellipse fill="#303791" stroke="#7D95FF" stroke-width="32.19" stroke-miterlimit="2.61313" cx="1603.59" cy="1219.62" rx="152.17" ry="147.45"/>
   <path fill="#303791" d="M1592.49 1217.55c1.34,-3.67 7.1,-8.68 10.97,-10.74 0.21,-0.11 0.47,-0.25 0.68,-0.36 4.18,-2.02 11.08,-2.11 15.34,-0.37l2.06 1.04c8.19,4.49 10.21,14.45 7.57,22.23 -1.4,4.1 -4.79,7.84 -8.38,10.23 -4.15,2.75 -1.51,-1.89 -3.42,2.8l-12.4 0c-0.81,-2.22 0.01,-1.03 -1.57,-2.57 -3.28,-3.2 0.26,0.02 -3.23,-1.94 -3.1,-1.74 -4.75,-3.66 -6.35,-7.11 -2.14,-4.6 -1.27,-5.2 -1.27,-13.21zm-33.11 -24.83c-0.03,10.26 -0.72,5.23 -1.87,10.55l-0.15 35.96c1.09,7.45 0.88,-1.15 1.96,6.31 0.76,5.2 -2.51,8.99 6.85,13.85 0.2,0.11 0.46,0.25 0.68,0.36 0.22,0.1 0.47,0.24 0.7,0.33 5,2.06 78.22,1.2 84.01,1.03 4.99,-0.14 2.89,0.53 5.72,-1.53 7.54,-5.49 4.65,-6.95 6.33,-12.29 1.76,-5.62 1.4,-2.25 1.32,-11.1 -0.11,-12.82 1.41,-32.3 -2.48,-44.1 -0.91,-2.75 -1.63,-2.59 -2.63,-3.59 -7.26,-7.24 -2.4,-2.7 -19.79,-4.01 -2.71,-0.21 -1.31,0.04 -3.45,-0.68 -7.41,-2.51 -5.84,-5.2 -8.81,-8.78l-4.41 -2.84c-2.47,-0.51 -3.83,0.09 -6.63,-0.62 -2.19,-0.55 -2.82,-1.55 -5.62,-1.61 -1.1,2.7 0.06,1.45 -3.08,2.09l-13.44 0.01 -4.18 10.31c-7.05,0 -10.93,-0.86 -16.57,1.01 -8.61,2.87 -5.17,-0.92 -9.84,3.63l-4.62 5.71z"/>
   <rect fill="#303791" stroke="#FEFEFE" stroke-width="16.09" stroke-miterlimit="2.61313" x="1532.82" y="1165.53" width="156.84" height="100.33" rx="6.99" ry="6.99"/>
   <path fill="#303791" stroke="#FEFEFE" stroke-width="8.05" stroke-miterlimit="2.61313" d="M1573.13 1213.76c0,-17.96 15,-32.53 33.49,-32.53 18.5,0 33.49,14.57 33.49,32.53 0,17.97 -14.99,32.54 -33.49,32.54 -18.49,0 -33.49,-14.57 -33.49,-32.54zm70.14 -24.84l0 -8.65c0,-1.15 0.94,-2.1 2.1,-2.1l21.25 0c1.16,0 2.1,0.95 2.1,2.1l0 8.65c0,1.16 -0.94,2.1 -2.1,2.1l-21.25 0c-1.16,0 -2.1,-0.94 -2.1,-2.1zm39.4 -23.39l-142.85 0c-3.85,0 -7,3.15 -7,6.99l0 86.34c0,3.85 3.15,7 7,7l142.85 0c3.85,0 7,-3.15 7,-7l0 -86.34c0,-3.84 -3.15,-6.99 -7,-6.99z"/>
   <rect fill="#8AA2FD" stroke="#8AA2FD" stroke-width="2.01" stroke-miterlimit="2.61313" x="417.64" y="1028.07" width="16.84" height="59.27"/>
   <rect fill="#8AA2FD" stroke="#8AA2FD" stroke-width="2.01" stroke-miterlimit="2.61313" x="348.13" y="1065.97" width="16.84" height="21.38"/>
   <g>
    <path fill="#8AA2FD" fill-rule="nonzero" d="M2141.31 1243.3l-46.5 44.03 -8.3 -8.77 46.51 -44.03 7.99 -0.27 0.3 9.04zm-8.29 -8.77l3.88 -3.67 4.11 3.4 -7.99 0.27zm33.7 36.67l-33.4 -27.64 7.69 -9.3 33.4 27.65 0.69 8.62 -8.38 0.67zm8.38 -0.67l-3.86 4.41 -4.52 -3.74 8.38 -0.67zm35.5 -40.52l-35.5 40.52 -9.07 -7.95 35.5 -40.53 9.07 7.96zm-31.54 -21.03l61.52 -22.35 -14.06 63.93 -47.46 -41.58z"/>
   </g>
   <rect fill="#8AA2FD" stroke="#8AA2FD" stroke-width="2.01" stroke-miterlimit="2.61313" x="1727.73" y="109.97" width="19.92" height="31.71"/>
   <rect fill="#8AA2FD" stroke="#8AA2FD" stroke-width="2.01" stroke-miterlimit="2.61313" x="1768.11" y="80.86" width="19.92" height="60.82"/>
   <rect fill="#8AA2FD" stroke="#8AA2FD" stroke-width="2.01" stroke-miterlimit="2.61313" x="1810.42" y="57.01" width="19.92" height="84.67"/>
   <rect fill="#8AA2FD" stroke="#8AA2FD" stroke-width="2.01" stroke-miterlimit="2.61313" x="1856.57" y="27.12" width="19.92" height="114.56"/>
   <ellipse fill="#303791" stroke="#7D95FF" stroke-width="32.19" stroke-miterlimit="2.61313" cx="2384.22" cy="995.51" rx="152.17" ry="147.45"/>
   <path fill="#FEFEFE" d="M2462.82 951.46c-0.82,-0.96 -0.84,-1.81 -1.4,-3.3 -0.97,-2.56 -3.05,-6.3 -4.59,-8.39 -8.38,-11.3 -19.18,-16.92 -34.88,-16.97 -11,1.48 -16.87,4.05 -23.62,9.55 -4.25,3.45 -8.73,8.62 -11.58,13.32 -0.95,1.56 -1.83,3.56 -2.97,4.93 -1.39,-1.6 -4.08,-8.08 -10.49,-14.63 -23.47,-23.95 -59.12,-12.89 -67.94,14.49 -8.22,25.54 11.27,51.71 27.07,69.65 2.58,2.93 5.29,6.23 7.91,8.97l7.97 8.47c7.47,8.02 17.02,17.39 25.4,25.15 2.61,2.41 6.85,7.01 9.31,7.27 3.04,0.32 4.72,-1.2 5.95,-2.6l12.97 -12.31c2.95,-2.64 5.64,-5.65 8.41,-8.43l24.26 -25.91c9.41,-10.38 21.9,-27.47 26.53,-40.49 5.76,-16.16 1.62,-23.85 1.69,-28.77z"/>
   <line fill="none" stroke="#7D95FF" stroke-width="12.07" stroke-miterlimit="2.61313" x1="302.71" y1="618.98" x2="198.94" y2= "385.15" />
   <line fill="none" stroke="#7D95FF" stroke-width="12.07" stroke-miterlimit="2.61313" x1="537.55" y1="1036.54" x2="459.91" y2= "886.94" />
   <line fill="none" stroke="#7D95FF" stroke-width="8.05" stroke-miterlimit="2.61313" x1="768.44" y1="1205.56" x2="1436.73" y2= "1213.92" />
   <line fill="none" stroke="#7D95FF" stroke-width="8.05" stroke-miterlimit="2.61313" x1="1766.24" y1="1206.49" x2="2247.08" y2= "1089.61" />
   <path fill="none" stroke="#7D95FF" stroke-width="12.07" stroke-miterlimit="2.61313" d="M1189.35 322.5c-32.4,74.18 -52.75,154.89 -97.19,222.52 -172.59,262.64 -178.41,276.31 -413.92,490.68"/>
   <path fill="none" stroke="#7D95FF" stroke-width="12.07" stroke-miterlimit="2.61313" d="M535.23 718.05c5.11,1.37 318.07,30.78 385.2,42.13 203.13,34.35 355.27,216.39 586.52,329.41"/>
   <g>
    <path fill="#7D95FF" fill-rule="nonzero" d="M986.78 168.48l-655.65 55.88 -1.03 -12.02 655.65 -55.88 1.03 12.02zm-8.15 -37.02l59.82 26.57 -54.46 36.3 -5.36 -62.87z"/>
   </g>
   <rect fill="#94A2D4" x="1477.14" y="158.94" width="204.41" height="88.4" rx="16.54" ry="20.28"/>
   <rect fill="#94A2D4" x="724.48" y="400.98" width="264.73" height="88.4" rx="21.42" ry="20.28"/>
   <rect fill="#94A2D4" x="989.42" y="817.42" width="234.41" height="88.4" rx="18.97" ry="20.28"/>
   <rect fill="#94A2D4" x="1361.36" y="524.39" width="311.03" height="88.4" rx="25.17" ry="20.28"/>
   <polygon fill="#FEFEFE" fill-rule="nonzero" points="1036.11,886.91 1036.11,846.58 1048.34,846.58 1055.57,874.09 1062.72,846.58 1074.97,846.58 1074.97,886.91 1067.43,886.91 1067.4,855.16 1059.45,886.91 1051.6,886.91 1043.69,855.16 1043.66,886.91 "/>
   <path id="_1" fill="#FEFEFE" fill-rule="nonzero" d="M1119.47 886.91l-8.8 0 -3.48 -9.18 -16.17 0 -3.35 9.18 -8.64 0 15.66 -40.33 8.63 0 16.15 40.33zm-14.93 -15.99l-5.6 -14.93 -5.44 14.93 11.04 0z"/>
   <path id="_2" fill="#FEFEFE" fill-rule="nonzero" d="M1123.82 846.58l8.16 0 0 21.86c0,3.47 0.11,5.72 0.3,6.74 0.35,1.65 1.17,2.98 2.46,3.98 1.31,1 3.08,1.5 5.34,1.5 2.28,0 4,-0.47 5.17,-1.42 1.16,-0.95 1.86,-2.1 2.09,-3.48 0.24,-1.38 0.36,-3.66 0.36,-6.85l0 -22.33 8.17 0 0 21.21c0,4.84 -0.22,8.27 -0.66,10.27 -0.44,2 -1.25,3.69 -2.43,5.07 -1.18,1.38 -2.75,2.47 -4.72,3.29 -1.99,0.81 -4.56,1.23 -7.74,1.23 -3.84,0 -6.75,-0.45 -8.73,-1.34 -1.98,-0.89 -3.55,-2.04 -4.7,-3.47 -1.16,-1.43 -1.91,-2.91 -2.27,-4.48 -0.54,-2.31 -0.8,-5.73 -0.8,-10.24l0 -21.54z"/>
   <path fill="#FEFEFE" fill-rule="nonzero" d="M1175.16 846.07c2.65,-2.44 4.68,-4.54 6.06,-6.33 1.39,-1.77 2.42,-3.45 3.1,-5.03l1.27 0c0.85,1.81 1.97,3.58 3.34,5.29 1.36,1.7 3.36,3.73 6,6.1l0 2.12c-3.68,-1.73 -6.52,-3.53 -8.5,-5.43l0 40.55 -2.77 0 0 -40.55c-1.75,1.38 -3.05,2.35 -3.92,2.91 -0.88,0.56 -2.4,1.38 -4.58,2.46l0 -2.09z"/>
   <path fill="#FEFEFE" fill-rule="nonzero" d="M1417.58 594.46l-8.8 0 -3.48 -9.18 -16.17 0 -3.35 9.18 -8.64 0 15.66 -40.33 8.62 0 16.16 40.33zm-14.93 -16l-5.6 -14.92 -5.44 14.92 11.04 0z"/>
   <path id="_1_0" fill="#FEFEFE" fill-rule="nonzero" d="M1421.93 594.46l0 -40.33 13.05 0c4.95,0 8.17,0.2 9.67,0.6 2.31,0.61 4.25,1.93 5.81,3.95 1.55,2.03 2.33,4.65 2.33,7.86 0,2.48 -0.45,4.55 -1.34,6.24 -0.9,1.69 -2.04,3.02 -3.42,3.98 -1.38,0.96 -2.79,1.6 -4.21,1.91 -1.95,0.38 -4.75,0.58 -8.43,0.58l-5.3 0 0 15.21 -8.16 0zm8.16 -33.51l0 11.49 4.44 0c3.2,0 5.34,-0.22 6.42,-0.64 1.08,-0.42 1.92,-1.08 2.53,-1.99 0.61,-0.9 0.92,-1.95 0.92,-3.15 0,-1.47 -0.43,-2.68 -1.29,-3.64 -0.86,-0.96 -1.94,-1.56 -3.26,-1.8 -0.97,-0.18 -2.91,-0.27 -5.84,-0.27l-3.92 0z"/>
   <path id="_2_1" fill="#FEFEFE" fill-rule="nonzero" d="M1459.49 594.46l0 -40.33 17.16 0c4.3,0 7.44,0.37 9.39,1.09 1.96,0.72 3.52,2.01 4.7,3.86 1.17,1.86 1.76,3.97 1.76,6.35 0,3.04 -0.88,5.53 -2.66,7.5 -1.77,1.98 -4.42,3.21 -7.95,3.73 1.76,1.02 3.2,2.15 4.34,3.38 1.15,1.23 2.68,3.42 4.62,6.55l4.92 7.87 -9.74 0 -5.84 -8.81c-2.09,-3.12 -3.53,-5.09 -4.3,-5.91 -0.77,-0.81 -1.59,-1.37 -2.46,-1.67 -0.87,-0.3 -2.24,-0.45 -4.12,-0.45l-1.65 0 0 16.84 -8.17 0zm8.17 -23.26l6.03 0c3.9,0 6.34,-0.17 7.31,-0.5 0.97,-0.33 1.74,-0.9 2.28,-1.71 0.56,-0.81 0.83,-1.82 0.83,-3.03 0,-1.36 -0.37,-2.45 -1.09,-3.3 -0.72,-0.83 -1.75,-1.36 -3.06,-1.57 -0.67,-0.1 -2.65,-0.14 -5.94,-0.14l-6.36 0 0 10.25z"/>
   <polygon id="_3" fill="#FEFEFE" fill-rule="nonzero" points="1524.61,588.66 1524.61,578.18 1514.02,578.18 1514.02,570.97 1524.61,570.97 1524.61,560.49 1531.65,560.49 1531.65,570.97 1542.24,570.97 1542.24,578.18 1531.65,578.18 1531.65,588.66 "/>
   <path id="_4" fill="#FEFEFE" fill-rule="nonzero" d="M1566.74 594.46l-7.72 0 0 -29.2c-2.82,2.65 -6.14,4.61 -9.97,5.88l0 -7.04c2.02,-0.66 4.21,-1.91 6.56,-3.75 2.37,-1.85 3.98,-3.99 4.86,-6.44l6.27 0 0 40.55z"/>
   <path id="_5" fill="#FEFEFE" fill-rule="nonzero" d="M1604.43 587.31l0 7.15 -27.09 0c0.29,-2.72 1.17,-5.3 2.63,-7.73 1.47,-2.43 4.37,-5.66 8.69,-9.68 3.48,-3.25 5.61,-5.46 6.4,-6.61 1.06,-1.6 1.59,-3.18 1.59,-4.74 0,-1.73 -0.46,-3.06 -1.38,-3.98 -0.93,-0.93 -2.2,-1.39 -3.83,-1.39 -1.61,0 -2.89,0.48 -3.84,1.46 -0.95,0.97 -1.5,2.58 -1.65,4.84l-7.71 -0.76c0.46,-4.27 1.89,-7.33 4.31,-9.19 2.43,-1.85 5.45,-2.77 9.08,-2.77 3.98,0 7.11,1.08 9.39,3.23 2.27,2.14 3.41,4.82 3.41,8.02 0,1.82 -0.33,3.55 -0.98,5.2 -0.65,1.64 -1.68,3.36 -3.1,5.16 -0.93,1.21 -2.62,2.92 -5.07,5.17 -2.45,2.24 -3.99,3.72 -4.64,4.47 -0.66,0.73 -1.19,1.45 -1.59,2.15l15.38 0z"/>
   <polygon id="_6" fill="#FEFEFE" fill-rule="nonzero" points="1611.25,594.46 1611.25,554.13 1623.48,554.13 1630.71,581.64 1637.86,554.13 1650.12,554.13 1650.12,594.46 1642.57,594.46 1642.54,562.71 1634.59,594.46 1626.74,594.46 1618.83,562.71 1618.8,594.46 "/>
   <polygon fill="#FEFEFE" fill-rule="nonzero" points="1519.61,217.1 1519.61,206.63 1509.02,206.63 1509.02,199.42 1519.61,199.42 1519.61,188.94 1526.65,188.94 1526.65,199.42 1537.24,199.42 1537.24,206.63 1526.65,206.63 1526.65,217.1 "/>
   <path id="_1_2" fill="#FEFEFE" fill-rule="nonzero" d="M1568.1 215.75l0 7.15 -27.09 0c0.29,-2.72 1.18,-5.29 2.64,-7.72 1.46,-2.43 4.36,-5.66 8.68,-9.69 3.49,-3.25 5.62,-5.45 6.41,-6.61 1.06,-1.6 1.59,-3.17 1.59,-4.74 0,-1.73 -0.46,-3.05 -1.39,-3.98 -0.92,-0.93 -2.19,-1.39 -3.82,-1.39 -1.61,0 -2.89,0.49 -3.85,1.46 -0.95,0.97 -1.49,2.59 -1.64,4.85l-7.72 -0.77c0.46,-4.26 1.9,-7.32 4.32,-9.18 2.42,-1.85 5.45,-2.78 9.08,-2.78 3.98,0 7.11,1.08 9.39,3.23 2.27,2.15 3.4,4.82 3.4,8.02 0,1.83 -0.32,3.55 -0.97,5.21 -0.65,1.64 -1.68,3.36 -3.1,5.16 -0.93,1.2 -2.63,2.92 -5.07,5.16 -2.45,2.25 -4,3.73 -4.65,4.47 -0.65,0.73 -1.18,1.45 -1.58,2.15l15.37 0z"/>
   <path id="_2_3" fill="#FEFEFE" fill-rule="nonzero" d="M1588.45 222.9l0 -8.11 -16.45 0 0 -6.73 17.44 -25.65 6.5 0 0 25.62 5.01 0 0 6.76 -5.01 0 0 8.11 -7.49 0zm0 -14.87l0 -13.77 -9.22 13.77 9.22 0z"/>
   <path id="_3_4" fill="#FEFEFE" fill-rule="nonzero" d="M1604.68 192.46c0,-3.61 0.8,-6.27 2.38,-8.01 1.59,-1.73 3.74,-2.61 6.45,-2.61 2.81,0 5.01,0.87 6.59,2.59 1.59,1.73 2.38,4.41 2.38,8.03 0,3.6 -0.79,6.27 -2.38,8.01 -1.58,1.73 -3.74,2.61 -6.46,2.61 -2.8,0 -4.99,-0.87 -6.58,-2.59 -1.58,-1.73 -2.38,-4.41 -2.38,-8.03zm6.02 0c0,2.6 0.31,4.35 0.92,5.24 0.46,0.66 1.09,0.98 1.9,0.98 0.83,0 1.47,-0.32 1.93,-0.98 0.6,-0.89 0.89,-2.64 0.89,-5.24 0,-2.6 -0.29,-4.34 -0.89,-5.21 -0.46,-0.68 -1.1,-1.01 -1.93,-1.01 -0.81,0 -1.44,0.32 -1.9,0.98 -0.61,0.89 -0.92,2.64 -0.92,5.24zm8.71 32.02l-5.72 0 21.47 -42.64 5.59 0 -21.34 42.64zm12.47 -10.64c0,-3.61 0.8,-6.29 2.39,-8.03 1.58,-1.75 3.75,-2.62 6.5,-2.62 2.77,0 4.95,0.87 6.54,2.62 1.58,1.74 2.37,4.42 2.37,8.03 0,3.65 -0.79,6.33 -2.37,8.08 -1.59,1.74 -3.75,2.62 -6.46,2.62 -2.81,0 -5,-0.88 -6.58,-2.62 -1.59,-1.75 -2.39,-4.43 -2.39,-8.08zm6.03 0.02c0,2.63 0.3,4.39 0.91,5.26 0.46,0.69 1.1,1.02 1.91,1.02 0.82,0 1.46,-0.33 1.9,-0.99 0.61,-0.89 0.91,-2.66 0.91,-5.29 0,-2.63 -0.29,-4.39 -0.88,-5.28 -0.46,-0.67 -1.11,-1 -1.93,-1 -0.83,0 -1.47,0.33 -1.91,1 -0.61,0.89 -0.91,2.65 -0.91,5.28z"/>
   <ellipse fill="#303791" stroke="#857DFF" stroke-width="32.19" stroke-miterlimit="2.61313" cx="618.71" cy="1179.07" rx="152.17" ry="147.45"/>
   <polygon fill="#FEFEFE" points="569.09,1097.91 706.31,1182.1 570.02,1261.37 "/>
   <ellipse fill="#303791" stroke="#857DFF" stroke-width="32.19" stroke-miterlimit="2.61313" cx="1205.28" cy="163.54" rx="152.17" ry="147.45"/>
   <path fill="#FEFEFE" d="M1264.89 219.52c-0.57,-3.25 1.95,-6.79 5.4,-7.29 3.74,-0.54 6.89,2.35 7.25,5.56 0.42,3.78 -2.25,6.77 -5.46,7.22 -3.9,0.56 -6.66,-2.41 -7.19,-5.49zm-66.71 -0.59c-0.95,8.92 -13.11,7.57 -12.69,-0.81 0.22,-4.42 5.24,-7.44 9.28,-5.21 0.38,0.21 0.67,0.42 0.99,0.64 1.4,1 2.64,3.4 2.42,5.38zm53.39 -49.26c0.17,-1.78 0.23,-3.04 0.37,-4.76 0.27,-3.25 0.54,-6.31 0.74,-9.54l29.04 0.21c0.01,0.03 0.01,0.07 0.02,0.1 0,0.16 -5.56,18.37 -5.78,18.69l-24.7 -0.04 0.31 -4.66zm-7.35 4.59c-0.13,0.13 -0.46,0.11 -0.69,0.11 -3.51,0.05 -24.13,0.1 -24.82,-0.04 -0.11,-0.46 -0.18,-1.77 -0.22,-2.47 -0.14,-2.44 -1.35,-15.66 -1.19,-16.59 4.75,0 9.5,0 14.24,0 2.41,0 4.81,0 7.21,0 8.49,-0.02 7.04,-0.63 6.85,2.38l-1.38 16.61zm-63.69 -18.89l29.75 0.01 1.41 18.99 -24.08 -0.02c-0.36,-0.68 -0.61,-1.57 -0.91,-2.32 -1.02,-2.54 -6.12,-15.82 -6.17,-16.66zm36.11 -7.11c-0.17,-2.55 -1.69,-20.49 -1.55,-21.3l32.85 0.01 -1.65 21.31 -29.65 -0.02zm36.63 0.02c0,-0.31 0,-0.55 0.03,-0.87l0.16 -1.86c0.04,-0.97 0.14,-1.83 0.23,-2.7 0.23,-2.32 0.21,-4.9 0.46,-6.82l0.75 -9.07 35.66 0.02 -6.57 21.3 -30.72 0zm-45.19 -21.33l1.63 21.33 -32.02 -0.03c-0.2,-0.8 -0.7,-1.92 -1,-2.73l-3.01 -7.94c-0.8,-2.14 -3.89,-10.08 -3.93,-10.62l38.33 -0.01zm-58.61 -14.43c0.62,1.79 1.41,3.79 2.11,5.56 0.71,1.8 1.32,3.67 2.05,5.48 1.53,3.77 2.74,7.24 4.15,10.98 2.68,7.14 5.65,14.91 8.29,21.92 2.73,7.25 5.56,14.7 8.28,21.99 0.19,0.52 8.17,21.37 8.25,21.99 -0.18,0.18 -2.61,1.53 -4.29,3.06 -4.11,3.73 -6.61,9.19 -6.61,15.43 0.01,12.56 11.58,21.98 23.78,19.76 5.61,-1.02 10.15,-4.32 13.14,-8.83 1.56,-2.35 2.67,-5.11 3.1,-7.98 0.17,-1.16 0.23,-2.14 0.22,-3.41 0,-4.06 -0.72,-4.56 -0.96,-6.31l41.07 0.01c-0.14,0.87 -0.46,1.74 -0.64,2.69 -1.21,6.43 0.65,12.19 4.52,17.03 4.09,5.12 11.35,7.95 18.27,6.9 14.13,-2.14 21.73,-18.32 14.21,-30.78 -2.88,-4.76 -8.32,-9.19 -15.72,-9.74 -2.01,-0.15 -4.34,-0.07 -6.37,-0.07l-57.11 0.01c-2.19,-0.01 -11.19,0.12 -12.58,-0.01 -0.46,-0.69 -0.93,-2.31 -1.26,-3.22l-0.67 -1.77c-0.32,-0.82 -1.78,-4.37 -1.73,-4.93 29.34,-0.13 58.76,-0.01 88.11,0 1.63,0 2.92,-0.49 3.96,-1.21 2.3,-1.61 2.53,-3.66 3.57,-6.78 1.21,-3.63 2.47,-8.03 3.68,-11.91l4.85 -15.84c0.13,-0.39 0.21,-0.62 0.31,-0.98 0.11,-0.38 0.18,-0.59 0.3,-0.97l3.68 -11.9c0.01,-0.04 0.04,-0.14 0.05,-0.18l0.24 -0.79c0.09,-0.31 0.19,-0.68 0.29,-1.04 1.04,-3.65 2.5,-8.05 3.68,-11.89 0.86,-2.83 2,-5.36 0.21,-8.36 -1.66,-2.77 -3.87,-3.41 -6.91,-3.41l-51.75 -0.01c-13.8,0.02 -27.6,0.03 -41.4,0.01 -6.9,-0.01 -13.8,-0.01 -20.7,0 -1.96,0 -19.23,0.1 -20.71,-0.04l-6.27 -16.52c-1.33,-3.59 -2.13,-7.46 -6.84,-8.25 -1.72,-0.29 -5.49,-0.04 -7.46,-0.04 -5.04,0 -10.09,-0.04 -15.12,-0.03 -2.58,0.01 -4.16,0.68 -5.58,1.94 -2.62,2.32 -3.06,7.52 0.48,10.45 1.69,1.41 3.13,1.57 6.03,1.57 5.03,0 10.09,0.05 15.13,0 0.92,-0.01 0.78,0.07 1.05,0.86l1.54 4.04c0.72,1.92 1.42,3.65 2.08,5.52z"/>
   <ellipse fill="#303791" stroke="#857DFF" stroke-width="32.19" stroke-miterlimit="2.61313" cx="168.27" cy="241.75" rx="152.17" ry="147.45"/>
   <path fill="#FEFEFE" stroke="white" stroke-width="6.04" stroke-miterlimit="2.61313" d="M118.63 281.74c-10.9,-7.63 -24.49,-22.75 -25.07,-42.52 -1.61,-54.65 80.39,-79.15 125.88,-43.78 11.56,8.99 23.77,23.28 23.6,44.18 -0.15,19.89 -13.82,35.55 -24.81,42.96 -23.08,15.55 -52.42,19.04 -81.23,8.84 -1.85,-0.66 -4.34,-2.33 -6.11,-1.76 -3.76,1.2 -15.34,6.69 -18.22,7 0.62,-2.27 2.13,-5.32 3.01,-7.35 0.84,-1.95 2.59,-5.62 2.95,-7.57zm-34.32 -50.95c-0.09,1.71 0.23,1.27 -0.64,2.09l0 8.56c0.89,1.45 0.61,2.99 0.79,5.16 1.43,11.27 8.09,22.87 14.84,30.78 2.47,2.88 4.74,4.79 7.37,7.42 -0.1,1.89 -4.94,12.29 -5.99,14.94l-6.05 14.63 24.91 -9.72c1.69,-0.66 11.46,-4.67 12.53,-4.59 4.65,0.37 30.29,14.94 71.95,0.75 8.38,-2.84 15.59,-7.28 22.35,-12.15 5.95,-4.28 12.55,-11.39 16.55,-17.52 21.3,-32.65 6.6,-71.03 -27.11,-89.73 -24.44,-13.56 -55.61,-16.41 -84.14,-5.91 -22.69,8.35 -46.19,30.28 -47.36,55.29z"/>
   <path fill="white" d="M210.11 228.25c3.08,0 7.57,-0.11 7.92,-5.06 0.28,-3.96 -2.99,-5.96 -4.7,-5.96l-75.33 -0.01c-8.96,0.01 -8.84,10.99 -0.03,11.05l72.14 -0.02z"/>
   <path fill="white" d="M134.93 248.41c-5.69,2.33 -4.34,9.72 1.66,10.34 5.18,0.53 54.48,-0.03 55.37,-0.41 4.38,-1.88 4.84,-9.73 -2.05,-10.42 -5.38,-0.55 -53.51,-0.12 -54.98,0.49z"/>
   <ellipse fill="#303791" stroke="#857DFF" stroke-width="32.19" stroke-miterlimit="2.61313" cx="378.79" cy="746.71" rx="152.17" ry="147.45"/>
   <path fill="#FEFEFE" d="M310.05 729.78l132.52 -0.01c-0.33,13.07 -0.02,26.5 -0.02,39.55 0,6.62 0,13.24 0,19.86 0,8.72 1.05,15.41 -2.4,22.35 -0.5,1.01 -1.74,2.91 -2.49,3.72 -1.39,1.5 -2.92,2.88 -4.69,4 -5.39,3.4 -10.5,3.01 -16.76,3.01l-79.45 0c-9.28,0 -12.85,0.27 -19.07,-4.44 -0.36,-0.27 -0.33,-0.19 -0.7,-0.55 -8.55,-8.12 -6.92,-15.6 -6.92,-27.91l-0.02 -59.58zm0.2 -13.59c-0.68,-1.4 0.02,-9.7 0.42,-11.08 0.56,-1.93 1.58,-4.55 2.62,-6.07 1.51,-2.2 1.55,-2.1 3.38,-3.9 1.23,-1.21 2.54,-2.18 4.13,-2.97 5.77,-2.87 8.79,-2.34 14.7,-2.4 0.08,3.23 -0.38,6.84 0.83,9.22 1.72,3.38 6.23,4.8 9.81,2.39 4,-2.7 2.84,-6.84 2.96,-11.59l20.45 -0.01c0.08,3.52 -0.43,6.64 0.75,9.09 0.49,1 0.37,0.75 1.08,1.42 1.17,1.1 1.75,2.29 4.92,2.27 1.56,-0.01 2.94,-0.39 3.8,-1.11 3.93,-3.3 2.82,-5.76 2.96,-11.69 6.57,0.14 14.25,-0.24 20.38,0.13 0.74,2.42 -0.74,6.44 0.83,9.08 0.23,0.39 0.71,1.13 1.02,1.46 1.77,1.92 4.74,2.68 7.19,1.85 5.67,-1.93 4.53,-8.45 4.63,-12.51 6.27,0.03 10.32,-0.39 16.05,3.17 0.33,0.21 0.57,0.33 0.88,0.55 0.38,0.26 0.49,0.43 0.87,0.73 0.4,0.3 0.43,0.33 0.78,0.64l1.51 1.51c4.24,4.61 5.35,9.25 5.35,15.67 0,4.75 0.35,4.17 -1.51,4.17 -43.5,0.01 -87.34,0.17 -130.79,-0.02zm-13.75 87c0,0.44 0.27,3.04 0.38,3.69 0.18,1 0.45,2.29 0.73,3.36 3.17,11.97 12.46,21.42 24.47,24.47 1.94,0.5 5.09,1.11 7.05,1.11l94.35 0c0.55,0 2.9,-0.28 3.68,-0.39 3.02,-0.44 6.82,-1.55 9.39,-2.85l2.76 -1.49c0.04,-0.02 0.08,-0.04 0.12,-0.06 0.03,-0.02 0.07,-0.05 0.11,-0.07l7.63 -6.2c0.3,-0.31 0.26,-0.26 0.49,-0.58 0.17,-0.24 0.15,-0.27 0.36,-0.52 1.95,-2.37 3.41,-4.56 4.84,-7.4 1.78,-3.53 3.24,-8.93 3.25,-13.07l0 -94.35c0,-1.98 -0.49,-4.6 -0.95,-6.48l-1.84 -5.45 -2.7 -5.11c-1.59,-2.31 -2.51,-3.13 -3.4,-4.39 -1.77,-2.53 -6.79,-6.02 -9.48,-7.37 -0.55,-0.27 -0.88,-0.45 -1.42,-0.7 -0.94,-0.45 -2.15,-0.9 -3.19,-1.25 -5.56,-1.87 -9.54,-1.85 -16.03,-1.88 -0.02,-3.67 0.71,-8.7 -0.7,-11.72l-0.53 -0.88c-1.8,-2.87 -5.85,-3.73 -8.78,-2.19 -2.79,1.47 -3.56,3.83 -3.56,7.34l0.01 7.45 -20.5 0c0,-2.44 0.41,-8.95 -0.24,-10.74 -1.44,-4 -5.73,-6.12 -9.58,-4.05l-0.23 0.13c-0.03,0.02 -0.08,0.05 -0.11,0.07 -1.59,0.97 -3.32,2.83 -3.32,5.02l0 9.57 -20.48 -0.01 0.01 -7.61c0.01,-3.1 -0.56,-4.89 -2.58,-6.55 -0.35,-0.29 -0.62,-0.43 -1.11,-0.68 -0.97,-0.49 -2.35,-0.75 -3.5,-0.75 -3.04,0 -6.39,3.3 -6.39,6.38l0 9.22c-7.12,0 -12.76,-0.06 -19.45,3.25 -1.6,0.79 -3.83,1.98 -5.15,3.01 -0.49,0.39 -0.63,0.55 -1.18,0.93l-3.21 2.84c-2.22,2.38 -3.65,4.17 -5.32,6.92l-1.43 2.65c-0.17,0.42 -0.17,0.4 -0.32,0.73 -1.66,3.58 -2.95,8.37 -2.95,12.3l0 94.35z"/>
   <path fill="#FEFEFE" d="M368.79 746.9c-3.13,1.25 -2.5,3.66 -2.5,7.35 -0.01,3.83 -0.73,9.76 1.01,11.48 1.56,1.54 4.05,1.11 6.52,1.11 1.99,0 8.52,0.23 9.96,-0.15 1.1,-0.3 2.03,-1.32 2.41,-2.55 0.29,-0.93 0.22,-14.01 0.03,-14.67 -0.95,-3.31 -3.84,-2.76 -7.43,-2.76 -1.84,0 -8.84,-0.27 -10,0.19z"/>
   <path fill="#FEFEFE" d="M333.56 780.8c-1.26,0.34 -2.16,1.08 -2.56,2.43 -0.24,0.82 -0.18,3.8 -0.18,4.89 0,2.24 -0.3,8.29 0.22,9.97 0.4,1.26 1.24,2.1 2.47,2.48 1.14,0.36 13.95,0.23 14.8,-0.02 1.26,-0.36 1.51,-0.72 2.08,-1.63 0.91,-1.45 0.55,-3.09 0.55,-5.66 0,-1.89 0.22,-8.72 -0.13,-9.98 -0.93,-3.31 -4.56,-2.61 -7.32,-2.61 -2.08,0 -8.43,-0.26 -9.93,0.13z"/>
   <path fill="#FEFEFE" d="M330.81 753.36l0.01 7.8c-0.01,4.25 0.67,5.68 5.4,5.68l10.29 0c1.55,0 2.5,-0.26 3.28,-0.98 1.14,-1.05 1.15,-2.23 1.15,-3.99l0.01 -11.35c-0.01,-2.92 -1.99,-3.81 -4.62,-3.81l-10.64 0c-2.39,0 -2.95,0.17 -4.13,1.62 -0.57,0.7 -0.67,0.98 -0.66,2.18 0,1 -0.09,1.95 -0.09,2.85z"/>
   <path fill="#FEFEFE" d="M369.03 780.8c-3.33,0.88 -2.74,3.58 -2.74,7.32 0,1.67 -0.2,9 0.13,10.05 0.24,0.74 0.61,0.99 1.05,1.44 1.65,1.69 3.23,1.1 6.35,1.1 2.07,0 8.49,0.31 9.94,-0.18 1.19,-0.4 2.13,-1.37 2.46,-2.5 0.27,-0.9 0.18,-13.9 -0.04,-14.64 -1.06,-3.5 -4.04,-2.72 -7.22,-2.72 -2,0 -8.53,-0.24 -9.93,0.13z"/>
   <path fill="#FEFEFE" d="M401.66 752.65l0 10.29c0,3.36 2.37,3.9 4.97,3.9l9.93 0c1.86,0 3.48,-0.2 4.35,-1.33 1.1,-1.42 0.8,-2.88 0.8,-5.23 -0.01,-1.79 0.28,-9.76 -0.13,-10.88 -0.15,-0.4 -0.59,-1.14 -0.86,-1.44 -0.94,-1.06 -1.58,-1.25 -3.45,-1.25l-10.99 0c-4.99,0 -4.62,3.04 -4.62,5.94z"/>
   <path fill="#FEFEFE" d="M405.03 800.71l13.48 0c0.96,0 2.04,-0.84 2.54,-1.53 0.77,-1.07 0.75,-2.67 0.75,-4.15l-0.1 -11.52c0.01,-0.55 -1.08,-2.53 -2.87,-2.8l-11.49 -0.04c-2.36,0 -3.34,-0.32 -4.69,1.16 -1.26,1.38 -0.99,2.54 -0.99,4.69 0,1.95 0,3.9 0,5.85 0,2.85 -0.56,5.8 1.25,7.45 0.35,0.32 1.43,0.89 2.12,0.89z"/>
   <path fill="#FEFEFE" fill-rule="nonzero" d="M737.08 424.56l14.86 0c3.35,0 5.9,0.26 7.66,0.77 2.35,0.7 4.38,1.94 6.06,3.72 1.69,1.77 2.97,3.95 3.85,6.53 0.87,2.58 1.31,5.76 1.31,9.53 0,3.32 -0.41,6.18 -1.24,8.58 -1,2.94 -2.44,5.32 -4.3,7.13 -1.41,1.38 -3.32,2.45 -5.71,3.22 -1.8,0.57 -4.19,0.85 -7.19,0.85l-15.3 0 0 -40.33zm8.17 6.82l0 26.7 6.06 0c2.26,0 3.89,-0.14 4.9,-0.39 1.32,-0.33 2.41,-0.89 3.27,-1.68 0.88,-0.79 1.58,-2.08 2.12,-3.89 0.56,-1.8 0.83,-4.27 0.83,-7.38 0,-3.12 -0.27,-5.51 -0.83,-7.18 -0.54,-1.67 -1.31,-2.96 -2.3,-3.9 -0.98,-0.93 -2.23,-1.57 -3.75,-1.9 -1.13,-0.25 -3.35,-0.38 -6.66,-0.38l-3.64 0z"/>
   <path id="_1_5" fill="#FEFEFE" fill-rule="nonzero" d="M814.09 464.89l-8.8 0 -3.48 -9.18 -16.17 0 -3.36 9.18 -8.63 0 15.66 -40.33 8.62 0 16.16 40.33zm-14.93 -15.99l-5.6 -14.93 -5.45 14.93 11.05 0z"/>
   <path id="_2_6" fill="#FEFEFE" fill-rule="nonzero" d="M818.44 424.56l8.16 0 0 21.86c0,3.47 0.11,5.71 0.3,6.74 0.35,1.65 1.17,2.98 2.46,3.98 1.31,1 3.08,1.5 5.33,1.5 2.29,0 4.01,-0.47 5.18,-1.42 1.16,-0.95 1.86,-2.1 2.09,-3.48 0.23,-1.38 0.36,-3.66 0.36,-6.85l0 -22.33 8.16 0 0 21.21c0,4.84 -0.21,8.27 -0.65,10.27 -0.44,2 -1.25,3.69 -2.43,5.07 -1.18,1.38 -2.75,2.47 -4.73,3.28 -1.98,0.82 -4.55,1.23 -7.73,1.23 -3.84,0 -6.75,-0.44 -8.73,-1.33 -1.98,-0.89 -3.55,-2.05 -4.7,-3.47 -1.16,-1.43 -1.91,-2.91 -2.28,-4.48 -0.53,-2.31 -0.79,-5.73 -0.79,-10.24l0 -21.54z"/>
   <polygon id="_3_7" fill="#FEFEFE" fill-rule="nonzero" points="883.55,459.09 883.55,448.61 872.96,448.61 872.96,441.4 883.55,441.4 883.55,430.93 890.59,430.93 890.59,441.4 901.18,441.4 901.18,448.61 890.59,448.61 890.59,459.09 "/>
   <path id="_4_8" fill="#FEFEFE" fill-rule="nonzero" d="M932.04 457.74l0 7.15 -27.09 0c0.29,-2.72 1.17,-5.29 2.64,-7.73 1.46,-2.43 4.36,-5.66 8.68,-9.68 3.48,-3.25 5.61,-5.46 6.4,-6.61 1.06,-1.6 1.6,-3.17 1.6,-4.74 0,-1.73 -0.46,-3.05 -1.39,-3.98 -0.92,-0.93 -2.2,-1.39 -3.82,-1.39 -1.62,0 -2.89,0.49 -3.85,1.46 -0.95,0.97 -1.49,2.58 -1.64,4.85l-7.72 -0.77c0.46,-4.26 1.9,-7.33 4.32,-9.18 2.42,-1.85 5.44,-2.78 9.08,-2.78 3.98,0 7.1,1.08 9.38,3.23 2.28,2.15 3.41,4.82 3.41,8.02 0,1.82 -0.33,3.55 -0.97,5.2 -0.65,1.65 -1.69,3.36 -3.1,5.17 -0.93,1.2 -2.63,2.92 -5.07,5.16 -2.45,2.24 -4,3.73 -4.65,4.47 -0.65,0.73 -1.18,1.45 -1.58,2.15l15.37 0z"/>
   <path id="_5_9" fill="#FEFEFE" fill-rule="nonzero" d="M937.29 434.45c0,-3.61 0.8,-6.27 2.38,-8.01 1.59,-1.74 3.74,-2.61 6.45,-2.61 2.81,0 5.01,0.86 6.59,2.59 1.59,1.73 2.38,4.4 2.38,8.03 0,3.6 -0.79,6.27 -2.38,8.01 -1.58,1.73 -3.74,2.6 -6.45,2.6 -2.81,0 -5,-0.86 -6.59,-2.59 -1.58,-1.72 -2.38,-4.4 -2.38,-8.02zm6.03 0c0,2.6 0.3,4.34 0.91,5.24 0.46,0.65 1.1,0.98 1.9,0.98 0.83,0 1.48,-0.33 1.94,-0.98 0.59,-0.9 0.88,-2.64 0.88,-5.24 0,-2.6 -0.29,-4.34 -0.88,-5.21 -0.46,-0.68 -1.11,-1.02 -1.94,-1.02 -0.8,0 -1.44,0.33 -1.9,0.99 -0.61,0.89 -0.91,2.64 -0.91,5.24zm8.7 32.02l-5.72 0 21.47 -42.64 5.6 0 -21.35 42.64zm12.48 -10.64c0,-3.61 0.79,-6.29 2.38,-8.03 1.59,-1.75 3.75,-2.62 6.5,-2.62 2.77,0 4.95,0.87 6.54,2.62 1.58,1.74 2.37,4.42 2.37,8.03 0,3.64 -0.79,6.33 -2.37,8.08 -1.59,1.74 -3.75,2.61 -6.46,2.61 -2.81,0 -4.99,-0.87 -6.58,-2.61 -1.59,-1.75 -2.38,-4.44 -2.38,-8.08zm6.02 0.02c0,2.63 0.3,4.38 0.91,5.26 0.46,0.68 1.1,1.02 1.91,1.02 0.82,0 1.46,-0.33 1.9,-0.99 0.61,-0.9 0.91,-2.66 0.91,-5.29 0,-2.63 -0.29,-4.39 -0.88,-5.28 -0.46,-0.67 -1.11,-1 -1.93,-1 -0.83,0 -1.47,0.33 -1.91,1 -0.61,0.89 -0.91,2.65 -0.91,5.28z"/>
  </g>
 </g>
</svg>
