<?xml version="1.0" encoding="UTF-8"?>
<!DOCTYPE svg PUBLIC "-//W3C//DTD SVG 1.1//EN" "http://www.w3.org/Graphics/SVG/1.1/DTD/svg11.dtd">
<!-- Creator: CorelDRAW -->
<svg xmlns="http://www.w3.org/2000/svg" xml:space="preserve" width="1490px" height="1433px" version="1.1" shape-rendering="geometricPrecision" text-rendering="geometricPrecision" image-rendering="optimizeQuality" fill-rule="evenodd" clip-rule="evenodd"
viewBox="0 0 1290.14 1240.76"
 xmlns:xlink="http://www.w3.org/1999/xlink"
 xmlns:xodm="http://www.corel.com/coreldraw/odm/2003">
 <g id="Layer_x0020_1">
  <metadata id="CorelCorpID_0Corel-Layer"/>
  <g id="_2229520237840">
   <g>
    <path fill="#7D95FF" fill-rule="nonzero" d="M888.44 389.45l-1.5 10.72 0 0 -8.25 -1.33 -7.86 -1.62 -7.51 -1.9 -7.17 -2.18 -6.83 -2.43 -6.52 -2.68 -6.23 -2.91 -5.94 -3.15 -5.68 -3.36 -5.43 -3.56 -5.2 -3.75 -4.98 -3.92 -4.78 -4.09 -4.6 -4.24 -4.44 -4.38 -4.3 -4.5 -4.18 -4.62 -4.07 -4.71 -3.99 -4.81 -3.92 -4.89 -3.88 -4.97 -3.85 -5.02 -3.85 -5.07 -3.86 -5.11 -3.88 -5.14 -3.94 -5.16 -4.01 -5.17 -4.09 -5.17 -4.2 -5.17 -4.33 -5.14 -4.46 -5.13 -4.63 -5.09 7.93 -7.37 4.78 5.26 4.61 5.29 4.44 5.29 4.3 5.29 4.17 5.27 4.07 5.24 3.98 5.21 3.9 5.17 3.85 5.1 3.83 5.04 3.8 4.96 3.81 4.86 3.82 4.77 3.87 4.66 3.92 4.54 3.99 4.42 4.09 4.28 4.19 4.13 4.32 3.98 4.46 3.82 4.63 3.65 4.82 3.47 5.01 3.29 5.24 3.1 5.49 2.91 5.75 2.69 6.03 2.48 6.35 2.26 6.68 2.02 7.03 1.78 7.41 1.53 7.79 1.26 0 0zm53 18.37l-54.5 -7.65 1.5 -10.72 54.5 7.65 -1.5 10.72zm0.27 -34.01l47.01 35.17 -54.88 20.88 7.87 -56.05z"/>
   </g>
   <line fill="none" stroke="#7D95FF" stroke-width="10.83" stroke-miterlimit="2.61313" x1="791.29" y1="161.25" x2="1023.31" y2= "312.55" />
   <g>
    <path fill="#7D95FF" fill-rule="nonzero" d="M712.87 601.54l-7.57 -7.74 0 0 7.53 -7.14 7.72 -6.93 7.9 -6.71 8.06 -6.51 8.23 -6.32 8.38 -6.15 8.52 -5.97 8.65 -5.81 8.78 -5.66 8.88 -5.52 8.99 -5.39 9.08 -5.27 9.16 -5.15 9.23 -5.06 9.3 -4.97 9.35 -4.88 9.4 -4.82 9.43 -4.75 9.46 -4.7 9.48 -4.66 9.48 -4.63 9.48 -4.6 9.47 -4.59 9.44 -4.59 9.42 -4.59 9.37 -4.61 9.32 -4.64 9.27 -4.67 9.19 -4.71 9.12 -4.77 9.02 -4.83 8.93 -4.9 5.27 9.46 -9.04 4.96 -9.12 4.88 -9.2 4.81 -9.27 4.75 -9.32 4.7 -9.37 4.66 -9.41 4.63 -9.44 4.6 -9.46 4.6 -9.46 4.59 -9.47 4.6 -9.46 4.61 -9.44 4.64 -9.41 4.68 -9.37 4.72 -9.33 4.78 -9.27 4.84 -9.21 4.92 -9.13 5 -9.04 5.09 -8.95 5.2 -8.85 5.3 -8.73 5.43 -8.61 5.56 -8.48 5.69 -8.34 5.84 -8.19 6.01 -8.03 6.16 -7.86 6.35 -7.68 6.53 -7.5 6.72 -7.3 6.93 0 0zm-202.2 317.14l-5.38 -9.39 0 0 8.1 -5.11 7.78 -5.82 7.5 -6.51 7.22 -7.15 6.96 -7.75 6.73 -8.33 6.51 -8.85 6.3 -9.33 6.11 -9.78 5.95 -10.17 5.8 -10.53 5.67 -10.84 5.56 -11.1 5.47 -11.33 5.4 -11.51 5.36 -11.64 5.33 -11.74 5.33 -11.78 5.35 -11.79 5.39 -11.76 5.45 -11.67 5.53 -11.55 5.64 -11.39 5.78 -11.18 5.92 -10.93 6.11 -10.64 6.31 -10.31 6.53 -9.93 6.79 -9.51 7.06 -9.04 7.37 -8.54 7.7 -7.98 7.57 7.74 -7.27 7.54 -7 8.11 -6.76 8.65 -6.53 9.15 -6.32 9.61 -6.14 10.03 -5.96 10.39 -5.81 10.72 -5.69 11 -5.57 11.25 -5.48 11.44 -5.41 11.59 -5.36 11.7 -5.33 11.76 -5.33 11.79 -5.35 11.77 -5.39 11.71 -5.45 11.59 -5.53 11.46 -5.63 11.25 -5.77 11.03 -5.92 10.75 -6.1 10.44 -6.3 10.07 -6.53 9.67 -6.78 9.22 -7.06 8.74 -7.37 8.2 -7.7 7.62 -8.06 6.99 -8.45 6.32 -8.85 5.58 0 0zm-48.68 15.44l43.3 -24.83 5.38 9.39 -43.3 24.83 -5.38 -9.39zm20.64 27.03l-58.71 1.05 30.55 -50.15 28.16 49.1z"/>
   </g>
   <g>
    <path fill="#7D95FF" fill-rule="nonzero" d="M883 735.34l-5.9 -9.08 0 0 6.95 -4.69 6.78 -4.91 6.6 -5.12 6.45 -5.32 6.3 -5.49 6.15 -5.68 6.03 -5.84 5.89 -6 5.79 -6.14 5.68 -6.28 5.58 -6.41 5.49 -6.52 5.42 -6.62 5.34 -6.72 5.28 -6.81 5.23 -6.88 5.19 -6.94 5.15 -6.99 5.12 -7.04 5.11 -7.07 5.1 -7.09 5.1 -7.1 5.12 -7.1 5.13 -7.09 5.17 -7.06 5.2 -7.04 5.25 -6.99 5.31 -6.94 5.38 -6.88 5.45 -6.79 5.55 -6.72 5.63 -6.62 8.19 7.09 -5.53 6.48 -5.44 6.6 -5.36 6.69 -5.3 6.77 -5.25 6.86 -5.2 6.92 -5.16 6.98 -5.13 7.02 -5.12 7.06 -5.1 7.09 -5.1 7.09 -5.11 7.1 -5.13 7.1 -5.15 7.07 -5.19 7.05 -5.23 7.01 -5.29 6.96 -5.36 6.89 -5.42 6.83 -5.52 6.75 -5.6 6.65 -5.71 6.55 -5.81 6.43 -5.94 6.31 -6.08 6.17 -6.21 6.03 -6.36 5.86 -6.53 5.7 -6.69 5.52 -6.87 5.32 -7.06 5.12 -7.26 4.9 0 0zm-394.54 243.9l388.64 -252.98 5.9 9.08 -388.63 252.98 -5.91 -9.08zm22.13 25.83l-58.56 4.35 27.68 -51.79 30.88 47.44z"/>
   </g>
   <line fill="none" stroke="#7D95FF" stroke-width="10.83" stroke-miterlimit="2.61313" x1="1134.71" y1="785.46" x2="1156.61" y2= "543.09" />
   <ellipse fill="#303791" stroke="#857DFF" stroke-width="28.87" stroke-miterlimit="2.61313" cx="1139.2" cy="403.95" rx="136.51" ry="132.27"/>
   <rect fill="#8AA2FD" stroke="#8AA2FD" stroke-width="1.8" stroke-miterlimit="2.61313" x="118.33" y="925.19" width="12.59" height="22.52"/>
   <path fill="none" stroke="#8AA2FD" stroke-width="14.44" stroke-miterlimit="2.61313" d="M157.81 861.14c-13.89,17.6 -26.95,41.11 -47.11,50.89l-54.53 26.47"/>
   <path fill="black" d="M1046.7 901.68l2.26 6.16 23.04 26.15c2.83,2.82 7.6,6.22 8.86,9.7 3.59,-1.28 -0.09,0.06 2.5,-1.2 0.69,-0.34 1.75,-0.81 2.46,-1.26 1.4,-0.87 2.61,-2.15 3.93,-3.49 2.76,-2.81 4.66,-4.7 7.4,-7.45l15.91 -17.5c3.34,-6.85 4.42,-5.29 4.93,-8.99 1.93,-14.12 -1.82,-14.85 -6.41,-19.59 -1.1,-1.14 -0.74,-1.02 -1.83,-1.89 -5.64,-4.55 -4.7,1.16 -6.62,-3.59l-4.98 1.5c-0.26,0.13 -0.95,0.53 -1.2,0.66l-1.23 0.63c-7.67,3.93 -5.34,5.54 -13.01,8.35 -0.82,-2.04 0.09,-0.96 -3.68,-2.82 -9.1,-4.47 -2.96,-3.78 -8.74,-6.11 -8.1,-3.26 -7.57,-2.11 -11.23,-0.84 -0.24,0.08 -0.48,0.15 -0.72,0.23l-5.84 3.45c-4.29,4.38 -3.86,5.64 -5.8,10.98 -0.1,0.28 -0.48,1.07 -0.56,1.36 -0.59,1.91 -0.86,0.82 -0.24,3.51 0.69,3.05 -0.09,-0.4 0.8,2.05z"/>
   <path fill="black" d="M280.79 1094.06c2.82,-0.07 3.6,-0.8 6.2,-2.15l7.43 -3.71c2.82,-1.67 1.79,-1.9 6.14,-4.07l16.73 -9.26c0.77,-0.49 0.72,-0.54 1.58,-1.2l5.84 -3.44c0.19,-0.1 0.43,-0.22 0.62,-0.31 0.26,-0.13 0.99,-0.49 1.25,-0.61l3.12 -1.52c1.26,-0.73 0.43,-0.21 1.66,-1.12l8.19 -4.81c0.42,-0.27 1.24,-1 2.08,-1.63l5.98 -3.3c-0.08,-3.83 -1.13,-4.46 -4.92,-6.21 -6.9,-3.18 -3.45,-2.49 -8.04,-4.95 -0.25,-0.14 -1,-0.48 -1.25,-0.61 -0.2,-0.09 -0.44,-0.2 -0.64,-0.29l-6.79 -4.34c-0.12,-0.07 -1.78,-0.9 -1.86,-0.93l-4.22 -2.28c-0.1,-0.07 -1.98,-1.58 -2.06,-1.64l-1.14 -0.73c-0.17,-0.1 -0.42,-0.22 -0.6,-0.32l-26.63 -16.07c-4.22,-2.14 -3.69,-2.46 -8.67,-2.46l0 77.96z"/>
   <path fill="#FDFDFD" d="M1082.71 889.87c7.67,-2.81 5.34,-4.42 13.01,-8.35l1.23 -0.63c0.25,-0.13 0.94,-0.53 1.2,-0.66l4.98 -1.5c1.92,4.75 0.98,-0.96 6.62,3.59 1.09,0.87 0.73,0.75 1.83,1.89 4.59,4.74 8.34,5.47 6.41,19.59 -0.51,3.7 -1.59,2.14 -4.93,8.99l-15.91 17.5c-2.74,2.75 -4.64,4.64 -7.4,7.45 -1.32,1.34 -2.53,2.62 -3.93,3.49 -0.71,0.45 -1.77,0.92 -2.46,1.26 -2.59,1.26 1.09,-0.08 -2.5,1.2 -1.26,-3.48 -6.03,-6.88 -8.86,-9.7l-23.04 -26.15 -2.26 -6.16c-0.89,-2.45 -0.11,1 -0.8,-2.05 -0.62,-2.69 -0.35,-1.6 0.24,-3.51 0.08,-0.29 0.46,-1.08 0.56,-1.36 1.94,-5.34 1.51,-6.6 5.8,-10.98l5.84 -3.45c0.24,-0.08 0.48,-0.15 0.72,-0.23 3.66,-1.27 3.13,-2.42 11.23,0.84 5.78,2.33 -0.36,1.64 8.74,6.11 3.77,1.86 2.86,0.78 3.68,2.82zm-4.14 -12.57l-2.82 -2.75c-5.73,-4.57 -14.54,-4.55 -19.72,-2.09 -6.24,2.98 -12.38,7.11 -15.1,13.67 -0.09,0.21 -0.18,0.46 -0.27,0.67l-2.61 10.46c-0.14,6.33 0.52,5.83 1.74,9.54 0.31,0.93 0.29,1.15 0.63,2.16l4.53 7.53c5.74,8.98 17.43,18.79 25.31,26.67 2.04,2.04 3.57,3.49 5.55,5.58 3.77,3.98 3.3,5.75 8.8,3.46 5.88,-2.44 17.23,-15.43 21.84,-20.04 6.26,-6.26 12.11,-11.82 15.9,-19.37l1.9 -3.68c0.09,-0.19 0.22,-0.42 0.31,-0.62 0.4,-0.94 0.16,0.65 0.71,-2.07l0 -16.41 -6.02 -10.69c-2.1,-3.04 -1.45,-1.18 -4.85,-3.51 -4.29,-2.94 -9.22,-5.09 -14.99,-4.59 -4.23,0.36 -2.66,0.43 -7.44,2.84 -9.06,4.58 -4.71,6.37 -11.11,6.52 -1.04,-2.88 -0.03,-0.8 -2.29,-3.28z"/>
   <path fill="#FEFEFE" d="M176.84 262.42c-0.13,-5.62 0.6,-2.71 -1.86,-3.71 0,-11.52 1.61,-8.57 -6.09,-16.18 -3.19,-3.14 -7.95,-8.37 -9.94,-12.33 -3.22,-6.36 -2.48,-11.65 -2.56,-19.78 -0.06,-5.7 1.94,-13.61 5.56,-17.64l18.55 -14.85c7.28,-2.98 29.85,-4.09 36.99,-2.55 4.8,1.03 -2.02,0.92 9.47,1.66 1.48,0.09 1.04,-0.02 2.44,0.34l7.52 4.55c5.61,3.57 8.19,5.14 11.39,11.8l1.53 3.12c0.1,0.19 0.22,0.43 0.31,0.62 0.1,0.18 0.22,0.42 0.32,0.61 0.09,0.19 0.22,0.42 0.31,0.61 2.7,5.11 3.17,16.84 1.98,22.73 -0.49,2.42 -0.48,1.45 -0.7,2.08l-7.16 14.18c-2.04,3.24 -4.7,6.12 -10.51,8.99l-11.33 4.44c-7.1,1.44 -21.63,-1.56 -27.74,1.04l-13.78 8.49c-2.46,1.85 -0.03,1.68 -4.7,1.78zm-3.71 7.43l3.2 -1.42c0.23,-0.08 0.49,-0.13 0.72,-0.21 3.77,-1.17 3.55,-1.59 6.66,-3.55l12.26 -7.22c4.42,-1.58 11.22,-0.59 16.13,-0.58 2.05,0.01 4.6,0.15 6.57,0.07 4.71,-0.2 6.63,-1.78 11.53,-3.33l5.18 -2.25c4.74,-3.46 5.82,-2.33 9.31,-7.39l8.54 -11.88c0.1,-0.19 0.22,-0.43 0.31,-0.62l3.1 -8.04c0.09,-0.94 -0.02,-1.67 0.12,-2.67 0.58,-4.16 2.49,-6.29 1.73,-11.17l-6.15 -17.09c-0.1,-0.19 -0.21,-0.43 -0.31,-0.63 -0.09,-0.19 -0.2,-0.43 -0.29,-0.63l-24.19 -19.44c-3.88,-1.07 -8.42,0.37 -12.27,-0.72 -0.23,-0.07 -0.45,-0.18 -0.67,-0.26 -4.76,-1.6 -12.07,-1.71 -17.39,-1.24l-3.03 0.68c-0.22,0.07 -0.43,0.21 -0.65,0.28 -3.38,1.2 -6.49,0.45 -9.84,1.3l-12.82 6.67c-0.89,0.65 -1.51,1.21 -2.12,1.59l-2.41 1.31c-0.17,0.1 -0.41,0.24 -0.57,0.36l-8.14 9.5c-0.12,0.25 -0.48,0.99 -0.61,1.24 -0.09,0.19 -0.22,0.43 -0.31,0.62l-2.18 5.25c-1.39,4.34 -4.68,16.92 -3.32,21.9 0.8,2.94 -0.11,-0.46 0.77,2.02 0.37,1.05 0.47,1.52 0.9,2.82 0.08,0.23 0.14,0.48 0.22,0.71l2.1 4.39c0.07,0.14 0.5,1.15 0.56,1.3 0.55,1.48 0.39,1.68 0.82,2.89l3.88 6.33c5.12,8.5 11.08,5.76 10.81,17.95 -0.03,1.69 -0.2,4.95 0.01,6.5 0.26,1.92 0.07,0.89 0.55,2.23 0.57,1.57 0.06,-0.93 1.29,2.43z"/>
   <path fill="#FDFDFD" d="M280.79 1094.06l0 -77.96c4.98,0 4.45,0.32 8.67,2.46l26.63 16.07c0.18,0.1 0.43,0.22 0.6,0.32l1.14 0.73c0.08,0.06 1.96,1.57 2.06,1.64l4.22 2.28c0.08,0.03 1.74,0.86 1.86,0.93l6.79 4.34c0.2,0.09 0.44,0.2 0.64,0.29 0.25,0.13 1,0.47 1.25,0.61 4.59,2.46 1.14,1.77 8.04,4.95 3.79,1.75 4.84,2.38 4.92,6.21l-5.98 3.3c-0.84,0.63 -1.66,1.36 -2.08,1.63l-8.19 4.81c-1.23,0.91 -0.4,0.39 -1.66,1.12l-3.12 1.52c-0.26,0.12 -0.99,0.48 -1.25,0.61 -0.19,0.09 -0.43,0.21 -0.62,0.31l-5.84 3.44c-0.86,0.66 -0.81,0.71 -1.58,1.2l-16.73 9.26c-4.35,2.17 -3.32,2.4 -6.14,4.07l-7.43 3.71c-2.6,1.35 -3.38,2.08 -6.2,2.15zm-3.72 2.78c0.21,0.13 0.5,0.27 0.64,0.35l2.42 1.31c1.85,0.77 0.41,0.89 4.53,-0.42 7.14,-2.28 6.18,-2.98 14.73,-7.69 4.1,-2.25 1.76,-1.86 6.77,-4.37l47.03 -27.22 0 -5.59c-1.96,-0.69 -0.88,-0.24 -2.32,-1.39 -8.18,-6.55 1.11,-0.6 -8.85,-6 -5.02,-2.72 -6.15,-5.09 -16.07,-9.92l-25.37 -15.47c-6.65,-3.23 -13.97,-11.55 -19.58,-9.83 -2.64,0.81 -1.08,-0.69 -2.08,1.78 -2.66,1.14 -1.37,-1.81 -1.95,3.62l0.1 80.84z"/>
   <path fill="#FDFDFD" d="M343.91 377.53c1.28,0 2.28,-0.08 3.54,0.16 3.02,0.57 4.47,2.38 7.58,3.55 0.01,13.5 1.31,16.69 -11.12,16.7l0 -20.41zm-9.29 11.13l1.39 10.68c0.69,2.12 0.09,5.33 5.21,6.04 0.79,0.11 3.53,0.02 4.32,-0.15 0.27,-0.06 0.49,-0.15 0.74,-0.22l1.35 -0.54c7.76,-2.66 7.6,0.51 11.83,-5.82l3.01 -3.49 0 -14.85c-3.45,-3.26 -4.17,-5.18 -8.61,-7.18 -6.92,-3.11 -10.02,-3.04 -17.39,-3.04 0,5.16 0.71,6.55 -0.92,11.15 -0.29,0.82 -0.15,-0.75 -0.75,2.04 -0.37,1.74 -0.18,3.6 -0.18,5.38z"/>
   <path fill="#FDFDFD" d="M893.37 509.32l5.58 0.01 0 -20.42c2.03,0.82 0.49,-0.41 2.21,2.41l1.52 3.12c0.13,0.25 0.51,0.97 0.62,1.23l2.27 6.1c2.11,3.47 1.38,0.06 2.65,3.84 1.82,-0.64 2.01,-0.38 4.23,-3.2 2.56,-3.25 3.2,-6 3.2,-9.79l1.85 0c0,3.92 -0.57,6.88 0.65,10.49l1.02 2.68c0.37,1.74 0.18,3.62 0.19,5.39l5.57 0.01 0.03 -26.95c-0.57,-2.82 0.54,-1.78 -1.87,-2.78 -1.2,-4.25 -5.82,-1.07 -7.19,1.2l-7.67 13.67 -0.9 -3.75c-1.16,-3.54 -2.07,-8.38 -5.25,-10.53 -3.89,-2.63 -7.9,-3.99 -8.73,2.19 -0.24,1.82 0,6.29 0.01,8.37 0.02,5.57 0.01,11.14 0.01,16.71z"/>
   <path fill="#FDFDFD" d="M527.68 767.36c1.25,-3.44 4.9,-5.26 5.55,-10.25 0.15,-1.17 0.02,-3.34 0.02,-4.61l3.7 0.01 0.01 18.55 5.57 0.01 0 -29.72c-3.81,0.01 -5.2,-0.48 -7.35,1.02 -2.34,1.63 -2.82,2.5 -3.62,4.73l-2.03 9.1 -3.7 0c-0.07,-3.02 -1.95,-5.22 -3.87,-10.98 -0.7,-2.13 -2.08,-4.16 -4.18,-5.1 -0.2,-0.09 -0.5,-0.18 -0.69,-0.25 -1.44,-0.51 -0.81,-0.32 -2.41,-0.37 -0.99,2.45 1.9,1.73 -3.72,1.85l0.02 29.71 7.42 0.01c-0.17,-7.82 -1.21,0.44 -1.89,-7.4 -0.22,-2.54 0.04,-6.6 0.04,-9.31 7.34,0.14 3.82,2.29 7.72,9.9 0.09,0.19 0.22,0.43 0.31,0.61 0.09,0.18 0.23,0.46 0.31,0.62 0.43,0.83 0.08,-0.51 0.93,1.86l1.86 0.01z"/>
   <path fill="#FDFDFD" d="M408.88 405.38c0.93,-2.33 0.05,-1.87 7.43,-1.86l1.56 -3.08c0.13,-0.25 0.52,-0.96 0.65,-1.21 1.92,-3.76 2.3,-20.52 1.34,-25.27 -0.96,-4.77 0,0.75 -1.7,-3.86 -0.22,0.08 -0.5,0.07 -0.59,0.34 -0.1,0.27 -0.47,0.27 -0.6,0.33l-4.39 1.18c0,25.98 1.02,14.17 -3.71,25.99 -0.22,-0.08 -0.49,-0.53 -0.59,-0.34l-4.97 -1.52 0 -16.71c-2.52,-1.01 -1.86,2.95 -1.86,-9.28 -4.01,0 -7.33,-0.76 -7.52,6.42 -0.09,3.25 -0.27,12.05 0.13,14.89l1.1 3.55c2.16,6.3 1.89,6.88 8.6,9.04 0.23,0.07 0.46,0.16 0.69,0.24l4.43 1.15z"/>
   <path fill="#FDFDFD" d="M754.15 485.2l7.42 -0.03c0.8,2.21 0.57,1.15 0.93,1.87 0.9,1.78 1.75,1.38 -0.4,4.25 -3.06,4.06 -3.94,3.17 -7.95,3.17l0 -9.26zm-5.58 24.13c0.6,1.45 -0.76,1.85 5.58,1.85l0 -11.13 2.45 0.33c0.19,0.07 0.49,0.16 0.69,0.24l5 6.13c0.92,2.08 1.03,-0.26 1.13,4.43 7.66,0 5.32,1.1 9.3,-2.79l-4.54 -4.75c-0.11,-0.16 -0.24,-0.41 -0.35,-0.57 -2.62,-3.78 1.55,-1.38 -2.54,-3.04l0 -1.84c2.71,-1.1 -0.04,0.67 1.46,-1.32l1.61 -3.04c1.79,-3.41 0.63,-2.31 2.5,-3.06l0 -3.73c-2.63,-1.06 -0.38,0.05 -1.8,-1.91 -1.41,-1.97 -0.32,-1.89 -3.67,-3.76 -5.72,-3.18 -15.41,-2.5 -17.4,-0.49 -2.4,2.41 -1.26,15.61 -1.35,22.02 -0.09,6.76 0.2,5.72 1.93,6.43z"/>
   <path fill="#FDFDFD" d="M1017.75 229.03c2.98,1.04 3.54,2.6 3.71,2.77l-0.01 4.64c-2.34,-0.05 -1.28,0.18 -3.16,-0.54l-2.4 -3.16c2.52,-0.95 1.74,1.78 1.86,-3.71zm-18.56 -16.71c4.07,0.09 3.68,0.96 5.55,2.78 0,3.16 0.66,6.35 -5.55,6.49 -0.82,-2.2 0.55,-1.22 -1.86,-1.87l0 -5.54c3.05,-0.34 1.19,0.63 1.86,-1.86zm-5.59 1.85c0,8.62 -0.66,5.42 4.65,11.13 8.6,0.03 4.6,-0.46 8.51,-1.92 -0.48,4.52 -1.57,3.02 -4.81,9.34 -6.08,11.9 -0.15,10.91 2.56,6.27l0.88 -1.9c0.1,-0.2 0.2,-0.44 0.29,-0.64l0.59 -1.27c1.39,-2.8 1.56,-3.35 4.04,-4.3 0.01,5.24 0.25,4.34 2.48,8.66 1.01,1.95 0.18,-0.51 1.23,2.48 12.83,0 8.37,-3.72 13.01,-5.57 0,-4.7 0.64,-6.17 -2.17,-8.98l-1.51 -1.28c-0.92,-0.53 -0.28,-0.42 -2,-0.79 -5.39,-1.15 -7.68,1.17 -9.17,1.76 0.14,-3.22 1.36,-4.12 4.4,-8.59 3.63,-5.33 3.06,-0.72 3.01,-9.97 -2.58,1 -5.89,4.69 -7.11,6.8l-0.91 1.88c-1.66,3.43 -1.3,3.54 -3.11,4.34 0.01,-2.02 0.21,-4.77 0.13,-6.65 -0.21,-5.36 0.63,-3.46 -1.98,-4.52l-9.29 -1.86c-1.34,4 -2.1,1.67 -3.72,5.58z"/>
   <path fill="#FDFDFD" d="M943.48 217.89c4.75,-1.8 -2.56,-1.86 13,-1.86l-8.58 13.68c-5.41,8.52 -3.76,2.44 -6.64,7.29l-1.45 3.13 2.4 1.31c0.21,0.08 0.45,0.18 0.68,0.24l8.02 0.35c4.33,-0.04 8.67,-0.01 13.01,-0.01l-1.86 -7.44c-0.6,-1.47 0.8,-1.84 -5.57,-1.86 1.24,-3.26 0.42,-0.52 2.7,-3.78 0.11,-0.16 0.27,-0.39 0.37,-0.55l3.5 -6.73c0.09,-0.21 0.21,-0.43 0.28,-0.65 0.93,-2.62 0.58,-4.93 0.57,-7.77 -3.75,-3.56 -7,-6.35 -13,-6.5 -1.63,4.05 0.77,-0.04 -3.02,2.54 -0.17,0.12 -0.42,0.24 -0.58,0.36 -4.01,2.81 -3.82,4.51 -3.83,8.25z"/>
   <path fill="#FDFDFD" d="M600.08 769.21c3.52,-1.44 0.57,0.51 1.92,-2.72 3.04,-7.27 1.79,-15.42 1.79,-25.14 -8.33,0.01 -7.58,2.08 -7.43,13.01 0.09,6.45 1.09,10.51 -4.6,11.16 -1.01,0.12 -3.5,-0.03 -4.67,-0.03 -0.07,-2.77 -0.26,-1.7 -0.68,-3.03 -1.37,-4.24 -1.27,-2.06 -1.2,-9.02 0.05,-4.64 0.02,-9.3 0.02,-13.94 -4.85,0 -4.66,-1.51 -6.65,3.58l-0.86 5.64c-0.1,9.08 -0.71,7.96 1.46,14.45l0.86 2.87c1.74,4.25 8.62,6.8 11.68,6.8 3.93,0.01 0.63,0.15 4.92,-1.48 0.28,-0.11 1.15,-0.36 1.39,-0.48 2.42,-1.16 0.94,1.05 2.05,-1.67z"/>
   <path fill="#FDFDFD" d="M782 485.2l7.41 -0.01 0 9.28 -7.41 -0.01 0 -9.26zm0 25.98l0 -11.13c3.21,0.07 4.31,0.71 6.08,3.18 1.41,1.98 -0.62,-1.16 0.7,1.15l1.24 2.48c1.35,2.06 1.6,2 4.27,3.16 0.21,0.08 0.45,0.19 0.66,0.27 0.82,0.33 -0.94,0.91 5.62,0.9 -1.26,-3.46 -1.57,-1.43 -3.75,-5.56l-0.86 -1.92c-1.86,-3.76 -0.79,-2.85 -2.82,-3.68l-0.01 -1.84c1.92,-0.78 1.04,0.05 2.61,-2.97 0.1,-0.18 0.22,-0.42 0.3,-0.62 1.38,-3.22 0.81,-7.21 0.81,-11.27 -1.43,-0.51 -10.76,-6.74 -18.07,-3.21 -4.13,2 -2.29,13.49 -2.38,20.87 -0.04,2.45 -0.44,6.61 0.86,8.42 1.63,2.29 3.05,1.73 4.74,1.77z"/>
   <path fill="#FDFDFD" d="M373.61 384.96c1.68,-0.69 1.9,0.83 1.85,-5.57l3.7 0c0.01,9.17 1.86,2.43 1.86,10.2 -3.05,2.98 -2.19,2.7 -5.55,2.78 -0.83,-2.2 0.55,-1.22 -1.86,-1.86l0 -5.55zm-9.3 18.56c6.18,0 5.94,-0.48 8.1,-4.91l1.27 -2.45c6.45,-0.17 6.13,-0.95 9.76,3.08 2.44,2.71 2.93,3.69 5.13,4.16 1.01,0.22 2.53,0.12 3.6,0.12 -0.04,-1.61 0.12,-0.33 -0.22,-1.64l-0.66 -2.13c-1.65,-3.96 -1.82,-1.55 -2.84,-7.37l-3.02 -9.97c-0.23,-0.65 -0.4,-1.23 -0.69,-2.1 -0.07,-0.23 -0.14,-0.48 -0.21,-0.71l-1.64 -7.65 -9.87 1.28c-0.3,0.57 -0.8,1.53 -0.96,1.83 -0.21,0.39 -0.97,1.77 -0.98,1.79 -2.11,4.51 -0.27,4.27 -2.38,8.77l-3.22 7.92c-1.63,4.7 -1.17,4.55 -1.17,9.98z"/>
   <path fill="#FDFDFD" d="M726.31 490.77c5.41,-0.57 -2.45,-1.68 5.56,-1.86l-0.01 9.27 -5.55 0 0 -7.41zm-11.15 20.41l4.38 -0.26c0.22,-0.08 0.47,-0.17 0.66,-0.27 0.21,-0.1 1.32,-1.08 1.49,-1.3l2.78 -5.58c6.28,-0.01 7.88,-0.79 10.85,2.11 1.82,1.77 2.04,2.2 2.12,5.3l5.58 0.01c0,-1.29 0.12,-3.43 -0.04,-4.61 -0.3,-2.16 -0.31,-1.38 -0.58,-2.22l-6.4 -14.94c-0.36,-1.07 -0.3,-1.2 -0.6,-2.18l-1.96 -4.55c-0.1,-0.18 -0.22,-0.42 -0.32,-0.61 -0.09,-0.18 -0.22,-0.44 -0.31,-0.61 -0.39,-0.77 -0.1,0.4 -0.93,-1.85l-7.44 -0.01c-0.1,4.55 -0.63,2.21 -1.41,5.1 -0.07,0.24 -0.13,0.48 -0.19,0.74l-0.5 3.21c-0.06,0.26 -0.11,0.5 -0.18,0.75l-3.93 9.99c-0.12,0.26 -0.45,1.02 -0.56,1.29l-1.11 3.54c-1.31,3.82 -1.4,2.48 -1.4,6.95z"/>
   <path fill="#FDFDFD" d="M555.53 759.92c0.08,-0.22 0.25,-0.48 0.32,-0.61l1.91 -5.51c0.9,-2.66 1.4,-1.39 1.48,-5.01l3.7 0c0.02,8.6 0.99,2.55 1.87,8.33 0.06,0.41 -0.01,2.28 -0.01,2.8l-9.27 0zm0.01 5.59l11.11 -0.01c1.82,4.61 1.71,-1.15 1.86,5.57l7.44 0 -6.25 -17.89c-1.4,-4.1 0.86,2.67 -0.5,-1.37 -1.27,-3.77 -2.27,-8.55 -5.71,-11 -7.66,-5.46 -7.87,4.84 -9.37,9.36l-2.64 6.64c-0.09,0.19 -0.23,0.42 -0.32,0.61l-4.6 13.05c-0.04,-0.13 -0.25,0.38 -0.33,0.6 2.7,0.06 1.26,0 3.11,0.61 1.48,0.49 -0.73,0.1 2.46,1.23l3.74 -7.4z"/>
   <path fill="#FDFDFD" d="M976.57 224.04c0.09,-0.19 0.2,-0.44 0.3,-0.63 2.73,-5.1 5.6,-5.52 5.6,-5.52l0 9.27c-3.34,1.33 -0.35,1.85 -7.42,1.85l1.52 -4.97zm-8.95 7.76l0 2.79 12.99 0 4.65 7.42c2.95,-3.1 2.78,-1.36 2.79,-7.4 3.76,-0.11 2.41,-0.73 5.57,-1.87 -0.69,-1.97 -0.21,-0.9 -1.4,-2.33 -1.86,-2.26 -0.34,-0.27 -1.9,-1.81 -4.12,-4.07 -2.27,-9.88 -2.27,-20.01 -9.77,0 -7.7,-0.72 -10.03,2.99l-10.21 17.63c-0.23,1.15 -0.19,1.42 -0.19,2.59z"/>
   <path fill="#FDFDFD" d="M867.38 481.47l0.01 5.56c7.18,-0.11 0.95,-0.57 5.14,-1.56 4.69,-1.12 3.42,-0.18 4.21,1.5 2.47,1.16 1.47,-1.95 1.77,2.82 0.28,4.48 -0.19,1.67 -1.08,3.51 -3.71,7.67 -11.69,9.5 -11.91,17.88 13.91,0 20.16,2.04 22.29,-3.72l-11.14 -1.86c0.13,-5.19 3.62,-5.27 6.11,-8.72l2.35 -6.12c2.97,-8.65 -0.88,-2.13 -1.03,-9.29 -7.48,-0.17 0.17,-1.99 -8.36,-1.99 -8.64,0 -0.87,1.99 -8.36,1.99z"/>
   <path fill="#FDFDFD" d="M458.99 379.39c0.91,0 2.76,0.11 3.56,-0.16 2.54,-0.88 0.99,0.85 2.02,-1.7 6,0 4.32,-0.19 7.41,2.78 -0.52,4.81 -0.15,1.03 -0.89,2.82 -3.34,8.1 -17.94,15.55 -10.25,18.53 0.92,2.25 0.33,2.02 8.34,1.88 3.41,-0.06 6.83,-0.02 10.24,-0.02 -0.15,-5.95 0.99,-2.63 -4.12,-4.25l-2.76 -0.95c-1.92,-0.47 -2.23,-0.37 -4.26,-0.38 1.18,-3.14 -0.31,-0.36 1.88,-2.76l3.07 -3.42c1.43,-2.38 0.86,-3.7 4.33,-4.95 0,-5.77 2.14,-17.6 -13,-14.86l-3.8 2.7c-1.86,2.12 -1.71,2.86 -1.77,4.74z"/>
   <path fill="#FDFDFD" d="M505.41 392.38l3.7 0 0 7.41 -3.7 0 0 -7.41zm-7.39 -7.39c-0.18,4.61 -0.33,2.37 -2.7,5.66l-2.11 3.46c-4.17,5.96 -0.97,0.65 -3.3,6.91 -0.38,1 -0.31,0.17 -1.22,2.5 4.13,-0.09 6.17,-2.44 8.65,-6.2 2.47,-3.74 -1.69,-1.37 2.48,-3.08 0.01,8.69 1.71,2.33 1.86,9.28 2.4,-0.01 2.14,-0.07 4.32,0.46 1,0.24 2.94,1.82 6.8,-1.4l2.06 -2.74c1.57,-2.91 1.1,-4.24 -1.08,-9.34 -0.38,-0.9 0.08,0.96 -0.95,-1.85 -13.16,0.01 -6.6,0.09 -11.13,1.96 0.17,-4.58 1.24,-2.78 4.96,-9.97l2.3 -5.13c0.24,-1.27 0.16,-2.28 0.16,-3.56l-3.73 0 -0.36 2.42c-0.9,2.42 -1.73,1.83 -3.65,5.63 -3.04,6.01 -0.17,3.59 -3.36,4.99z"/>
   <path fill="#FDFDFD" d="M434.85 379.37c-6.69,0.01 -9.07,-1.13 -9.28,5.59 5.69,0.12 2.41,0.6 4.36,1.21 2.45,0.77 1.88,0.64 4.92,0.64 0,12.49 -1.52,12.15 2.8,16.7 4.36,-4.59 2.79,-5.53 2.79,-16.7l1.85 0c1.46,-3.63 -0.6,-0.69 3.46,-2.12l3.97 -3.46 -3.97 -1.6c-4.06,-1.43 -1.99,1.54 -3.46,-2.11 -1.47,-0.6 -1.85,0.81 -1.85,-5.57l-5.59 0 0 7.42z"/>
   <path fill="#FDFDFD" d="M839.53 483.33c0.18,5.96 2.44,4.64 6.79,6.22l1.9 0.88c0.13,0.06 0.38,0.25 0.59,0.34 0,4.17 0.57,6.96 -0.65,10.49l-0.59 1.32c-0.69,1.98 -1.09,4.25 -0.13,6.19 1.22,2.47 3.81,2.38 5.1,2.41 0.18,-9.29 1.92,4.48 1.86,-14.85l0.02 -12.09c-0.57,-2.82 0.55,-1.78 -1.88,-2.77 -0.6,-1.46 0.76,-1.86 -5.58,-1.86 -1.09,2.72 -3.26,3.62 -7.43,3.72z"/>
   <path fill="#FDFDFD" d="M913.83 226.23l6.17 2.15c1.53,0.47 0.35,0.58 3.07,0.65 -0.01,8.34 -0.95,7.18 2.79,11.13 6.02,-6.33 0.09,-7.45 4.64,-9.28 1.44,-3.59 -0.82,-0.59 4.18,-2.32l1.39 -0.47c0.19,-0.08 0.47,-0.21 0.64,-0.28 0.17,-0.08 0.48,-0.25 0.62,-0.31 0.13,-0.07 0.38,-0.25 0.6,-0.33l0.01 -3.72c-8.87,-0.02 -2.28,-1.7 -9.29,-1.86l0 -7.43 -3.17 0.56c-0.17,0.09 -0.43,0.22 -0.6,0.33 -4.37,3.12 1.62,6.07 -6.42,8.42 -4.6,1.35 -0.62,-1.04 -4.63,2.76z"/>
   <path fill="#FDFDFD" d="M811.69 492.61l0 5.58 7.42 0c0,8.47 -1.34,11 3.73,13.04 0,-8.9 1.85,-2.19 1.85,-13.04l7.43 0 0 -5.58c-0.9,0 -2.77,0.11 -3.56,-0.16 -2.55,-0.88 -0.99,0.87 -2.01,-1.7 -2.33,-0.93 -1.86,-0.04 -1.86,-7.42l-5.58 0c0,3.02 0.54,5.62 -0.8,7.55 -0.4,0.59 -1.46,1.27 -2.21,1.5 -1.4,0.41 -2.95,0.23 -4.41,0.23z"/>
   <path fill="#FDFDFD" d="M637.21 748.78c-6.91,-0.14 -2.57,-3.69 -8.37,-3.72 -3.22,-0.01 -1.3,-0.45 -6.93,5.14 -1.82,1.81 -2.4,1.99 -3.28,4.16l7.42 0 0.01 16.7 5.58 0.01 0 -16.71 5.57 0 0 -5.58z"/>
   <path fill="black" d="M343.91 397.94c12.43,-0.01 11.13,-3.2 11.12,-16.7 -3.11,-1.17 -4.56,-2.98 -7.58,-3.55 -1.26,-0.24 -2.26,-0.16 -3.54,-0.16l0 20.41z"/>
   <path fill="#FDFDFD" d="M488.7 375.67c4.29,0.1 3.35,0.5 5.56,2.78l0 3.71c-2.22,2.28 -1.27,2.68 -5.56,2.78l0 -9.27zm9.32 9.32l-0.04 -9.33c-4.17,-1.5 -1.22,-3.71 -9.29,-3.71 -0.93,2.31 0.13,0.74 -3.02,2.55 -0.18,0.1 -0.45,0.21 -0.62,0.31 -1.31,0.7 0.87,-0.21 -1.84,0.94 -0.21,14.47 1.26,5.93 3.63,12.91 11.76,0.02 4.73,-1.58 11.18,-3.67z"/>
   <path fill="black" d="M754.15 494.46c4.01,0 4.89,0.89 7.95,-3.17 2.15,-2.87 1.3,-2.47 0.4,-4.25 -0.36,-0.72 -0.13,0.34 -0.93,-1.87l-7.42 0.03 0 9.26z"/>
   <path fill="black" d="M555.53 759.92l9.27 0c0,-0.52 0.07,-2.39 0.01,-2.8 -0.88,-5.78 -1.85,0.27 -1.87,-8.33l-3.7 0c-0.08,3.62 -0.58,2.35 -1.48,5.01l-1.91 5.51c-0.07,0.13 -0.24,0.39 -0.32,0.61z"/>
   <path fill="black" d="M373.61 384.96l0 5.55c2.41,0.64 1.03,-0.34 1.86,1.86 3.36,-0.08 2.5,0.2 5.55,-2.78 0,-7.77 -1.85,-1.03 -1.86,-10.2l-3.7 0c0.05,6.4 -0.17,4.88 -1.85,5.57z"/>
   <polygon fill="black" points="782,494.46 789.41,494.47 789.41,485.19 782,485.2 "/>
   <path fill="black" d="M997.33 214.18l0 5.54c2.41,0.65 1.04,-0.33 1.86,1.87 6.21,-0.14 5.55,-3.33 5.55,-6.49 -1.87,-1.82 -1.48,-2.69 -5.55,-2.78 -0.67,2.49 1.19,1.52 -1.86,1.86z"/>
   <path fill="black" d="M975.05 229.01c7.07,0 4.08,-0.52 7.42,-1.85l0 -9.27c0,0 -2.87,0.42 -5.6,5.52 -0.1,0.19 -0.21,0.44 -0.3,0.63l-1.52 4.97z"/>
   <path fill="black" d="M726.31 490.77l0 7.41 5.55 0 0.01 -9.27c-8.01,0.18 -0.15,1.29 -5.56,1.86z"/>
   <path fill="black" d="M488.7 384.94c4.29,-0.1 3.34,-0.5 5.56,-2.78l0 -3.71c-2.21,-2.28 -1.27,-2.68 -5.56,-2.78l0 9.27z"/>
   <polygon fill="black" points="505.41,399.79 509.11,399.79 509.11,392.38 505.41,392.38 "/>
   <path fill="black" d="M1015.89 232.74l2.4 3.16c1.88,0.72 0.82,0.49 3.16,0.54l0.01 -4.64c-0.17,-0.17 -0.73,-1.73 -3.71,-2.77 -0.12,5.49 0.66,2.76 -1.86,3.71z"/>
   <path fill="#FEFEFE" d="M124.69 222.88c0.37,0.52 0.38,0.44 0.8,0.82 -0.19,-2.18 0.09,-3.72 -0.8,-5.18l0 4.36z"/>
   <path fill="#FEFEFE" d="M124.69 208.25l0 1.69c0.87,-0.83 0.56,-0.39 0.65,-2.1l-0.65 0.41z"/>
   <path fill="#FEFEFE" d="M1200.89 335.18c-25.46,0.57 -55.97,8.94 -81.93,13.58 -1.31,0.23 -1.12,-0.03 -1.13,1.01 -0.05,15.07 1.49,87.4 -0.15,91.82 -0.33,0.02 -0.8,-0.32 -1.18,-0.47 -1.38,-0.52 -2.69,-0.76 -4.16,-1.03 -5.57,-1.05 -13.02,-0.12 -18.11,1.97 -0.86,0.36 -1.83,0.71 -2.53,1.01 -5.16,2.23 -9.92,5.9 -12.62,10.9 -1.06,1.95 -1.58,3.99 -1.59,6.3 -0.01,2.08 0.84,4.04 1.65,5.25 1.31,1.95 3.55,3.97 5.74,4.83 0.84,0.33 1.58,0.67 2.41,0.96 8.47,3.01 18.78,0.79 25.94,-2.78l6.25 -4.17c0.99,-0.83 1.87,-1.72 2.64,-2.71 3.25,-4.19 3.83,-6.19 3.83,-11.81 0,-25.16 -0.04,-50.33 0,-75.5l16.73 -2.72c2.82,-0.43 5.59,-0.88 8.37,-1.34 0.8,-0.13 1.49,-0.22 2.22,-0.33 0.73,-0.12 1.32,-0.25 2.05,-0.34 1.47,-0.18 2.58,-0.44 4.14,-0.64 5.52,-0.7 11.22,-1.87 16.75,-2.7 2.74,-0.42 5.66,-0.78 8.4,-1.31 0.44,-0.08 7.83,-1.5 8.12,-1.18 0.35,0.84 0.23,59.01 0.13,65.1 -0.52,-0.1 -1,-0.33 -1.47,-0.53 -1.4,-0.56 -3.24,-0.97 -4.79,-1.14 -7.41,-0.84 -14.96,0.48 -21.61,3.92l-3.03 1.76c-4.76,3.1 -9.1,7.73 -9.52,13.72 -0.34,4.8 2.89,8.73 6.89,10.7 3.4,1.69 7.02,2.52 10.99,2.54 7.21,0.02 12.84,-1.49 18.69,-4.55 0.25,-0.13 0.42,-0.2 0.65,-0.34l1.23 -0.74c0.3,-0.17 0.32,-0.22 0.6,-0.4l3.21 -2.55c0.3,-0.28 0.31,-0.24 0.56,-0.43 2.04,-1.56 4.21,-5.09 5.05,-7.63 0.77,-2.34 0.58,-4.44 0.58,-7.17l0 -100.86z"/>
   <ellipse fill="#303791" stroke="#7D95FF" stroke-width="28.87" stroke-miterlimit="2.61313" cx="771.53" cy="1094.06" rx="136.51" ry="132.27"/>
   <g>
    <path fill="#303791" d="M761.58 1092.2c1.2,-3.29 6.37,-7.79 9.84,-9.63 0.19,-0.1 0.42,-0.23 0.61,-0.32 3.75,-1.82 9.93,-1.9 13.76,-0.34l1.85 0.94c7.34,4.02 9.16,12.96 6.78,19.93 -1.25,3.68 -4.29,7.04 -7.51,9.18 -3.72,2.47 -1.35,-1.69 -3.07,2.51l-11.12 0c-0.73,-1.99 0,-0.92 -1.41,-2.3 -2.95,-2.87 0.24,0.01 -2.9,-1.75 -2.78,-1.55 -4.26,-3.28 -5.69,-6.37 -1.92,-4.13 -1.14,-4.67 -1.14,-11.85zm-29.71 -22.27c-0.02,9.2 -0.64,4.68 -1.67,9.46l-0.14 32.26c0.98,6.68 0.79,-1.03 1.76,5.66 0.68,4.66 -2.25,8.06 6.14,12.42 0.19,0.1 0.42,0.23 0.62,0.32 0.19,0.09 0.42,0.22 0.63,0.3 4.48,1.85 70.16,1.08 75.35,0.93 4.48,-0.13 2.6,0.47 5.14,-1.38 6.76,-4.92 4.17,-6.23 5.67,-11.03 1.58,-5.04 1.26,-2.01 1.19,-9.95 -0.1,-11.5 1.27,-28.97 -2.23,-39.56 -0.81,-2.47 -1.46,-2.32 -2.36,-3.22 -6.51,-6.49 -2.15,-2.42 -17.75,-3.6 -2.43,-0.18 -1.17,0.04 -3.1,-0.61 -6.64,-2.25 -5.24,-4.67 -7.9,-7.87l-3.95 -2.55c-2.22,-0.46 -3.44,0.08 -5.94,-0.56 -1.97,-0.49 -2.54,-1.39 -5.05,-1.44 -0.99,2.42 0.05,1.3 -2.76,1.87l-12.06 0.01 -3.75 9.25c-6.33,0 -9.81,-0.77 -14.86,0.91 -7.73,2.57 -4.64,-0.83 -8.83,3.25l-4.15 5.13z"/>
    <path fill="#303791" d="M761.58 1092.2c0,7.18 -0.78,7.72 1.14,11.85 1.43,3.09 2.91,4.82 5.69,6.37 3.14,1.76 -0.05,-1.12 2.9,1.75 1.41,1.38 0.68,0.31 1.41,2.3l11.12 0c1.72,-4.2 -0.65,-0.04 3.07,-2.51 3.22,-2.14 6.26,-5.5 7.51,-9.18 2.38,-6.97 0.56,-15.91 -6.78,-19.93l-1.85 -0.94c-3.83,-1.56 -10.01,-1.48 -13.76,0.34 -0.19,0.09 -0.42,0.22 -0.61,0.32 -3.47,1.84 -8.64,6.34 -9.84,9.63z"/>
    <path fill="#303791" stroke="#FEFEFE" stroke-width="14.44" stroke-miterlimit="2.61313" d="M808.65 1036.82l18.26 0c0.69,0 1.26,0.57 1.26,1.26l0 7.13 -20.77 0 0 -7.13c0,-0.69 0.56,-1.26 1.25,-1.26z"/>
    <rect fill="#303791" stroke="#FEFEFE" stroke-width="14.44" stroke-miterlimit="2.61313" x="708.05" y="1045.53" width="140.7" height="90" rx="6.27" ry="6.27"/>
    <ellipse fill="#303791" cx="774.25" cy="1088.8" rx="30.04" ry="29.18"/>
    <ellipse fill="#303791" cx="774.23" cy="1089.79" rx="18.73" ry="18.77"/>
    <rect fill="#303791" stroke="#2B2A29" stroke-width="7.22" stroke-miterlimit="2.61313" x="807.13" y="1056.87" width="22.83" height="11.53" rx="2" ry="1.88"/>
    <path fill="#303791" stroke="#FEFEFE" stroke-width="7.22" stroke-miterlimit="2.61313" d="M744.21 1088.8c0,-16.12 13.45,-29.18 30.04,-29.18 16.59,0 30.04,13.06 30.04,29.18 0,16.12 -13.45,29.19 -30.04,29.19 -16.59,0 -30.04,-13.07 -30.04,-29.19zm62.92 -22.28l0 -7.76c0,-1.04 0.84,-1.88 1.88,-1.88l19.07 0c1.03,0 1.88,0.84 1.88,1.88l0 7.76c0,1.03 -0.85,1.88 -1.88,1.88l-19.07 0c-1.04,0 -1.88,-0.85 -1.88,-1.88zm35.34 -20.99l-128.14 0c-3.45,0 -6.28,2.83 -6.28,6.28l0 77.45c0,3.45 2.83,6.28 6.28,6.28l128.14 0c3.45,0 6.28,-2.83 6.28,-6.28l0 -77.45c0,-3.45 -2.83,-6.28 -6.28,-6.28z"/>
   </g>
   <rect fill="#8AA2FD" stroke="#8AA2FD" stroke-width="1.8" stroke-miterlimit="2.61313" x="144.32" y="903.39" width="12.59" height="44.32"/>
   <rect fill="#8AA2FD" stroke="#8AA2FD" stroke-width="1.8" stroke-miterlimit="2.61313" x="92.35" y="931.73" width="12.59" height="15.98"/>
   <g>
    <path fill="#8AA2FD" fill-rule="nonzero" d="M991.73 1110.25l-33.26 38.16 -5.44 -4.74 33.25 -38.16 5.13 -0.32 0.32 5.06zm-5.45 -4.74l2.4 -2.75 2.73 2.43 -5.13 0.32zm22.78 25.1l-22.46 -20.04 4.81 -5.38 22.45 20.04 0.43 4.93 -5.23 0.45zm5.23 -0.45l-2.38 3 -2.85 -2.55 5.23 -0.45zm19.03 -24.05l-19.03 24.05 -5.66 -4.48 19.03 -24.05 5.66 4.48zm-19.47 -11.62l36.08 -15.18 -6.49 38.6 -29.59 -23.42z"/>
   </g>
   <rect fill="#8AA2FD" stroke="#8AA2FD" stroke-width="1.8" stroke-miterlimit="2.61313" x="1035.38" y="125.27" width="13.46" height="21.42"/>
   <rect fill="#8AA2FD" stroke="#8AA2FD" stroke-width="1.8" stroke-miterlimit="2.61313" x="1062.67" y="105.6" width="13.46" height="41.09"/>
   <rect fill="#8AA2FD" stroke="#8AA2FD" stroke-width="1.8" stroke-miterlimit="2.61313" x="1091.25" y="89.48" width="13.46" height="57.21"/>
   <rect fill="#8AA2FD" stroke="#8AA2FD" stroke-width="1.8" stroke-miterlimit="2.61313" x="1122.43" y="69.29" width="13.46" height="77.4"/>
   <ellipse fill="#303791" stroke="#7D95FF" stroke-width="28.87" stroke-miterlimit="2.61313" cx="1082.03" cy="911.21" rx="136.51" ry="132.27"/>
   <path fill="#FEFEFE" d="M1152.54 871.69c-0.74,-0.86 -0.75,-1.62 -1.26,-2.95 -0.87,-2.3 -2.73,-5.66 -4.12,-7.53 -7.51,-10.14 -17.2,-15.19 -31.29,-15.22 -9.87,1.32 -15.13,3.63 -21.19,8.56 -3.81,3.1 -7.83,7.74 -10.38,11.95 -0.86,1.4 -1.64,3.19 -2.66,4.42 -1.26,-1.43 -3.67,-7.25 -9.42,-13.12 -21.06,-21.49 -53.03,-11.56 -60.94,12.99 -7.38,22.92 10.1,46.39 24.28,62.49 2.31,2.62 4.74,5.58 7.1,8.04l7.14 7.6c6.71,7.19 15.27,15.6 22.79,22.56 2.34,2.17 6.15,6.29 8.35,6.52 2.73,0.29 4.23,-1.08 5.34,-2.33l11.64 -11.04c2.64,-2.37 5.05,-5.07 7.54,-7.57l21.76 -23.24c8.44,-9.31 19.64,-24.64 23.8,-36.32 5.17,-14.5 1.45,-21.39 1.52,-25.81z"/>
   <line fill="none" stroke="#7D95FF" stroke-width="10.83" stroke-miterlimit="2.61313" x1="145.55" y1="526.43" x2="155.19" y2= "350.31" />
   <line fill="none" stroke="#7D95FF" stroke-width="10.83" stroke-miterlimit="2.61313" x1="249.23" y1="930.7" x2="190.15" y2= "809.72" />
   <line fill="none" stroke="#7D95FF" stroke-width="7.22" stroke-miterlimit="2.61313" x1="459.08" y1="1069.41" x2="621.86" y2= "1088.95" />
   <line fill="none" stroke="#7D95FF" stroke-width="7.22" stroke-miterlimit="2.61313" x1="904.67" y1="1027.5" x2="959" y2= "995.62" />
   <path fill="none" stroke="#7D95FF" stroke-width="10.83" stroke-miterlimit="2.61313" d="M626.01 289.3c-29.06,66.54 -47.32,138.94 -87.19,199.61 -55.7,84.76 -131.6,159.28 -167.09,254.28l-65.83 176.15"/>
   <path fill="none" stroke="#7D95FF" stroke-width="10.83" stroke-miterlimit="2.61313" d="M297.6 672.49c4.58,1.23 26.95,-0.76 87.18,9.43 60.22,10.18 178.69,32.54 270.94,145.31 11.57,14.14 24.62,27.2 34.71,42.43l55.66 83.95"/>
   <g>
    <path fill="#7D95FF" fill-rule="nonzero" d="M473.7 443.54l-5.82 9.13 0 0 -5.55 -3.63 -5.44 -3.76 -5.34 -3.87 -5.24 -3.99 -5.15 -4.1 -5.06 -4.19 -4.98 -4.29 -4.91 -4.37 -4.83 -4.45 -4.77 -4.52 -4.7 -4.59 -4.65 -4.65 -4.6 -4.7 -4.55 -4.75 -4.51 -4.79 -4.48 -4.83 -4.44 -4.85 -4.42 -4.88 -4.4 -4.89 -4.38 -4.9 -4.37 -4.91 -4.37 -4.9 -4.36 -4.89 -4.37 -4.88 -4.38 -4.86 -4.39 -4.83 -4.41 -4.79 -4.43 -4.76 -4.46 -4.71 -4.49 -4.66 -4.53 -4.6 -4.58 -4.53 7.58 -7.74 4.67 4.63 4.61 4.69 4.57 4.73 4.52 4.78 4.49 4.81 4.45 4.85 4.43 4.87 4.4 4.89 4.39 4.89 4.37 4.91 4.37 4.9 4.37 4.9 4.36 4.88 4.38 4.87 4.38 4.84 4.4 4.8 4.43 4.77 4.45 4.73 4.48 4.68 4.52 4.62 4.56 4.56 4.6 4.49 4.65 4.41 4.71 4.34 4.77 4.25 4.83 4.15 4.9 4.06 4.98 3.96 5.05 3.85 5.14 3.73 5.23 3.61 5.32 3.48 0 0zm311.68 198.55l-6.87 8.37 0 0 -5.22 -4.15 -6 -4.56 -6.73 -4.91 -7.4 -5.26 -8.04 -5.57 -8.61 -5.84 -9.14 -6.1 -9.62 -6.33 -10.04 -6.54 -10.43 -6.71 -10.77 -6.87 -11.05 -6.99 -11.28 -7.09 -11.48 -7.17 -11.62 -7.23 -11.72 -7.25 -11.76 -7.25 -11.76 -7.22 -11.71 -7.18 -11.62 -7.11 -11.47 -7.01 -11.28 -6.88 -11.04 -6.73 -10.76 -6.57 -10.43 -6.36 -10.04 -6.14 -9.61 -5.89 -9.14 -5.62 -8.61 -5.32 -8.05 -5 -7.43 -4.66 -6.77 -4.28 5.82 -9.13 6.72 4.25 7.39 4.63 8.02 4.99 8.59 5.3 9.12 5.61 9.61 5.89 10.03 6.13 10.42 6.36 10.75 6.56 11.05 6.74 11.28 6.88 11.48 7.01 11.62 7.11 11.72 7.19 11.78 7.23 11.77 7.26 11.74 7.26 11.64 7.24 11.5 7.18 11.31 7.11 11.08 7.02 10.8 6.88 10.47 6.74 10.09 6.57 9.67 6.36 9.21 6.15 8.68 5.9 8.13 5.62 7.52 5.34 6.87 5.02 6.17 4.68 5.44 4.34 0.01 0zm151.75 138.52l-158.62 -130.15 6.87 -8.37 158.62 130.15 -6.87 8.37zm17.94 -28.89l21.82 54.52 -57.73 -10.76 35.91 -43.76z"/>
   </g>
   <g>
    <path fill="#7D95FF" fill-rule="nonzero" d="M453.01 156.24l-113.55 24.24 -2.26 -10.59 113.55 -24.23 2.26 10.58zm-11.4 -32.04l56.22 16.94 -44.41 38.42 -11.81 -55.36z"/>
   </g>
   <rect fill="#94A2D4" x="879.55" y="184.58" width="183.37" height="79.3" rx="14.84" ry="18.19"/>
   <rect fill="#94A2D4" x="297.5" y="353.48" width="237.48" height="79.3" rx="19.22" ry="18.19"/>
   <rect fill="#94A2D4" x="470.51" y="714.66" width="210.28" height="79.3" rx="17.02" ry="18.19"/>
   <rect fill="#94A2D4" x="680.07" y="457.41" width="279.01" height="79.3" rx="22.58" ry="18.19"/>
   <polygon fill="#FEFEFE" fill-rule="nonzero" points="512.39,777 512.39,740.83 523.36,740.83 529.85,765.5 536.26,740.83 547.25,740.83 547.25,777 540.48,777 540.46,748.52 533.33,777 526.29,777 519.19,748.52 519.16,777 "/>
   <path id="_1" fill="#FEFEFE" fill-rule="nonzero" d="M587.17 777l-7.89 0 -3.13 -8.23 -14.5 0 -3.01 8.23 -7.75 0 14.05 -36.17 7.74 0 14.49 36.17zm-13.39 -14.35l-5.03 -13.39 -4.88 13.39 9.91 0z"/>
   <path id="_2" fill="#FEFEFE" fill-rule="nonzero" d="M591.07 740.83l7.32 0 0 19.6c0,3.12 0.1,5.13 0.27,6.05 0.31,1.48 1.05,2.67 2.21,3.57 1.17,0.9 2.76,1.34 4.78,1.34 2.05,0 3.6,-0.42 4.64,-1.27 1.05,-0.85 1.67,-1.88 1.88,-3.12 0.21,-1.24 0.32,-3.29 0.32,-6.15l0 -20.02 7.33 0 0 19.02c0,4.34 -0.2,7.42 -0.59,9.21 -0.4,1.79 -1.12,3.31 -2.18,4.55 -1.06,1.24 -2.47,2.21 -4.24,2.95 -1.78,0.73 -4.08,1.1 -6.94,1.1 -3.44,0 -6.05,-0.4 -7.83,-1.2 -1.78,-0.8 -3.18,-1.83 -4.22,-3.11 -1.03,-1.28 -1.71,-2.61 -2.04,-4.02 -0.48,-2.07 -0.71,-5.14 -0.71,-9.19l0 -19.31z"/>
   <path fill="#FEFEFE" fill-rule="nonzero" d="M637.12 740.36c2.38,-2.18 4.2,-4.07 5.44,-5.67 1.25,-1.59 2.17,-3.1 2.78,-4.51l1.14 0c0.76,1.62 1.77,3.2 2.99,4.74 1.23,1.52 3.02,3.35 5.39,5.47l0 1.9c-3.31,-1.55 -5.85,-3.16 -7.63,-4.86l0 36.37 -2.48 0 0 -36.37c-1.57,1.23 -2.74,2.1 -3.52,2.61 -0.78,0.49 -2.15,1.23 -4.11,2.2l0 -1.88z"/>
   <path fill="#FEFEFE" fill-rule="nonzero" d="M730.5 520.27l-7.89 0 -3.13 -8.24 -14.51 0 -3 8.24 -7.75 0 14.04 -36.18 7.74 0 14.5 36.18zm-13.39 -14.35l-5.03 -13.39 -4.88 13.39 9.91 0z"/>
   <path id="_1_10" fill="#FEFEFE" fill-rule="nonzero" d="M734.39 520.27l0 -36.18 11.72 0c4.44,0 7.32,0.18 8.67,0.54 2.07,0.55 3.81,1.73 5.21,3.55 1.39,1.82 2.09,4.16 2.09,7.04 0,2.23 -0.4,4.09 -1.2,5.6 -0.81,1.52 -1.83,2.71 -3.07,3.58 -1.23,0.85 -2.5,1.43 -3.78,1.7 -1.74,0.35 -4.26,0.53 -7.56,0.53l-4.75 0 0 13.64 -7.33 0zm7.33 -30.06l0 10.3 3.98 0c2.88,0 4.79,-0.19 5.76,-0.57 0.96,-0.38 1.72,-0.97 2.27,-1.79 0.55,-0.8 0.82,-1.74 0.82,-2.82 0,-1.32 -0.38,-2.4 -1.15,-3.26 -0.77,-0.86 -1.74,-1.4 -2.93,-1.62 -0.87,-0.16 -2.61,-0.24 -5.24,-0.24l-3.51 0z"/>
   <path id="_2_11" fill="#FEFEFE" fill-rule="nonzero" d="M768.09 520.27l0 -36.18 15.39 0c3.87,0 6.68,0.33 8.43,0.98 1.76,0.65 3.16,1.8 4.21,3.46 1.05,1.67 1.58,3.56 1.58,5.7 0,2.72 -0.79,4.96 -2.38,6.73 -1.59,1.77 -3.97,2.88 -7.13,3.34 1.57,0.92 2.87,1.93 3.89,3.03 1.03,1.11 2.41,3.07 4.14,5.88l4.41 7.06 -8.73 0 -5.24 -7.9c-1.87,-2.8 -3.16,-4.57 -3.86,-5.31 -0.69,-0.72 -1.43,-1.23 -2.2,-1.49 -0.78,-0.27 -2.01,-0.41 -3.7,-0.41l-1.48 0 0 15.11 -7.33 0zm7.33 -20.87l5.41 0c3.5,0 5.68,-0.15 6.56,-0.45 0.87,-0.29 1.56,-0.8 2.04,-1.53 0.5,-0.72 0.74,-1.63 0.74,-2.72 0,-1.22 -0.32,-2.2 -0.97,-2.95 -0.65,-0.75 -1.57,-1.22 -2.75,-1.42 -0.59,-0.08 -2.37,-0.12 -5.33,-0.12l-5.7 0 0 9.19z"/>
   <polygon id="_3" fill="#FEFEFE" fill-rule="nonzero" points="826.5,515.06 826.5,505.67 817,505.67 817,499.2 826.5,499.2 826.5,489.8 832.82,489.8 832.82,499.2 842.32,499.2 842.32,505.67 832.82,505.67 832.82,515.06 "/>
   <path id="_4" fill="#FEFEFE" fill-rule="nonzero" d="M864.3 520.27l-6.93 0 0 -26.19c-2.52,2.37 -5.5,4.13 -8.94,5.27l0 -6.32c1.81,-0.58 3.77,-1.7 5.89,-3.36 2.12,-1.65 3.57,-3.58 4.36,-5.78l5.62 0 0 36.38z"/>
   <path id="_5" fill="#FEFEFE" fill-rule="nonzero" d="M898.11 513.85l0 6.42 -24.31 0c0.26,-2.44 1.06,-4.75 2.37,-6.93 1.31,-2.18 3.91,-5.08 7.79,-8.69 3.12,-2.92 5.03,-4.9 5.74,-5.93 0.95,-1.43 1.43,-2.85 1.43,-4.25 0,-1.55 -0.41,-2.74 -1.24,-3.57 -0.83,-0.84 -1.97,-1.25 -3.43,-1.25 -1.45,0 -2.59,0.44 -3.45,1.31 -0.85,0.87 -1.34,2.32 -1.48,4.35l-6.92 -0.69c0.41,-3.82 1.7,-6.57 3.87,-8.24 2.18,-1.66 4.89,-2.49 8.15,-2.49 3.57,0 6.37,0.97 8.42,2.9 2.04,1.93 3.06,4.33 3.06,7.2 0,1.63 -0.3,3.18 -0.88,4.66 -0.58,1.48 -1.51,3.02 -2.78,4.63 -0.83,1.08 -2.36,2.62 -4.55,4.63 -2.19,2.02 -3.58,3.35 -4.16,4.01 -0.59,0.66 -1.06,1.31 -1.43,1.93l13.8 0z"/>
   <polygon id="_6" fill="#FEFEFE" fill-rule="nonzero" points="904.23,520.27 904.23,484.09 915.2,484.09 921.69,508.77 928.09,484.09 939.09,484.09 939.09,520.27 932.32,520.27 932.3,491.79 925.16,520.27 918.12,520.27 911.02,491.79 911,520.27 "/>
   <polygon fill="#FEFEFE" fill-rule="nonzero" points="917.65,236.75 917.65,227.36 908.15,227.36 908.15,220.89 917.65,220.89 917.65,211.49 923.96,211.49 923.96,220.89 933.46,220.89 933.46,227.36 923.96,227.36 923.96,236.75 "/>
   <path id="_1_12" fill="#FEFEFE" fill-rule="nonzero" d="M961.15 235.54l0 6.42 -24.3 0c0.26,-2.44 1.05,-4.75 2.36,-6.93 1.32,-2.18 3.92,-5.08 7.79,-8.69 3.13,-2.92 5.04,-4.9 5.74,-5.93 0.96,-1.43 1.44,-2.85 1.44,-4.25 0,-1.55 -0.42,-2.74 -1.25,-3.57 -0.83,-0.84 -1.97,-1.25 -3.43,-1.25 -1.45,0 -2.59,0.44 -3.45,1.31 -0.85,0.87 -1.34,2.32 -1.47,4.35l-6.93 -0.69c0.42,-3.83 1.71,-6.57 3.88,-8.24 2.17,-1.66 4.88,-2.49 8.14,-2.49 3.57,0 6.38,0.97 8.42,2.9 2.04,1.92 3.06,4.32 3.06,7.19 0,1.64 -0.3,3.19 -0.88,4.67 -0.58,1.47 -1.51,3.02 -2.78,4.63 -0.83,1.08 -2.35,2.62 -4.54,4.63 -2.2,2.02 -3.59,3.35 -4.17,4.01 -0.59,0.66 -1.06,1.31 -1.42,1.93l13.79 0z"/>
   <path id="_2_13" fill="#FEFEFE" fill-rule="nonzero" d="M979.4 241.96l0 -7.28 -14.76 0 0 -6.04 15.65 -23.01 5.83 0 0 22.99 4.49 0 0 6.06 -4.49 0 0 7.28 -6.72 0zm0 -13.34l0 -12.35 -8.27 12.35 8.27 0z"/>
   <path id="_3_14" fill="#FEFEFE" fill-rule="nonzero" d="M993.96 214.65c0,-3.24 0.71,-5.63 2.14,-7.18 1.42,-1.56 3.35,-2.35 5.78,-2.35 2.52,0 4.49,0.78 5.91,2.33 1.43,1.55 2.13,3.95 2.13,7.2 0,3.23 -0.7,5.62 -2.13,7.18 -1.42,1.56 -3.36,2.34 -5.79,2.34 -2.52,0 -4.48,-0.77 -5.9,-2.32 -1.43,-1.55 -2.14,-3.95 -2.14,-7.2zm5.4 0c0,2.33 0.27,3.9 0.82,4.7 0.41,0.59 0.99,0.88 1.71,0.88 0.74,0 1.32,-0.29 1.73,-0.88 0.54,-0.8 0.8,-2.37 0.8,-4.7 0,-2.33 -0.26,-3.89 -0.8,-4.68 -0.41,-0.6 -0.99,-0.9 -1.73,-0.9 -0.72,0 -1.3,0.29 -1.71,0.88 -0.55,0.8 -0.82,2.37 -0.82,4.7zm7.81 28.72l-5.13 0 19.26 -38.25 5.02 0 -19.15 38.25zm11.19 -9.54c0,-3.24 0.72,-5.64 2.14,-7.21 1.42,-1.56 3.37,-2.35 5.84,-2.35 2.48,0 4.43,0.79 5.86,2.35 1.42,1.57 2.13,3.97 2.13,7.21 0,3.27 -0.71,5.68 -2.13,7.24 -1.43,1.57 -3.36,2.35 -5.8,2.35 -2.52,0 -4.48,-0.78 -5.9,-2.35 -1.42,-1.56 -2.14,-3.97 -2.14,-7.24zm5.41 0.02c0,2.36 0.27,3.93 0.81,4.71 0.42,0.62 0.99,0.92 1.71,0.92 0.74,0 1.32,-0.29 1.71,-0.89 0.55,-0.8 0.82,-2.38 0.82,-4.74 0,-2.36 -0.26,-3.94 -0.79,-4.74 -0.41,-0.6 -1,-0.9 -1.74,-0.9 -0.74,0 -1.31,0.3 -1.71,0.9 -0.54,0.8 -0.81,2.38 -0.81,4.74z"/>
   <ellipse fill="#303791" stroke="#857DFF" stroke-width="28.87" stroke-miterlimit="2.61313" cx="309" cy="1057.68" rx="136.51" ry="132.27"/>
   <polygon fill="#FEFEFE" points="264.49,984.87 387.58,1060.4 265.33,1131.51 "/>
   <ellipse fill="#303791" stroke="#857DFF" stroke-width="28.87" stroke-miterlimit="2.61313" cx="648.09" cy="146.71" rx="136.51" ry="132.27"/>
   <path fill="#FEFEFE" d="M693.77 196.92c-0.51,-2.91 1.75,-6.1 4.85,-6.54 3.35,-0.49 6.17,2.11 6.5,4.99 0.38,3.39 -2.02,6.07 -4.9,6.48 -3.5,0.49 -5.97,-2.17 -6.45,-4.93zm-59.84 -0.53c-0.85,8 -11.76,6.79 -11.38,-0.73 0.19,-3.96 4.69,-6.67 8.32,-4.67 0.34,0.19 0.6,0.37 0.88,0.58 1.26,0.89 2.37,3.04 2.18,4.82zm47.89 -44.19c0.15,-1.59 0.21,-2.72 0.34,-4.27 0.24,-2.91 0.47,-5.65 0.65,-8.55l26.06 0.18c0,0.03 0.01,0.06 0.01,0.09 0.01,0.15 -4.99,16.48 -5.18,16.77l-22.16 -0.03 0.28 -4.19zm-6.59 4.12c-0.12,0.12 -0.41,0.1 -0.62,0.1 -3.15,0.04 -21.64,0.09 -22.27,-0.04 -0.09,-0.41 -0.16,-1.59 -0.19,-2.21 -0.13,-2.19 -1.22,-14.05 -1.07,-14.89 4.26,0 8.52,0 12.78,0 2.15,0 4.31,0 6.46,0 7.61,-0.01 6.31,-0.56 6.14,2.14l-1.23 14.9zm-57.13 -16.94l26.68 0 1.27 17.04 -21.6 -0.02c-0.33,-0.61 -0.55,-1.41 -0.82,-2.08 -0.92,-2.28 -5.49,-14.2 -5.53,-14.94zm32.39 -6.39c-0.15,-2.28 -1.52,-18.38 -1.4,-19.1l29.48 0.01 -1.48 19.11 -26.6 -0.02zm32.85 0.03c0,-0.29 0.01,-0.5 0.03,-0.78l0.15 -1.67c0.03,-0.87 0.12,-1.64 0.2,-2.43 0.21,-2.08 0.19,-4.4 0.42,-6.11l0.67 -8.14 31.98 0.02 -5.89 19.1 -27.56 0.01zm-40.53 -19.14l1.46 19.14 -28.72 -0.03c-0.18,-0.72 -0.63,-1.73 -0.9,-2.45l-2.7 -7.13c-0.72,-1.92 -3.49,-9.04 -3.52,-9.52l34.38 -0.01zm-52.58 -12.94c0.56,1.6 1.27,3.4 1.89,4.98 0.64,1.62 1.19,3.29 1.85,4.92 1.37,3.38 2.45,6.49 3.71,9.85 2.41,6.4 5.08,13.37 7.45,19.66 2.44,6.51 4.98,13.19 7.42,19.73 0.18,0.46 7.33,19.17 7.4,19.73 -0.16,0.16 -2.34,1.36 -3.85,2.73 -3.69,3.36 -5.92,8.26 -5.92,13.85 0,11.27 10.39,19.72 21.33,17.72 5.03,-0.91 9.1,-3.87 11.79,-7.92 1.4,-2.1 2.38,-4.58 2.77,-7.15 0.16,-1.04 0.21,-1.92 0.21,-3.06 -0.01,-3.64 -0.66,-4.1 -0.87,-5.66l36.84 0.01c-0.12,0.78 -0.41,1.56 -0.57,2.41 -1.08,5.76 0.58,10.93 4.05,15.28 3.67,4.59 10.18,7.13 16.39,6.19 12.68,-1.93 19.5,-16.44 12.74,-27.62 -2.57,-4.26 -7.45,-8.24 -14.1,-8.73 -1.79,-0.14 -3.89,-0.06 -5.71,-0.06l-51.23 0c-1.96,0 -10.03,0.11 -11.29,-0.01 -0.41,-0.62 -0.82,-2.07 -1.12,-2.89l-0.6 -1.58c-0.29,-0.74 -1.6,-3.92 -1.56,-4.42 26.32,-0.12 52.72,-0.01 79.05,-0.01 1.45,0 2.61,-0.43 3.54,-1.08 2.07,-1.44 2.28,-3.28 3.21,-6.08 1.08,-3.26 2.22,-7.2 3.3,-10.69l4.35 -14.21c0.11,-0.35 0.19,-0.55 0.28,-0.87 0.1,-0.34 0.16,-0.53 0.26,-0.87l3.31 -10.68c0.01,-0.03 0.04,-0.13 0.05,-0.16l0.21 -0.71c0.08,-0.28 0.17,-0.61 0.26,-0.93 0.93,-3.28 2.24,-7.23 3.3,-10.67 0.77,-2.53 1.79,-4.8 0.19,-7.49 -1.49,-2.49 -3.47,-3.07 -6.2,-3.07l-46.42 -0.01c-12.38,0.02 -24.76,0.03 -37.14,0.01 -6.19,-0.01 -12.38,0 -18.57,0 -1.75,0 -17.25,0.09 -18.58,-0.03l-5.62 -14.82c-1.19,-3.22 -1.91,-6.69 -6.14,-7.4 -1.54,-0.26 -4.92,-0.04 -6.69,-0.04 -4.52,0 -9.05,-0.03 -13.57,-0.02 -2.31,0 -3.73,0.61 -5,1.74 -2.35,2.08 -2.74,6.74 0.43,9.37 1.52,1.27 2.81,1.41 5.41,1.41 4.52,0 9.05,0.05 13.57,0 0.82,-0.01 0.7,0.06 0.95,0.77l1.38 3.63c0.64,1.71 1.27,3.27 1.86,4.95z"/>
   <ellipse fill="#303791" stroke="#857DFF" stroke-width="28.87" stroke-miterlimit="2.61313" cx="203.75" cy="216.86" rx="136.51" ry="132.27"/>
   <path fill="#FEFEFE" stroke="white" stroke-width="5.41" stroke-miterlimit="2.61313" d="M159.22 252.73c-9.77,-6.84 -21.96,-20.4 -22.48,-38.14 -1.44,-49.02 72.12,-71 112.92,-39.27 10.36,8.07 21.32,20.88 21.17,39.63 -0.14,17.84 -12.4,31.89 -22.26,38.53 -20.7,13.96 -47.02,17.09 -72.86,7.94 -1.66,-0.59 -3.89,-2.09 -5.49,-1.58 -3.37,1.07 -13.75,6 -16.34,6.28 0.56,-2.03 1.91,-4.78 2.7,-6.6 0.76,-1.75 2.33,-5.04 2.64,-6.79zm-30.78 -45.7c-0.08,1.53 0.21,1.14 -0.58,1.88l0 7.67c0.8,1.31 0.55,2.68 0.72,4.63 1.28,10.11 7.25,20.52 13.31,27.61 2.21,2.58 4.25,4.3 6.61,6.66 -0.09,1.69 -4.44,11.02 -5.38,13.4l-5.42 13.12 22.35 -8.72c1.51,-0.59 10.27,-4.19 11.23,-4.11 4.18,0.33 27.17,13.4 64.55,0.67 7.51,-2.55 13.98,-6.53 20.05,-10.9 5.33,-3.83 11.25,-10.22 14.84,-15.72 19.11,-29.29 5.93,-63.71 -24.31,-80.49 -21.93,-12.16 -49.9,-14.71 -75.48,-5.3 -20.36,7.49 -41.44,27.17 -42.49,49.6z"/>
   <path fill="white" d="M241.29 204.75c2.76,0 6.79,-0.1 7.11,-4.54 0.25,-3.55 -2.69,-5.35 -4.22,-5.35l-67.57 0c-8.04,0 -7.93,9.86 -0.03,9.91l64.71 -0.02z"/>
   <path fill="white" d="M173.85 222.83c-5.1,2.1 -3.89,8.73 1.49,9.28 4.64,0.48 48.87,-0.03 49.67,-0.37 3.92,-1.69 4.34,-8.72 -1.84,-9.35 -4.83,-0.48 -48,-0.1 -49.32,0.44z"/>
   <ellipse fill="#303791" stroke="#857DFF" stroke-width="28.87" stroke-miterlimit="2.61313" cx="150.94" cy="669.84" rx="136.51" ry="132.27"/>
   <g>
    <path fill="#FEFEFE" d="M89.28 654.65l118.88 -0.01c-0.3,11.72 -0.02,23.77 -0.02,35.48 0,5.93 0,11.87 0,17.81 0,7.82 0.95,13.83 -2.15,20.05 -0.45,0.91 -1.56,2.61 -2.24,3.34 -1.24,1.34 -2.61,2.58 -4.2,3.58 -4.83,3.05 -9.42,2.71 -15.04,2.71l-71.27 0c-8.32,0 -11.52,0.24 -17.1,-3.98 -0.33,-0.25 -0.3,-0.18 -0.63,-0.5 -7.67,-7.29 -6.21,-13.99 -6.21,-25.04l-0.02 -53.44zm0.19 -12.19c-0.62,-1.26 0.01,-8.71 0.37,-9.95 0.5,-1.72 1.42,-4.07 2.35,-5.44 1.35,-1.97 1.39,-1.88 3.03,-3.5 1.1,-1.08 2.28,-1.95 3.7,-2.66 5.18,-2.57 7.89,-2.1 13.19,-2.15 0.07,2.89 -0.34,6.13 0.75,8.26 1.54,3.04 5.59,4.31 8.8,2.15 3.59,-2.42 2.54,-6.14 2.65,-10.4l18.35 -0.01c0.07,3.16 -0.39,5.96 0.67,8.16 0.44,0.9 0.33,0.67 0.97,1.27 1.05,0.99 1.57,2.06 4.42,2.04 1.39,-0.01 2.63,-0.35 3.4,-0.99 3.53,-2.96 2.53,-5.17 2.66,-10.5 5.89,0.13 12.78,-0.21 18.28,0.12 0.66,2.17 -0.66,5.78 0.74,8.15 0.21,0.34 0.64,1.01 0.92,1.31 1.58,1.72 4.25,2.41 6.45,1.66 5.09,-1.74 4.07,-7.58 4.15,-11.23 5.63,0.03 9.26,-0.35 14.4,2.85 0.3,0.19 0.51,0.3 0.79,0.49 0.34,0.24 0.44,0.39 0.78,0.66 0.36,0.27 0.39,0.29 0.7,0.58l1.35 1.34c3.81,4.14 4.8,8.3 4.8,14.06 0,4.27 0.32,3.74 -1.36,3.74 -39.01,0.01 -78.34,0.15 -117.31,-0.01zm-12.34 78.04c0,0.39 0.24,2.73 0.34,3.31 0.16,0.9 0.4,2.05 0.66,3.02 2.84,10.73 11.18,19.21 21.95,21.95 1.73,0.44 4.56,0.99 6.32,0.99l84.63 0c0.5,0 2.6,-0.25 3.31,-0.35 2.71,-0.4 6.12,-1.39 8.42,-2.56l2.48 -1.33c0.03,-0.02 0.07,-0.04 0.1,-0.06 0.03,-0.02 0.07,-0.04 0.1,-0.06l6.84 -5.57c0.27,-0.27 0.24,-0.23 0.44,-0.52 0.16,-0.21 0.14,-0.23 0.33,-0.46 1.75,-2.12 3.06,-4.09 4.34,-6.64 1.6,-3.17 2.91,-8.01 2.92,-11.72l0 -84.63c0,-1.78 -0.44,-4.14 -0.85,-5.82l-1.65 -4.88 -2.42 -4.59c-1.44,-2.08 -2.26,-2.81 -3.05,-3.94 -1.6,-2.27 -6.1,-5.4 -8.51,-6.61 -0.5,-0.25 -0.79,-0.41 -1.28,-0.63 -0.84,-0.4 -1.93,-0.81 -2.86,-1.12 -4.99,-1.68 -8.56,-1.66 -14.38,-1.69 -0.02,-3.29 0.64,-7.8 -0.63,-10.51l-0.47 -0.79c-1.61,-2.58 -5.25,-3.34 -7.88,-1.96 -2.5,1.31 -3.19,3.43 -3.19,6.58l0.01 6.68 -18.39 0c0,-2.18 0.36,-8.03 -0.22,-9.64 -1.29,-3.58 -5.14,-5.48 -8.59,-3.63l-0.21 0.12c-0.03,0.02 -0.07,0.04 -0.1,0.06 -1.42,0.87 -2.97,2.54 -2.97,4.5l0 8.6 -18.38 -0.02 0.01 -6.83c0.01,-2.78 -0.5,-4.38 -2.31,-5.87 -0.32,-0.26 -0.55,-0.39 -0.99,-0.61 -0.87,-0.44 -2.12,-0.67 -3.15,-0.67 -2.72,0 -5.72,2.96 -5.72,5.72l0 8.28c-6.39,0 -11.46,-0.06 -17.46,2.91 -1.43,0.7 -3.43,1.77 -4.62,2.7 -0.44,0.34 -0.56,0.49 -1.05,0.84l-2.88 2.54c-2,2.14 -3.28,3.74 -4.77,6.21l-1.29 2.37c-0.15,0.38 -0.15,0.36 -0.29,0.66 -1.49,3.21 -2.64,7.51 -2.64,11.04l0 84.63z"/>
    <path fill="#FEFEFE" d="M141.98 670c-2.81,1.13 -2.25,3.29 -2.25,6.59 0,3.44 -0.65,8.76 0.91,10.31 1.4,1.37 3.64,0.99 5.85,0.99 1.79,0 7.64,0.21 8.94,-0.13 0.98,-0.27 1.81,-1.19 2.16,-2.29 0.25,-0.83 0.19,-12.57 0.02,-13.16 -0.85,-2.97 -3.44,-2.47 -6.67,-2.47 -1.65,0 -7.92,-0.25 -8.96,0.16z"/>
    <path fill="#FEFEFE" d="M110.38 700.42c-1.14,0.29 -1.95,0.96 -2.31,2.18 -0.21,0.73 -0.16,3.41 -0.16,4.38 0.01,2.01 -0.26,7.44 0.21,8.95 0.35,1.12 1.11,1.88 2.21,2.22 1.02,0.32 12.52,0.2 13.27,-0.02 1.13,-0.33 1.36,-0.65 1.87,-1.46 0.81,-1.3 0.5,-2.78 0.5,-5.08 0,-1.7 0.2,-7.82 -0.12,-8.95 -0.83,-2.97 -4.09,-2.34 -6.56,-2.34 -1.87,0 -7.57,-0.24 -8.91,0.12z"/>
    <path fill="#FEFEFE" d="M107.91 675.8l0 7c0,3.81 0.61,5.09 4.85,5.09l9.23 0c1.39,0 2.24,-0.23 2.95,-0.88 1.02,-0.94 1.03,-2 1.03,-3.58l0 -10.18c0,-2.62 -1.78,-3.41 -4.14,-3.41l-9.54 0c-2.15,0 -2.65,0.14 -3.71,1.45 -0.51,0.63 -0.6,0.88 -0.6,1.96 0.01,0.89 -0.08,1.74 -0.07,2.55z"/>
    <path fill="#FEFEFE" d="M142.19 700.42c-2.99,0.78 -2.46,3.2 -2.46,6.56 0,1.5 -0.18,8.07 0.12,9.01 0.21,0.67 0.55,0.89 0.94,1.3 1.48,1.51 2.9,0.98 5.7,0.98 1.85,0 7.62,0.29 8.91,-0.16 1.07,-0.36 1.92,-1.23 2.21,-2.24 0.24,-0.81 0.17,-12.47 -0.03,-13.13 -0.96,-3.14 -3.63,-2.44 -6.48,-2.44 -1.8,0 -7.65,-0.21 -8.91,0.12z"/>
    <path fill="#FEFEFE" d="M171.47 675.16l0 9.23c0,3.02 2.12,3.5 4.45,3.5l8.91 0c1.66,0 3.12,-0.18 3.9,-1.19 0.99,-1.27 0.72,-2.59 0.71,-4.7 0,-1.6 0.26,-8.75 -0.11,-9.75 -0.14,-0.36 -0.53,-1.03 -0.77,-1.3 -0.84,-0.95 -1.42,-1.11 -3.09,-1.11l-9.87 0c-4.47,-0.01 -4.13,2.72 -4.13,5.32z"/>
    <path fill="#FEFEFE" d="M174.49 718.27l12.09 0c0.86,0 1.83,-0.75 2.28,-1.37 0.69,-0.96 0.67,-2.39 0.67,-3.72l-0.09 -10.34c0.01,-0.49 -0.97,-2.27 -2.57,-2.51l-10.31 -0.03c-2.12,0 -3,-0.29 -4.21,1.04 -1.13,1.23 -0.88,2.27 -0.88,4.21 0,1.75 0,3.5 0,5.25 0,2.55 -0.51,5.2 1.11,6.68 0.32,0.28 1.29,0.79 1.91,0.79z"/>
   </g>
   <path fill="#FEFEFE" fill-rule="nonzero" d="M308.81 374.63l13.32 0c3.01,0 5.3,0.23 6.87,0.69 2.12,0.63 3.94,1.74 5.44,3.34 1.52,1.59 2.66,3.54 3.46,5.86 0.78,2.31 1.17,5.16 1.17,8.55 0,2.98 -0.37,5.54 -1.11,7.69 -0.9,2.64 -2.19,4.77 -3.86,6.4 -1.27,1.23 -2.97,2.19 -5.12,2.88 -1.61,0.52 -3.76,0.77 -6.45,0.77l-13.72 0 0 -36.18zm7.33 6.12l0 23.95 5.43 0c2.03,0 3.49,-0.12 4.39,-0.35 1.19,-0.29 2.17,-0.8 2.94,-1.51 0.78,-0.7 1.42,-1.87 1.91,-3.48 0.49,-1.62 0.74,-3.83 0.74,-6.63 0,-2.8 -0.25,-4.93 -0.74,-6.43 -0.49,-1.5 -1.18,-2.66 -2.07,-3.51 -0.88,-0.83 -2,-1.4 -3.37,-1.7 -1.01,-0.22 -3,-0.34 -5.97,-0.34l-3.26 0z"/>
   <path id="_1_15" fill="#FEFEFE" fill-rule="nonzero" d="M377.89 410.81l-7.89 0 -3.13 -8.24 -14.51 0 -3 8.24 -7.75 0 14.05 -36.18 7.73 0 14.5 36.18zm-13.39 -14.35l-5.03 -13.39 -4.88 13.39 9.91 0z"/>
   <path id="_2_16" fill="#FEFEFE" fill-rule="nonzero" d="M381.78 374.63l7.33 0 0 19.61c0,3.11 0.09,5.13 0.27,6.04 0.31,1.49 1.05,2.68 2.21,3.57 1.17,0.91 2.76,1.35 4.78,1.35 2.05,0 3.6,-0.42 4.64,-1.27 1.04,-0.85 1.67,-1.89 1.88,-3.12 0.21,-1.24 0.32,-3.29 0.32,-6.15l0 -20.03 7.32 0 0 19.03c0,4.34 -0.19,7.41 -0.58,9.21 -0.4,1.79 -1.12,3.31 -2.19,4.55 -1.05,1.23 -2.46,2.21 -4.23,2.94 -1.78,0.74 -4.09,1.11 -6.94,1.11 -3.44,0 -6.06,-0.4 -7.83,-1.2 -1.78,-0.8 -3.18,-1.83 -4.22,-3.11 -1.04,-1.29 -1.71,-2.62 -2.04,-4.02 -0.48,-2.07 -0.72,-5.14 -0.72,-9.19l0 -19.32z"/>
   <polygon id="_3_17" fill="#FEFEFE" fill-rule="nonzero" points="440.19,405.61 440.19,396.21 430.69,396.21 430.69,389.74 440.19,389.74 440.19,380.34 446.51,380.34 446.51,389.74 456.01,389.74 456.01,396.21 446.51,396.21 446.51,405.61 "/>
   <path id="_4_18" fill="#FEFEFE" fill-rule="nonzero" d="M483.7 404.39l0 6.42 -24.31 0c0.26,-2.44 1.06,-4.75 2.37,-6.93 1.31,-2.18 3.91,-5.08 7.79,-8.69 3.12,-2.92 5.03,-4.89 5.74,-5.93 0.95,-1.43 1.43,-2.85 1.43,-4.25 0,-1.55 -0.41,-2.74 -1.24,-3.57 -0.83,-0.84 -1.97,-1.25 -3.43,-1.25 -1.45,0 -2.59,0.44 -3.45,1.31 -0.85,0.87 -1.34,2.32 -1.48,4.35l-6.92 -0.69c0.41,-3.82 1.7,-6.57 3.87,-8.24 2.18,-1.65 4.89,-2.49 8.15,-2.49 3.57,0 6.37,0.97 8.42,2.9 2.04,1.93 3.06,4.33 3.06,7.2 0,1.63 -0.3,3.18 -0.88,4.66 -0.58,1.48 -1.51,3.02 -2.78,4.63 -0.83,1.08 -2.36,2.62 -4.55,4.64 -2.19,2.01 -3.58,3.34 -4.16,4.01 -0.59,0.65 -1.07,1.3 -1.43,1.92l13.8 0z"/>
   <path id="_5_19" fill="#FEFEFE" fill-rule="nonzero" d="M488.4 383.5c0,-3.23 0.72,-5.62 2.14,-7.18 1.43,-1.56 3.35,-2.34 5.79,-2.34 2.52,0 4.49,0.77 5.91,2.32 1.42,1.55 2.13,3.95 2.13,7.2 0,3.23 -0.71,5.63 -2.13,7.18 -1.42,1.56 -3.36,2.34 -5.79,2.34 -2.52,0 -4.48,-0.77 -5.91,-2.32 -1.42,-1.55 -2.14,-3.95 -2.14,-7.2zm5.41 0c0,2.33 0.27,3.9 0.82,4.7 0.41,0.59 0.98,0.88 1.71,0.88 0.74,0 1.32,-0.29 1.73,-0.88 0.53,-0.8 0.79,-2.37 0.79,-4.7 0,-2.33 -0.26,-3.89 -0.79,-4.67 -0.41,-0.61 -0.99,-0.91 -1.73,-0.91 -0.73,0 -1.3,0.29 -1.71,0.88 -0.55,0.8 -0.82,2.37 -0.82,4.7zm7.81 28.72l-5.13 0 19.26 -38.24 5.01 0 -19.14 38.24zm11.19 -9.54c0,-3.24 0.71,-5.64 2.14,-7.21 1.42,-1.56 3.36,-2.34 5.83,-2.34 2.49,0 4.44,0.78 5.86,2.34 1.43,1.57 2.13,3.97 2.13,7.21 0,3.27 -0.7,5.68 -2.13,7.25 -1.42,1.56 -3.36,2.34 -5.79,2.34 -2.52,0 -4.48,-0.78 -5.9,-2.34 -1.43,-1.57 -2.14,-3.98 -2.14,-7.25zm5.4 0.02c0,2.36 0.27,3.93 0.82,4.72 0.41,0.61 0.99,0.91 1.71,0.91 0.74,0 1.31,-0.29 1.71,-0.89 0.55,-0.8 0.82,-2.38 0.82,-4.74 0,-2.36 -0.27,-3.94 -0.8,-4.74 -0.41,-0.6 -0.99,-0.89 -1.73,-0.89 -0.74,0 -1.31,0.29 -1.71,0.89 -0.55,0.8 -0.82,2.38 -0.82,4.74z"/>
  </g>
 </g>
</svg>
