<svg viewBox="0 0 1400 700" xmlns="http://www.w3.org/2000/svg" width="100%" height="100%">
  <defs>
    <!-- Gradients -->
    <linearGradient id="purpleBlue" x1="0%" y1="0%" x2="100%" y2="0%">
      <stop offset="0%" style="stop-color:#8b5cf6;stop-opacity:1" />
      <stop offset="100%" style="stop-color:#3b82f6;stop-opacity:1" />
    </linearGradient>
    
    <radialGradient id="nodeGlow" cx="50%" cy="50%">
      <stop offset="0%" style="stop-color:#8b5cf6;stop-opacity:0.4" />
      <stop offset="100%" style="stop-color:#3b82f6;stop-opacity:0" />
    </radialGradient>
    
    <!-- Arrow marker -->
    <marker id="arrowPurple" markerWidth="10" markerHeight="10" refX="9" refY="3" orient="auto" markerUnits="strokeWidth">
      <path d="M0,0 L0,6 L9,3 z" fill="#8b5cf6" opacity="0.6"/>
    </marker>
    
    <marker id="arrowBlue" markerWidth="10" markerHeight="10" refX="9" refY="3" orient="auto" markerUnits="strokeWidth">
      <path d="M0,0 L0,6 L9,3 z" fill="#3b82f6" opacity="0.6"/>
    </marker>
  </defs>

  <!-- Node 1 - Top Left (Social) -->
  <g id="node1" transform="translate(200, 180)">
    <circle cx="0" cy="0" r="80" fill="url(#nodeGlow)"/>
    <circle cx="0" cy="0" r="60" fill="#8b5cf6" opacity="0.15" stroke="#8b5cf6" stroke-width="6"/>
    
    <!-- Social/chat icon -->
    <circle cx="0" cy="0" r="22" fill="none" stroke="#8b5cf6" stroke-width="5"/>
    <line x1="-10" y1="-5" x2="10" y2="-5" stroke="#8b5cf6" stroke-width="3"/>
    <line x1="-10" y1="5" x2="5" y2="5" stroke="#8b5cf6" stroke-width="3"/>
    
    <text x="0" y="90" text-anchor="middle" font-family="sans-serif" font-size="16" font-weight="bold" fill="#8b5cf6">Social</text>
    
    <circle cx="0" cy="0" r="60" fill="none" stroke="#8b5cf6" stroke-width="3" opacity="0.6">
      <animate attributeName="r" values="60;70;60" dur="3s" repeatCount="indefinite"/>
      <animate attributeName="opacity" values="0.6;0;0.6" dur="3s" repeatCount="indefinite"/>
    </circle>
  </g>

  <!-- Node 2 - Top Center (E-commerce) -->
  <g id="node2" transform="translate(520, 150)">
    <circle cx="0" cy="0" r="80" fill="url(#nodeGlow)"/>
    <circle cx="0" cy="0" r="60" fill="#3b82f6" opacity="0.15" stroke="#3b82f6" stroke-width="6"/>
    
    <!-- Shopping cart icon -->
    <circle cx="-10" cy="-10" r="4" fill="none" stroke="#3b82f6" stroke-width="3"/>
    <circle cx="10" cy="-10" r="4" fill="none" stroke="#3b82f6" stroke-width="3"/>
    <path d="M -15 -10 L -22 -22 L -12 -22 L -5 0 L 15 0" fill="none" stroke="#3b82f6" stroke-width="5" stroke-linecap="round" stroke-linejoin="round"/>
    <circle cx="-2" cy="10" r="3" fill="#3b82f6"/>
    <circle cx="10" cy="10" r="3" fill="#3b82f6"/>
    
    <text x="0" y="90" text-anchor="middle" font-family="sans-serif" font-size="16" font-weight="bold" fill="#3b82f6">E-commerce</text>
    
    <circle cx="0" cy="0" r="60" fill="none" stroke="#3b82f6" stroke-width="3" opacity="0.6">
      <animate attributeName="r" values="60;70;60" dur="3.3s" repeatCount="indefinite"/>
      <animate attributeName="opacity" values="0.6;0;0.6" dur="3.3s" repeatCount="indefinite"/>
    </circle>
  </g>

  <!-- Node 3 - Top Right (Music/Entertainment) -->
  <g id="node3" transform="translate(880, 180)">
    <circle cx="0" cy="0" r="80" fill="url(#nodeGlow)"/>
    <circle cx="0" cy="0" r="60" fill="#8b5cf6" opacity="0.15" stroke="#8b5cf6" stroke-width="6"/>
    
    <!-- Music note icon -->
    <circle cx="10" cy="10" r="6" fill="#8b5cf6"/>
    <path d="M 10 10 L 10 -15 L 22 -18 L 22 8" fill="none" stroke="#8b5cf6" stroke-width="5" stroke-linecap="round"/>
    <circle cx="22" cy="8" r="6" fill="#8b5cf6"/>
    
    <text x="0" y="90" text-anchor="middle" font-family="sans-serif" font-size="16" font-weight="bold" fill="#8b5cf6">Music</text>
    
    <circle cx="0" cy="0" r="60" fill="none" stroke="#8b5cf6" stroke-width="3" opacity="0.6">
      <animate attributeName="r" values="60;70;60" dur="3.5s" repeatCount="indefinite"/>
      <animate attributeName="opacity" values="0.6;0;0.6" dur="3.5s" repeatCount="indefinite"/>
    </circle>
  </g>

  <!-- Node 4 - Bottom Left (Calendar/Productivity) -->
  <g id="node4" transform="translate(280, 420)">
    <circle cx="0" cy="0" r="80" fill="url(#nodeGlow)"/>
    <circle cx="0" cy="0" r="60" fill="#3b82f6" opacity="0.15" stroke="#3b82f6" stroke-width="6"/>
    
    <!-- Calendar icon -->
    <rect x="-18" y="-15" width="36" height="33" rx="4" fill="none" stroke="#3b82f6" stroke-width="5"/>
    <line x1="-18" y1="-5" x2="18" y2="-5" stroke="#3b82f6" stroke-width="3"/>
    <line x1="-12" y1="-22" x2="-12" y2="-10" stroke="#3b82f6" stroke-width="3"/>
    <line x1="12" y1="-22" x2="12" y2="-10" stroke="#3b82f6" stroke-width="3"/>
    <circle cx="-7" cy="5" r="3" fill="#3b82f6"/>
    <circle cx="7" cy="5" r="3" fill="#3b82f6"/>
    <circle cx="-7" cy="13" r="3" fill="#3b82f6"/>
    
    <text x="0" y="90" text-anchor="middle" font-family="sans-serif" font-size="16" font-weight="bold" fill="#3b82f6">Calendar</text>
    
    <circle cx="0" cy="0" r="60" fill="none" stroke="#3b82f6" stroke-width="3" opacity="0.6">
      <animate attributeName="r" values="60;70;60" dur="3.2s" repeatCount="indefinite"/>
      <animate attributeName="opacity" values="0.6;0;0.6" dur="3.2s" repeatCount="indefinite"/>
    </circle>
  </g>

  <!-- Node 5 - Bottom Center Left (Video) -->
  <g id="node5" transform="translate(440, 520)">
    <circle cx="0" cy="0" r="80" fill="url(#nodeGlow)"/>
    <circle cx="0" cy="0" r="60" fill="#8b5cf6" opacity="0.15" stroke="#8b5cf6" stroke-width="6"/>
    
    <!-- Play button icon -->
    <circle cx="0" cy="0" r="22" fill="none" stroke="#8b5cf6" stroke-width="5"/>
    <path d="M -8 -12 L -8 12 L 15 0 Z" fill="#8b5cf6"/>
    
    <text x="0" y="90" text-anchor="middle" font-family="sans-serif" font-size="16" font-weight="bold" fill="#8b5cf6">Video</text>
    
    <circle cx="0" cy="0" r="60" fill="none" stroke="#8b5cf6" stroke-width="3" opacity="0.6">
      <animate attributeName="r" values="60;70;60" dur="3.4s" repeatCount="indefinite"/>
      <animate attributeName="opacity" values="0.6;0;0.6" dur="3.4s" repeatCount="indefinite"/>
    </circle>
  </g>

  <!-- Node 6 - Bottom Center (Photo) -->
  <g id="node6" transform="translate(680, 520)">
    <circle cx="0" cy="0" r="80" fill="url(#nodeGlow)"/>
    <circle cx="0" cy="0" r="60" fill="#3b82f6" opacity="0.15" stroke="#3b82f6" stroke-width="6"/>
    
    <!-- Camera icon -->
    <rect x="-18" y="-10" width="36" height="24" rx="4" fill="none" stroke="#3b82f6" stroke-width="5"/>
    <circle cx="0" cy="2" r="8" fill="none" stroke="#3b82f6" stroke-width="3"/>
    <rect x="-22" y="-15" width="12" height="8" rx="2" fill="#3b82f6"/>
    
    <text x="0" y="90" text-anchor="middle" font-family="sans-serif" font-size="16" font-weight="bold" fill="#3b82f6">Photo</text>
    
    <circle cx="0" cy="0" r="60" fill="none" stroke="#3b82f6" stroke-width="3" opacity="0.6">
      <animate attributeName="r" values="60;70;60" dur="3.6s" repeatCount="indefinite"/>
      <animate attributeName="opacity" values="0.6;0;0.6" dur="3.6s" repeatCount="indefinite"/>
    </circle>
  </g>

  <!-- Node 7 - Bottom Right (Health/Fitness) -->
  <g id="node7" transform="translate(960, 420)">
    <circle cx="0" cy="0" r="80" fill="url(#nodeGlow)"/>
    <circle cx="0" cy="0" r="60" fill="#8b5cf6" opacity="0.15" stroke="#8b5cf6" stroke-width="6"/>
    
    <!-- Heart icon -->
    <path d="M 0 12 L -10 0 Q -15 -10 -8 -15 Q 0 -10 0 -10 Q 0 -10 8 -15 Q 15 -10 10 0 Z" fill="#8b5cf6" stroke="#8b5cf6" stroke-width="3"/>
    
    <text x="0" y="90" text-anchor="middle" font-family="sans-serif" font-size="16" font-weight="bold" fill="#8b5cf6">Health</text>
    
    <circle cx="0" cy="0" r="60" fill="none" stroke="#8b5cf6" stroke-width="3" opacity="0.6">
      <animate attributeName="r" values="60;70;60" dur="3.7s" repeatCount="indefinite"/>
      <animate attributeName="opacity" values="0.6;0;0.6" dur="3.7s" repeatCount="indefinite"/>
    </circle>
  </g>

  <!-- Node 8 - Top Right Far (Analytics) -->
  <g id="node8" transform="translate(1200, 280)">
    <circle cx="0" cy="0" r="80" fill="url(#nodeGlow)"/>
    <circle cx="0" cy="0" r="60" fill="#3b82f6" opacity="0.15" stroke="#3b82f6" stroke-width="6"/>
    
    <!-- Chart/growth icon -->
    <path d="M -18 12 L -10 0 L 0 6 L 10 -10 L 18 -6" fill="none" stroke="#3b82f6" stroke-width="5" stroke-linecap="round" stroke-linejoin="round"/>
    <line x1="18" y1="-6" x2="18" y2="-18" stroke="#3b82f6" stroke-width="5" stroke-linecap="round"/>
    <line x1="12" y1="-12" x2="18" y2="-18" stroke="#3b82f6" stroke-width="5" stroke-linecap="round"/>
    
    <text x="0" y="90" text-anchor="middle" font-family="sans-serif" font-size="16" font-weight="bold" fill="#3b82f6">Analytics</text>
    
    <circle cx="0" cy="0" r="60" fill="none" stroke="#3b82f6" stroke-width="3" opacity="0.6">
      <animate attributeName="r" values="60;70;60" dur="3.8s" repeatCount="indefinite"/>
      <animate attributeName="opacity" values="0.6;0;0.6" dur="3.8s" repeatCount="indefinite"/>
    </circle>
  </g>

  <!-- Connections with arrows (BOLDER) -->
  <path d="M 250 200 L 470 165" fill="none" stroke="#8b5cf6" stroke-width="4" opacity="0.6" marker-end="url(#arrowPurple)"/>
  <path d="M 265 230 L 300 375" fill="none" stroke="#3b82f6" stroke-width="4" opacity="0.6" marker-end="url(#arrowBlue)"/>
  <path d="M 570 165 L 830 190" fill="none" stroke="#3b82f6" stroke-width="4" opacity="0.6" marker-end="url(#arrowBlue)"/>
  <path d="M 515 200 L 315 380" fill="none" stroke="#8b5cf6" stroke-width="4" opacity="0.6" marker-end="url(#arrowPurple)"/>
  <path d="M 540 200 L 465 475" fill="none" stroke="#3b82f6" stroke-width="4" opacity="0.6" marker-end="url(#arrowBlue)"/>
  <path d="M 565 180 L 640 485" fill="none" stroke="#8b5cf6" stroke-width="4" opacity="0.6" marker-end="url(#arrowPurple)"/>
  <path d="M 920 210 L 965 375" fill="none" stroke="#3b82f6" stroke-width="4" opacity="0.6" marker-end="url(#arrowBlue)"/>
  <path d="M 920 200 L 1150 265" fill="none" stroke="#8b5cf6" stroke-width="4" opacity="0.6" marker-end="url(#arrowPurple)"/>
  <path d="M 470 490 L 635 505" fill="none" stroke="#3b82f6" stroke-width="4" opacity="0.6" marker-end="url(#arrowBlue)"/>
  <path d="M 715 495 L 915 440" fill="none" stroke="#8b5cf6" stroke-width="4" opacity="0.6" marker-end="url(#arrowPurple)"/>
  
  <!-- Cross-promotion dashed lines (BOLDER) -->
  <path d="M 330 400 L 415 500" fill="none" stroke="#8b5cf6" stroke-width="3" opacity="0.5" stroke-dasharray="8,8"/>
  <path d="M 705 470 L 920 400" fill="none" stroke="#3b82f6" stroke-width="3" opacity="0.5" stroke-dasharray="8,8"/>
  <path d="M 245 240 L 310 365" fill="none" stroke="#8b5cf6" stroke-width="3" opacity="0.5" stroke-dasharray="8,8"/>

  <!-- Data flow particles (LARGER) -->
  <circle cx="360" cy="182" r="6" fill="#8b5cf6" opacity="0.9">
    <animateMotion path="M 0 0 L 110 -17" dur="2s" repeatCount="indefinite"/>
    <animate attributeName="opacity" values="0;0.9;0" dur="2s" repeatCount="indefinite"/>
  </circle>
  
  <circle cx="700" cy="170" r="6" fill="#3b82f6" opacity="0.9">
    <animateMotion path="M 0 0 L 180 20" dur="2.5s" repeatCount="indefinite"/>
    <animate attributeName="opacity" values="0;0.9;0" dur="2.5s" repeatCount="indefinite"/>
  </circle>
  
  <circle cx="520" cy="185" r="6" fill="#8b5cf6" opacity="0.9">
    <animateMotion path="M 0 0 L -205 195" dur="2.8s" repeatCount="indefinite"/>
    <animate attributeName="opacity" values="0;0.9;0" dur="2.8s" repeatCount="indefinite"/>
  </circle>

  <!-- Growth metrics floating around connections (BOLDER) -->
  <g opacity="0.9">
    <!-- Metric 1 -->
    <g transform="translate(360, 175)">
      <rect x="-32" y="-16" width="64" height="32" rx="16" fill="#8b5cf6" opacity="0.25" stroke="#8b5cf6" stroke-width="2"/>
      <text x="0" y="7" text-anchor="middle" font-family="sans-serif" font-size="15" font-weight="bold" fill="#8b5cf6">+24%</text>
      <animate attributeName="transform" values="translate(360, 175);translate(360, 165);translate(360, 175)" dur="3s" repeatCount="indefinite"/>
    </g>
    
    <!-- Metric 2 -->
    <g transform="translate(285, 305)">
      <rect x="-38" y="-16" width="76" height="32" rx="16" fill="#3b82f6" opacity="0.25" stroke="#3b82f6" stroke-width="2"/>
      <text x="0" y="7" text-anchor="middle" font-family="sans-serif" font-size="15" font-weight="bold" fill="#3b82f6">DAU +2%</text>
      <animate attributeName="transform" values="translate(285, 305);translate(285, 295);translate(285, 305)" dur="3.5s" repeatCount="indefinite"/>
    </g>
    
    <!-- Metric 3 -->
    <g transform="translate(700, 185)">
      <rect x="-42" y="-16" width="84" height="32" rx="16" fill="#8b5cf6" opacity="0.25" stroke="#8b5cf6" stroke-width="2"/>
      <text x="0" y="7" text-anchor="middle" font-family="sans-serif" font-size="15" font-weight="bold" fill="#8b5cf6">APR +12M</text>
      <animate attributeName="transform" values="translate(700, 185);translate(700, 175);translate(700, 185)" dur="3.2s" repeatCount="indefinite"/>
    </g>
    
    <!-- Metric 4 -->
    <g transform="translate(490, 340)">
      <rect x="-36" y="-16" width="72" height="32" rx="16" fill="#3b82f6" opacity="0.25" stroke="#3b82f6" stroke-width="2"/>
      <text x="0" y="7" text-anchor="middle" font-family="sans-serif" font-size="15" font-weight="bold" fill="#3b82f6">MAU ↑</text>
      <animate attributeName="transform" values="translate(490, 340);translate(490, 330);translate(490, 340)" dur="3.8s" repeatCount="indefinite"/>
    </g>
    
    <!-- Small growth indicators (BOLDER) -->
    <g transform="translate(250, 340)">
      <path d="M 0 10 L 0 0 L 10 0" fill="none" stroke="#8b5cf6" stroke-width="3"/>
      <line x1="10" y1="0" x2="6" y2="4" stroke="#8b5cf6" stroke-width="3"/>
      <line x1="10" y1="0" x2="6" y2="-4" stroke="#8b5cf6" stroke-width="3"/>
    </g>
    
    <g transform="translate(700, 100)">
      <rect x="-4" y="0" width="22" height="8" fill="#3b82f6" opacity="0.7"/>
      <rect x="-4" y="10" width="22" height="10" fill="#3b82f6" opacity="0.7"/>
      <rect x="-4" y="22" width="22" height="13" fill="#3b82f6" opacity="0.7"/>
    </g>
    
    <g transform="translate(1020, 330)">
      <path d="M 0 10 L 10 0 L 20 5 L 30 -5" fill="none" stroke="#8b5cf6" stroke-width="3"/>
      <line x1="30" y1="-5" x2="30" y2="-12" stroke="#8b5cf6" stroke-width="3"/>
      <line x1="24" y1="-9" x2="30" y2="-12" stroke="#8b5cf6" stroke-width="3"/>
    </g>
  </g>

  <!-- Bottom label (BOLDER) -->
  <g transform="translate(700, 650)" opacity="0.8">
    <text x="0" y="0" text-anchor="middle" font-family="sans-serif" font-size="16" font-weight="600" fill="url(#purpleBlue)">Cross-promotions · Shared components · Referrals</text>
  </g>
</svg>
  <defs>
    <!-- Gradients -->
    <linearGradient id="purpleBlue" x1="0%" y1="0%" x2="100%" y2="0%">
      <stop offset="0%" style="stop-color:#8b5cf6;stop-opacity:1" />
      <stop offset="100%" style="stop-color:#3b82f6;stop-opacity:1" />
    </linearGradient>
    
    <radialGradient id="nodeGlow" cx="50%" cy="50%">
      <stop offset="0%" style="stop-color:#8b5cf6;stop-opacity:0.4" />
      <stop offset="100%" style="stop-color:#3b82f6;stop-opacity:0" />
    </radialGradient>
    
    <radialGradient id="centerGlow" cx="50%" cy="50%">
      <stop offset="0%" style="stop-color:#8b5cf6;stop-opacity:0.6" />
      <stop offset="50%" style="stop-color:#3b82f6;stop-opacity:0.3" />
      <stop offset="100%" style="stop-color:#8b5cf6;stop-opacity:0" />
    </radialGradient>
    
    <!-- Arrow marker -->
    <marker id="arrowPurple" markerWidth="10" markerHeight="10" refX="9" refY="3" orient="auto" markerUnits="strokeWidth">
      <path d="M0,0 L0,6 L9,3 z" fill="#8b5cf6" opacity="0.6"/>
    </marker>
    
    <marker id="arrowBlue" markerWidth="10" markerHeight="10" refX="9" refY="3" orient="auto" markerUnits="strokeWidth">
      <path d="M0,0 L0,6 L9,3 z" fill="#3b82f6" opacity="0.6"/>
    </marker>
  </defs>

  <!-- Central hub node -->
  <g id="centerNode" transform="translate(500, 500)">
    <!-- Glow -->
    <circle cx="0" cy="0" r="100" fill="url(#centerGlow)"/>
    
    <!-- Node circle -->
    <circle cx="0" cy="0" r="60" fill="url(#purpleBlue)" opacity="0.15" stroke="url(#purpleBlue)" stroke-width="4"/>
    <circle cx="0" cy="0" r="45" fill="none" stroke="url(#purpleBlue)" stroke-width="2" opacity="0.4" stroke-dasharray="5,5">
      <animateTransform attributeName="transform" type="rotate" from="0 0 0" to="360 0 0" dur="20s" repeatCount="indefinite"/>
    </circle>
    
    <!-- Network icon -->
    <circle cx="-15" cy="-15" r="5" fill="#8b5cf6"/>
    <circle cx="15" cy="-15" r="5" fill="#3b82f6"/>
    <circle cx="-15" cy="15" r="5" fill="#3b82f6"/>
    <circle cx="15" cy="15" r="5" fill="#8b5cf6"/>
    <circle cx="0" cy="0" r="6" fill="url(#purpleBlue)"/>
    <line x1="-15" y1="-15" x2="0" y2="0" stroke="url(#purpleBlue)" stroke-width="2"/>
    <line x1="15" y1="-15" x2="0" y2="0" stroke="url(#purpleBlue)" stroke-width="2"/>
    <line x1="-15" y1="15" x2="0" y2="0" stroke="url(#purpleBlue)" stroke-width="2"/>
    <line x1="15" y1="15" x2="0" y2="0" stroke="url(#purpleBlue)" stroke-width="2"/>
    
    <!-- Label -->
    <text x="0" y="85" text-anchor="middle" font-family="sans-serif" font-size="14" font-weight="600" fill="url(#purpleBlue)">Hub Network</text>
  </g>

  <!-- Node 1 - Top (Mobile App) -->
  <g id="node1" transform="translate(500, 200)">
    <circle cx="0" cy="0" r="60" fill="url(#nodeGlow)"/>
    <circle cx="0" cy="0" r="45" fill="#8b5cf6" opacity="0.1" stroke="#8b5cf6" stroke-width="3"/>
    
    <!-- Mobile icon -->
    <rect x="-12" y="-18" width="24" height="36" rx="3" fill="none" stroke="#8b5cf6" stroke-width="3"/>
    <circle cx="0" cy="15" r="2" fill="#8b5cf6"/>
    <line x1="-8" y1="-14" x2="8" y2="-14" stroke="#8b5cf6" stroke-width="2"/>
    
    <text x="0" y="65" text-anchor="middle" font-family="sans-serif" font-size="12" font-weight="600" fill="#8b5cf6">Mobile App</text>
    
    <!-- Pulse animation -->
    <circle cx="0" cy="0" r="45" fill="none" stroke="#8b5cf6" stroke-width="2" opacity="0.5">
      <animate attributeName="r" values="45;55;45" dur="3s" repeatCount="indefinite"/>
      <animate attributeName="opacity" values="0.5;0;0.5" dur="3s" repeatCount="indefinite"/>
    </circle>
  </g>

  <!-- Node 2 - Top Right (SaaS Platform) -->
  <g id="node2" transform="translate(750, 300)">
    <circle cx="0" cy="0" r="60" fill="url(#nodeGlow)"/>
    <circle cx="0" cy="0" r="45" fill="#3b82f6" opacity="0.1" stroke="#3b82f6" stroke-width="3"/>
    
    <!-- Cloud/SaaS icon -->
    <path d="M -15 5 Q -15 -5 -5 -8 Q -5 -15 5 -15 Q 15 -15 15 -5 Q 25 -5 25 5 Q 25 15 15 15 L -15 15 Q -25 15 -25 5 Q -25 -5 -15 5" 
          fill="none" stroke="#3b82f6" stroke-width="3"/>
    
    <text x="0" y="65" text-anchor="middle" font-family="sans-serif" font-size="12" font-weight="600" fill="#3b82f6">SaaS Platform</text>
    
    <circle cx="0" cy="0" r="45" fill="none" stroke="#3b82f6" stroke-width="2" opacity="0.5">
      <animate attributeName="r" values="45;55;45" dur="3.5s" repeatCount="indefinite"/>
      <animate attributeName="opacity" values="0.5;0;0.5" dur="3.5s" repeatCount="indefinite"/>
    </circle>
  </g>

  <!-- Node 3 - Right (E-commerce) -->
  <g id="node3" transform="translate(800, 500)">
    <circle cx="0" cy="0" r="60" fill="url(#nodeGlow)"/>
    <circle cx="0" cy="0" r="45" fill="#8b5cf6" opacity="0.1" stroke="#8b5cf6" stroke-width="3"/>
    
    <!-- Shopping cart icon -->
    <circle cx="-8" cy="-8" r="3" fill="none" stroke="#8b5cf6" stroke-width="2"/>
    <circle cx="8" cy="-8" r="3" fill="none" stroke="#8b5cf6" stroke-width="2"/>
    <path d="M -12 -8 L -18 -18 L -10 -18 L -4 0 L 12 0" fill="none" stroke="#8b5cf6" stroke-width="3" stroke-linecap="round" stroke-linejoin="round"/>
    <circle cx="-2" cy="8" r="2" fill="#8b5cf6"/>
    <circle cx="8" cy="8" r="2" fill="#8b5cf6"/>
    
    <text x="0" y="65" text-anchor="middle" font-family="sans-serif" font-size="12" font-weight="600" fill="#8b5cf6">E-commerce</text>
    
    <circle cx="0" cy="0" r="45" fill="none" stroke="#8b5cf6" stroke-width="2" opacity="0.5">
      <animate attributeName="r" values="45;55;45" dur="3.2s" repeatCount="indefinite"/>
      <animate attributeName="opacity" values="0.5;0;0.5" dur="3.2s" repeatCount="indefinite"/>
    </circle>
  </g>

  <!-- Node 4 - Bottom Right (Analytics) -->
  <g id="node4" transform="translate(750, 700)">
    <circle cx="0" cy="0" r="60" fill="url(#nodeGlow)"/>
    <circle cx="0" cy="0" r="45" fill="#3b82f6" opacity="0.1" stroke="#3b82f6" stroke-width="3"/>
    
    <!-- Analytics/chart icon -->
    <rect x="-15" y="5" width="6" height="10" rx="1" fill="#3b82f6"/>
    <rect x="-5" y="-5" width="6" height="20" rx="1" fill="#3b82f6"/>
    <rect x="5" y="-10" width="6" height="25" rx="1" fill="#3b82f6"/>
    <path d="M -18 -12 L -8 -5 L 2 -8 L 12 -15" fill="none" stroke="#3b82f6" stroke-width="2"/>
    
    <text x="0" y="65" text-anchor="middle" font-family="sans-serif" font-size="12" font-weight="600" fill="#3b82f6">Analytics</text>
    
    <circle cx="0" cy="0" r="45" fill="none" stroke="#3b82f6" stroke-width="2" opacity="0.5">
      <animate attributeName="r" values="45;55;45" dur="3.8s" repeatCount="indefinite"/>
      <animate attributeName="opacity" values="0.5;0;0.5" dur="3.8s" repeatCount="indefinite"/>
    </circle>
  </g>

  <!-- Node 5 - Bottom (Fintech) -->
  <g id="node5" transform="translate(500, 800)">
    <circle cx="0" cy="0" r="60" fill="url(#nodeGlow)"/>
    <circle cx="0" cy="0" r="45" fill="#8b5cf6" opacity="0.1" stroke="#8b5cf6" stroke-width="3"/>
    
    <!-- Dollar/finance icon -->
    <text x="0" y="10" text-anchor="middle" font-family="sans-serif" font-size="32" font-weight="bold" fill="#8b5cf6">$</text>
    
    <text x="0" y="65" text-anchor="middle" font-family="sans-serif" font-size="12" font-weight="600" fill="#8b5cf6">Fintech</text>
    
    <circle cx="0" cy="0" r="45" fill="none" stroke="#8b5cf6" stroke-width="2" opacity="0.5">
      <animate attributeName="r" values="45;55;45" dur="3.3s" repeatCount="indefinite"/>
      <animate attributeName="opacity" values="0.5;0;0.5" dur="3.3s" repeatCount="indefinite"/>
    </circle>
  </g>

  <!-- Node 6 - Bottom Left (Social) -->
  <g id="node6" transform="translate(250, 700)">
    <circle cx="0" cy="0" r="60" fill="url(#nodeGlow)"/>
    <circle cx="0" cy="0" r="45" fill="#3b82f6" opacity="0.1" stroke="#3b82f6" stroke-width="3"/>
    
    <!-- Social/people icon -->
    <circle cx="-8" cy="-5" r="5" fill="none" stroke="#3b82f6" stroke-width="2"/>
    <circle cx="8" cy="-5" r="5" fill="none" stroke="#3b82f6" stroke-width="2"/>
    <path d="M -8 3 Q -8 10 -2 13 L -2 8" fill="none" stroke="#3b82f6" stroke-width="2"/>
    <path d="M 8 3 Q 8 10 2 13 L 2 8" fill="none" stroke="#3b82f6" stroke-width="2"/>
    
    <text x="0" y="65" text-anchor="middle" font-family="sans-serif" font-size="12" font-weight="600" fill="#3b82f6">Social</text>
    
    <circle cx="0" cy="0" r="45" fill="none" stroke="#3b82f6" stroke-width="2" opacity="0.5">
      <animate attributeName="r" values="45;55;45" dur="3.6s" repeatCount="indefinite"/>
      <animate attributeName="opacity" values="0.5;0;0.5" dur="3.6s" repeatCount="indefinite"/>
    </circle>
  </g>

  <!-- Node 7 - Left (Web App) -->
  <g id="node7" transform="translate(200, 500)">
    <circle cx="0" cy="0" r="60" fill="url(#nodeGlow)"/>
    <circle cx="0" cy="0" r="45" fill="#8b5cf6" opacity="0.1" stroke="#8b5cf6" stroke-width="3"/>
    
    <!-- Browser/web icon -->
    <rect x="-15" y="-12" width="30" height="24" rx="2" fill="none" stroke="#8b5cf6" stroke-width="3"/>
    <line x1="-15" y1="-6" x2="15" y2="-6" stroke="#8b5cf6" stroke-width="2"/>
    <circle cx="-10" cy="-9" r="1.5" fill="#8b5cf6"/>
    <circle cx="-5" cy="-9" r="1.5" fill="#8b5cf6"/>
    
    <text x="0" y="65" text-anchor="middle" font-family="sans-serif" font-size="12" font-weight="600" fill="#8b5cf6">Web App</text>
    
    <circle cx="0" cy="0" r="45" fill="none" stroke="#8b5cf6" stroke-width="2" opacity="0.5">
      <animate attributeName="r" values="45;55;45" dur="3.4s" repeatCount="indefinite"/>
      <animate attributeName="opacity" values="0.5;0;0.5" dur="3.4s" repeatCount="indefinite"/>
    </circle>
  </g>

  <!-- Node 8 - Top Left (AI/ML) -->
  <g id="node8" transform="translate(250, 300)">
    <circle cx="0" cy="0" r="60" fill="url(#nodeGlow)"/>
    <circle cx="0" cy="0" r="45" fill="#3b82f6" opacity="0.1" stroke="#3b82f6" stroke-width="3"/>
    
    <!-- AI/Brain icon -->
    <circle cx="0" cy="0" r="12" fill="none" stroke="#3b82f6" stroke-width="2"/>
    <path d="M -8 -8 L -4 -4 M 8 -8 L 4 -4 M -8 8 L -4 4 M 8 8 L 4 4" stroke="#3b82f6" stroke-width="2"/>
    <circle cx="0" cy="0" r="3" fill="#3b82f6"/>
    
    <text x="0" y="65" text-anchor="middle" font-family="sans-serif" font-size="12" font-weight="600" fill="#3b82f6">AI/ML</text>
    
    <circle cx="0" cy="0" r="45" fill="none" stroke="#3b82f6" stroke-width="2" opacity="0.5">
      <animate attributeName="r" values="45;55;45" dur="3.7s" repeatCount="indefinite"/>
      <animate attributeName="opacity" values="0.5;0;0.5" dur="3.7s" repeatCount="indefinite"/>
    </circle>
  </g>

  <!-- Connections with arrows -->
  <!-- Center to Node 1 -->
  <path d="M 500 440 Q 500 320 500 260" fill="none" stroke="#8b5cf6" stroke-width="2" opacity="0.4" marker-end="url(#arrowPurple)"/>
  
  <!-- Center to Node 2 -->
  <path d="M 545 470 Q 650 380 705 330" fill="none" stroke="#3b82f6" stroke-width="2" opacity="0.4" marker-end="url(#arrowBlue)"/>
  
  <!-- Center to Node 3 -->
  <path d="M 560 500 Q 680 500 745 500" fill="none" stroke="#8b5cf6" stroke-width="2" opacity="0.4" marker-end="url(#arrowPurple)"/>
  
  <!-- Center to Node 4 -->
  <path d="M 545 530 Q 650 620 705 670" fill="none" stroke="#3b82f6" stroke-width="2" opacity="0.4" marker-end="url(#arrowBlue)"/>
  
  <!-- Center to Node 5 -->
  <path d="M 500 560 Q 500 680 500 745" fill="none" stroke="#8b5cf6" stroke-width="2" opacity="0.4" marker-end="url(#arrowPurple)"/>
  
  <!-- Center to Node 6 -->
  <path d="M 455 530 Q 350 620 295 670" fill="none" stroke="#3b82f6" stroke-width="2" opacity="0.4" marker-end="url(#arrowBlue)"/>
  
  <!-- Center to Node 7 -->
  <path d="M 440 500 Q 320 500 255 500" fill="none" stroke="#8b5cf6" stroke-width="2" opacity="0.4" marker-end="url(#arrowPurple)"/>
  
  <!-- Center to Node 8 -->
  <path d="M 455 470 Q 350 380 295 330" fill="none" stroke="#3b82f6" stroke-width="2" opacity="0.4" marker-end="url(#arrowBlue)"/>

  <!-- Cross-promotion connections between nodes -->
  <path d="M 540 230 Q 650 260 710 280" fill="none" stroke="#8b5cf6" stroke-width="1.5" opacity="0.3" stroke-dasharray="5,5" marker-end="url(#arrowPurple)"/>
  <path d="M 760 345 Q 780 420 770 455" fill="none" stroke="#3b82f6" stroke-width="1.5" opacity="0.3" stroke-dasharray="5,5" marker-end="url(#arrowBlue)"/>
  <path d="M 715 730 Q 600 760 545 780" fill="none" stroke="#8b5cf6" stroke-width="1.5" opacity="0.3" stroke-dasharray="5,5" marker-end="url(#arrowPurple)"/>
  <path d="M 285 730 Q 240 620 240 545" fill="none" stroke="#3b82f6" stroke-width="1.5" opacity="0.3" stroke-dasharray="5,5" marker-end="url(#arrowBlue)"/>

  <!-- Data flow particles -->
  <circle cx="500" cy="350" r="3" fill="#8b5cf6" opacity="0.8">
    <animateMotion path="M 0 0 Q 0 -60 0 -90" dur="2s" repeatCount="indefinite"/>
    <animate attributeName="opacity" values="0;0.8;0" dur="2s" repeatCount="indefinite"/>
  </circle>
  
  <circle cx="525" cy="485" r="3" fill="#3b82f6" opacity="0.8">
    <animateMotion path="M 0 0 Q 110 -95 180 -155" dur="2.5s" repeatCount="indefinite"/>
    <animate attributeName="opacity" values="0;0.8;0" dur="2.5s" repeatCount="indefinite"/>
  </circle>
  
  <circle cx="475" cy="515" r="3" fill="#8b5cf6" opacity="0.8">
    <animateMotion path="M 0 0 Q -110 95 -180 155" dur="2.8s" repeatCount="indefinite"/>
    <animate attributeName="opacity" values="0;0.8;0" dur="2.8s" repeatCount="indefinite"/>
  </circle>

  <!-- Growth metrics floating around connections -->
  <g opacity="0.7">
    <!-- Metric 1 -->
    <g transform="translate(600, 280)">
      <rect x="-25" y="-12" width="50" height="24" rx="12" fill="#8b5cf6" opacity="0.2"/>
      <text x="0" y="5" text-anchor="middle" font-family="sans-serif" font-size="12" font-weight="600" fill="#8b5cf6">+45%</text>
      <animate attributeName="transform" values="translate(600, 280);translate(600, 270);translate(600, 280)" dur="3s" repeatCount="indefinite"/>
    </g>
    
    <!-- Metric 2 -->
    <g transform="translate(650, 400)">
      <rect x="-28" y="-12" width="56" height="24" rx="12" fill="#3b82f6" opacity="0.2"/>
      <text x="0" y="5" text-anchor="middle" font-family="sans-serif" font-size="12" font-weight="600" fill="#3b82f6">2.3K</text>
      <animate attributeName="transform" values="translate(650, 400);translate(650, 390);translate(650, 400)" dur="3.5s" repeatCount="indefinite"/>
    </g>
    
    <!-- Metric 3 -->
    <g transform="translate(600, 620)">
      <rect x="-25" y="-12" width="50" height="24" rx="12" fill="#8b5cf6" opacity="0.2"/>
      <text x="0" y="5" text-anchor="middle" font-family="sans-serif" font-size="12" font-weight="600" fill="#8b5cf6">+32%</text>
      <animate attributeName="transform" values="translate(600, 620);translate(600, 610);translate(600, 620)" dur="3.2s" repeatCount="indefinite"/>
    </g>
    
    <!-- Metric 4 -->
    <g transform="translate(350, 620)">
      <rect x="-28" y="-12" width="56" height="24" rx="12" fill="#3b82f6" opacity="0.2"/>
      <text x="0" y="5" text-anchor="middle" font-family="sans-serif" font-size="12" font-weight="600" fill="#3b82f6">1.8K</text>
      <animate attributeName="transform" values="translate(350, 620);translate(350, 610);translate(350, 620)" dur="3.8s" repeatCount="indefinite"/>
    </g>
    
    <!-- Metric 5 -->
    <g transform="translate(350, 400)">
      <rect x="-25" y="-12" width="50" height="24" rx="12" fill="#8b5cf6" opacity="0.2"/>
      <text x="0" y="5" text-anchor="middle" font-family="sans-serif" font-size="12" font-weight="600" fill="#8b5cf6">+28%</text>
      <animate attributeName="transform" values="translate(350, 400);translate(350, 390);translate(350, 400)" dur="3.4s" repeatCount="indefinite"/>
    </g>
    
    <!-- Metric 6 -->
    <g transform="translate(400, 280)">
      <rect x="-28" y="-12" width="56" height="24" rx="12" fill="#3b82f6" opacity="0.2"/>
      <text x="0" y="5" text-anchor="middle" font-family="sans-serif" font-size="12" font-weight="600" fill="#3b82f6">3.1K</text>
      <animate attributeName="transform" values="translate(400, 280);translate(400, 270);translate(400, 280)" dur="3.6s" repeatCount="indefinite"/>
    </g>
  </g>

  <!-- Network stats summary -->
  <g transform="translate(500, 100)" opacity="0.6">
    <text x="0" y="0" text-anchor="middle" font-family="sans-serif" font-size="16" font-weight="600" fill="url(#purpleBlue)">Active Network: 8 Startups</text>
    <text x="0" y="22" text-anchor="middle" font-family="sans-serif" font-size="13" fill="#8b5cf6">Total Reach: 12.4K users</text>
  </g>
</svg>
