<?xml version="1.0" encoding="UTF-8"?>
<!DOCTYPE svg PUBLIC "-//W3C//DTD SVG 1.1//EN" "http://www.w3.org/Graphics/SVG/1.1/DTD/svg11.dtd">
<!-- Creator: CorelDRAW -->
<svg xmlns="http://www.w3.org/2000/svg" xml:space="preserve" width="5548px" height="2712px" version="1.1" shape-rendering="geometricPrecision" text-rendering="geometricPrecision" image-rendering="optimizeQuality" fill-rule="evenodd" clip-rule="evenodd"
viewBox="0 0 5835.2 2852.83"
 xmlns:xlink="http://www.w3.org/1999/xlink"
 xmlns:xodm="http://www.corel.com/coreldraw/odm/2003">
 <g id="Layer_x0020_1">
  <metadata id="CorelCorpID_0Corel-Layer"/>
  <g id="_2340888023584">
   <rect fill="#E9E5FF" stroke="#6951FF" stroke-width="17.53" stroke-miterlimit="2.61313" x="15.96" y="8.77" width="966.85" height="935.71" rx="157.89" ry="157.77"/>
   <rect fill="#E9E5FF" stroke="#6951FF" stroke-width="17.53" stroke-miterlimit="2.61313" x="1123.53" y="8.77" width="966.85" height="935.71" rx="157.89" ry="157.77"/>
   <rect fill="#E9E5FF" stroke="#6951FF" stroke-width="17.53" stroke-miterlimit="2.61313" x="2256.34" y="8.77" width="966.85" height="935.71" rx="157.89" ry="157.77"/>
   <rect fill="none" stroke="#6951FF" stroke-width="17.53" stroke-miterlimit="2.61313" x="3657.36" y="422.13" width="966.85" height="1857.57" rx="157.89" ry="313.21"/>
   <rect fill="none" stroke="#6951FF" stroke-width="17.53" stroke-miterlimit="2.61313" x="4859.59" y="422.13" width="966.85" height="1857.57" rx="157.89" ry="313.21"/>
   <rect fill="#E9E5FF" stroke="#6951FF" stroke-width="17.53" stroke-miterlimit="2.61313" x="4973.19" y="570.44" width="737.45" height="503.34" rx="55.16" ry="38.87"/>
   <rect fill="#E9E5FF" stroke="#6951FF" stroke-width="17.53" stroke-miterlimit="2.61313" x="3767.8" y="570.44" width="737.45" height="503.34" rx="55.16" ry="38.87"/>
   <rect fill="none" stroke="#6951FF" stroke-width="17.53" stroke-miterlimit="2.61313" x="15.96" y="2145.65" width="827.19" height="698.41" rx="135.08" ry="117.76"/>
   <rect fill="none" stroke="#6951FF" stroke-width="17.53" stroke-miterlimit="2.61313" x="1205.57" y="2145.65" width="827.19" height="698.41" rx="135.08" ry="117.76"/>
   <rect fill="none" stroke="#6951FF" stroke-width="17.53" stroke-miterlimit="2.61313" x="2407.8" y="2145.65" width="827.19" height="698.41" rx="135.08" ry="117.76"/>
   <rect fill="#766BFF" stroke="#6951FF" stroke-width="17.53" stroke-miterlimit="2.61313" x="8.77" y="1334.6" width="3217.09" height="431.32" rx="188.74" ry="189.33"/>
   <line fill="none" stroke="#6951FF" stroke-width="26.3" stroke-miterlimit="2.61313" x1="3751.63" y1="1203.06" x2="4273.16" y2= "1203.06" />
   <line fill="none" stroke="#6951FF" stroke-width="26.3" stroke-miterlimit="2.61313" x1="3751.63" y1="1313.5" x2="4422.17" y2= "1313.5" />
   <line fill="none" stroke="#6951FF" stroke-width="26.3" stroke-miterlimit="2.61313" x1="4972.79" y1="1203.06" x2="5494.32" y2= "1203.06" />
   <line fill="none" stroke="#6951FF" stroke-width="26.3" stroke-miterlimit="2.61313" x1="4972.79" y1="1313.5" x2="5643.33" y2= "1313.5" />
   <line fill="none" stroke="#6951FF" stroke-width="26.3" stroke-miterlimit="2.61313" x1="3751.63" y1="2045.56" x2="4508.57" y2= "2045.56" />
   <line fill="none" stroke="#6951FF" stroke-width="26.3" stroke-miterlimit="2.61313" x1="4950.71" y1="2045.56" x2="5707.64" y2= "2045.56" />
   <path fill="none" stroke="#6951FF" stroke-width="17.53" stroke-miterlimit="2.61313" d="M1606.95 944.48l3.97 390.13m4.38 431.32l3.86 379.72"/>
   <line fill="none" stroke="#6951FF" stroke-width="17.53" stroke-miterlimit="2.61313" x1="490.19" y1="1193.68" x2="2739.79" y2= "1195.13" />
   <line fill="none" stroke="#6951FF" stroke-width="17.53" stroke-miterlimit="2.61313" x1="499.38" y1="944.48" x2="499.04" y2= "1194.28" />
   <line fill="none" stroke="#6951FF" stroke-width="17.53" stroke-miterlimit="2.61313" x1="2739.76" y1="944.48" x2="2739.79" y2= "1203.86" />
   <line fill="none" stroke="#6951FF" stroke-width="17.53" stroke-miterlimit="2.61313" x1="420.63" y1="1951.11" x2="2830.14" y2= "1950.96" />
   <line fill="none" stroke="#6951FF" stroke-width="17.53" stroke-miterlimit="2.61313" x1="429.56" y1="2145.65" x2="429.41" y2= "1952.55" />
   <line fill="none" stroke="#6951FF" stroke-width="17.53" stroke-miterlimit="2.61313" x1="2821.39" y1="2145.65" x2="2821.35" y2= "1950.65" />
   <path fill="#6951FF" fill-rule="nonzero" d="M285.27 2580.38l-32.86 0 -13 -34.29 -60.41 0 -12.52 34.29 -32.25 0 58.48 -150.62 32.22 0 60.34 150.62zm-55.75 -59.74l-20.93 -55.75 -20.34 55.75 41.27 0z"/>
   <path id="_1" fill="#6951FF" fill-rule="nonzero" d="M300.45 2471.2l26.92 0 0 16.02c3.51,-5.47 8.21,-9.88 14.17,-13.29 5.96,-3.36 12.59,-5.04 19.84,-5.04 12.66,0 23.42,4.97 32.26,14.93 8.83,9.92 13.25,23.81 13.25,41.55 0,18.27 -4.45,32.43 -13.36,42.56 -8.9,10.13 -19.7,15.18 -32.39,15.18 -6.03,0 -11.5,-1.19 -16.41,-3.61 -4.87,-2.38 -10.06,-6.48 -15.46,-12.3l0 54.62 -28.82 0 0 -150.62zm28.4 52.91c0,12.3 2.42,21.38 7.29,27.27 4.84,5.86 10.76,8.8 17.7,8.8 6.7,0 12.28,-2.7 16.73,-8.09 4.45,-5.4 6.66,-14.24 6.66,-26.55 0,-11.5 -2.28,-20.01 -6.87,-25.59 -4.56,-5.57 -10.24,-8.34 -17.01,-8.34 -7.04,0 -12.9,2.73 -17.53,8.2 -4.66,5.47 -6.97,13.57 -6.97,24.3z"/>
   <path id="_2" fill="#6951FF" fill-rule="nonzero" d="M428.94 2471.2l26.93 0 0 16.02c3.51,-5.47 8.2,-9.88 14.17,-13.29 5.96,-3.36 12.58,-5.04 19.84,-5.04 12.66,0 23.42,4.97 32.26,14.93 8.83,9.92 13.25,23.81 13.25,41.55 0,18.27 -4.45,32.43 -13.36,42.56 -8.91,10.13 -19.7,15.18 -32.4,15.18 -6.03,0 -11.5,-1.19 -16.4,-3.61 -4.88,-2.38 -10.07,-6.48 -15.47,-12.3l0 54.62 -28.82 0 0 -150.62zm28.4 52.91c0,12.3 2.42,21.38 7.3,27.27 4.83,5.86 10.76,8.8 17.7,8.8 6.7,0 12.27,-2.7 16.73,-8.09 4.45,-5.4 6.66,-14.24 6.66,-26.55 0,-11.5 -2.28,-20.01 -6.87,-25.59 -4.56,-5.57 -10.24,-8.34 -17.01,-8.34 -7.05,0 -12.9,2.73 -17.53,8.2 -4.66,5.47 -6.98,13.57 -6.98,24.3z"/>
   <path id="_3" fill="#6951FF" fill-rule="nonzero" d="M744.81 2580.38l-32.86 0 -13 -34.29 -60.41 0 -12.52 34.29 -32.26 0 58.49 -150.62 32.22 0 60.34 150.62zm-55.75 -59.74l-20.93 -55.75 -20.34 55.75 41.27 0z"/>
   <path fill="#6951FF" fill-rule="nonzero" d="M1474.87 2580.38l-32.85 0 -13 -34.29 -60.41 0 -12.52 34.29 -32.26 0 58.48 -150.62 32.23 0 60.33 150.62zm-55.74 -59.74l-20.93 -55.75 -20.34 55.75 41.27 0z"/>
   <path id="_1_0" fill="#6951FF" fill-rule="nonzero" d="M1490.06 2471.2l26.92 0 0 16.02c3.51,-5.47 8.21,-9.88 14.17,-13.29 5.96,-3.36 12.58,-5.04 19.84,-5.04 12.66,0 23.42,4.97 32.26,14.93 8.83,9.92 13.25,23.81 13.25,41.55 0,18.27 -4.45,32.43 -13.36,42.56 -8.9,10.13 -19.7,15.18 -32.39,15.18 -6.03,0 -11.5,-1.19 -16.41,-3.61 -4.88,-2.38 -10.07,-6.48 -15.46,-12.3l0 54.62 -28.82 0 0 -150.62zm28.4 52.91c0,12.3 2.41,21.38 7.29,27.27 4.84,5.86 10.76,8.8 17.7,8.8 6.7,0 12.27,-2.7 16.73,-8.09 4.45,-5.4 6.66,-14.24 6.66,-26.55 0,-11.5 -2.28,-20.01 -6.87,-25.59 -4.56,-5.57 -10.24,-8.34 -17.01,-8.34 -7.05,0 -12.9,2.73 -17.53,8.2 -4.66,5.47 -6.97,13.57 -6.97,24.3z"/>
   <path id="_2_1" fill="#6951FF" fill-rule="nonzero" d="M1618.55 2471.2l26.93 0 0 16.02c3.5,-5.47 8.2,-9.88 14.16,-13.29 5.96,-3.36 12.59,-5.04 19.85,-5.04 12.65,0 23.42,4.97 32.25,14.93 8.84,9.92 13.26,23.81 13.26,41.55 0,18.27 -4.46,32.43 -13.36,42.56 -8.91,10.13 -19.71,15.18 -32.4,15.18 -6.03,0 -11.5,-1.19 -16.41,-3.61 -4.87,-2.38 -10.06,-6.48 -15.46,-12.3l0 54.62 -28.82 0 0 -150.62zm28.4 52.91c0,12.3 2.42,21.38 7.29,27.27 4.84,5.86 10.77,8.8 17.71,8.8 6.7,0 12.27,-2.7 16.72,-8.09 4.46,-5.4 6.66,-14.24 6.66,-26.55 0,-11.5 -2.27,-20.01 -6.87,-25.59 -4.55,-5.57 -10.23,-8.34 -17,-8.34 -7.05,0 -12.9,2.73 -17.53,8.2 -4.66,5.47 -6.98,13.57 -6.98,24.3z"/>
   <path id="_3_2" fill="#6951FF" fill-rule="nonzero" d="M1806.55 2429.76l60.23 0c11.96,0 20.83,0.49 26.68,1.47 5.89,1.02 11.12,3.09 15.74,6.21 4.63,3.15 8.49,7.33 11.57,12.55 3.09,5.22 4.63,11.11 4.63,17.6 0,7.01 -1.89,13.5 -5.68,19.35 -3.78,5.89 -8.94,10.28 -15.42,13.22 9.15,2.7 16.16,7.26 21.1,13.71 4.91,6.45 7.36,14.02 7.36,22.75 0,6.87 -1.57,13.54 -4.76,20.02 -3.19,6.49 -7.54,11.68 -13.08,15.57 -5.51,3.86 -12.31,6.24 -20.41,7.15 -5.04,0.53 -17.28,0.88 -36.67,1.02l-51.29 0 0 -150.62zm30.5 25.03l0 34.71 19.91 0c11.82,0 19.18,-0.17 22.06,-0.52 5.19,-0.6 9.29,-2.39 12.27,-5.37 2.98,-2.98 4.45,-6.87 4.45,-11.71 0,-4.66 -1.3,-8.41 -3.86,-11.32 -2.56,-2.91 -6.38,-4.67 -11.43,-5.26 -3.01,-0.35 -11.67,-0.53 -25.94,-0.53l-17.46 0zm0 59.75l0 40.39 28.19 0c10.94,0 17.91,-0.32 20.86,-0.92 4.52,-0.84 8.2,-2.84 11.04,-6.03 2.84,-3.22 4.28,-7.47 4.28,-12.83 0,-4.56 -1.09,-8.38 -3.29,-11.53 -2.18,-3.16 -5.37,-5.47 -9.51,-6.91 -4.13,-1.44 -13.14,-2.17 -26.99,-2.17l-24.58 0z"/>
   <path fill="#6951FF" fill-rule="nonzero" d="M2670.79 2580.38l-32.85 0 -13.01 -34.29 -60.41 0 -12.51 34.29 -32.26 0 58.48 -150.62 32.22 0 60.34 150.62zm-55.74 -59.74l-20.93 -55.75 -20.34 55.75 41.27 0z"/>
   <path id="_1_3" fill="#6951FF" fill-rule="nonzero" d="M2685.98 2471.2l26.92 0 0 16.02c3.51,-5.47 8.21,-9.88 14.17,-13.29 5.96,-3.36 12.58,-5.04 19.84,-5.04 12.66,0 23.42,4.97 32.26,14.93 8.83,9.92 13.25,23.81 13.25,41.55 0,18.27 -4.45,32.43 -13.36,42.56 -8.9,10.13 -19.7,15.18 -32.4,15.18 -6.03,0 -11.5,-1.19 -16.4,-3.61 -4.88,-2.38 -10.07,-6.48 -15.47,-12.3l0 54.62 -28.81 0 0 -150.62zm28.39 52.91c0,12.3 2.42,21.38 7.3,27.27 4.83,5.86 10.76,8.8 17.7,8.8 6.7,0 12.27,-2.7 16.73,-8.09 4.45,-5.4 6.66,-14.24 6.66,-26.55 0,-11.5 -2.28,-20.01 -6.87,-25.59 -4.56,-5.57 -10.24,-8.34 -17.01,-8.34 -7.05,0 -12.9,2.73 -17.53,8.2 -4.66,5.47 -6.98,13.57 -6.98,24.3z"/>
   <path id="_2_4" fill="#6951FF" fill-rule="nonzero" d="M2814.47 2471.2l26.93 0 0 16.02c3.5,-5.47 8.2,-9.88 14.16,-13.29 5.96,-3.36 12.59,-5.04 19.85,-5.04 12.65,0 23.42,4.97 32.25,14.93 8.84,9.92 13.26,23.81 13.26,41.55 0,18.27 -4.46,32.43 -13.36,42.56 -8.91,10.13 -19.71,15.18 -32.4,15.18 -6.03,0 -11.5,-1.19 -16.41,-3.61 -4.87,-2.38 -10.06,-6.48 -15.46,-12.3l0 54.62 -28.82 0 0 -150.62zm28.4 52.91c0,12.3 2.42,21.38 7.29,27.27 4.84,5.86 10.77,8.8 17.71,8.8 6.69,0 12.27,-2.7 16.72,-8.09 4.46,-5.4 6.66,-14.24 6.66,-26.55 0,-11.5 -2.27,-20.01 -6.87,-25.59 -4.56,-5.57 -10.24,-8.34 -17,-8.34 -7.05,0 -12.9,2.73 -17.53,8.2 -4.67,5.47 -6.98,13.57 -6.98,24.3z"/>
   <path id="_3_5" fill="#6951FF" fill-rule="nonzero" d="M3098.81 2524.84l29.45 9.05c-4.52,16.58 -12.06,28.89 -22.58,36.95 -10.51,8.03 -23.84,12.06 -40,12.06 -20.02,0 -36.46,-6.83 -49.37,-20.51 -12.86,-13.67 -19.31,-32.36 -19.31,-56.09 0,-25.07 6.48,-44.57 19.42,-58.45 12.94,-13.88 29.98,-20.83 51.08,-20.83 18.44,0 33.42,5.47 44.92,16.38 6.87,6.45 11.99,15.71 15.42,27.8l-30.08 7.15c-1.79,-7.78 -5.5,-13.95 -11.15,-18.47 -5.68,-4.53 -12.55,-6.77 -20.61,-6.77 -11.19,0 -20.27,4 -27.21,12.03 -6.98,7.99 -10.45,20.96 -10.45,38.91 0,19.01 3.44,32.57 10.27,40.64 6.88,8.1 15.78,12.13 26.75,12.13 8.1,0 15.08,-2.56 20.9,-7.71 5.82,-5.16 10.03,-13.22 12.55,-24.27z"/>
   <path fill="#6951FF" fill-rule="nonzero" d="M4005.55 2580.38l-32.85 0 -13.01 -34.29 -60.41 0 -12.51 34.29 -32.26 0 58.48 -150.62 32.22 0 60.34 150.62zm-55.74 -59.74l-20.94 -55.75 -20.33 55.75 41.27 0z"/>
   <path id="_1_6" fill="#6951FF" fill-rule="nonzero" d="M4020.73 2471.2l26.93 0 0 16.02c3.51,-5.47 8.2,-9.88 14.16,-13.29 5.97,-3.36 12.59,-5.04 19.85,-5.04 12.66,0 23.42,4.97 32.25,14.93 8.84,9.92 13.26,23.81 13.26,41.55 0,18.27 -4.45,32.43 -13.36,42.56 -8.91,10.13 -19.7,15.18 -32.4,15.18 -6.03,0 -11.5,-1.19 -16.4,-3.61 -4.88,-2.38 -10.07,-6.48 -15.47,-12.3l0 54.62 -28.82 0 0 -150.62zm28.4 52.91c0,12.3 2.42,21.38 7.3,27.27 4.83,5.86 10.76,8.8 17.7,8.8 6.7,0 12.27,-2.7 16.73,-8.09 4.45,-5.4 6.66,-14.24 6.66,-26.55 0,-11.5 -2.28,-20.01 -6.87,-25.59 -4.56,-5.57 -10.24,-8.34 -17.01,-8.34 -7.05,0 -12.9,2.73 -17.53,8.2 -4.66,5.47 -6.98,13.57 -6.98,24.3z"/>
   <path id="_2_7" fill="#6951FF" fill-rule="nonzero" d="M4149.23 2471.2l26.93 0 0 16.02c3.5,-5.47 8.2,-9.88 14.16,-13.29 5.96,-3.36 12.59,-5.04 19.85,-5.04 12.65,0 23.42,4.97 32.25,14.93 8.84,9.92 13.25,23.81 13.25,41.55 0,18.27 -4.45,32.43 -13.35,42.56 -8.91,10.13 -19.71,15.18 -32.4,15.18 -6.03,0 -11.5,-1.19 -16.41,-3.61 -4.87,-2.38 -10.06,-6.48 -15.46,-12.3l0 54.62 -28.82 0 0 -150.62zm28.4 52.91c0,12.3 2.42,21.38 7.29,27.27 4.84,5.86 10.77,8.8 17.71,8.8 6.69,0 12.27,-2.7 16.72,-8.09 4.45,-5.4 6.66,-14.24 6.66,-26.55 0,-11.5 -2.28,-20.01 -6.87,-25.59 -4.56,-5.57 -10.24,-8.34 -17,-8.34 -7.05,0 -12.91,2.73 -17.53,8.2 -4.67,5.47 -6.98,13.57 -6.98,24.3z"/>
   <path id="_3_8" fill="#6951FF" fill-rule="nonzero" d="M4465.09 2580.38l-32.85 0 -13.01 -34.29 -60.41 0 -12.51 34.29 -32.26 0 58.48 -150.62 32.22 0 60.34 150.62zm-55.74 -59.74l-20.94 -55.75 -20.33 55.75 41.27 0z"/>
   <path fill="#6951FF" fill-rule="nonzero" d="M5207.78 2580.38l-32.85 0 -13.01 -34.29 -60.41 0 -12.51 34.29 -32.26 0 58.48 -150.62 32.22 0 60.34 150.62zm-55.74 -59.74l-20.94 -55.75 -20.33 55.75 41.27 0z"/>
   <path id="_1_9" fill="#6951FF" fill-rule="nonzero" d="M5222.96 2471.2l26.93 0 0 16.02c3.51,-5.47 8.2,-9.88 14.16,-13.29 5.97,-3.36 12.59,-5.04 19.85,-5.04 12.66,0 23.42,4.97 32.25,14.93 8.84,9.92 13.26,23.81 13.26,41.55 0,18.27 -4.45,32.43 -13.36,42.56 -8.91,10.13 -19.7,15.18 -32.4,15.18 -6.03,0 -11.5,-1.19 -16.41,-3.61 -4.87,-2.38 -10.06,-6.48 -15.46,-12.3l0 54.62 -28.82 0 0 -150.62zm28.4 52.91c0,12.3 2.42,21.38 7.3,27.27 4.83,5.86 10.76,8.8 17.7,8.8 6.7,0 12.27,-2.7 16.72,-8.09 4.46,-5.4 6.67,-14.24 6.67,-26.55 0,-11.5 -2.28,-20.01 -6.88,-25.59 -4.55,-5.57 -10.23,-8.34 -17,-8.34 -7.05,0 -12.9,2.73 -17.53,8.2 -4.66,5.47 -6.98,13.57 -6.98,24.3z"/>
   <path id="_2_10" fill="#6951FF" fill-rule="nonzero" d="M5351.46 2471.2l26.93 0 0 16.02c3.5,-5.47 8.2,-9.88 14.16,-13.29 5.96,-3.36 12.59,-5.04 19.85,-5.04 12.65,0 23.42,4.97 32.25,14.93 8.84,9.92 13.25,23.81 13.25,41.55 0,18.27 -4.45,32.43 -13.35,42.56 -8.91,10.13 -19.71,15.18 -32.4,15.18 -6.03,0 -11.5,-1.19 -16.41,-3.61 -4.87,-2.38 -10.06,-6.48 -15.46,-12.3l0 54.62 -28.82 0 0 -150.62zm28.4 52.91c0,12.3 2.42,21.38 7.29,27.27 4.84,5.86 10.77,8.8 17.71,8.8 6.69,0 12.27,-2.7 16.72,-8.09 4.45,-5.4 6.66,-14.24 6.66,-26.55 0,-11.5 -2.28,-20.01 -6.87,-25.59 -4.56,-5.57 -10.24,-8.34 -17,-8.34 -7.05,0 -12.91,2.73 -17.53,8.2 -4.67,5.47 -6.98,13.57 -6.98,24.3z"/>
   <path id="_3_11" fill="#6951FF" fill-rule="nonzero" d="M5635.8 2524.84l29.45 9.05c-4.52,16.58 -12.06,28.89 -22.58,36.95 -10.51,8.03 -23.84,12.06 -40,12.06 -20.02,0 -36.46,-6.83 -49.37,-20.51 -12.86,-13.67 -19.31,-32.36 -19.31,-56.09 0,-25.07 6.48,-44.57 19.42,-58.45 12.94,-13.88 29.98,-20.83 51.08,-20.83 18.44,0 33.41,5.47 44.91,16.38 6.88,6.45 12,15.71 15.43,27.8l-30.08 7.15c-1.79,-7.78 -5.51,-13.95 -11.15,-18.47 -5.68,-4.53 -12.55,-6.77 -20.62,-6.77 -11.18,0 -20.26,4 -27.2,12.03 -6.98,7.99 -10.45,20.96 -10.45,38.91 0,19.01 3.44,32.57 10.27,40.64 6.87,8.1 15.78,12.13 26.75,12.13 8.1,0 15.08,-2.56 20.9,-7.71 5.82,-5.16 10.03,-13.22 12.55,-24.27z"/>
   <path fill="#FEFEFE" fill-rule="nonzero" d="M623.14 1580.69l29.67 -2.95c1.78,9.92 5.36,17.18 10.79,21.84 5.44,4.67 12.77,6.98 21.99,6.98 9.74,0 17.11,-2.07 22.05,-6.21 4.94,-4.13 7.43,-8.97 7.43,-14.51 0,-3.58 -1.05,-6.59 -3.12,-9.12 -2.07,-2.49 -5.71,-4.66 -10.9,-6.48 -3.54,-1.26 -11.61,-3.44 -24.23,-6.59 -16.23,-4.07 -27.63,-9.05 -34.18,-14.97 -9.22,-8.31 -13.82,-18.45 -13.82,-30.4 0,-7.68 2.18,-14.9 6.49,-21.6 4.35,-6.7 10.59,-11.78 18.76,-15.29 8.17,-3.5 17.98,-5.26 29.55,-5.26 18.83,0 33.03,4.18 42.53,12.56 9.54,8.38 14.52,19.53 15.01,33.51l-30.5 1.06c-1.3,-7.79 -4.07,-13.36 -8.31,-16.76 -4.25,-3.4 -10.63,-5.12 -19.11,-5.12 -8.77,0 -15.64,1.82 -20.58,5.47 -3.19,2.35 -4.81,5.47 -4.81,9.39 0,3.58 1.51,6.63 4.53,9.15 3.82,3.27 13.11,6.63 27.87,10.14 14.76,3.47 25.67,7.12 32.71,10.83 7.08,3.75 12.62,8.84 16.62,15.32 4,6.49 6,14.48 6,23.98 0,8.63 -2.39,16.73 -7.19,24.27 -4.81,7.53 -11.57,13.14 -20.34,16.79 -8.76,3.68 -19.7,5.5 -32.78,5.5 -19.04,0 -33.66,-4.38 -43.86,-13.18 -10.2,-8.76 -16.27,-21.56 -18.27,-38.35z"/>
   <path id="_1_12" fill="#FEFEFE" fill-rule="nonzero" d="M799.64 1478.87l0 55.82c9.36,-11.12 20.58,-16.69 33.59,-16.69 6.69,0 12.72,1.22 18.09,3.68 5.36,2.49 9.39,5.61 12.13,9.47 2.73,3.82 4.59,8.06 5.57,12.72 1.02,4.67 1.51,11.89 1.51,21.67l0 63.95 -28.82 0 0 -57.57c0,-11.43 -0.56,-18.69 -1.65,-21.77 -1.12,-3.09 -3.08,-5.54 -5.89,-7.33 -2.8,-1.82 -6.31,-2.73 -10.55,-2.73 -4.84,0 -9.15,1.15 -12.97,3.5 -3.82,2.32 -6.59,5.82 -8.35,10.52 -1.78,4.66 -2.66,11.61 -2.66,20.76l0 54.62 -28.82 0 0 -150.62 28.82 0z"/>
   <path id="_2_13" fill="#FEFEFE" fill-rule="nonzero" d="M921.19 1553.97l-26.08 -4.63c2.94,-10.66 8.03,-18.54 15.22,-23.66 7.18,-5.12 17.88,-7.68 32.04,-7.68 12.87,0 22.47,1.51 28.79,4.55 6.27,3.06 10.72,6.91 13.28,11.61 2.56,4.7 3.86,13.29 3.86,25.84l-0.42 33.66c0,9.57 0.45,16.65 1.37,21.21 0.91,4.56 2.63,9.43 5.15,14.62l-28.61 0c-0.74,-1.89 -1.68,-4.7 -2.77,-8.41 -0.45,-1.72 -0.81,-2.84 -1.01,-3.37 -4.91,4.84 -10.17,8.45 -15.78,10.87 -5.61,2.42 -11.57,3.64 -17.92,3.64 -11.18,0 -20.02,-3.05 -26.47,-9.15 -6.45,-6.06 -9.68,-13.77 -9.68,-23.1 0,-6.14 1.48,-11.64 4.42,-16.48 2.95,-4.8 7.05,-8.52 12.38,-11.08 5.29,-2.56 12.93,-4.8 22.93,-6.73 13.46,-2.52 22.82,-4.91 28.01,-7.08l0 -2.91c0,-5.61 -1.37,-9.61 -4.1,-12.03 -2.77,-2.38 -7.96,-3.57 -15.57,-3.57 -5.15,0 -9.15,1.01 -12.02,3.08 -2.91,2.03 -5.23,5.65 -7.02,10.8zm38.71 23.35c-3.68,1.23 -9.54,2.7 -17.56,4.42 -8,1.72 -13.26,3.4 -15.71,5.01 -3.75,2.7 -5.65,6.07 -5.65,10.17 0,4.07 1.51,7.54 4.53,10.48 3.01,2.95 6.83,4.42 11.5,4.42 5.19,0 10.16,-1.72 14.9,-5.12 3.47,-2.63 5.78,-5.78 6.87,-9.57 0.74,-2.46 1.12,-7.15 1.12,-14.06l0 -5.75z"/>
   <path id="_3_14" fill="#FEFEFE" fill-rule="nonzero" d="M1044.29 1629.49l-28.82 0 0 -109.18 26.72 0 0 15.5c4.59,-7.33 8.73,-12.13 12.41,-14.41 3.68,-2.28 7.85,-3.4 12.52,-3.4 6.59,0 12.93,1.82 19.03,5.43l-8.94 25.17c-4.87,-3.15 -9.39,-4.73 -13.57,-4.73 -4.06,0 -7.5,1.12 -10.3,3.33 -2.81,2.25 -5.02,6.24 -6.63,12.06 -1.61,5.82 -2.42,18.02 -2.42,36.57l0 33.66z"/>
   <path id="_4" fill="#FEFEFE" fill-rule="nonzero" d="M1161.71 1594.99l28.82 4.84c-3.68,10.55 -9.54,18.58 -17.5,24.12 -7.99,5.51 -17.98,8.27 -29.94,8.27 -18.97,0 -33.02,-6.2 -42.11,-18.61 -7.18,-9.96 -10.79,-22.51 -10.79,-37.69 0,-18.09 4.73,-32.29 14.16,-42.53 9.43,-10.27 21.39,-15.39 35.83,-15.39 16.2,0 29,5.36 38.39,16.09 9.36,10.73 13.85,27.17 13.43,49.33l-72.15 0c0.21,8.56 2.52,15.22 6.97,19.99 4.42,4.76 9.96,7.15 16.55,7.15 4.53,0 8.31,-1.23 11.36,-3.68 3.09,-2.46 5.4,-6.42 6.98,-11.89zm1.68 -29.24c-0.21,-8.38 -2.35,-14.76 -6.45,-19.11 -4.1,-4.38 -9.08,-6.55 -14.97,-6.55 -6.28,0 -11.46,2.31 -15.57,6.9 -4.1,4.6 -6.1,10.87 -6.03,18.76l43.02 0z"/>
   <path id="_5" fill="#FEFEFE" fill-rule="nonzero" d="M1315.73 1629.49l-26.72 0 0 -16.02c-4.45,6.24 -9.74,10.9 -15.81,14.06 -6.06,3.12 -12.2,4.69 -18.37,4.69 -12.59,0 -23.35,-5.04 -32.33,-15.18 -8.94,-10.13 -13.42,-24.22 -13.42,-42.35 0,-18.51 4.34,-32.61 13.07,-42.25 8.73,-9.64 19.74,-14.44 33.07,-14.44 12.2,0 22.78,5.08 31.69,15.21l0 -54.34 28.82 0 0 150.62zm-76.99 -56.69c0,11.67 1.61,20.12 4.8,25.35 4.66,7.57 11.15,11.36 19.49,11.36 6.63,0 12.27,-2.84 16.9,-8.52 4.67,-5.68 6.98,-14.13 6.98,-25.42 0,-12.59 -2.24,-21.64 -6.77,-27.18 -4.52,-5.53 -10.27,-8.3 -17.32,-8.3 -6.83,0 -12.55,2.73 -17.18,8.2 -4.59,5.47 -6.9,13.64 -6.9,24.51z"/>
   <path id="_6" fill="#FEFEFE" fill-rule="nonzero" d="M1499.1 1573.95l29.45 9.05c-4.53,16.58 -12.06,28.89 -22.58,36.95 -10.52,8.03 -23.84,12.06 -40.01,12.06 -20.02,0 -36.46,-6.83 -49.36,-20.51 -12.87,-13.67 -19.32,-32.36 -19.32,-56.09 0,-25.07 6.49,-44.57 19.42,-58.45 12.94,-13.88 29.98,-20.83 51.09,-20.83 18.44,0 33.41,5.47 44.91,16.38 6.87,6.45 11.99,15.71 15.43,27.8l-30.09 7.15c-1.78,-7.78 -5.5,-13.95 -11.14,-18.47 -5.68,-4.53 -12.56,-6.77 -20.62,-6.77 -11.18,0 -20.27,4 -27.21,12.03 -6.97,7.99 -10.45,20.96 -10.45,38.91 0,19.01 3.44,32.57 10.28,40.64 6.87,8.1 15.77,12.13 26.75,12.13 8.1,0 15.07,-2.56 20.89,-7.71 5.82,-5.16 10.03,-13.22 12.56,-24.27z"/>
   <path id="_7" fill="#FEFEFE" fill-rule="nonzero" d="M1547.73 1573.57c0,-9.61 2.34,-18.9 7.08,-27.87 4.73,-9.02 11.43,-15.85 20.09,-20.58 8.66,-4.74 18.3,-7.12 28.99,-7.12 16.52,0 30.01,5.36 40.57,16.09 10.55,10.76 15.81,24.3 15.81,40.71 0,16.54 -5.33,30.25 -15.95,41.12 -10.66,10.87 -24.05,16.3 -40.22,16.3 -9.99,0 -19.53,-2.27 -28.61,-6.8 -9.04,-4.52 -15.95,-11.15 -20.68,-19.91 -4.74,-8.73 -7.08,-19.39 -7.08,-31.94zm29.66 1.54c0,10.83 2.56,19.14 7.68,24.89 5.15,5.79 11.46,8.66 19,8.66 7.5,0 13.81,-2.87 18.9,-8.66 5.08,-5.75 7.64,-14.12 7.64,-25.1 0,-10.69 -2.56,-18.93 -7.64,-24.68 -5.09,-5.79 -11.4,-8.66 -18.9,-8.66 -7.54,0 -13.85,2.87 -19,8.66 -5.12,5.75 -7.68,14.06 -7.68,24.89z"/>
   <path id="_8" fill="#FEFEFE" fill-rule="nonzero" d="M1680.85 1520.31l26.51 0 0 14.9c9.5,-11.46 20.82,-17.21 33.97,-17.21 6.98,0 13.04,1.44 18.16,4.31 5.16,2.87 9.36,7.22 12.62,13.04 4.81,-5.82 10,-10.17 15.53,-13.04 5.54,-2.87 11.47,-4.31 17.78,-4.31 7.99,0 14.76,1.61 20.34,4.87 5.54,3.26 9.67,8.03 12.41,14.34 2,4.63 2.98,12.17 2.98,22.58l0 69.7 -28.82 0 0 -62.3c0,-10.84 -0.98,-17.81 -2.98,-20.93 -2.67,-4.11 -6.8,-6.17 -12.34,-6.17 -4.04,0 -7.86,1.22 -11.43,3.68 -3.54,2.49 -6.14,6.1 -7.72,10.83 -1.58,4.77 -2.35,12.27 -2.35,22.54l0 52.35 -28.82 0 0 -59.74c0,-10.59 -0.52,-17.46 -1.54,-20.51 -1.01,-3.09 -2.59,-5.4 -4.77,-6.91 -2.14,-1.51 -5.08,-2.24 -8.76,-2.24 -4.45,0 -8.45,1.19 -11.99,3.57 -3.58,2.42 -6.1,5.86 -7.65,10.38 -1.54,4.52 -2.31,12.03 -2.31,22.47l0 52.98 -28.82 0 0 -109.18z"/>
   <path id="_9" fill="#FEFEFE" fill-rule="nonzero" d="M1869.16 1520.31l26.93 0 0 16.02c3.5,-5.47 8.2,-9.88 14.16,-13.28 5.96,-3.37 12.59,-5.05 19.85,-5.05 12.65,0 23.42,4.98 32.25,14.93 8.84,9.93 13.25,23.81 13.25,41.55 0,18.27 -4.45,32.43 -13.35,42.56 -8.91,10.14 -19.71,15.18 -32.4,15.18 -6.03,0 -11.5,-1.19 -16.41,-3.61 -4.87,-2.38 -10.06,-6.48 -15.46,-12.3l0 54.62 -28.82 0 0 -150.62zm28.4 52.91c0,12.3 2.42,21.38 7.29,27.27 4.84,5.86 10.77,8.81 17.71,8.81 6.69,0 12.27,-2.7 16.72,-8.1 4.45,-5.4 6.66,-14.24 6.66,-26.54 0,-11.5 -2.28,-20.02 -6.87,-25.6 -4.56,-5.57 -10.24,-8.34 -17,-8.34 -7.05,0 -12.91,2.73 -17.53,8.2 -4.67,5.47 -6.98,13.57 -6.98,24.3z"/>
   <path id="_10" fill="#FEFEFE" fill-rule="nonzero" d="M1991.77 1573.57c0,-9.61 2.35,-18.9 7.08,-27.87 4.73,-9.02 11.43,-15.85 20.09,-20.58 8.66,-4.74 18.3,-7.12 28.99,-7.12 16.52,0 30.02,5.36 40.57,16.09 10.55,10.76 15.81,24.3 15.81,40.71 0,16.54 -5.33,30.25 -15.95,41.12 -10.66,10.87 -24.05,16.3 -40.21,16.3 -10,0 -19.53,-2.27 -28.62,-6.8 -9.04,-4.52 -15.95,-11.15 -20.68,-19.91 -4.73,-8.73 -7.08,-19.39 -7.08,-31.94zm29.66 1.54c0,10.83 2.56,19.14 7.68,24.89 5.15,5.79 11.46,8.66 19,8.66 7.5,0 13.81,-2.87 18.9,-8.66 5.08,-5.75 7.64,-14.12 7.64,-25.1 0,-10.69 -2.56,-18.93 -7.64,-24.68 -5.09,-5.79 -11.4,-8.66 -18.9,-8.66 -7.54,0 -13.85,2.87 -19,8.66 -5.12,5.75 -7.68,14.06 -7.68,24.89z"/>
   <path id="_11" fill="#FEFEFE" fill-rule="nonzero" d="M2226.29 1629.49l-28.82 0 0 -55.64c0,-11.78 -0.63,-19.39 -1.86,-22.83 -1.26,-3.47 -3.26,-6.13 -6.07,-8.06 -2.8,-1.93 -6.17,-2.87 -10.09,-2.87 -5.05,0 -9.58,1.36 -13.57,4.1 -4.03,2.73 -6.77,6.38 -8.24,10.87 -1.51,4.52 -2.25,12.86 -2.25,25.06l0 49.37 -28.82 0 0 -109.18 26.72 0 0 16.02c9.57,-12.23 21.6,-18.33 36.15,-18.33 6.38,0 12.23,1.15 17.53,3.43 5.33,2.32 9.32,5.23 12.02,8.77 2.74,3.57 4.63,7.61 5.68,12.13 1.09,4.52 1.62,10.97 1.62,19.39l0 67.77z"/>
   <path id="_12" fill="#FEFEFE" fill-rule="nonzero" d="M2318.6 1594.99l28.82 4.84c-3.68,10.55 -9.54,18.58 -17.49,24.12 -8,5.51 -17.99,8.27 -29.95,8.27 -18.96,0 -33.02,-6.2 -42.1,-18.61 -7.19,-9.96 -10.8,-22.51 -10.8,-37.69 0,-18.09 4.73,-32.29 14.16,-42.53 9.43,-10.27 21.39,-15.39 35.83,-15.39 16.2,0 29,5.36 38.4,16.09 9.36,10.73 13.84,27.17 13.42,49.33l-72.15 0c0.21,8.56 2.52,15.22 6.98,19.99 4.41,4.76 9.95,7.15 16.54,7.15 4.53,0 8.31,-1.23 11.36,-3.68 3.09,-2.46 5.4,-6.42 6.98,-11.89zm1.68 -29.24c-0.21,-8.38 -2.34,-14.76 -6.45,-19.11 -4.1,-4.38 -9.08,-6.55 -14.97,-6.55 -6.27,0 -11.46,2.31 -15.56,6.9 -4.11,4.6 -6.11,10.87 -6.04,18.76l43.02 0z"/>
   <path id="_13" fill="#FEFEFE" fill-rule="nonzero" d="M2471.78 1629.49l-28.82 0 0 -55.64c0,-11.78 -0.63,-19.39 -1.86,-22.83 -1.26,-3.47 -3.26,-6.13 -6.06,-8.06 -2.81,-1.93 -6.17,-2.87 -10.1,-2.87 -5.05,0 -9.57,1.36 -13.57,4.1 -4.03,2.73 -6.77,6.38 -8.24,10.87 -1.51,4.52 -2.24,12.86 -2.24,25.06l0 49.37 -28.82 0 0 -109.18 26.71 0 0 16.02c9.58,-12.23 21.6,-18.33 36.15,-18.33 6.38,0 12.24,1.15 17.53,3.43 5.33,2.32 9.33,5.23 12.03,8.77 2.73,3.57 4.63,7.61 5.68,12.13 1.08,4.52 1.61,10.97 1.61,19.39l0 67.77z"/>
   <path id="_14" fill="#FEFEFE" fill-rule="nonzero" d="M2550.84 1520.31l0 22.93 -19.77 0 0 44.21c0,8.98 0.17,14.2 0.56,15.67 0.38,1.48 1.23,2.7 2.59,3.69 1.34,0.94 2.95,1.43 4.88,1.43 2.7,0 6.55,-0.91 11.64,-2.77l2.42 22.44c-6.7,2.88 -14.27,4.31 -22.76,4.31 -5.19,0 -9.85,-0.87 -14.02,-2.62 -4.18,-1.76 -7.22,-4.04 -9.15,-6.81 -1.97,-2.8 -3.3,-6.55 -4.07,-11.32 -0.6,-3.37 -0.91,-10.17 -0.91,-20.44l0 -47.79 -13.26 0 0 -22.93 13.26 0 0 -21.67 28.82 -17.04 0 38.71 19.77 0z"/>
   <path id="_15" fill="#FEFEFE" fill-rule="nonzero" d="M2560.73 1598.78l29.03 -4.42c1.23,5.57 3.72,9.82 7.5,12.69 3.75,2.91 9.05,4.35 15.81,4.35 7.47,0 13.08,-1.37 16.87,-4.1 2.52,-1.93 3.78,-4.53 3.78,-7.75 0,-2.18 -0.7,-4 -2.06,-5.44 -1.44,-1.36 -4.67,-2.66 -9.65,-3.82 -23.31,-5.15 -38.07,-9.85 -44.31,-14.09 -8.66,-5.93 -12.97,-14.13 -12.97,-24.61 0,-9.51 3.75,-17.46 11.22,-23.92 7.46,-6.45 19.03,-9.67 34.71,-9.67 14.93,0 26.05,2.45 33.3,7.33 7.26,4.9 12.27,12.13 15.01,21.7l-27.14 5.05c-1.15,-4.28 -3.4,-7.58 -6.66,-9.86 -3.26,-2.27 -7.92,-3.4 -13.99,-3.4 -7.64,0 -13.11,1.06 -16.44,3.19 -2.21,1.51 -3.3,3.48 -3.3,5.86 0,2.07 0.95,3.82 2.88,5.26 2.63,1.93 11.64,4.63 27.06,8.13 15.43,3.51 26.19,7.79 32.3,12.87 6.06,5.12 9.08,12.31 9.08,21.49 0,9.99 -4.18,18.62 -12.56,25.81 -8.34,7.18 -20.72,10.79 -37.13,10.79 -14.86,0 -26.64,-3.01 -35.34,-9.01 -8.66,-5.99 -14.34,-14.12 -17,-24.43z"/>
   <g>
    <path fill="#6951FF" fill-rule="nonzero" d="M3510.72 1565.69l-284.97 -2.28 0.22 -26.29 284.96 2.27 -0.21 26.3zm27.57 -1.9l-14.13 -22.17 -0.17 22.06 -103.23 -68.09 14.48 -21.95 103.23 68.09 -0.18 22.06zm0 0l0.18 -22.06 16.92 11.16 -17.1 10.9zm-111.36 55.4l-7.07 -11.09 104.3 -66.48 14.13 22.17 -104.29 66.49 -7.07 -11.09z"/>
   </g>
   <path fill="#6951FF" fill-rule="nonzero" d="M422.75 803.25l-27.37 0 -10.84 -28.57 -50.34 0 -10.44 28.57 -26.87 0 48.73 -125.51 26.85 0 50.28 125.51zm-46.45 -49.78l-17.44 -46.46 -16.95 46.46 34.39 0z"/>
   <path id="_1_15" fill="#6951FF" fill-rule="nonzero" d="M496.23 803.25l0 -13.61c-3.33,4.85 -7.68,8.7 -13.08,11.6 -5.41,2.86 -11.11,4.29 -17.1,4.29 -6.13,0 -11.63,-1.34 -16.48,-4.03 -4.88,-2.69 -8.38,-6.49 -10.54,-11.34 -2.19,-4.88 -3.27,-11.6 -3.27,-20.19l0 -57.7 24.01 0 0 41.9c0,12.82 0.44,20.65 1.35,23.55 0.87,2.89 2.48,5.2 4.85,6.86 2.33,1.7 5.31,2.54 8.94,2.54 4.12,0 7.8,-1.13 11.07,-3.38 3.27,-2.25 5.49,-5.06 6.69,-8.42 1.2,-3.36 1.81,-11.54 1.81,-24.6l0 -38.45 24.02 0 0 90.98 -22.27 0z"/>
   <path id="_2_16" fill="#6951FF" fill-rule="nonzero" d="M584.73 712.27l0 19.11 -16.48 0 0 36.84c0,7.48 0.15,11.83 0.47,13.06 0.32,1.23 1.02,2.25 2.16,3.07 1.11,0.79 2.46,1.2 4.07,1.2 2.25,0 5.46,-0.76 9.7,-2.31l2.01 18.7c-5.58,2.39 -11.89,3.59 -18.96,3.59 -4.33,0 -8.21,-0.73 -11.69,-2.19 -3.47,-1.46 -6.02,-3.36 -7.62,-5.67 -1.64,-2.34 -2.75,-5.46 -3.39,-9.44 -0.5,-2.8 -0.76,-8.47 -0.76,-17.03l0 -39.82 -11.05 0 0 -19.11 11.05 0 0 -18.06 24.01 -14.2 0 32.26 16.48 0z"/>
   <path id="_3_17" fill="#6951FF" fill-rule="nonzero" d="M625.23 677.74l0 46.51c7.8,-9.26 17.15,-13.91 27.99,-13.91 5.58,0 10.6,1.02 15.07,3.07 4.47,2.07 7.83,4.67 10.11,7.89 2.28,3.18 3.83,6.72 4.65,10.6 0.85,3.89 1.25,9.91 1.25,18.06l0 53.29 -24.01 0 0 -47.97c0,-9.53 -0.47,-15.58 -1.37,-18.15 -0.94,-2.57 -2.58,-4.61 -4.91,-6.1 -2.34,-1.52 -5.26,-2.28 -8.8,-2.28 -4.03,0 -7.62,0.96 -10.81,2.92 -3.18,1.93 -5.49,4.85 -6.95,8.76 -1.49,3.89 -2.22,9.68 -2.22,17.3l0 45.52 -24.02 0 0 -125.51 24.02 0z"/>
   <path fill="#6951FF" fill-rule="nonzero" d="M1382.54 677.74l50.19 0c9.97,0 17.36,0.4 22.24,1.22 4.91,0.85 9.26,2.57 13.12,5.17 3.85,2.63 7.07,6.11 9.64,10.46 2.57,4.36 3.85,9.26 3.85,14.67 0,5.84 -1.57,11.25 -4.73,16.13 -3.15,4.91 -7.45,8.56 -12.85,11.01 7.62,2.25 13.47,6.05 17.58,11.43 4.09,5.37 6.14,11.68 6.14,18.96 0,5.73 -1.31,11.28 -3.97,16.68 -2.66,5.41 -6.28,9.73 -10.9,12.97 -4.59,3.22 -10.26,5.2 -17.01,5.96 -4.2,0.44 -14.4,0.74 -30.56,0.85l-42.74 0 0 -125.51zm25.42 20.86l0 28.92 16.59 0c9.85,0 15.98,-0.15 18.38,-0.44 4.32,-0.49 7.74,-1.98 10.23,-4.47 2.48,-2.48 3.71,-5.72 3.71,-9.76 0,-3.88 -1.08,-7.01 -3.22,-9.43 -2.13,-2.43 -5.31,-3.89 -9.52,-4.39 -2.51,-0.29 -9.73,-0.43 -21.62,-0.43l-14.55 0zm0 49.78l0 33.66 23.49 0c9.11,0 14.93,-0.26 17.38,-0.76 3.77,-0.7 6.84,-2.37 9.21,-5.02 2.36,-2.69 3.56,-6.23 3.56,-10.7 0,-3.8 -0.91,-6.98 -2.75,-9.61 -1.81,-2.63 -4.47,-4.56 -7.91,-5.76 -3.45,-1.19 -10.96,-1.81 -22.5,-1.81l-20.48 0z"/>
   <path id="_1_18" fill="#6951FF" fill-rule="nonzero" d="M1508.96 700l0 -22.26 24.02 0 0 22.26 -24.02 0zm0 103.25l0 -90.98 24.02 0 0 90.98 -24.02 0z"/>
   <polygon id="_2_19" fill="#6951FF" fill-rule="nonzero" points="1557.67,803.25 1557.67,677.74 1581.68,677.74 1581.68,803.25 "/>
   <polygon id="_3_20" fill="#6951FF" fill-rule="nonzero" points="1606.37,803.25 1606.37,677.74 1630.39,677.74 1630.39,803.25 "/>
   <path id="_4_21" fill="#6951FF" fill-rule="nonzero" d="M1655.08 700l0 -22.26 24.01 0 0 22.26 -24.01 0zm0 103.25l0 -90.98 24.01 0 0 90.98 -24.01 0z"/>
   <path id="_5_22" fill="#6951FF" fill-rule="nonzero" d="M1786.52 803.25l-24.01 0 0 -46.37c0,-9.81 -0.53,-16.15 -1.55,-19.02 -1.05,-2.89 -2.72,-5.11 -5.06,-6.72 -2.33,-1.6 -5.14,-2.39 -8.41,-2.39 -4.21,0 -7.98,1.14 -11.31,3.42 -3.36,2.28 -5.64,5.31 -6.86,9.05 -1.26,3.77 -1.87,10.73 -1.87,20.89l0 41.14 -24.02 0 0 -90.98 22.26 0 0 13.35c7.98,-10.2 18,-15.28 30.13,-15.28 5.31,0 10.19,0.97 14.6,2.86 4.45,1.93 7.78,4.36 10.03,7.31 2.27,2.98 3.85,6.34 4.73,10.11 0.91,3.77 1.34,9.14 1.34,16.16l0 56.47z"/>
   <path id="_6_23" fill="#6951FF" fill-rule="nonzero" d="M1808.58 809.04l27.52 3.33c0.47,3.24 1.52,5.46 3.16,6.69 2.31,1.72 5.9,2.6 10.81,2.6 6.28,0 10.99,-0.94 14.14,-2.84 2.1,-1.25 3.71,-3.27 4.79,-6.07 0.73,-1.99 1.11,-5.7 1.11,-11.05l0.12 -13.29c-7.25,9.9 -16.36,14.84 -27.35,14.84 -12.21,0 -21.91,-5.17 -29.04,-15.48 -5.61,-8.15 -8.41,-18.32 -8.41,-30.45 0,-15.25 3.68,-26.88 11.01,-34.91 7.33,-8.04 16.48,-12.07 27.41,-12.07 11.25,0 20.54,4.94 27.84,14.81l0 -12.88 22.44 0 0 81.57c0,10.73 -0.88,18.76 -2.66,24.05 -1.75,5.32 -4.24,9.47 -7.45,12.51 -3.18,3 -7.45,5.4 -12.8,7.09 -5.34,1.73 -12.09,2.58 -20.24,2.58 -15.43,0 -26.36,-2.66 -32.81,-7.95 -6.46,-5.32 -9.68,-12.01 -9.68,-20.16 0,-0.79 0.03,-1.78 0.09,-2.92zm21.56 -53.12c0,9.64 1.87,16.68 5.58,21.15 3.74,4.47 8.36,6.72 13.82,6.72 5.85,0 10.81,-2.3 14.85,-6.89 4.06,-4.59 6.07,-11.37 6.07,-20.37 0,-9.4 -1.92,-16.39 -5.81,-20.95 -3.86,-4.55 -8.77,-6.83 -14.7,-6.83 -5.75,0 -10.49,2.25 -14.23,6.72 -3.71,4.47 -5.58,11.28 -5.58,20.45z"/>
   <path fill="#6951FF" fill-rule="nonzero" d="M2489.58 803.25l-27.38 0 -10.84 -28.57 -50.34 0 -10.43 28.57 -26.88 0 48.74 -125.51 26.85 0 50.28 125.51zm-46.46 -49.78l-17.44 -46.46 -16.95 46.46 34.39 0z"/>
   <path id="_1_24" fill="#6951FF" fill-rule="nonzero" d="M2585.67 803.25l-24.01 0 0 -46.37c0,-9.81 -0.53,-16.15 -1.55,-19.02 -1.05,-2.89 -2.72,-5.11 -5.06,-6.72 -2.33,-1.6 -5.14,-2.39 -8.41,-2.39 -4.21,0 -7.98,1.14 -11.31,3.42 -3.36,2.28 -5.64,5.31 -6.86,9.05 -1.26,3.77 -1.87,10.73 -1.87,20.89l0 41.14 -24.02 0 0 -90.98 22.26 0 0 13.35c7.98,-10.2 18,-15.28 30.13,-15.28 5.31,0 10.19,0.97 14.61,2.86 4.44,1.93 7.77,4.36 10.02,7.31 2.28,2.98 3.85,6.34 4.73,10.11 0.91,3.77 1.34,9.14 1.34,16.16l0 56.47z"/>
   <path id="_2_25" fill="#6951FF" fill-rule="nonzero" d="M2627.89 740.32l-21.73 -3.86c2.45,-8.88 6.69,-15.46 12.68,-19.72 5.99,-4.27 14.9,-6.4 26.7,-6.4 10.72,0 18.73,1.26 23.99,3.8 5.23,2.54 8.94,5.76 11.07,9.67 2.13,3.92 3.21,11.07 3.21,21.53l-0.35 28.05c0,7.98 0.38,13.88 1.14,17.68 0.76,3.8 2.2,7.86 4.3,12.18l-23.84 0c-0.62,-1.58 -1.41,-3.91 -2.31,-7.01 -0.38,-1.43 -0.67,-2.37 -0.85,-2.8 -4.09,4.03 -8.47,7.04 -13.15,9.05 -4.67,2.02 -9.64,3.04 -14.93,3.04 -9.32,0 -16.68,-2.54 -22.06,-7.62 -5.37,-5.06 -8.06,-11.49 -8.06,-19.26 0,-5.11 1.23,-9.7 3.68,-13.73 2.46,-4 5.88,-7.1 10.32,-9.23 4.41,-2.14 10.78,-4.01 19.1,-5.61 11.22,-2.11 19.02,-4.09 23.35,-5.9l0 -2.43c0,-4.67 -1.14,-8.01 -3.42,-10.02 -2.31,-1.99 -6.63,-2.98 -12.97,-2.98 -4.3,0 -7.63,0.85 -10.02,2.57 -2.43,1.69 -4.36,4.7 -5.85,9zm32.26 19.46c-3.07,1.02 -7.95,2.25 -14.64,3.68 -6.66,1.43 -11.04,2.83 -13.09,4.18 -3.13,2.25 -4.7,5.05 -4.7,8.47 0,3.39 1.25,6.28 3.77,8.73 2.51,2.46 5.69,3.69 9.58,3.69 4.32,0 8.47,-1.44 12.42,-4.27 2.89,-2.19 4.82,-4.82 5.72,-7.98 0.62,-2.04 0.94,-5.96 0.94,-11.71l0 -4.79z"/>
   <polygon id="_3_26" fill="#6951FF" fill-rule="nonzero" points="2707.51,803.25 2707.51,677.74 2731.53,677.74 2731.53,803.25 "/>
   <path id="_4_27" fill="#6951FF" fill-rule="nonzero" d="M2744.64 712.27l25.6 0 21.82 64.54 21.3 -64.54 24.9 0 -32.08 87.56 -5.79 15.81c-2.13,5.29 -4.15,9.32 -6.08,12.13 -1.9,2.77 -4.12,5.05 -6.6,6.77 -2.48,1.76 -5.55,3.1 -9.2,4.06 -3.63,0.97 -7.75,1.47 -12.33,1.47 -4.62,0 -9.18,-0.5 -13.65,-1.47l-2.1 -18.75c3.77,0.73 7.19,1.11 10.23,1.11 5.6,0 9.75,-1.64 12.44,-4.94 2.69,-3.3 4.76,-7.51 6.2,-12.59l-34.66 -91.16z"/>
   <path id="_5_28" fill="#6951FF" fill-rule="nonzero" d="M2895.26 712.27l0 19.11 -16.48 0 0 36.84c0,7.48 0.15,11.83 0.47,13.06 0.32,1.23 1.02,2.25 2.16,3.07 1.11,0.79 2.45,1.2 4.06,1.2 2.25,0 5.46,-0.76 9.7,-2.31l2.02 18.7c-5.58,2.39 -11.9,3.59 -18.97,3.59 -4.32,0 -8.21,-0.73 -11.68,-2.19 -3.48,-1.46 -6.02,-3.36 -7.63,-5.67 -1.63,-2.34 -2.74,-5.46 -3.39,-9.44 -0.49,-2.8 -0.76,-8.47 -0.76,-17.03l0 -39.82 -11.04 0 0 -19.11 11.04 0 0 -18.06 24.02 -14.2 0 32.26 16.48 0z"/>
   <path id="_6_29" fill="#6951FF" fill-rule="nonzero" d="M2912.09 700l0 -22.26 24.01 0 0 22.26 -24.01 0zm0 103.25l0 -90.98 24.01 0 0 90.98 -24.01 0z"/>
   <path id="_7_30" fill="#6951FF" fill-rule="nonzero" d="M3040.03 739.27l-23.67 4.2c-0.79,-4.7 -2.6,-8.24 -5.43,-10.63 -2.84,-2.37 -6.49,-3.57 -10.99,-3.57 -5.99,0 -10.78,2.08 -14.34,6.23 -3.57,4.15 -5.35,11.07 -5.35,20.8 0,10.81 1.81,18.44 5.44,22.91 3.62,4.47 8.47,6.69 14.55,6.69 4.55,0 8.29,-1.32 11.19,-3.92 2.92,-2.6 4.96,-7.07 6.16,-13.44l23.67 4.03c-2.46,10.87 -7.16,19.08 -14.12,24.63 -6.95,5.55 -16.27,8.33 -27.99,8.33 -13.26,0 -23.87,-4.21 -31.76,-12.59 -7.91,-8.42 -11.86,-20.05 -11.86,-34.92 0,-15.04 3.98,-26.73 11.89,-35.12 7.92,-8.38 18.64,-12.56 32.17,-12.56 11.05,0 19.84,2.4 26.39,7.16 6.51,4.76 11.19,12.01 14.05,21.77z"/>
   <path id="_8_31" fill="#6951FF" fill-rule="nonzero" d="M3049.7 777.66l24.19 -3.68c1.02,4.64 3.1,8.18 6.25,10.57 3.13,2.43 7.54,3.63 13.18,3.63 6.22,0 10.9,-1.14 14.05,-3.42 2.11,-1.61 3.16,-3.77 3.16,-6.46 0,-1.81 -0.58,-3.33 -1.72,-4.53 -1.2,-1.14 -3.89,-2.22 -8.04,-3.18 -19.43,-4.3 -31.73,-8.21 -36.93,-11.75 -7.22,-4.94 -10.81,-11.77 -10.81,-20.51 0,-7.92 3.13,-14.55 9.35,-19.93 6.22,-5.37 15.86,-8.06 28.93,-8.06 12.44,0 21.7,2.05 27.75,6.11 6.05,4.09 10.23,10.11 12.51,18.08l-22.62 4.21c-0.96,-3.56 -2.83,-6.31 -5.55,-8.21 -2.72,-1.9 -6.6,-2.83 -11.66,-2.83 -6.37,0 -10.92,0.87 -13.7,2.65 -1.84,1.26 -2.75,2.9 -2.75,4.88 0,1.73 0.79,3.19 2.4,4.39 2.19,1.6 9.7,3.85 22.56,6.78 12.85,2.92 21.82,6.48 26.9,10.72 5.06,4.26 7.57,10.25 7.57,17.91 0,8.33 -3.47,15.51 -10.46,21.5 -6.95,5.99 -17.27,9 -30.94,9 -12.39,0 -22.2,-2.51 -29.45,-7.51 -7.22,-4.99 -11.95,-11.77 -14.17,-20.36z"/>
   <rect fill="none" stroke="#6951FF" stroke-width="26.3" stroke-miterlimit="2.61313" x="1428.86" y="214.59" width="373.1" height="277.06" rx="14.94" ry="15.78"/>
   <line fill="none" stroke="#6951FF" stroke-width="26.3" stroke-miterlimit="2.61313" x1="1672.55" y1="397.62" x2="1749.07" y2= "398.28" />
   <line fill="none" stroke="#6951FF" stroke-width="35.06" stroke-miterlimit="2.61313" x1="1428.86" y1="312.42" x2="1801.96" y2= "312.42" />
   <path fill="none" stroke="#6951FF" stroke-width="26.3" stroke-miterlimit="2.61313" d="M2462.82 489.87c61.1,-73.96 90.53,-197.46 183.3,-221.9 67.27,-17.72 94.08,142.46 162.66,130.77 82.8,-14.12 112.43,-124.83 168.64,-187.24"/>
   <path fill="#6951FF" d="M601.58 441.25c-11.03,13.41 -25.21,24.61 -39.95,33.95 -6.66,4.23 -22.66,10.73 -30.43,13.5 -5.3,1.9 -17.18,-3.11 -22.35,-5.34 -76.54,-32.94 -93.38,-93.52 -100.1,-173.27l-0.02 -26.88c0.07,-4.85 0.48,-9.45 0.7,-14.27 24.71,0.04 38.94,-0.78 62,-11.15 17.71,-7.97 40.08,-24.11 55.35,-37.29 1.51,0.65 8.52,7.73 11.84,10.44 29.1,23.67 68.57,36.1 105.71,38.28 0.85,15.13 1.01,22.7 0.63,37.44 -2.08,49.95 -11.54,95.89 -43.38,134.59zm-158 -193.94c-9.17,2.74 -26.32,2.78 -36.39,1.36 -4.29,-0.61 -8.15,-2.54 -12.57,-2.13 -0.18,0.17 -1.4,0.98 -1.89,1.72 -0.58,0.88 -1.1,2.85 -1.17,3 -1.44,14.93 -2.47,27.54 -2.46,43.09 0.02,24.57 2.05,55.34 8.82,78.99 19.62,68.58 53.76,115.87 126.65,135.58 6.48,1.76 18.63,-3 24.97,-5.37 41.63,-19.72 58.73,-30.62 83.88,-69.15 1.37,-2.22 4.93,-10.02 6.41,-11.08l6.71 -15.6c6.85,-17.63 9.73,-28.29 13.15,-46.12 0.44,-2.3 0.2,-3 1.47,-4.75 -0.43,-1.8 1.45,-16.48 2.11,-18.7 1.27,-16.99 2.12,-32.17 1.55,-49.66l-0.12 -5.89c-0.65,-6.54 -1.05,-13.35 -1.62,-19.94 -2.43,-28.23 -6.28,-10.24 -36.89,-13.01l-7.37 -0.84c-39.99,-8.56 -88.95,-60.2 -99.78,-48.96 -19.1,19.82 -48.91,39.58 -75.46,47.46z"/>
   <path fill="#AAA2FF" stroke="#AAA2FF" stroke-width="8.77" stroke-miterlimit="2.61313" d="M601.58 441.25c31.84,-38.7 41.3,-84.64 43.38,-134.59 0.38,-14.74 0.22,-22.31 -0.63,-37.44 -37.14,-2.18 -76.61,-14.61 -105.71,-38.28 -3.32,-2.71 -10.33,-9.79 -11.84,-10.44 -15.27,13.18 -37.64,29.32 -55.35,37.29 -23.06,10.37 -37.29,11.19 -62,11.15 -0.22,4.82 -0.63,9.42 -0.7,14.27l0.02 26.88c6.72,79.75 23.56,140.33 100.1,173.27 5.17,2.23 17.05,7.24 22.35,5.34 7.77,-2.77 23.77,-9.27 30.43,-13.5 14.74,-9.34 28.92,-20.54 39.95,-33.95z"/>
  </g>
 </g>
</svg>
