<!-- WEEKEND TO LAUNCH – ticks on OUTER edge; pointer at -36°; FRI/100 centered; badges lowered & centered under FRI/needle/100 -->
<svg xmlns="http://www.w3.org/2000/svg" viewBox="0 0 1100 900">
  <defs>
    <linearGradient id="gradPB" x1="0%" y1="0%" x2="100%" y2="0%">
      <stop offset="0%" stop-color="#8B5CF6"/>
      <stop offset="100%" stop-color="#3B82F6"/>
    </linearGradient>
    <linearGradient id="sheen" x1="0%" y1="0%" x2="0%" y2="100%">
      <stop offset="0%" stop-color="#FFFFFF" stop-opacity=".18"/>
      <stop offset="100%" stop-color="#FFFFFF" stop-opacity="0"/>
    </linearGradient>
    <filter id="soft" x="-50%" y="-50%" width="200%" height="200%">
      <feDropShadow dx="0" dy="4" stdDeviation="10" flood-opacity=".25"/>
    </filter>

    <!-- Ticks on the wide (outer) edge at ~R=360 -->
    <g id="tickMajor">
      <rect x="-3.5" y="-352" width="7" height="28" rx="3.5" fill="#EEF2FF"/>
    </g>
    <g id="tickMinor">
      <rect x="-2" y="-352" width="4" height="16" rx="2" fill="#C9D4FF" opacity=".95"/>
    </g>

    <linearGradient id="badgeGrad" x1="0%" y1="0%" x2="100%" y2="100%">
      <stop offset="0%" stop-color="#8B5CF6"/>
      <stop offset="100%" stop-color="#3B82F6"/>
    </linearGradient>
  </defs>

  <!-- Title -->
  <text x="550" y="92" text-anchor="middle"
        font-family="Inter, Segoe UI, Arial, sans-serif"
        font-size="80" font-weight="900" letter-spacing="10"
        fill="#1A1C39">WEEKEND TO LAUNCH</text>

  <!-- Gauge -->
  <g transform="translate(550,480)">
    <!-- Arch: outer R=360, inner r=250 (flat ends) -->
    <path d="M-360,0 A360,360 0 0 1 360,0 L250,0 A250,250 0 0 0 -250,0 Z"
          fill="url(#gradPB)" filter="url(#soft)"/>
    <!-- Sheen -->
    <path d="M-342,-6 A342,342 0 0 1 342,-6 L260,-6 A260,260 0 0 0 -260,-6 Z"
          fill="url(#sheen)"/>

    <!-- Ticks (majors every 18°, minors at ±9°) -->
    <g>
      <use href="#tickMajor" transform="rotate(-90)"/>
      <use href="#tickMajor" transform="rotate(-72)"/>
      <use href="#tickMajor" transform="rotate(-54)"/>
      <use href="#tickMajor" transform="rotate(-36)"/>
      <use href="#tickMajor" transform="rotate(-18)"/>
      <use href="#tickMajor" transform="rotate(0)"/>
      <use href="#tickMajor" transform="rotate(18)"/>
      <use href="#tickMajor" transform="rotate(36)"/>
      <use href="#tickMajor" transform="rotate(54)"/>
      <use href="#tickMajor" transform="rotate(72)"/>
      <use href="#tickMajor" transform="rotate(90)"/>
      <use href="#tickMinor" transform="rotate(-81)"/>
      <use href="#tickMinor" transform="rotate(-63)"/>
      <use href="#tickMinor" transform="rotate(-45)"/>
      <use href="#tickMinor" transform="rotate(-27)"/>
      <use href="#tickMinor" transform="rotate(-9)"/>
      <use href="#tickMinor" transform="rotate(9)"/>
      <use href="#tickMinor" transform="rotate(27)"/>
      <use href="#tickMinor" transform="rotate(45)"/>
      <use href="#tickMinor" transform="rotate(63)"/>
      <use href="#tickMinor" transform="rotate(81)"/>
    </g>

    <!-- Needle: -36° -->
    <g transform="rotate(-36)">
      <path d="M-18,-22 L352,0 L-18,22 Z" fill="#3A2370"/>
      <circle r="56" fill="#2C1B63"/>
      <circle r="26" fill="#5533C6"/>
    </g>
  </g>

  <!-- Edge labels centered under arch base segments -->
  <text x="245" y="540" text-anchor="middle"
        font-family="Inter, Segoe UI, Arial, sans-serif"
        font-size="62" font-weight="800" fill="#A6B3FF">FRI</text>
  <text x="855" y="540" text-anchor="middle"
        font-family="Inter, Segoe UI, Arial, sans-serif"
        font-size="62" font-weight="800" fill="#A6B3FF">100</text>

  <!-- Badges: lowered a bit and horizontally centered under FRI (x=245), pointer (x=550), and 100 (x=855) -->
  <g font-family="Inter, Segoe UI, Arial, sans-serif" font-weight="800" text-anchor="middle">
    <!-- under FRI -->
    <g transform="translate(245,660)">
      <circle r="78" fill="url(#badgeGrad)" filter="url(#soft)"/>
      <circle r="60" fill="#FFFFFF" opacity=".14"/>
      <path d="M-22,4 L-2,26 L30,-18" fill="none" stroke="#FFFFFF" stroke-width="16" stroke-linecap="round" stroke-linejoin="round"/>
      <text y="118" font-size="30" letter-spacing="6" fill="#7E8BE8">CHECKPOINT</text>
    </g>
    <!-- under pointer (gauge center) -->
    <g transform="translate(550,660)">
      <circle r="78" fill="url(#badgeGrad)" filter="url(#soft)"/>
      <circle r="60" fill="#FFFFFF" opacity=".14"/>
      <polygon points="0,-30 7,-7 34,-7 12,7 20,30 0,16 -20,30 -12,7 -34,-7 -7,-7" fill="#FFFFFF"/>
      <text y="118" font-size="30" letter-spacing="6" fill="#7E8BE8">MILESTONE</text>
    </g>
    <!-- under 100 -->
    <g transform="translate(855,660)">
      <circle r="78" fill="url(#badgeGrad)" filter="url(#soft)"/>
      <circle r="60" fill="#FFFFFF" opacity=".14"/>
      <g>
        <path d="M0,-30 C14,-20 20,2 16,28 C8,26 -8,26 -16,28 C-20,2 -14,-20 0,-30 Z" fill="#FFFFFF"/>
        <circle cx="3.5" cy="-13" r="7" fill="#5D7BFF"/>
        <path d="M-18,28 C-26,38 -28,50 -24,54 C-18,46 -12,40 -6,36 Z" fill="#FFFFFF"/>
        <path d="M18,28 C26,38 28,50 24,54 C18,46 12,40 6,36 Z" fill="#FFFFFF"/>
      </g>
      <text y="118" font-size="30" letter-spacing="6" fill="#7E8BE8">LAUNCH</text>
    </g>
  </g>
</svg>
