<svg width="1250" height="1250" viewBox="0 0 1000 1000" xmlns="http://www.w3.org/2000/svg">
  <defs>
    <linearGradient id="purpleGrad" x1="0%" y1="0%" x2="0%" y2="100%">
      <stop offset="0%" style="stop-color:#8B7FD6;stop-opacity:1" />
      <stop offset="100%" style="stop-color:#6B5BB3;stop-opacity:1" />
    </linearGradient>
    <linearGradient id="blueGrad" x1="0%" y1="0%" x2="0%" y2="100%">
      <stop offset="0%" style="stop-color:#5DADE2;stop-opacity:1" />
      <stop offset="100%" style="stop-color:#3498DB;stop-opacity:1" />
    </linearGradient>
  </defs>

  <!-- Top Left: Concentric circles (monitoring) -->
  <circle cx="165" cy="165" r="55" fill="#C4B5FD" stroke="#1E3A5F" stroke-width="6"/>
  <circle cx="165" cy="165" r="38" fill="#D4C5FD" stroke="#1E3A5F" stroke-width="6"/>
  <circle cx="165" cy="165" r="21" fill="#E4D5FD" stroke="#1E3A5F" stroke-width="6"/>
  <circle cx="165" cy="165" r="10" fill="#1E3A5F"/>

  <!-- Connecting dots from top left -->
  <circle cx="165" cy="240" r="5" fill="#1E3A5F"/>
  <circle cx="165" cy="260" r="5" fill="#1E3A5F"/>
  <circle cx="165" cy="280" r="5" fill="#1E3A5F"/>

  <!-- Top: Rotation/Refresh arrow -->
  <circle cx="330" cy="190" r="5" fill="#5DADE2" opacity="0.6"/>
  <circle cx="380" cy="150" r="5" fill="#5DADE2" opacity="0.6"/>
  <circle cx="430" cy="190" r="5" fill="#5DADE2" opacity="0.6"/>
  
  <path d="M 380 220 A 45 45 0 1 1 380 130" stroke="#1E3A5F" stroke-width="8" fill="none" stroke-linecap="round"/>
  <polygon points="380,130 365,145 395,145" fill="#1E3A5F"/>
  <circle cx="395" cy="175" r="15" fill="#5DADE2"/>
  <circle cx="365" cy="175" r="8" fill="#1E3A5F"/>

  <!-- Top Center: Link/Chain -->
  <rect x="520" y="155" width="120" height="50" rx="25" fill="#5DADE2" stroke="#1E3A5F" stroke-width="6"/>
  <line x1="550" y1="180" x2="610" y2="180" stroke="#1E3A5F" stroke-width="8" stroke-linecap="round"/>

  <!-- Connecting dots to shield -->
  <circle cx="680" cy="200" r="4" fill="#1E3A5F"/>
  <circle cx="700" cy="210" r="4" fill="#1E3A5F"/>
  <circle cx="720" cy="220" r="4" fill="#1E3A5F"/>
  <line x1="640" y1="190" x2="670" y2="195" stroke="#1E3A5F" stroke-width="3" stroke-dasharray="8,8"/>

  <!-- Top Right: Security Shield -->
  <path d="M 810 140 L 870 140 Q 880 140 880 150 L 880 210 Q 880 270 840 310 L 840 310 Q 800 270 800 210 L 800 150 Q 800 140 810 140 Z" 
        fill="#8B7FD6" stroke="#1E3A5F" stroke-width="6"/>
  <circle cx="840" cy="215" r="32" fill="#5DADE2"/>
  <!-- lowered checkmark toward center -->
  <path d="M 826 223 L 838 235 L 854 211" stroke="white" stroke-width="7" fill="none" stroke-linecap="round" stroke-linejoin="round"/>

  <!-- Left: Code file icon -->
  <rect x="100" y="350" width="110" height="130" rx="10" fill="#C4B5FD" stroke="#1E3A5F" stroke-width="6"/>
  <path d="M 190 350 Q 190 350 190 370 L 210 370 L 210 350" fill="#8B7FD6" stroke="#1E3A5F" stroke-width="5" stroke-linejoin="round"/>
  <text x="155" y="430" font-family="Arial, sans-serif" font-size="36" fill="#1E3A5F" text-anchor="middle" font-weight="bold">&lt;/&gt;</text>

  <!-- Connecting line from code file -->
  <line x1="155" y1="480" x2="155" y2="520" stroke="#1E3A5F" stroke-width="4" stroke-dasharray="10,10"/>
  <circle cx="155" cy="530" r="5" fill="#1E3A5F"/>
  <circle cx="155" cy="550" r="5" fill="#1E3A5F"/>

  <!-- Bottom Left: Magnifying glass -->
  <circle cx="155" cy="750" r="50" fill="#5DADE2" stroke="#1E3A5F" stroke-width="6"/>
  <line x1="155" y1="740" x2="175" y2="760" stroke="#1E3A5F" stroke-width="6" stroke-linecap="round"/>
  <rect x="185" y="785" width="12" height="50" rx="6" fill="#5DADE2" stroke="#1E3A5F" stroke-width="6" transform="rotate(45 191 810)"/>

  <!-- Bottom connecting line -->
  <line x1="220" y1="830" x2="280" y2="830" stroke="#1E3A5F" stroke-width="4" stroke-dasharray="10,10"/>
  <circle cx="250" cy="850" r="4" fill="#1E3A5F"/>

  <!-- Bottom Center: Activity wave -->
  <path d="M 320 870 L 360 870 L 385 840 L 410 900 L 435 870 L 475 870" 
        stroke="#1E3A5F" stroke-width="5" fill="none" stroke-linecap="round" stroke-linejoin="round"/>

  <!-- Bottom: Magnifying glass 2 -->
  <circle cx="560" cy="890" r="40" fill="#8B7FD6" stroke="#1E3A5F" stroke-width="6"/>
  <rect x="590" y="920" width="10" height="40" rx="5" fill="#8B7FD6" stroke="#1E3A5F" stroke-width="6" transform="rotate(45 595 940)"/>

  <!-- MAIN TABLE -->
  <rect x="240" y="320" width="520" height="380" rx="20" fill="#5B4B9A" stroke="#1E3A5F" stroke-width="7"/>
  
  <!-- Table title section -->
  <rect x="240" y="320" width="520" height="90" rx="20" fill="#5B4B9A"/>
  <rect x="240" y="380" width="520" height="30" fill="#5B4B9A"/>
  <text x="500" y="375" font-family="Arial, sans-serif" font-size="38" fill="white" text-anchor="middle" font-weight="bold">API Audit Logs</text>

  <!-- Column headers -->
  <rect x="240" y="410" width="520" height="55" fill="#6B5BB3"/>
  <line x1="420" y1="410" x2="420" y2="700" stroke="#5B4B9A" stroke-width="4"/>
  <line x1="590" y1="410" x2="590" y2="700" stroke="#5B4B9A" stroke-width="4"/>
  
  <text x="330" y="448" font-family="Arial, sans-serif" font-size="22" fill="white" text-anchor="middle" font-weight="bold">Timestamp</text>
  <text x="505" y="448" font-family="Arial, sans-serif" font-size="22" fill="white" text-anchor="middle" font-weight="bold">User</text>
  <text x="675" y="448" font-family="Arial, sans-serif" font-size="22" fill="white" text-anchor="middle" font-weight="bold">Action</text>

  <!-- Row 1 -->
  <rect x="240" y="465" width="520" height="58" fill="#D4C5FD" opacity="0.3"/>
  <rect x="265" y="477" width="130" height="35" rx="10" fill="#A78BFA"/>
  <text x="330" y="502" font-family="monospace" font-size="19" fill="#1E3A5F" text-anchor="middle" font-weight="bold">12:04:31</text>
  
  <circle cx="505" cy="494" r="20" fill="#5B4B9A"/>
  <circle cx="505" cy="487" r="10" fill="#A78BFA"/>
  <path d="M 495 497 Q 495 502 500 502 L 510 502 Q 515 502 515 497" fill="#A78BFA"/>
  
  <circle cx="650" cy="494" r="14" fill="#5DADE2"/>
  <rect x="680" y="483" width="65" height="22" rx="11" fill="#8B7FD6"/>

  <!-- Row 2 -->
  <rect x="240" y="523" width="520" height="58" fill="#E4D5FD" opacity="0.3"/>
  <rect x="265" y="535" width="130" height="35" rx="10" fill="#A78BFA"/>
  <text x="330" y="560" font-family="monospace" font-size="19" fill="#1E3A5F" text-anchor="middle" font-weight="bold">12:34:56</text>
  
  <circle cx="505" cy="552" r="20" fill="#5B4B9A"/>
  <circle cx="505" cy="545" r="10" fill="#A78BFA"/>
  <path d="M 495 555 Q 495 560 500 560 L 510 560 Q 515 560 515 555" fill="#A78BFA"/>
  
  <circle cx="650" cy="552" r="14" fill="#5DADE2"/>
  <rect x="680" y="541" width="65" height="22" rx="11" fill="#8B7FD6"/>

  <!-- Row 3 -->
  <rect x="240" y="581" width="520" height="58" fill="#D4C5FD" opacity="0.3"/>
  <rect x="265" y="593" width="130" height="35" rx="10" fill="#A78BFA"/>
  <text x="330" y="618" font-family="monospace" font-size="19" fill="#1E3A5F" text-anchor="middle" font-weight="bold">13:40:56</text>
  
  <circle cx="505" cy="610" r="20" fill="#5B4B9A"/>
  <circle cx="505" cy="603" r="10" fill="#A78BFA"/>
  <path d="M 495 613 Q 495 618 500 618 L 510 618 Q 515 618 515 613" fill="#A78BFA"/>
  
  <circle cx="650" cy="610" r="14" fill="#5DADE2">
    <animate attributeName="opacity" values="1;0.5;1" dur="1.5s" repeatCount="indefinite"/>
  </circle>
  <!-- Centered checkmark in Row 3 -->
  <path d="M 643 610 L 648 615 L 657 606" stroke="white" stroke-width="3" fill="none" stroke-linecap="round" stroke-linejoin="round"/>
  <rect x="680" y="599" width="65" height="22" rx="11" fill="#8B7FD6"/>

  <!-- Row 4 -->
  <rect x="240" y="639" width="520" height="58" fill="#E4D5FD" opacity="0.3"/>
  <rect x="265" y="651" width="130" height="35" rx="10" fill="#A78BFA"/>
  <text x="330" y="676" font-family="monospace" font-size="19" fill="#1E3A5F" text-anchor="middle" font-weight="bold">12.34.56</text>
  
  <circle cx="505" cy="668" r="20" fill="#5B4B9A"/>
  <circle cx="505" cy="661" r="10" fill="#A78BFA"/>
  <path d="M 495 671 Q 495 676 500 676 L 510 676 Q 515 676 515 671" fill="#A78BFA"/>
  
  <circle cx="650" cy="668" r="14" fill="#5DADE2"/>
  <rect x="680" y="657" width="65" height="22" rx="11" fill="#8B7FD6"/>

  <!-- Right side: Lock -->
  <rect x="820" y="380" width="80" height="90" rx="12" fill="#8B7FD6" stroke="#1E3A5F" stroke-width="6"/>
  <circle cx="860" cy="425" r="12" fill="#5DADE2"/>
  <rect x="856" y="425" width="8" height="15" fill="#5DADE2"/>
  <path d="M 840 395 L 840 380 Q 840 360 860 360 Q 880 360 880 380 L 880 395" 
        stroke="#1E3A5F" stroke-width="6" fill="none" stroke-linecap="round"/>

  <!-- Connecting dots right side -->
  <circle cx="860" cy="340" r="5" fill="#1E3A5F"/>
  <circle cx="840" cy="320" r="5" fill="#1E3A5F"/>
  <line x1="850" y1="330" x2="860" y2="340" stroke="#1E3A5F" stroke-width="3" stroke-dasharray="8,8"/>

  <!-- Right: Fingerprint -->
  <ellipse cx="860" cy="650" rx="50" ry="60" fill="#C4B5FD" stroke="#1E3A5F" stroke-width="6"/>
  <path d="M 860 605 Q 885 605 885 630 Q 885 655 860 665" stroke="#1E3A5F" stroke-width="5" fill="none" stroke-linecap="round"/>
  <path d="M 860 615 Q 835 615 835 640 Q 835 665 860 685" stroke="#1E3A5F" stroke-width="5" fill="none" stroke-linecap="round"/>
  <path d="M 860 625 Q 875 625 875 645 Q 875 665 860 675" stroke="#1E3A5F" stroke-width="5" fill="none" stroke-linecap="round"/>
  <path d="M 860 635 Q 845 635 845 655 Q 845 675 860 690" stroke="#1E3A5F" stroke-width="5" fill="none" stroke-linecap="round"/>

  <!-- Connecting line to bell -->
  <line x1="860" y1="710" x2="860" y2="750" stroke="#1E3A5F" stroke-width="4" stroke-dasharray="10,10"/>
  <circle cx="840" cy="730" r="4" fill="#1E3A5F"/>
  <circle cx="880" cy="730" r="4" fill="#1E3A5F"/>

  <!-- Bottom Right: Bell -->
  <circle cx="860" cy="800" r="8" fill="#1E3A5F"/>
  <path d="M 860 808 L 860 820 Q 860 825 850 835 L 870 835 Q 860 825 860 820 Z" fill="#8B7FD6" stroke="#1E3A5F" stroke-width="6"/>
  <path d="M 845 835 Q 860 850 875 835" stroke="#1E3A5F" stroke-width="5" fill="none" stroke-linecap="round"/>

  <!-- Decorative dots -->
  <circle cx="310" cy="150" r="5" fill="#5DADE2" opacity="0.6"/>
  <circle cx="280" cy="170" r="5" fill="#8B7FD6" opacity="0.6"/>
  <circle cx="420" cy="150" r="5" fill="#5DADE2" opacity="0.6"/>
  
  <circle cx="700" cy="260" r="4" fill="#5DADE2" opacity="0.6"/>
  <circle cx="720" cy="250" r="4" fill="#8B7FD6" opacity="0.6"/>
  
  <circle cx="920" cy="880" r="5" fill="#5DADE2" opacity="0.6"/>
  <circle cx="780" cy="920" r="5" fill="#8B7FD6" opacity="0.6"/>
</svg>
