<svg viewBox="0 0 1200 800" xmlns="http://www.w3.org/2000/svg" role="img" aria-labelledby="title desc">
  <title id="title">API Rate Limiting Visualization</title>
  <desc id="desc">Gauge with request buckets, burst indicators, timer elements, quota bars, and throttling symbol illustrating API rate limiting.</desc>

  <!-- ====== Definitions ====== -->
  <defs>
    <linearGradient id="purpleBlue" x1="0%" y1="0%" x2="100%" y2="100%">
      <stop offset="0%" stop-color="#8B5CF6"/>
      <stop offset="100%" stop-color="#6366F1"/>
    </linearGradient>
    <linearGradient id="bluePurple" x1="0%" y1="0%" x2="100%" y2="0%">
      <stop offset="0%" stop-color="#3B82F6"/>
      <stop offset="100%" stop-color="#8B5CF6"/>
    </linearGradient>

    <filter id="shadow" x="-20%" y="-20%" width="140%" height="140%">
      <feDropShadow dx="0" dy="2" stdDeviation="6" flood-opacity="0.2"/>
    </filter>

    <symbol id="droplet" viewBox="0 0 24 24">
      <path d="M12 2c2.8 4.4 6.5 7.6 6.5 11.2A6.5 6.5 0 1 1 5.5 13.2C5.5 9.6 9.2 6.4 12 2z" fill="url(#purpleBlue)"/>
    </symbol>

    <symbol id="bucket" viewBox="0 0 64 64">
      <rect x="10" y="18" width="44" height="34" rx="8" ry="8" fill="none" stroke="#6B6FF6" stroke-width="3"/>
      <rect x="6" y="12" width="52" height="10" rx="5" ry="5" fill="url(#bluePurple)" />
      <use href="#droplet" x="20" y="28" width="24" height="24"/>
    </symbol>

    <symbol id="hourglass" viewBox="0 0 64 64">
      <path d="M12 10h40v6c0 8-8 14-16 16 8 2 16 8 16 16v6H12v-6c0-8 8-14 16-16-8-2-16-8-16-16v-6z"
            fill="none" stroke="#7C83F7" stroke-width="3"/>
      <path d="M32 31l-8-7h16l-8 7zM24 47h16l-8-7-8 7z" fill="url(#purpleBlue)"/>
    </symbol>

    <symbol id="clock" viewBox="0 0 64 64">
      <circle cx="32" cy="32" r="26" fill="none" stroke="#7C83F7" stroke-width="3"/>
      <circle cx="32" cy="32" r="3" fill="url(#purpleBlue)"/>
      <path d="M32 16v16l11 7" stroke="#6366F1" stroke-width="4" stroke-linecap="round" fill="none"/>
    </symbol>

    <symbol id="bars" viewBox="0 0 64 64">
      <rect x="6"  y="38" width="10" height="20" rx="3" fill="url(#bluePurple)"/>
      <rect x="24" y="30" width="10" height="28" rx="3" fill="url(#purpleBlue)"/>
      <rect x="42" y="18" width="10" height="40" rx="3" fill="url(#bluePurple)"/>
      <rect x="4" y="58" width="52" height="3" rx="1.5" fill="#D9DBFF"/>
    </symbol>

    <symbol id="snail" viewBox="0 0 64 64">
      <circle cx="28" cy="36" r="12" fill="none" stroke="#8B5CF6" stroke-width="3"/>
      <path d="M22 36a6 6 0 1 1 12 0" fill="none" stroke="#8B5CF6" stroke-width="3"/>
      <path d="M8 40c8 0 14 8 26 8h10c6 0 10-4 10-10 0-5-4-9-9-9" fill="none" stroke="#6366F1" stroke-width="3" stroke-linecap="round"/>
      <circle cx="45" cy="27" r="2.5" fill="#6366F1"/>
      <path d="M48 23l6-4M46 22l-5-4" stroke="#7C83F7" stroke-width="2" stroke-linecap="round"/>
    </symbol>

    <path id="gaugeArc" d="M300 520 A300 300 0 0 1 900 520" fill="none"/>

    <marker id="arrowHead" markerWidth="12" markerHeight="10" refX="10" refY="5" orient="auto">
      <path d="M0,0 L10,5 L0,10 z" fill="#A4A9FF"/>
    </marker>
  </defs>

  <style>
    /* Increased sizes for labels */
    .label { font: 700 26px/1.2 ui-sans-serif, -apple-system, Segoe UI, Roboto, Inter, Arial; fill:#5B5FC7; letter-spacing: .5px; }
    .small { font: 700 22px/1.2 ui-sans-serif, -apple-system, Segoe UI, Roboto, Inter, Arial; fill:#6870F0; }
    .big   { font: 800 44px/1 ui-sans-serif, Inter, Arial; fill:url(#purpleBlue); letter-spacing: .5px; }
    .num   { font: 800 48px/1.1 ui-sans-serif, Inter, Arial; fill:#6366F1; }
    .muted { fill:#8EA0FF; font: 600 18px/1.2 ui-sans-serif, Inter, Arial; }
  </style>

  <!-- Title -->
  <g text-anchor="middle">
    <text x="600" y="110" class="big">API RATE LIMITING</text>
  </g>

  <!-- Gauge (ARCH THICKENED) -->
  <g filter="url(#shadow)">
    <!-- Background arc thicker -->
    <path d="M300 520 A300 300 0 0 1 900 520" stroke="#E7E9FF" stroke-width="44" fill="none" stroke-linecap="round"/>
    <!-- Progress arc thicker -->
    <path d="M300 520 A300 300 0 0 1 900 520" stroke="url(#purpleBlue)" stroke-width="44" fill="none"
          stroke-linecap="round" stroke-dasharray="600 300" stroke-dashoffset="-90"/>
    <!-- Ticks thicker to match -->
    <use href="#gaugeArc" stroke="#C9CCFF" stroke-width="16" stroke-dasharray="35 35" />
    <!-- Needle -->
    <g transform="translate(600,520) rotate(-35)">
      <circle r="16" fill="url(#bluePurple)" />
      <path d="M0 0 L-8 -180 L8 -180 Z" fill="url(#purpleBlue)"/>
      <circle r="6" fill="#fff"/>
    </g>
  </g>

  <!-- Left column -->
  <g text-anchor="middle">
    <use href="#bucket" x="120" y="190" width="140" height="140"/>
    <text x="190" y="360" class="label">REQUESTS</text>

    <g transform="translate(120,400)">
      <use href="#bucket" width="140" height="140"/>
      <text x="70" y="170" class="label">BURST</text>
    </g>

    <path d="M285 305 H360" stroke="#A4A9FF" stroke-width="4" marker-end="url(#arrowHead)" fill="none"/>
  </g>

  <!-- Right column -->
  <g text-anchor="middle">
    <use href="#bucket" x="940" y="190" width="140" height="140"/>
    <text x="1010" y="360" class="label">BURST</text>

    <g transform="translate(920,380)">
      <use href="#clock" width="190" height="190"/>
    </g>

    <g transform="translate(930,585)">
      <text x="80" y="25" class="num">429</text>
      <text x="80" y="52" class="muted">TOO MANY REQUESTS</text>
    </g>

    <g transform="translate(920,610)">
      <use href="#bars" width="180" height="135"/>
      <text x="90" y="150" class="small">QUOTA</text>
    </g>

    <!-- Arrow points LEFT -->
    <path d="M930 305 H840" stroke="#A4A9FF" stroke-width="4" marker-end="url(#arrowHead)" fill="none"/>
  </g>

  <!-- Throttle -->
  <g transform="translate(418,588)" text-anchor="middle" filter="url(#shadow)">
    <circle cx="170" cy="60" r="72" fill="#F3F4FF" />
    <circle cx="170" cy="60" r="72" fill="url(#purpleBlue)" opacity="0.12"/>
    <use href="#snail" x="110" y="0" width="120" height="120"/>
    <text x="170" y="178" class="label">THROTTLE</text>
  </g>

  <!-- Hourglass -->
  <g transform="translate(160,600)" text-anchor="middle">
    <use href="#hourglass" width="118" height="118"/>
    <text x="59" y="138" class="small">WINDOW</text>
  </g>
</svg>
