<svg xmlns="http://www.w3.org/2000/svg" width="1600" height="900" viewBox="0 0 1600 900" style="background:none">

    <defs>
      <marker id="arrow" viewBox="0 0 10 10" refX="9" refY="5" markerWidth="9" markerHeight="9" orient="auto-start-reverse">
        <path d="M 0 0 L 10 5 L 0 10 z" fill="#2B8CFF"/>
      </marker>
      <marker id="arrow-purple" viewBox="0 0 10 10" refX="9" refY="5" markerWidth="9" markerHeight="9" orient="auto-start-reverse">
        <path d="M 0 0 L 10 5 L 0 10 z" fill="#6F3CD4"/>
      </marker>
      <style>
        @import url('https://fonts.googleapis.com/css2?family=Inter:wght@500;600;700&display=swap');
        text { font-family: Inter, Segoe UI, Roboto, sans-serif; fill: #0F172A; }
        .muted { fill: #64748B; }
        .caption { font-size: 16px; fill: #64748B; }
        .title { font-size: 22px; font-weight: 700; }
        .label { font-size: 18px; font-weight: 600; }
        .chip { font-size: 14px; font-weight: 600; }
      </style>
    </defs>

<text x="800.0" y="40" text-anchor="middle" class="title">API → Event Trigger → Webhook → Response</text>
<rect x="80.0" y="80" width="240" height="110" rx="16" ry="16" stroke="#6F3CD4" stroke-width="3" fill="none"/>
<text x="200" y="118" text-anchor="middle" class="label">API Request</text>
<rect x="130" y="136" width="38" height="46" rx="6" fill="none" stroke="#6F3CD4" stroke-width="2"/>
<path d="M 140 152 H 158" stroke="#6F3CD4" stroke-width="2"/>
<path d="M 140 160 H 158" stroke="#6F3CD4" stroke-width="2"/>
<path d="M 140 168 H 152" stroke="#6F3CD4" stroke-width="2"/>
<text x="178" y="166" font-size="20" font-weight="600" fill="#6F3CD4">HTTP</text>
<path d="M 240 160 h 22" stroke="#6F3CD4" stroke-width="2"/>
<path d="M 260 160 l -6 -6 M 260 160 l -6 6" stroke="#6F3CD4" stroke-width="2"/>
<path d="M 200 200 V 780" stroke="#64748B" stroke-dasharray="6,8" stroke-width="2"/>
<rect x="480.0" y="80" width="240" height="110" rx="16" ry="16" stroke="#2B8CFF" stroke-width="3" fill="none"/>
<text x="600" y="118" text-anchor="middle" class="label">Event Trigger</text>
<rect x="560" y="140" width="80" height="14" rx="4" fill="none" stroke="#2B8CFF" stroke-width="2"/>
<circle cx="630" cy="147" r="2.5" fill="#2B8CFF"/>
<circle cx="622" cy="147" r="2.5" fill="#2B8CFF"/>
<rect x="560" y="158" width="80" height="14" rx="4" fill="none" stroke="#2B8CFF" stroke-width="2"/>
<circle cx="630" cy="165" r="2.5" fill="#2B8CFF"/>
<circle cx="622" cy="165" r="2.5" fill="#2B8CFF"/>
<rect x="560" y="176" width="80" height="14" rx="4" fill="none" stroke="#2B8CFF" stroke-width="2"/>
<circle cx="630" cy="183" r="2.5" fill="#2B8CFF"/>
<circle cx="622" cy="183" r="2.5" fill="#2B8CFF"/>
<path d="M 600 200 V 780" stroke="#64748B" stroke-dasharray="6,8" stroke-width="2"/>
<rect x="880.0" y="80" width="240" height="110" rx="16" ry="16" stroke="#6F3CD4" stroke-width="3" fill="none"/>
<text x="1000" y="118" text-anchor="middle" class="label">Webhook Handler</text>
<path d="M 962 144 c 14 -6, 28 6, 20 20 -10 18 -36 10 -36 -8 0 -13 11 -24 24 -24" fill="none" stroke="#6F3CD4" stroke-width="3" stroke-linecap="round"/>
<rect x="1002" y="138" width="34" height="22" rx="4" fill="none" stroke="#6F3CD4" stroke-width="2"/>
<path d="M 1002 138 l 17 11 l 17 -11" fill="none" stroke="#6F3CD4" stroke-width="2"/>
<path d="M 1000 200 V 780" stroke="#64748B" stroke-dasharray="6,8" stroke-width="2"/>
<rect x="1280.0" y="80" width="240" height="110" rx="16" ry="16" stroke="#2B8CFF" stroke-width="3" fill="none"/>
<text x="1400" y="118" text-anchor="middle" class="label">Response</text>
<circle cx="1400" cy="150" r="16" fill="none" stroke="#2B8CFF" stroke-width="3"/><path d="M 1392 152 l 6 6 l 14 -14" fill="none" stroke="#2B8CFF" stroke-width="3" stroke-linecap="round"/>
<path d="M 1400 200 V 780" stroke="#64748B" stroke-dasharray="6,8" stroke-width="2"/>
<path d="M 320 260 H 480" stroke="#2B8CFF" stroke-width="3" marker-end="url(#arrow)" fill="none"/>
<text x="400.0" y="248" text-anchor="middle" class="label" fill="#2B8CFF">HTTP POST /event (TLS)</text>
<rect x="250.0" y="228" width="22" height="16" rx="3" fill="none" stroke="#2B8CFF" stroke-width="2"/>
<path d="M 255.0 228 v -6 a 6 6 0 0 1 12 0 v 6" fill="none" stroke="#2B8CFF" stroke-width="2"/>
<path d="M 530.0 198 l 16 -6 l 16 6 v 10 c 0 10 -8 18 -16 22 -8 -4 -16 -12 -16 -22 z" fill="none" stroke="#2B8CFF" stroke-width="2"/>
<text x="280.0" y="234" class="chip" fill="#2B8CFF">TLS 1.2+</text>
<rect x="340" y="266" width="130" height="24" rx="12" fill="none" stroke="#2B8CFF" stroke-width="1.8"/><text x="350" y="284" class="chip" fill="#2B8CFF">HMAC-SHA256</text>
<path d="M 322 266 m 0 0 l 0 18 M 332 266 l 0 18 M 316 272 h 28 M 314 278 h 28" fill="none" stroke="#2B8CFF" stroke-width="2" stroke-linecap="round"/>
<rect x="484" y="266" width="130" height="24" rx="12" fill="none" stroke="#2B8CFF" stroke-width="1.8"/><text x="494" y="284" class="chip" fill="#2B8CFF">X-Signature</text>
<path d="M 466 266 m 0 0 l 0 18 M 476 266 l 0 18 M 460 272 h 28 M 458 278 h 28" fill="none" stroke="#2B8CFF" stroke-width="2" stroke-linecap="round"/>
<rect x="628" y="266" width="70" height="24" rx="12" fill="none" stroke="#2B8CFF" stroke-width="1.8"/><text x="638" y="284" class="chip" fill="#2B8CFF">nonce</text>
<rect x="712" y="266" width="110" height="24" rx="12" fill="none" stroke="#2B8CFF" stroke-width="1.8"/><text x="722" y="284" class="chip" fill="#2B8CFF">timestamp</text>
<path d="M 720 360 H 880" stroke="#6F3CD4" stroke-width="3" marker-end="url(#arrow-purple)" fill="none"/>
<text x="800.0" y="348" text-anchor="middle" class="label" fill="#6F3CD4">Webhook Delivery</text>
<rect x="740" y="366" width="240" height="24" rx="12" fill="none" stroke="#6F3CD4" stroke-width="1.8"/><text x="750" y="384" class="chip" fill="#6F3CD4">Retry-After on failure</text>
<rect x="994" y="366" width="170" height="24" rx="12" fill="none" stroke="#6F3CD4" stroke-width="1.8"/><text x="1004" y="384" class="chip" fill="#6F3CD4">Idempotency-Key</text>
<path d="M 1120 460 H 1280" stroke="#2B8CFF" stroke-width="3" marker-end="url(#arrow)" fill="none"/>
<text x="1200.0" y="448" text-anchor="middle" class="label" fill="#2B8CFF">200 OK + Confirmation</text>
<rect x="1140" y="466" width="150" height="24" rx="12" fill="none" stroke="#2B8CFF" stroke-width="1.8"/><text x="1150" y="484" class="chip" fill="#2B8CFF">Digest header</text>
<path d="M 1122 466 m 0 0 l 0 18 M 1132 466 l 0 18 M 1116 472 h 28 M 1114 478 h 28" fill="none" stroke="#2B8CFF" stroke-width="2" stroke-linecap="round"/>
<rect x="1304" y="466" width="200" height="24" rx="12" fill="none" stroke="#2B8CFF" stroke-width="1.8"/><text x="1314" y="484" class="chip" fill="#2B8CFF">Signature-Verified</text>
<path d="M 1286 466 m 0 0 l 0 18 M 1296 466 l 0 18 M 1280 472 h 28 M 1278 478 h 28" fill="none" stroke="#2B8CFF" stroke-width="2" stroke-linecap="round"/>
<text x="800.0" y="860" text-anchor="middle" class="caption">Purple &amp; blue vector sequence diagram • Transparent background • Security indicators &amp; HMAC</text>
</svg>