<svg width="800" height="600" viewBox="0 0 800 600" xmlns="http://www.w3.org/2000/svg">
  <!-- Background (transparent) -->
  
  <!-- Gradient Definitions -->
  <defs>
    <linearGradient id="purpleBlue" x1="0%" y1="0%" x2="100%" y2="0%">
      <stop offset="0%" style="stop-color:#8B5CF6;stop-opacity:1" />
      <stop offset="100%" style="stop-color:#3B82F6;stop-opacity:1" />
    </linearGradient>
    
    <linearGradient id="lightPurple" x1="0%" y1="0%" x2="100%" y2="100%">
      <stop offset="0%" style="stop-color:#A78BFA;stop-opacity:0.2" />
      <stop offset="100%" style="stop-color:#8B5CF6;stop-opacity:0.3" />
    </linearGradient>
    
    <linearGradient id="lightBlue" x1="0%" y1="0%" x2="100%" y2="100%">
      <stop offset="0%" style="stop-color:#60A5FA;stop-opacity:0.2" />
      <stop offset="100%" style="stop-color:#3B82F6;stop-opacity:0.3" />
    </linearGradient>
    
    <filter id="shadow" x="-20%" y="-20%" width="140%" height="140%">
      <feDropShadow dx="2" dy="4" stdDeviation="3" flood-color="#000000" flood-opacity="0.1"/>
    </filter>
    
    <!-- Smaller Arrow Marker Definition -->
    <marker id="arrowhead" markerWidth="8" markerHeight="6" refX="7" refY="3" orient="auto" markerUnits="strokeWidth">
      <polygon points="0 0, 8 3, 0 6" fill="url(#purpleBlue)" stroke="url(#purpleBlue)" stroke-width="1"/>
    </marker>
  </defs>
  
  <!-- Title -->
  <text x="400" y="40" font-family="Arial, sans-serif" font-size="24" font-weight="bold" text-anchor="middle" fill="url(#purpleBlue)">
    AUTOMATED DEAL FLOW PROCESS
  </text>
  
  <!-- Stage 1: Discovery -->
  <g id="discovery">
    <!-- Stage Box -->
    <rect x="50" y="100" width="120" height="80" rx="10" fill="url(#lightPurple)" stroke="#8B5CF6" stroke-width="2" filter="url(#shadow)"/>
    
    <!-- Stage Icon (Search) - MOVED DOWN 15px -->
    <circle cx="110" cy="140" r="16" fill="none" stroke="#8B5CF6" stroke-width="3"/>
    <line x1="122" y1="152" x2="130" y2="160" stroke="#8B5CF6" stroke-width="3"/>
    
    <!-- Automation Symbol (Gear) - MOVED DOWN 7px -->
    <g transform="translate(145, 117)">
      <circle cx="0" cy="0" r="10" fill="#8B5CF6"/>
      <circle cx="0" cy="0" r="5" fill="white"/>
      <rect x="-2" y="-12" width="4" height="5" fill="#8B5CF6"/>
      <rect x="-2" y="7" width="4" height="5" fill="#8B5CF6"/>
      <rect x="-12" y="-2" width="5" height="4" fill="#8B5CF6"/>
      <rect x="7" y="-2" width="5" height="4" fill="#8B5CF6"/>
    </g>
    
    <!-- Stage Label - MOVED DOWN 15px -->
    <text x="110" y="173" font-family="Arial, sans-serif" font-size="16" font-weight="bold" text-anchor="middle" fill="#8B5CF6">Discovery</text>
    
    <!-- Efficiency Indicator - BIGGER TEXT -->
    <rect x="45" y="190" width="130" height="25" rx="12" fill="#8B5CF6" opacity="0.1"/>
    <text x="110" y="206" font-family="Arial, sans-serif" font-size="12" text-anchor="middle" fill="#8B5CF6">1000+ deals/day</text>
  </g>
  
  <!-- Arrow 1: Discovery to Screening (centered horizontally) -->
  <line x1="185" y1="140" x2="215" y2="140" stroke="url(#purpleBlue)" stroke-width="2" marker-end="url(#arrowhead)"/>
  
  <!-- Stage 2: Screening -->
  <g id="screening">
    <!-- Stage Box -->
    <rect x="230" y="100" width="120" height="80" rx="10" fill="url(#lightPurple)" stroke="#7C3AED" stroke-width="2" filter="url(#shadow)"/>
    
    <!-- Stage Icon (Filter) - MOVED DOWN 15px -->
    <path d="M 275 135 L 305 135 L 295 150 L 285 150 Z" fill="none" stroke="#7C3AED" stroke-width="3"/>
    <line x1="290" y1="150" x2="290" y2="165" stroke="#7C3AED" stroke-width="3"/>
    
    <!-- Automation Symbol (Robot) - MOVED DOWN 7px -->
    <g transform="translate(325, 117)">
      <rect x="-8" y="-8" width="16" height="16" rx="3" fill="#7C3AED"/>
      <circle cx="-3" cy="-3" r="2" fill="white"/>
      <circle cx="3" cy="-3" r="2" fill="white"/>
      <rect x="-4" y="2" width="8" height="3" fill="white"/>
    </g>
    
    <!-- Stage Label - MOVED DOWN 15px -->
    <text x="290" y="173" font-family="Arial, sans-serif" font-size="16" font-weight="bold" text-anchor="middle" fill="#7C3AED">Screening</text>
    
    <!-- Efficiency Indicator - BIGGER TEXT -->
    <rect x="225" y="190" width="130" height="25" rx="12" fill="#7C3AED" opacity="0.1"/>
    <text x="290" y="206" font-family="Arial, sans-serif" font-size="12" text-anchor="middle" fill="#7C3AED">AI Score: 95% accuracy</text>
  </g>
  
  <!-- Arrow 2: Screening to Evaluation (centered horizontally) -->
  <line x1="365" y1="140" x2="395" y2="140" stroke="url(#purpleBlue)" stroke-width="2" marker-end="url(#arrowhead)"/>
  
  <!-- Stage 3: Evaluation -->
  <g id="evaluation">
    <!-- Stage Box -->
    <rect x="410" y="100" width="120" height="80" rx="10" fill="url(#lightBlue)" stroke="#3B82F6" stroke-width="2" filter="url(#shadow)"/>
    
    <!-- Stage Icon (Analytics) - MOVED DOWN 15px -->
    <path d="M 450 155 L 465 140 L 480 147 L 495 133" fill="none" stroke="#3B82F6" stroke-width="3"/>
    <rect x="448" y="153" width="6" height="12" fill="#3B82F6"/>
    <rect x="463" y="145" width="6" height="20" fill="#3B82F6"/>
    <rect x="478" y="149" width="6" height="16" fill="#3B82F6"/>
    
    <!-- Automation Symbol (AI Brain) - MOVED DOWN 7px -->
    <g transform="translate(505, 117)">
      <path d="M -8 -4 Q -8 -10 0 -10 Q 8 -10 8 -4 Q 8 3 0 3 Q -8 3 -8 -4" fill="#3B82F6"/>
      <circle cx="-3" cy="-4" r="2" fill="white"/>
      <circle cx="3" cy="-4" r="2" fill="white"/>
      <path d="M -4 0 Q 0 3 4 0" stroke="white" stroke-width="2" fill="none"/>
    </g>
    
    <!-- Stage Label - MOVED DOWN 15px -->
    <text x="470" y="173" font-family="Arial, sans-serif" font-size="16" font-weight="bold" text-anchor="middle" fill="#3B82F6">Evaluation</text>
    
    <!-- Efficiency Indicator - BIGGER TEXT -->
    <rect x="405" y="190" width="130" height="25" rx="12" fill="#3B82F6" opacity="0.1"/>
    <text x="470" y="206" font-family="Arial, sans-serif" font-size="12" text-anchor="middle" fill="#3B82F6">2 hours vs 2 days</text>
  </g>
  
  <!-- Arrow 3: Evaluation to Demo (centered horizontally) -->
  <line x1="545" y1="140" x2="575" y2="140" stroke="url(#purpleBlue)" stroke-width="2" marker-end="url(#arrowhead)"/>
  
  <!-- Stage 4: Demo -->
  <g id="demo">
    <!-- Stage Box -->
    <rect x="590" y="100" width="120" height="80" rx="10" fill="url(#lightBlue)" stroke="#2563EB" stroke-width="2" filter="url(#shadow)"/>
    
    <!-- Stage Icon (Presentation) - MOVED DOWN 15px -->
    <rect x="630" y="135" width="40" height="25" rx="3" fill="none" stroke="#2563EB" stroke-width="3"/>
    <circle cx="645" cy="147" r="4" fill="#2563EB"/>
    <line x1="650" y1="147" x2="665" y2="147" stroke="#2563EB" stroke-width="2"/>
    
    <!-- Automation Symbol (Calendar) - MOVED DOWN 7px -->
    <g transform="translate(685, 117)">
      <rect x="-8" y="-8" width="16" height="16" rx="2" fill="none" stroke="#2563EB" stroke-width="2"/>
      <line x1="-5" y1="-8" x2="-5" y2="-11" stroke="#2563EB" stroke-width="2"/>
      <line x1="5" y1="-8" x2="5" y2="-11" stroke="#2563EB" stroke-width="2"/>
      <line x1="-8" y1="-3" x2="8" y2="-3" stroke="#2563EB" stroke-width="2"/>
    </g>
    
    <!-- Stage Label - MOVED DOWN 15px -->
    <text x="650" y="173" font-family="Arial, sans-serif" font-size="16" font-weight="bold" text-anchor="middle" fill="#2563EB">Demo</text>
    
    <!-- Efficiency Indicator - BIGGER TEXT -->
    <rect x="585" y="190" width="130" height="25" rx="12" fill="#2563EB" opacity="0.1"/>
    <text x="650" y="206" font-family="Arial, sans-serif" font-size="12" text-anchor="middle" fill="#2563EB">80% faster scheduling</text>
  </g>
  
  <!-- Arrow 4: Demo to Decision (pointing exactly to top corner of Decision diamond at 400,300) -->
  <path d="M 710 140 L 730 140 L 730 280 L 400 280 L 400 300" stroke="url(#purpleBlue)" stroke-width="2" fill="none" marker-end="url(#arrowhead)"/>
  
  <!-- Stage 5: Decision -->
  <g id="decision">
    <!-- Stage Box (Diamond shape) -->
    <path d="M 400 300 L 450 330 L 400 360 L 350 330 Z" fill="url(#lightBlue)" stroke="#1E40AF" stroke-width="2" filter="url(#shadow)"/>
    
    <!-- Stage Icon (Checkmark) - BIGGER -->
    <path d="M 380 330 L 395 345 L 420 315" fill="none" stroke="#1E40AF" stroke-width="4"/>
    
    <!-- Automation Symbol (Lightning) - MOVED DOWN 7px -->
    <g transform="translate(420, 322)">
      <path d="M -4 -10 L 4 -3 L -1 -3 L 4 10 L -4 3 L 1 3 Z" fill="#1E40AF"/>
    </g>
    
    <!-- Stage Label - BIGGER TEXT -->
    <text x="400" y="385" font-family="Arial, sans-serif" font-size="16" font-weight="bold" text-anchor="middle" fill="#1E40AF">Decision</text>
    
    <!-- Efficiency Indicator - BIGGER TEXT -->
    <rect x="335" y="395" width="130" height="25" rx="12" fill="#1E40AF" opacity="0.1"/>
    <text x="400" y="410" font-family="Arial, sans-serif" font-size="12" text-anchor="middle" fill="#1E40AF">Decision: 48 hours</text>
  </g>
  
  <!-- Automation Flow Indicators -->
  <g id="automation-flow">
    <!-- Data flow lines (dotted) -->
    <line x1="110" y1="220" x2="290" y2="220" stroke="#8B5CF6" stroke-width="1" stroke-dasharray="3,3" opacity="0.6"/>
    <line x1="290" y1="220" x2="470" y2="220" stroke="#7C3AED" stroke-width="1" stroke-dasharray="3,3" opacity="0.6"/>
    <line x1="470" y1="220" x2="650" y2="220" stroke="#3B82F6" stroke-width="1" stroke-dasharray="3,3" opacity="0.6"/>
    
    <!-- Data flow label -->
    <text x="400" y="235" font-family="Arial, sans-serif" font-size="9" text-anchor="middle" fill="#6B7280" opacity="0.8">Automated Data Flow</text>
  </g>
  
  <!-- Key Metrics Box -->
  <g id="metrics">
    <rect x="50" y="450" width="700" height="120" rx="10" fill="white" stroke="url(#purpleBlue)" stroke-width="2" opacity="0.95" filter="url(#shadow)"/>
    
    <text x="400" y="475" font-family="Arial, sans-serif" font-size="16" font-weight="bold" text-anchor="middle" fill="url(#purpleBlue)">Process Efficiency Gains</text>
    
    <!-- Metrics Grid -->
    <g transform="translate(80, 490)">
      <!-- Metric 1 -->
      <circle cx="0" cy="10" r="4" fill="#8B5CF6"/>
      <text x="15" y="15" font-family="Arial, sans-serif" font-size="12" fill="#374151">90% reduction in manual screening</text>
      
      <!-- Metric 2 -->
      <circle cx="0" cy="35" r="4" fill="#7C3AED"/>
      <text x="15" y="40" font-family="Arial, sans-serif" font-size="12" fill="#374151">75% faster evaluation process</text>
      
      <!-- Metric 3 -->
      <circle cx="350" cy="10" r="4" fill="#3B82F6"/>
      <text x="365" y="15" font-family="Arial, sans-serif" font-size="12" fill="#374151">60% improvement in decision accuracy</text>
      
      <!-- Metric 4 -->
      <circle cx="350" cy="35" r="4" fill="#2563EB"/>
      <text x="365" y="40" font-family="Arial, sans-serif" font-size="12" fill="#374151">24/7 automated deal sourcing</text>
    </g>
  </g>
</svg>
