<svg width="800" height="600" viewBox="0 0 800 600" xmlns="http://www.w3.org/2000/svg">
  <!-- Background (transparent) -->
  
  <!-- Gradient Definitions -->
  <defs>
    <linearGradient id="purpleBlue" x1="0%" y1="0%" x2="100%" y2="0%">
      <stop offset="0%" style="stop-color:#8B5CF6;stop-opacity:1" />
      <stop offset="100%" style="stop-color:#3B82F6;stop-opacity:1" />
    </linearGradient>
    
    <linearGradient id="lightPurple" x1="0%" y1="0%" x2="100%" y2="100%">
      <stop offset="0%" style="stop-color:#A78BFA;stop-opacity:0.2" />
      <stop offset="100%" style="stop-color:#8B5CF6;stop-opacity:0.3" />
    </linearGradient>
    
    <linearGradient id="lightBlue" x1="0%" y1="0%" x2="100%" y2="100%">
      <stop offset="0%" style="stop-color:#60A5FA;stop-opacity:0.2" />
      <stop offset="100%" style="stop-color:#3B82F6;stop-opacity:0.3" />
    </linearGradient>
    
    <filter id="shadow" x="-20%" y="-20%" width="140%" height="140%">
      <feDropShadow dx="2" dy="4" stdDeviation="3" flood-color="#000000" flood-opacity="0.1"/>
    </filter>
    
    <!-- Arrow Marker Definition -->
    <marker id="arrowhead" markerWidth="12" markerHeight="10" refX="11" refY="5" orient="auto" markerUnits="strokeWidth">
      <polygon points="0 0, 12 5, 0 10" fill="url(#purpleBlue)" stroke="url(#purpleBlue)" stroke-width="1"/>
    </marker>
  </defs>
  
  <!-- Title -->
  <text x="400" y="40" font-family="Arial, sans-serif" font-size="24" font-weight="bold" text-anchor="middle" fill="url(#purpleBlue)">
    AUTOMATED DEAL FLOW PROCESS
  </text>
  
  <!-- Stage 1: Discovery -->
  <g id="discovery">
    <!-- Stage Box -->
    <rect x="50" y="100" width="120" height="80" rx="10" fill="url(#lightPurple)" stroke="#8B5CF6" stroke-width="2" filter="url(#shadow)"/>
    
    <!-- Stage Icon (Search) -->
    <circle cx="110" cy="125" r="12" fill="none" stroke="#8B5CF6" stroke-width="2"/>
    <line x1="119" y1="134" x2="125" y2="140" stroke="#8B5CF6" stroke-width="2"/>
    
    <!-- Automation Symbol (Gear) -->
    <g transform="translate(145, 110)">
      <circle cx="0" cy="0" r="8" fill="#8B5CF6"/>
      <circle cx="0" cy="0" r="4" fill="white"/>
      <rect x="-2" y="-10" width="4" height="4" fill="#8B5CF6"/>
      <rect x="-2" y="6" width="4" height="4" fill="#8B5CF6"/>
      <rect x="-10" y="-2" width="4" height="4" fill="#8B5CF6"/>
      <rect x="6" y="-2" width="4" height="4" fill="#8B5CF6"/>
    </g>
    
    <!-- Stage Label -->
    <text x="110" y="155" font-family="Arial, sans-serif" font-size="12" font-weight="bold" text-anchor="middle" fill="#8B5CF6">Discovery</text>
    
    <!-- Efficiency Indicator -->
    <rect x="45" y="190" width="130" height="25" rx="12" fill="#8B5CF6" opacity="0.1"/>
    <text x="110" y="205" font-family="Arial, sans-serif" font-size="10" text-anchor="middle" fill="#8B5CF6">1000+ deals/day</text>
  </g>
  
  <!-- Arrow 1: Discovery to Screening -->
  <line x1="170" y1="140" x2="230" y2="140" stroke="url(#purpleBlue)" stroke-width="4" marker-end="url(#arrowhead)"/>
  
  <!-- Stage 2: Screening -->
  <g id="screening">
    <!-- Stage Box -->
    <rect x="230" y="100" width="120" height="80" rx="10" fill="url(#lightPurple)" stroke="#7C3AED" stroke-width="2" filter="url(#shadow)"/>
    
    <!-- Stage Icon (Filter) -->
    <path d="M 275 125 L 295 125 L 290 135 L 280 135 Z" fill="none" stroke="#7C3AED" stroke-width="2"/>
    <line x1="285" y1="135" x2="285" y2="145" stroke="#7C3AED" stroke-width="2"/>
    
    <!-- Automation Symbol (Robot) -->
    <g transform="translate(325, 110)">
      <rect x="-6" y="-6" width="12" height="12" rx="2" fill="#7C3AED"/>
      <circle cx="-2" cy="-2" r="1" fill="white"/>
      <circle cx="2" cy="-2" r="1" fill="white"/>
      <rect x="-3" y="1" width="6" height="2" fill="white"/>
    </g>
    
    <!-- Stage Label -->
    <text x="290" y="155" font-family="Arial, sans-serif" font-size="12" font-weight="bold" text-anchor="middle" fill="#7C3AED">Screening</text>
    
    <!-- Efficiency Indicator -->
    <rect x="225" y="190" width="130" height="25" rx="12" fill="#7C3AED" opacity="0.1"/>
    <text x="290" y="205" font-family="Arial, sans-serif" font-size="10" text-anchor="middle" fill="#7C3AED">AI Score: 95% accuracy</text>
  </g>
  
  <!-- Arrow 2: Screening to Evaluation -->
  <line x1="350" y1="140" x2="410" y2="140" stroke="url(#purpleBlue)" stroke-width="4" marker-end="url(#arrowhead)"/>
  
  <!-- Stage 3: Evaluation -->
  <g id="evaluation">
    <!-- Stage Box -->
    <rect x="410" y="100" width="120" height="80" rx="10" fill="url(#lightBlue)" stroke="#3B82F6" stroke-width="2" filter="url(#shadow)"/>
    
    <!-- Stage Icon (Analytics) -->
    <path d="M 455 135 L 465 125 L 475 130 L 485 120" fill="none" stroke="#3B82F6" stroke-width="2"/>
    <rect x="453" y="133" width="4" height="8" fill="#3B82F6"/>
    <rect x="463" y="128" width="4" height="13" fill="#3B82F6"/>
    <rect x="473" y="131" width="4" height="10" fill="#3B82F6"/>
    
    <!-- Automation Symbol (AI Brain) -->
    <g transform="translate(505, 110)">
      <path d="M -6 -3 Q -6 -8 0 -8 Q 6 -8 6 -3 Q 6 2 0 2 Q -6 2 -6 -3" fill="#3B82F6"/>
      <circle cx="-2" cy="-3" r="1" fill="white"/>
      <circle cx="2" cy="-3" r="1" fill="white"/>
      <path d="M -3 0 Q 0 2 3 0" stroke="white" stroke-width="1" fill="none"/>
    </g>
    
    <!-- Stage Label -->
    <text x="470" y="155" font-family="Arial, sans-serif" font-size="12" font-weight="bold" text-anchor="middle" fill="#3B82F6">Evaluation</text>
    
    <!-- Efficiency Indicator -->
    <rect x="405" y="190" width="130" height="25" rx="12" fill="#3B82F6" opacity="0.1"/>
    <text x="470" y="205" font-family="Arial, sans-serif" font-size="10" text-anchor="middle" fill="#3B82F6">2 hours vs 2 days</text>
  </g>
  
  <!-- Arrow 3: Evaluation to Demo -->
  <line x1="530" y1="140" x2="590" y2="140" stroke="url(#purpleBlue)" stroke-width="4" marker-end="url(#arrowhead)"/>
  
  <!-- Stage 4: Demo -->
  <g id="demo">
    <!-- Stage Box -->
    <rect x="590" y="100" width="120" height="80" rx="10" fill="url(#lightBlue)" stroke="#2563EB" stroke-width="2" filter="url(#shadow)"/>
    
    <!-- Stage Icon (Presentation) -->
    <rect x="635" y="125" width="30" height="20" rx="2" fill="none" stroke="#2563EB" stroke-width="2"/>
    <circle cx="645" cy="135" r="3" fill="#2563EB"/>
    <line x1="648" y1="135" x2="658" y2="135" stroke="#2563EB" stroke-width="1"/>
    
    <!-- Automation Symbol (Calendar) -->
    <g transform="translate(685, 110)">
      <rect x="-6" y="-6" width="12" height="12" rx="1" fill="none" stroke="#2563EB" stroke-width="1"/>
      <line x1="-4" y1="-6" x2="-4" y2="-8" stroke="#2563EB" stroke-width="1"/>
      <line x1="4" y1="-6" x2="4" y2="-8" stroke="#2563EB" stroke-width="1"/>
      <line x1="-6" y1="-2" x2="6" y2="-2" stroke="#2563EB" stroke-width="1"/>
    </g>
    
    <!-- Stage Label -->
    <text x="650" y="155" font-family="Arial, sans-serif" font-size="12" font-weight="bold" text-anchor="middle" fill="#2563EB">Demo</text>
    
    <!-- Efficiency Indicator -->
    <rect x="585" y="190" width="130" height="25" rx="12" fill="#2563EB" opacity="0.1"/>
    <text x="650" y="205" font-family="Arial, sans-serif" font-size="10" text-anchor="middle" fill="#2563EB">80% faster scheduling</text>
  </g>
  
  <!-- Arrow 4: Demo to Decision (Improved curved arrow) -->
  <path d="M 650 180 Q 650 230 550 260 Q 450 290 400 300" stroke="url(#purpleBlue)" stroke-width="4" fill="none" marker-end="url(#arrowhead)"/>
  
  <!-- Stage 5: Decision -->
  <g id="decision">
    <!-- Stage Box (Diamond shape) -->
    <path d="M 400 300 L 450 330 L 400 360 L 350 330 Z" fill="url(#lightBlue)" stroke="#1E40AF" stroke-width="2" filter="url(#shadow)"/>
    
    <!-- Stage Icon (Checkmark) -->
    <path d="M 385 330 L 395 340 L 415 320" fill="none" stroke="#1E40AF" stroke-width="3"/>
    
    <!-- Automation Symbol (Lightning) -->
    <g transform="translate(420, 315)">
      <path d="M -3 -8 L 3 -2 L -1 -2 L 3 8 L -3 2 L 1 2 Z" fill="#1E40AF"/>
    </g>
    
    <!-- Stage Label -->
    <text x="400" y="385" font-family="Arial, sans-serif" font-size="12" font-weight="bold" text-anchor="middle" fill="#1E40AF">Decision</text>
    
    <!-- Efficiency Indicator -->
    <rect x="335" y="395" width="130" height="25" rx="12" fill="#1E40AF" opacity="0.1"/>
    <text x="400" y="410" font-family="Arial, sans-serif" font-size="10" text-anchor="middle" fill="#1E40AF">Decision: 48 hours</text>
  </g>
  
  <!-- Automation Flow Indicators -->
  <g id="automation-flow">
    <!-- Data flow lines (dotted) -->
    <line x1="110" y1="220" x2="290" y2="220" stroke="#8B5CF6" stroke-width="1" stroke-dasharray="3,3" opacity="0.6"/>
    <line x1="290" y1="220" x2="470" y2="220" stroke="#7C3AED" stroke-width="1" stroke-dasharray="3,3" opacity="0.6"/>
    <line x1="470" y1="220" x2="650" y2="220" stroke="#3B82F6" stroke-width="1" stroke-dasharray="3,3" opacity="0.6"/>
    
    <!-- Data flow label -->
    <text x="400" y="235" font-family="Arial, sans-serif" font-size="9" text-anchor="middle" fill="#6B7280" opacity="0.8">Automated Data Flow</text>
  </g>
  
  <!-- Key Metrics Box -->
  <g id="metrics">
    <rect x="50" y="450" width="700" height="120" rx="10" fill="white" stroke="url(#purpleBlue)" stroke-width="2" opacity="0.95" filter="url(#shadow)"/>
    
    <text x="400" y="475" font-family="Arial, sans-serif" font-size="16" font-weight="bold" text-anchor="middle" fill="url(#purpleBlue)">Process Efficiency Gains</text>
    
    <!-- Metrics Grid -->
    <g transform="translate(80, 490)">
      <!-- Metric 1 -->
      <circle cx="0" cy="10" r="4" fill="#8B5CF6"/>
      <text x="15" y="15" font-family="Arial, sans-serif" font-size="12" fill="#374151">90% reduction in manual screening</text>
      
      <!-- Metric 2 -->
      <circle cx="0" cy="35" r="4" fill="#7C3AED"/>
      <text x="15" y="40" font-family="Arial, sans-serif" font-size="12" fill="#374151">75% faster evaluation process</text>
      
      <!-- Metric 3 -->
      <circle cx="350" cy="10" r="4" fill="#3B82F6"/>
      <text x="365" y="15" font-family="Arial, sans-serif" font-size="12" fill="#374151">60% improvement in decision accuracy</text>
      
      <!-- Metric 4 -->
      <circle cx="350" cy="35" r="4" fill="#2563EB"/>
      <text x="365" y="40" font-family="Arial, sans-serif" font-size="12" fill="#374151">24/7 automated deal sourcing</text>
    </g>
  </g>
</svg>
