<svg xmlns="http://www.w3.org/2000/svg" width="800" height="600" viewBox="0 0 800 600" style="background: linear-gradient(135deg, #f8fafc 0%, #f1f5f9 100%);">
  <defs>
    <!-- Enhanced Gradients -->
    <linearGradient id="purpleBlue" x1="0%" y1="0%" x2="100%" y2="100%">
      <stop offset="0%" style="stop-color:#6366f1;stop-opacity:1" />
      <stop offset="50%" style="stop-color:#8b5cf6;stop-opacity:1" />
      <stop offset="100%" style="stop-color:#3b82f6;stop-opacity:1" />
    </linearGradient>
    
    <linearGradient id="goldGradient" x1="0%" y1="0%" x2="100%" y2="100%">
      <stop offset="0%" style="stop-color:#fbbf24;stop-opacity:1" />
      <stop offset="100%" style="stop-color:#f59e0b;stop-opacity:1" />
    </linearGradient>
    
    <linearGradient id="greenGradient" x1="0%" y1="0%" x2="100%" y2="100%">
      <stop offset="0%" style="stop-color:#10b981;stop-opacity:1" />
      <stop offset="100%" style="stop-color:#059669;stop-opacity:1" />
    </linearGradient>
    
    <linearGradient id="cardGradient" x1="0%" y1="0%" x2="0%" y2="100%">
      <stop offset="0%" style="stop-color:#ffffff;stop-opacity:1" />
      <stop offset="100%" style="stop-color:#f8fafc;stop-opacity:1" />
    </linearGradient>
    
    <linearGradient id="headerGradient" x1="0%" y1="0%" x2="100%" y2="100%">
      <stop offset="0%" style="stop-color:#1e293b;stop-opacity:0.95" />
      <stop offset="100%" style="stop-color:#334155;stop-opacity:0.95" />
    </linearGradient>
    
    <!-- Advanced Shadow Filters -->
    <filter id="cardShadow" x="-50%" y="-50%" width="200%" height="200%">
      <feGaussianBlur in="SourceAlpha" stdDeviation="8"/>
      <feOffset dx="0" dy="4" result="offsetblur"/>
      <feComponentTransfer>
        <feFuncA type="linear" slope="0.15"/>
      </feComponentTransfer>
      <feMerge>
        <feMergeNode/>
        <feMergeNode in="SourceGraphic"/>
      </feMerge>
    </filter>
    
    <filter id="glowEffect" x="-50%" y="-50%" width="200%" height="200%">
      <feGaussianBlur in="SourceGraphic" stdDeviation="3" result="coloredBlur"/>
      <feMerge>
        <feMergeNode in="coloredBlur"/>
        <feMergeNode in="SourceGraphic"/>
      </feMerge>
    </filter>
    
    <filter id="innerShadow" x="-50%" y="-50%" width="200%" height="200%">
      <feGaussianBlur in="SourceGraphic" stdDeviation="2"/>
      <feOffset dx="0" dy="2"/>
      <feComposite operator="over"/>
    </filter>
    
    <!-- Patterns -->
    <pattern id="dots" x="0" y="0" width="20" height="20" patternUnits="userSpaceOnUse">
      <circle cx="2" cy="2" r="1" fill="#e2e8f0" opacity="0.3"/>
    </pattern>
  </defs>
  
  <!-- Background Pattern -->
  <rect width="800" height="600" fill="url(#dots)"/>
  
  <!-- Header Section -->
  <rect x="0" y="0" width="800" height="45" fill="url(#headerGradient)"/>
  
  <!-- Main Title with Enhanced Typography -->
  <text x="400" y="28" font-family="'Segoe UI', system-ui, -apple-system, sans-serif" font-size="20" font-weight="700" fill="white" text-anchor="middle" letter-spacing="0.5px">
    Automated Pipeline Scoring System
  </text>
  
  <!-- Premium Automation Badge -->
  <g transform="translate(720, 22)">
    <rect x="-35" y="-12" width="70" height="24" rx="12" fill="url(#purpleBlue)" filter="url(#glowEffect)"/>
    <circle cx="-20" cy="0" r="6" fill="white" opacity="0.9"/>
    <path d="M -23,-3 L -17,3 M -23,3 L -17,-3" stroke="url(#purpleBlue)" stroke-width="1.2" fill="none"/>
    <circle cx="-20" cy="0" r="2.5" fill="none" stroke="url(#purpleBlue)" stroke-width="1"/>
    <text x="5" y="4" font-family="'Segoe UI', system-ui, sans-serif" font-size="10" font-weight="600" fill="white">AI POWERED</text>
  </g>
  
  <!-- Enhanced Startup Cards -->
  <!-- Card 1 - Premium Winner -->
  <g transform="translate(30, 65)" filter="url(#cardShadow)">
    <rect width="240" height="155" rx="12" fill="url(#cardGradient)" stroke="url(#purpleBlue)" stroke-width="2"/>
    
    <!-- Premium Header with Gradient -->
    <rect width="240" height="40" rx="12" fill="url(#purpleBlue)"/>
    <rect x="0" y="28" width="240" height="12" fill="url(#purpleBlue)" opacity="0.3"/>
    
    <!-- Winner Crown -->
    <g transform="translate(15, 20)">
      <path d="M 0,-5 L 3,-8 L 6,-5 L 9,-8 L 12,-5 L 10,0 L 2,0 Z" fill="url(#goldGradient)"/>
      <circle cx="3" cy="-6" r="1.5" fill="#fbbf24"/>
      <circle cx="6" cy="-7" r="1.5" fill="#fbbf24"/>
      <circle cx="9" cy="-6" r="1.5" fill="#fbbf24"/>
    </g>
    
    <text x="35" y="25" font-family="'Segoe UI', system-ui, sans-serif" font-size="16" font-weight="700" fill="white">
      TechFlow AI
    </text>
    
    <!-- Premium Rank Badge -->
    <g transform="translate(210, 20)">
      <circle cx="0" cy="0" r="15" fill="url(#goldGradient)" filter="url(#glowEffect)"/>
      <text x="0" y="5" font-family="'Segoe UI', system-ui, sans-serif" font-size="14" font-weight="800" fill="white" text-anchor="middle">1</text>
    </g>
    
    <!-- Enhanced Score Circle -->
    <g transform="translate(200, 95)">
      <circle cx="0" cy="0" r="22" fill="none" stroke="#e5e7eb" stroke-width="4"/>
      <circle cx="0" cy="0" r="22" fill="none" stroke="url(#purpleBlue)" stroke-width="4" 
              stroke-dasharray="138" stroke-dashoffset="11" transform="rotate(-90)" filter="url(#glowEffect)"/>
      <circle cx="0" cy="0" r="18" fill="white" opacity="0.9"/>
      <text x="0" y="-2" font-family="'Segoe UI', system-ui, sans-serif" font-size="18" font-weight="800" fill="#6366f1" text-anchor="middle">92</text>
      <text x="0" y="12" font-family="'Segoe UI', system-ui, sans-serif" font-size="8" font-weight="600" fill="#64748b" text-anchor="middle">SCORE</text>
    </g>
    
    <!-- Enhanced Metrics with Icons -->
    <g transform="translate(15, 65)">
      <!-- Market Size -->
      <circle cx="3" cy="3" r="3" fill="#6366f1" opacity="0.2"/>
      <text x="12" y="7" font-family="'Segoe UI', system-ui, sans-serif" font-size="10" font-weight="600" fill="#6366f1">Market Size</text>
      <rect x="12" y="10" width="150" height="8" rx="4" fill="#e5e7eb"/>
      <rect x="12" y="10" width="135" height="8" rx="4" fill="url(#purpleBlue)"/>
      <text x="170" y="17" font-family="'Segoe UI', system-ui, sans-serif" font-size="11" font-weight="700" fill="#6366f1">$12B</text>
      
      <!-- Defensibility -->
      <circle cx="3" cy="28" r="3" fill="#3b82f6" opacity="0.2"/>
      <text x="12" y="32" font-family="'Segoe UI', system-ui, sans-serif" font-size="10" font-weight="600" fill="#3b82f6">Defensibility</text>
      <rect x="12" y="35" width="150" height="8" rx="4" fill="#e5e7eb"/>
      <rect x="12" y="35" width="127" height="8" rx="4" fill="#3b82f6"/>
      <text x="170" y="42" font-family="'Segoe UI', system-ui, sans-serif" font-size="11" font-weight="700" fill="#3b82f6">85%</text>
      
      <!-- Speed -->
      <circle cx="3" cy="53" r="3" fill="#8b5cf6" opacity="0.2"/>
      <text x="12" y="57" font-family="'Segoe UI', system-ui, sans-serif" font-size="10" font-weight="600" fill="#8b5cf6">Speed</text>
      <rect x="12" y="60" width="150" height="8" rx="4" fill="#e5e7eb"/>
      <rect x="12" y="60" width="142" height="8" rx="4" fill="url(#purpleBlue)"/>
      <text x="170" y="67" font-family="'Segoe UI', system-ui, sans-serif" font-size="11" font-weight="700" fill="#8b5cf6">95%</text>
    </g>
    
    <!-- Premium Status Badge -->
    <rect x="15" y="130" width="80" height="20" rx="10" fill="url(#greenGradient)" filter="url(#glowEffect)"/>
    <text x="55" y="143" font-family="'Segoe UI', system-ui, sans-serif" font-size="10" font-weight="700" fill="white" text-anchor="middle">✓ APPROVED</text>
  </g>
  
  <!-- Card 2 - Enhanced Design -->
  <g transform="translate(285, 65)" filter="url(#cardShadow)">
    <rect width="240" height="155" rx="12" fill="url(#cardGradient)" stroke="#e2e8f0" stroke-width="1.5"/>
    <rect width="240" height="40" rx="12" fill="url(#headerGradient)"/>
    
    <text x="20" y="25" font-family="'Segoe UI', system-ui, sans-serif" font-size="16" font-weight="600" fill="white">
      DataSync Pro
    </text>
    
    <g transform="translate(210, 20)">
      <circle cx="0" cy="0" r="15" fill="#3b82f6" opacity="0.9"/>
      <text x="0" y="5" font-family="'Segoe UI', system-ui, sans-serif" font-size="14" font-weight="700" fill="white" text-anchor="middle">2</text>
    </g>
    
    <g transform="translate(200, 95)">
      <circle cx="0" cy="0" r="22" fill="none" stroke="#e5e7eb" stroke-width="4"/>
      <circle cx="0" cy="0" r="22" fill="none" stroke="#3b82f6" stroke-width="4" 
              stroke-dasharray="138" stroke-dashoffset="35" transform="rotate(-90)"/>
      <circle cx="0" cy="0" r="18" fill="white" opacity="0.9"/>
      <text x="0" y="-2" font-family="'Segoe UI', system-ui, sans-serif" font-size="18" font-weight="800" fill="#3b82f6" text-anchor="middle">75</text>
      <text x="0" y="12" font-family="'Segoe UI', system-ui, sans-serif" font-size="8" font-weight="600" fill="#64748b" text-anchor="middle">SCORE</text>
    </g>
    
    <g transform="translate(15, 65)">
      <circle cx="3" cy="3" r="3" fill="#6366f1" opacity="0.2"/>
      <text x="12" y="7" font-family="'Segoe UI', system-ui, sans-serif" font-size="10" font-weight="600" fill="#6366f1">Market Size</text>
      <rect x="12" y="10" width="150" height="8" rx="4" fill="#e5e7eb"/>
      <rect x="12" y="10" width="105" height="8" rx="4" fill="#6366f1"/>
      <text x="170" y="17" font-family="'Segoe UI', system-ui, sans-serif" font-size="11" font-weight="700" fill="#6366f1">$8B</text>
      
      <circle cx="3" cy="28" r="3" fill="#3b82f6" opacity="0.2"/>
      <text x="12" y="32" font-family="'Segoe UI', system-ui, sans-serif" font-size="10" font-weight="600" fill="#3b82f6">Defensibility</text>
      <rect x="12" y="35" width="150" height="8" rx="4" fill="#e5e7eb"/>
      <rect x="12" y="35" width="97" height="8" rx="4" fill="#3b82f6"/>
      <text x="170" y="42" font-family="'Segoe UI', system-ui, sans-serif" font-size="11" font-weight="700" fill="#3b82f6">65%</text>
      
      <circle cx="3" cy="53" r="3" fill="#60a5fa" opacity="0.2"/>
      <text x="12" y="57" font-family="'Segoe UI', system-ui, sans-serif" font-size="10" font-weight="600" fill="#60a5fa">Speed</text>
      <rect x="12" y="60" width="150" height="8" rx="4" fill="#e5e7eb"/>
      <rect x="12" y="60" width="120" height="8" rx="4" fill="#3b82f6"/>
      <text x="170" y="67" font-family="'Segoe UI', system-ui, sans-serif" font-size="11" font-weight="700" fill="#3b82f6">80%</text>
    </g>
    
    <rect x="15" y="130" width="80" height="20" rx="10" fill="url(#goldGradient)" opacity="0.9"/>
    <text x="55" y="143" font-family="'Segoe UI', system-ui, sans-serif" font-size="10" font-weight="700" fill="white" text-anchor="middle">⚡ REVIEW</text>
  </g>
  
  <!-- Card 3 - Enhanced Design -->
  <g transform="translate(540, 65)" filter="url(#cardShadow)">
    <rect width="240" height="155" rx="12" fill="url(#cardGradient)" stroke="#e2e8f0" stroke-width="1.5"/>
    <rect width="240" height="40" rx="12" fill="url(#headerGradient)" opacity="0.7"/>
    
    <text x="20" y="25" font-family="'Segoe UI', system-ui, sans-serif" font-size="16" font-weight="600" fill="white">
      CloudBase Inc
    </text>
    
    <g transform="translate(210, 20)">
      <circle cx="0" cy="0" r="15" fill="#8b5cf6" opacity="0.7"/>
      <text x="0" y="5" font-family="'Segoe UI', system-ui, sans-serif" font-size="14" font-weight="700" fill="white" text-anchor="middle">3</text>
    </g>
    
    <g transform="translate(200, 95)">
      <circle cx="0" cy="0" r="22" fill="none" stroke="#e5e7eb" stroke-width="4"/>
      <circle cx="0" cy="0" r="22" fill="none" stroke="#a78bfa" stroke-width="4" 
              stroke-dasharray="138" stroke-dashoffset="55" transform="rotate(-90)"/>
      <circle cx="0" cy="0" r="18" fill="white" opacity="0.9"/>
      <text x="0" y="-2" font-family="'Segoe UI', system-ui, sans-serif" font-size="18" font-weight="800" fill="#a78bfa" text-anchor="middle">60</text>
      <text x="0" y="12" font-family="'Segoe UI', system-ui, sans-serif" font-size="8" font-weight="600" fill="#64748b" text-anchor="middle">SCORE</text>
    </g>
    
    <g transform="translate(15, 65)">
      <circle cx="3" cy="3" r="3" fill="#6366f1" opacity="0.2"/>
      <text x="12" y="7" font-family="'Segoe UI', system-ui, sans-serif" font-size="10" font-weight="600" fill="#6366f1">Market Size</text>
      <rect x="12" y="10" width="150" height="8" rx="4" fill="#e5e7eb"/>
      <rect x="12" y="10" width="75" height="8" rx="4" fill="#6366f1"/>
      <text x="170" y="17" font-family="'Segoe UI', system-ui, sans-serif" font-size="11" font-weight="700" fill="#6366f1">$5B</text>
      
      <circle cx="3" cy="28" r="3" fill="#a78bfa" opacity="0.2"/>
      <text x="12" y="32" font-family="'Segoe UI', system-ui, sans-serif" font-size="10" font-weight="600" fill="#a78bfa">Defensibility</text>
      <rect x="12" y="35" width="150" height="8" rx="4" fill="#e5e7eb"/>
      <rect x="12" y="35" width="82" height="8" rx="4" fill="#a78bfa"/>
      <text x="170" y="42" font-family="'Segoe UI', system-ui, sans-serif" font-size="11" font-weight="700" fill="#a78bfa">55%</text>
      
      <circle cx="3" cy="53" r="3" fill="#a78bfa" opacity="0.2"/>
      <text x="12" y="57" font-family="'Segoe UI', system-ui, sans-serif" font-size="10" font-weight="600" fill="#a78bfa">Speed</text>
      <rect x="12" y="60" width="150" height="8" rx="4" fill="#e5e7eb"/>
      <rect x="12" y="60" width="97" height="8" rx="4" fill="#a78bfa"/>
      <text x="170" y="67" font-family="'Segoe UI', system-ui, sans-serif" font-size="11" font-weight="700" fill="#a78bfa">65%</text>
    </g>
    
    <rect x="15" y="130" width="80" height="20" rx="10" fill="#64748b" opacity="0.8"/>
    <text x="55" y="143" font-family="'Segoe UI', system-ui, sans-serif" font-size="10" font-weight="700" fill="white" text-anchor="middle">⏳ PENDING</text>
  </g>
  
  <!-- Enhanced Comparison Chart -->
  <g transform="translate(30, 240)">
    <rect width="370" height="220" rx="12" fill="url(#cardGradient)" stroke="#e2e8f0" stroke-width="1.5" filter="url(#cardShadow)"/>
    
    <text x="20" y="25" font-family="'Segoe UI', system-ui, sans-serif" font-size="16" font-weight="700" fill="#1e293b">
      Portfolio Performance
    </text>
    
    <!-- Enhanced Chart -->
    <line x1="50" y1="180" x2="350" y2="180" stroke="#e2e8f0" stroke-width="2"/>
    <line x1="50" y1="60" x2="50" y2="180" stroke="#e2e8f0" stroke-width="2"/>
    
    <!-- Grid and Labels -->
    <text x="42" y="65" font-family="'Segoe UI', system-ui, sans-serif" font-size="10" fill="#64748b" text-anchor="end">100</text>
    <text x="42" y="95" font-family="'Segoe UI', system-ui, sans-serif" font-size="10" fill="#64748b" text-anchor="end">75</text>
    <text x="42" y="125" font-family="'Segoe UI', system-ui, sans-serif" font-size="10" fill="#64748b" text-anchor="end">50</text>
    <text x="42" y="155" font-family="'Segoe UI', system-ui, sans-serif" font-size="10" fill="#64748b" text-anchor="end">25</text>
    
    <!-- Enhanced Bars with Gradients -->
    <rect x="80" y="68" width="60" height="112" rx="6" fill="url(#purpleBlue)" filter="url(#glowEffect)"/>
    <text x="110" y="195" font-family="'Segoe UI', system-ui, sans-serif" font-size="11" font-weight="600" fill="#6366f1" text-anchor="middle">TechFlow</text>
    <text x="110" y="210" font-family="'Segoe UI', system-ui, sans-serif" font-size="14" font-weight="800" fill="#6366f1" text-anchor="middle">92</text>
    
    <rect x="170" y="90" width="60" height="90" rx="6" fill="#3b82f6" opacity="0.9"/>
    <text x="200" y="195" font-family="'Segoe UI', system-ui, sans-serif" font-size="11" font-weight="600" fill="#3b82f6" text-anchor="middle">DataSync</text>
    <text x="200" y="210" font-family="'Segoe UI', system-ui, sans-serif" font-size="14" font-weight="800" fill="#3b82f6" text-anchor="middle">75</text>
    
    <rect x="260" y="112" width="60" height="68" rx="6" fill="#a78bfa" opacity="0.8"/>
    <text x="290" y="195" font-family="'Segoe UI', system-ui, sans-serif" font-size="11" font-weight="600" fill="#a78bfa" text-anchor="middle">CloudBase</text>
    <text x="290" y="210" font-family="'Segoe UI', system-ui, sans-serif" font-size="14" font-weight="800" fill="#a78bfa" text-anchor="middle">60</text>
  </g>
  
  <!-- Enhanced Scoring Criteria Panel -->
  <g transform="translate(420, 240)">
    <rect width="350" height="220" rx="12" fill="url(#cardGradient)" stroke="#e2e8f0" stroke-width="1.5" filter="url(#cardShadow)"/>
    
    <text x="20" y="25" font-family="'Segoe UI', system-ui, sans-serif" font-size="16" font-weight="700" fill="#1e293b">
      AI Scoring Matrix
    </text>
    
    <!-- AI Badge -->
    <g transform="translate(320, 15)">
      <rect x="-15" y="-8" width="30" height="16" rx="8" fill="url(#purpleBlue)" filter="url(#glowEffect)"/>
      <text x="0" y="2" font-family="'Segoe UI', system-ui, sans-serif" font-size="8" font-weight="600" fill="white" text-anchor="middle">AI</text>
    </g>
    
    <!-- Enhanced Criteria Items -->
    <g transform="translate(20, 45)">
      <rect x="0" y="0" width="310" height="38" rx="8" fill="url(#purpleBlue)" opacity="0.1" stroke="url(#purpleBlue)" stroke-width="1"/>
      <circle cx="20" cy="19" r="16" fill="url(#purpleBlue)" filter="url(#glowEffect)"/>
      <text x="20" y="24" font-family="'Segoe UI', system-ui, sans-serif" font-size="14" font-weight="800" fill="white" text-anchor="middle">1</text>
      <text x="45" y="16" font-family="'Segoe UI', system-ui, sans-serif" font-size="12" font-weight="700" fill="#1e293b">Market Opportunity</text>
      <text x="45" y="28" font-family="'Segoe UI', system-ui, sans-serif" font-size="9" fill="#64748b">TAM analysis, growth trends, timing</text>
      <circle cx="275" cy="19" r="8" fill="url(#greenGradient)"/>
      <text x="290" y="23" font-family="'Segoe UI', system-ui, sans-serif" font-size="12" font-weight="800" fill="#059669">35%</text>
      
      <rect x="0" y="45" width="310" height="38" rx="8" fill="#3b82f6" opacity="0.08" stroke="#3b82f6" stroke-width="1"/>
      <circle cx="20" cy="64" r="16" fill="#3b82f6"/>
      <text x="20" y="69" font-family="'Segoe UI', system-ui, sans-serif" font-size="14" font-weight="800" fill="white" text-anchor="middle">2</text>
      <text x="45" y="61" font-family="'Segoe UI', system-ui, sans-serif" font-size="12" font-weight="700" fill="#1e293b">Competitive Advantage</text>
      <text x="45" y="73" font-family="'Segoe UI', system-ui, sans-serif" font-size="9" fill="#64748b">IP portfolio, network effects, barriers</text>
      <circle cx="275" cy="64" r="8" fill="#3b82f6"/>
      <text x="290" y="68" font-family="'Segoe UI', system-ui, sans-serif" font-size="12" font-weight="800" fill="#3b82f6">30%</text>
      
      <rect x="0" y="90" width="310" height="38" rx="8" fill="#8b5cf6" opacity="0.08" stroke="#8b5cf6" stroke-width="1"/>
      <circle cx="20" cy="109" r="16" fill="#8b5cf6"/>
      <text x="20" y="114" font-family="'Segoe UI', system-ui, sans-serif" font-size="14" font-weight="800" fill="white" text-anchor="middle">3</text>
      <text x="45" y="106" font-family="'Segoe UI', system-ui, sans-serif" font-size="12" font-weight="700" fill="#1e293b">Team Excellence</text>
      <text x="45" y="118" font-family="'Segoe UI', system-ui, sans-serif" font-size="9" fill="#64748b">Track record, execution speed, culture</text>
      <circle cx="275" cy="109" r="8" fill="#8b5cf6"/>
      <text x="290" y="113" font-family="'Segoe UI', system-ui, sans-serif" font-size="12" font-weight="800" fill="#8b5cf6">25%</text>
      
      <rect x="0" y="135" width="310" height="38" rx="8" fill="#60a5fa" opacity="0.08" stroke="#60a5fa" stroke-width="1"/>
      <circle cx="20" cy="154" r="16" fill="#60a5fa"/>
      <text x="20" y="159" font-family="'Segoe UI', system-ui, sans-serif" font-size="14" font-weight="800" fill="white" text-anchor="middle">4</text>
      <text x="45" y="151" font-family="'Segoe UI', system-ui, sans-serif" font-size="12" font-weight="700" fill="#1e293b">Traction Metrics</text>
      <text x="45" y="163" font-family="'Segoe UI', system-ui, sans-serif" font-size="9" fill="#64748b">Revenue growth, user adoption, retention</text>
      <circle cx="275" cy="154" r="8" fill="#60a5fa"/>
      <text x="290" y="158" font-family="'Segoe UI', system-ui, sans-serif" font-size="12" font-weight="800" fill="#60a5fa">10%</text>
    </g>
  </g>
  
  <!-- Enhanced Footer Dashboard -->
  <g transform="translate(30, 480)">
    <rect x="0" y="0" width="740" height="80" rx="12" fill="url(#headerGradient)" filter="url(#cardShadow)"/>
    
    <text x="25" y="25" font-family="'Segoe UI', system-ui, sans-serif" font-size="14" font-weight="700" fill="white">
      Real-Time Analytics Dashboard
    </text>
    
    <!-- Status Indicators -->
    <g transform="translate(25, 40)">
      <circle cx="8" cy="8" r="6" fill="url(#greenGradient)" filter="url(#glowEffect)"/>
      <text x="20" y="12" font-family="'Segoe UI', system-ui, sans-serif" font-size="10" font-weight="600" fill="#e2e8f0">127 companies evaluated</text>
    </g>
    
    <g transform="translate(200, 40)">
      <circle cx="8" cy="8" r="6" fill="url(#purpleBlue)" filter="url(#glowEffect)"/>
      <text x="20" y="12" font-family="'Segoe UI', system-ui, sans-serif" font-size="10" font-weight="600" fill="#e2e8f0">Live ML processing</text>
    </g>
    
    <g transform="translate(370, 40)">
      <circle cx="8" cy="8" r="6" fill="url(#goldGradient)" filter="url(#glowEffect)"/>
      <text x="20" y="12" font-family="'Segoe UI', system-ui, sans-serif" font-size="10" font-weight="600" fill="#e2e8f0">Auto-validated insights</text>
    </g>
    
    <!-- Performance Metrics -->
    <g transform="translate(550, 35)">
      <rect x="0" y="0" width="160" height="35" rx="6" fill="white" opacity="0.1"/>
      <text x="10" y="15" font-family="'Segoe UI', system-ui, sans-serif" font-size="9" font-weight="600" fill="#e2e8f0">Avg Score: </text>
      <text x="65" y="15" font-family="'Segoe UI', system-ui, sans-serif" font-size="12" font-weight="800" fill="#fbbf24">75.6</text>
      <text x="10" y="28" font-family="'Segoe UI', system-ui, sans-serif" font-size="9" font-weight="600" fill="#e2e8f0">Success Rate: </text>
      <text x="75" y="28" font-family="'Segoe UI', system-ui, sans-serif" font-size="12" font-weight="800" fill="#10b981">68%</text>
    </g>
  </g>
  
  <!-- Decorative Elements -->
  <circle cx="750" cy="550" r="40" fill="url(#purpleBlue)" opacity="0.05"/>
  <circle cx="730" cy="570" r="25" fill="#3b82f6" opacity="0.03"/>
  <circle cx="80" cy="560" r="30" fill="#8b5cf6" opacity="0.04"/>
  
  <!-- Floating Elements -->
  <g transform="translate(700, 300)" opacity="0.1">
    <circle cx="0" cy="0" r="3" fill="url(#purpleBlue)"/>
    <circle cx="15" cy="-10" r="2" fill="#3b82f6"/>
    <circle cx="-8" cy="12" r="2.5" fill="#8b5cf6"/>
  </g>
</svg>
